M48
; DRILL file {KiCad 7.0.1} date Sat Mar 18 02:10:12 2023
; FORMAT={-:-/ absolute / metric / decimal}
; #@! TF.CreationDate,2023-03-18T02:10:12+02:00
; #@! TF.GenerationSoftware,Kicad,Pcbnew,7.0.1
; #@! TF.FileFunction,MixedPlating,1,2
FMAT,2
METRIC
; #@! TA.AperFunction,Plated,PTH,ViaDrill
T1C0.400
; #@! TA.AperFunction,Plated,PTH,ComponentDrill
T2C1.000
; #@! TA.AperFunction,NonPlated,NPTH,ComponentDrill
T3C2.200
%
G90
G05
T1
X95.85Y-55.65
X97.85Y-77.85
X99.75Y-68.95
X102.25Y-76.05
X103.15Y-69.45
X103.15Y-83.45
X103.903Y-63.561
X104.55Y-78.05
X105.65Y-69.45
X105.85Y-80.45
X106.35Y-87.25
X106.75Y-75.55
X106.824Y-61.91
X106.85Y-78.05
X107.35Y-71.05
X108.15Y-69.35
X108.15Y-80.45
X108.55Y-75.0
X108.624Y-61.636
X109.237Y-63.942
X110.65Y-69.35
X111.25Y-80.35
X112.5Y-74.5
X113.047Y-63.942
X113.15Y-66.75
X115.65Y-69.25
X116.857Y-63.942
X117.0Y-75.5
X117.55Y-80.45
X118.15Y-69.25
X118.153Y-61.783
X118.55Y-73.85
X118.55Y-85.65
X119.397Y-63.942
X119.55Y-77.95
X120.05Y-70.75
X120.75Y-69.25
X122.572Y-63.942
X122.65Y-80.25
X123.05Y-84.75
X123.25Y-69.15
X123.35Y-76.75
X123.85Y-74.85
X127.05Y-85.55
X127.25Y-80.25
X127.45Y-76.25
X127.85Y-62.15
X127.85Y-73.45
X129.95Y-75.95
X131.25Y-56.05
T2
X99.458Y-57.719
X99.458Y-60.259
X101.998Y-57.719
X101.998Y-60.259
X104.538Y-57.719
X104.538Y-60.259
X104.69Y-96.45
X104.69Y-98.99
X107.078Y-57.719
X107.078Y-60.259
X107.23Y-96.45
X107.23Y-98.99
X109.618Y-57.719
X109.618Y-60.259
X109.77Y-96.45
X109.77Y-98.99
X112.158Y-57.719
X112.158Y-60.259
X112.31Y-96.45
X112.31Y-98.99
X114.698Y-57.719
X114.698Y-60.259
X114.85Y-96.45
X114.85Y-98.99
X117.238Y-57.719
X117.238Y-60.259
X117.39Y-96.45
X117.39Y-98.99
X119.778Y-57.719
X119.778Y-60.259
X119.93Y-96.45
X119.93Y-98.99
X122.318Y-57.719
X122.318Y-60.259
X122.47Y-96.45
X122.47Y-98.99
X124.858Y-57.719
X124.858Y-60.259
X127.398Y-57.719
X127.398Y-60.259
T3
X101.45Y-86.45
X127.45Y-67.45
T0
M30
