G04 #@! TF.GenerationSoftware,KiCad,Pcbnew,7.0.1*
G04 #@! TF.CreationDate,2023-03-18T02:10:12+02:00*
G04 #@! TF.ProjectId,probe-pcb,70726f62-652d-4706-9362-2e6b69636164,rev?*
G04 #@! TF.SameCoordinates,Original*
G04 #@! TF.FileFunction,Copper,L2,Bot*
G04 #@! TF.FilePolarity,Positive*
%FSLAX46Y46*%
G04 Gerber Fmt 4.6, Leading zero omitted, Abs format (unit mm)*
G04 Created by KiCad (PCBNEW 7.0.1) date 2023-03-18 02:10:12*
%MOMM*%
%LPD*%
G01*
G04 APERTURE LIST*
G04 Aperture macros list*
%AMRoundRect*
0 Rectangle with rounded corners*
0 $1 Rounding radius*
0 $2 $3 $4 $5 $6 $7 $8 $9 X,Y pos of 4 corners*
0 Add a 4 corners polygon primitive as box body*
4,1,4,$2,$3,$4,$5,$6,$7,$8,$9,$2,$3,0*
0 Add four circle primitives for the rounded corners*
1,1,$1+$1,$2,$3*
1,1,$1+$1,$4,$5*
1,1,$1+$1,$6,$7*
1,1,$1+$1,$8,$9*
0 Add four rect primitives between the rounded corners*
20,1,$1+$1,$2,$3,$4,$5,0*
20,1,$1+$1,$4,$5,$6,$7,0*
20,1,$1+$1,$6,$7,$8,$9,0*
20,1,$1+$1,$8,$9,$2,$3,0*%
G04 Aperture macros list end*
G04 #@! TA.AperFunction,ComponentPad*
%ADD10RoundRect,0.250000X-0.600000X0.600000X-0.600000X-0.600000X0.600000X-0.600000X0.600000X0.600000X0*%
G04 #@! TD*
G04 #@! TA.AperFunction,ComponentPad*
%ADD11C,1.700000*%
G04 #@! TD*
G04 #@! TA.AperFunction,ComponentPad*
%ADD12RoundRect,0.250000X0.600000X-0.600000X0.600000X0.600000X-0.600000X0.600000X-0.600000X-0.600000X0*%
G04 #@! TD*
G04 #@! TA.AperFunction,ViaPad*
%ADD13C,0.800000*%
G04 #@! TD*
G04 #@! TA.AperFunction,Conductor*
%ADD14C,0.500000*%
G04 #@! TD*
G04 #@! TA.AperFunction,Conductor*
%ADD15C,0.400000*%
G04 #@! TD*
G04 APERTURE END LIST*
D10*
G04 #@! TO.P,J1,1,Pin_1*
G04 #@! TO.N,/D0*
X122470000Y-96450000D03*
D11*
G04 #@! TO.P,J1,2,Pin_2*
G04 #@! TO.N,GND*
X122470000Y-98990000D03*
G04 #@! TO.P,J1,3,Pin_3*
G04 #@! TO.N,/D1*
X119930000Y-96450000D03*
G04 #@! TO.P,J1,4,Pin_4*
G04 #@! TO.N,GND*
X119930000Y-98990000D03*
G04 #@! TO.P,J1,5,Pin_5*
G04 #@! TO.N,/D2*
X117390000Y-96450000D03*
G04 #@! TO.P,J1,6,Pin_6*
G04 #@! TO.N,GND*
X117390000Y-98990000D03*
G04 #@! TO.P,J1,7,Pin_7*
G04 #@! TO.N,/D3*
X114850000Y-96450000D03*
G04 #@! TO.P,J1,8,Pin_8*
G04 #@! TO.N,GND*
X114850000Y-98990000D03*
G04 #@! TO.P,J1,9,Pin_9*
G04 #@! TO.N,/D4*
X112310000Y-96450000D03*
G04 #@! TO.P,J1,10,Pin_10*
G04 #@! TO.N,GND*
X112310000Y-98990000D03*
G04 #@! TO.P,J1,11,Pin_11*
G04 #@! TO.N,/D5*
X109770000Y-96450000D03*
G04 #@! TO.P,J1,12,Pin_12*
G04 #@! TO.N,GND*
X109770000Y-98990000D03*
G04 #@! TO.P,J1,13,Pin_13*
G04 #@! TO.N,/D6*
X107230000Y-96450000D03*
G04 #@! TO.P,J1,14,Pin_14*
G04 #@! TO.N,GND*
X107230000Y-98990000D03*
G04 #@! TO.P,J1,15,Pin_15*
G04 #@! TO.N,/D7*
X104690000Y-96450000D03*
G04 #@! TO.P,J1,16,Pin_16*
G04 #@! TO.N,GND*
X104690000Y-98990000D03*
G04 #@! TD*
D12*
G04 #@! TO.P,J2,1,Pin_1*
G04 #@! TO.N,VCC*
X99458000Y-60259000D03*
D11*
G04 #@! TO.P,J2,2,Pin_2*
G04 #@! TO.N,GND*
X99458000Y-57719000D03*
G04 #@! TO.P,J2,3,Pin_3*
G04 #@! TO.N,/D7_P*
X101998000Y-60259000D03*
G04 #@! TO.P,J2,4,Pin_4*
G04 #@! TO.N,/D7_N*
X101998000Y-57719000D03*
G04 #@! TO.P,J2,5,Pin_5*
G04 #@! TO.N,/D6_P*
X104538000Y-60259000D03*
G04 #@! TO.P,J2,6,Pin_6*
G04 #@! TO.N,/D6_N*
X104538000Y-57719000D03*
G04 #@! TO.P,J2,7,Pin_7*
G04 #@! TO.N,/D5_P*
X107078000Y-60259000D03*
G04 #@! TO.P,J2,8,Pin_8*
G04 #@! TO.N,/D5_N*
X107078000Y-57719000D03*
G04 #@! TO.P,J2,9,Pin_9*
G04 #@! TO.N,/D4_P*
X109618000Y-60259000D03*
G04 #@! TO.P,J2,10,Pin_10*
G04 #@! TO.N,/D4_N*
X109618000Y-57719000D03*
G04 #@! TO.P,J2,11,Pin_11*
G04 #@! TO.N,GND*
X112158000Y-60259000D03*
G04 #@! TO.P,J2,12,Pin_12*
X112158000Y-57719000D03*
G04 #@! TO.P,J2,13,Pin_13*
G04 #@! TO.N,+4V*
X114698000Y-60259000D03*
G04 #@! TO.P,J2,14,Pin_14*
X114698000Y-57719000D03*
G04 #@! TO.P,J2,15,Pin_15*
G04 #@! TO.N,/D3_P*
X117238000Y-60259000D03*
G04 #@! TO.P,J2,16,Pin_16*
G04 #@! TO.N,/D3_N*
X117238000Y-57719000D03*
G04 #@! TO.P,J2,17,Pin_17*
G04 #@! TO.N,/D2_P*
X119778000Y-60259000D03*
G04 #@! TO.P,J2,18,Pin_18*
G04 #@! TO.N,/D2_N*
X119778000Y-57719000D03*
G04 #@! TO.P,J2,19,Pin_19*
G04 #@! TO.N,/D1_P*
X122318000Y-60259000D03*
G04 #@! TO.P,J2,20,Pin_20*
G04 #@! TO.N,/D1_N*
X122318000Y-57719000D03*
G04 #@! TO.P,J2,21,Pin_21*
G04 #@! TO.N,/D0_P*
X124858000Y-60259000D03*
G04 #@! TO.P,J2,22,Pin_22*
G04 #@! TO.N,/D0_N*
X124858000Y-57719000D03*
G04 #@! TO.P,J2,23,Pin_23*
G04 #@! TO.N,GND*
X127398000Y-60259000D03*
G04 #@! TO.P,J2,24,Pin_24*
X127398000Y-57719000D03*
G04 #@! TD*
D13*
G04 #@! TO.N,GND*
X119550000Y-77950000D03*
X131250000Y-56050000D03*
X106350000Y-87250000D03*
X123350000Y-76750000D03*
X95850000Y-55650000D03*
X129950000Y-75950000D03*
X104550000Y-78050000D03*
X103903000Y-63561000D03*
X109237000Y-63942000D03*
X99750000Y-68950000D03*
X103150000Y-83450000D03*
X116857000Y-63942000D03*
X107350000Y-71050000D03*
X102250000Y-76050000D03*
X105850000Y-80450000D03*
X120050000Y-70750000D03*
X123850000Y-74850000D03*
X127050000Y-85550000D03*
X108550000Y-75000000D03*
X119397000Y-63942000D03*
X118150000Y-69250000D03*
X123050000Y-84750000D03*
X108150000Y-80450000D03*
X122572000Y-63942000D03*
X123250000Y-69150000D03*
X113150000Y-66750000D03*
X103150000Y-69450000D03*
X108150000Y-69350000D03*
X115650000Y-69250000D03*
X97850000Y-77850000D03*
X111250000Y-80350000D03*
X113047000Y-63942000D03*
X105650000Y-69450000D03*
X112500000Y-74500000D03*
X117000000Y-75500000D03*
X110650000Y-69350000D03*
X120750000Y-69250000D03*
X106824000Y-61910000D03*
X127850000Y-73450000D03*
X117550000Y-80450000D03*
X127850000Y-62150000D03*
X118550000Y-85650000D03*
G04 #@! TO.N,+3V3*
X106750000Y-75550000D03*
X122650000Y-80250000D03*
X127250000Y-80250000D03*
X118550000Y-73850000D03*
X106850000Y-78050000D03*
G04 #@! TO.N,+4V*
X127450000Y-76250000D03*
G04 #@! TO.N,/D2_P*
X118152657Y-61783000D03*
G04 #@! TO.N,/D5_P*
X108624500Y-61636036D03*
G04 #@! TD*
D14*
G04 #@! TO.N,+3V3*
X122650000Y-77950000D02*
X118550000Y-73850000D01*
X122650000Y-80250000D02*
X122650000Y-77950000D01*
X106850000Y-75650000D02*
X106750000Y-75550000D01*
X106850000Y-78050000D02*
X106850000Y-75650000D01*
X127250000Y-80250000D02*
X122650000Y-80250000D01*
G04 #@! TO.N,+4V*
X130450000Y-64450000D02*
X130450000Y-73250000D01*
X130450000Y-73250000D02*
X127450000Y-76250000D01*
X129750000Y-56250000D02*
X129750000Y-63750000D01*
X114698000Y-57719000D02*
X114698000Y-60259000D01*
X121050000Y-55650000D02*
X129150000Y-55650000D01*
X116667000Y-55750000D02*
X120950000Y-55750000D01*
X120950000Y-55750000D02*
X121050000Y-55650000D01*
X129750000Y-63750000D02*
X130450000Y-64450000D01*
X129150000Y-55650000D02*
X129750000Y-56250000D01*
X114698000Y-57719000D02*
X116667000Y-55750000D01*
D15*
G04 #@! TO.N,/D2_P*
X118254000Y-61783000D02*
X119778000Y-60259000D01*
X118152657Y-61783000D02*
X118254000Y-61783000D01*
G04 #@! TO.N,/D5_P*
X108624500Y-61636036D02*
X108455036Y-61636036D01*
X108455036Y-61636036D02*
X107078000Y-60259000D01*
G04 #@! TD*
G04 #@! TA.AperFunction,Conductor*
G04 #@! TO.N,GND*
G36*
X132486789Y-54267393D02*
G01*
X132532247Y-54313470D01*
X132548294Y-54376175D01*
X132468797Y-60258999D01*
X132250217Y-76433931D01*
X132245694Y-76465481D01*
X127800000Y-92450001D01*
X127800000Y-102375500D01*
X127783387Y-102437500D01*
X127738000Y-102482887D01*
X127676000Y-102499500D01*
X99374500Y-102499500D01*
X99312500Y-102482887D01*
X99267113Y-102437500D01*
X99250500Y-102375500D01*
X99250500Y-96450000D01*
X103334340Y-96450000D01*
X103354936Y-96685407D01*
X103399709Y-96852502D01*
X103416097Y-96913663D01*
X103515965Y-97127830D01*
X103651505Y-97321401D01*
X103818599Y-97488495D01*
X104012170Y-97624035D01*
X104226337Y-97723903D01*
X104454592Y-97785063D01*
X104690000Y-97805659D01*
X104925408Y-97785063D01*
X105153663Y-97723903D01*
X105367830Y-97624035D01*
X105561401Y-97488495D01*
X105728495Y-97321401D01*
X105858426Y-97135839D01*
X105902743Y-97096975D01*
X105960000Y-97082964D01*
X106017257Y-97096975D01*
X106061573Y-97135839D01*
X106191505Y-97321401D01*
X106358599Y-97488495D01*
X106552170Y-97624035D01*
X106766337Y-97723903D01*
X106994592Y-97785063D01*
X107230000Y-97805659D01*
X107465408Y-97785063D01*
X107693663Y-97723903D01*
X107907830Y-97624035D01*
X108101401Y-97488495D01*
X108268495Y-97321401D01*
X108398426Y-97135839D01*
X108442743Y-97096975D01*
X108500000Y-97082964D01*
X108557257Y-97096975D01*
X108601573Y-97135839D01*
X108731505Y-97321401D01*
X108898599Y-97488495D01*
X109092170Y-97624035D01*
X109306337Y-97723903D01*
X109534592Y-97785063D01*
X109770000Y-97805659D01*
X110005408Y-97785063D01*
X110233663Y-97723903D01*
X110447830Y-97624035D01*
X110641401Y-97488495D01*
X110808495Y-97321401D01*
X110938426Y-97135839D01*
X110982743Y-97096975D01*
X111040000Y-97082964D01*
X111097257Y-97096975D01*
X111141573Y-97135839D01*
X111271505Y-97321401D01*
X111438599Y-97488495D01*
X111632170Y-97624035D01*
X111846337Y-97723903D01*
X112074592Y-97785063D01*
X112310000Y-97805659D01*
X112545408Y-97785063D01*
X112773663Y-97723903D01*
X112987830Y-97624035D01*
X113181401Y-97488495D01*
X113348495Y-97321401D01*
X113478426Y-97135839D01*
X113522743Y-97096975D01*
X113580000Y-97082964D01*
X113637257Y-97096975D01*
X113681573Y-97135839D01*
X113811505Y-97321401D01*
X113978599Y-97488495D01*
X114172170Y-97624035D01*
X114386337Y-97723903D01*
X114614592Y-97785063D01*
X114850000Y-97805659D01*
X115085408Y-97785063D01*
X115313663Y-97723903D01*
X115527830Y-97624035D01*
X115721401Y-97488495D01*
X115888495Y-97321401D01*
X116018426Y-97135839D01*
X116062743Y-97096975D01*
X116120000Y-97082964D01*
X116177257Y-97096975D01*
X116221573Y-97135839D01*
X116351505Y-97321401D01*
X116518599Y-97488495D01*
X116712170Y-97624035D01*
X116926337Y-97723903D01*
X117154592Y-97785063D01*
X117390000Y-97805659D01*
X117625408Y-97785063D01*
X117853663Y-97723903D01*
X118067830Y-97624035D01*
X118261401Y-97488495D01*
X118428495Y-97321401D01*
X118558426Y-97135839D01*
X118602743Y-97096975D01*
X118660000Y-97082964D01*
X118717257Y-97096975D01*
X118761573Y-97135839D01*
X118891505Y-97321401D01*
X119058599Y-97488495D01*
X119252170Y-97624035D01*
X119466337Y-97723903D01*
X119694592Y-97785063D01*
X119930000Y-97805659D01*
X120165408Y-97785063D01*
X120393663Y-97723903D01*
X120607830Y-97624035D01*
X120801401Y-97488495D01*
X120968495Y-97321401D01*
X120968495Y-97321400D01*
X120976166Y-97313730D01*
X120978747Y-97316311D01*
X121015633Y-97286259D01*
X121082720Y-97277422D01*
X121144458Y-97305122D01*
X121182460Y-97361107D01*
X121185186Y-97369334D01*
X121185187Y-97369335D01*
X121277288Y-97518657D01*
X121401342Y-97642711D01*
X121401344Y-97642712D01*
X121550666Y-97734814D01*
X121662017Y-97771712D01*
X121717202Y-97789999D01*
X121727703Y-97791071D01*
X121819991Y-97800500D01*
X123120008Y-97800499D01*
X123222797Y-97789999D01*
X123389334Y-97734814D01*
X123538656Y-97642712D01*
X123662712Y-97518656D01*
X123754814Y-97369334D01*
X123809999Y-97202797D01*
X123820500Y-97100009D01*
X123820499Y-95799992D01*
X123809999Y-95697203D01*
X123754814Y-95530666D01*
X123662712Y-95381344D01*
X123662711Y-95381342D01*
X123538657Y-95257288D01*
X123389334Y-95165186D01*
X123222797Y-95110000D01*
X123120009Y-95099500D01*
X121819991Y-95099500D01*
X121717203Y-95110000D01*
X121550665Y-95165186D01*
X121401342Y-95257288D01*
X121277288Y-95381342D01*
X121185185Y-95530666D01*
X121182460Y-95538892D01*
X121144465Y-95594871D01*
X121082742Y-95622574D01*
X121015664Y-95613754D01*
X120978743Y-95583692D01*
X120976166Y-95586270D01*
X120801404Y-95411508D01*
X120801403Y-95411507D01*
X120801401Y-95411505D01*
X120607830Y-95275965D01*
X120393663Y-95176097D01*
X120332501Y-95159709D01*
X120165407Y-95114936D01*
X119930000Y-95094340D01*
X119694592Y-95114936D01*
X119466336Y-95176097D01*
X119252170Y-95275965D01*
X119058598Y-95411505D01*
X118891505Y-95578598D01*
X118761575Y-95764159D01*
X118717257Y-95803025D01*
X118660000Y-95817036D01*
X118602743Y-95803025D01*
X118558425Y-95764159D01*
X118459286Y-95622574D01*
X118428495Y-95578599D01*
X118261401Y-95411505D01*
X118067830Y-95275965D01*
X117853663Y-95176097D01*
X117792501Y-95159709D01*
X117625407Y-95114936D01*
X117390000Y-95094340D01*
X117154592Y-95114936D01*
X116926336Y-95176097D01*
X116712170Y-95275965D01*
X116518598Y-95411505D01*
X116351505Y-95578598D01*
X116221575Y-95764159D01*
X116177257Y-95803025D01*
X116120000Y-95817036D01*
X116062743Y-95803025D01*
X116018425Y-95764159D01*
X115919286Y-95622574D01*
X115888495Y-95578599D01*
X115721401Y-95411505D01*
X115527830Y-95275965D01*
X115313663Y-95176097D01*
X115252501Y-95159709D01*
X115085407Y-95114936D01*
X114850000Y-95094340D01*
X114614592Y-95114936D01*
X114386336Y-95176097D01*
X114172170Y-95275965D01*
X113978598Y-95411505D01*
X113811505Y-95578598D01*
X113681575Y-95764159D01*
X113637257Y-95803025D01*
X113580000Y-95817036D01*
X113522743Y-95803025D01*
X113478425Y-95764159D01*
X113379286Y-95622574D01*
X113348495Y-95578599D01*
X113181401Y-95411505D01*
X112987830Y-95275965D01*
X112773663Y-95176097D01*
X112712501Y-95159709D01*
X112545407Y-95114936D01*
X112310000Y-95094340D01*
X112074592Y-95114936D01*
X111846336Y-95176097D01*
X111632170Y-95275965D01*
X111438598Y-95411505D01*
X111271505Y-95578598D01*
X111141575Y-95764159D01*
X111097257Y-95803025D01*
X111040000Y-95817036D01*
X110982743Y-95803025D01*
X110938425Y-95764159D01*
X110839286Y-95622574D01*
X110808495Y-95578599D01*
X110641401Y-95411505D01*
X110447830Y-95275965D01*
X110233663Y-95176097D01*
X110172501Y-95159709D01*
X110005407Y-95114936D01*
X109770000Y-95094340D01*
X109534592Y-95114936D01*
X109306336Y-95176097D01*
X109092170Y-95275965D01*
X108898598Y-95411505D01*
X108731505Y-95578598D01*
X108601575Y-95764159D01*
X108557257Y-95803025D01*
X108500000Y-95817036D01*
X108442743Y-95803025D01*
X108398425Y-95764159D01*
X108299286Y-95622574D01*
X108268495Y-95578599D01*
X108101401Y-95411505D01*
X107907830Y-95275965D01*
X107693663Y-95176097D01*
X107632501Y-95159709D01*
X107465407Y-95114936D01*
X107230000Y-95094340D01*
X106994592Y-95114936D01*
X106766336Y-95176097D01*
X106552170Y-95275965D01*
X106358598Y-95411505D01*
X106191505Y-95578598D01*
X106061575Y-95764159D01*
X106017257Y-95803025D01*
X105960000Y-95817036D01*
X105902743Y-95803025D01*
X105858425Y-95764159D01*
X105759286Y-95622574D01*
X105728495Y-95578599D01*
X105561401Y-95411505D01*
X105367830Y-95275965D01*
X105153663Y-95176097D01*
X105092501Y-95159709D01*
X104925407Y-95114936D01*
X104690000Y-95094340D01*
X104454592Y-95114936D01*
X104226336Y-95176097D01*
X104012170Y-95275965D01*
X103818598Y-95411505D01*
X103651505Y-95578598D01*
X103515965Y-95772170D01*
X103416097Y-95986336D01*
X103354936Y-96214592D01*
X103334340Y-96450000D01*
X99250500Y-96450000D01*
X99250500Y-92504664D01*
X99250680Y-92499832D01*
X99248930Y-92495137D01*
X97265369Y-86449999D01*
X100094340Y-86449999D01*
X100114936Y-86685407D01*
X100176096Y-86913662D01*
X100176097Y-86913663D01*
X100275965Y-87127829D01*
X100411505Y-87321401D01*
X100578599Y-87488495D01*
X100772171Y-87624035D01*
X100986337Y-87723903D01*
X101214592Y-87785063D01*
X101391032Y-87800500D01*
X101391034Y-87800500D01*
X101508966Y-87800500D01*
X101508968Y-87800500D01*
X101626594Y-87790208D01*
X101685408Y-87785063D01*
X101913663Y-87723903D01*
X102127829Y-87624035D01*
X102321401Y-87488495D01*
X102488495Y-87321401D01*
X102624035Y-87127830D01*
X102723903Y-86913663D01*
X102785063Y-86685408D01*
X102805659Y-86450000D01*
X102785063Y-86214592D01*
X102723903Y-85986337D01*
X102624035Y-85772171D01*
X102488495Y-85578599D01*
X102321401Y-85411505D01*
X102127829Y-85275965D01*
X101913663Y-85176097D01*
X101685407Y-85114936D01*
X101508968Y-85099500D01*
X101508966Y-85099500D01*
X101391034Y-85099500D01*
X101391032Y-85099500D01*
X101214592Y-85114936D01*
X100986336Y-85176097D01*
X100772170Y-85275965D01*
X100578598Y-85411505D01*
X100411508Y-85578595D01*
X100275964Y-85772172D01*
X100176097Y-85986337D01*
X100114936Y-86214592D01*
X100094340Y-86449999D01*
X97265369Y-86449999D01*
X94006680Y-76518755D01*
X94000500Y-76480095D01*
X94000500Y-75549999D01*
X105844540Y-75549999D01*
X105864326Y-75738257D01*
X105922820Y-75918284D01*
X106017464Y-76082213D01*
X106017467Y-76082216D01*
X106067651Y-76137951D01*
X106091264Y-76176484D01*
X106099500Y-76220922D01*
X106099500Y-77515678D01*
X106082887Y-77577678D01*
X106022820Y-77681715D01*
X105964326Y-77861742D01*
X105944540Y-78050000D01*
X105964326Y-78238257D01*
X106022820Y-78418284D01*
X106117466Y-78582216D01*
X106244129Y-78722889D01*
X106397269Y-78834151D01*
X106570197Y-78911144D01*
X106755352Y-78950500D01*
X106755354Y-78950500D01*
X106944646Y-78950500D01*
X106944648Y-78950500D01*
X107068084Y-78924262D01*
X107129803Y-78911144D01*
X107302730Y-78834151D01*
X107455871Y-78722888D01*
X107582533Y-78582216D01*
X107677179Y-78418284D01*
X107735674Y-78238256D01*
X107755460Y-78050000D01*
X107735674Y-77861744D01*
X107677179Y-77681716D01*
X107677179Y-77681715D01*
X107617113Y-77577678D01*
X107600500Y-77515678D01*
X107600500Y-75866149D01*
X107606569Y-75827831D01*
X107635674Y-75738256D01*
X107655460Y-75550000D01*
X107635674Y-75361744D01*
X107577179Y-75181716D01*
X107577179Y-75181715D01*
X107482533Y-75017783D01*
X107355870Y-74877110D01*
X107202730Y-74765848D01*
X107029802Y-74688855D01*
X106844648Y-74649500D01*
X106844646Y-74649500D01*
X106655354Y-74649500D01*
X106655352Y-74649500D01*
X106470197Y-74688855D01*
X106297269Y-74765848D01*
X106144129Y-74877110D01*
X106017466Y-75017783D01*
X105922820Y-75181715D01*
X105864326Y-75361742D01*
X105844540Y-75549999D01*
X94000500Y-75549999D01*
X94000500Y-73850000D01*
X117644540Y-73850000D01*
X117664326Y-74038257D01*
X117722820Y-74218284D01*
X117817466Y-74382216D01*
X117944129Y-74522889D01*
X118097269Y-74634151D01*
X118270193Y-74711143D01*
X118270196Y-74711143D01*
X118270197Y-74711144D01*
X118335333Y-74724988D01*
X118368714Y-74737303D01*
X118397228Y-74758596D01*
X121863181Y-78224548D01*
X121890061Y-78264776D01*
X121899500Y-78312229D01*
X121899500Y-79715678D01*
X121882887Y-79777678D01*
X121822820Y-79881715D01*
X121764326Y-80061742D01*
X121744540Y-80249999D01*
X121764326Y-80438257D01*
X121822820Y-80618284D01*
X121917466Y-80782216D01*
X122044129Y-80922889D01*
X122197269Y-81034151D01*
X122370197Y-81111144D01*
X122555352Y-81150500D01*
X122555354Y-81150500D01*
X122744646Y-81150500D01*
X122744648Y-81150500D01*
X122868083Y-81124262D01*
X122929803Y-81111144D01*
X123102730Y-81034151D01*
X123116449Y-81024183D01*
X123151018Y-81006569D01*
X123189337Y-81000500D01*
X126710663Y-81000500D01*
X126748982Y-81006569D01*
X126783550Y-81024183D01*
X126797271Y-81034152D01*
X126970197Y-81111144D01*
X127155352Y-81150500D01*
X127155354Y-81150500D01*
X127344646Y-81150500D01*
X127344648Y-81150500D01*
X127468083Y-81124262D01*
X127529803Y-81111144D01*
X127702730Y-81034151D01*
X127855871Y-80922888D01*
X127982533Y-80782216D01*
X128077179Y-80618284D01*
X128135674Y-80438256D01*
X128155460Y-80250000D01*
X128135674Y-80061744D01*
X128077179Y-79881716D01*
X128077179Y-79881715D01*
X127982533Y-79717783D01*
X127855870Y-79577110D01*
X127702730Y-79465848D01*
X127529802Y-79388855D01*
X127344648Y-79349500D01*
X127344646Y-79349500D01*
X127155354Y-79349500D01*
X127155352Y-79349500D01*
X126970197Y-79388855D01*
X126797271Y-79465847D01*
X126783550Y-79475817D01*
X126748982Y-79493431D01*
X126710663Y-79499500D01*
X123524500Y-79499500D01*
X123462500Y-79482887D01*
X123417113Y-79437500D01*
X123400500Y-79375500D01*
X123400500Y-78013706D01*
X123401809Y-77995736D01*
X123402338Y-77992118D01*
X123405289Y-77971977D01*
X123400972Y-77922631D01*
X123400500Y-77911824D01*
X123400500Y-77906289D01*
X123396903Y-77875521D01*
X123396536Y-77871929D01*
X123389889Y-77795949D01*
X123385672Y-77776930D01*
X123359592Y-77705274D01*
X123358408Y-77701868D01*
X123351730Y-77681715D01*
X123334814Y-77630666D01*
X123334812Y-77630663D01*
X123334415Y-77629464D01*
X123325929Y-77611936D01*
X123325237Y-77610884D01*
X123325237Y-77610883D01*
X123284001Y-77548188D01*
X123282086Y-77545181D01*
X123242712Y-77481345D01*
X123242711Y-77481344D01*
X123242048Y-77480269D01*
X123229748Y-77465170D01*
X123174272Y-77412831D01*
X123171685Y-77410318D01*
X119462771Y-73701403D01*
X119432521Y-73652040D01*
X119377179Y-73481715D01*
X119282533Y-73317783D01*
X119155870Y-73177110D01*
X119002730Y-73065848D01*
X118829802Y-72988855D01*
X118644648Y-72949500D01*
X118644646Y-72949500D01*
X118455354Y-72949500D01*
X118455352Y-72949500D01*
X118270197Y-72988855D01*
X118097269Y-73065848D01*
X117944129Y-73177110D01*
X117817466Y-73317783D01*
X117722820Y-73481715D01*
X117664326Y-73661742D01*
X117644540Y-73850000D01*
X94000500Y-73850000D01*
X94000500Y-67449999D01*
X126094340Y-67449999D01*
X126114936Y-67685407D01*
X126176097Y-67913662D01*
X126176097Y-67913663D01*
X126275965Y-68127829D01*
X126411505Y-68321401D01*
X126578599Y-68488495D01*
X126772171Y-68624035D01*
X126986337Y-68723903D01*
X127214592Y-68785063D01*
X127391032Y-68800500D01*
X127391034Y-68800500D01*
X127508966Y-68800500D01*
X127508968Y-68800500D01*
X127626594Y-68790208D01*
X127685408Y-68785063D01*
X127913663Y-68723903D01*
X128127829Y-68624035D01*
X128321401Y-68488495D01*
X128488495Y-68321401D01*
X128624035Y-68127830D01*
X128723903Y-67913663D01*
X128785063Y-67685408D01*
X128805659Y-67450000D01*
X128785063Y-67214592D01*
X128723903Y-66986337D01*
X128624035Y-66772171D01*
X128488495Y-66578599D01*
X128321401Y-66411505D01*
X128127829Y-66275965D01*
X127913663Y-66176097D01*
X127913662Y-66176096D01*
X127685407Y-66114936D01*
X127508968Y-66099500D01*
X127508966Y-66099500D01*
X127391034Y-66099500D01*
X127391032Y-66099500D01*
X127214592Y-66114936D01*
X126986336Y-66176097D01*
X126772170Y-66275965D01*
X126578598Y-66411505D01*
X126411508Y-66578595D01*
X126275964Y-66772172D01*
X126176097Y-66986337D01*
X126114936Y-67214592D01*
X126094340Y-67449999D01*
X94000500Y-67449999D01*
X94000500Y-60909008D01*
X98107500Y-60909008D01*
X98118000Y-61011796D01*
X98173186Y-61178334D01*
X98265288Y-61327657D01*
X98389342Y-61451711D01*
X98389344Y-61451712D01*
X98538666Y-61543814D01*
X98650017Y-61580712D01*
X98705202Y-61598999D01*
X98715703Y-61600071D01*
X98807991Y-61609500D01*
X100108008Y-61609499D01*
X100210797Y-61598999D01*
X100377334Y-61543814D01*
X100526656Y-61451712D01*
X100650712Y-61327656D01*
X100742814Y-61178334D01*
X100745538Y-61170111D01*
X100783526Y-61114135D01*
X100845244Y-61086427D01*
X100912320Y-61095239D01*
X100949258Y-61125305D01*
X100951834Y-61122730D01*
X100959505Y-61130400D01*
X100959505Y-61130401D01*
X101126599Y-61297495D01*
X101320170Y-61433035D01*
X101534337Y-61532903D01*
X101762592Y-61594063D01*
X101998000Y-61614659D01*
X102233408Y-61594063D01*
X102461663Y-61532903D01*
X102675830Y-61433035D01*
X102869401Y-61297495D01*
X103036495Y-61130401D01*
X103166426Y-60944839D01*
X103210743Y-60905975D01*
X103268000Y-60891964D01*
X103325257Y-60905975D01*
X103369573Y-60944839D01*
X103499505Y-61130401D01*
X103666599Y-61297495D01*
X103860170Y-61433035D01*
X104074337Y-61532903D01*
X104302592Y-61594063D01*
X104538000Y-61614659D01*
X104773408Y-61594063D01*
X105001663Y-61532903D01*
X105215830Y-61433035D01*
X105409401Y-61297495D01*
X105576495Y-61130401D01*
X105706426Y-60944839D01*
X105750743Y-60905975D01*
X105808000Y-60891964D01*
X105865257Y-60905975D01*
X105909573Y-60944839D01*
X106039505Y-61130401D01*
X106206599Y-61297495D01*
X106400170Y-61433035D01*
X106614337Y-61532903D01*
X106825779Y-61589558D01*
X106842592Y-61594063D01*
X107078000Y-61614659D01*
X107313409Y-61594063D01*
X107330219Y-61589559D01*
X107394407Y-61589558D01*
X107449995Y-61621652D01*
X107759259Y-61930916D01*
X107789508Y-61980276D01*
X107797321Y-62004320D01*
X107891966Y-62168252D01*
X108018629Y-62308925D01*
X108171769Y-62420187D01*
X108344697Y-62497180D01*
X108529852Y-62536536D01*
X108529854Y-62536536D01*
X108719146Y-62536536D01*
X108719148Y-62536536D01*
X108842583Y-62510298D01*
X108904303Y-62497180D01*
X109077230Y-62420187D01*
X109230371Y-62308924D01*
X109357033Y-62168252D01*
X109451679Y-62004320D01*
X109510174Y-61824292D01*
X109520726Y-61723888D01*
X109539272Y-61670534D01*
X109579564Y-61630939D01*
X109633239Y-61613326D01*
X109799536Y-61598776D01*
X109853408Y-61594063D01*
X110081663Y-61532903D01*
X110295830Y-61433035D01*
X110489401Y-61297495D01*
X110656495Y-61130401D01*
X110792035Y-60936830D01*
X110891903Y-60722663D01*
X110953063Y-60494408D01*
X110973659Y-60259000D01*
X110973659Y-60258999D01*
X113342340Y-60258999D01*
X113362936Y-60494407D01*
X113407709Y-60661502D01*
X113424097Y-60722663D01*
X113523965Y-60936830D01*
X113659505Y-61130401D01*
X113826599Y-61297495D01*
X114020170Y-61433035D01*
X114234337Y-61532903D01*
X114462592Y-61594063D01*
X114698000Y-61614659D01*
X114933408Y-61594063D01*
X115161663Y-61532903D01*
X115375830Y-61433035D01*
X115569401Y-61297495D01*
X115736495Y-61130401D01*
X115866426Y-60944839D01*
X115910743Y-60905975D01*
X115968000Y-60891964D01*
X116025257Y-60905975D01*
X116069573Y-60944839D01*
X116199505Y-61130401D01*
X116366599Y-61297495D01*
X116560170Y-61433035D01*
X116774337Y-61532903D01*
X117002592Y-61594063D01*
X117138941Y-61605992D01*
X117199846Y-61628360D01*
X117241118Y-61678425D01*
X117251455Y-61742479D01*
X117247197Y-61782997D01*
X117266983Y-61971257D01*
X117325477Y-62151284D01*
X117420123Y-62315216D01*
X117546786Y-62455889D01*
X117699926Y-62567151D01*
X117872854Y-62644144D01*
X118058009Y-62683500D01*
X118058011Y-62683500D01*
X118247303Y-62683500D01*
X118247305Y-62683500D01*
X118370741Y-62657262D01*
X118432460Y-62644144D01*
X118605387Y-62567151D01*
X118758528Y-62455888D01*
X118885190Y-62315216D01*
X118979836Y-62151284D01*
X119020434Y-62026333D01*
X119050682Y-61976972D01*
X119406005Y-61621650D01*
X119461590Y-61589558D01*
X119525777Y-61589558D01*
X119542592Y-61594063D01*
X119778000Y-61614659D01*
X120013408Y-61594063D01*
X120241663Y-61532903D01*
X120455830Y-61433035D01*
X120649401Y-61297495D01*
X120816495Y-61130401D01*
X120946426Y-60944839D01*
X120990743Y-60905975D01*
X121048000Y-60891964D01*
X121105257Y-60905975D01*
X121149573Y-60944839D01*
X121279505Y-61130401D01*
X121446599Y-61297495D01*
X121640170Y-61433035D01*
X121854337Y-61532903D01*
X122082592Y-61594063D01*
X122318000Y-61614659D01*
X122553408Y-61594063D01*
X122781663Y-61532903D01*
X122995830Y-61433035D01*
X123189401Y-61297495D01*
X123356495Y-61130401D01*
X123486426Y-60944839D01*
X123530743Y-60905975D01*
X123588000Y-60891964D01*
X123645257Y-60905975D01*
X123689573Y-60944839D01*
X123819505Y-61130401D01*
X123986599Y-61297495D01*
X124180170Y-61433035D01*
X124394337Y-61532903D01*
X124622592Y-61594063D01*
X124858000Y-61614659D01*
X125093408Y-61594063D01*
X125321663Y-61532903D01*
X125535830Y-61433035D01*
X125729401Y-61297495D01*
X125896495Y-61130401D01*
X126032035Y-60936830D01*
X126131903Y-60722663D01*
X126193063Y-60494408D01*
X126213659Y-60259000D01*
X126193063Y-60023592D01*
X126131903Y-59795337D01*
X126032035Y-59581171D01*
X125896495Y-59387599D01*
X125729401Y-59220505D01*
X125543839Y-59090573D01*
X125504975Y-59046257D01*
X125490964Y-58989000D01*
X125504975Y-58931743D01*
X125543839Y-58887426D01*
X125729401Y-58757495D01*
X125896495Y-58590401D01*
X126032035Y-58396830D01*
X126131903Y-58182663D01*
X126193063Y-57954408D01*
X126213659Y-57719000D01*
X126193063Y-57483592D01*
X126131903Y-57255337D01*
X126032035Y-57041171D01*
X125896495Y-56847599D01*
X125729401Y-56680505D01*
X125651664Y-56626073D01*
X125611339Y-56578858D01*
X125598960Y-56518010D01*
X125617632Y-56458790D01*
X125662674Y-56416047D01*
X125722790Y-56400500D01*
X128787769Y-56400500D01*
X128835221Y-56409939D01*
X128875450Y-56436818D01*
X128963181Y-56524548D01*
X128990061Y-56564777D01*
X128999500Y-56612230D01*
X128999500Y-63686294D01*
X128998191Y-63704264D01*
X128994711Y-63728023D01*
X128999028Y-63777369D01*
X128999500Y-63788176D01*
X128999500Y-63793708D01*
X129003098Y-63824496D01*
X129003464Y-63828081D01*
X129010110Y-63904041D01*
X129014329Y-63923071D01*
X129014758Y-63924251D01*
X129014759Y-63924255D01*
X129040413Y-63994742D01*
X129041582Y-63998107D01*
X129065580Y-64070524D01*
X129074075Y-64088072D01*
X129115979Y-64151784D01*
X129117889Y-64154782D01*
X129157288Y-64218656D01*
X129157952Y-64219732D01*
X129170253Y-64234831D01*
X129225710Y-64287152D01*
X129228297Y-64289665D01*
X129452338Y-64513706D01*
X129663181Y-64724548D01*
X129690061Y-64764776D01*
X129699500Y-64812229D01*
X129699500Y-72887771D01*
X129690061Y-72935224D01*
X129663181Y-72975452D01*
X127297228Y-75341402D01*
X127268715Y-75362694D01*
X127235330Y-75375011D01*
X127170197Y-75388856D01*
X126997267Y-75465849D01*
X126844129Y-75577110D01*
X126717466Y-75717783D01*
X126622820Y-75881715D01*
X126564326Y-76061742D01*
X126544540Y-76250000D01*
X126564326Y-76438257D01*
X126622820Y-76618284D01*
X126717466Y-76782216D01*
X126844129Y-76922889D01*
X126997269Y-77034151D01*
X127170197Y-77111144D01*
X127355352Y-77150500D01*
X127355354Y-77150500D01*
X127544646Y-77150500D01*
X127544648Y-77150500D01*
X127668084Y-77124262D01*
X127729803Y-77111144D01*
X127902730Y-77034151D01*
X128055871Y-76922888D01*
X128182533Y-76782216D01*
X128277179Y-76618284D01*
X128332522Y-76447955D01*
X128362769Y-76398597D01*
X130935638Y-73825727D01*
X130949256Y-73813957D01*
X130968530Y-73799610D01*
X131000384Y-73761647D01*
X131007671Y-73753694D01*
X131011591Y-73749776D01*
X131030820Y-73725454D01*
X131033077Y-73722685D01*
X131050935Y-73701403D01*
X131081302Y-73665214D01*
X131081303Y-73665211D01*
X131082115Y-73664244D01*
X131092573Y-73647827D01*
X131093106Y-73646682D01*
X131093111Y-73646677D01*
X131124833Y-73578646D01*
X131126362Y-73575488D01*
X131160040Y-73508433D01*
X131160040Y-73508432D01*
X131160612Y-73507294D01*
X131167000Y-73488915D01*
X131167255Y-73487675D01*
X131167257Y-73487673D01*
X131182435Y-73414157D01*
X131183200Y-73410708D01*
X131200500Y-73337721D01*
X131200500Y-73337719D01*
X131200791Y-73336491D01*
X131202770Y-73317120D01*
X131202733Y-73315858D01*
X131202734Y-73315855D01*
X131200552Y-73240868D01*
X131200500Y-73237262D01*
X131200500Y-64513706D01*
X131201809Y-64495736D01*
X131202338Y-64492118D01*
X131205289Y-64471977D01*
X131200971Y-64422633D01*
X131200500Y-64411827D01*
X131200500Y-64406291D01*
X131200499Y-64406290D01*
X131196897Y-64375471D01*
X131196534Y-64371915D01*
X131189888Y-64295942D01*
X131185673Y-64276930D01*
X131159577Y-64205234D01*
X131158414Y-64201890D01*
X131134813Y-64130665D01*
X131134810Y-64130660D01*
X131134411Y-64129456D01*
X131125930Y-64111938D01*
X131125238Y-64110886D01*
X131125237Y-64110883D01*
X131083981Y-64048157D01*
X131082098Y-64045201D01*
X131042711Y-63981344D01*
X131042709Y-63981342D01*
X131042046Y-63980267D01*
X131029748Y-63965170D01*
X130974273Y-63912832D01*
X130971686Y-63910319D01*
X130536819Y-63475451D01*
X130509939Y-63435223D01*
X130500500Y-63387770D01*
X130500500Y-56313706D01*
X130501809Y-56295736D01*
X130502338Y-56292118D01*
X130505289Y-56271977D01*
X130500971Y-56222633D01*
X130500500Y-56211827D01*
X130500500Y-56206292D01*
X130500500Y-56206291D01*
X130496893Y-56175436D01*
X130496537Y-56171956D01*
X130489998Y-56097203D01*
X130489888Y-56095943D01*
X130485674Y-56076935D01*
X130485241Y-56075745D01*
X130459567Y-56005207D01*
X130458399Y-56001844D01*
X130434814Y-55930666D01*
X130434811Y-55930662D01*
X130434416Y-55929468D01*
X130425929Y-55911936D01*
X130425237Y-55910884D01*
X130425237Y-55910883D01*
X130383999Y-55848184D01*
X130382087Y-55845181D01*
X130342050Y-55780270D01*
X130329750Y-55765172D01*
X130274290Y-55712848D01*
X130271703Y-55710335D01*
X129725728Y-55164360D01*
X129713946Y-55150727D01*
X129699609Y-55131469D01*
X129661666Y-55099631D01*
X129653691Y-55092323D01*
X129649782Y-55088414D01*
X129649781Y-55088413D01*
X129649777Y-55088409D01*
X129625423Y-55069152D01*
X129622647Y-55066890D01*
X129564251Y-55017890D01*
X129547821Y-55007422D01*
X129478691Y-54975186D01*
X129475447Y-54973615D01*
X129407306Y-54939394D01*
X129388903Y-54932997D01*
X129314211Y-54917574D01*
X129310692Y-54916794D01*
X129236490Y-54899208D01*
X129217121Y-54897229D01*
X129140869Y-54899448D01*
X129137263Y-54899500D01*
X121113706Y-54899500D01*
X121095736Y-54898191D01*
X121081853Y-54896157D01*
X121071977Y-54894711D01*
X121071976Y-54894711D01*
X121022634Y-54899028D01*
X121011827Y-54899500D01*
X121006291Y-54899500D01*
X120975483Y-54903100D01*
X120971900Y-54903466D01*
X120895950Y-54910111D01*
X120876922Y-54914329D01*
X120805270Y-54940407D01*
X120801869Y-54941589D01*
X120729480Y-54965578D01*
X120711927Y-54974075D01*
X120704287Y-54979101D01*
X120671712Y-54994291D01*
X120636149Y-54999500D01*
X116730707Y-54999500D01*
X116712738Y-54998191D01*
X116688977Y-54994711D01*
X116639631Y-54999028D01*
X116628824Y-54999500D01*
X116623291Y-54999500D01*
X116592501Y-55003098D01*
X116588917Y-55003464D01*
X116512961Y-55010109D01*
X116493921Y-55014330D01*
X116422232Y-55040421D01*
X116418831Y-55041603D01*
X116346474Y-55065580D01*
X116328927Y-55074075D01*
X116265221Y-55115975D01*
X116262181Y-55117912D01*
X116197280Y-55157944D01*
X116182164Y-55170257D01*
X116129831Y-55225726D01*
X116127319Y-55228312D01*
X115009501Y-56346130D01*
X114964230Y-56374971D01*
X114911013Y-56381977D01*
X114698000Y-56363340D01*
X114462592Y-56383936D01*
X114234336Y-56445097D01*
X114020170Y-56544965D01*
X113826598Y-56680505D01*
X113659505Y-56847598D01*
X113523965Y-57041170D01*
X113424097Y-57255336D01*
X113362936Y-57483592D01*
X113342340Y-57719000D01*
X113362936Y-57954407D01*
X113407709Y-58121502D01*
X113424097Y-58182663D01*
X113523965Y-58396830D01*
X113659505Y-58590401D01*
X113826599Y-58757495D01*
X113894625Y-58805127D01*
X113933489Y-58849444D01*
X113947500Y-58906701D01*
X113947500Y-59071299D01*
X113933489Y-59128556D01*
X113894623Y-59172874D01*
X113826598Y-59220505D01*
X113659506Y-59387597D01*
X113523965Y-59581170D01*
X113424097Y-59795336D01*
X113362936Y-60023592D01*
X113342340Y-60258999D01*
X110973659Y-60258999D01*
X110953063Y-60023592D01*
X110891903Y-59795337D01*
X110792035Y-59581171D01*
X110656495Y-59387599D01*
X110489401Y-59220505D01*
X110303839Y-59090573D01*
X110264975Y-59046257D01*
X110250964Y-58989000D01*
X110264975Y-58931743D01*
X110303839Y-58887426D01*
X110489401Y-58757495D01*
X110656495Y-58590401D01*
X110792035Y-58396830D01*
X110891903Y-58182663D01*
X110953063Y-57954408D01*
X110973659Y-57719000D01*
X110953063Y-57483592D01*
X110891903Y-57255337D01*
X110792035Y-57041171D01*
X110656495Y-56847599D01*
X110489401Y-56680505D01*
X110295830Y-56544965D01*
X110081663Y-56445097D01*
X110020501Y-56428709D01*
X109853407Y-56383936D01*
X109618000Y-56363340D01*
X109382592Y-56383936D01*
X109154336Y-56445097D01*
X108940170Y-56544965D01*
X108746598Y-56680505D01*
X108579505Y-56847598D01*
X108449575Y-57033159D01*
X108405257Y-57072025D01*
X108348000Y-57086036D01*
X108290743Y-57072025D01*
X108246425Y-57033159D01*
X108116494Y-56847598D01*
X107949404Y-56680508D01*
X107949401Y-56680505D01*
X107755830Y-56544965D01*
X107541663Y-56445097D01*
X107480501Y-56428709D01*
X107313407Y-56383936D01*
X107078000Y-56363340D01*
X106842592Y-56383936D01*
X106614336Y-56445097D01*
X106400170Y-56544965D01*
X106206598Y-56680505D01*
X106039505Y-56847598D01*
X105909575Y-57033159D01*
X105865257Y-57072025D01*
X105808000Y-57086036D01*
X105750743Y-57072025D01*
X105706425Y-57033159D01*
X105576494Y-56847598D01*
X105409404Y-56680508D01*
X105409401Y-56680505D01*
X105215830Y-56544965D01*
X105001663Y-56445097D01*
X104940501Y-56428709D01*
X104773407Y-56383936D01*
X104538000Y-56363340D01*
X104302592Y-56383936D01*
X104074336Y-56445097D01*
X103860170Y-56544965D01*
X103666598Y-56680505D01*
X103499505Y-56847598D01*
X103369575Y-57033159D01*
X103325257Y-57072025D01*
X103268000Y-57086036D01*
X103210743Y-57072025D01*
X103166425Y-57033159D01*
X103036494Y-56847598D01*
X102869404Y-56680508D01*
X102869401Y-56680505D01*
X102675830Y-56544965D01*
X102461663Y-56445097D01*
X102400501Y-56428709D01*
X102233407Y-56383936D01*
X101998000Y-56363340D01*
X101762592Y-56383936D01*
X101534336Y-56445097D01*
X101320170Y-56544965D01*
X101126598Y-56680505D01*
X100959505Y-56847598D01*
X100823965Y-57041170D01*
X100724097Y-57255336D01*
X100662936Y-57483592D01*
X100642340Y-57719000D01*
X100662936Y-57954407D01*
X100707709Y-58121502D01*
X100724097Y-58182663D01*
X100823965Y-58396830D01*
X100959505Y-58590401D01*
X101126599Y-58757495D01*
X101312160Y-58887426D01*
X101351024Y-58931743D01*
X101365035Y-58989000D01*
X101351024Y-59046257D01*
X101312158Y-59090575D01*
X101169677Y-59190342D01*
X101126595Y-59220508D01*
X100951834Y-59395270D01*
X100949261Y-59392697D01*
X100912290Y-59422773D01*
X100845223Y-59431568D01*
X100783518Y-59403858D01*
X100745539Y-59347890D01*
X100742814Y-59339666D01*
X100650712Y-59190344D01*
X100650711Y-59190342D01*
X100526657Y-59066288D01*
X100377334Y-58974186D01*
X100210797Y-58919000D01*
X100108009Y-58908500D01*
X98807991Y-58908500D01*
X98705203Y-58919000D01*
X98538665Y-58974186D01*
X98389342Y-59066288D01*
X98265288Y-59190342D01*
X98173186Y-59339665D01*
X98118000Y-59506202D01*
X98107500Y-59608990D01*
X98107500Y-60909008D01*
X94000500Y-60909008D01*
X94000500Y-54374500D01*
X94017113Y-54312500D01*
X94062500Y-54267113D01*
X94124500Y-54250500D01*
X132424306Y-54250500D01*
X132486789Y-54267393D01*
G37*
G04 #@! TD.AperFunction*
G04 #@! TD*
M02*
