G04 #@! TF.GenerationSoftware,KiCad,Pcbnew,7.0.1*
G04 #@! TF.CreationDate,2023-03-18T02:10:12+02:00*
G04 #@! TF.ProjectId,probe-pcb,70726f62-652d-4706-9362-2e6b69636164,rev?*
G04 #@! TF.SameCoordinates,Original*
G04 #@! TF.FileFunction,Soldermask,Bot*
G04 #@! TF.FilePolarity,Negative*
%FSLAX46Y46*%
G04 Gerber Fmt 4.6, Leading zero omitted, Abs format (unit mm)*
G04 Created by KiCad (PCBNEW 7.0.1) date 2023-03-18 02:10:12*
%MOMM*%
%LPD*%
G01*
G04 APERTURE LIST*
G04 Aperture macros list*
%AMRoundRect*
0 Rectangle with rounded corners*
0 $1 Rounding radius*
0 $2 $3 $4 $5 $6 $7 $8 $9 X,Y pos of 4 corners*
0 Add a 4 corners polygon primitive as box body*
4,1,4,$2,$3,$4,$5,$6,$7,$8,$9,$2,$3,0*
0 Add four circle primitives for the rounded corners*
1,1,$1+$1,$2,$3*
1,1,$1+$1,$4,$5*
1,1,$1+$1,$6,$7*
1,1,$1+$1,$8,$9*
0 Add four rect primitives between the rounded corners*
20,1,$1+$1,$2,$3,$4,$5,0*
20,1,$1+$1,$4,$5,$6,$7,0*
20,1,$1+$1,$6,$7,$8,$9,0*
20,1,$1+$1,$8,$9,$2,$3,0*%
G04 Aperture macros list end*
%ADD10C,2.200000*%
%ADD11RoundRect,0.250000X-0.600000X0.600000X-0.600000X-0.600000X0.600000X-0.600000X0.600000X0.600000X0*%
%ADD12C,1.700000*%
%ADD13RoundRect,0.250000X0.600000X-0.600000X0.600000X0.600000X-0.600000X0.600000X-0.600000X-0.600000X0*%
G04 APERTURE END LIST*
D10*
G04 #@! TO.C,H1*
X101450000Y-86450000D03*
G04 #@! TD*
G04 #@! TO.C,H2*
X127450000Y-67450000D03*
G04 #@! TD*
D11*
G04 #@! TO.C,J1*
X122470000Y-96450000D03*
D12*
X122470000Y-98990000D03*
X119930000Y-96450000D03*
X119930000Y-98990000D03*
X117390000Y-96450000D03*
X117390000Y-98990000D03*
X114850000Y-96450000D03*
X114850000Y-98990000D03*
X112310000Y-96450000D03*
X112310000Y-98990000D03*
X109770000Y-96450000D03*
X109770000Y-98990000D03*
X107230000Y-96450000D03*
X107230000Y-98990000D03*
X104690000Y-96450000D03*
X104690000Y-98990000D03*
G04 #@! TD*
D13*
G04 #@! TO.C,J2*
X99458000Y-60259000D03*
D12*
X99458000Y-57719000D03*
X101998000Y-60259000D03*
X101998000Y-57719000D03*
X104538000Y-60259000D03*
X104538000Y-57719000D03*
X107078000Y-60259000D03*
X107078000Y-57719000D03*
X109618000Y-60259000D03*
X109618000Y-57719000D03*
X112158000Y-60259000D03*
X112158000Y-57719000D03*
X114698000Y-60259000D03*
X114698000Y-57719000D03*
X117238000Y-60259000D03*
X117238000Y-57719000D03*
X119778000Y-60259000D03*
X119778000Y-57719000D03*
X122318000Y-60259000D03*
X122318000Y-57719000D03*
X124858000Y-60259000D03*
X124858000Y-57719000D03*
X127398000Y-60259000D03*
X127398000Y-57719000D03*
G04 #@! TD*
M02*
