G04 #@! TF.GenerationSoftware,KiCad,Pcbnew,7.0.1*
G04 #@! TF.CreationDate,2023-03-17T04:05:38+02:00*
G04 #@! TF.ProjectId,probe-pcb,70726f62-652d-4706-9362-2e6b69636164,rev?*
G04 #@! TF.SameCoordinates,Original*
G04 #@! TF.FileFunction,Copper,L1,Top*
G04 #@! TF.FilePolarity,Positive*
%FSLAX46Y46*%
G04 Gerber Fmt 4.6, Leading zero omitted, Abs format (unit mm)*
G04 Created by KiCad (PCBNEW 7.0.1) date 2023-03-17 04:05:38*
%MOMM*%
%LPD*%
G01*
G04 APERTURE LIST*
G04 Aperture macros list*
%AMRoundRect*
0 Rectangle with rounded corners*
0 $1 Rounding radius*
0 $2 $3 $4 $5 $6 $7 $8 $9 X,Y pos of 4 corners*
0 Add a 4 corners polygon primitive as box body*
4,1,4,$2,$3,$4,$5,$6,$7,$8,$9,$2,$3,0*
0 Add four circle primitives for the rounded corners*
1,1,$1+$1,$2,$3*
1,1,$1+$1,$4,$5*
1,1,$1+$1,$6,$7*
1,1,$1+$1,$8,$9*
0 Add four rect primitives between the rounded corners*
20,1,$1+$1,$2,$3,$4,$5,0*
20,1,$1+$1,$4,$5,$6,$7,0*
20,1,$1+$1,$6,$7,$8,$9,0*
20,1,$1+$1,$8,$9,$2,$3,0*%
G04 Aperture macros list end*
G04 #@! TA.AperFunction,SMDPad,CuDef*
%ADD10RoundRect,0.225000X0.225000X0.250000X-0.225000X0.250000X-0.225000X-0.250000X0.225000X-0.250000X0*%
G04 #@! TD*
G04 #@! TA.AperFunction,SMDPad,CuDef*
%ADD11RoundRect,0.200000X0.275000X-0.200000X0.275000X0.200000X-0.275000X0.200000X-0.275000X-0.200000X0*%
G04 #@! TD*
G04 #@! TA.AperFunction,SMDPad,CuDef*
%ADD12RoundRect,0.225000X-0.250000X0.225000X-0.250000X-0.225000X0.250000X-0.225000X0.250000X0.225000X0*%
G04 #@! TD*
G04 #@! TA.AperFunction,SMDPad,CuDef*
%ADD13RoundRect,0.150000X0.150000X-0.825000X0.150000X0.825000X-0.150000X0.825000X-0.150000X-0.825000X0*%
G04 #@! TD*
G04 #@! TA.AperFunction,SMDPad,CuDef*
%ADD14RoundRect,0.218750X-0.256250X0.218750X-0.256250X-0.218750X0.256250X-0.218750X0.256250X0.218750X0*%
G04 #@! TD*
G04 #@! TA.AperFunction,SMDPad,CuDef*
%ADD15RoundRect,0.200000X-0.275000X0.200000X-0.275000X-0.200000X0.275000X-0.200000X0.275000X0.200000X0*%
G04 #@! TD*
G04 #@! TA.AperFunction,SMDPad,CuDef*
%ADD16C,1.000000*%
G04 #@! TD*
G04 #@! TA.AperFunction,SMDPad,CuDef*
%ADD17RoundRect,0.112500X0.112500X-0.187500X0.112500X0.187500X-0.112500X0.187500X-0.112500X-0.187500X0*%
G04 #@! TD*
G04 #@! TA.AperFunction,ComponentPad*
%ADD18RoundRect,0.250000X-0.600000X0.600000X-0.600000X-0.600000X0.600000X-0.600000X0.600000X0.600000X0*%
G04 #@! TD*
G04 #@! TA.AperFunction,ComponentPad*
%ADD19C,1.700000*%
G04 #@! TD*
G04 #@! TA.AperFunction,SMDPad,CuDef*
%ADD20RoundRect,0.225000X-0.225000X-0.250000X0.225000X-0.250000X0.225000X0.250000X-0.225000X0.250000X0*%
G04 #@! TD*
G04 #@! TA.AperFunction,SMDPad,CuDef*
%ADD21RoundRect,0.100000X0.100000X-0.637500X0.100000X0.637500X-0.100000X0.637500X-0.100000X-0.637500X0*%
G04 #@! TD*
G04 #@! TA.AperFunction,ComponentPad*
%ADD22RoundRect,0.250000X0.600000X-0.600000X0.600000X0.600000X-0.600000X0.600000X-0.600000X-0.600000X0*%
G04 #@! TD*
G04 #@! TA.AperFunction,SMDPad,CuDef*
%ADD23RoundRect,0.150000X-0.150000X0.512500X-0.150000X-0.512500X0.150000X-0.512500X0.150000X0.512500X0*%
G04 #@! TD*
G04 #@! TA.AperFunction,SMDPad,CuDef*
%ADD24RoundRect,0.225000X0.250000X-0.225000X0.250000X0.225000X-0.250000X0.225000X-0.250000X-0.225000X0*%
G04 #@! TD*
G04 #@! TA.AperFunction,ViaPad*
%ADD25C,0.800000*%
G04 #@! TD*
G04 #@! TA.AperFunction,Conductor*
%ADD26C,0.500000*%
G04 #@! TD*
G04 #@! TA.AperFunction,Conductor*
%ADD27C,0.250000*%
G04 #@! TD*
G04 #@! TA.AperFunction,Conductor*
%ADD28C,0.400000*%
G04 #@! TD*
G04 APERTURE END LIST*
D10*
G04 #@! TO.P,C4,1*
G04 #@! TO.N,+4V*
X126075000Y-76987500D03*
G04 #@! TO.P,C4,2*
G04 #@! TO.N,GND*
X124525000Y-76987500D03*
G04 #@! TD*
D11*
G04 #@! TO.P,R8,1*
G04 #@! TO.N,/D1*
X119850000Y-91875000D03*
G04 #@! TO.P,R8,2*
G04 #@! TO.N,Net-(U1-A7)*
X119850000Y-90225000D03*
G04 #@! TD*
D12*
G04 #@! TO.P,C3,1*
G04 #@! TO.N,Net-(U3-BP)*
X124300000Y-83012500D03*
G04 #@! TO.P,C3,2*
G04 #@! TO.N,GND*
X124300000Y-84562500D03*
G04 #@! TD*
D11*
G04 #@! TO.P,R11,1*
G04 #@! TO.N,Net-(U1-Dir1)*
X108050000Y-86125000D03*
G04 #@! TO.P,R11,2*
G04 #@! TO.N,VCC*
X108050000Y-84475000D03*
G04 #@! TD*
D13*
G04 #@! TO.P,U4,1,EN*
G04 #@! TO.N,Net-(U4-EN)*
X115005000Y-72325000D03*
G04 #@! TO.P,U4,2,DI1*
G04 #@! TO.N,Net-(U1-B5)*
X116275000Y-72325000D03*
G04 #@! TO.P,U4,3,DI2*
G04 #@! TO.N,Net-(U1-B6)*
X117545000Y-72325000D03*
G04 #@! TO.P,U4,4,VCC*
G04 #@! TO.N,+3V3*
X118815000Y-72325000D03*
G04 #@! TO.P,U4,5,GND*
G04 #@! TO.N,GND*
X120085000Y-72325000D03*
G04 #@! TO.P,U4,6,DI3*
G04 #@! TO.N,Net-(U1-B7)*
X121355000Y-72325000D03*
G04 #@! TO.P,U4,7,DI4*
G04 #@! TO.N,Net-(U1-B8)*
X122625000Y-72325000D03*
G04 #@! TO.P,U4,8,EN\u002A*
G04 #@! TO.N,Net-(U4-EN\u002A)*
X123895000Y-72325000D03*
G04 #@! TO.P,U4,9,DO-4*
G04 #@! TO.N,/D0_N*
X123895000Y-67375000D03*
G04 #@! TO.P,U4,10,DO+4*
G04 #@! TO.N,/D0_P*
X122625000Y-67375000D03*
G04 #@! TO.P,U4,11,DO+3*
G04 #@! TO.N,/D1_P*
X121355000Y-67375000D03*
G04 #@! TO.P,U4,12,DO-3*
G04 #@! TO.N,/D1_N*
X120085000Y-67375000D03*
G04 #@! TO.P,U4,13,DO-2*
G04 #@! TO.N,/D2_N*
X118815000Y-67375000D03*
G04 #@! TO.P,U4,14,DO+2*
G04 #@! TO.N,/D2_P*
X117545000Y-67375000D03*
G04 #@! TO.P,U4,15,DO+1*
G04 #@! TO.N,/D3_P*
X116275000Y-67375000D03*
G04 #@! TO.P,U4,16,DO-1*
G04 #@! TO.N,/D3_N*
X115005000Y-67375000D03*
G04 #@! TD*
G04 #@! TO.P,U2,1,EN*
G04 #@! TO.N,Net-(U2-EN)*
X102310000Y-72450000D03*
G04 #@! TO.P,U2,2,DI1*
G04 #@! TO.N,Net-(U1-B1)*
X103580000Y-72450000D03*
G04 #@! TO.P,U2,3,DI2*
G04 #@! TO.N,Net-(U1-B2)*
X104850000Y-72450000D03*
G04 #@! TO.P,U2,4,VCC*
G04 #@! TO.N,+3V3*
X106120000Y-72450000D03*
G04 #@! TO.P,U2,5,GND*
G04 #@! TO.N,GND*
X107390000Y-72450000D03*
G04 #@! TO.P,U2,6,DI3*
G04 #@! TO.N,Net-(U1-B3)*
X108660000Y-72450000D03*
G04 #@! TO.P,U2,7,DI4*
G04 #@! TO.N,Net-(U1-B4)*
X109930000Y-72450000D03*
G04 #@! TO.P,U2,8,EN\u002A*
G04 #@! TO.N,Net-(U2-EN\u002A)*
X111200000Y-72450000D03*
G04 #@! TO.P,U2,9,DO-4*
G04 #@! TO.N,/D4_N*
X111200000Y-67500000D03*
G04 #@! TO.P,U2,10,DO+4*
G04 #@! TO.N,/D4_P*
X109930000Y-67500000D03*
G04 #@! TO.P,U2,11,DO+3*
G04 #@! TO.N,/D5_P*
X108660000Y-67500000D03*
G04 #@! TO.P,U2,12,DO-3*
G04 #@! TO.N,/D5_N*
X107390000Y-67500000D03*
G04 #@! TO.P,U2,13,DO-2*
G04 #@! TO.N,/D6_N*
X106120000Y-67500000D03*
G04 #@! TO.P,U2,14,DO+2*
G04 #@! TO.N,/D6_P*
X104850000Y-67500000D03*
G04 #@! TO.P,U2,15,DO+1*
G04 #@! TO.N,/D7_P*
X103580000Y-67500000D03*
G04 #@! TO.P,U2,16,DO-1*
G04 #@! TO.N,/D7_N*
X102310000Y-67500000D03*
G04 #@! TD*
D14*
G04 #@! TO.P,D2,1,K*
G04 #@! TO.N,GND*
X125900000Y-86387500D03*
G04 #@! TO.P,D2,2,A*
G04 #@! TO.N,Net-(D2-A)*
X125900000Y-87962500D03*
G04 #@! TD*
D11*
G04 #@! TO.P,R5,1*
G04 #@! TO.N,/D4*
X112450000Y-91875000D03*
G04 #@! TO.P,R5,2*
G04 #@! TO.N,Net-(U1-A4)*
X112450000Y-90225000D03*
G04 #@! TD*
D15*
G04 #@! TO.P,R13,1*
G04 #@! TO.N,GND*
X125755000Y-70750000D03*
G04 #@! TO.P,R13,2*
G04 #@! TO.N,Net-(U4-EN\u002A)*
X125755000Y-72400000D03*
G04 #@! TD*
D16*
G04 #@! TO.P,TP2,1,1*
G04 #@! TO.N,+4V*
X128450000Y-78350000D03*
G04 #@! TD*
D15*
G04 #@! TO.P,R15,1*
G04 #@! TO.N,+3V3*
X124300000Y-86325000D03*
G04 #@! TO.P,R15,2*
G04 #@! TO.N,Net-(D2-A)*
X124300000Y-87975000D03*
G04 #@! TD*
D16*
G04 #@! TO.P,TP4,1,1*
G04 #@! TO.N,VCC*
X101550000Y-78850000D03*
G04 #@! TD*
G04 #@! TO.P,TP3,1,1*
G04 #@! TO.N,GND*
X129850000Y-73950000D03*
G04 #@! TD*
D11*
G04 #@! TO.P,R9,1*
G04 #@! TO.N,/D0*
X122450000Y-91875000D03*
G04 #@! TO.P,R9,2*
G04 #@! TO.N,Net-(U1-A8)*
X122450000Y-90225000D03*
G04 #@! TD*
D15*
G04 #@! TO.P,R1,1*
G04 #@! TO.N,+3V3*
X100355000Y-71750000D03*
G04 #@! TO.P,R1,2*
G04 #@! TO.N,Net-(U2-EN)*
X100355000Y-73400000D03*
G04 #@! TD*
D11*
G04 #@! TO.P,R6,1*
G04 #@! TO.N,/D3*
X114850000Y-91875000D03*
G04 #@! TO.P,R6,2*
G04 #@! TO.N,Net-(U1-A5)*
X114850000Y-90225000D03*
G04 #@! TD*
D17*
G04 #@! TO.P,D1,1,K*
G04 #@! TO.N,VCC*
X105850000Y-83125000D03*
G04 #@! TO.P,D1,2,A*
G04 #@! TO.N,GND*
X105850000Y-81025000D03*
G04 #@! TD*
D18*
G04 #@! TO.P,J1,1,Pin_1*
G04 #@! TO.N,/D0*
X122470000Y-96450000D03*
D19*
G04 #@! TO.P,J1,2,Pin_2*
G04 #@! TO.N,GND*
X122470000Y-98990000D03*
G04 #@! TO.P,J1,3,Pin_3*
G04 #@! TO.N,/D1*
X119930000Y-96450000D03*
G04 #@! TO.P,J1,4,Pin_4*
G04 #@! TO.N,GND*
X119930000Y-98990000D03*
G04 #@! TO.P,J1,5,Pin_5*
G04 #@! TO.N,/D2*
X117390000Y-96450000D03*
G04 #@! TO.P,J1,6,Pin_6*
G04 #@! TO.N,GND*
X117390000Y-98990000D03*
G04 #@! TO.P,J1,7,Pin_7*
G04 #@! TO.N,/D3*
X114850000Y-96450000D03*
G04 #@! TO.P,J1,8,Pin_8*
G04 #@! TO.N,GND*
X114850000Y-98990000D03*
G04 #@! TO.P,J1,9,Pin_9*
G04 #@! TO.N,/D4*
X112310000Y-96450000D03*
G04 #@! TO.P,J1,10,Pin_10*
G04 #@! TO.N,GND*
X112310000Y-98990000D03*
G04 #@! TO.P,J1,11,Pin_11*
G04 #@! TO.N,/D5*
X109770000Y-96450000D03*
G04 #@! TO.P,J1,12,Pin_12*
G04 #@! TO.N,GND*
X109770000Y-98990000D03*
G04 #@! TO.P,J1,13,Pin_13*
G04 #@! TO.N,/D6*
X107230000Y-96450000D03*
G04 #@! TO.P,J1,14,Pin_14*
G04 #@! TO.N,GND*
X107230000Y-98990000D03*
G04 #@! TO.P,J1,15,Pin_15*
G04 #@! TO.N,/D7*
X104690000Y-96450000D03*
G04 #@! TO.P,J1,16,Pin_16*
G04 #@! TO.N,GND*
X104690000Y-98990000D03*
G04 #@! TD*
D16*
G04 #@! TO.P,TP1,1,1*
G04 #@! TO.N,+3V3*
X128450000Y-81350000D03*
G04 #@! TD*
D11*
G04 #@! TO.P,R4,1*
G04 #@! TO.N,/D5*
X109650000Y-91875000D03*
G04 #@! TO.P,R4,2*
G04 #@! TO.N,Net-(U1-A3)*
X109650000Y-90225000D03*
G04 #@! TD*
D20*
G04 #@! TO.P,C6,1*
G04 #@! TO.N,+3V3*
X106180000Y-74775000D03*
G04 #@! TO.P,C6,2*
G04 #@! TO.N,GND*
X107730000Y-74775000D03*
G04 #@! TD*
D15*
G04 #@! TO.P,R14,1*
G04 #@! TO.N,+3V3*
X113155000Y-71150000D03*
G04 #@! TO.P,R14,2*
G04 #@! TO.N,Net-(U4-EN)*
X113155000Y-72800000D03*
G04 #@! TD*
D11*
G04 #@! TO.P,R2,1*
G04 #@! TO.N,/D7*
X104650000Y-91875000D03*
G04 #@! TO.P,R2,2*
G04 #@! TO.N,Net-(U1-A1)*
X104650000Y-90225000D03*
G04 #@! TD*
D15*
G04 #@! TO.P,R12,1*
G04 #@! TO.N,GND*
X113155000Y-67750000D03*
G04 #@! TO.P,R12,2*
G04 #@! TO.N,Net-(U2-EN\u002A)*
X113155000Y-69400000D03*
G04 #@! TD*
D21*
G04 #@! TO.P,U1,1,VCCA*
G04 #@! TO.N,VCC*
X109875000Y-84712500D03*
G04 #@! TO.P,U1,2,Dir1*
G04 #@! TO.N,Net-(U1-Dir1)*
X110525000Y-84712500D03*
G04 #@! TO.P,U1,3,A1*
G04 #@! TO.N,Net-(U1-A1)*
X111175000Y-84712500D03*
G04 #@! TO.P,U1,4,A2*
G04 #@! TO.N,Net-(U1-A2)*
X111825000Y-84712500D03*
G04 #@! TO.P,U1,5,A3*
G04 #@! TO.N,Net-(U1-A3)*
X112475000Y-84712500D03*
G04 #@! TO.P,U1,6,A4*
G04 #@! TO.N,Net-(U1-A4)*
X113125000Y-84712500D03*
G04 #@! TO.P,U1,7,A5*
G04 #@! TO.N,Net-(U1-A5)*
X113775000Y-84712500D03*
G04 #@! TO.P,U1,8,A6*
G04 #@! TO.N,Net-(U1-A6)*
X114425000Y-84712500D03*
G04 #@! TO.P,U1,9,A7*
G04 #@! TO.N,Net-(U1-A7)*
X115075000Y-84712500D03*
G04 #@! TO.P,U1,10,A8*
G04 #@! TO.N,Net-(U1-A8)*
X115725000Y-84712500D03*
G04 #@! TO.P,U1,11,Dir2*
G04 #@! TO.N,Net-(U1-Dir2)*
X116375000Y-84712500D03*
G04 #@! TO.P,U1,12,GND*
G04 #@! TO.N,GND*
X117025000Y-84712500D03*
G04 #@! TO.P,U1,13,GND*
X117025000Y-78987500D03*
G04 #@! TO.P,U1,14,B8*
G04 #@! TO.N,Net-(U1-B8)*
X116375000Y-78987500D03*
G04 #@! TO.P,U1,15,B7*
G04 #@! TO.N,Net-(U1-B7)*
X115725000Y-78987500D03*
G04 #@! TO.P,U1,16,B6*
G04 #@! TO.N,Net-(U1-B6)*
X115075000Y-78987500D03*
G04 #@! TO.P,U1,17,B5*
G04 #@! TO.N,Net-(U1-B5)*
X114425000Y-78987500D03*
G04 #@! TO.P,U1,18,B4*
G04 #@! TO.N,Net-(U1-B4)*
X113775000Y-78987500D03*
G04 #@! TO.P,U1,19,B3*
G04 #@! TO.N,Net-(U1-B3)*
X113125000Y-78987500D03*
G04 #@! TO.P,U1,20,B2*
G04 #@! TO.N,Net-(U1-B2)*
X112475000Y-78987500D03*
G04 #@! TO.P,U1,21,B1*
G04 #@! TO.N,Net-(U1-B1)*
X111825000Y-78987500D03*
G04 #@! TO.P,U1,22,/OE*
G04 #@! TO.N,GND*
X111175000Y-78987500D03*
G04 #@! TO.P,U1,23,VCCB*
G04 #@! TO.N,+3V3*
X110525000Y-78987500D03*
G04 #@! TO.P,U1,24,VCCB*
X109875000Y-78987500D03*
G04 #@! TD*
D12*
G04 #@! TO.P,C2,1*
G04 #@! TO.N,+3V3*
X108050000Y-78100000D03*
G04 #@! TO.P,C2,2*
G04 #@! TO.N,GND*
X108050000Y-79650000D03*
G04 #@! TD*
D22*
G04 #@! TO.P,J2,1,Pin_1*
G04 #@! TO.N,VCC*
X99458000Y-60259000D03*
D19*
G04 #@! TO.P,J2,2,Pin_2*
G04 #@! TO.N,GND*
X99458000Y-57719000D03*
G04 #@! TO.P,J2,3,Pin_3*
G04 #@! TO.N,/D7_P*
X101998000Y-60259000D03*
G04 #@! TO.P,J2,4,Pin_4*
G04 #@! TO.N,/D7_N*
X101998000Y-57719000D03*
G04 #@! TO.P,J2,5,Pin_5*
G04 #@! TO.N,/D6_P*
X104538000Y-60259000D03*
G04 #@! TO.P,J2,6,Pin_6*
G04 #@! TO.N,/D6_N*
X104538000Y-57719000D03*
G04 #@! TO.P,J2,7,Pin_7*
G04 #@! TO.N,/D5_P*
X107078000Y-60259000D03*
G04 #@! TO.P,J2,8,Pin_8*
G04 #@! TO.N,/D5_N*
X107078000Y-57719000D03*
G04 #@! TO.P,J2,9,Pin_9*
G04 #@! TO.N,/D4_P*
X109618000Y-60259000D03*
G04 #@! TO.P,J2,10,Pin_10*
G04 #@! TO.N,/D4_N*
X109618000Y-57719000D03*
G04 #@! TO.P,J2,11,Pin_11*
G04 #@! TO.N,GND*
X112158000Y-60259000D03*
G04 #@! TO.P,J2,12,Pin_12*
X112158000Y-57719000D03*
G04 #@! TO.P,J2,13,Pin_13*
G04 #@! TO.N,+4V*
X114698000Y-60259000D03*
G04 #@! TO.P,J2,14,Pin_14*
X114698000Y-57719000D03*
G04 #@! TO.P,J2,15,Pin_15*
G04 #@! TO.N,/D3_P*
X117238000Y-60259000D03*
G04 #@! TO.P,J2,16,Pin_16*
G04 #@! TO.N,/D3_N*
X117238000Y-57719000D03*
G04 #@! TO.P,J2,17,Pin_17*
G04 #@! TO.N,/D2_P*
X119778000Y-60259000D03*
G04 #@! TO.P,J2,18,Pin_18*
G04 #@! TO.N,/D2_N*
X119778000Y-57719000D03*
G04 #@! TO.P,J2,19,Pin_19*
G04 #@! TO.N,/D1_P*
X122318000Y-60259000D03*
G04 #@! TO.P,J2,20,Pin_20*
G04 #@! TO.N,/D1_N*
X122318000Y-57719000D03*
G04 #@! TO.P,J2,21,Pin_21*
G04 #@! TO.N,/D0_P*
X124858000Y-60259000D03*
G04 #@! TO.P,J2,22,Pin_22*
G04 #@! TO.N,/D0_N*
X124858000Y-57719000D03*
G04 #@! TO.P,J2,23,Pin_23*
G04 #@! TO.N,GND*
X127398000Y-60259000D03*
G04 #@! TO.P,J2,24,Pin_24*
X127398000Y-57719000D03*
G04 #@! TD*
D11*
G04 #@! TO.P,R10,1*
G04 #@! TO.N,GND*
X118550000Y-84775000D03*
G04 #@! TO.P,R10,2*
G04 #@! TO.N,Net-(U1-Dir2)*
X118550000Y-83125000D03*
G04 #@! TD*
G04 #@! TO.P,R3,1*
G04 #@! TO.N,/D6*
X107250000Y-91875000D03*
G04 #@! TO.P,R3,2*
G04 #@! TO.N,Net-(U1-A2)*
X107250000Y-90225000D03*
G04 #@! TD*
D23*
G04 #@! TO.P,U3,1,IN*
G04 #@! TO.N,+4V*
X126200000Y-78850000D03*
G04 #@! TO.P,U3,2,GND*
G04 #@! TO.N,GND*
X125250000Y-78850000D03*
G04 #@! TO.P,U3,3,EN*
G04 #@! TO.N,+4V*
X124300000Y-78850000D03*
G04 #@! TO.P,U3,4,BP*
G04 #@! TO.N,Net-(U3-BP)*
X124300000Y-81125000D03*
G04 #@! TO.P,U3,5,OUT*
G04 #@! TO.N,+3V3*
X126200000Y-81125000D03*
G04 #@! TD*
D12*
G04 #@! TO.P,C5,1*
G04 #@! TO.N,+3V3*
X126100000Y-83012500D03*
G04 #@! TO.P,C5,2*
G04 #@! TO.N,GND*
X126100000Y-84562500D03*
G04 #@! TD*
D11*
G04 #@! TO.P,R7,1*
G04 #@! TO.N,/D2*
X117450000Y-91875000D03*
G04 #@! TO.P,R7,2*
G04 #@! TO.N,Net-(U1-A6)*
X117450000Y-90225000D03*
G04 #@! TD*
D20*
G04 #@! TO.P,C7,1*
G04 #@! TO.N,+3V3*
X118580000Y-74775000D03*
G04 #@! TO.P,C7,2*
G04 #@! TO.N,GND*
X120130000Y-74775000D03*
G04 #@! TD*
D24*
G04 #@! TO.P,C1,1*
G04 #@! TO.N,VCC*
X108050000Y-82850000D03*
G04 #@! TO.P,C1,2*
G04 #@! TO.N,GND*
X108050000Y-81300000D03*
G04 #@! TD*
D25*
G04 #@! TO.N,GND*
X119550000Y-77950000D03*
X131250000Y-56050000D03*
X106350000Y-87250000D03*
X123350000Y-76750000D03*
X95850000Y-55650000D03*
X129950000Y-75950000D03*
X104550000Y-78050000D03*
X103903000Y-63561000D03*
X109237000Y-63942000D03*
X99750000Y-68950000D03*
X103150000Y-83450000D03*
X116857000Y-63942000D03*
X107350000Y-71050000D03*
X102250000Y-76050000D03*
X105850000Y-80450000D03*
X120050000Y-70750000D03*
X123850000Y-74850000D03*
X127050000Y-85550000D03*
X108550000Y-75650000D03*
X119397000Y-63942000D03*
X118150000Y-69250000D03*
X123050000Y-84750000D03*
X108150000Y-80450000D03*
X122572000Y-63942000D03*
X123250000Y-69150000D03*
X113150000Y-66750000D03*
X103150000Y-69450000D03*
X108150000Y-69350000D03*
X115650000Y-69250000D03*
X97850000Y-77850000D03*
X111250000Y-80350000D03*
X113047000Y-63942000D03*
X105650000Y-69450000D03*
X113250000Y-74850000D03*
X116550000Y-75750000D03*
X110650000Y-69350000D03*
X120750000Y-69250000D03*
X106824000Y-61910000D03*
X127850000Y-73450000D03*
X117550000Y-80450000D03*
X127850000Y-62150000D03*
X118550000Y-85650000D03*
G04 #@! TO.N,+3V3*
X106750000Y-75550000D03*
X122650000Y-80250000D03*
X127250000Y-80250000D03*
X118550000Y-73850000D03*
X106850000Y-78050000D03*
G04 #@! TO.N,+4V*
X127450000Y-76250000D03*
G04 #@! TO.N,/D2_P*
X118152657Y-61783000D03*
G04 #@! TO.N,/D5_P*
X108624500Y-61636036D03*
G04 #@! TD*
D26*
G04 #@! TO.N,VCC*
X105450000Y-82850000D02*
X108050000Y-82850000D01*
X108350000Y-83150000D02*
X109250000Y-83150000D01*
D27*
X108050000Y-84475000D02*
X108050000Y-82850000D01*
D26*
X108050000Y-82850000D02*
X108350000Y-83150000D01*
D27*
X108050000Y-82850000D02*
X106125000Y-82850000D01*
D26*
X109250000Y-83150000D02*
X109875000Y-83775000D01*
X99458000Y-60259000D02*
X96850000Y-62867000D01*
X96850000Y-62867000D02*
X96850000Y-74250000D01*
X96850000Y-74250000D02*
X105450000Y-82850000D01*
D27*
X106125000Y-82850000D02*
X105850000Y-83125000D01*
D26*
X109875000Y-83775000D02*
X109875000Y-83950000D01*
D27*
X109875000Y-83950000D02*
X109875000Y-84712500D01*
G04 #@! TO.N,GND*
X108050000Y-80550000D02*
X108150000Y-80450000D01*
D26*
X125250000Y-77712500D02*
X124525000Y-76987500D01*
D27*
X107390000Y-71090000D02*
X107350000Y-71050000D01*
X118550000Y-84775000D02*
X118550000Y-85650000D01*
X117025000Y-79925000D02*
X117550000Y-80450000D01*
X108050000Y-81300000D02*
X108050000Y-80550000D01*
X120085000Y-72325000D02*
X120085000Y-74730000D01*
X120085000Y-70785000D02*
X120050000Y-70750000D01*
X108050000Y-80350000D02*
X108150000Y-80450000D01*
X113155000Y-67750000D02*
X113155000Y-66755000D01*
X108050000Y-79650000D02*
X108050000Y-80350000D01*
X107390000Y-74435000D02*
X107730000Y-74775000D01*
X117025000Y-78987500D02*
X117025000Y-79925000D01*
X113155000Y-66755000D02*
X113150000Y-66750000D01*
X107390000Y-72450000D02*
X107390000Y-74435000D01*
X120085000Y-72325000D02*
X120085000Y-70785000D01*
X105850000Y-81025000D02*
X105850000Y-80450000D01*
X120085000Y-74730000D02*
X120130000Y-74775000D01*
X111175000Y-78987500D02*
X111175000Y-80275000D01*
D26*
X125250000Y-78850000D02*
X125250000Y-77712500D01*
D27*
X107390000Y-72450000D02*
X107390000Y-71090000D01*
X107730000Y-74775000D02*
X107730000Y-74830000D01*
X107730000Y-74830000D02*
X108550000Y-75650000D01*
X111175000Y-80275000D02*
X111250000Y-80350000D01*
G04 #@! TO.N,+3V3*
X118815000Y-72325000D02*
X118815000Y-74540000D01*
D26*
X110150000Y-78950000D02*
X108900000Y-78950000D01*
X106750000Y-75345000D02*
X106180000Y-74775000D01*
X108050000Y-78100000D02*
X106900000Y-78100000D01*
X118350000Y-81450000D02*
X111147918Y-81450000D01*
D27*
X106180000Y-72510000D02*
X106120000Y-72450000D01*
D26*
X110150000Y-78950000D02*
X109912500Y-78950000D01*
D27*
X113280000Y-71025000D02*
X118125000Y-71025000D01*
D26*
X119550000Y-80250000D02*
X118350000Y-81450000D01*
X126200000Y-82912500D02*
X126100000Y-83012500D01*
X110150000Y-80452082D02*
X110150000Y-78950000D01*
X126200000Y-81125000D02*
X126375000Y-81125000D01*
X126375000Y-81125000D02*
X127250000Y-80250000D01*
X118550000Y-72590000D02*
X118815000Y-72325000D01*
D27*
X125100000Y-84012500D02*
X126100000Y-83012500D01*
D26*
X126200000Y-81125000D02*
X126200000Y-82912500D01*
X128225000Y-81125000D02*
X128450000Y-81350000D01*
D27*
X100355000Y-71750000D02*
X100955000Y-71150000D01*
X124300000Y-86325000D02*
X125100000Y-85525000D01*
D26*
X106750000Y-75550000D02*
X106750000Y-75345000D01*
D27*
X113155000Y-71150000D02*
X113280000Y-71025000D01*
X118125000Y-71025000D02*
X118815000Y-71715000D01*
X100955000Y-71150000D02*
X105850000Y-71150000D01*
X118815000Y-71715000D02*
X118815000Y-72325000D01*
X106180000Y-74775000D02*
X106180000Y-72510000D01*
X105850000Y-71150000D02*
X106120000Y-71420000D01*
D26*
X118550000Y-73850000D02*
X118550000Y-74745000D01*
X122650000Y-80250000D02*
X119550000Y-80250000D01*
X109912500Y-78950000D02*
X109875000Y-78987500D01*
D27*
X106120000Y-71420000D02*
X106120000Y-72450000D01*
D26*
X118550000Y-73850000D02*
X118550000Y-72590000D01*
X118550000Y-74745000D02*
X118580000Y-74775000D01*
X126200000Y-81125000D02*
X128225000Y-81125000D01*
X108900000Y-78950000D02*
X108050000Y-78100000D01*
X109875000Y-78987500D02*
X110525000Y-78987500D01*
D27*
X125100000Y-85525000D02*
X125100000Y-84012500D01*
D26*
X106900000Y-78100000D02*
X106850000Y-78050000D01*
X111147918Y-81450000D02*
X110150000Y-80452082D01*
D27*
X118815000Y-74540000D02*
X118580000Y-74775000D01*
D26*
G04 #@! TO.N,Net-(U3-BP)*
X124300000Y-81125000D02*
X124300000Y-83012500D01*
G04 #@! TO.N,+4V*
X124851472Y-79962500D02*
X125648528Y-79962500D01*
X125648528Y-79962500D02*
X126200000Y-79411028D01*
X126200000Y-79411028D02*
X126200000Y-78850000D01*
X124300000Y-79411028D02*
X124851472Y-79962500D01*
X124300000Y-78850000D02*
X124300000Y-79411028D01*
X126075000Y-78725000D02*
X126200000Y-78850000D01*
X127450000Y-76250000D02*
X126812500Y-76250000D01*
X126812500Y-76250000D02*
X126075000Y-76987500D01*
X128450000Y-77250000D02*
X127450000Y-76250000D01*
X126075000Y-76987500D02*
X126075000Y-78725000D01*
X128450000Y-78350000D02*
X128450000Y-77250000D01*
G04 #@! TO.N,/D7*
X104690000Y-91915000D02*
X104650000Y-91875000D01*
X104690000Y-96450000D02*
X104690000Y-91915000D01*
G04 #@! TO.N,/D6*
X107230000Y-91895000D02*
X107250000Y-91875000D01*
X107230000Y-96450000D02*
X107230000Y-91895000D01*
G04 #@! TO.N,/D5*
X109770000Y-96450000D02*
X109770000Y-91995000D01*
X109770000Y-91995000D02*
X109650000Y-91875000D01*
G04 #@! TO.N,/D4*
X112310000Y-92015000D02*
X112450000Y-91875000D01*
X112310000Y-96450000D02*
X112310000Y-92015000D01*
G04 #@! TO.N,/D3*
X114850000Y-96450000D02*
X114850000Y-91875000D01*
G04 #@! TO.N,/D2*
X117390000Y-91935000D02*
X117450000Y-91875000D01*
X117390000Y-96450000D02*
X117390000Y-91935000D01*
G04 #@! TO.N,/D1*
X119930000Y-91955000D02*
X119850000Y-91875000D01*
X119930000Y-96450000D02*
X119930000Y-91955000D01*
G04 #@! TO.N,/D0*
X122470000Y-96450000D02*
X122470000Y-91895000D01*
X122470000Y-91895000D02*
X122450000Y-91875000D01*
D28*
G04 #@! TO.N,/D0_P*
X124858000Y-65142000D02*
X124858000Y-60259000D01*
X122625000Y-66556000D02*
X123181000Y-66000000D01*
X123181000Y-66000000D02*
X124000000Y-66000000D01*
X122625000Y-67375000D02*
X122625000Y-66556000D01*
X124000000Y-66000000D02*
X124858000Y-65142000D01*
G04 #@! TO.N,/D0_N*
X125658000Y-65428000D02*
X125658000Y-61226767D01*
X126108000Y-59741233D02*
X125658000Y-59291233D01*
X125658000Y-61226767D02*
X126108000Y-60776767D01*
X123895000Y-67375000D02*
X123895000Y-67191000D01*
X125658000Y-58519000D02*
X124858000Y-57719000D01*
X125658000Y-59291233D02*
X125658000Y-58519000D01*
X126108000Y-60776767D02*
X126108000Y-59741233D01*
X123895000Y-67191000D02*
X125658000Y-65428000D01*
G04 #@! TO.N,/D1_P*
X121120000Y-66300000D02*
X121120000Y-63038686D01*
X121355000Y-67375000D02*
X121355000Y-66535000D01*
X122318000Y-61840686D02*
X122318000Y-60259000D01*
X121120000Y-63038686D02*
X122318000Y-61840686D01*
X121355000Y-66535000D02*
X121120000Y-66300000D01*
G04 #@! TO.N,/D1_N*
X121068000Y-59741233D02*
X121518000Y-59291233D01*
X121518000Y-58519000D02*
X122318000Y-57719000D01*
X121518000Y-61226767D02*
X121068000Y-60776767D01*
X120085000Y-66556000D02*
X120320000Y-66321000D01*
X121068000Y-60776767D02*
X121068000Y-59741233D01*
X121518000Y-59291233D02*
X121518000Y-58519000D01*
X120085000Y-67375000D02*
X120085000Y-66556000D01*
X120320000Y-66321000D02*
X120320000Y-62707314D01*
X121518000Y-61509314D02*
X121518000Y-61226767D01*
X120320000Y-62707314D02*
X121518000Y-61509314D01*
G04 #@! TO.N,/D2_P*
X118352157Y-62135157D02*
X118152657Y-61935657D01*
X117545000Y-67375000D02*
X117545000Y-66556000D01*
X118152657Y-61935657D02*
X118152657Y-61783000D01*
X117780000Y-66321000D02*
X117780000Y-62707314D01*
X117545000Y-66556000D02*
X117780000Y-66321000D01*
X117780000Y-62707314D02*
X118352157Y-62135157D01*
G04 #@! TO.N,/D2_N*
X118528000Y-58969000D02*
X119778000Y-57719000D01*
X118580000Y-63038686D02*
X118952157Y-62666529D01*
X118952157Y-62666529D02*
X118952157Y-61200924D01*
X118815000Y-66535000D02*
X118580000Y-66300000D01*
X118815000Y-67375000D02*
X118815000Y-66535000D01*
X118580000Y-66300000D02*
X118580000Y-63038686D01*
X118528000Y-60776767D02*
X118528000Y-58969000D01*
X118952157Y-61200924D02*
X118528000Y-60776767D01*
G04 #@! TO.N,/D3_P*
X116275000Y-66535000D02*
X116040000Y-66300000D01*
X116275000Y-67375000D02*
X116275000Y-66535000D01*
X117238000Y-61967686D02*
X117238000Y-60259000D01*
X116040000Y-63165686D02*
X117238000Y-61967686D01*
X116040000Y-66300000D02*
X116040000Y-63165686D01*
G04 #@! TO.N,/D3_N*
X115988000Y-59741233D02*
X116438000Y-59291233D01*
X116438000Y-61636314D02*
X116438000Y-61226767D01*
X116438000Y-61226767D02*
X115988000Y-60776767D01*
X115005000Y-67375000D02*
X115005000Y-66429000D01*
X115240000Y-66194000D02*
X115240000Y-62834314D01*
X115005000Y-66429000D02*
X115240000Y-66194000D01*
X116438000Y-59291233D02*
X116438000Y-58519000D01*
X115240000Y-62834314D02*
X116438000Y-61636314D01*
X115988000Y-60776767D02*
X115988000Y-59741233D01*
X116438000Y-58519000D02*
X117238000Y-57719000D01*
G04 #@! TO.N,/D4_P*
X109930000Y-66678000D02*
X110165000Y-66443000D01*
X110165000Y-60806000D02*
X109618000Y-60259000D01*
X110165000Y-66443000D02*
X110165000Y-60806000D01*
X109930000Y-67500000D02*
X109930000Y-66678000D01*
G04 #@! TO.N,/D4_N*
X110965000Y-61707091D02*
X110908000Y-61650091D01*
X110965000Y-66305000D02*
X110965000Y-61707091D01*
X110908000Y-59009000D02*
X109618000Y-57719000D01*
X110908000Y-61650091D02*
X110908000Y-59009000D01*
X111200000Y-66540000D02*
X110965000Y-66305000D01*
X111200000Y-67500000D02*
X111200000Y-66540000D01*
G04 #@! TO.N,/D5_P*
X108660000Y-66540000D02*
X108425000Y-66305000D01*
X108425000Y-66305000D02*
X108425000Y-61835536D01*
X108660000Y-67500000D02*
X108660000Y-66540000D01*
X108425000Y-61835536D02*
X108624500Y-61636036D01*
G04 #@! TO.N,/D5_N*
X108328000Y-58969000D02*
X107078000Y-57719000D01*
X108328000Y-60776767D02*
X108328000Y-58969000D01*
X107625000Y-62252000D02*
X107825000Y-62052000D01*
X107625000Y-66316000D02*
X107625000Y-62252000D01*
X107825000Y-62052000D02*
X107825000Y-61279767D01*
X107390000Y-66551000D02*
X107625000Y-66316000D01*
X107390000Y-67500000D02*
X107390000Y-66551000D01*
X107825000Y-61279767D02*
X108328000Y-60776767D01*
G04 #@! TO.N,/D6_P*
X104919000Y-67431000D02*
X104850000Y-67500000D01*
X104919000Y-66482000D02*
X104919000Y-67431000D01*
X105085000Y-66316000D02*
X105085000Y-60806000D01*
X104919000Y-66482000D02*
X105085000Y-66316000D01*
X105085000Y-60806000D02*
X104538000Y-60259000D01*
G04 #@! TO.N,/D6_N*
X106120000Y-67500000D02*
X106120000Y-66540000D01*
X106120000Y-66540000D02*
X105885000Y-66305000D01*
X105828000Y-61544255D02*
X105828000Y-59009000D01*
X105885000Y-61601255D02*
X105828000Y-61544255D01*
X105828000Y-59009000D02*
X104538000Y-57719000D01*
X105885000Y-66305000D02*
X105885000Y-61601255D01*
G04 #@! TO.N,/D7_P*
X103580000Y-66355000D02*
X103580000Y-67500000D01*
X103345000Y-66120000D02*
X103345000Y-64977314D01*
X101579617Y-60677383D02*
X101998000Y-60259000D01*
X103345000Y-64977314D02*
X101579617Y-63211931D01*
X103580000Y-66355000D02*
X103345000Y-66120000D01*
X101579617Y-63211931D02*
X101579617Y-60677383D01*
G04 #@! TO.N,/D7_N*
X100779617Y-63543303D02*
X100779617Y-61691169D01*
X100779617Y-61691169D02*
X100748000Y-61659552D01*
X102379000Y-67431000D02*
X102310000Y-67500000D01*
X100748000Y-61659552D02*
X100748000Y-58969000D01*
X102379000Y-66482000D02*
X102545000Y-66316000D01*
X100748000Y-58969000D02*
X101998000Y-57719000D01*
X102379000Y-66482000D02*
X102379000Y-67431000D01*
X102545000Y-66316000D02*
X102545000Y-65308686D01*
X102545000Y-65308686D02*
X100779617Y-63543303D01*
D27*
G04 #@! TO.N,Net-(U2-EN)*
X100355000Y-73400000D02*
X101360000Y-73400000D01*
X101360000Y-73400000D02*
X102310000Y-72450000D01*
G04 #@! TO.N,Net-(U1-A1)*
X111175000Y-85851041D02*
X111175000Y-84712500D01*
X104650000Y-90225000D02*
X106032538Y-90225000D01*
X110801041Y-86225000D02*
X111175000Y-85851041D01*
X110032538Y-86225000D02*
X110801041Y-86225000D01*
X106032538Y-90225000D02*
X110032538Y-86225000D01*
G04 #@! TO.N,Net-(U1-A2)*
X111825000Y-85837437D02*
X107437437Y-90225000D01*
X111825000Y-84712500D02*
X111825000Y-85837437D01*
X107437437Y-90225000D02*
X107250000Y-90225000D01*
G04 #@! TO.N,Net-(U1-A3)*
X109650000Y-90225000D02*
X109650000Y-89486000D01*
X109650000Y-89486000D02*
X112475000Y-86661000D01*
X112475000Y-86661000D02*
X112475000Y-84712500D01*
G04 #@! TO.N,Net-(U1-A4)*
X112450000Y-87829000D02*
X112450000Y-90225000D01*
X113125000Y-84712500D02*
X113125000Y-87154000D01*
X113125000Y-87154000D02*
X112450000Y-87829000D01*
G04 #@! TO.N,Net-(U1-A5)*
X114850000Y-88180000D02*
X114850000Y-90225000D01*
X113775000Y-87105000D02*
X114850000Y-88180000D01*
X113775000Y-84712500D02*
X113775000Y-87105000D01*
G04 #@! TO.N,Net-(U1-A6)*
X114425000Y-84712500D02*
X114425000Y-86485000D01*
X114425000Y-86485000D02*
X117450000Y-89510000D01*
X117450000Y-89510000D02*
X117450000Y-90225000D01*
G04 #@! TO.N,Net-(U1-A7)*
X119411979Y-90225000D02*
X119850000Y-90225000D01*
X115075000Y-84712500D02*
X115075000Y-85888021D01*
X115075000Y-85888021D02*
X119411979Y-90225000D01*
G04 #@! TO.N,Net-(U1-A8)*
X115725000Y-84712500D02*
X115725000Y-85401041D01*
X118573959Y-88250000D02*
X121250000Y-88250000D01*
X122450000Y-89450000D02*
X122450000Y-90225000D01*
X121250000Y-88250000D02*
X122450000Y-89450000D01*
X115725000Y-85401041D02*
X118573959Y-88250000D01*
G04 #@! TO.N,Net-(U1-Dir2)*
X118550000Y-83125000D02*
X118025000Y-83650000D01*
X116748959Y-83650000D02*
X116375000Y-84023959D01*
X116375000Y-84023959D02*
X116375000Y-84712500D01*
X118025000Y-83650000D02*
X116748959Y-83650000D01*
G04 #@! TO.N,Net-(U1-Dir1)*
X108050000Y-86125000D02*
X108400000Y-85775000D01*
X110151041Y-85775000D02*
X110525000Y-85401041D01*
X108400000Y-85775000D02*
X110151041Y-85775000D01*
X110525000Y-85401041D02*
X110525000Y-84712500D01*
G04 #@! TO.N,Net-(U2-EN\u002A)*
X111200000Y-71355000D02*
X111200000Y-72450000D01*
X113155000Y-69400000D02*
X111200000Y-71355000D01*
G04 #@! TO.N,Net-(U4-EN\u002A)*
X123970000Y-72400000D02*
X123895000Y-72325000D01*
X125755000Y-72400000D02*
X123970000Y-72400000D01*
G04 #@! TO.N,Net-(U4-EN)*
X113155000Y-72800000D02*
X114530000Y-72800000D01*
X114530000Y-72800000D02*
X115005000Y-72325000D01*
G04 #@! TO.N,Net-(U1-B8)*
X116375000Y-78987500D02*
X116375000Y-78298959D01*
X122625000Y-75375000D02*
X122625000Y-72325000D01*
X116375000Y-78298959D02*
X117823959Y-76850000D01*
X121150000Y-76850000D02*
X122625000Y-75375000D01*
X117823959Y-76850000D02*
X121150000Y-76850000D01*
G04 #@! TO.N,Net-(U1-B7)*
X115725000Y-78298959D02*
X117973959Y-76050000D01*
X121355000Y-75445000D02*
X121355000Y-72325000D01*
X115725000Y-78987500D02*
X115725000Y-78298959D01*
X117973959Y-76050000D02*
X120750000Y-76050000D01*
X120750000Y-76050000D02*
X121355000Y-75445000D01*
G04 #@! TO.N,Net-(U1-B6)*
X115075000Y-78987500D02*
X115075000Y-75828147D01*
X117545000Y-73358147D02*
X117545000Y-72325000D01*
X115075000Y-75828147D02*
X117545000Y-73358147D01*
G04 #@! TO.N,Net-(U1-B5)*
X116275000Y-73991751D02*
X116275000Y-72325000D01*
X114425000Y-78987500D02*
X114425000Y-75841751D01*
X114425000Y-75841751D02*
X116275000Y-73991751D01*
G04 #@! TO.N,Net-(U1-B4)*
X113775000Y-78987500D02*
X113775000Y-77775000D01*
X109930000Y-73930000D02*
X109930000Y-72450000D01*
X113775000Y-77775000D02*
X109930000Y-73930000D01*
G04 #@! TO.N,Net-(U1-B3)*
X113125000Y-78298959D02*
X110376041Y-75550000D01*
X110150000Y-75550000D02*
X108660000Y-74060000D01*
X113125000Y-78987500D02*
X113125000Y-78298959D01*
X108660000Y-74060000D02*
X108660000Y-72450000D01*
X110376041Y-75550000D02*
X110150000Y-75550000D01*
G04 #@! TO.N,Net-(U1-B2)*
X112475000Y-78298959D02*
X110676041Y-76500000D01*
X112475000Y-78987500D02*
X112475000Y-78298959D01*
X110676041Y-76500000D02*
X106000000Y-76500000D01*
X106000000Y-76500000D02*
X105050000Y-75550000D01*
X105050000Y-75550000D02*
X105050000Y-72650000D01*
X105050000Y-72650000D02*
X104850000Y-72450000D01*
G04 #@! TO.N,Net-(U1-B1)*
X111825000Y-78298959D02*
X110476041Y-76950000D01*
X103650000Y-72520000D02*
X103580000Y-72450000D01*
X110476041Y-76950000D02*
X105550000Y-76950000D01*
X103650000Y-75050000D02*
X103650000Y-72520000D01*
X105550000Y-76950000D02*
X103650000Y-75050000D01*
X111825000Y-78987500D02*
X111825000Y-78298959D01*
G04 #@! TO.N,Net-(D2-A)*
X125887500Y-87975000D02*
X125900000Y-87962500D01*
X124300000Y-87975000D02*
X125887500Y-87975000D01*
G04 #@! TD*
G04 #@! TA.AperFunction,Conductor*
G04 #@! TO.N,GND*
G36*
X125300843Y-78847422D02*
G01*
X125341021Y-78902724D01*
X125356457Y-78945134D01*
X125365400Y-78969705D01*
X125366582Y-78973107D01*
X125391730Y-79048994D01*
X125396582Y-79106861D01*
X125374555Y-79160592D01*
X125330481Y-79198403D01*
X125274025Y-79212000D01*
X125224500Y-79212000D01*
X125162500Y-79195387D01*
X125117113Y-79150000D01*
X125100500Y-79088000D01*
X125100500Y-78945134D01*
X125119342Y-78879424D01*
X125170143Y-78833683D01*
X125237463Y-78821813D01*
X125300843Y-78847422D01*
G37*
G04 #@! TD.AperFunction*
G04 #@! TA.AperFunction,Conductor*
G36*
X117585820Y-74360466D02*
G01*
X117621646Y-74409026D01*
X117630307Y-74468747D01*
X117629500Y-74476649D01*
X117629500Y-75073344D01*
X117639650Y-75172707D01*
X117692997Y-75333697D01*
X117695373Y-75337549D01*
X117713653Y-75395918D01*
X117701808Y-75455924D01*
X117662719Y-75502968D01*
X117634887Y-75523188D01*
X117625127Y-75529599D01*
X117587538Y-75551829D01*
X117573369Y-75565998D01*
X117558581Y-75578628D01*
X117542372Y-75590405D01*
X117514531Y-75624058D01*
X117506670Y-75632696D01*
X115912181Y-77227187D01*
X115862818Y-77257437D01*
X115805102Y-77261979D01*
X115751615Y-77239824D01*
X115714015Y-77195801D01*
X115700500Y-77139506D01*
X115700500Y-76138599D01*
X115709939Y-76091146D01*
X115736819Y-76050918D01*
X116565509Y-75222228D01*
X117419270Y-74368466D01*
X117471039Y-74337463D01*
X117531315Y-74334567D01*
X117585820Y-74360466D01*
G37*
G04 #@! TD.AperFunction*
G04 #@! TA.AperFunction,Conductor*
G36*
X112184762Y-73235616D02*
G01*
X112230617Y-73279838D01*
X112324528Y-73435186D01*
X112444813Y-73555471D01*
X112444815Y-73555472D01*
X112590394Y-73643478D01*
X112752804Y-73694086D01*
X112799857Y-73698361D01*
X112823383Y-73700500D01*
X112823384Y-73700500D01*
X113486616Y-73700500D01*
X113486617Y-73700500D01*
X113504260Y-73698896D01*
X113557196Y-73694086D01*
X113719606Y-73643478D01*
X113865185Y-73555472D01*
X113885260Y-73535397D01*
X113958839Y-73461819D01*
X113999067Y-73434939D01*
X114046520Y-73425500D01*
X114191459Y-73425500D01*
X114252896Y-73441790D01*
X114298191Y-73486380D01*
X114336916Y-73551862D01*
X114336918Y-73551864D01*
X114336919Y-73551865D01*
X114453135Y-73668081D01*
X114594601Y-73751743D01*
X114594602Y-73751744D01*
X114752427Y-73797597D01*
X114752431Y-73797598D01*
X114789306Y-73800500D01*
X115220692Y-73800500D01*
X115220694Y-73800500D01*
X115257569Y-73797598D01*
X115257569Y-73797597D01*
X115270236Y-73796601D01*
X115270357Y-73798139D01*
X115319360Y-73797211D01*
X115375855Y-73828727D01*
X115408788Y-73884408D01*
X115409197Y-73949098D01*
X115376969Y-74005190D01*
X114041208Y-75340950D01*
X114025110Y-75353847D01*
X113977096Y-75404976D01*
X113974391Y-75407768D01*
X113954874Y-75427285D01*
X113952415Y-75430456D01*
X113944842Y-75439323D01*
X113914935Y-75471171D01*
X113905285Y-75488725D01*
X113894609Y-75504979D01*
X113882326Y-75520814D01*
X113864975Y-75560909D01*
X113859838Y-75571395D01*
X113838802Y-75609658D01*
X113833821Y-75629060D01*
X113827520Y-75647462D01*
X113819561Y-75665853D01*
X113812728Y-75708993D01*
X113810360Y-75720425D01*
X113799500Y-75762729D01*
X113799500Y-75782767D01*
X113797973Y-75802166D01*
X113794840Y-75821945D01*
X113798950Y-75865426D01*
X113799500Y-75877095D01*
X113799500Y-76615547D01*
X113785985Y-76671842D01*
X113748385Y-76715865D01*
X113694898Y-76738020D01*
X113637182Y-76733478D01*
X113587819Y-76703228D01*
X111021772Y-74137181D01*
X110991522Y-74087818D01*
X110986980Y-74030102D01*
X111009135Y-73976615D01*
X111053158Y-73939015D01*
X111109453Y-73925500D01*
X111415692Y-73925500D01*
X111415694Y-73925500D01*
X111452569Y-73922598D01*
X111610398Y-73876744D01*
X111751865Y-73793081D01*
X111868081Y-73676865D01*
X111951744Y-73535398D01*
X111997598Y-73377569D01*
X112000500Y-73340694D01*
X112000500Y-73340691D01*
X112000882Y-73335838D01*
X112002629Y-73335975D01*
X112016864Y-73282421D01*
X112061637Y-73237104D01*
X112123002Y-73219997D01*
X112184762Y-73235616D01*
G37*
G04 #@! TD.AperFunction*
G04 #@! TA.AperFunction,Conductor*
G36*
X109411269Y-62270107D02*
G01*
X109450389Y-62314480D01*
X109464500Y-62371929D01*
X109464500Y-66035115D01*
X109448209Y-66096554D01*
X109403617Y-66141849D01*
X109384334Y-66153252D01*
X109325409Y-66170447D01*
X109265456Y-66157273D01*
X109219168Y-66116959D01*
X109188183Y-66072070D01*
X109167273Y-66053546D01*
X109136424Y-66011622D01*
X109125500Y-65960731D01*
X109125500Y-62448298D01*
X109139015Y-62392003D01*
X109176612Y-62347981D01*
X109230371Y-62308924D01*
X109246265Y-62291272D01*
X109248351Y-62288956D01*
X109297278Y-62255706D01*
X109356042Y-62248907D01*
X109411269Y-62270107D01*
G37*
G04 #@! TD.AperFunction*
G04 #@! TA.AperFunction,Conductor*
G36*
X106741593Y-61567001D02*
G01*
X106842592Y-61594063D01*
X106993713Y-61607285D01*
X107053859Y-61629119D01*
X107095112Y-61678033D01*
X107106487Y-61741000D01*
X107084955Y-61801255D01*
X107062650Y-61833568D01*
X107058213Y-61839597D01*
X107021121Y-61886942D01*
X107016961Y-61896186D01*
X107005941Y-61915725D01*
X107000182Y-61924069D01*
X106978853Y-61980305D01*
X106975989Y-61987219D01*
X106951303Y-62042070D01*
X106949475Y-62052047D01*
X106943454Y-62073648D01*
X106939859Y-62083128D01*
X106932609Y-62142827D01*
X106931483Y-62150226D01*
X106920641Y-62209391D01*
X106924274Y-62269434D01*
X106924500Y-62276921D01*
X106924500Y-65971730D01*
X106913576Y-66022620D01*
X106882729Y-66064544D01*
X106861813Y-66083073D01*
X106860841Y-66084483D01*
X106816417Y-66123835D01*
X106758793Y-66138036D01*
X106701170Y-66123832D01*
X106656747Y-66084478D01*
X106655776Y-66083071D01*
X106648183Y-66072071D01*
X106639687Y-66064544D01*
X106627273Y-66053546D01*
X106596424Y-66011622D01*
X106585500Y-65960731D01*
X106585500Y-61686776D01*
X106598288Y-61631932D01*
X106634014Y-61588400D01*
X106685309Y-61565159D01*
X106741593Y-61567001D01*
G37*
G04 #@! TD.AperFunction*
G04 #@! TA.AperFunction,Conductor*
G36*
X103325257Y-60905975D02*
G01*
X103369573Y-60944839D01*
X103499505Y-61130401D01*
X103666599Y-61297495D01*
X103860170Y-61433035D01*
X104074337Y-61532903D01*
X104255885Y-61581548D01*
X104292593Y-61591384D01*
X104340206Y-61616169D01*
X104372882Y-61658754D01*
X104384500Y-61711159D01*
X104384500Y-65886680D01*
X104369592Y-65945629D01*
X104328453Y-65990403D01*
X104270974Y-66010237D01*
X104210977Y-66000362D01*
X104162888Y-65963151D01*
X104146784Y-65942595D01*
X104142354Y-65936577D01*
X104108183Y-65887071D01*
X104087273Y-65868546D01*
X104056424Y-65826622D01*
X104045500Y-65775731D01*
X104045500Y-65002235D01*
X104045726Y-64994748D01*
X104045927Y-64991416D01*
X104049358Y-64934708D01*
X104038507Y-64875499D01*
X104037390Y-64868155D01*
X104030140Y-64808442D01*
X104026547Y-64798970D01*
X104020522Y-64777358D01*
X104018695Y-64767383D01*
X103994009Y-64712534D01*
X103991152Y-64705640D01*
X103969818Y-64649384D01*
X103964053Y-64641033D01*
X103953036Y-64621497D01*
X103948878Y-64612258D01*
X103911788Y-64564917D01*
X103907352Y-64558888D01*
X103873183Y-64509385D01*
X103828145Y-64469485D01*
X103822707Y-64464365D01*
X102316436Y-62958093D01*
X102289556Y-62917865D01*
X102280117Y-62870412D01*
X102280117Y-61676697D01*
X102291735Y-61624292D01*
X102324411Y-61581708D01*
X102372023Y-61556922D01*
X102381425Y-61554402D01*
X102461663Y-61532903D01*
X102675830Y-61433035D01*
X102869401Y-61297495D01*
X103036495Y-61130401D01*
X103166426Y-60944839D01*
X103210743Y-60905975D01*
X103268000Y-60891964D01*
X103325257Y-60905975D01*
G37*
G04 #@! TD.AperFunction*
G04 #@! TA.AperFunction,Conductor*
G36*
X123645257Y-60905975D02*
G01*
X123689573Y-60944839D01*
X123801507Y-61104697D01*
X123819505Y-61130401D01*
X123986598Y-61297494D01*
X124104623Y-61380136D01*
X124143489Y-61424454D01*
X124157500Y-61481711D01*
X124157500Y-64800481D01*
X124148061Y-64847934D01*
X124121181Y-64888162D01*
X123746162Y-65263181D01*
X123705934Y-65290061D01*
X123658481Y-65299500D01*
X123205921Y-65299500D01*
X123198434Y-65299274D01*
X123138391Y-65295641D01*
X123079227Y-65306483D01*
X123071828Y-65307610D01*
X123012124Y-65314860D01*
X123002651Y-65318453D01*
X122981047Y-65324476D01*
X122971069Y-65326305D01*
X122916225Y-65350987D01*
X122909310Y-65353851D01*
X122853070Y-65375181D01*
X122844723Y-65380943D01*
X122825187Y-65391961D01*
X122815944Y-65396121D01*
X122768608Y-65433205D01*
X122762582Y-65437639D01*
X122713072Y-65471816D01*
X122673184Y-65516838D01*
X122668052Y-65522289D01*
X122275854Y-65914487D01*
X122222777Y-65945880D01*
X122214603Y-65948255D01*
X122175210Y-65971552D01*
X122098621Y-66016847D01*
X122059652Y-66039893D01*
X122058721Y-66038319D01*
X122022094Y-66059467D01*
X121957906Y-66059467D01*
X121921278Y-66038319D01*
X121920348Y-66039893D01*
X121903126Y-66029708D01*
X121881378Y-66016846D01*
X121836790Y-65971552D01*
X121820500Y-65910115D01*
X121820500Y-63380205D01*
X121829939Y-63332752D01*
X121856819Y-63292524D01*
X122067476Y-63081867D01*
X122795731Y-62353610D01*
X122801150Y-62348509D01*
X122846183Y-62308615D01*
X122880377Y-62259075D01*
X122884770Y-62253105D01*
X122921878Y-62205742D01*
X122926035Y-62196504D01*
X122937061Y-62176954D01*
X122942818Y-62168616D01*
X122964152Y-62112360D01*
X122966994Y-62105497D01*
X122991695Y-62050617D01*
X122993522Y-62040642D01*
X122999549Y-62019025D01*
X123003140Y-62009558D01*
X123010387Y-61949865D01*
X123011514Y-61942463D01*
X123022358Y-61883292D01*
X123018726Y-61823252D01*
X123018500Y-61815765D01*
X123018500Y-61481711D01*
X123032511Y-61424454D01*
X123071377Y-61380136D01*
X123088652Y-61368040D01*
X123189401Y-61297495D01*
X123356495Y-61130401D01*
X123486426Y-60944839D01*
X123530743Y-60905975D01*
X123588000Y-60891964D01*
X123645257Y-60905975D01*
G37*
G04 #@! TD.AperFunction*
G04 #@! TA.AperFunction,Conductor*
G36*
X119568385Y-63188886D02*
G01*
X119605985Y-63232909D01*
X119619500Y-63289204D01*
X119619500Y-65910115D01*
X119603210Y-65971552D01*
X119558621Y-66016846D01*
X119536874Y-66029708D01*
X119519652Y-66039893D01*
X119518721Y-66038319D01*
X119482094Y-66059467D01*
X119417906Y-66059467D01*
X119381278Y-66038319D01*
X119380348Y-66039893D01*
X119363126Y-66029708D01*
X119341378Y-66016846D01*
X119296790Y-65971552D01*
X119280500Y-65910115D01*
X119280500Y-63380204D01*
X119289939Y-63332751D01*
X119316819Y-63292523D01*
X119407819Y-63201523D01*
X119457182Y-63171273D01*
X119514898Y-63166731D01*
X119568385Y-63188886D01*
G37*
G04 #@! TD.AperFunction*
G04 #@! TA.AperFunction,Conductor*
G36*
X117028385Y-63315887D02*
G01*
X117065985Y-63359910D01*
X117079500Y-63416205D01*
X117079500Y-65910115D01*
X117063210Y-65971552D01*
X117018621Y-66016846D01*
X116996874Y-66029708D01*
X116979652Y-66039893D01*
X116978721Y-66038319D01*
X116942094Y-66059467D01*
X116877906Y-66059467D01*
X116841278Y-66038319D01*
X116840348Y-66039893D01*
X116823126Y-66029708D01*
X116801378Y-66016846D01*
X116756790Y-65971552D01*
X116740500Y-65910115D01*
X116740500Y-63507205D01*
X116749939Y-63459752D01*
X116776819Y-63419524D01*
X116867819Y-63328524D01*
X116917182Y-63298274D01*
X116974898Y-63293732D01*
X117028385Y-63315887D01*
G37*
G04 #@! TD.AperFunction*
G04 #@! TA.AperFunction,Conductor*
G36*
X132486789Y-54267393D02*
G01*
X132532247Y-54313470D01*
X132548294Y-54376175D01*
X132450792Y-61591384D01*
X132250217Y-76433931D01*
X132245694Y-76465481D01*
X130083183Y-84240801D01*
X127809905Y-92414389D01*
X127800000Y-92450001D01*
X127800000Y-102375500D01*
X127783387Y-102437500D01*
X127738000Y-102482887D01*
X127676000Y-102499500D01*
X99374500Y-102499500D01*
X99312500Y-102482887D01*
X99267113Y-102437500D01*
X99250500Y-102375500D01*
X99250500Y-92504664D01*
X99250680Y-92499832D01*
X99248930Y-92495137D01*
X99221285Y-92410887D01*
X97265369Y-86449999D01*
X100094340Y-86449999D01*
X100114936Y-86685407D01*
X100176096Y-86913662D01*
X100176097Y-86913663D01*
X100275965Y-87127829D01*
X100411505Y-87321401D01*
X100578599Y-87488495D01*
X100772171Y-87624035D01*
X100986337Y-87723903D01*
X101186038Y-87777412D01*
X101214592Y-87785063D01*
X101391032Y-87800500D01*
X101391034Y-87800500D01*
X101508966Y-87800500D01*
X101508968Y-87800500D01*
X101626594Y-87790208D01*
X101685408Y-87785063D01*
X101913663Y-87723903D01*
X102127829Y-87624035D01*
X102321401Y-87488495D01*
X102488495Y-87321401D01*
X102624035Y-87127830D01*
X102723903Y-86913663D01*
X102785063Y-86685408D01*
X102805659Y-86450000D01*
X102785063Y-86214592D01*
X102723903Y-85986337D01*
X102624035Y-85772171D01*
X102488495Y-85578599D01*
X102321401Y-85411505D01*
X102127829Y-85275965D01*
X101913663Y-85176097D01*
X101685407Y-85114936D01*
X101508968Y-85099500D01*
X101508966Y-85099500D01*
X101391034Y-85099500D01*
X101391032Y-85099500D01*
X101214592Y-85114936D01*
X100986336Y-85176097D01*
X100772170Y-85275965D01*
X100578598Y-85411505D01*
X100411508Y-85578595D01*
X100411505Y-85578598D01*
X100411505Y-85578599D01*
X100286525Y-85757090D01*
X100275964Y-85772172D01*
X100176097Y-85986337D01*
X100114936Y-86214592D01*
X100094340Y-86449999D01*
X97265369Y-86449999D01*
X96233504Y-83305267D01*
X94006680Y-76518755D01*
X94000500Y-76480095D01*
X94000500Y-74228023D01*
X96094711Y-74228023D01*
X96099028Y-74277369D01*
X96099500Y-74288176D01*
X96099500Y-74293708D01*
X96103098Y-74324496D01*
X96103464Y-74328081D01*
X96110110Y-74404041D01*
X96114329Y-74423071D01*
X96114758Y-74424251D01*
X96114759Y-74424255D01*
X96140413Y-74494742D01*
X96141582Y-74498107D01*
X96165580Y-74570524D01*
X96174075Y-74588072D01*
X96215979Y-74651784D01*
X96217889Y-74654782D01*
X96246058Y-74700449D01*
X96257952Y-74719732D01*
X96270253Y-74734830D01*
X96271168Y-74735693D01*
X96271170Y-74735696D01*
X96325709Y-74787151D01*
X96328296Y-74789664D01*
X100532961Y-78994329D01*
X100563940Y-79046014D01*
X100621185Y-79234726D01*
X100700127Y-79382415D01*
X100714090Y-79408538D01*
X100839117Y-79560883D01*
X100991462Y-79685910D01*
X101065919Y-79725708D01*
X101165273Y-79778814D01*
X101353986Y-79836060D01*
X101405671Y-79867039D01*
X104874267Y-83335634D01*
X104886048Y-83349266D01*
X104900390Y-83368530D01*
X104920265Y-83385207D01*
X104938339Y-83400373D01*
X104946314Y-83407681D01*
X104950224Y-83411591D01*
X104968672Y-83426178D01*
X104974543Y-83430820D01*
X104977330Y-83433090D01*
X105034786Y-83481302D01*
X105034788Y-83481303D01*
X105035750Y-83482110D01*
X105052186Y-83492582D01*
X105121301Y-83524810D01*
X105124540Y-83526377D01*
X105130783Y-83529513D01*
X105159754Y-83549684D01*
X105181868Y-83577203D01*
X105249286Y-83691200D01*
X105358800Y-83800714D01*
X105358802Y-83800715D01*
X105492113Y-83879555D01*
X105640844Y-83922765D01*
X105675595Y-83925500D01*
X106024404Y-83925499D01*
X106059156Y-83922765D01*
X106207887Y-83879555D01*
X106341198Y-83800715D01*
X106450715Y-83691198D01*
X106468350Y-83661378D01*
X106513645Y-83616790D01*
X106575082Y-83600500D01*
X107159480Y-83600500D01*
X107215775Y-83614015D01*
X107259798Y-83651615D01*
X107281953Y-83705102D01*
X107277411Y-83762818D01*
X107247161Y-83812181D01*
X107219528Y-83839813D01*
X107141749Y-83968476D01*
X107131522Y-83985394D01*
X107107710Y-84061811D01*
X107080913Y-84147806D01*
X107074500Y-84218383D01*
X107074500Y-84731617D01*
X107080913Y-84802193D01*
X107080914Y-84802196D01*
X107131522Y-84964606D01*
X107131523Y-84964607D01*
X107219528Y-85110186D01*
X107321661Y-85212319D01*
X107353755Y-85267906D01*
X107353755Y-85332094D01*
X107321661Y-85387681D01*
X107219528Y-85489813D01*
X107150489Y-85604019D01*
X107131522Y-85635394D01*
X107114565Y-85689813D01*
X107080913Y-85797806D01*
X107074500Y-85868383D01*
X107074500Y-86381617D01*
X107080913Y-86452193D01*
X107080914Y-86452196D01*
X107131522Y-86614606D01*
X107131523Y-86614607D01*
X107219528Y-86760186D01*
X107339813Y-86880471D01*
X107339815Y-86880472D01*
X107485394Y-86968478D01*
X107647804Y-87019086D01*
X107694857Y-87023361D01*
X107718383Y-87025500D01*
X107718384Y-87025500D01*
X108048085Y-87025500D01*
X108104380Y-87039015D01*
X108148403Y-87076615D01*
X108170558Y-87130102D01*
X108166016Y-87187818D01*
X108135766Y-87237181D01*
X105809766Y-89563181D01*
X105769538Y-89590061D01*
X105722085Y-89599500D01*
X105541520Y-89599500D01*
X105494067Y-89590061D01*
X105453839Y-89563181D01*
X105360186Y-89469528D01*
X105260490Y-89409260D01*
X105214606Y-89381522D01*
X105052196Y-89330914D01*
X105052193Y-89330913D01*
X104981617Y-89324500D01*
X104981616Y-89324500D01*
X104318384Y-89324500D01*
X104318383Y-89324500D01*
X104247806Y-89330913D01*
X104182147Y-89351373D01*
X104085394Y-89381522D01*
X104085392Y-89381522D01*
X104085392Y-89381523D01*
X103939813Y-89469528D01*
X103819528Y-89589813D01*
X103731523Y-89735392D01*
X103680913Y-89897806D01*
X103674500Y-89968383D01*
X103674500Y-90481617D01*
X103680913Y-90552193D01*
X103680914Y-90552196D01*
X103731522Y-90714606D01*
X103731523Y-90714607D01*
X103819528Y-90860186D01*
X103921661Y-90962319D01*
X103953755Y-91017906D01*
X103953755Y-91082094D01*
X103921661Y-91137681D01*
X103819528Y-91239813D01*
X103731523Y-91385392D01*
X103680913Y-91547806D01*
X103674500Y-91618383D01*
X103674500Y-92131617D01*
X103680913Y-92202193D01*
X103680914Y-92202196D01*
X103731522Y-92364606D01*
X103731523Y-92364607D01*
X103813418Y-92500079D01*
X103819528Y-92510185D01*
X103903183Y-92593840D01*
X103930061Y-92634066D01*
X103939500Y-92681519D01*
X103939500Y-95262299D01*
X103925489Y-95319556D01*
X103886623Y-95363874D01*
X103818598Y-95411505D01*
X103651506Y-95578597D01*
X103515965Y-95772170D01*
X103416097Y-95986336D01*
X103354936Y-96214592D01*
X103334340Y-96450000D01*
X103354936Y-96685407D01*
X103399709Y-96852502D01*
X103416097Y-96913663D01*
X103515965Y-97127830D01*
X103651505Y-97321401D01*
X103818599Y-97488495D01*
X104012170Y-97624035D01*
X104226337Y-97723903D01*
X104454592Y-97785063D01*
X104690000Y-97805659D01*
X104925408Y-97785063D01*
X105153663Y-97723903D01*
X105367830Y-97624035D01*
X105561401Y-97488495D01*
X105728495Y-97321401D01*
X105858426Y-97135839D01*
X105902743Y-97096975D01*
X105960000Y-97082964D01*
X106017257Y-97096975D01*
X106061573Y-97135839D01*
X106191505Y-97321401D01*
X106358599Y-97488495D01*
X106552170Y-97624035D01*
X106766337Y-97723903D01*
X106994592Y-97785063D01*
X107230000Y-97805659D01*
X107465408Y-97785063D01*
X107693663Y-97723903D01*
X107907830Y-97624035D01*
X108101401Y-97488495D01*
X108268495Y-97321401D01*
X108398426Y-97135839D01*
X108442743Y-97096975D01*
X108500000Y-97082964D01*
X108557257Y-97096975D01*
X108601573Y-97135839D01*
X108731505Y-97321401D01*
X108898599Y-97488495D01*
X109092170Y-97624035D01*
X109306337Y-97723903D01*
X109534592Y-97785063D01*
X109770000Y-97805659D01*
X110005408Y-97785063D01*
X110233663Y-97723903D01*
X110447830Y-97624035D01*
X110641401Y-97488495D01*
X110808495Y-97321401D01*
X110938426Y-97135839D01*
X110982743Y-97096975D01*
X111040000Y-97082964D01*
X111097257Y-97096975D01*
X111141573Y-97135839D01*
X111271505Y-97321401D01*
X111438599Y-97488495D01*
X111632170Y-97624035D01*
X111846337Y-97723903D01*
X112074592Y-97785063D01*
X112310000Y-97805659D01*
X112545408Y-97785063D01*
X112773663Y-97723903D01*
X112987830Y-97624035D01*
X113181401Y-97488495D01*
X113348495Y-97321401D01*
X113478426Y-97135839D01*
X113522743Y-97096975D01*
X113580000Y-97082964D01*
X113637257Y-97096975D01*
X113681573Y-97135839D01*
X113811505Y-97321401D01*
X113978599Y-97488495D01*
X114172170Y-97624035D01*
X114386337Y-97723903D01*
X114614592Y-97785063D01*
X114850000Y-97805659D01*
X115085408Y-97785063D01*
X115313663Y-97723903D01*
X115527830Y-97624035D01*
X115721401Y-97488495D01*
X115888495Y-97321401D01*
X116018426Y-97135839D01*
X116062743Y-97096975D01*
X116120000Y-97082964D01*
X116177257Y-97096975D01*
X116221573Y-97135839D01*
X116351505Y-97321401D01*
X116518599Y-97488495D01*
X116712170Y-97624035D01*
X116926337Y-97723903D01*
X117154592Y-97785063D01*
X117390000Y-97805659D01*
X117625408Y-97785063D01*
X117853663Y-97723903D01*
X118067830Y-97624035D01*
X118261401Y-97488495D01*
X118428495Y-97321401D01*
X118558426Y-97135839D01*
X118602743Y-97096975D01*
X118660000Y-97082964D01*
X118717257Y-97096975D01*
X118761573Y-97135839D01*
X118891505Y-97321401D01*
X119058599Y-97488495D01*
X119252170Y-97624035D01*
X119466337Y-97723903D01*
X119694592Y-97785063D01*
X119930000Y-97805659D01*
X120165408Y-97785063D01*
X120393663Y-97723903D01*
X120607830Y-97624035D01*
X120801401Y-97488495D01*
X120968495Y-97321401D01*
X120968495Y-97321400D01*
X120976166Y-97313730D01*
X120978747Y-97316311D01*
X121015633Y-97286259D01*
X121082720Y-97277422D01*
X121144458Y-97305122D01*
X121182460Y-97361107D01*
X121185186Y-97369334D01*
X121185187Y-97369335D01*
X121277288Y-97518657D01*
X121401342Y-97642711D01*
X121401344Y-97642712D01*
X121550666Y-97734814D01*
X121662017Y-97771712D01*
X121717202Y-97789999D01*
X121727703Y-97791071D01*
X121819991Y-97800500D01*
X123120008Y-97800499D01*
X123222797Y-97789999D01*
X123389334Y-97734814D01*
X123538656Y-97642712D01*
X123662712Y-97518656D01*
X123754814Y-97369334D01*
X123809999Y-97202797D01*
X123820500Y-97100009D01*
X123820499Y-95799992D01*
X123809999Y-95697203D01*
X123754814Y-95530666D01*
X123662712Y-95381344D01*
X123662711Y-95381342D01*
X123538657Y-95257288D01*
X123389334Y-95165186D01*
X123389333Y-95165185D01*
X123305495Y-95137404D01*
X123261171Y-95111526D01*
X123231123Y-95069914D01*
X123220500Y-95019699D01*
X123220500Y-92621520D01*
X123229939Y-92574067D01*
X123256819Y-92533839D01*
X123280471Y-92510186D01*
X123280472Y-92510185D01*
X123368478Y-92364606D01*
X123419086Y-92202196D01*
X123425500Y-92131616D01*
X123425500Y-91618384D01*
X123419086Y-91547804D01*
X123368478Y-91385394D01*
X123280472Y-91239815D01*
X123280471Y-91239813D01*
X123178339Y-91137681D01*
X123146245Y-91082094D01*
X123146245Y-91017906D01*
X123178339Y-90962319D01*
X123280471Y-90860186D01*
X123280472Y-90860185D01*
X123368478Y-90714606D01*
X123419086Y-90552196D01*
X123425500Y-90481616D01*
X123425500Y-89968384D01*
X123419086Y-89897804D01*
X123368478Y-89735394D01*
X123280472Y-89589815D01*
X123280471Y-89589813D01*
X123160185Y-89469527D01*
X123132471Y-89452773D01*
X123089585Y-89409260D01*
X123077238Y-89366374D01*
X123077081Y-89366420D01*
X123072709Y-89351373D01*
X123067120Y-89332140D01*
X123063174Y-89313082D01*
X123060664Y-89293208D01*
X123044588Y-89252606D01*
X123040804Y-89241552D01*
X123028619Y-89199613D01*
X123028618Y-89199612D01*
X123028618Y-89199610D01*
X123018417Y-89182361D01*
X123009860Y-89164895D01*
X123002486Y-89146268D01*
X122976813Y-89110932D01*
X122970402Y-89101172D01*
X122948169Y-89063578D01*
X122934006Y-89049415D01*
X122921369Y-89034620D01*
X122909595Y-89018414D01*
X122909594Y-89018413D01*
X122875935Y-88990568D01*
X122867305Y-88982714D01*
X121750802Y-87866211D01*
X121737906Y-87850113D01*
X121686775Y-87802098D01*
X121683978Y-87799387D01*
X121664470Y-87779879D01*
X121661290Y-87777412D01*
X121652424Y-87769839D01*
X121620582Y-87739938D01*
X121603024Y-87730285D01*
X121586764Y-87719604D01*
X121570936Y-87707327D01*
X121530851Y-87689980D01*
X121520361Y-87684841D01*
X121482091Y-87663802D01*
X121462691Y-87658821D01*
X121444284Y-87652519D01*
X121425897Y-87644562D01*
X121382758Y-87637729D01*
X121371324Y-87635361D01*
X121329019Y-87624500D01*
X121308984Y-87624500D01*
X121289586Y-87622973D01*
X121282162Y-87621797D01*
X121269805Y-87619840D01*
X121269804Y-87619840D01*
X121236751Y-87622964D01*
X121226325Y-87623950D01*
X121214656Y-87624500D01*
X118884412Y-87624500D01*
X118836959Y-87615061D01*
X118796731Y-87588181D01*
X117016451Y-85807901D01*
X116985869Y-85757502D01*
X116982018Y-85698676D01*
X116995204Y-85668717D01*
X116993289Y-85667924D01*
X117019759Y-85604018D01*
X117060044Y-85506762D01*
X117075500Y-85389361D01*
X117075499Y-84399499D01*
X117092112Y-84337500D01*
X117137499Y-84292113D01*
X117199499Y-84275500D01*
X117942256Y-84275500D01*
X117962762Y-84277764D01*
X117965665Y-84277672D01*
X117965667Y-84277673D01*
X118032872Y-84275561D01*
X118036768Y-84275500D01*
X118064349Y-84275500D01*
X118064350Y-84275500D01*
X118068319Y-84274998D01*
X118079965Y-84274080D01*
X118123627Y-84272709D01*
X118142859Y-84267120D01*
X118161918Y-84263174D01*
X118168196Y-84262381D01*
X118181792Y-84260664D01*
X118222407Y-84244582D01*
X118233444Y-84240803D01*
X118275390Y-84228618D01*
X118292629Y-84218422D01*
X118310102Y-84209862D01*
X118328732Y-84202486D01*
X118364064Y-84176814D01*
X118373830Y-84170400D01*
X118411418Y-84148171D01*
X118411417Y-84148171D01*
X118411420Y-84148170D01*
X118425585Y-84134004D01*
X118440373Y-84121373D01*
X118456587Y-84109594D01*
X118484438Y-84075926D01*
X118492286Y-84067302D01*
X118497778Y-84061810D01*
X118538003Y-84034937D01*
X118585451Y-84025500D01*
X118881617Y-84025500D01*
X118899261Y-84023896D01*
X118952196Y-84019086D01*
X119114606Y-83968478D01*
X119260185Y-83880472D01*
X119380472Y-83760185D01*
X119468478Y-83614606D01*
X119519086Y-83452196D01*
X119525500Y-83381616D01*
X119525500Y-82868384D01*
X119519086Y-82797804D01*
X119468478Y-82635394D01*
X119380472Y-82489815D01*
X119380471Y-82489813D01*
X119260186Y-82369528D01*
X119142373Y-82298308D01*
X119114606Y-82281522D01*
X118952196Y-82230914D01*
X118952193Y-82230913D01*
X118923279Y-82228286D01*
X118859484Y-82203528D01*
X118818535Y-82148701D01*
X118812905Y-82080502D01*
X118844306Y-82019703D01*
X118887185Y-81974253D01*
X118889631Y-81971735D01*
X119824547Y-81036819D01*
X119864776Y-81009939D01*
X119912229Y-81000500D01*
X122110663Y-81000500D01*
X122148982Y-81006569D01*
X122183550Y-81024183D01*
X122197271Y-81034152D01*
X122370197Y-81111144D01*
X122555352Y-81150500D01*
X122555354Y-81150500D01*
X122744646Y-81150500D01*
X122744648Y-81150500D01*
X122868083Y-81124262D01*
X122929803Y-81111144D01*
X123102730Y-81034151D01*
X123161094Y-80991747D01*
X123255870Y-80922889D01*
X123283350Y-80892370D01*
X123332277Y-80859119D01*
X123391041Y-80852320D01*
X123446269Y-80873520D01*
X123485389Y-80917893D01*
X123499500Y-80975342D01*
X123499500Y-81703192D01*
X123502402Y-81740072D01*
X123544576Y-81885232D01*
X123549500Y-81919827D01*
X123549500Y-82210626D01*
X123540061Y-82258079D01*
X123513180Y-82298308D01*
X123477030Y-82334456D01*
X123387997Y-82478800D01*
X123334650Y-82639792D01*
X123324500Y-82739155D01*
X123324500Y-83285844D01*
X123334650Y-83385207D01*
X123387997Y-83546199D01*
X123477031Y-83690544D01*
X123596955Y-83810468D01*
X123741300Y-83899502D01*
X123741302Y-83899502D01*
X123741303Y-83899503D01*
X123902292Y-83952849D01*
X124001655Y-83963000D01*
X124350500Y-83962999D01*
X124412500Y-83979612D01*
X124457887Y-84024999D01*
X124474500Y-84086999D01*
X124474500Y-85214548D01*
X124465061Y-85262001D01*
X124438181Y-85302229D01*
X124352229Y-85388181D01*
X124312001Y-85415061D01*
X124264548Y-85424500D01*
X123968383Y-85424500D01*
X123897806Y-85430913D01*
X123816599Y-85456217D01*
X123735394Y-85481522D01*
X123735392Y-85481522D01*
X123735392Y-85481523D01*
X123589813Y-85569528D01*
X123469528Y-85689813D01*
X123398142Y-85807901D01*
X123381522Y-85835394D01*
X123368237Y-85878029D01*
X123330913Y-85997806D01*
X123324500Y-86068383D01*
X123324500Y-86581617D01*
X123330913Y-86652193D01*
X123330914Y-86652196D01*
X123381522Y-86814606D01*
X123381523Y-86814607D01*
X123469528Y-86960186D01*
X123571661Y-87062319D01*
X123603755Y-87117906D01*
X123603755Y-87182094D01*
X123571661Y-87237681D01*
X123469528Y-87339813D01*
X123381523Y-87485392D01*
X123330913Y-87647806D01*
X123324500Y-87718383D01*
X123324500Y-88231617D01*
X123330913Y-88302193D01*
X123330914Y-88302196D01*
X123381522Y-88464606D01*
X123381523Y-88464607D01*
X123469528Y-88610186D01*
X123589813Y-88730471D01*
X123589815Y-88730472D01*
X123735394Y-88818478D01*
X123897804Y-88869086D01*
X123944857Y-88873362D01*
X123968383Y-88875500D01*
X123968384Y-88875500D01*
X124631616Y-88875500D01*
X124631617Y-88875500D01*
X124649261Y-88873896D01*
X124702196Y-88869086D01*
X124864606Y-88818478D01*
X125010185Y-88730472D01*
X125010186Y-88730470D01*
X125023070Y-88722682D01*
X125024150Y-88724468D01*
X125060892Y-88703253D01*
X125125084Y-88703251D01*
X125180675Y-88735347D01*
X125194609Y-88749281D01*
X125337713Y-88837549D01*
X125417513Y-88863992D01*
X125497314Y-88890436D01*
X125595826Y-88900500D01*
X126204174Y-88900500D01*
X126302685Y-88890436D01*
X126319274Y-88884939D01*
X126462287Y-88837549D01*
X126605391Y-88749281D01*
X126724281Y-88630391D01*
X126812549Y-88487287D01*
X126865436Y-88327685D01*
X126875500Y-88229174D01*
X126875500Y-87695826D01*
X126874378Y-87684841D01*
X126865436Y-87597314D01*
X126838992Y-87517514D01*
X126812549Y-87437713D01*
X126724281Y-87294609D01*
X126724280Y-87294608D01*
X126724279Y-87294606D01*
X126605393Y-87175720D01*
X126482771Y-87100086D01*
X126462287Y-87087451D01*
X126462286Y-87087450D01*
X126462285Y-87087450D01*
X126302685Y-87034563D01*
X126204174Y-87024500D01*
X125595826Y-87024500D01*
X125497314Y-87034563D01*
X125337709Y-87087452D01*
X125321156Y-87097662D01*
X125258445Y-87116099D01*
X125195072Y-87100086D01*
X125148646Y-87054073D01*
X125132069Y-86990845D01*
X125149944Y-86927973D01*
X125218478Y-86814606D01*
X125269086Y-86652196D01*
X125275500Y-86581616D01*
X125275500Y-86285453D01*
X125284939Y-86238001D01*
X125311816Y-86197774D01*
X125483793Y-86025796D01*
X125499886Y-86012905D01*
X125501874Y-86010787D01*
X125501877Y-86010786D01*
X125547948Y-85961723D01*
X125550566Y-85959023D01*
X125570120Y-85939471D01*
X125572581Y-85936298D01*
X125580156Y-85927427D01*
X125610062Y-85895582D01*
X125619712Y-85878027D01*
X125630400Y-85861757D01*
X125642671Y-85845938D01*
X125642673Y-85845936D01*
X125660026Y-85805832D01*
X125665157Y-85795362D01*
X125686197Y-85757092D01*
X125691175Y-85737699D01*
X125697481Y-85719282D01*
X125699018Y-85715728D01*
X125705438Y-85700896D01*
X125712272Y-85657745D01*
X125714635Y-85646331D01*
X125725500Y-85604019D01*
X125725500Y-85583984D01*
X125727027Y-85564585D01*
X125730160Y-85544804D01*
X125726050Y-85501325D01*
X125725500Y-85489656D01*
X125725500Y-84322952D01*
X125734939Y-84275499D01*
X125761819Y-84235271D01*
X125997771Y-83999318D01*
X126037999Y-83972438D01*
X126085452Y-83962999D01*
X126398345Y-83962999D01*
X126448025Y-83957924D01*
X126497708Y-83952849D01*
X126658697Y-83899503D01*
X126689553Y-83880471D01*
X126803044Y-83810468D01*
X126922968Y-83690544D01*
X127012002Y-83546199D01*
X127017532Y-83529512D01*
X127065349Y-83385208D01*
X127075500Y-83285845D01*
X127075499Y-82739156D01*
X127065349Y-82639792D01*
X127012003Y-82478803D01*
X126968961Y-82409022D01*
X126950500Y-82343926D01*
X126950500Y-81999500D01*
X126967113Y-81937500D01*
X127012500Y-81892113D01*
X127074500Y-81875500D01*
X127528329Y-81875500D01*
X127581346Y-81887405D01*
X127624181Y-81920834D01*
X127739117Y-82060883D01*
X127891462Y-82185910D01*
X128065273Y-82278814D01*
X128253868Y-82336024D01*
X128450000Y-82355341D01*
X128646132Y-82336024D01*
X128834727Y-82278814D01*
X129008538Y-82185910D01*
X129160883Y-82060883D01*
X129285910Y-81908538D01*
X129378814Y-81734727D01*
X129436024Y-81546132D01*
X129455341Y-81350000D01*
X129436024Y-81153868D01*
X129378814Y-80965273D01*
X129285910Y-80791462D01*
X129160883Y-80639117D01*
X129008538Y-80514090D01*
X128963952Y-80490258D01*
X128834726Y-80421185D01*
X128646133Y-80363976D01*
X128449999Y-80344658D01*
X128290921Y-80360326D01*
X128227838Y-80349981D01*
X128178291Y-80309589D01*
X128155448Y-80249886D01*
X128135674Y-80061744D01*
X128092166Y-79927840D01*
X128077179Y-79881715D01*
X127982533Y-79717783D01*
X127855870Y-79577110D01*
X127702730Y-79465848D01*
X127529802Y-79388855D01*
X127344648Y-79349500D01*
X127344646Y-79349500D01*
X127155354Y-79349500D01*
X127155353Y-79349500D01*
X127150281Y-79350578D01*
X127095553Y-79349862D01*
X127046464Y-79325654D01*
X127012579Y-79282671D01*
X127000500Y-79229288D01*
X127000500Y-78271808D01*
X126999710Y-78261767D01*
X126997598Y-78234931D01*
X126951744Y-78077102D01*
X126868081Y-77935635D01*
X126861819Y-77929373D01*
X126834939Y-77889145D01*
X126825500Y-77841692D01*
X126825500Y-77789375D01*
X126834939Y-77741922D01*
X126861819Y-77701694D01*
X126872968Y-77690544D01*
X126962002Y-77546199D01*
X126963667Y-77541176D01*
X127015349Y-77385208D01*
X127025500Y-77285845D01*
X127025499Y-77233513D01*
X127037578Y-77180134D01*
X127071462Y-77137150D01*
X127120550Y-77112942D01*
X127175278Y-77112224D01*
X127235330Y-77124987D01*
X127268716Y-77137304D01*
X127297230Y-77158597D01*
X127663181Y-77524548D01*
X127690061Y-77564776D01*
X127699500Y-77612229D01*
X127699500Y-77643022D01*
X127692251Y-77684796D01*
X127671353Y-77721687D01*
X127614089Y-77791462D01*
X127521185Y-77965273D01*
X127463976Y-78153866D01*
X127444659Y-78349999D01*
X127463976Y-78546133D01*
X127521185Y-78734726D01*
X127567734Y-78821813D01*
X127614090Y-78908538D01*
X127739117Y-79060883D01*
X127891462Y-79185910D01*
X128065273Y-79278814D01*
X128253868Y-79336024D01*
X128450000Y-79355341D01*
X128646132Y-79336024D01*
X128834727Y-79278814D01*
X129008538Y-79185910D01*
X129160883Y-79060883D01*
X129285910Y-78908538D01*
X129378814Y-78734727D01*
X129436024Y-78546132D01*
X129455341Y-78350000D01*
X129436024Y-78153868D01*
X129378814Y-77965273D01*
X129285910Y-77791462D01*
X129228647Y-77721687D01*
X129207749Y-77684796D01*
X129200500Y-77643022D01*
X129200500Y-77313706D01*
X129201809Y-77295736D01*
X129202338Y-77292118D01*
X129205289Y-77271977D01*
X129200972Y-77222631D01*
X129200500Y-77211824D01*
X129200500Y-77206289D01*
X129196903Y-77175521D01*
X129196536Y-77171929D01*
X129193507Y-77137304D01*
X129189999Y-77097203D01*
X129189998Y-77097201D01*
X129189889Y-77095949D01*
X129185672Y-77076930D01*
X129159592Y-77005274D01*
X129158408Y-77001868D01*
X129134814Y-76930666D01*
X129134812Y-76930663D01*
X129134415Y-76929464D01*
X129125929Y-76911936D01*
X129125237Y-76910884D01*
X129125237Y-76910883D01*
X129084001Y-76848188D01*
X129082086Y-76845181D01*
X129042048Y-76780269D01*
X129029748Y-76765170D01*
X128974273Y-76712832D01*
X128971686Y-76710319D01*
X128362771Y-76101403D01*
X128332521Y-76052040D01*
X128277179Y-75881715D01*
X128182533Y-75717783D01*
X128055870Y-75577110D01*
X127902730Y-75465848D01*
X127729802Y-75388855D01*
X127544648Y-75349500D01*
X127544646Y-75349500D01*
X127355354Y-75349500D01*
X127355352Y-75349500D01*
X127170197Y-75388855D01*
X126997271Y-75465847D01*
X126983550Y-75475817D01*
X126948982Y-75493431D01*
X126910663Y-75499500D01*
X126876207Y-75499500D01*
X126858238Y-75498191D01*
X126834477Y-75494711D01*
X126785131Y-75499028D01*
X126774324Y-75499500D01*
X126768791Y-75499500D01*
X126738001Y-75503098D01*
X126734417Y-75503464D01*
X126658461Y-75510109D01*
X126639421Y-75514330D01*
X126567732Y-75540421D01*
X126564331Y-75541603D01*
X126491974Y-75565580D01*
X126474427Y-75574075D01*
X126410721Y-75615975D01*
X126407681Y-75617912D01*
X126342780Y-75657944D01*
X126327665Y-75670256D01*
X126275333Y-75725724D01*
X126272821Y-75728310D01*
X126025449Y-75975681D01*
X125985221Y-76002561D01*
X125937769Y-76012000D01*
X125801655Y-76012000D01*
X125702292Y-76022150D01*
X125541300Y-76075497D01*
X125396955Y-76164531D01*
X125277031Y-76284455D01*
X125187997Y-76428800D01*
X125134650Y-76589792D01*
X125124500Y-76689155D01*
X125124500Y-77285844D01*
X125134650Y-77385207D01*
X125187997Y-77546199D01*
X125277031Y-77690544D01*
X125288181Y-77701694D01*
X125315061Y-77741922D01*
X125324500Y-77789375D01*
X125324500Y-78144664D01*
X125310689Y-78201537D01*
X125272331Y-78245740D01*
X125217972Y-78267427D01*
X125159721Y-78261767D01*
X125110554Y-78230020D01*
X125081424Y-78179259D01*
X125051744Y-78077102D01*
X125051743Y-78077101D01*
X124968081Y-77935635D01*
X124851865Y-77819419D01*
X124833370Y-77808481D01*
X124710397Y-77735755D01*
X124552572Y-77689902D01*
X124530444Y-77688160D01*
X124515694Y-77687000D01*
X124084306Y-77687000D01*
X124072014Y-77687967D01*
X124047427Y-77689902D01*
X123889602Y-77735755D01*
X123748134Y-77819419D01*
X123631919Y-77935634D01*
X123548255Y-78077102D01*
X123502402Y-78234927D01*
X123502402Y-78234931D01*
X123499500Y-78271806D01*
X123499500Y-79428194D01*
X123501434Y-79452777D01*
X123502402Y-79465070D01*
X123516850Y-79514799D01*
X123517748Y-79580735D01*
X123484718Y-79637807D01*
X123427101Y-79669877D01*
X123361190Y-79667875D01*
X123305625Y-79632368D01*
X123255870Y-79577111D01*
X123102730Y-79465848D01*
X122929802Y-79388855D01*
X122744648Y-79349500D01*
X122744646Y-79349500D01*
X122555354Y-79349500D01*
X122555352Y-79349500D01*
X122370197Y-79388855D01*
X122197271Y-79465847D01*
X122183550Y-79475817D01*
X122148982Y-79493431D01*
X122110663Y-79499500D01*
X119613706Y-79499500D01*
X119595736Y-79498191D01*
X119581853Y-79496157D01*
X119571977Y-79494711D01*
X119571976Y-79494711D01*
X119522634Y-79499028D01*
X119511827Y-79499500D01*
X119506289Y-79499500D01*
X119475487Y-79503099D01*
X119471906Y-79503465D01*
X119395952Y-79510111D01*
X119376926Y-79514329D01*
X119305245Y-79540417D01*
X119301842Y-79541600D01*
X119229474Y-79565580D01*
X119211927Y-79574076D01*
X119148236Y-79615965D01*
X119145196Y-79617902D01*
X119080280Y-79657943D01*
X119065165Y-79670255D01*
X119012848Y-79725708D01*
X119010336Y-79728294D01*
X118075451Y-80663181D01*
X118035223Y-80690061D01*
X117987770Y-80699500D01*
X111510148Y-80699500D01*
X111462695Y-80690061D01*
X111422467Y-80663181D01*
X111017061Y-80257775D01*
X110983681Y-80196932D01*
X110988220Y-80127683D01*
X111029256Y-80071718D01*
X111053282Y-80053282D01*
X111076624Y-80022862D01*
X111120156Y-79987136D01*
X111175000Y-79974348D01*
X111229844Y-79987136D01*
X111273375Y-80022861D01*
X111296718Y-80053282D01*
X111422159Y-80149536D01*
X111568238Y-80210044D01*
X111685639Y-80225500D01*
X111964360Y-80225499D01*
X111964362Y-80225499D01*
X112042627Y-80215195D01*
X112081762Y-80210044D01*
X112102546Y-80201434D01*
X112149998Y-80191995D01*
X112197452Y-80201434D01*
X112199607Y-80202326D01*
X112218238Y-80210044D01*
X112335639Y-80225500D01*
X112614360Y-80225499D01*
X112614362Y-80225499D01*
X112692627Y-80215195D01*
X112731762Y-80210044D01*
X112752546Y-80201434D01*
X112799998Y-80191995D01*
X112847452Y-80201434D01*
X112849607Y-80202326D01*
X112868238Y-80210044D01*
X112985639Y-80225500D01*
X113264360Y-80225499D01*
X113264362Y-80225499D01*
X113342627Y-80215195D01*
X113381762Y-80210044D01*
X113402546Y-80201434D01*
X113449998Y-80191995D01*
X113497452Y-80201434D01*
X113499607Y-80202326D01*
X113518238Y-80210044D01*
X113635639Y-80225500D01*
X113914360Y-80225499D01*
X113914362Y-80225499D01*
X113992627Y-80215195D01*
X114031762Y-80210044D01*
X114052546Y-80201434D01*
X114099998Y-80191995D01*
X114147452Y-80201434D01*
X114149607Y-80202326D01*
X114168238Y-80210044D01*
X114285639Y-80225500D01*
X114564360Y-80225499D01*
X114564362Y-80225499D01*
X114642627Y-80215195D01*
X114681762Y-80210044D01*
X114702546Y-80201434D01*
X114749998Y-80191995D01*
X114797452Y-80201434D01*
X114799607Y-80202326D01*
X114818238Y-80210044D01*
X114935639Y-80225500D01*
X115214360Y-80225499D01*
X115214362Y-80225499D01*
X115292627Y-80215195D01*
X115331762Y-80210044D01*
X115352546Y-80201434D01*
X115399998Y-80191995D01*
X115447452Y-80201434D01*
X115449607Y-80202326D01*
X115468238Y-80210044D01*
X115585639Y-80225500D01*
X115864360Y-80225499D01*
X115864362Y-80225499D01*
X115942627Y-80215195D01*
X115981762Y-80210044D01*
X116002546Y-80201434D01*
X116049998Y-80191995D01*
X116097452Y-80201434D01*
X116099607Y-80202326D01*
X116118238Y-80210044D01*
X116235639Y-80225500D01*
X116514360Y-80225499D01*
X116514362Y-80225499D01*
X116573060Y-80217771D01*
X116631762Y-80210044D01*
X116777841Y-80149536D01*
X116903282Y-80053282D01*
X116999536Y-79927841D01*
X117060044Y-79781762D01*
X117075500Y-79664361D01*
X117075499Y-78534410D01*
X117084938Y-78486958D01*
X117111815Y-78446733D01*
X118046730Y-77511819D01*
X118086959Y-77484939D01*
X118134412Y-77475500D01*
X121067256Y-77475500D01*
X121087762Y-77477764D01*
X121090665Y-77477672D01*
X121090667Y-77477673D01*
X121157872Y-77475561D01*
X121161768Y-77475500D01*
X121189349Y-77475500D01*
X121189350Y-77475500D01*
X121193319Y-77474998D01*
X121204965Y-77474080D01*
X121248627Y-77472709D01*
X121267859Y-77467120D01*
X121286918Y-77463174D01*
X121293196Y-77462381D01*
X121306792Y-77460664D01*
X121347407Y-77444582D01*
X121358444Y-77440803D01*
X121400390Y-77428618D01*
X121417629Y-77418422D01*
X121435102Y-77409862D01*
X121453732Y-77402486D01*
X121489064Y-77376814D01*
X121498830Y-77370400D01*
X121500622Y-77369340D01*
X121536420Y-77348170D01*
X121550585Y-77334004D01*
X121565373Y-77321373D01*
X121581587Y-77309594D01*
X121609438Y-77275926D01*
X121617279Y-77267309D01*
X123008788Y-75875800D01*
X123024885Y-75862906D01*
X123026873Y-75860787D01*
X123026877Y-75860786D01*
X123072948Y-75811723D01*
X123075566Y-75809023D01*
X123095120Y-75789471D01*
X123097581Y-75786298D01*
X123105156Y-75777427D01*
X123135062Y-75745582D01*
X123144712Y-75728027D01*
X123155400Y-75711757D01*
X123167671Y-75695938D01*
X123167673Y-75695936D01*
X123185026Y-75655832D01*
X123190157Y-75645362D01*
X123193924Y-75638510D01*
X123211197Y-75607092D01*
X123216175Y-75587699D01*
X123222481Y-75569282D01*
X123224254Y-75565186D01*
X123230438Y-75550896D01*
X123237272Y-75507745D01*
X123239635Y-75496331D01*
X123250500Y-75454019D01*
X123250500Y-75433984D01*
X123252027Y-75414585D01*
X123252610Y-75410903D01*
X123255160Y-75394804D01*
X123251050Y-75351325D01*
X123250500Y-75339656D01*
X123250500Y-73830692D01*
X123267275Y-73768411D01*
X123313063Y-73722982D01*
X123375474Y-73706696D01*
X123437621Y-73723960D01*
X123484602Y-73751744D01*
X123642427Y-73797597D01*
X123642431Y-73797598D01*
X123679306Y-73800500D01*
X124110692Y-73800500D01*
X124110694Y-73800500D01*
X124147569Y-73797598D01*
X124305398Y-73751744D01*
X124446865Y-73668081D01*
X124563081Y-73551865D01*
X124646744Y-73410398D01*
X124692598Y-73252569D01*
X124695500Y-73215694D01*
X124695500Y-73149500D01*
X124712113Y-73087500D01*
X124757500Y-73042113D01*
X124819500Y-73025500D01*
X124863480Y-73025500D01*
X124910933Y-73034939D01*
X124951161Y-73061819D01*
X125044813Y-73155471D01*
X125044815Y-73155472D01*
X125190394Y-73243478D01*
X125352804Y-73294086D01*
X125399857Y-73298361D01*
X125423383Y-73300500D01*
X125423384Y-73300500D01*
X126086616Y-73300500D01*
X126086617Y-73300500D01*
X126104261Y-73298896D01*
X126157196Y-73294086D01*
X126319606Y-73243478D01*
X126465185Y-73155472D01*
X126585472Y-73035185D01*
X126673478Y-72889606D01*
X126724086Y-72727196D01*
X126730500Y-72656616D01*
X126730500Y-72143384D01*
X126724086Y-72072804D01*
X126673478Y-71910394D01*
X126585472Y-71764815D01*
X126585471Y-71764813D01*
X126465186Y-71644528D01*
X126377179Y-71591326D01*
X126319606Y-71556522D01*
X126157196Y-71505914D01*
X126157193Y-71505913D01*
X126086617Y-71499500D01*
X126086616Y-71499500D01*
X125423384Y-71499500D01*
X125423383Y-71499500D01*
X125352806Y-71505913D01*
X125299798Y-71522431D01*
X125190394Y-71556522D01*
X125190392Y-71556522D01*
X125190392Y-71556523D01*
X125044813Y-71644528D01*
X124951161Y-71738181D01*
X124910933Y-71765061D01*
X124863480Y-71774500D01*
X124819500Y-71774500D01*
X124757500Y-71757887D01*
X124712113Y-71712500D01*
X124695500Y-71650500D01*
X124695500Y-71434308D01*
X124694595Y-71422806D01*
X124692598Y-71397431D01*
X124646744Y-71239602D01*
X124563081Y-71098135D01*
X124446865Y-70981919D01*
X124397242Y-70952572D01*
X124305397Y-70898255D01*
X124147572Y-70852402D01*
X124125444Y-70850660D01*
X124110694Y-70849500D01*
X123679306Y-70849500D01*
X123667014Y-70850467D01*
X123642427Y-70852402D01*
X123484602Y-70898255D01*
X123329652Y-70989893D01*
X123328721Y-70988319D01*
X123292094Y-71009467D01*
X123227906Y-71009467D01*
X123191278Y-70988319D01*
X123190348Y-70989893D01*
X123035397Y-70898255D01*
X122877572Y-70852402D01*
X122855444Y-70850660D01*
X122840694Y-70849500D01*
X122409306Y-70849500D01*
X122397014Y-70850467D01*
X122372427Y-70852402D01*
X122214602Y-70898255D01*
X122059652Y-70989893D01*
X122058721Y-70988319D01*
X122022094Y-71009467D01*
X121957906Y-71009467D01*
X121921278Y-70988319D01*
X121920348Y-70989893D01*
X121765397Y-70898255D01*
X121607572Y-70852402D01*
X121585444Y-70850660D01*
X121570694Y-70849500D01*
X121139306Y-70849500D01*
X121127014Y-70850467D01*
X121102427Y-70852402D01*
X120944602Y-70898255D01*
X120803134Y-70981919D01*
X120686919Y-71098134D01*
X120603255Y-71239602D01*
X120557402Y-71397427D01*
X120554500Y-71434308D01*
X120554500Y-73215692D01*
X120557402Y-73252572D01*
X120603255Y-73410397D01*
X120686919Y-73551865D01*
X120693181Y-73558127D01*
X120720061Y-73598355D01*
X120729500Y-73645808D01*
X120729500Y-75134547D01*
X120720061Y-75182000D01*
X120693181Y-75222228D01*
X120527228Y-75388181D01*
X120487000Y-75415061D01*
X120439547Y-75424500D01*
X119608634Y-75424500D01*
X119552179Y-75410903D01*
X119508104Y-75373093D01*
X119486077Y-75319363D01*
X119490928Y-75261497D01*
X119520349Y-75172709D01*
X119524210Y-75134910D01*
X119530500Y-75073345D01*
X119530499Y-74476656D01*
X119522572Y-74399059D01*
X119520349Y-74377292D01*
X119494903Y-74300500D01*
X119467003Y-74216303D01*
X119458960Y-74203264D01*
X119440500Y-74138169D01*
X119440500Y-73998839D01*
X119441179Y-73985878D01*
X119442085Y-73977256D01*
X119455460Y-73850000D01*
X119441178Y-73714120D01*
X119440500Y-73701161D01*
X119440500Y-73645808D01*
X119449939Y-73598355D01*
X119476819Y-73558127D01*
X119479475Y-73555471D01*
X119483081Y-73551865D01*
X119566744Y-73410398D01*
X119612598Y-73252569D01*
X119615500Y-73215694D01*
X119615500Y-71434306D01*
X119612598Y-71397431D01*
X119566744Y-71239602D01*
X119483081Y-71098135D01*
X119366865Y-70981919D01*
X119317242Y-70952572D01*
X119225397Y-70898255D01*
X119067572Y-70852402D01*
X119045444Y-70850660D01*
X119030694Y-70849500D01*
X119030692Y-70849500D01*
X118885453Y-70849500D01*
X118838000Y-70840061D01*
X118797772Y-70813181D01*
X118625802Y-70641211D01*
X118612906Y-70625113D01*
X118561775Y-70577098D01*
X118558978Y-70574387D01*
X118539470Y-70554879D01*
X118536290Y-70552412D01*
X118527424Y-70544839D01*
X118495582Y-70514938D01*
X118478024Y-70505285D01*
X118461764Y-70494604D01*
X118445936Y-70482327D01*
X118405851Y-70464980D01*
X118395361Y-70459841D01*
X118357091Y-70438802D01*
X118337691Y-70433821D01*
X118319284Y-70427519D01*
X118300897Y-70419562D01*
X118257758Y-70412729D01*
X118246324Y-70410361D01*
X118204019Y-70399500D01*
X118183984Y-70399500D01*
X118164586Y-70397973D01*
X118157162Y-70396797D01*
X118144805Y-70394840D01*
X118144804Y-70394840D01*
X118111751Y-70397964D01*
X118101325Y-70398950D01*
X118089656Y-70399500D01*
X113907978Y-70399500D01*
X113843879Y-70381648D01*
X113843861Y-70381637D01*
X113843049Y-70381146D01*
X113799166Y-70335954D01*
X113783150Y-70275029D01*
X113799137Y-70214096D01*
X113842999Y-70168883D01*
X113865185Y-70155472D01*
X113985472Y-70035185D01*
X114073478Y-69889606D01*
X114124086Y-69727196D01*
X114130500Y-69656616D01*
X114130500Y-69143384D01*
X114124086Y-69072804D01*
X114073478Y-68910394D01*
X113985472Y-68764815D01*
X113985471Y-68764813D01*
X113865186Y-68644528D01*
X113777180Y-68591326D01*
X113719606Y-68556522D01*
X113557196Y-68505914D01*
X113557193Y-68505913D01*
X113486617Y-68499500D01*
X113486616Y-68499500D01*
X112823384Y-68499500D01*
X112823383Y-68499500D01*
X112752806Y-68505913D01*
X112671599Y-68531217D01*
X112590394Y-68556522D01*
X112590392Y-68556522D01*
X112590392Y-68556523D01*
X112444813Y-68644528D01*
X112324528Y-68764813D01*
X112272729Y-68850500D01*
X112236522Y-68910394D01*
X112217139Y-68972597D01*
X112185913Y-69072806D01*
X112179500Y-69143383D01*
X112179500Y-69439547D01*
X112170061Y-69487000D01*
X112143181Y-69527228D01*
X110816208Y-70854199D01*
X110800110Y-70867096D01*
X110752096Y-70918225D01*
X110749391Y-70921017D01*
X110729874Y-70940534D01*
X110727415Y-70943705D01*
X110719842Y-70952572D01*
X110689935Y-70984420D01*
X110680285Y-71001974D01*
X110669609Y-71018228D01*
X110657326Y-71034064D01*
X110652325Y-71045620D01*
X110608220Y-71098928D01*
X110542418Y-71120306D01*
X110475406Y-71103099D01*
X110378214Y-71045620D01*
X110340397Y-71023255D01*
X110182572Y-70977402D01*
X110160443Y-70975660D01*
X110145694Y-70974500D01*
X109714306Y-70974500D01*
X109702014Y-70975467D01*
X109677427Y-70977402D01*
X109519602Y-71023255D01*
X109364652Y-71114893D01*
X109363721Y-71113319D01*
X109327094Y-71134467D01*
X109262906Y-71134467D01*
X109226278Y-71113319D01*
X109225348Y-71114893D01*
X109205405Y-71103099D01*
X109172838Y-71083839D01*
X109070397Y-71023255D01*
X108912572Y-70977402D01*
X108890443Y-70975660D01*
X108875694Y-70974500D01*
X108444306Y-70974500D01*
X108432014Y-70975467D01*
X108407427Y-70977402D01*
X108249602Y-71023255D01*
X108108134Y-71106919D01*
X107991919Y-71223134D01*
X107908255Y-71364602D01*
X107862402Y-71522427D01*
X107859500Y-71559308D01*
X107859500Y-73340692D01*
X107862402Y-73377572D01*
X107908255Y-73535397D01*
X107991919Y-73676865D01*
X107998181Y-73683127D01*
X108025061Y-73723355D01*
X108034500Y-73770808D01*
X108034500Y-73977256D01*
X108032235Y-73997762D01*
X108034439Y-74067873D01*
X108034500Y-74071768D01*
X108034500Y-74099349D01*
X108035003Y-74103334D01*
X108035918Y-74114967D01*
X108037290Y-74158626D01*
X108042879Y-74177860D01*
X108046825Y-74196916D01*
X108049335Y-74216792D01*
X108065414Y-74257404D01*
X108069197Y-74268451D01*
X108081382Y-74310391D01*
X108091580Y-74327635D01*
X108100136Y-74345100D01*
X108107514Y-74363732D01*
X108107515Y-74363733D01*
X108133180Y-74399059D01*
X108139593Y-74408822D01*
X108161826Y-74446416D01*
X108161829Y-74446419D01*
X108161830Y-74446420D01*
X108175995Y-74460585D01*
X108188627Y-74475375D01*
X108200406Y-74491587D01*
X108234058Y-74519426D01*
X108242699Y-74527289D01*
X109378228Y-75662819D01*
X109408478Y-75712182D01*
X109413020Y-75769898D01*
X109390865Y-75823385D01*
X109346842Y-75860985D01*
X109290547Y-75874500D01*
X107759070Y-75874500D01*
X107693360Y-75855658D01*
X107647620Y-75804858D01*
X107635749Y-75737539D01*
X107636719Y-75728310D01*
X107655460Y-75550000D01*
X107635674Y-75361744D01*
X107600288Y-75252837D01*
X107577179Y-75181715D01*
X107482533Y-75017783D01*
X107355870Y-74877110D01*
X107326786Y-74855980D01*
X107314577Y-74845856D01*
X107274276Y-74807834D01*
X107271688Y-74805321D01*
X107166817Y-74700449D01*
X107139938Y-74660220D01*
X107130499Y-74612768D01*
X107130499Y-74476655D01*
X107120349Y-74377292D01*
X107067002Y-74216300D01*
X106977970Y-74071958D01*
X106916676Y-74010664D01*
X106858044Y-73952032D01*
X106858041Y-73952030D01*
X106847796Y-73941785D01*
X106849350Y-73940230D01*
X106821221Y-73910845D01*
X106805500Y-73850416D01*
X106805500Y-73681333D01*
X106822768Y-73618212D01*
X106871744Y-73535398D01*
X106917598Y-73377569D01*
X106920500Y-73340694D01*
X106920500Y-71559306D01*
X106917598Y-71522431D01*
X106871744Y-71364602D01*
X106788081Y-71223135D01*
X106671865Y-71106919D01*
X106660790Y-71095844D01*
X106663141Y-71093492D01*
X106639784Y-71070128D01*
X106618170Y-71033580D01*
X106604006Y-71019416D01*
X106591374Y-71004627D01*
X106579594Y-70988413D01*
X106579591Y-70988410D01*
X106579590Y-70988409D01*
X106545941Y-70960572D01*
X106537301Y-70952710D01*
X106350803Y-70766212D01*
X106337903Y-70750111D01*
X106286774Y-70702097D01*
X106283977Y-70699386D01*
X106264470Y-70679879D01*
X106261290Y-70677412D01*
X106252424Y-70669839D01*
X106220582Y-70639938D01*
X106203024Y-70630285D01*
X106186764Y-70619604D01*
X106170936Y-70607327D01*
X106130851Y-70589980D01*
X106120361Y-70584841D01*
X106082091Y-70563802D01*
X106062691Y-70558821D01*
X106044284Y-70552519D01*
X106025897Y-70544562D01*
X105982758Y-70537729D01*
X105971324Y-70535361D01*
X105929019Y-70524500D01*
X105908984Y-70524500D01*
X105889586Y-70522973D01*
X105882162Y-70521797D01*
X105869805Y-70519840D01*
X105869804Y-70519840D01*
X105843484Y-70522328D01*
X105826325Y-70523950D01*
X105814656Y-70524500D01*
X101037741Y-70524500D01*
X101017237Y-70522236D01*
X100947145Y-70524439D01*
X100943251Y-70524500D01*
X100915648Y-70524500D01*
X100911653Y-70525004D01*
X100900029Y-70525918D01*
X100856368Y-70527290D01*
X100837128Y-70532880D01*
X100818081Y-70536825D01*
X100798209Y-70539335D01*
X100757599Y-70555413D01*
X100746554Y-70559194D01*
X100704611Y-70571380D01*
X100687369Y-70581578D01*
X100669897Y-70590138D01*
X100651266Y-70597514D01*
X100615938Y-70623181D01*
X100606180Y-70629591D01*
X100568579Y-70651829D01*
X100554410Y-70665998D01*
X100539622Y-70678628D01*
X100523410Y-70690407D01*
X100495575Y-70724053D01*
X100487716Y-70732690D01*
X100407228Y-70813180D01*
X100366999Y-70840061D01*
X100319546Y-70849500D01*
X100023383Y-70849500D01*
X99952806Y-70855913D01*
X99871598Y-70881218D01*
X99790394Y-70906522D01*
X99790392Y-70906522D01*
X99790392Y-70906523D01*
X99644813Y-70994528D01*
X99524528Y-71114813D01*
X99436523Y-71260392D01*
X99385913Y-71422806D01*
X99379500Y-71493383D01*
X99379500Y-72006617D01*
X99385913Y-72077193D01*
X99385914Y-72077196D01*
X99436522Y-72239606D01*
X99436523Y-72239607D01*
X99524528Y-72385186D01*
X99626661Y-72487319D01*
X99658755Y-72542906D01*
X99658755Y-72607094D01*
X99626661Y-72662681D01*
X99524528Y-72764813D01*
X99436523Y-72910392D01*
X99385913Y-73072806D01*
X99379500Y-73143383D01*
X99379500Y-73656617D01*
X99385913Y-73727193D01*
X99385914Y-73727196D01*
X99436522Y-73889606D01*
X99458221Y-73925500D01*
X99524528Y-74035186D01*
X99644813Y-74155471D01*
X99644815Y-74155472D01*
X99790394Y-74243478D01*
X99952804Y-74294086D01*
X99999857Y-74298361D01*
X100023383Y-74300500D01*
X100023384Y-74300500D01*
X100686616Y-74300500D01*
X100686617Y-74300500D01*
X100704261Y-74298896D01*
X100757196Y-74294086D01*
X100919606Y-74243478D01*
X101065185Y-74155472D01*
X101111527Y-74109130D01*
X101158839Y-74061819D01*
X101199067Y-74034939D01*
X101246520Y-74025500D01*
X101277256Y-74025500D01*
X101297762Y-74027764D01*
X101300665Y-74027672D01*
X101300667Y-74027673D01*
X101367872Y-74025561D01*
X101371768Y-74025500D01*
X101399349Y-74025500D01*
X101399350Y-74025500D01*
X101403319Y-74024998D01*
X101414965Y-74024080D01*
X101458627Y-74022709D01*
X101477859Y-74017120D01*
X101496918Y-74013174D01*
X101503196Y-74012381D01*
X101516792Y-74010664D01*
X101557407Y-73994582D01*
X101568444Y-73990803D01*
X101610390Y-73978618D01*
X101627629Y-73968422D01*
X101645102Y-73959862D01*
X101663732Y-73952486D01*
X101699064Y-73926814D01*
X101708830Y-73920400D01*
X101746415Y-73898173D01*
X101746415Y-73898172D01*
X101746420Y-73898170D01*
X101748794Y-73895795D01*
X101794467Y-73866807D01*
X101848143Y-73860024D01*
X101899596Y-73876740D01*
X101899602Y-73876744D01*
X102000901Y-73906174D01*
X102057427Y-73922597D01*
X102057431Y-73922598D01*
X102094306Y-73925500D01*
X102525692Y-73925500D01*
X102525694Y-73925500D01*
X102562569Y-73922598D01*
X102720398Y-73876744D01*
X102837378Y-73807562D01*
X102899526Y-73790298D01*
X102961937Y-73806584D01*
X103007724Y-73852013D01*
X103024500Y-73914294D01*
X103024500Y-74967256D01*
X103022235Y-74987762D01*
X103024439Y-75057873D01*
X103024500Y-75061768D01*
X103024500Y-75089349D01*
X103025003Y-75093334D01*
X103025918Y-75104967D01*
X103027290Y-75148626D01*
X103032879Y-75167860D01*
X103036825Y-75186916D01*
X103039335Y-75206792D01*
X103055414Y-75247404D01*
X103059197Y-75258451D01*
X103071382Y-75300391D01*
X103081580Y-75317635D01*
X103090136Y-75335100D01*
X103097514Y-75353732D01*
X103103334Y-75361742D01*
X103123180Y-75389059D01*
X103129593Y-75398822D01*
X103151826Y-75436416D01*
X103151829Y-75436419D01*
X103151830Y-75436420D01*
X103165995Y-75450585D01*
X103178627Y-75465375D01*
X103190406Y-75481587D01*
X103224058Y-75509426D01*
X103232699Y-75517289D01*
X105049197Y-77333787D01*
X105062098Y-77349889D01*
X105064212Y-77351874D01*
X105064214Y-77351877D01*
X105099708Y-77385208D01*
X105113240Y-77397916D01*
X105116036Y-77400626D01*
X105135530Y-77420120D01*
X105138704Y-77422582D01*
X105147568Y-77430153D01*
X105179418Y-77460062D01*
X105185079Y-77463174D01*
X105196974Y-77469714D01*
X105213231Y-77480392D01*
X105229064Y-77492674D01*
X105245185Y-77499649D01*
X105269156Y-77510023D01*
X105279643Y-77515160D01*
X105317908Y-77536197D01*
X105337316Y-77541180D01*
X105355710Y-77547478D01*
X105374105Y-77555438D01*
X105417254Y-77562271D01*
X105428680Y-77564638D01*
X105444222Y-77568629D01*
X105470980Y-77575500D01*
X105470981Y-77575500D01*
X105491016Y-77575500D01*
X105510413Y-77577026D01*
X105530196Y-77580160D01*
X105573674Y-77576050D01*
X105585344Y-77575500D01*
X105886661Y-77575500D01*
X105942956Y-77589015D01*
X105986979Y-77626615D01*
X106009134Y-77680102D01*
X106004592Y-77737818D01*
X105964326Y-77861742D01*
X105944540Y-78050000D01*
X105964326Y-78238257D01*
X106022820Y-78418284D01*
X106117466Y-78582216D01*
X106244129Y-78722889D01*
X106397269Y-78834151D01*
X106570197Y-78911144D01*
X106755352Y-78950500D01*
X106755354Y-78950500D01*
X106944646Y-78950500D01*
X106944648Y-78950500D01*
X107129800Y-78911145D01*
X107129801Y-78911144D01*
X107129803Y-78911144D01*
X107211322Y-78874848D01*
X107259589Y-78864148D01*
X107308205Y-78873158D01*
X107334496Y-78890560D01*
X107334620Y-78890360D01*
X107491300Y-78987002D01*
X107491302Y-78987002D01*
X107491303Y-78987003D01*
X107652292Y-79040349D01*
X107751655Y-79050500D01*
X107887770Y-79050499D01*
X107935222Y-79059938D01*
X107975451Y-79086818D01*
X108324269Y-79435637D01*
X108336049Y-79449268D01*
X108350389Y-79468529D01*
X108388339Y-79500373D01*
X108396313Y-79507680D01*
X108400224Y-79511591D01*
X108418672Y-79526178D01*
X108424543Y-79530820D01*
X108427330Y-79533090D01*
X108484786Y-79581302D01*
X108484788Y-79581303D01*
X108485750Y-79582110D01*
X108502180Y-79592578D01*
X108503322Y-79593110D01*
X108503323Y-79593111D01*
X108571350Y-79624832D01*
X108574527Y-79626371D01*
X108637392Y-79657943D01*
X108642702Y-79660610D01*
X108661085Y-79666999D01*
X108662322Y-79667254D01*
X108662328Y-79667257D01*
X108735852Y-79682437D01*
X108739286Y-79683199D01*
X108785566Y-79694168D01*
X108813506Y-79700791D01*
X108832879Y-79702770D01*
X108834141Y-79702733D01*
X108834145Y-79702734D01*
X108906534Y-79700627D01*
X108909132Y-79700552D01*
X108912738Y-79700500D01*
X109073442Y-79700500D01*
X109120895Y-79709939D01*
X109161123Y-79736819D01*
X109188003Y-79777047D01*
X109250464Y-79927841D01*
X109346716Y-80053281D01*
X109350985Y-80056556D01*
X109386712Y-80100088D01*
X109399500Y-80154933D01*
X109399500Y-80388376D01*
X109398191Y-80406346D01*
X109394711Y-80430105D01*
X109399028Y-80479451D01*
X109399500Y-80490258D01*
X109399500Y-80495790D01*
X109403098Y-80526578D01*
X109403464Y-80530163D01*
X109410110Y-80606123D01*
X109414329Y-80625153D01*
X109414758Y-80626333D01*
X109414759Y-80626337D01*
X109440413Y-80696824D01*
X109441582Y-80700189D01*
X109465580Y-80772606D01*
X109474075Y-80790154D01*
X109515979Y-80853866D01*
X109517889Y-80856864D01*
X109557288Y-80920738D01*
X109557952Y-80921814D01*
X109570253Y-80936913D01*
X109625710Y-80989234D01*
X109628297Y-80991747D01*
X110572187Y-81935637D01*
X110583967Y-81949268D01*
X110598306Y-81968528D01*
X110598307Y-81968529D01*
X110598308Y-81968530D01*
X110636261Y-82000376D01*
X110644235Y-82007684D01*
X110648142Y-82011591D01*
X110672460Y-82030819D01*
X110675216Y-82033063D01*
X110732704Y-82081302D01*
X110732706Y-82081303D01*
X110733675Y-82082116D01*
X110750095Y-82092576D01*
X110751239Y-82093109D01*
X110751241Y-82093111D01*
X110819275Y-82124835D01*
X110822374Y-82126335D01*
X110889485Y-82160040D01*
X110890622Y-82160611D01*
X110909002Y-82166998D01*
X110910239Y-82167253D01*
X110910245Y-82167256D01*
X110983780Y-82182439D01*
X110987127Y-82183181D01*
X111060197Y-82200500D01*
X111060199Y-82200500D01*
X111061423Y-82200790D01*
X111080794Y-82202769D01*
X111082058Y-82202732D01*
X111082062Y-82202733D01*
X111157028Y-82200552D01*
X111160634Y-82200500D01*
X117709480Y-82200500D01*
X117765775Y-82214015D01*
X117809798Y-82251615D01*
X117831953Y-82305102D01*
X117827411Y-82362818D01*
X117797161Y-82412181D01*
X117719528Y-82489813D01*
X117631523Y-82635392D01*
X117580913Y-82797806D01*
X117574500Y-82868383D01*
X117574500Y-82900500D01*
X117557887Y-82962500D01*
X117512500Y-83007887D01*
X117450500Y-83024500D01*
X116831703Y-83024500D01*
X116811196Y-83022235D01*
X116741086Y-83024439D01*
X116737191Y-83024500D01*
X116709609Y-83024500D01*
X116705624Y-83025003D01*
X116693992Y-83025918D01*
X116650328Y-83027290D01*
X116631088Y-83032880D01*
X116612040Y-83036825D01*
X116592168Y-83039335D01*
X116551558Y-83055413D01*
X116540513Y-83059194D01*
X116498569Y-83071381D01*
X116481324Y-83081579D01*
X116463863Y-83090133D01*
X116445226Y-83097512D01*
X116409890Y-83123185D01*
X116400133Y-83129595D01*
X116362540Y-83151828D01*
X116354069Y-83160299D01*
X116348369Y-83165998D01*
X116333587Y-83178624D01*
X116324568Y-83185176D01*
X116317370Y-83190407D01*
X116289526Y-83224063D01*
X116281667Y-83232699D01*
X116062689Y-83451677D01*
X116014867Y-83481415D01*
X115958824Y-83486935D01*
X115864363Y-83474500D01*
X115585637Y-83474500D01*
X115468237Y-83489955D01*
X115447449Y-83498566D01*
X115399998Y-83508004D01*
X115352547Y-83498565D01*
X115331763Y-83489956D01*
X115214362Y-83474500D01*
X114935637Y-83474500D01*
X114818237Y-83489955D01*
X114797449Y-83498566D01*
X114749998Y-83508004D01*
X114702547Y-83498565D01*
X114681763Y-83489956D01*
X114564362Y-83474500D01*
X114285637Y-83474500D01*
X114168237Y-83489955D01*
X114147449Y-83498566D01*
X114099998Y-83508004D01*
X114052547Y-83498565D01*
X114031763Y-83489956D01*
X113914362Y-83474500D01*
X113635637Y-83474500D01*
X113518237Y-83489955D01*
X113497449Y-83498566D01*
X113449998Y-83508004D01*
X113402547Y-83498565D01*
X113381763Y-83489956D01*
X113264362Y-83474500D01*
X112985637Y-83474500D01*
X112868237Y-83489955D01*
X112847449Y-83498566D01*
X112799998Y-83508004D01*
X112752547Y-83498565D01*
X112731763Y-83489956D01*
X112614362Y-83474500D01*
X112335637Y-83474500D01*
X112218237Y-83489955D01*
X112197449Y-83498566D01*
X112149998Y-83508004D01*
X112102547Y-83498565D01*
X112081763Y-83489956D01*
X111964362Y-83474500D01*
X111685637Y-83474500D01*
X111568237Y-83489955D01*
X111547449Y-83498566D01*
X111499998Y-83508004D01*
X111452547Y-83498565D01*
X111431763Y-83489956D01*
X111314362Y-83474500D01*
X111035637Y-83474500D01*
X110918237Y-83489955D01*
X110897449Y-83498566D01*
X110849998Y-83508004D01*
X110802547Y-83498565D01*
X110781763Y-83489956D01*
X110664362Y-83474500D01*
X110664361Y-83474500D01*
X110642496Y-83474500D01*
X110583647Y-83459646D01*
X110538897Y-83418641D01*
X110514545Y-83381617D01*
X110508992Y-83373175D01*
X110507098Y-83370200D01*
X110467711Y-83306344D01*
X110467709Y-83306342D01*
X110467046Y-83305267D01*
X110454748Y-83290170D01*
X110399274Y-83237833D01*
X110396687Y-83235320D01*
X109825728Y-82664360D01*
X109813946Y-82650727D01*
X109799609Y-82631469D01*
X109761666Y-82599631D01*
X109753691Y-82592323D01*
X109749782Y-82588414D01*
X109749781Y-82588413D01*
X109749777Y-82588409D01*
X109725423Y-82569152D01*
X109722647Y-82566890D01*
X109664251Y-82517890D01*
X109647821Y-82507422D01*
X109578691Y-82475186D01*
X109575447Y-82473615D01*
X109507306Y-82439394D01*
X109488903Y-82432997D01*
X109414211Y-82417574D01*
X109410692Y-82416794D01*
X109336490Y-82399208D01*
X109317121Y-82397229D01*
X109240869Y-82399448D01*
X109237263Y-82399500D01*
X109079113Y-82399500D01*
X109028898Y-82388878D01*
X108987286Y-82358830D01*
X108969646Y-82328616D01*
X108969612Y-82328638D01*
X108872968Y-82171955D01*
X108753044Y-82052031D01*
X108608699Y-81962997D01*
X108447707Y-81909650D01*
X108353249Y-81900001D01*
X108348344Y-81899500D01*
X107751655Y-81899500D01*
X107652292Y-81909650D01*
X107491300Y-81962997D01*
X107346955Y-82052031D01*
X107335806Y-82063181D01*
X107295578Y-82090061D01*
X107248125Y-82099500D01*
X105812229Y-82099500D01*
X105764776Y-82090061D01*
X105724548Y-82063181D01*
X102591518Y-78930150D01*
X102567104Y-78895486D01*
X102555796Y-78854623D01*
X102553734Y-78833683D01*
X102536024Y-78653868D01*
X102478814Y-78465273D01*
X102385910Y-78291462D01*
X102260883Y-78139117D01*
X102108538Y-78014090D01*
X102017208Y-77965273D01*
X101934726Y-77921185D01*
X101746133Y-77863976D01*
X101545376Y-77844203D01*
X101504513Y-77832895D01*
X101469849Y-77808481D01*
X97636819Y-73975451D01*
X97609939Y-73935223D01*
X97600500Y-73887770D01*
X97600500Y-63229230D01*
X97609939Y-63181777D01*
X97636819Y-63141549D01*
X99132549Y-61645818D01*
X99172777Y-61618938D01*
X99220230Y-61609499D01*
X99923320Y-61609499D01*
X99978724Y-61622565D01*
X100022452Y-61659008D01*
X100045289Y-61711149D01*
X100054483Y-61761323D01*
X100055610Y-61768724D01*
X100062860Y-61828425D01*
X100066450Y-61837891D01*
X100072475Y-61859504D01*
X100077018Y-61884291D01*
X100074393Y-61884772D01*
X100079117Y-61906795D01*
X100079117Y-63518382D01*
X100078891Y-63525869D01*
X100075258Y-63585910D01*
X100086100Y-63645074D01*
X100087227Y-63652475D01*
X100094477Y-63712176D01*
X100098067Y-63721642D01*
X100104092Y-63743255D01*
X100105920Y-63753232D01*
X100130608Y-63808086D01*
X100133473Y-63815004D01*
X100154797Y-63871229D01*
X100154799Y-63871233D01*
X100160558Y-63879576D01*
X100171578Y-63899116D01*
X100175737Y-63908357D01*
X100212833Y-63955708D01*
X100217268Y-63961735D01*
X100251434Y-64011232D01*
X100296464Y-64051125D01*
X100301900Y-64056243D01*
X101808181Y-65562523D01*
X101835061Y-65602751D01*
X101844500Y-65650204D01*
X101844500Y-65984582D01*
X101838884Y-66021478D01*
X101822545Y-66055028D01*
X101819481Y-66059467D01*
X101816653Y-66063564D01*
X101812222Y-66069585D01*
X101775122Y-66116942D01*
X101770962Y-66126185D01*
X101759940Y-66145727D01*
X101745632Y-66166457D01*
X101743487Y-66164976D01*
X101731207Y-66183845D01*
X101641918Y-66273136D01*
X101558255Y-66414602D01*
X101512402Y-66572427D01*
X101509500Y-66609308D01*
X101509500Y-68390692D01*
X101512402Y-68427572D01*
X101558255Y-68585397D01*
X101587558Y-68634946D01*
X101641919Y-68726865D01*
X101758135Y-68843081D01*
X101871952Y-68910392D01*
X101899602Y-68926744D01*
X102057427Y-68972597D01*
X102057431Y-68972598D01*
X102094306Y-68975500D01*
X102525692Y-68975500D01*
X102525694Y-68975500D01*
X102562569Y-68972598D01*
X102720398Y-68926744D01*
X102861865Y-68843081D01*
X102861865Y-68843080D01*
X102875348Y-68835107D01*
X102876278Y-68836680D01*
X102912906Y-68815533D01*
X102977094Y-68815533D01*
X103013721Y-68836680D01*
X103014652Y-68835107D01*
X103169602Y-68926744D01*
X103327427Y-68972597D01*
X103327431Y-68972598D01*
X103364306Y-68975500D01*
X103795692Y-68975500D01*
X103795694Y-68975500D01*
X103832569Y-68972598D01*
X103990398Y-68926744D01*
X104131865Y-68843081D01*
X104131865Y-68843080D01*
X104145348Y-68835107D01*
X104146278Y-68836680D01*
X104182906Y-68815533D01*
X104247094Y-68815533D01*
X104283721Y-68836680D01*
X104284652Y-68835107D01*
X104439602Y-68926744D01*
X104597427Y-68972597D01*
X104597431Y-68972598D01*
X104634306Y-68975500D01*
X105065692Y-68975500D01*
X105065694Y-68975500D01*
X105102569Y-68972598D01*
X105260398Y-68926744D01*
X105401865Y-68843081D01*
X105401865Y-68843080D01*
X105415348Y-68835107D01*
X105416278Y-68836680D01*
X105452906Y-68815533D01*
X105517094Y-68815533D01*
X105553721Y-68836680D01*
X105554652Y-68835107D01*
X105709602Y-68926744D01*
X105867427Y-68972597D01*
X105867431Y-68972598D01*
X105904306Y-68975500D01*
X106335692Y-68975500D01*
X106335694Y-68975500D01*
X106372569Y-68972598D01*
X106530398Y-68926744D01*
X106671865Y-68843081D01*
X106671865Y-68843080D01*
X106685348Y-68835107D01*
X106686278Y-68836680D01*
X106722906Y-68815533D01*
X106787094Y-68815533D01*
X106823721Y-68836680D01*
X106824652Y-68835107D01*
X106979602Y-68926744D01*
X107137427Y-68972597D01*
X107137431Y-68972598D01*
X107174306Y-68975500D01*
X107605692Y-68975500D01*
X107605694Y-68975500D01*
X107642569Y-68972598D01*
X107800398Y-68926744D01*
X107941865Y-68843081D01*
X107941865Y-68843080D01*
X107955348Y-68835107D01*
X107956278Y-68836680D01*
X107992906Y-68815533D01*
X108057094Y-68815533D01*
X108093721Y-68836680D01*
X108094652Y-68835107D01*
X108249602Y-68926744D01*
X108407427Y-68972597D01*
X108407431Y-68972598D01*
X108444306Y-68975500D01*
X108875692Y-68975500D01*
X108875694Y-68975500D01*
X108912569Y-68972598D01*
X109070398Y-68926744D01*
X109211865Y-68843081D01*
X109211865Y-68843080D01*
X109225348Y-68835107D01*
X109226278Y-68836680D01*
X109262906Y-68815533D01*
X109327094Y-68815533D01*
X109363721Y-68836680D01*
X109364652Y-68835107D01*
X109519602Y-68926744D01*
X109677427Y-68972597D01*
X109677431Y-68972598D01*
X109714306Y-68975500D01*
X110145692Y-68975500D01*
X110145694Y-68975500D01*
X110182569Y-68972598D01*
X110340398Y-68926744D01*
X110481865Y-68843081D01*
X110481865Y-68843080D01*
X110495348Y-68835107D01*
X110496278Y-68836680D01*
X110532906Y-68815533D01*
X110597094Y-68815533D01*
X110633721Y-68836680D01*
X110634652Y-68835107D01*
X110789602Y-68926744D01*
X110947427Y-68972597D01*
X110947431Y-68972598D01*
X110984306Y-68975500D01*
X111415692Y-68975500D01*
X111415694Y-68975500D01*
X111452569Y-68972598D01*
X111610398Y-68926744D01*
X111751865Y-68843081D01*
X111868081Y-68726865D01*
X111951744Y-68585398D01*
X111997598Y-68427569D01*
X112000500Y-68390694D01*
X112000500Y-66609306D01*
X111997598Y-66572431D01*
X111951744Y-66414602D01*
X111868081Y-66273135D01*
X111854516Y-66259570D01*
X111826253Y-66215854D01*
X111826214Y-66215751D01*
X111824818Y-66212070D01*
X111822094Y-66208124D01*
X111819061Y-66203729D01*
X111808036Y-66184182D01*
X111804397Y-66176097D01*
X111803878Y-66174943D01*
X111797230Y-66166457D01*
X111766785Y-66127596D01*
X111762354Y-66121577D01*
X111728183Y-66072071D01*
X111719687Y-66064544D01*
X111707273Y-66053546D01*
X111676424Y-66011622D01*
X111665500Y-65960731D01*
X111665500Y-61732001D01*
X111665726Y-61724514D01*
X111667801Y-61690203D01*
X111669357Y-61664485D01*
X111658509Y-61605292D01*
X111657392Y-61597947D01*
X111650140Y-61538219D01*
X111646546Y-61528743D01*
X111640520Y-61507127D01*
X111638694Y-61497159D01*
X111631741Y-61481711D01*
X111619425Y-61454345D01*
X111608500Y-61403453D01*
X111608500Y-60258999D01*
X113342340Y-60258999D01*
X113362936Y-60494407D01*
X113387063Y-60584450D01*
X113424097Y-60722663D01*
X113523965Y-60936830D01*
X113659505Y-61130401D01*
X113826599Y-61297495D01*
X114020170Y-61433035D01*
X114234337Y-61532903D01*
X114462592Y-61594063D01*
X114698000Y-61614659D01*
X114933408Y-61594063D01*
X115161663Y-61532903D01*
X115253369Y-61490139D01*
X115320882Y-61479446D01*
X115383806Y-61506156D01*
X115423015Y-61562151D01*
X115426593Y-61630416D01*
X115393452Y-61690203D01*
X114762290Y-62321365D01*
X114756838Y-62326497D01*
X114711816Y-62366384D01*
X114677649Y-62415882D01*
X114673213Y-62421911D01*
X114636121Y-62469256D01*
X114631961Y-62478500D01*
X114620941Y-62498039D01*
X114615182Y-62506383D01*
X114593853Y-62562619D01*
X114590989Y-62569533D01*
X114566303Y-62624384D01*
X114564475Y-62634361D01*
X114558454Y-62655962D01*
X114554859Y-62665442D01*
X114547609Y-62725141D01*
X114546483Y-62732540D01*
X114535641Y-62791705D01*
X114539274Y-62851748D01*
X114539500Y-62859235D01*
X114539500Y-65849730D01*
X114528576Y-65900620D01*
X114497729Y-65942544D01*
X114476814Y-65961073D01*
X114442649Y-66010568D01*
X114438213Y-66016597D01*
X114401121Y-66063942D01*
X114396961Y-66073186D01*
X114385941Y-66092724D01*
X114378113Y-66104066D01*
X114363742Y-66121311D01*
X114336919Y-66148133D01*
X114253255Y-66289602D01*
X114207402Y-66447427D01*
X114204500Y-66484308D01*
X114204500Y-68265692D01*
X114207402Y-68302572D01*
X114253255Y-68460397D01*
X114280173Y-68505913D01*
X114336919Y-68601865D01*
X114453135Y-68718081D01*
X114566396Y-68785063D01*
X114594602Y-68801744D01*
X114752427Y-68847597D01*
X114752431Y-68847598D01*
X114789306Y-68850500D01*
X115220692Y-68850500D01*
X115220694Y-68850500D01*
X115257569Y-68847598D01*
X115415398Y-68801744D01*
X115556865Y-68718081D01*
X115556865Y-68718080D01*
X115570348Y-68710107D01*
X115571278Y-68711680D01*
X115607906Y-68690533D01*
X115672094Y-68690533D01*
X115708721Y-68711680D01*
X115709652Y-68710107D01*
X115864602Y-68801744D01*
X116022427Y-68847597D01*
X116022431Y-68847598D01*
X116059306Y-68850500D01*
X116490692Y-68850500D01*
X116490694Y-68850500D01*
X116527569Y-68847598D01*
X116685398Y-68801744D01*
X116826865Y-68718081D01*
X116826865Y-68718080D01*
X116840348Y-68710107D01*
X116841278Y-68711680D01*
X116877906Y-68690533D01*
X116942094Y-68690533D01*
X116978721Y-68711680D01*
X116979652Y-68710107D01*
X117134602Y-68801744D01*
X117292427Y-68847597D01*
X117292431Y-68847598D01*
X117329306Y-68850500D01*
X117760692Y-68850500D01*
X117760694Y-68850500D01*
X117797569Y-68847598D01*
X117955398Y-68801744D01*
X118096865Y-68718081D01*
X118096865Y-68718080D01*
X118110348Y-68710107D01*
X118111278Y-68711680D01*
X118147906Y-68690533D01*
X118212094Y-68690533D01*
X118248721Y-68711680D01*
X118249652Y-68710107D01*
X118404602Y-68801744D01*
X118562427Y-68847597D01*
X118562431Y-68847598D01*
X118599306Y-68850500D01*
X119030692Y-68850500D01*
X119030694Y-68850500D01*
X119067569Y-68847598D01*
X119225398Y-68801744D01*
X119366865Y-68718081D01*
X119366865Y-68718080D01*
X119380348Y-68710107D01*
X119381278Y-68711680D01*
X119417906Y-68690533D01*
X119482094Y-68690533D01*
X119518721Y-68711680D01*
X119519652Y-68710107D01*
X119674602Y-68801744D01*
X119832427Y-68847597D01*
X119832431Y-68847598D01*
X119869306Y-68850500D01*
X120300692Y-68850500D01*
X120300694Y-68850500D01*
X120337569Y-68847598D01*
X120495398Y-68801744D01*
X120636865Y-68718081D01*
X120636865Y-68718080D01*
X120650348Y-68710107D01*
X120651278Y-68711680D01*
X120687906Y-68690533D01*
X120752094Y-68690533D01*
X120788721Y-68711680D01*
X120789652Y-68710107D01*
X120944602Y-68801744D01*
X121102427Y-68847597D01*
X121102431Y-68847598D01*
X121139306Y-68850500D01*
X121570692Y-68850500D01*
X121570694Y-68850500D01*
X121607569Y-68847598D01*
X121765398Y-68801744D01*
X121906865Y-68718081D01*
X121906865Y-68718080D01*
X121920348Y-68710107D01*
X121921278Y-68711680D01*
X121957906Y-68690533D01*
X122022094Y-68690533D01*
X122058721Y-68711680D01*
X122059652Y-68710107D01*
X122214602Y-68801744D01*
X122372427Y-68847597D01*
X122372431Y-68847598D01*
X122409306Y-68850500D01*
X122840692Y-68850500D01*
X122840694Y-68850500D01*
X122877569Y-68847598D01*
X123035398Y-68801744D01*
X123176865Y-68718081D01*
X123176865Y-68718080D01*
X123190348Y-68710107D01*
X123191278Y-68711680D01*
X123227906Y-68690533D01*
X123292094Y-68690533D01*
X123328721Y-68711680D01*
X123329652Y-68710107D01*
X123484602Y-68801744D01*
X123642427Y-68847597D01*
X123642431Y-68847598D01*
X123679306Y-68850500D01*
X124110692Y-68850500D01*
X124110694Y-68850500D01*
X124147569Y-68847598D01*
X124305398Y-68801744D01*
X124446865Y-68718081D01*
X124563081Y-68601865D01*
X124646744Y-68460398D01*
X124692598Y-68302569D01*
X124695500Y-68265694D01*
X124695500Y-67449999D01*
X126094340Y-67449999D01*
X126114936Y-67685407D01*
X126176097Y-67913662D01*
X126176097Y-67913663D01*
X126275965Y-68127829D01*
X126411505Y-68321401D01*
X126578599Y-68488495D01*
X126772171Y-68624035D01*
X126986337Y-68723903D01*
X127139025Y-68764815D01*
X127214592Y-68785063D01*
X127391032Y-68800500D01*
X127391034Y-68800500D01*
X127508966Y-68800500D01*
X127508968Y-68800500D01*
X127626594Y-68790208D01*
X127685408Y-68785063D01*
X127913663Y-68723903D01*
X128127829Y-68624035D01*
X128321401Y-68488495D01*
X128488495Y-68321401D01*
X128624035Y-68127830D01*
X128723903Y-67913663D01*
X128785063Y-67685408D01*
X128805659Y-67450000D01*
X128785063Y-67214592D01*
X128723903Y-66986337D01*
X128624035Y-66772171D01*
X128488495Y-66578599D01*
X128321401Y-66411505D01*
X128127829Y-66275965D01*
X127913663Y-66176097D01*
X127877686Y-66166457D01*
X127685407Y-66114936D01*
X127508968Y-66099500D01*
X127508966Y-66099500D01*
X127391034Y-66099500D01*
X127391032Y-66099500D01*
X127214592Y-66114936D01*
X126986336Y-66176097D01*
X126772170Y-66275965D01*
X126578598Y-66411505D01*
X126411508Y-66578595D01*
X126411505Y-66578598D01*
X126411505Y-66578599D01*
X126390003Y-66609308D01*
X126275964Y-66772172D01*
X126176097Y-66986337D01*
X126114936Y-67214592D01*
X126094340Y-67449999D01*
X124695500Y-67449999D01*
X124695500Y-67432519D01*
X124704939Y-67385066D01*
X124731819Y-67344838D01*
X125304486Y-66772170D01*
X126135723Y-65940931D01*
X126141142Y-65935829D01*
X126186183Y-65895929D01*
X126220361Y-65846410D01*
X126224790Y-65840394D01*
X126261875Y-65793060D01*
X126261875Y-65793059D01*
X126261878Y-65793056D01*
X126266037Y-65783814D01*
X126277061Y-65764268D01*
X126282818Y-65755930D01*
X126304152Y-65699674D01*
X126306994Y-65692811D01*
X126331695Y-65637931D01*
X126333522Y-65627956D01*
X126339549Y-65606339D01*
X126343140Y-65596872D01*
X126350387Y-65537179D01*
X126351514Y-65529777D01*
X126353885Y-65516838D01*
X126362358Y-65470606D01*
X126358726Y-65410566D01*
X126358500Y-65403079D01*
X126358500Y-61568286D01*
X126367939Y-61520834D01*
X126394816Y-61480607D01*
X126585747Y-61289675D01*
X126591149Y-61284590D01*
X126636183Y-61244696D01*
X126670351Y-61195193D01*
X126674763Y-61189195D01*
X126711878Y-61141824D01*
X126716034Y-61132587D01*
X126727062Y-61113034D01*
X126732818Y-61104697D01*
X126754153Y-61048438D01*
X126756997Y-61041570D01*
X126781694Y-60986699D01*
X126783519Y-60976737D01*
X126789545Y-60955115D01*
X126793140Y-60945639D01*
X126800389Y-60885932D01*
X126801516Y-60878529D01*
X126812357Y-60819373D01*
X126808726Y-60759344D01*
X126808500Y-60751857D01*
X126808500Y-59766143D01*
X126808726Y-59758656D01*
X126808793Y-59757536D01*
X126812357Y-59698627D01*
X126801509Y-59639434D01*
X126800392Y-59632089D01*
X126793140Y-59572361D01*
X126789546Y-59562885D01*
X126783520Y-59541269D01*
X126781694Y-59531301D01*
X126756997Y-59476428D01*
X126754155Y-59469567D01*
X126732818Y-59413303D01*
X126727058Y-59404959D01*
X126716039Y-59385423D01*
X126711878Y-59376176D01*
X126708928Y-59372411D01*
X126674785Y-59328829D01*
X126670354Y-59322810D01*
X126636183Y-59273304D01*
X126591153Y-59233411D01*
X126585715Y-59228291D01*
X126394819Y-59037395D01*
X126367939Y-58997167D01*
X126358500Y-58949714D01*
X126358500Y-58543921D01*
X126358726Y-58536434D01*
X126360865Y-58501070D01*
X126362358Y-58476394D01*
X126351507Y-58417185D01*
X126350390Y-58409841D01*
X126343140Y-58350128D01*
X126339547Y-58340656D01*
X126333522Y-58319044D01*
X126331695Y-58309069D01*
X126307009Y-58254220D01*
X126304152Y-58247326D01*
X126282818Y-58191070D01*
X126282816Y-58191068D01*
X126282816Y-58191066D01*
X126277062Y-58182731D01*
X126266033Y-58163177D01*
X126261878Y-58153944D01*
X126224780Y-58106591D01*
X126220354Y-58100576D01*
X126205040Y-58078390D01*
X126184902Y-58029073D01*
X126187315Y-57975856D01*
X126193063Y-57954408D01*
X126213659Y-57719000D01*
X126193063Y-57483592D01*
X126131903Y-57255337D01*
X126032035Y-57041171D01*
X125896495Y-56847599D01*
X125729401Y-56680505D01*
X125535830Y-56544965D01*
X125321663Y-56445097D01*
X125260501Y-56428709D01*
X125093407Y-56383936D01*
X124858000Y-56363340D01*
X124622592Y-56383936D01*
X124394336Y-56445097D01*
X124180170Y-56544965D01*
X123986598Y-56680505D01*
X123819505Y-56847598D01*
X123689575Y-57033159D01*
X123645257Y-57072025D01*
X123588000Y-57086036D01*
X123530743Y-57072025D01*
X123486425Y-57033159D01*
X123356494Y-56847598D01*
X123189404Y-56680508D01*
X123189401Y-56680505D01*
X122995830Y-56544965D01*
X122781663Y-56445097D01*
X122720501Y-56428709D01*
X122553407Y-56383936D01*
X122318000Y-56363340D01*
X122082592Y-56383936D01*
X121854336Y-56445097D01*
X121640170Y-56544965D01*
X121446598Y-56680505D01*
X121279505Y-56847598D01*
X121149575Y-57033159D01*
X121105257Y-57072025D01*
X121048000Y-57086036D01*
X120990743Y-57072025D01*
X120946425Y-57033159D01*
X120816494Y-56847598D01*
X120649404Y-56680508D01*
X120649401Y-56680505D01*
X120455830Y-56544965D01*
X120241663Y-56445097D01*
X120180501Y-56428709D01*
X120013407Y-56383936D01*
X119778000Y-56363340D01*
X119542592Y-56383936D01*
X119314336Y-56445097D01*
X119100170Y-56544965D01*
X118906598Y-56680505D01*
X118739505Y-56847598D01*
X118609575Y-57033159D01*
X118565257Y-57072025D01*
X118508000Y-57086036D01*
X118450743Y-57072025D01*
X118406425Y-57033159D01*
X118276494Y-56847598D01*
X118109404Y-56680508D01*
X118109401Y-56680505D01*
X117915830Y-56544965D01*
X117701663Y-56445097D01*
X117640501Y-56428709D01*
X117473407Y-56383936D01*
X117238000Y-56363340D01*
X117002592Y-56383936D01*
X116774336Y-56445097D01*
X116560170Y-56544965D01*
X116366598Y-56680505D01*
X116199505Y-56847598D01*
X116069575Y-57033159D01*
X116025257Y-57072025D01*
X115968000Y-57086036D01*
X115910743Y-57072025D01*
X115866425Y-57033159D01*
X115736494Y-56847598D01*
X115569404Y-56680508D01*
X115569401Y-56680505D01*
X115375830Y-56544965D01*
X115161663Y-56445097D01*
X115100501Y-56428709D01*
X114933407Y-56383936D01*
X114698000Y-56363340D01*
X114462592Y-56383936D01*
X114234336Y-56445097D01*
X114020170Y-56544965D01*
X113826598Y-56680505D01*
X113659505Y-56847598D01*
X113523965Y-57041170D01*
X113424097Y-57255336D01*
X113362936Y-57483592D01*
X113342340Y-57719000D01*
X113362936Y-57954407D01*
X113399535Y-58090994D01*
X113424097Y-58182663D01*
X113523965Y-58396830D01*
X113659505Y-58590401D01*
X113826599Y-58757495D01*
X114012160Y-58887426D01*
X114051024Y-58931743D01*
X114065035Y-58989000D01*
X114051024Y-59046257D01*
X114012160Y-59090574D01*
X113869677Y-59190342D01*
X113826595Y-59220508D01*
X113659505Y-59387598D01*
X113523965Y-59581170D01*
X113424097Y-59795336D01*
X113362936Y-60023592D01*
X113342340Y-60258999D01*
X111608500Y-60258999D01*
X111608500Y-59033909D01*
X111608726Y-59026422D01*
X111610259Y-59001076D01*
X111612357Y-58966394D01*
X111601509Y-58907201D01*
X111600392Y-58899856D01*
X111593140Y-58840128D01*
X111593139Y-58840125D01*
X111589546Y-58830650D01*
X111583519Y-58809029D01*
X111581694Y-58799068D01*
X111557012Y-58744228D01*
X111554151Y-58737322D01*
X111532818Y-58681070D01*
X111527058Y-58672726D01*
X111516033Y-58653178D01*
X111511877Y-58643943D01*
X111474790Y-58596606D01*
X111470354Y-58590577D01*
X111469242Y-58588966D01*
X111436183Y-58541071D01*
X111391145Y-58501171D01*
X111385707Y-58496051D01*
X110980652Y-58090995D01*
X110948558Y-58035407D01*
X110948559Y-57971219D01*
X110953063Y-57954409D01*
X110973659Y-57719000D01*
X110953063Y-57483592D01*
X110891903Y-57255337D01*
X110792035Y-57041171D01*
X110656495Y-56847599D01*
X110489401Y-56680505D01*
X110295830Y-56544965D01*
X110081663Y-56445097D01*
X110020501Y-56428709D01*
X109853407Y-56383936D01*
X109618000Y-56363340D01*
X109382592Y-56383936D01*
X109154336Y-56445097D01*
X108940170Y-56544965D01*
X108746598Y-56680505D01*
X108579505Y-56847598D01*
X108449575Y-57033159D01*
X108405257Y-57072025D01*
X108348000Y-57086036D01*
X108290743Y-57072025D01*
X108246425Y-57033159D01*
X108116494Y-56847598D01*
X107949404Y-56680508D01*
X107949401Y-56680505D01*
X107755830Y-56544965D01*
X107541663Y-56445097D01*
X107480501Y-56428709D01*
X107313407Y-56383936D01*
X107078000Y-56363340D01*
X106842592Y-56383936D01*
X106614336Y-56445097D01*
X106400170Y-56544965D01*
X106206598Y-56680505D01*
X106039505Y-56847598D01*
X105909575Y-57033159D01*
X105865257Y-57072025D01*
X105808000Y-57086036D01*
X105750743Y-57072025D01*
X105706425Y-57033159D01*
X105576494Y-56847598D01*
X105409404Y-56680508D01*
X105409401Y-56680505D01*
X105215830Y-56544965D01*
X105001663Y-56445097D01*
X104940501Y-56428709D01*
X104773407Y-56383936D01*
X104538000Y-56363340D01*
X104302592Y-56383936D01*
X104074336Y-56445097D01*
X103860170Y-56544965D01*
X103666598Y-56680505D01*
X103499505Y-56847598D01*
X103369575Y-57033159D01*
X103325257Y-57072025D01*
X103268000Y-57086036D01*
X103210743Y-57072025D01*
X103166425Y-57033159D01*
X103036494Y-56847598D01*
X102869404Y-56680508D01*
X102869401Y-56680505D01*
X102675830Y-56544965D01*
X102461663Y-56445097D01*
X102400501Y-56428709D01*
X102233407Y-56383936D01*
X101998000Y-56363340D01*
X101762592Y-56383936D01*
X101534336Y-56445097D01*
X101320170Y-56544965D01*
X101126598Y-56680505D01*
X100959505Y-56847598D01*
X100823965Y-57041170D01*
X100724097Y-57255336D01*
X100662936Y-57483592D01*
X100642340Y-57718999D01*
X100662936Y-57954410D01*
X100667441Y-57971222D01*
X100667440Y-58035408D01*
X100635347Y-58090994D01*
X100270290Y-58456051D01*
X100264838Y-58461183D01*
X100219816Y-58501070D01*
X100185649Y-58550568D01*
X100181213Y-58556597D01*
X100144121Y-58603942D01*
X100139961Y-58613186D01*
X100128941Y-58632725D01*
X100123182Y-58641069D01*
X100101853Y-58697305D01*
X100098989Y-58704219D01*
X100074303Y-58759070D01*
X100072475Y-58769047D01*
X100066454Y-58790648D01*
X100057525Y-58814198D01*
X100057370Y-58814139D01*
X100041892Y-58854945D01*
X99997469Y-58894298D01*
X99939846Y-58908500D01*
X98807991Y-58908500D01*
X98705203Y-58919000D01*
X98538665Y-58974186D01*
X98389342Y-59066288D01*
X98265288Y-59190342D01*
X98173186Y-59339665D01*
X98118000Y-59506202D01*
X98107500Y-59608991D01*
X98107500Y-60496769D01*
X98098061Y-60544222D01*
X98071181Y-60584450D01*
X96364358Y-62291272D01*
X96350727Y-62303053D01*
X96331467Y-62317392D01*
X96299633Y-62355329D01*
X96292341Y-62363289D01*
X96288408Y-62367222D01*
X96269176Y-62391545D01*
X96266902Y-62394337D01*
X96217894Y-62452744D01*
X96207418Y-62469187D01*
X96175192Y-62538294D01*
X96173622Y-62541536D01*
X96139393Y-62609692D01*
X96132996Y-62628098D01*
X96117573Y-62702788D01*
X96116793Y-62706305D01*
X96099208Y-62780505D01*
X96097229Y-62799878D01*
X96099448Y-62876131D01*
X96099500Y-62879737D01*
X96099500Y-74186294D01*
X96098191Y-74204264D01*
X96094711Y-74228023D01*
X94000500Y-74228023D01*
X94000500Y-54374500D01*
X94017113Y-54312500D01*
X94062500Y-54267113D01*
X94124500Y-54250500D01*
X132424306Y-54250500D01*
X132486789Y-54267393D01*
G37*
G04 #@! TD.AperFunction*
G04 #@! TD*
M02*
