G04 #@! TF.GenerationSoftware,KiCad,Pcbnew,7.0.1*
G04 #@! TF.CreationDate,2023-03-16T04:22:28+02:00*
G04 #@! TF.ProjectId,connector-pcb,636f6e6e-6563-4746-9f72-2d7063622e6b,rev?*
G04 #@! TF.SameCoordinates,Original*
G04 #@! TF.FileFunction,Paste,Top*
G04 #@! TF.FilePolarity,Positive*
%FSLAX46Y46*%
G04 Gerber Fmt 4.6, Leading zero omitted, Abs format (unit mm)*
G04 Created by KiCad (PCBNEW 7.0.1) date 2023-03-16 04:22:28*
%MOMM*%
%LPD*%
G01*
G04 APERTURE LIST*
G04 Aperture macros list*
%AMRoundRect*
0 Rectangle with rounded corners*
0 $1 Rounding radius*
0 $2 $3 $4 $5 $6 $7 $8 $9 X,Y pos of 4 corners*
0 Add a 4 corners polygon primitive as box body*
4,1,4,$2,$3,$4,$5,$6,$7,$8,$9,$2,$3,0*
0 Add four circle primitives for the rounded corners*
1,1,$1+$1,$2,$3*
1,1,$1+$1,$4,$5*
1,1,$1+$1,$6,$7*
1,1,$1+$1,$8,$9*
0 Add four rect primitives between the rounded corners*
20,1,$1+$1,$2,$3,$4,$5,0*
20,1,$1+$1,$4,$5,$6,$7,0*
20,1,$1+$1,$6,$7,$8,$9,0*
20,1,$1+$1,$8,$9,$2,$3,0*%
G04 Aperture macros list end*
%ADD10RoundRect,0.112500X-0.112500X0.187500X-0.112500X-0.187500X0.112500X-0.187500X0.112500X0.187500X0*%
%ADD11RoundRect,0.200000X0.200000X0.275000X-0.200000X0.275000X-0.200000X-0.275000X0.200000X-0.275000X0*%
%ADD12RoundRect,0.218750X0.218750X0.256250X-0.218750X0.256250X-0.218750X-0.256250X0.218750X-0.256250X0*%
%ADD13RoundRect,0.218750X-0.256250X0.218750X-0.256250X-0.218750X0.256250X-0.218750X0.256250X0.218750X0*%
%ADD14RoundRect,0.200000X0.275000X-0.200000X0.275000X0.200000X-0.275000X0.200000X-0.275000X-0.200000X0*%
%ADD15RoundRect,0.200000X-0.200000X-0.275000X0.200000X-0.275000X0.200000X0.275000X-0.200000X0.275000X0*%
%ADD16RoundRect,0.225000X-0.250000X0.225000X-0.250000X-0.225000X0.250000X-0.225000X0.250000X0.225000X0*%
%ADD17RoundRect,0.200000X-0.275000X0.200000X-0.275000X-0.200000X0.275000X-0.200000X0.275000X0.200000X0*%
%ADD18RoundRect,0.150000X-0.150000X0.825000X-0.150000X-0.825000X0.150000X-0.825000X0.150000X0.825000X0*%
G04 APERTURE END LIST*
D10*
G04 #@! TO.C,D2*
X121000000Y-66950000D03*
X121000000Y-69050000D03*
G04 #@! TD*
D11*
G04 #@! TO.C,R13*
X88325000Y-89500000D03*
X86675000Y-89500000D03*
G04 #@! TD*
D12*
G04 #@! TO.C,D3*
X81787500Y-89500000D03*
X80212500Y-89500000D03*
G04 #@! TD*
D13*
G04 #@! TO.C,F1*
X119000000Y-55712500D03*
X119000000Y-57287500D03*
G04 #@! TD*
D14*
G04 #@! TO.C,R8*
X123000000Y-68825000D03*
X123000000Y-67175000D03*
G04 #@! TD*
D15*
G04 #@! TO.C,R10*
X76962500Y-89500000D03*
X78612500Y-89500000D03*
G04 #@! TD*
D14*
G04 #@! TO.C,R6*
X123500000Y-57325000D03*
X123500000Y-55675000D03*
G04 #@! TD*
D11*
G04 #@! TO.C,R14*
X85150000Y-89500000D03*
X83500000Y-89500000D03*
G04 #@! TD*
D16*
G04 #@! TO.C,C2*
X125000000Y-67225000D03*
X125000000Y-68775000D03*
G04 #@! TD*
D11*
G04 #@! TO.C,R23*
X114825000Y-89500000D03*
X113175000Y-89500000D03*
G04 #@! TD*
G04 #@! TO.C,R26*
X105325000Y-89500000D03*
X103675000Y-89500000D03*
G04 #@! TD*
D17*
G04 #@! TO.C,R5*
X122000000Y-55675000D03*
X122000000Y-57325000D03*
G04 #@! TD*
D11*
G04 #@! TO.C,R16*
X72150000Y-89500000D03*
X70500000Y-89500000D03*
G04 #@! TD*
G04 #@! TO.C,R20*
X130325000Y-89500000D03*
X128675000Y-89500000D03*
G04 #@! TD*
G04 #@! TO.C,R11*
X94825000Y-89500000D03*
X93175000Y-89500000D03*
G04 #@! TD*
G04 #@! TO.C,R18*
X65325000Y-89500000D03*
X63675000Y-89500000D03*
G04 #@! TD*
D14*
G04 #@! TO.C,R4*
X129000000Y-68825000D03*
X129000000Y-67175000D03*
G04 #@! TD*
D11*
G04 #@! TO.C,R25*
X108650000Y-89500000D03*
X107000000Y-89500000D03*
G04 #@! TD*
D14*
G04 #@! TO.C,R1*
X129500000Y-57325000D03*
X129500000Y-55675000D03*
G04 #@! TD*
D11*
G04 #@! TO.C,R12*
X91650000Y-89500000D03*
X90000000Y-89500000D03*
G04 #@! TD*
G04 #@! TO.C,R17*
X68825000Y-89500000D03*
X67175000Y-89500000D03*
G04 #@! TD*
G04 #@! TO.C,R19*
X133500000Y-89500000D03*
X131850000Y-89500000D03*
G04 #@! TD*
D17*
G04 #@! TO.C,R7*
X125000000Y-55675000D03*
X125000000Y-57325000D03*
G04 #@! TD*
D11*
G04 #@! TO.C,R15*
X75325000Y-89500000D03*
X73675000Y-89500000D03*
G04 #@! TD*
G04 #@! TO.C,R21*
X127150000Y-89500000D03*
X125500000Y-89500000D03*
G04 #@! TD*
D18*
G04 #@! TO.C,U1*
X130905000Y-59525000D03*
X129635000Y-59525000D03*
X128365000Y-59525000D03*
X127095000Y-59525000D03*
X127095000Y-64475000D03*
X128365000Y-64475000D03*
X129635000Y-64475000D03*
X130905000Y-64475000D03*
G04 #@! TD*
D14*
G04 #@! TO.C,R9*
X133000000Y-60825000D03*
X133000000Y-59175000D03*
G04 #@! TD*
D10*
G04 #@! TO.C,D1*
X127000000Y-66950000D03*
X127000000Y-69050000D03*
G04 #@! TD*
D18*
G04 #@! TO.C,U2*
X124905000Y-59525000D03*
X123635000Y-59525000D03*
X122365000Y-59525000D03*
X121095000Y-59525000D03*
X121095000Y-64475000D03*
X122365000Y-64475000D03*
X123635000Y-64475000D03*
X124905000Y-64475000D03*
G04 #@! TD*
D11*
G04 #@! TO.C,R22*
X124000000Y-89500000D03*
X122350000Y-89500000D03*
G04 #@! TD*
D17*
G04 #@! TO.C,R3*
X127500000Y-55675000D03*
X127500000Y-57325000D03*
G04 #@! TD*
D11*
G04 #@! TO.C,R24*
X111825000Y-89500000D03*
X110175000Y-89500000D03*
G04 #@! TD*
D16*
G04 #@! TO.C,C1*
X131000000Y-67225000D03*
X131000000Y-68775000D03*
G04 #@! TD*
D17*
G04 #@! TO.C,R2*
X131000000Y-55675000D03*
X131000000Y-57325000D03*
G04 #@! TD*
M02*
