G04 #@! TF.GenerationSoftware,KiCad,Pcbnew,7.0.1*
G04 #@! TF.CreationDate,2023-04-11T19:54:40+03:00*
G04 #@! TF.ProjectId,connector-pcb,636f6e6e-6563-4746-9f72-2d7063622e6b,rev?*
G04 #@! TF.SameCoordinates,Original*
G04 #@! TF.FileFunction,Soldermask,Bot*
G04 #@! TF.FilePolarity,Negative*
%FSLAX46Y46*%
G04 Gerber Fmt 4.6, Leading zero omitted, Abs format (unit mm)*
G04 Created by KiCad (PCBNEW 7.0.1) date 2023-04-11 19:54:40*
%MOMM*%
%LPD*%
G01*
G04 APERTURE LIST*
G04 Aperture macros list*
%AMRoundRect*
0 Rectangle with rounded corners*
0 $1 Rounding radius*
0 $2 $3 $4 $5 $6 $7 $8 $9 X,Y pos of 4 corners*
0 Add a 4 corners polygon primitive as box body*
4,1,4,$2,$3,$4,$5,$6,$7,$8,$9,$2,$3,0*
0 Add four circle primitives for the rounded corners*
1,1,$1+$1,$2,$3*
1,1,$1+$1,$4,$5*
1,1,$1+$1,$6,$7*
1,1,$1+$1,$8,$9*
0 Add four rect primitives between the rounded corners*
20,1,$1+$1,$2,$3,$4,$5,0*
20,1,$1+$1,$4,$5,$6,$7,0*
20,1,$1+$1,$6,$7,$8,$9,0*
20,1,$1+$1,$8,$9,$2,$3,0*%
G04 Aperture macros list end*
%ADD10R,1.700000X1.700000*%
%ADD11O,1.700000X1.700000*%
%ADD12C,0.800000*%
%ADD13C,6.400000*%
%ADD14RoundRect,0.250000X0.600000X-0.600000X0.600000X0.600000X-0.600000X0.600000X-0.600000X-0.600000X0*%
%ADD15C,1.700000*%
G04 APERTURE END LIST*
D10*
G04 #@! TO.C,J1*
X130000000Y-53000000D03*
D11*
X130000000Y-50460000D03*
X127460000Y-53000000D03*
X127460000Y-50460000D03*
X124920000Y-53000000D03*
X124920000Y-50460000D03*
X122380000Y-53000000D03*
X122380000Y-50460000D03*
X119840000Y-53000000D03*
X119840000Y-50460000D03*
X117300000Y-53000000D03*
X117300000Y-50460000D03*
X114760000Y-53000000D03*
X114760000Y-50460000D03*
X112220000Y-53000000D03*
X112220000Y-50460000D03*
X109680000Y-53000000D03*
X109680000Y-50460000D03*
X107140000Y-53000000D03*
X107140000Y-50460000D03*
X104600000Y-53000000D03*
X104600000Y-50460000D03*
X102060000Y-53000000D03*
X102060000Y-50460000D03*
X99520000Y-53000000D03*
X99520000Y-50460000D03*
X96980000Y-53000000D03*
X96980000Y-50460000D03*
X94440000Y-53000000D03*
X94440000Y-50460000D03*
X91900000Y-53000000D03*
X91900000Y-50460000D03*
X89360000Y-53000000D03*
X89360000Y-50460000D03*
X86820000Y-53000000D03*
X86820000Y-50460000D03*
X84280000Y-53000000D03*
X84280000Y-50460000D03*
X81740000Y-53000000D03*
X81740000Y-50460000D03*
X79200000Y-53000000D03*
X79200000Y-50460000D03*
X76660000Y-53000000D03*
X76660000Y-50460000D03*
X74120000Y-53000000D03*
X74120000Y-50460000D03*
X71580000Y-53000000D03*
X71580000Y-50460000D03*
X69040000Y-53000000D03*
X69040000Y-50460000D03*
G04 #@! TD*
D12*
G04 #@! TO.C,H1*
X61600000Y-74000000D03*
X62302944Y-72302944D03*
X62302944Y-75697056D03*
X64000000Y-71600000D03*
D13*
X64000000Y-74000000D03*
D12*
X64000000Y-76400000D03*
X65697056Y-72302944D03*
X65697056Y-75697056D03*
X66400000Y-74000000D03*
G04 #@! TD*
D14*
G04 #@! TO.C,J3*
X105300000Y-84440000D03*
D15*
X105300000Y-81900000D03*
X107840000Y-84440000D03*
X107840000Y-81900000D03*
X110380000Y-84440000D03*
X110380000Y-81900000D03*
X112920000Y-84440000D03*
X112920000Y-81900000D03*
X115460000Y-84440000D03*
X115460000Y-81900000D03*
X118000000Y-84440000D03*
X118000000Y-81900000D03*
X120540000Y-84440000D03*
X120540000Y-81900000D03*
X123080000Y-84440000D03*
X123080000Y-81900000D03*
X125620000Y-84440000D03*
X125620000Y-81900000D03*
X128160000Y-84440000D03*
X128160000Y-81900000D03*
X130700000Y-84440000D03*
X130700000Y-81900000D03*
X133240000Y-84440000D03*
X133240000Y-81900000D03*
G04 #@! TD*
D12*
G04 #@! TO.C,H2*
X132600000Y-74000000D03*
X133302944Y-72302944D03*
X133302944Y-75697056D03*
X135000000Y-71600000D03*
D13*
X135000000Y-74000000D03*
D12*
X135000000Y-76400000D03*
X136697056Y-72302944D03*
X136697056Y-75697056D03*
X137400000Y-74000000D03*
G04 #@! TD*
D14*
G04 #@! TO.C,J2*
X65900000Y-84440000D03*
D15*
X65900000Y-81900000D03*
X68440000Y-84440000D03*
X68440000Y-81900000D03*
X70980000Y-84440000D03*
X70980000Y-81900000D03*
X73520000Y-84440000D03*
X73520000Y-81900000D03*
X76060000Y-84440000D03*
X76060000Y-81900000D03*
X78600000Y-84440000D03*
X78600000Y-81900000D03*
X81140000Y-84440000D03*
X81140000Y-81900000D03*
X83680000Y-84440000D03*
X83680000Y-81900000D03*
X86220000Y-84440000D03*
X86220000Y-81900000D03*
X88760000Y-84440000D03*
X88760000Y-81900000D03*
X91300000Y-84440000D03*
X91300000Y-81900000D03*
X93840000Y-84440000D03*
X93840000Y-81900000D03*
G04 #@! TD*
M02*
