G04 #@! TF.GenerationSoftware,KiCad,Pcbnew,7.0.1*
G04 #@! TF.CreationDate,2023-03-16T04:22:28+02:00*
G04 #@! TF.ProjectId,connector-pcb,636f6e6e-6563-4746-9f72-2d7063622e6b,rev?*
G04 #@! TF.SameCoordinates,Original*
G04 #@! TF.FileFunction,Legend,Top*
G04 #@! TF.FilePolarity,Positive*
%FSLAX46Y46*%
G04 Gerber Fmt 4.6, Leading zero omitted, Abs format (unit mm)*
G04 Created by KiCad (PCBNEW 7.0.1) date 2023-03-16 04:22:28*
%MOMM*%
%LPD*%
G01*
G04 APERTURE LIST*
%ADD10C,0.150000*%
%ADD11C,0.300000*%
%ADD12C,0.120000*%
G04 APERTURE END LIST*
D10*
X67238095Y-77877619D02*
X67238095Y-76877619D01*
X67238095Y-76877619D02*
X67476190Y-76877619D01*
X67476190Y-76877619D02*
X67619047Y-76925238D01*
X67619047Y-76925238D02*
X67714285Y-77020476D01*
X67714285Y-77020476D02*
X67761904Y-77115714D01*
X67761904Y-77115714D02*
X67809523Y-77306190D01*
X67809523Y-77306190D02*
X67809523Y-77449047D01*
X67809523Y-77449047D02*
X67761904Y-77639523D01*
X67761904Y-77639523D02*
X67714285Y-77734761D01*
X67714285Y-77734761D02*
X67619047Y-77830000D01*
X67619047Y-77830000D02*
X67476190Y-77877619D01*
X67476190Y-77877619D02*
X67238095Y-77877619D01*
X68142857Y-76877619D02*
X68809523Y-76877619D01*
X68809523Y-76877619D02*
X68380952Y-77877619D01*
D11*
X79757142Y-72416428D02*
X79757142Y-70916428D01*
X79757142Y-70916428D02*
X80257142Y-71987857D01*
X80257142Y-71987857D02*
X80757142Y-70916428D01*
X80757142Y-70916428D02*
X80757142Y-72416428D01*
X81400000Y-72345000D02*
X81614286Y-72416428D01*
X81614286Y-72416428D02*
X81971428Y-72416428D01*
X81971428Y-72416428D02*
X82114286Y-72345000D01*
X82114286Y-72345000D02*
X82185714Y-72273571D01*
X82185714Y-72273571D02*
X82257143Y-72130714D01*
X82257143Y-72130714D02*
X82257143Y-71987857D01*
X82257143Y-71987857D02*
X82185714Y-71845000D01*
X82185714Y-71845000D02*
X82114286Y-71773571D01*
X82114286Y-71773571D02*
X81971428Y-71702142D01*
X81971428Y-71702142D02*
X81685714Y-71630714D01*
X81685714Y-71630714D02*
X81542857Y-71559285D01*
X81542857Y-71559285D02*
X81471428Y-71487857D01*
X81471428Y-71487857D02*
X81400000Y-71345000D01*
X81400000Y-71345000D02*
X81400000Y-71202142D01*
X81400000Y-71202142D02*
X81471428Y-71059285D01*
X81471428Y-71059285D02*
X81542857Y-70987857D01*
X81542857Y-70987857D02*
X81685714Y-70916428D01*
X81685714Y-70916428D02*
X82042857Y-70916428D01*
X82042857Y-70916428D02*
X82257143Y-70987857D01*
X83185714Y-70916428D02*
X83471428Y-70916428D01*
X83471428Y-70916428D02*
X83614285Y-70987857D01*
X83614285Y-70987857D02*
X83757142Y-71130714D01*
X83757142Y-71130714D02*
X83828571Y-71416428D01*
X83828571Y-71416428D02*
X83828571Y-71916428D01*
X83828571Y-71916428D02*
X83757142Y-72202142D01*
X83757142Y-72202142D02*
X83614285Y-72345000D01*
X83614285Y-72345000D02*
X83471428Y-72416428D01*
X83471428Y-72416428D02*
X83185714Y-72416428D01*
X83185714Y-72416428D02*
X83042857Y-72345000D01*
X83042857Y-72345000D02*
X82899999Y-72202142D01*
X82899999Y-72202142D02*
X82828571Y-71916428D01*
X82828571Y-71916428D02*
X82828571Y-71416428D01*
X82828571Y-71416428D02*
X82899999Y-71130714D01*
X82899999Y-71130714D02*
X83042857Y-70987857D01*
X83042857Y-70987857D02*
X83185714Y-70916428D01*
X85185714Y-70916428D02*
X84471428Y-70916428D01*
X84471428Y-70916428D02*
X84400000Y-71630714D01*
X84400000Y-71630714D02*
X84471428Y-71559285D01*
X84471428Y-71559285D02*
X84614286Y-71487857D01*
X84614286Y-71487857D02*
X84971428Y-71487857D01*
X84971428Y-71487857D02*
X85114286Y-71559285D01*
X85114286Y-71559285D02*
X85185714Y-71630714D01*
X85185714Y-71630714D02*
X85257143Y-71773571D01*
X85257143Y-71773571D02*
X85257143Y-72130714D01*
X85257143Y-72130714D02*
X85185714Y-72273571D01*
X85185714Y-72273571D02*
X85114286Y-72345000D01*
X85114286Y-72345000D02*
X84971428Y-72416428D01*
X84971428Y-72416428D02*
X84614286Y-72416428D01*
X84614286Y-72416428D02*
X84471428Y-72345000D01*
X84471428Y-72345000D02*
X84400000Y-72273571D01*
X86185714Y-70916428D02*
X86328571Y-70916428D01*
X86328571Y-70916428D02*
X86471428Y-70987857D01*
X86471428Y-70987857D02*
X86542857Y-71059285D01*
X86542857Y-71059285D02*
X86614285Y-71202142D01*
X86614285Y-71202142D02*
X86685714Y-71487857D01*
X86685714Y-71487857D02*
X86685714Y-71845000D01*
X86685714Y-71845000D02*
X86614285Y-72130714D01*
X86614285Y-72130714D02*
X86542857Y-72273571D01*
X86542857Y-72273571D02*
X86471428Y-72345000D01*
X86471428Y-72345000D02*
X86328571Y-72416428D01*
X86328571Y-72416428D02*
X86185714Y-72416428D01*
X86185714Y-72416428D02*
X86042857Y-72345000D01*
X86042857Y-72345000D02*
X85971428Y-72273571D01*
X85971428Y-72273571D02*
X85899999Y-72130714D01*
X85899999Y-72130714D02*
X85828571Y-71845000D01*
X85828571Y-71845000D02*
X85828571Y-71487857D01*
X85828571Y-71487857D02*
X85899999Y-71202142D01*
X85899999Y-71202142D02*
X85971428Y-71059285D01*
X85971428Y-71059285D02*
X86042857Y-70987857D01*
X86042857Y-70987857D02*
X86185714Y-70916428D01*
X87614285Y-70916428D02*
X87757142Y-70916428D01*
X87757142Y-70916428D02*
X87899999Y-70987857D01*
X87899999Y-70987857D02*
X87971428Y-71059285D01*
X87971428Y-71059285D02*
X88042856Y-71202142D01*
X88042856Y-71202142D02*
X88114285Y-71487857D01*
X88114285Y-71487857D02*
X88114285Y-71845000D01*
X88114285Y-71845000D02*
X88042856Y-72130714D01*
X88042856Y-72130714D02*
X87971428Y-72273571D01*
X87971428Y-72273571D02*
X87899999Y-72345000D01*
X87899999Y-72345000D02*
X87757142Y-72416428D01*
X87757142Y-72416428D02*
X87614285Y-72416428D01*
X87614285Y-72416428D02*
X87471428Y-72345000D01*
X87471428Y-72345000D02*
X87399999Y-72273571D01*
X87399999Y-72273571D02*
X87328570Y-72130714D01*
X87328570Y-72130714D02*
X87257142Y-71845000D01*
X87257142Y-71845000D02*
X87257142Y-71487857D01*
X87257142Y-71487857D02*
X87328570Y-71202142D01*
X87328570Y-71202142D02*
X87399999Y-71059285D01*
X87399999Y-71059285D02*
X87471428Y-70987857D01*
X87471428Y-70987857D02*
X87614285Y-70916428D01*
X89042856Y-70916428D02*
X89185713Y-70916428D01*
X89185713Y-70916428D02*
X89328570Y-70987857D01*
X89328570Y-70987857D02*
X89399999Y-71059285D01*
X89399999Y-71059285D02*
X89471427Y-71202142D01*
X89471427Y-71202142D02*
X89542856Y-71487857D01*
X89542856Y-71487857D02*
X89542856Y-71845000D01*
X89542856Y-71845000D02*
X89471427Y-72130714D01*
X89471427Y-72130714D02*
X89399999Y-72273571D01*
X89399999Y-72273571D02*
X89328570Y-72345000D01*
X89328570Y-72345000D02*
X89185713Y-72416428D01*
X89185713Y-72416428D02*
X89042856Y-72416428D01*
X89042856Y-72416428D02*
X88899999Y-72345000D01*
X88899999Y-72345000D02*
X88828570Y-72273571D01*
X88828570Y-72273571D02*
X88757141Y-72130714D01*
X88757141Y-72130714D02*
X88685713Y-71845000D01*
X88685713Y-71845000D02*
X88685713Y-71487857D01*
X88685713Y-71487857D02*
X88757141Y-71202142D01*
X88757141Y-71202142D02*
X88828570Y-71059285D01*
X88828570Y-71059285D02*
X88899999Y-70987857D01*
X88899999Y-70987857D02*
X89042856Y-70916428D01*
X91542855Y-72416428D02*
X91399998Y-72345000D01*
X91399998Y-72345000D02*
X91328569Y-72202142D01*
X91328569Y-72202142D02*
X91328569Y-70916428D01*
X92328569Y-72416428D02*
X92185712Y-72345000D01*
X92185712Y-72345000D02*
X92114283Y-72273571D01*
X92114283Y-72273571D02*
X92042855Y-72130714D01*
X92042855Y-72130714D02*
X92042855Y-71702142D01*
X92042855Y-71702142D02*
X92114283Y-71559285D01*
X92114283Y-71559285D02*
X92185712Y-71487857D01*
X92185712Y-71487857D02*
X92328569Y-71416428D01*
X92328569Y-71416428D02*
X92542855Y-71416428D01*
X92542855Y-71416428D02*
X92685712Y-71487857D01*
X92685712Y-71487857D02*
X92757141Y-71559285D01*
X92757141Y-71559285D02*
X92828569Y-71702142D01*
X92828569Y-71702142D02*
X92828569Y-72130714D01*
X92828569Y-72130714D02*
X92757141Y-72273571D01*
X92757141Y-72273571D02*
X92685712Y-72345000D01*
X92685712Y-72345000D02*
X92542855Y-72416428D01*
X92542855Y-72416428D02*
X92328569Y-72416428D01*
X94114284Y-71416428D02*
X94114284Y-72630714D01*
X94114284Y-72630714D02*
X94042855Y-72773571D01*
X94042855Y-72773571D02*
X93971426Y-72845000D01*
X93971426Y-72845000D02*
X93828569Y-72916428D01*
X93828569Y-72916428D02*
X93614284Y-72916428D01*
X93614284Y-72916428D02*
X93471426Y-72845000D01*
X94114284Y-72345000D02*
X93971426Y-72416428D01*
X93971426Y-72416428D02*
X93685712Y-72416428D01*
X93685712Y-72416428D02*
X93542855Y-72345000D01*
X93542855Y-72345000D02*
X93471426Y-72273571D01*
X93471426Y-72273571D02*
X93399998Y-72130714D01*
X93399998Y-72130714D02*
X93399998Y-71702142D01*
X93399998Y-71702142D02*
X93471426Y-71559285D01*
X93471426Y-71559285D02*
X93542855Y-71487857D01*
X93542855Y-71487857D02*
X93685712Y-71416428D01*
X93685712Y-71416428D02*
X93971426Y-71416428D01*
X93971426Y-71416428D02*
X94114284Y-71487857D01*
X94828569Y-72416428D02*
X94828569Y-71416428D01*
X94828569Y-70916428D02*
X94757141Y-70987857D01*
X94757141Y-70987857D02*
X94828569Y-71059285D01*
X94828569Y-71059285D02*
X94899998Y-70987857D01*
X94899998Y-70987857D02*
X94828569Y-70916428D01*
X94828569Y-70916428D02*
X94828569Y-71059285D01*
X96185713Y-72345000D02*
X96042855Y-72416428D01*
X96042855Y-72416428D02*
X95757141Y-72416428D01*
X95757141Y-72416428D02*
X95614284Y-72345000D01*
X95614284Y-72345000D02*
X95542855Y-72273571D01*
X95542855Y-72273571D02*
X95471427Y-72130714D01*
X95471427Y-72130714D02*
X95471427Y-71702142D01*
X95471427Y-71702142D02*
X95542855Y-71559285D01*
X95542855Y-71559285D02*
X95614284Y-71487857D01*
X95614284Y-71487857D02*
X95757141Y-71416428D01*
X95757141Y-71416428D02*
X96042855Y-71416428D01*
X96042855Y-71416428D02*
X96185713Y-71487857D01*
X97971426Y-71416428D02*
X97971426Y-72916428D01*
X97971426Y-71487857D02*
X98114284Y-71416428D01*
X98114284Y-71416428D02*
X98399998Y-71416428D01*
X98399998Y-71416428D02*
X98542855Y-71487857D01*
X98542855Y-71487857D02*
X98614284Y-71559285D01*
X98614284Y-71559285D02*
X98685712Y-71702142D01*
X98685712Y-71702142D02*
X98685712Y-72130714D01*
X98685712Y-72130714D02*
X98614284Y-72273571D01*
X98614284Y-72273571D02*
X98542855Y-72345000D01*
X98542855Y-72345000D02*
X98399998Y-72416428D01*
X98399998Y-72416428D02*
X98114284Y-72416428D01*
X98114284Y-72416428D02*
X97971426Y-72345000D01*
X99328569Y-72416428D02*
X99328569Y-71416428D01*
X99328569Y-71702142D02*
X99399998Y-71559285D01*
X99399998Y-71559285D02*
X99471427Y-71487857D01*
X99471427Y-71487857D02*
X99614284Y-71416428D01*
X99614284Y-71416428D02*
X99757141Y-71416428D01*
X100471426Y-72416428D02*
X100328569Y-72345000D01*
X100328569Y-72345000D02*
X100257140Y-72273571D01*
X100257140Y-72273571D02*
X100185712Y-72130714D01*
X100185712Y-72130714D02*
X100185712Y-71702142D01*
X100185712Y-71702142D02*
X100257140Y-71559285D01*
X100257140Y-71559285D02*
X100328569Y-71487857D01*
X100328569Y-71487857D02*
X100471426Y-71416428D01*
X100471426Y-71416428D02*
X100685712Y-71416428D01*
X100685712Y-71416428D02*
X100828569Y-71487857D01*
X100828569Y-71487857D02*
X100899998Y-71559285D01*
X100899998Y-71559285D02*
X100971426Y-71702142D01*
X100971426Y-71702142D02*
X100971426Y-72130714D01*
X100971426Y-72130714D02*
X100899998Y-72273571D01*
X100899998Y-72273571D02*
X100828569Y-72345000D01*
X100828569Y-72345000D02*
X100685712Y-72416428D01*
X100685712Y-72416428D02*
X100471426Y-72416428D01*
X101614283Y-72416428D02*
X101614283Y-70916428D01*
X101614283Y-71487857D02*
X101757141Y-71416428D01*
X101757141Y-71416428D02*
X102042855Y-71416428D01*
X102042855Y-71416428D02*
X102185712Y-71487857D01*
X102185712Y-71487857D02*
X102257141Y-71559285D01*
X102257141Y-71559285D02*
X102328569Y-71702142D01*
X102328569Y-71702142D02*
X102328569Y-72130714D01*
X102328569Y-72130714D02*
X102257141Y-72273571D01*
X102257141Y-72273571D02*
X102185712Y-72345000D01*
X102185712Y-72345000D02*
X102042855Y-72416428D01*
X102042855Y-72416428D02*
X101757141Y-72416428D01*
X101757141Y-72416428D02*
X101614283Y-72345000D01*
X103542855Y-72345000D02*
X103399998Y-72416428D01*
X103399998Y-72416428D02*
X103114284Y-72416428D01*
X103114284Y-72416428D02*
X102971426Y-72345000D01*
X102971426Y-72345000D02*
X102899998Y-72202142D01*
X102899998Y-72202142D02*
X102899998Y-71630714D01*
X102899998Y-71630714D02*
X102971426Y-71487857D01*
X102971426Y-71487857D02*
X103114284Y-71416428D01*
X103114284Y-71416428D02*
X103399998Y-71416428D01*
X103399998Y-71416428D02*
X103542855Y-71487857D01*
X103542855Y-71487857D02*
X103614284Y-71630714D01*
X103614284Y-71630714D02*
X103614284Y-71773571D01*
X103614284Y-71773571D02*
X102899998Y-71916428D01*
X106042855Y-72345000D02*
X105899997Y-72416428D01*
X105899997Y-72416428D02*
X105614283Y-72416428D01*
X105614283Y-72416428D02*
X105471426Y-72345000D01*
X105471426Y-72345000D02*
X105399997Y-72273571D01*
X105399997Y-72273571D02*
X105328569Y-72130714D01*
X105328569Y-72130714D02*
X105328569Y-71702142D01*
X105328569Y-71702142D02*
X105399997Y-71559285D01*
X105399997Y-71559285D02*
X105471426Y-71487857D01*
X105471426Y-71487857D02*
X105614283Y-71416428D01*
X105614283Y-71416428D02*
X105899997Y-71416428D01*
X105899997Y-71416428D02*
X106042855Y-71487857D01*
X106899997Y-72416428D02*
X106757140Y-72345000D01*
X106757140Y-72345000D02*
X106685711Y-72273571D01*
X106685711Y-72273571D02*
X106614283Y-72130714D01*
X106614283Y-72130714D02*
X106614283Y-71702142D01*
X106614283Y-71702142D02*
X106685711Y-71559285D01*
X106685711Y-71559285D02*
X106757140Y-71487857D01*
X106757140Y-71487857D02*
X106899997Y-71416428D01*
X106899997Y-71416428D02*
X107114283Y-71416428D01*
X107114283Y-71416428D02*
X107257140Y-71487857D01*
X107257140Y-71487857D02*
X107328569Y-71559285D01*
X107328569Y-71559285D02*
X107399997Y-71702142D01*
X107399997Y-71702142D02*
X107399997Y-72130714D01*
X107399997Y-72130714D02*
X107328569Y-72273571D01*
X107328569Y-72273571D02*
X107257140Y-72345000D01*
X107257140Y-72345000D02*
X107114283Y-72416428D01*
X107114283Y-72416428D02*
X106899997Y-72416428D01*
X108042854Y-71416428D02*
X108042854Y-72416428D01*
X108042854Y-71559285D02*
X108114283Y-71487857D01*
X108114283Y-71487857D02*
X108257140Y-71416428D01*
X108257140Y-71416428D02*
X108471426Y-71416428D01*
X108471426Y-71416428D02*
X108614283Y-71487857D01*
X108614283Y-71487857D02*
X108685712Y-71630714D01*
X108685712Y-71630714D02*
X108685712Y-72416428D01*
X109399997Y-71416428D02*
X109399997Y-72416428D01*
X109399997Y-71559285D02*
X109471426Y-71487857D01*
X109471426Y-71487857D02*
X109614283Y-71416428D01*
X109614283Y-71416428D02*
X109828569Y-71416428D01*
X109828569Y-71416428D02*
X109971426Y-71487857D01*
X109971426Y-71487857D02*
X110042855Y-71630714D01*
X110042855Y-71630714D02*
X110042855Y-72416428D01*
X111328569Y-72345000D02*
X111185712Y-72416428D01*
X111185712Y-72416428D02*
X110899998Y-72416428D01*
X110899998Y-72416428D02*
X110757140Y-72345000D01*
X110757140Y-72345000D02*
X110685712Y-72202142D01*
X110685712Y-72202142D02*
X110685712Y-71630714D01*
X110685712Y-71630714D02*
X110757140Y-71487857D01*
X110757140Y-71487857D02*
X110899998Y-71416428D01*
X110899998Y-71416428D02*
X111185712Y-71416428D01*
X111185712Y-71416428D02*
X111328569Y-71487857D01*
X111328569Y-71487857D02*
X111399998Y-71630714D01*
X111399998Y-71630714D02*
X111399998Y-71773571D01*
X111399998Y-71773571D02*
X110685712Y-71916428D01*
X112685712Y-72345000D02*
X112542854Y-72416428D01*
X112542854Y-72416428D02*
X112257140Y-72416428D01*
X112257140Y-72416428D02*
X112114283Y-72345000D01*
X112114283Y-72345000D02*
X112042854Y-72273571D01*
X112042854Y-72273571D02*
X111971426Y-72130714D01*
X111971426Y-72130714D02*
X111971426Y-71702142D01*
X111971426Y-71702142D02*
X112042854Y-71559285D01*
X112042854Y-71559285D02*
X112114283Y-71487857D01*
X112114283Y-71487857D02*
X112257140Y-71416428D01*
X112257140Y-71416428D02*
X112542854Y-71416428D01*
X112542854Y-71416428D02*
X112685712Y-71487857D01*
X113114283Y-71416428D02*
X113685711Y-71416428D01*
X113328568Y-70916428D02*
X113328568Y-72202142D01*
X113328568Y-72202142D02*
X113399997Y-72345000D01*
X113399997Y-72345000D02*
X113542854Y-72416428D01*
X113542854Y-72416428D02*
X113685711Y-72416428D01*
X114399997Y-72416428D02*
X114257140Y-72345000D01*
X114257140Y-72345000D02*
X114185711Y-72273571D01*
X114185711Y-72273571D02*
X114114283Y-72130714D01*
X114114283Y-72130714D02*
X114114283Y-71702142D01*
X114114283Y-71702142D02*
X114185711Y-71559285D01*
X114185711Y-71559285D02*
X114257140Y-71487857D01*
X114257140Y-71487857D02*
X114399997Y-71416428D01*
X114399997Y-71416428D02*
X114614283Y-71416428D01*
X114614283Y-71416428D02*
X114757140Y-71487857D01*
X114757140Y-71487857D02*
X114828569Y-71559285D01*
X114828569Y-71559285D02*
X114899997Y-71702142D01*
X114899997Y-71702142D02*
X114899997Y-72130714D01*
X114899997Y-72130714D02*
X114828569Y-72273571D01*
X114828569Y-72273571D02*
X114757140Y-72345000D01*
X114757140Y-72345000D02*
X114614283Y-72416428D01*
X114614283Y-72416428D02*
X114399997Y-72416428D01*
X115542854Y-72416428D02*
X115542854Y-71416428D01*
X115542854Y-71702142D02*
X115614283Y-71559285D01*
X115614283Y-71559285D02*
X115685712Y-71487857D01*
X115685712Y-71487857D02*
X115828569Y-71416428D01*
X115828569Y-71416428D02*
X115971426Y-71416428D01*
X117614282Y-72416428D02*
X117614282Y-71416428D01*
X117614282Y-71702142D02*
X117685711Y-71559285D01*
X117685711Y-71559285D02*
X117757140Y-71487857D01*
X117757140Y-71487857D02*
X117899997Y-71416428D01*
X117899997Y-71416428D02*
X118042854Y-71416428D01*
X118828568Y-70916428D02*
X118971425Y-70916428D01*
X118971425Y-70916428D02*
X119114282Y-70987857D01*
X119114282Y-70987857D02*
X119185711Y-71059285D01*
X119185711Y-71059285D02*
X119257139Y-71202142D01*
X119257139Y-71202142D02*
X119328568Y-71487857D01*
X119328568Y-71487857D02*
X119328568Y-71845000D01*
X119328568Y-71845000D02*
X119257139Y-72130714D01*
X119257139Y-72130714D02*
X119185711Y-72273571D01*
X119185711Y-72273571D02*
X119114282Y-72345000D01*
X119114282Y-72345000D02*
X118971425Y-72416428D01*
X118971425Y-72416428D02*
X118828568Y-72416428D01*
X118828568Y-72416428D02*
X118685711Y-72345000D01*
X118685711Y-72345000D02*
X118614282Y-72273571D01*
X118614282Y-72273571D02*
X118542853Y-72130714D01*
X118542853Y-72130714D02*
X118471425Y-71845000D01*
X118471425Y-71845000D02*
X118471425Y-71487857D01*
X118471425Y-71487857D02*
X118542853Y-71202142D01*
X118542853Y-71202142D02*
X118614282Y-71059285D01*
X118614282Y-71059285D02*
X118685711Y-70987857D01*
X118685711Y-70987857D02*
X118828568Y-70916428D01*
D10*
X130238095Y-77877619D02*
X130238095Y-76877619D01*
X130238095Y-76877619D02*
X130476190Y-76877619D01*
X130476190Y-76877619D02*
X130619047Y-76925238D01*
X130619047Y-76925238D02*
X130714285Y-77020476D01*
X130714285Y-77020476D02*
X130761904Y-77115714D01*
X130761904Y-77115714D02*
X130809523Y-77306190D01*
X130809523Y-77306190D02*
X130809523Y-77449047D01*
X130809523Y-77449047D02*
X130761904Y-77639523D01*
X130761904Y-77639523D02*
X130714285Y-77734761D01*
X130714285Y-77734761D02*
X130619047Y-77830000D01*
X130619047Y-77830000D02*
X130476190Y-77877619D01*
X130476190Y-77877619D02*
X130238095Y-77877619D01*
X131380952Y-77306190D02*
X131285714Y-77258571D01*
X131285714Y-77258571D02*
X131238095Y-77210952D01*
X131238095Y-77210952D02*
X131190476Y-77115714D01*
X131190476Y-77115714D02*
X131190476Y-77068095D01*
X131190476Y-77068095D02*
X131238095Y-76972857D01*
X131238095Y-76972857D02*
X131285714Y-76925238D01*
X131285714Y-76925238D02*
X131380952Y-76877619D01*
X131380952Y-76877619D02*
X131571428Y-76877619D01*
X131571428Y-76877619D02*
X131666666Y-76925238D01*
X131666666Y-76925238D02*
X131714285Y-76972857D01*
X131714285Y-76972857D02*
X131761904Y-77068095D01*
X131761904Y-77068095D02*
X131761904Y-77115714D01*
X131761904Y-77115714D02*
X131714285Y-77210952D01*
X131714285Y-77210952D02*
X131666666Y-77258571D01*
X131666666Y-77258571D02*
X131571428Y-77306190D01*
X131571428Y-77306190D02*
X131380952Y-77306190D01*
X131380952Y-77306190D02*
X131285714Y-77353809D01*
X131285714Y-77353809D02*
X131238095Y-77401428D01*
X131238095Y-77401428D02*
X131190476Y-77496666D01*
X131190476Y-77496666D02*
X131190476Y-77687142D01*
X131190476Y-77687142D02*
X131238095Y-77782380D01*
X131238095Y-77782380D02*
X131285714Y-77830000D01*
X131285714Y-77830000D02*
X131380952Y-77877619D01*
X131380952Y-77877619D02*
X131571428Y-77877619D01*
X131571428Y-77877619D02*
X131666666Y-77830000D01*
X131666666Y-77830000D02*
X131714285Y-77782380D01*
X131714285Y-77782380D02*
X131761904Y-77687142D01*
X131761904Y-77687142D02*
X131761904Y-77496666D01*
X131761904Y-77496666D02*
X131714285Y-77401428D01*
X131714285Y-77401428D02*
X131666666Y-77353809D01*
X131666666Y-77353809D02*
X131571428Y-77306190D01*
X107238095Y-77877619D02*
X107238095Y-76877619D01*
X107238095Y-76877619D02*
X107476190Y-76877619D01*
X107476190Y-76877619D02*
X107619047Y-76925238D01*
X107619047Y-76925238D02*
X107714285Y-77020476D01*
X107714285Y-77020476D02*
X107761904Y-77115714D01*
X107761904Y-77115714D02*
X107809523Y-77306190D01*
X107809523Y-77306190D02*
X107809523Y-77449047D01*
X107809523Y-77449047D02*
X107761904Y-77639523D01*
X107761904Y-77639523D02*
X107714285Y-77734761D01*
X107714285Y-77734761D02*
X107619047Y-77830000D01*
X107619047Y-77830000D02*
X107476190Y-77877619D01*
X107476190Y-77877619D02*
X107238095Y-77877619D01*
X108761904Y-77877619D02*
X108190476Y-77877619D01*
X108476190Y-77877619D02*
X108476190Y-76877619D01*
X108476190Y-76877619D02*
X108380952Y-77020476D01*
X108380952Y-77020476D02*
X108285714Y-77115714D01*
X108285714Y-77115714D02*
X108190476Y-77163333D01*
X109666666Y-76877619D02*
X109190476Y-76877619D01*
X109190476Y-76877619D02*
X109142857Y-77353809D01*
X109142857Y-77353809D02*
X109190476Y-77306190D01*
X109190476Y-77306190D02*
X109285714Y-77258571D01*
X109285714Y-77258571D02*
X109523809Y-77258571D01*
X109523809Y-77258571D02*
X109619047Y-77306190D01*
X109619047Y-77306190D02*
X109666666Y-77353809D01*
X109666666Y-77353809D02*
X109714285Y-77449047D01*
X109714285Y-77449047D02*
X109714285Y-77687142D01*
X109714285Y-77687142D02*
X109666666Y-77782380D01*
X109666666Y-77782380D02*
X109619047Y-77830000D01*
X109619047Y-77830000D02*
X109523809Y-77877619D01*
X109523809Y-77877619D02*
X109285714Y-77877619D01*
X109285714Y-77877619D02*
X109190476Y-77830000D01*
X109190476Y-77830000D02*
X109142857Y-77782380D01*
X90238095Y-77877619D02*
X90238095Y-76877619D01*
X90238095Y-76877619D02*
X90476190Y-76877619D01*
X90476190Y-76877619D02*
X90619047Y-76925238D01*
X90619047Y-76925238D02*
X90714285Y-77020476D01*
X90714285Y-77020476D02*
X90761904Y-77115714D01*
X90761904Y-77115714D02*
X90809523Y-77306190D01*
X90809523Y-77306190D02*
X90809523Y-77449047D01*
X90809523Y-77449047D02*
X90761904Y-77639523D01*
X90761904Y-77639523D02*
X90714285Y-77734761D01*
X90714285Y-77734761D02*
X90619047Y-77830000D01*
X90619047Y-77830000D02*
X90476190Y-77877619D01*
X90476190Y-77877619D02*
X90238095Y-77877619D01*
X91428571Y-76877619D02*
X91523809Y-76877619D01*
X91523809Y-76877619D02*
X91619047Y-76925238D01*
X91619047Y-76925238D02*
X91666666Y-76972857D01*
X91666666Y-76972857D02*
X91714285Y-77068095D01*
X91714285Y-77068095D02*
X91761904Y-77258571D01*
X91761904Y-77258571D02*
X91761904Y-77496666D01*
X91761904Y-77496666D02*
X91714285Y-77687142D01*
X91714285Y-77687142D02*
X91666666Y-77782380D01*
X91666666Y-77782380D02*
X91619047Y-77830000D01*
X91619047Y-77830000D02*
X91523809Y-77877619D01*
X91523809Y-77877619D02*
X91428571Y-77877619D01*
X91428571Y-77877619D02*
X91333333Y-77830000D01*
X91333333Y-77830000D02*
X91285714Y-77782380D01*
X91285714Y-77782380D02*
X91238095Y-77687142D01*
X91238095Y-77687142D02*
X91190476Y-77496666D01*
X91190476Y-77496666D02*
X91190476Y-77258571D01*
X91190476Y-77258571D02*
X91238095Y-77068095D01*
X91238095Y-77068095D02*
X91285714Y-76972857D01*
X91285714Y-76972857D02*
X91333333Y-76925238D01*
X91333333Y-76925238D02*
X91428571Y-76877619D01*
G04 #@! TO.C,D2*
X121323833Y-71016666D02*
X120623833Y-71016666D01*
X120623833Y-71016666D02*
X120623833Y-70849999D01*
X120623833Y-70849999D02*
X120657166Y-70749999D01*
X120657166Y-70749999D02*
X120723833Y-70683333D01*
X120723833Y-70683333D02*
X120790500Y-70649999D01*
X120790500Y-70649999D02*
X120923833Y-70616666D01*
X120923833Y-70616666D02*
X121023833Y-70616666D01*
X121023833Y-70616666D02*
X121157166Y-70649999D01*
X121157166Y-70649999D02*
X121223833Y-70683333D01*
X121223833Y-70683333D02*
X121290500Y-70749999D01*
X121290500Y-70749999D02*
X121323833Y-70849999D01*
X121323833Y-70849999D02*
X121323833Y-71016666D01*
X120690500Y-70349999D02*
X120657166Y-70316666D01*
X120657166Y-70316666D02*
X120623833Y-70249999D01*
X120623833Y-70249999D02*
X120623833Y-70083333D01*
X120623833Y-70083333D02*
X120657166Y-70016666D01*
X120657166Y-70016666D02*
X120690500Y-69983333D01*
X120690500Y-69983333D02*
X120757166Y-69949999D01*
X120757166Y-69949999D02*
X120823833Y-69949999D01*
X120823833Y-69949999D02*
X120923833Y-69983333D01*
X120923833Y-69983333D02*
X121323833Y-70383333D01*
X121323833Y-70383333D02*
X121323833Y-69949999D01*
G04 #@! TO.C,R13*
X87049999Y-91253833D02*
X86816666Y-90920500D01*
X86649999Y-91253833D02*
X86649999Y-90553833D01*
X86649999Y-90553833D02*
X86916666Y-90553833D01*
X86916666Y-90553833D02*
X86983333Y-90587166D01*
X86983333Y-90587166D02*
X87016666Y-90620500D01*
X87016666Y-90620500D02*
X87049999Y-90687166D01*
X87049999Y-90687166D02*
X87049999Y-90787166D01*
X87049999Y-90787166D02*
X87016666Y-90853833D01*
X87016666Y-90853833D02*
X86983333Y-90887166D01*
X86983333Y-90887166D02*
X86916666Y-90920500D01*
X86916666Y-90920500D02*
X86649999Y-90920500D01*
X87716666Y-91253833D02*
X87316666Y-91253833D01*
X87516666Y-91253833D02*
X87516666Y-90553833D01*
X87516666Y-90553833D02*
X87449999Y-90653833D01*
X87449999Y-90653833D02*
X87383333Y-90720500D01*
X87383333Y-90720500D02*
X87316666Y-90753833D01*
X87950000Y-90553833D02*
X88383333Y-90553833D01*
X88383333Y-90553833D02*
X88150000Y-90820500D01*
X88150000Y-90820500D02*
X88250000Y-90820500D01*
X88250000Y-90820500D02*
X88316666Y-90853833D01*
X88316666Y-90853833D02*
X88350000Y-90887166D01*
X88350000Y-90887166D02*
X88383333Y-90953833D01*
X88383333Y-90953833D02*
X88383333Y-91120500D01*
X88383333Y-91120500D02*
X88350000Y-91187166D01*
X88350000Y-91187166D02*
X88316666Y-91220500D01*
X88316666Y-91220500D02*
X88250000Y-91253833D01*
X88250000Y-91253833D02*
X88050000Y-91253833D01*
X88050000Y-91253833D02*
X87983333Y-91220500D01*
X87983333Y-91220500D02*
X87950000Y-91187166D01*
G04 #@! TO.C,D3*
X80483333Y-91253833D02*
X80483333Y-90553833D01*
X80483333Y-90553833D02*
X80650000Y-90553833D01*
X80650000Y-90553833D02*
X80750000Y-90587166D01*
X80750000Y-90587166D02*
X80816667Y-90653833D01*
X80816667Y-90653833D02*
X80850000Y-90720500D01*
X80850000Y-90720500D02*
X80883333Y-90853833D01*
X80883333Y-90853833D02*
X80883333Y-90953833D01*
X80883333Y-90953833D02*
X80850000Y-91087166D01*
X80850000Y-91087166D02*
X80816667Y-91153833D01*
X80816667Y-91153833D02*
X80750000Y-91220500D01*
X80750000Y-91220500D02*
X80650000Y-91253833D01*
X80650000Y-91253833D02*
X80483333Y-91253833D01*
X81116667Y-90553833D02*
X81550000Y-90553833D01*
X81550000Y-90553833D02*
X81316667Y-90820500D01*
X81316667Y-90820500D02*
X81416667Y-90820500D01*
X81416667Y-90820500D02*
X81483333Y-90853833D01*
X81483333Y-90853833D02*
X81516667Y-90887166D01*
X81516667Y-90887166D02*
X81550000Y-90953833D01*
X81550000Y-90953833D02*
X81550000Y-91120500D01*
X81550000Y-91120500D02*
X81516667Y-91187166D01*
X81516667Y-91187166D02*
X81483333Y-91220500D01*
X81483333Y-91220500D02*
X81416667Y-91253833D01*
X81416667Y-91253833D02*
X81216667Y-91253833D01*
X81216667Y-91253833D02*
X81150000Y-91220500D01*
X81150000Y-91220500D02*
X81116667Y-91187166D01*
G04 #@! TO.C,F1*
X117457166Y-56733333D02*
X117457166Y-56966666D01*
X117823833Y-56966666D02*
X117123833Y-56966666D01*
X117123833Y-56966666D02*
X117123833Y-56633333D01*
X117823833Y-55999999D02*
X117823833Y-56399999D01*
X117823833Y-56199999D02*
X117123833Y-56199999D01*
X117123833Y-56199999D02*
X117223833Y-56266666D01*
X117223833Y-56266666D02*
X117290500Y-56333333D01*
X117290500Y-56333333D02*
X117323833Y-56399999D01*
G04 #@! TO.C,R8*
X123323833Y-70616666D02*
X122990500Y-70849999D01*
X123323833Y-71016666D02*
X122623833Y-71016666D01*
X122623833Y-71016666D02*
X122623833Y-70749999D01*
X122623833Y-70749999D02*
X122657166Y-70683333D01*
X122657166Y-70683333D02*
X122690500Y-70649999D01*
X122690500Y-70649999D02*
X122757166Y-70616666D01*
X122757166Y-70616666D02*
X122857166Y-70616666D01*
X122857166Y-70616666D02*
X122923833Y-70649999D01*
X122923833Y-70649999D02*
X122957166Y-70683333D01*
X122957166Y-70683333D02*
X122990500Y-70749999D01*
X122990500Y-70749999D02*
X122990500Y-71016666D01*
X122923833Y-70216666D02*
X122890500Y-70283333D01*
X122890500Y-70283333D02*
X122857166Y-70316666D01*
X122857166Y-70316666D02*
X122790500Y-70349999D01*
X122790500Y-70349999D02*
X122757166Y-70349999D01*
X122757166Y-70349999D02*
X122690500Y-70316666D01*
X122690500Y-70316666D02*
X122657166Y-70283333D01*
X122657166Y-70283333D02*
X122623833Y-70216666D01*
X122623833Y-70216666D02*
X122623833Y-70083333D01*
X122623833Y-70083333D02*
X122657166Y-70016666D01*
X122657166Y-70016666D02*
X122690500Y-69983333D01*
X122690500Y-69983333D02*
X122757166Y-69949999D01*
X122757166Y-69949999D02*
X122790500Y-69949999D01*
X122790500Y-69949999D02*
X122857166Y-69983333D01*
X122857166Y-69983333D02*
X122890500Y-70016666D01*
X122890500Y-70016666D02*
X122923833Y-70083333D01*
X122923833Y-70083333D02*
X122923833Y-70216666D01*
X122923833Y-70216666D02*
X122957166Y-70283333D01*
X122957166Y-70283333D02*
X122990500Y-70316666D01*
X122990500Y-70316666D02*
X123057166Y-70349999D01*
X123057166Y-70349999D02*
X123190500Y-70349999D01*
X123190500Y-70349999D02*
X123257166Y-70316666D01*
X123257166Y-70316666D02*
X123290500Y-70283333D01*
X123290500Y-70283333D02*
X123323833Y-70216666D01*
X123323833Y-70216666D02*
X123323833Y-70083333D01*
X123323833Y-70083333D02*
X123290500Y-70016666D01*
X123290500Y-70016666D02*
X123257166Y-69983333D01*
X123257166Y-69983333D02*
X123190500Y-69949999D01*
X123190500Y-69949999D02*
X123057166Y-69949999D01*
X123057166Y-69949999D02*
X122990500Y-69983333D01*
X122990500Y-69983333D02*
X122957166Y-70016666D01*
X122957166Y-70016666D02*
X122923833Y-70083333D01*
G04 #@! TO.C,R10*
X77337499Y-91323833D02*
X77104166Y-90990500D01*
X76937499Y-91323833D02*
X76937499Y-90623833D01*
X76937499Y-90623833D02*
X77204166Y-90623833D01*
X77204166Y-90623833D02*
X77270833Y-90657166D01*
X77270833Y-90657166D02*
X77304166Y-90690500D01*
X77304166Y-90690500D02*
X77337499Y-90757166D01*
X77337499Y-90757166D02*
X77337499Y-90857166D01*
X77337499Y-90857166D02*
X77304166Y-90923833D01*
X77304166Y-90923833D02*
X77270833Y-90957166D01*
X77270833Y-90957166D02*
X77204166Y-90990500D01*
X77204166Y-90990500D02*
X76937499Y-90990500D01*
X78004166Y-91323833D02*
X77604166Y-91323833D01*
X77804166Y-91323833D02*
X77804166Y-90623833D01*
X77804166Y-90623833D02*
X77737499Y-90723833D01*
X77737499Y-90723833D02*
X77670833Y-90790500D01*
X77670833Y-90790500D02*
X77604166Y-90823833D01*
X78437500Y-90623833D02*
X78504166Y-90623833D01*
X78504166Y-90623833D02*
X78570833Y-90657166D01*
X78570833Y-90657166D02*
X78604166Y-90690500D01*
X78604166Y-90690500D02*
X78637500Y-90757166D01*
X78637500Y-90757166D02*
X78670833Y-90890500D01*
X78670833Y-90890500D02*
X78670833Y-91057166D01*
X78670833Y-91057166D02*
X78637500Y-91190500D01*
X78637500Y-91190500D02*
X78604166Y-91257166D01*
X78604166Y-91257166D02*
X78570833Y-91290500D01*
X78570833Y-91290500D02*
X78504166Y-91323833D01*
X78504166Y-91323833D02*
X78437500Y-91323833D01*
X78437500Y-91323833D02*
X78370833Y-91290500D01*
X78370833Y-91290500D02*
X78337500Y-91257166D01*
X78337500Y-91257166D02*
X78304166Y-91190500D01*
X78304166Y-91190500D02*
X78270833Y-91057166D01*
X78270833Y-91057166D02*
X78270833Y-90890500D01*
X78270833Y-90890500D02*
X78304166Y-90757166D01*
X78304166Y-90757166D02*
X78337500Y-90690500D01*
X78337500Y-90690500D02*
X78370833Y-90657166D01*
X78370833Y-90657166D02*
X78437500Y-90623833D01*
G04 #@! TO.C,R6*
X123383333Y-54823833D02*
X123150000Y-54490500D01*
X122983333Y-54823833D02*
X122983333Y-54123833D01*
X122983333Y-54123833D02*
X123250000Y-54123833D01*
X123250000Y-54123833D02*
X123316667Y-54157166D01*
X123316667Y-54157166D02*
X123350000Y-54190500D01*
X123350000Y-54190500D02*
X123383333Y-54257166D01*
X123383333Y-54257166D02*
X123383333Y-54357166D01*
X123383333Y-54357166D02*
X123350000Y-54423833D01*
X123350000Y-54423833D02*
X123316667Y-54457166D01*
X123316667Y-54457166D02*
X123250000Y-54490500D01*
X123250000Y-54490500D02*
X122983333Y-54490500D01*
X123983333Y-54123833D02*
X123850000Y-54123833D01*
X123850000Y-54123833D02*
X123783333Y-54157166D01*
X123783333Y-54157166D02*
X123750000Y-54190500D01*
X123750000Y-54190500D02*
X123683333Y-54290500D01*
X123683333Y-54290500D02*
X123650000Y-54423833D01*
X123650000Y-54423833D02*
X123650000Y-54690500D01*
X123650000Y-54690500D02*
X123683333Y-54757166D01*
X123683333Y-54757166D02*
X123716667Y-54790500D01*
X123716667Y-54790500D02*
X123783333Y-54823833D01*
X123783333Y-54823833D02*
X123916667Y-54823833D01*
X123916667Y-54823833D02*
X123983333Y-54790500D01*
X123983333Y-54790500D02*
X124016667Y-54757166D01*
X124016667Y-54757166D02*
X124050000Y-54690500D01*
X124050000Y-54690500D02*
X124050000Y-54523833D01*
X124050000Y-54523833D02*
X124016667Y-54457166D01*
X124016667Y-54457166D02*
X123983333Y-54423833D01*
X123983333Y-54423833D02*
X123916667Y-54390500D01*
X123916667Y-54390500D02*
X123783333Y-54390500D01*
X123783333Y-54390500D02*
X123716667Y-54423833D01*
X123716667Y-54423833D02*
X123683333Y-54457166D01*
X123683333Y-54457166D02*
X123650000Y-54523833D01*
G04 #@! TO.C,R14*
X83874999Y-91253833D02*
X83641666Y-90920500D01*
X83474999Y-91253833D02*
X83474999Y-90553833D01*
X83474999Y-90553833D02*
X83741666Y-90553833D01*
X83741666Y-90553833D02*
X83808333Y-90587166D01*
X83808333Y-90587166D02*
X83841666Y-90620500D01*
X83841666Y-90620500D02*
X83874999Y-90687166D01*
X83874999Y-90687166D02*
X83874999Y-90787166D01*
X83874999Y-90787166D02*
X83841666Y-90853833D01*
X83841666Y-90853833D02*
X83808333Y-90887166D01*
X83808333Y-90887166D02*
X83741666Y-90920500D01*
X83741666Y-90920500D02*
X83474999Y-90920500D01*
X84541666Y-91253833D02*
X84141666Y-91253833D01*
X84341666Y-91253833D02*
X84341666Y-90553833D01*
X84341666Y-90553833D02*
X84274999Y-90653833D01*
X84274999Y-90653833D02*
X84208333Y-90720500D01*
X84208333Y-90720500D02*
X84141666Y-90753833D01*
X85141666Y-90787166D02*
X85141666Y-91253833D01*
X84975000Y-90520500D02*
X84808333Y-91020500D01*
X84808333Y-91020500D02*
X85241666Y-91020500D01*
G04 #@! TO.C,C2*
X125257166Y-70616666D02*
X125290500Y-70649999D01*
X125290500Y-70649999D02*
X125323833Y-70749999D01*
X125323833Y-70749999D02*
X125323833Y-70816666D01*
X125323833Y-70816666D02*
X125290500Y-70916666D01*
X125290500Y-70916666D02*
X125223833Y-70983333D01*
X125223833Y-70983333D02*
X125157166Y-71016666D01*
X125157166Y-71016666D02*
X125023833Y-71049999D01*
X125023833Y-71049999D02*
X124923833Y-71049999D01*
X124923833Y-71049999D02*
X124790500Y-71016666D01*
X124790500Y-71016666D02*
X124723833Y-70983333D01*
X124723833Y-70983333D02*
X124657166Y-70916666D01*
X124657166Y-70916666D02*
X124623833Y-70816666D01*
X124623833Y-70816666D02*
X124623833Y-70749999D01*
X124623833Y-70749999D02*
X124657166Y-70649999D01*
X124657166Y-70649999D02*
X124690500Y-70616666D01*
X124690500Y-70349999D02*
X124657166Y-70316666D01*
X124657166Y-70316666D02*
X124623833Y-70249999D01*
X124623833Y-70249999D02*
X124623833Y-70083333D01*
X124623833Y-70083333D02*
X124657166Y-70016666D01*
X124657166Y-70016666D02*
X124690500Y-69983333D01*
X124690500Y-69983333D02*
X124757166Y-69949999D01*
X124757166Y-69949999D02*
X124823833Y-69949999D01*
X124823833Y-69949999D02*
X124923833Y-69983333D01*
X124923833Y-69983333D02*
X125323833Y-70383333D01*
X125323833Y-70383333D02*
X125323833Y-69949999D01*
G04 #@! TO.C,R23*
X113549999Y-91253833D02*
X113316666Y-90920500D01*
X113149999Y-91253833D02*
X113149999Y-90553833D01*
X113149999Y-90553833D02*
X113416666Y-90553833D01*
X113416666Y-90553833D02*
X113483333Y-90587166D01*
X113483333Y-90587166D02*
X113516666Y-90620500D01*
X113516666Y-90620500D02*
X113549999Y-90687166D01*
X113549999Y-90687166D02*
X113549999Y-90787166D01*
X113549999Y-90787166D02*
X113516666Y-90853833D01*
X113516666Y-90853833D02*
X113483333Y-90887166D01*
X113483333Y-90887166D02*
X113416666Y-90920500D01*
X113416666Y-90920500D02*
X113149999Y-90920500D01*
X113816666Y-90620500D02*
X113849999Y-90587166D01*
X113849999Y-90587166D02*
X113916666Y-90553833D01*
X113916666Y-90553833D02*
X114083333Y-90553833D01*
X114083333Y-90553833D02*
X114149999Y-90587166D01*
X114149999Y-90587166D02*
X114183333Y-90620500D01*
X114183333Y-90620500D02*
X114216666Y-90687166D01*
X114216666Y-90687166D02*
X114216666Y-90753833D01*
X114216666Y-90753833D02*
X114183333Y-90853833D01*
X114183333Y-90853833D02*
X113783333Y-91253833D01*
X113783333Y-91253833D02*
X114216666Y-91253833D01*
X114450000Y-90553833D02*
X114883333Y-90553833D01*
X114883333Y-90553833D02*
X114650000Y-90820500D01*
X114650000Y-90820500D02*
X114750000Y-90820500D01*
X114750000Y-90820500D02*
X114816666Y-90853833D01*
X114816666Y-90853833D02*
X114850000Y-90887166D01*
X114850000Y-90887166D02*
X114883333Y-90953833D01*
X114883333Y-90953833D02*
X114883333Y-91120500D01*
X114883333Y-91120500D02*
X114850000Y-91187166D01*
X114850000Y-91187166D02*
X114816666Y-91220500D01*
X114816666Y-91220500D02*
X114750000Y-91253833D01*
X114750000Y-91253833D02*
X114550000Y-91253833D01*
X114550000Y-91253833D02*
X114483333Y-91220500D01*
X114483333Y-91220500D02*
X114450000Y-91187166D01*
G04 #@! TO.C,R26*
X104049999Y-91253833D02*
X103816666Y-90920500D01*
X103649999Y-91253833D02*
X103649999Y-90553833D01*
X103649999Y-90553833D02*
X103916666Y-90553833D01*
X103916666Y-90553833D02*
X103983333Y-90587166D01*
X103983333Y-90587166D02*
X104016666Y-90620500D01*
X104016666Y-90620500D02*
X104049999Y-90687166D01*
X104049999Y-90687166D02*
X104049999Y-90787166D01*
X104049999Y-90787166D02*
X104016666Y-90853833D01*
X104016666Y-90853833D02*
X103983333Y-90887166D01*
X103983333Y-90887166D02*
X103916666Y-90920500D01*
X103916666Y-90920500D02*
X103649999Y-90920500D01*
X104316666Y-90620500D02*
X104349999Y-90587166D01*
X104349999Y-90587166D02*
X104416666Y-90553833D01*
X104416666Y-90553833D02*
X104583333Y-90553833D01*
X104583333Y-90553833D02*
X104649999Y-90587166D01*
X104649999Y-90587166D02*
X104683333Y-90620500D01*
X104683333Y-90620500D02*
X104716666Y-90687166D01*
X104716666Y-90687166D02*
X104716666Y-90753833D01*
X104716666Y-90753833D02*
X104683333Y-90853833D01*
X104683333Y-90853833D02*
X104283333Y-91253833D01*
X104283333Y-91253833D02*
X104716666Y-91253833D01*
X105316666Y-90553833D02*
X105183333Y-90553833D01*
X105183333Y-90553833D02*
X105116666Y-90587166D01*
X105116666Y-90587166D02*
X105083333Y-90620500D01*
X105083333Y-90620500D02*
X105016666Y-90720500D01*
X105016666Y-90720500D02*
X104983333Y-90853833D01*
X104983333Y-90853833D02*
X104983333Y-91120500D01*
X104983333Y-91120500D02*
X105016666Y-91187166D01*
X105016666Y-91187166D02*
X105050000Y-91220500D01*
X105050000Y-91220500D02*
X105116666Y-91253833D01*
X105116666Y-91253833D02*
X105250000Y-91253833D01*
X105250000Y-91253833D02*
X105316666Y-91220500D01*
X105316666Y-91220500D02*
X105350000Y-91187166D01*
X105350000Y-91187166D02*
X105383333Y-91120500D01*
X105383333Y-91120500D02*
X105383333Y-90953833D01*
X105383333Y-90953833D02*
X105350000Y-90887166D01*
X105350000Y-90887166D02*
X105316666Y-90853833D01*
X105316666Y-90853833D02*
X105250000Y-90820500D01*
X105250000Y-90820500D02*
X105116666Y-90820500D01*
X105116666Y-90820500D02*
X105050000Y-90853833D01*
X105050000Y-90853833D02*
X105016666Y-90887166D01*
X105016666Y-90887166D02*
X104983333Y-90953833D01*
G04 #@! TO.C,R5*
X121883333Y-54823833D02*
X121650000Y-54490500D01*
X121483333Y-54823833D02*
X121483333Y-54123833D01*
X121483333Y-54123833D02*
X121750000Y-54123833D01*
X121750000Y-54123833D02*
X121816667Y-54157166D01*
X121816667Y-54157166D02*
X121850000Y-54190500D01*
X121850000Y-54190500D02*
X121883333Y-54257166D01*
X121883333Y-54257166D02*
X121883333Y-54357166D01*
X121883333Y-54357166D02*
X121850000Y-54423833D01*
X121850000Y-54423833D02*
X121816667Y-54457166D01*
X121816667Y-54457166D02*
X121750000Y-54490500D01*
X121750000Y-54490500D02*
X121483333Y-54490500D01*
X122516667Y-54123833D02*
X122183333Y-54123833D01*
X122183333Y-54123833D02*
X122150000Y-54457166D01*
X122150000Y-54457166D02*
X122183333Y-54423833D01*
X122183333Y-54423833D02*
X122250000Y-54390500D01*
X122250000Y-54390500D02*
X122416667Y-54390500D01*
X122416667Y-54390500D02*
X122483333Y-54423833D01*
X122483333Y-54423833D02*
X122516667Y-54457166D01*
X122516667Y-54457166D02*
X122550000Y-54523833D01*
X122550000Y-54523833D02*
X122550000Y-54690500D01*
X122550000Y-54690500D02*
X122516667Y-54757166D01*
X122516667Y-54757166D02*
X122483333Y-54790500D01*
X122483333Y-54790500D02*
X122416667Y-54823833D01*
X122416667Y-54823833D02*
X122250000Y-54823833D01*
X122250000Y-54823833D02*
X122183333Y-54790500D01*
X122183333Y-54790500D02*
X122150000Y-54757166D01*
G04 #@! TO.C,R16*
X70874999Y-91253833D02*
X70641666Y-90920500D01*
X70474999Y-91253833D02*
X70474999Y-90553833D01*
X70474999Y-90553833D02*
X70741666Y-90553833D01*
X70741666Y-90553833D02*
X70808333Y-90587166D01*
X70808333Y-90587166D02*
X70841666Y-90620500D01*
X70841666Y-90620500D02*
X70874999Y-90687166D01*
X70874999Y-90687166D02*
X70874999Y-90787166D01*
X70874999Y-90787166D02*
X70841666Y-90853833D01*
X70841666Y-90853833D02*
X70808333Y-90887166D01*
X70808333Y-90887166D02*
X70741666Y-90920500D01*
X70741666Y-90920500D02*
X70474999Y-90920500D01*
X71541666Y-91253833D02*
X71141666Y-91253833D01*
X71341666Y-91253833D02*
X71341666Y-90553833D01*
X71341666Y-90553833D02*
X71274999Y-90653833D01*
X71274999Y-90653833D02*
X71208333Y-90720500D01*
X71208333Y-90720500D02*
X71141666Y-90753833D01*
X72141666Y-90553833D02*
X72008333Y-90553833D01*
X72008333Y-90553833D02*
X71941666Y-90587166D01*
X71941666Y-90587166D02*
X71908333Y-90620500D01*
X71908333Y-90620500D02*
X71841666Y-90720500D01*
X71841666Y-90720500D02*
X71808333Y-90853833D01*
X71808333Y-90853833D02*
X71808333Y-91120500D01*
X71808333Y-91120500D02*
X71841666Y-91187166D01*
X71841666Y-91187166D02*
X71875000Y-91220500D01*
X71875000Y-91220500D02*
X71941666Y-91253833D01*
X71941666Y-91253833D02*
X72075000Y-91253833D01*
X72075000Y-91253833D02*
X72141666Y-91220500D01*
X72141666Y-91220500D02*
X72175000Y-91187166D01*
X72175000Y-91187166D02*
X72208333Y-91120500D01*
X72208333Y-91120500D02*
X72208333Y-90953833D01*
X72208333Y-90953833D02*
X72175000Y-90887166D01*
X72175000Y-90887166D02*
X72141666Y-90853833D01*
X72141666Y-90853833D02*
X72075000Y-90820500D01*
X72075000Y-90820500D02*
X71941666Y-90820500D01*
X71941666Y-90820500D02*
X71875000Y-90853833D01*
X71875000Y-90853833D02*
X71841666Y-90887166D01*
X71841666Y-90887166D02*
X71808333Y-90953833D01*
G04 #@! TO.C,J1*
X132536666Y-50623833D02*
X132536666Y-51123833D01*
X132536666Y-51123833D02*
X132503333Y-51223833D01*
X132503333Y-51223833D02*
X132436666Y-51290500D01*
X132436666Y-51290500D02*
X132336666Y-51323833D01*
X132336666Y-51323833D02*
X132270000Y-51323833D01*
X133236666Y-51323833D02*
X132836666Y-51323833D01*
X133036666Y-51323833D02*
X133036666Y-50623833D01*
X133036666Y-50623833D02*
X132969999Y-50723833D01*
X132969999Y-50723833D02*
X132903333Y-50790500D01*
X132903333Y-50790500D02*
X132836666Y-50823833D01*
G04 #@! TO.C,R20*
X129049999Y-91253833D02*
X128816666Y-90920500D01*
X128649999Y-91253833D02*
X128649999Y-90553833D01*
X128649999Y-90553833D02*
X128916666Y-90553833D01*
X128916666Y-90553833D02*
X128983333Y-90587166D01*
X128983333Y-90587166D02*
X129016666Y-90620500D01*
X129016666Y-90620500D02*
X129049999Y-90687166D01*
X129049999Y-90687166D02*
X129049999Y-90787166D01*
X129049999Y-90787166D02*
X129016666Y-90853833D01*
X129016666Y-90853833D02*
X128983333Y-90887166D01*
X128983333Y-90887166D02*
X128916666Y-90920500D01*
X128916666Y-90920500D02*
X128649999Y-90920500D01*
X129316666Y-90620500D02*
X129349999Y-90587166D01*
X129349999Y-90587166D02*
X129416666Y-90553833D01*
X129416666Y-90553833D02*
X129583333Y-90553833D01*
X129583333Y-90553833D02*
X129649999Y-90587166D01*
X129649999Y-90587166D02*
X129683333Y-90620500D01*
X129683333Y-90620500D02*
X129716666Y-90687166D01*
X129716666Y-90687166D02*
X129716666Y-90753833D01*
X129716666Y-90753833D02*
X129683333Y-90853833D01*
X129683333Y-90853833D02*
X129283333Y-91253833D01*
X129283333Y-91253833D02*
X129716666Y-91253833D01*
X130150000Y-90553833D02*
X130216666Y-90553833D01*
X130216666Y-90553833D02*
X130283333Y-90587166D01*
X130283333Y-90587166D02*
X130316666Y-90620500D01*
X130316666Y-90620500D02*
X130350000Y-90687166D01*
X130350000Y-90687166D02*
X130383333Y-90820500D01*
X130383333Y-90820500D02*
X130383333Y-90987166D01*
X130383333Y-90987166D02*
X130350000Y-91120500D01*
X130350000Y-91120500D02*
X130316666Y-91187166D01*
X130316666Y-91187166D02*
X130283333Y-91220500D01*
X130283333Y-91220500D02*
X130216666Y-91253833D01*
X130216666Y-91253833D02*
X130150000Y-91253833D01*
X130150000Y-91253833D02*
X130083333Y-91220500D01*
X130083333Y-91220500D02*
X130050000Y-91187166D01*
X130050000Y-91187166D02*
X130016666Y-91120500D01*
X130016666Y-91120500D02*
X129983333Y-90987166D01*
X129983333Y-90987166D02*
X129983333Y-90820500D01*
X129983333Y-90820500D02*
X130016666Y-90687166D01*
X130016666Y-90687166D02*
X130050000Y-90620500D01*
X130050000Y-90620500D02*
X130083333Y-90587166D01*
X130083333Y-90587166D02*
X130150000Y-90553833D01*
G04 #@! TO.C,R11*
X93549999Y-91253833D02*
X93316666Y-90920500D01*
X93149999Y-91253833D02*
X93149999Y-90553833D01*
X93149999Y-90553833D02*
X93416666Y-90553833D01*
X93416666Y-90553833D02*
X93483333Y-90587166D01*
X93483333Y-90587166D02*
X93516666Y-90620500D01*
X93516666Y-90620500D02*
X93549999Y-90687166D01*
X93549999Y-90687166D02*
X93549999Y-90787166D01*
X93549999Y-90787166D02*
X93516666Y-90853833D01*
X93516666Y-90853833D02*
X93483333Y-90887166D01*
X93483333Y-90887166D02*
X93416666Y-90920500D01*
X93416666Y-90920500D02*
X93149999Y-90920500D01*
X94216666Y-91253833D02*
X93816666Y-91253833D01*
X94016666Y-91253833D02*
X94016666Y-90553833D01*
X94016666Y-90553833D02*
X93949999Y-90653833D01*
X93949999Y-90653833D02*
X93883333Y-90720500D01*
X93883333Y-90720500D02*
X93816666Y-90753833D01*
X94883333Y-91253833D02*
X94483333Y-91253833D01*
X94683333Y-91253833D02*
X94683333Y-90553833D01*
X94683333Y-90553833D02*
X94616666Y-90653833D01*
X94616666Y-90653833D02*
X94550000Y-90720500D01*
X94550000Y-90720500D02*
X94483333Y-90753833D01*
G04 #@! TO.C,R18*
X64049999Y-91253833D02*
X63816666Y-90920500D01*
X63649999Y-91253833D02*
X63649999Y-90553833D01*
X63649999Y-90553833D02*
X63916666Y-90553833D01*
X63916666Y-90553833D02*
X63983333Y-90587166D01*
X63983333Y-90587166D02*
X64016666Y-90620500D01*
X64016666Y-90620500D02*
X64049999Y-90687166D01*
X64049999Y-90687166D02*
X64049999Y-90787166D01*
X64049999Y-90787166D02*
X64016666Y-90853833D01*
X64016666Y-90853833D02*
X63983333Y-90887166D01*
X63983333Y-90887166D02*
X63916666Y-90920500D01*
X63916666Y-90920500D02*
X63649999Y-90920500D01*
X64716666Y-91253833D02*
X64316666Y-91253833D01*
X64516666Y-91253833D02*
X64516666Y-90553833D01*
X64516666Y-90553833D02*
X64449999Y-90653833D01*
X64449999Y-90653833D02*
X64383333Y-90720500D01*
X64383333Y-90720500D02*
X64316666Y-90753833D01*
X65116666Y-90853833D02*
X65050000Y-90820500D01*
X65050000Y-90820500D02*
X65016666Y-90787166D01*
X65016666Y-90787166D02*
X64983333Y-90720500D01*
X64983333Y-90720500D02*
X64983333Y-90687166D01*
X64983333Y-90687166D02*
X65016666Y-90620500D01*
X65016666Y-90620500D02*
X65050000Y-90587166D01*
X65050000Y-90587166D02*
X65116666Y-90553833D01*
X65116666Y-90553833D02*
X65250000Y-90553833D01*
X65250000Y-90553833D02*
X65316666Y-90587166D01*
X65316666Y-90587166D02*
X65350000Y-90620500D01*
X65350000Y-90620500D02*
X65383333Y-90687166D01*
X65383333Y-90687166D02*
X65383333Y-90720500D01*
X65383333Y-90720500D02*
X65350000Y-90787166D01*
X65350000Y-90787166D02*
X65316666Y-90820500D01*
X65316666Y-90820500D02*
X65250000Y-90853833D01*
X65250000Y-90853833D02*
X65116666Y-90853833D01*
X65116666Y-90853833D02*
X65050000Y-90887166D01*
X65050000Y-90887166D02*
X65016666Y-90920500D01*
X65016666Y-90920500D02*
X64983333Y-90987166D01*
X64983333Y-90987166D02*
X64983333Y-91120500D01*
X64983333Y-91120500D02*
X65016666Y-91187166D01*
X65016666Y-91187166D02*
X65050000Y-91220500D01*
X65050000Y-91220500D02*
X65116666Y-91253833D01*
X65116666Y-91253833D02*
X65250000Y-91253833D01*
X65250000Y-91253833D02*
X65316666Y-91220500D01*
X65316666Y-91220500D02*
X65350000Y-91187166D01*
X65350000Y-91187166D02*
X65383333Y-91120500D01*
X65383333Y-91120500D02*
X65383333Y-90987166D01*
X65383333Y-90987166D02*
X65350000Y-90920500D01*
X65350000Y-90920500D02*
X65316666Y-90887166D01*
X65316666Y-90887166D02*
X65250000Y-90853833D01*
G04 #@! TO.C,R4*
X129323833Y-70616666D02*
X128990500Y-70849999D01*
X129323833Y-71016666D02*
X128623833Y-71016666D01*
X128623833Y-71016666D02*
X128623833Y-70749999D01*
X128623833Y-70749999D02*
X128657166Y-70683333D01*
X128657166Y-70683333D02*
X128690500Y-70649999D01*
X128690500Y-70649999D02*
X128757166Y-70616666D01*
X128757166Y-70616666D02*
X128857166Y-70616666D01*
X128857166Y-70616666D02*
X128923833Y-70649999D01*
X128923833Y-70649999D02*
X128957166Y-70683333D01*
X128957166Y-70683333D02*
X128990500Y-70749999D01*
X128990500Y-70749999D02*
X128990500Y-71016666D01*
X128857166Y-70016666D02*
X129323833Y-70016666D01*
X128590500Y-70183333D02*
X129090500Y-70349999D01*
X129090500Y-70349999D02*
X129090500Y-69916666D01*
G04 #@! TO.C,R25*
X107374999Y-91253833D02*
X107141666Y-90920500D01*
X106974999Y-91253833D02*
X106974999Y-90553833D01*
X106974999Y-90553833D02*
X107241666Y-90553833D01*
X107241666Y-90553833D02*
X107308333Y-90587166D01*
X107308333Y-90587166D02*
X107341666Y-90620500D01*
X107341666Y-90620500D02*
X107374999Y-90687166D01*
X107374999Y-90687166D02*
X107374999Y-90787166D01*
X107374999Y-90787166D02*
X107341666Y-90853833D01*
X107341666Y-90853833D02*
X107308333Y-90887166D01*
X107308333Y-90887166D02*
X107241666Y-90920500D01*
X107241666Y-90920500D02*
X106974999Y-90920500D01*
X107641666Y-90620500D02*
X107674999Y-90587166D01*
X107674999Y-90587166D02*
X107741666Y-90553833D01*
X107741666Y-90553833D02*
X107908333Y-90553833D01*
X107908333Y-90553833D02*
X107974999Y-90587166D01*
X107974999Y-90587166D02*
X108008333Y-90620500D01*
X108008333Y-90620500D02*
X108041666Y-90687166D01*
X108041666Y-90687166D02*
X108041666Y-90753833D01*
X108041666Y-90753833D02*
X108008333Y-90853833D01*
X108008333Y-90853833D02*
X107608333Y-91253833D01*
X107608333Y-91253833D02*
X108041666Y-91253833D01*
X108675000Y-90553833D02*
X108341666Y-90553833D01*
X108341666Y-90553833D02*
X108308333Y-90887166D01*
X108308333Y-90887166D02*
X108341666Y-90853833D01*
X108341666Y-90853833D02*
X108408333Y-90820500D01*
X108408333Y-90820500D02*
X108575000Y-90820500D01*
X108575000Y-90820500D02*
X108641666Y-90853833D01*
X108641666Y-90853833D02*
X108675000Y-90887166D01*
X108675000Y-90887166D02*
X108708333Y-90953833D01*
X108708333Y-90953833D02*
X108708333Y-91120500D01*
X108708333Y-91120500D02*
X108675000Y-91187166D01*
X108675000Y-91187166D02*
X108641666Y-91220500D01*
X108641666Y-91220500D02*
X108575000Y-91253833D01*
X108575000Y-91253833D02*
X108408333Y-91253833D01*
X108408333Y-91253833D02*
X108341666Y-91220500D01*
X108341666Y-91220500D02*
X108308333Y-91187166D01*
G04 #@! TO.C,R1*
X129383333Y-54923833D02*
X129150000Y-54590500D01*
X128983333Y-54923833D02*
X128983333Y-54223833D01*
X128983333Y-54223833D02*
X129250000Y-54223833D01*
X129250000Y-54223833D02*
X129316667Y-54257166D01*
X129316667Y-54257166D02*
X129350000Y-54290500D01*
X129350000Y-54290500D02*
X129383333Y-54357166D01*
X129383333Y-54357166D02*
X129383333Y-54457166D01*
X129383333Y-54457166D02*
X129350000Y-54523833D01*
X129350000Y-54523833D02*
X129316667Y-54557166D01*
X129316667Y-54557166D02*
X129250000Y-54590500D01*
X129250000Y-54590500D02*
X128983333Y-54590500D01*
X130050000Y-54923833D02*
X129650000Y-54923833D01*
X129850000Y-54923833D02*
X129850000Y-54223833D01*
X129850000Y-54223833D02*
X129783333Y-54323833D01*
X129783333Y-54323833D02*
X129716667Y-54390500D01*
X129716667Y-54390500D02*
X129650000Y-54423833D01*
G04 #@! TO.C,R12*
X90374999Y-91253833D02*
X90141666Y-90920500D01*
X89974999Y-91253833D02*
X89974999Y-90553833D01*
X89974999Y-90553833D02*
X90241666Y-90553833D01*
X90241666Y-90553833D02*
X90308333Y-90587166D01*
X90308333Y-90587166D02*
X90341666Y-90620500D01*
X90341666Y-90620500D02*
X90374999Y-90687166D01*
X90374999Y-90687166D02*
X90374999Y-90787166D01*
X90374999Y-90787166D02*
X90341666Y-90853833D01*
X90341666Y-90853833D02*
X90308333Y-90887166D01*
X90308333Y-90887166D02*
X90241666Y-90920500D01*
X90241666Y-90920500D02*
X89974999Y-90920500D01*
X91041666Y-91253833D02*
X90641666Y-91253833D01*
X90841666Y-91253833D02*
X90841666Y-90553833D01*
X90841666Y-90553833D02*
X90774999Y-90653833D01*
X90774999Y-90653833D02*
X90708333Y-90720500D01*
X90708333Y-90720500D02*
X90641666Y-90753833D01*
X91308333Y-90620500D02*
X91341666Y-90587166D01*
X91341666Y-90587166D02*
X91408333Y-90553833D01*
X91408333Y-90553833D02*
X91575000Y-90553833D01*
X91575000Y-90553833D02*
X91641666Y-90587166D01*
X91641666Y-90587166D02*
X91675000Y-90620500D01*
X91675000Y-90620500D02*
X91708333Y-90687166D01*
X91708333Y-90687166D02*
X91708333Y-90753833D01*
X91708333Y-90753833D02*
X91675000Y-90853833D01*
X91675000Y-90853833D02*
X91275000Y-91253833D01*
X91275000Y-91253833D02*
X91708333Y-91253833D01*
G04 #@! TO.C,R17*
X67549999Y-91253833D02*
X67316666Y-90920500D01*
X67149999Y-91253833D02*
X67149999Y-90553833D01*
X67149999Y-90553833D02*
X67416666Y-90553833D01*
X67416666Y-90553833D02*
X67483333Y-90587166D01*
X67483333Y-90587166D02*
X67516666Y-90620500D01*
X67516666Y-90620500D02*
X67549999Y-90687166D01*
X67549999Y-90687166D02*
X67549999Y-90787166D01*
X67549999Y-90787166D02*
X67516666Y-90853833D01*
X67516666Y-90853833D02*
X67483333Y-90887166D01*
X67483333Y-90887166D02*
X67416666Y-90920500D01*
X67416666Y-90920500D02*
X67149999Y-90920500D01*
X68216666Y-91253833D02*
X67816666Y-91253833D01*
X68016666Y-91253833D02*
X68016666Y-90553833D01*
X68016666Y-90553833D02*
X67949999Y-90653833D01*
X67949999Y-90653833D02*
X67883333Y-90720500D01*
X67883333Y-90720500D02*
X67816666Y-90753833D01*
X68450000Y-90553833D02*
X68916666Y-90553833D01*
X68916666Y-90553833D02*
X68616666Y-91253833D01*
G04 #@! TO.C,R19*
X132224999Y-91253833D02*
X131991666Y-90920500D01*
X131824999Y-91253833D02*
X131824999Y-90553833D01*
X131824999Y-90553833D02*
X132091666Y-90553833D01*
X132091666Y-90553833D02*
X132158333Y-90587166D01*
X132158333Y-90587166D02*
X132191666Y-90620500D01*
X132191666Y-90620500D02*
X132224999Y-90687166D01*
X132224999Y-90687166D02*
X132224999Y-90787166D01*
X132224999Y-90787166D02*
X132191666Y-90853833D01*
X132191666Y-90853833D02*
X132158333Y-90887166D01*
X132158333Y-90887166D02*
X132091666Y-90920500D01*
X132091666Y-90920500D02*
X131824999Y-90920500D01*
X132891666Y-91253833D02*
X132491666Y-91253833D01*
X132691666Y-91253833D02*
X132691666Y-90553833D01*
X132691666Y-90553833D02*
X132624999Y-90653833D01*
X132624999Y-90653833D02*
X132558333Y-90720500D01*
X132558333Y-90720500D02*
X132491666Y-90753833D01*
X133225000Y-91253833D02*
X133358333Y-91253833D01*
X133358333Y-91253833D02*
X133425000Y-91220500D01*
X133425000Y-91220500D02*
X133458333Y-91187166D01*
X133458333Y-91187166D02*
X133525000Y-91087166D01*
X133525000Y-91087166D02*
X133558333Y-90953833D01*
X133558333Y-90953833D02*
X133558333Y-90687166D01*
X133558333Y-90687166D02*
X133525000Y-90620500D01*
X133525000Y-90620500D02*
X133491666Y-90587166D01*
X133491666Y-90587166D02*
X133425000Y-90553833D01*
X133425000Y-90553833D02*
X133291666Y-90553833D01*
X133291666Y-90553833D02*
X133225000Y-90587166D01*
X133225000Y-90587166D02*
X133191666Y-90620500D01*
X133191666Y-90620500D02*
X133158333Y-90687166D01*
X133158333Y-90687166D02*
X133158333Y-90853833D01*
X133158333Y-90853833D02*
X133191666Y-90920500D01*
X133191666Y-90920500D02*
X133225000Y-90953833D01*
X133225000Y-90953833D02*
X133291666Y-90987166D01*
X133291666Y-90987166D02*
X133425000Y-90987166D01*
X133425000Y-90987166D02*
X133491666Y-90953833D01*
X133491666Y-90953833D02*
X133525000Y-90920500D01*
X133525000Y-90920500D02*
X133558333Y-90853833D01*
G04 #@! TO.C,H1*
X63466666Y-70123833D02*
X63466666Y-69423833D01*
X63466666Y-69757166D02*
X63866666Y-69757166D01*
X63866666Y-70123833D02*
X63866666Y-69423833D01*
X64566666Y-70123833D02*
X64166666Y-70123833D01*
X64366666Y-70123833D02*
X64366666Y-69423833D01*
X64366666Y-69423833D02*
X64299999Y-69523833D01*
X64299999Y-69523833D02*
X64233333Y-69590500D01*
X64233333Y-69590500D02*
X64166666Y-69623833D01*
G04 #@! TO.C,R7*
X124883333Y-54823833D02*
X124650000Y-54490500D01*
X124483333Y-54823833D02*
X124483333Y-54123833D01*
X124483333Y-54123833D02*
X124750000Y-54123833D01*
X124750000Y-54123833D02*
X124816667Y-54157166D01*
X124816667Y-54157166D02*
X124850000Y-54190500D01*
X124850000Y-54190500D02*
X124883333Y-54257166D01*
X124883333Y-54257166D02*
X124883333Y-54357166D01*
X124883333Y-54357166D02*
X124850000Y-54423833D01*
X124850000Y-54423833D02*
X124816667Y-54457166D01*
X124816667Y-54457166D02*
X124750000Y-54490500D01*
X124750000Y-54490500D02*
X124483333Y-54490500D01*
X125116667Y-54123833D02*
X125583333Y-54123833D01*
X125583333Y-54123833D02*
X125283333Y-54823833D01*
G04 #@! TO.C,R15*
X74049999Y-91253833D02*
X73816666Y-90920500D01*
X73649999Y-91253833D02*
X73649999Y-90553833D01*
X73649999Y-90553833D02*
X73916666Y-90553833D01*
X73916666Y-90553833D02*
X73983333Y-90587166D01*
X73983333Y-90587166D02*
X74016666Y-90620500D01*
X74016666Y-90620500D02*
X74049999Y-90687166D01*
X74049999Y-90687166D02*
X74049999Y-90787166D01*
X74049999Y-90787166D02*
X74016666Y-90853833D01*
X74016666Y-90853833D02*
X73983333Y-90887166D01*
X73983333Y-90887166D02*
X73916666Y-90920500D01*
X73916666Y-90920500D02*
X73649999Y-90920500D01*
X74716666Y-91253833D02*
X74316666Y-91253833D01*
X74516666Y-91253833D02*
X74516666Y-90553833D01*
X74516666Y-90553833D02*
X74449999Y-90653833D01*
X74449999Y-90653833D02*
X74383333Y-90720500D01*
X74383333Y-90720500D02*
X74316666Y-90753833D01*
X75350000Y-90553833D02*
X75016666Y-90553833D01*
X75016666Y-90553833D02*
X74983333Y-90887166D01*
X74983333Y-90887166D02*
X75016666Y-90853833D01*
X75016666Y-90853833D02*
X75083333Y-90820500D01*
X75083333Y-90820500D02*
X75250000Y-90820500D01*
X75250000Y-90820500D02*
X75316666Y-90853833D01*
X75316666Y-90853833D02*
X75350000Y-90887166D01*
X75350000Y-90887166D02*
X75383333Y-90953833D01*
X75383333Y-90953833D02*
X75383333Y-91120500D01*
X75383333Y-91120500D02*
X75350000Y-91187166D01*
X75350000Y-91187166D02*
X75316666Y-91220500D01*
X75316666Y-91220500D02*
X75250000Y-91253833D01*
X75250000Y-91253833D02*
X75083333Y-91253833D01*
X75083333Y-91253833D02*
X75016666Y-91220500D01*
X75016666Y-91220500D02*
X74983333Y-91187166D01*
G04 #@! TO.C,R21*
X125874999Y-91253833D02*
X125641666Y-90920500D01*
X125474999Y-91253833D02*
X125474999Y-90553833D01*
X125474999Y-90553833D02*
X125741666Y-90553833D01*
X125741666Y-90553833D02*
X125808333Y-90587166D01*
X125808333Y-90587166D02*
X125841666Y-90620500D01*
X125841666Y-90620500D02*
X125874999Y-90687166D01*
X125874999Y-90687166D02*
X125874999Y-90787166D01*
X125874999Y-90787166D02*
X125841666Y-90853833D01*
X125841666Y-90853833D02*
X125808333Y-90887166D01*
X125808333Y-90887166D02*
X125741666Y-90920500D01*
X125741666Y-90920500D02*
X125474999Y-90920500D01*
X126141666Y-90620500D02*
X126174999Y-90587166D01*
X126174999Y-90587166D02*
X126241666Y-90553833D01*
X126241666Y-90553833D02*
X126408333Y-90553833D01*
X126408333Y-90553833D02*
X126474999Y-90587166D01*
X126474999Y-90587166D02*
X126508333Y-90620500D01*
X126508333Y-90620500D02*
X126541666Y-90687166D01*
X126541666Y-90687166D02*
X126541666Y-90753833D01*
X126541666Y-90753833D02*
X126508333Y-90853833D01*
X126508333Y-90853833D02*
X126108333Y-91253833D01*
X126108333Y-91253833D02*
X126541666Y-91253833D01*
X127208333Y-91253833D02*
X126808333Y-91253833D01*
X127008333Y-91253833D02*
X127008333Y-90553833D01*
X127008333Y-90553833D02*
X126941666Y-90653833D01*
X126941666Y-90653833D02*
X126875000Y-90720500D01*
X126875000Y-90720500D02*
X126808333Y-90753833D01*
G04 #@! TO.C,J3*
X118766666Y-76623833D02*
X118766666Y-77123833D01*
X118766666Y-77123833D02*
X118733333Y-77223833D01*
X118733333Y-77223833D02*
X118666666Y-77290500D01*
X118666666Y-77290500D02*
X118566666Y-77323833D01*
X118566666Y-77323833D02*
X118500000Y-77323833D01*
X119033333Y-76623833D02*
X119466666Y-76623833D01*
X119466666Y-76623833D02*
X119233333Y-76890500D01*
X119233333Y-76890500D02*
X119333333Y-76890500D01*
X119333333Y-76890500D02*
X119399999Y-76923833D01*
X119399999Y-76923833D02*
X119433333Y-76957166D01*
X119433333Y-76957166D02*
X119466666Y-77023833D01*
X119466666Y-77023833D02*
X119466666Y-77190500D01*
X119466666Y-77190500D02*
X119433333Y-77257166D01*
X119433333Y-77257166D02*
X119399999Y-77290500D01*
X119399999Y-77290500D02*
X119333333Y-77323833D01*
X119333333Y-77323833D02*
X119133333Y-77323833D01*
X119133333Y-77323833D02*
X119066666Y-77290500D01*
X119066666Y-77290500D02*
X119033333Y-77257166D01*
G04 #@! TO.C,U1*
X131966666Y-65123833D02*
X131966666Y-65690500D01*
X131966666Y-65690500D02*
X132000000Y-65757166D01*
X132000000Y-65757166D02*
X132033333Y-65790500D01*
X132033333Y-65790500D02*
X132100000Y-65823833D01*
X132100000Y-65823833D02*
X132233333Y-65823833D01*
X132233333Y-65823833D02*
X132300000Y-65790500D01*
X132300000Y-65790500D02*
X132333333Y-65757166D01*
X132333333Y-65757166D02*
X132366666Y-65690500D01*
X132366666Y-65690500D02*
X132366666Y-65123833D01*
X133066666Y-65823833D02*
X132666666Y-65823833D01*
X132866666Y-65823833D02*
X132866666Y-65123833D01*
X132866666Y-65123833D02*
X132799999Y-65223833D01*
X132799999Y-65223833D02*
X132733333Y-65290500D01*
X132733333Y-65290500D02*
X132666666Y-65323833D01*
G04 #@! TO.C,R9*
X133323833Y-62616666D02*
X132990500Y-62849999D01*
X133323833Y-63016666D02*
X132623833Y-63016666D01*
X132623833Y-63016666D02*
X132623833Y-62749999D01*
X132623833Y-62749999D02*
X132657166Y-62683333D01*
X132657166Y-62683333D02*
X132690500Y-62649999D01*
X132690500Y-62649999D02*
X132757166Y-62616666D01*
X132757166Y-62616666D02*
X132857166Y-62616666D01*
X132857166Y-62616666D02*
X132923833Y-62649999D01*
X132923833Y-62649999D02*
X132957166Y-62683333D01*
X132957166Y-62683333D02*
X132990500Y-62749999D01*
X132990500Y-62749999D02*
X132990500Y-63016666D01*
X133323833Y-62283333D02*
X133323833Y-62149999D01*
X133323833Y-62149999D02*
X133290500Y-62083333D01*
X133290500Y-62083333D02*
X133257166Y-62049999D01*
X133257166Y-62049999D02*
X133157166Y-61983333D01*
X133157166Y-61983333D02*
X133023833Y-61949999D01*
X133023833Y-61949999D02*
X132757166Y-61949999D01*
X132757166Y-61949999D02*
X132690500Y-61983333D01*
X132690500Y-61983333D02*
X132657166Y-62016666D01*
X132657166Y-62016666D02*
X132623833Y-62083333D01*
X132623833Y-62083333D02*
X132623833Y-62216666D01*
X132623833Y-62216666D02*
X132657166Y-62283333D01*
X132657166Y-62283333D02*
X132690500Y-62316666D01*
X132690500Y-62316666D02*
X132757166Y-62349999D01*
X132757166Y-62349999D02*
X132923833Y-62349999D01*
X132923833Y-62349999D02*
X132990500Y-62316666D01*
X132990500Y-62316666D02*
X133023833Y-62283333D01*
X133023833Y-62283333D02*
X133057166Y-62216666D01*
X133057166Y-62216666D02*
X133057166Y-62083333D01*
X133057166Y-62083333D02*
X133023833Y-62016666D01*
X133023833Y-62016666D02*
X132990500Y-61983333D01*
X132990500Y-61983333D02*
X132923833Y-61949999D01*
G04 #@! TO.C,D1*
X127323833Y-71016666D02*
X126623833Y-71016666D01*
X126623833Y-71016666D02*
X126623833Y-70849999D01*
X126623833Y-70849999D02*
X126657166Y-70749999D01*
X126657166Y-70749999D02*
X126723833Y-70683333D01*
X126723833Y-70683333D02*
X126790500Y-70649999D01*
X126790500Y-70649999D02*
X126923833Y-70616666D01*
X126923833Y-70616666D02*
X127023833Y-70616666D01*
X127023833Y-70616666D02*
X127157166Y-70649999D01*
X127157166Y-70649999D02*
X127223833Y-70683333D01*
X127223833Y-70683333D02*
X127290500Y-70749999D01*
X127290500Y-70749999D02*
X127323833Y-70849999D01*
X127323833Y-70849999D02*
X127323833Y-71016666D01*
X127323833Y-69949999D02*
X127323833Y-70349999D01*
X127323833Y-70149999D02*
X126623833Y-70149999D01*
X126623833Y-70149999D02*
X126723833Y-70216666D01*
X126723833Y-70216666D02*
X126790500Y-70283333D01*
X126790500Y-70283333D02*
X126823833Y-70349999D01*
G04 #@! TO.C,U2*
X118966666Y-65123833D02*
X118966666Y-65690500D01*
X118966666Y-65690500D02*
X119000000Y-65757166D01*
X119000000Y-65757166D02*
X119033333Y-65790500D01*
X119033333Y-65790500D02*
X119100000Y-65823833D01*
X119100000Y-65823833D02*
X119233333Y-65823833D01*
X119233333Y-65823833D02*
X119300000Y-65790500D01*
X119300000Y-65790500D02*
X119333333Y-65757166D01*
X119333333Y-65757166D02*
X119366666Y-65690500D01*
X119366666Y-65690500D02*
X119366666Y-65123833D01*
X119666666Y-65190500D02*
X119699999Y-65157166D01*
X119699999Y-65157166D02*
X119766666Y-65123833D01*
X119766666Y-65123833D02*
X119933333Y-65123833D01*
X119933333Y-65123833D02*
X119999999Y-65157166D01*
X119999999Y-65157166D02*
X120033333Y-65190500D01*
X120033333Y-65190500D02*
X120066666Y-65257166D01*
X120066666Y-65257166D02*
X120066666Y-65323833D01*
X120066666Y-65323833D02*
X120033333Y-65423833D01*
X120033333Y-65423833D02*
X119633333Y-65823833D01*
X119633333Y-65823833D02*
X120066666Y-65823833D01*
G04 #@! TO.C,H2*
X134466666Y-70123833D02*
X134466666Y-69423833D01*
X134466666Y-69757166D02*
X134866666Y-69757166D01*
X134866666Y-70123833D02*
X134866666Y-69423833D01*
X135166666Y-69490500D02*
X135199999Y-69457166D01*
X135199999Y-69457166D02*
X135266666Y-69423833D01*
X135266666Y-69423833D02*
X135433333Y-69423833D01*
X135433333Y-69423833D02*
X135499999Y-69457166D01*
X135499999Y-69457166D02*
X135533333Y-69490500D01*
X135533333Y-69490500D02*
X135566666Y-69557166D01*
X135566666Y-69557166D02*
X135566666Y-69623833D01*
X135566666Y-69623833D02*
X135533333Y-69723833D01*
X135533333Y-69723833D02*
X135133333Y-70123833D01*
X135133333Y-70123833D02*
X135566666Y-70123833D01*
G04 #@! TO.C,R22*
X122724999Y-91253833D02*
X122491666Y-90920500D01*
X122324999Y-91253833D02*
X122324999Y-90553833D01*
X122324999Y-90553833D02*
X122591666Y-90553833D01*
X122591666Y-90553833D02*
X122658333Y-90587166D01*
X122658333Y-90587166D02*
X122691666Y-90620500D01*
X122691666Y-90620500D02*
X122724999Y-90687166D01*
X122724999Y-90687166D02*
X122724999Y-90787166D01*
X122724999Y-90787166D02*
X122691666Y-90853833D01*
X122691666Y-90853833D02*
X122658333Y-90887166D01*
X122658333Y-90887166D02*
X122591666Y-90920500D01*
X122591666Y-90920500D02*
X122324999Y-90920500D01*
X122991666Y-90620500D02*
X123024999Y-90587166D01*
X123024999Y-90587166D02*
X123091666Y-90553833D01*
X123091666Y-90553833D02*
X123258333Y-90553833D01*
X123258333Y-90553833D02*
X123324999Y-90587166D01*
X123324999Y-90587166D02*
X123358333Y-90620500D01*
X123358333Y-90620500D02*
X123391666Y-90687166D01*
X123391666Y-90687166D02*
X123391666Y-90753833D01*
X123391666Y-90753833D02*
X123358333Y-90853833D01*
X123358333Y-90853833D02*
X122958333Y-91253833D01*
X122958333Y-91253833D02*
X123391666Y-91253833D01*
X123658333Y-90620500D02*
X123691666Y-90587166D01*
X123691666Y-90587166D02*
X123758333Y-90553833D01*
X123758333Y-90553833D02*
X123925000Y-90553833D01*
X123925000Y-90553833D02*
X123991666Y-90587166D01*
X123991666Y-90587166D02*
X124025000Y-90620500D01*
X124025000Y-90620500D02*
X124058333Y-90687166D01*
X124058333Y-90687166D02*
X124058333Y-90753833D01*
X124058333Y-90753833D02*
X124025000Y-90853833D01*
X124025000Y-90853833D02*
X123625000Y-91253833D01*
X123625000Y-91253833D02*
X124058333Y-91253833D01*
G04 #@! TO.C,R3*
X127383333Y-54823833D02*
X127150000Y-54490500D01*
X126983333Y-54823833D02*
X126983333Y-54123833D01*
X126983333Y-54123833D02*
X127250000Y-54123833D01*
X127250000Y-54123833D02*
X127316667Y-54157166D01*
X127316667Y-54157166D02*
X127350000Y-54190500D01*
X127350000Y-54190500D02*
X127383333Y-54257166D01*
X127383333Y-54257166D02*
X127383333Y-54357166D01*
X127383333Y-54357166D02*
X127350000Y-54423833D01*
X127350000Y-54423833D02*
X127316667Y-54457166D01*
X127316667Y-54457166D02*
X127250000Y-54490500D01*
X127250000Y-54490500D02*
X126983333Y-54490500D01*
X127616667Y-54123833D02*
X128050000Y-54123833D01*
X128050000Y-54123833D02*
X127816667Y-54390500D01*
X127816667Y-54390500D02*
X127916667Y-54390500D01*
X127916667Y-54390500D02*
X127983333Y-54423833D01*
X127983333Y-54423833D02*
X128016667Y-54457166D01*
X128016667Y-54457166D02*
X128050000Y-54523833D01*
X128050000Y-54523833D02*
X128050000Y-54690500D01*
X128050000Y-54690500D02*
X128016667Y-54757166D01*
X128016667Y-54757166D02*
X127983333Y-54790500D01*
X127983333Y-54790500D02*
X127916667Y-54823833D01*
X127916667Y-54823833D02*
X127716667Y-54823833D01*
X127716667Y-54823833D02*
X127650000Y-54790500D01*
X127650000Y-54790500D02*
X127616667Y-54757166D01*
G04 #@! TO.C,J2*
X78766666Y-76623833D02*
X78766666Y-77123833D01*
X78766666Y-77123833D02*
X78733333Y-77223833D01*
X78733333Y-77223833D02*
X78666666Y-77290500D01*
X78666666Y-77290500D02*
X78566666Y-77323833D01*
X78566666Y-77323833D02*
X78500000Y-77323833D01*
X79066666Y-76690500D02*
X79099999Y-76657166D01*
X79099999Y-76657166D02*
X79166666Y-76623833D01*
X79166666Y-76623833D02*
X79333333Y-76623833D01*
X79333333Y-76623833D02*
X79399999Y-76657166D01*
X79399999Y-76657166D02*
X79433333Y-76690500D01*
X79433333Y-76690500D02*
X79466666Y-76757166D01*
X79466666Y-76757166D02*
X79466666Y-76823833D01*
X79466666Y-76823833D02*
X79433333Y-76923833D01*
X79433333Y-76923833D02*
X79033333Y-77323833D01*
X79033333Y-77323833D02*
X79466666Y-77323833D01*
G04 #@! TO.C,R24*
X110549999Y-91253833D02*
X110316666Y-90920500D01*
X110149999Y-91253833D02*
X110149999Y-90553833D01*
X110149999Y-90553833D02*
X110416666Y-90553833D01*
X110416666Y-90553833D02*
X110483333Y-90587166D01*
X110483333Y-90587166D02*
X110516666Y-90620500D01*
X110516666Y-90620500D02*
X110549999Y-90687166D01*
X110549999Y-90687166D02*
X110549999Y-90787166D01*
X110549999Y-90787166D02*
X110516666Y-90853833D01*
X110516666Y-90853833D02*
X110483333Y-90887166D01*
X110483333Y-90887166D02*
X110416666Y-90920500D01*
X110416666Y-90920500D02*
X110149999Y-90920500D01*
X110816666Y-90620500D02*
X110849999Y-90587166D01*
X110849999Y-90587166D02*
X110916666Y-90553833D01*
X110916666Y-90553833D02*
X111083333Y-90553833D01*
X111083333Y-90553833D02*
X111149999Y-90587166D01*
X111149999Y-90587166D02*
X111183333Y-90620500D01*
X111183333Y-90620500D02*
X111216666Y-90687166D01*
X111216666Y-90687166D02*
X111216666Y-90753833D01*
X111216666Y-90753833D02*
X111183333Y-90853833D01*
X111183333Y-90853833D02*
X110783333Y-91253833D01*
X110783333Y-91253833D02*
X111216666Y-91253833D01*
X111816666Y-90787166D02*
X111816666Y-91253833D01*
X111650000Y-90520500D02*
X111483333Y-91020500D01*
X111483333Y-91020500D02*
X111916666Y-91020500D01*
G04 #@! TO.C,C1*
X131257166Y-70616666D02*
X131290500Y-70649999D01*
X131290500Y-70649999D02*
X131323833Y-70749999D01*
X131323833Y-70749999D02*
X131323833Y-70816666D01*
X131323833Y-70816666D02*
X131290500Y-70916666D01*
X131290500Y-70916666D02*
X131223833Y-70983333D01*
X131223833Y-70983333D02*
X131157166Y-71016666D01*
X131157166Y-71016666D02*
X131023833Y-71049999D01*
X131023833Y-71049999D02*
X130923833Y-71049999D01*
X130923833Y-71049999D02*
X130790500Y-71016666D01*
X130790500Y-71016666D02*
X130723833Y-70983333D01*
X130723833Y-70983333D02*
X130657166Y-70916666D01*
X130657166Y-70916666D02*
X130623833Y-70816666D01*
X130623833Y-70816666D02*
X130623833Y-70749999D01*
X130623833Y-70749999D02*
X130657166Y-70649999D01*
X130657166Y-70649999D02*
X130690500Y-70616666D01*
X131323833Y-69949999D02*
X131323833Y-70349999D01*
X131323833Y-70149999D02*
X130623833Y-70149999D01*
X130623833Y-70149999D02*
X130723833Y-70216666D01*
X130723833Y-70216666D02*
X130790500Y-70283333D01*
X130790500Y-70283333D02*
X130823833Y-70349999D01*
G04 #@! TO.C,R2*
X130883333Y-55023833D02*
X130650000Y-54690500D01*
X130483333Y-55023833D02*
X130483333Y-54323833D01*
X130483333Y-54323833D02*
X130750000Y-54323833D01*
X130750000Y-54323833D02*
X130816667Y-54357166D01*
X130816667Y-54357166D02*
X130850000Y-54390500D01*
X130850000Y-54390500D02*
X130883333Y-54457166D01*
X130883333Y-54457166D02*
X130883333Y-54557166D01*
X130883333Y-54557166D02*
X130850000Y-54623833D01*
X130850000Y-54623833D02*
X130816667Y-54657166D01*
X130816667Y-54657166D02*
X130750000Y-54690500D01*
X130750000Y-54690500D02*
X130483333Y-54690500D01*
X131150000Y-54390500D02*
X131183333Y-54357166D01*
X131183333Y-54357166D02*
X131250000Y-54323833D01*
X131250000Y-54323833D02*
X131416667Y-54323833D01*
X131416667Y-54323833D02*
X131483333Y-54357166D01*
X131483333Y-54357166D02*
X131516667Y-54390500D01*
X131516667Y-54390500D02*
X131550000Y-54457166D01*
X131550000Y-54457166D02*
X131550000Y-54523833D01*
X131550000Y-54523833D02*
X131516667Y-54623833D01*
X131516667Y-54623833D02*
X131116667Y-55023833D01*
X131116667Y-55023833D02*
X131550000Y-55023833D01*
D12*
G04 #@! TO.C,D2*
X121850000Y-66390000D02*
X120150000Y-66390000D01*
X121850000Y-66390000D02*
X121850000Y-69050000D01*
X120150000Y-66390000D02*
X120150000Y-69050000D01*
G04 #@! TO.C,R13*
X87737258Y-90022500D02*
X87262742Y-90022500D01*
X87737258Y-88977500D02*
X87262742Y-88977500D01*
G04 #@! TO.C,D3*
X82485000Y-90235000D02*
X82485000Y-88765000D01*
X82485000Y-88765000D02*
X80200000Y-88765000D01*
X80200000Y-90235000D02*
X82485000Y-90235000D01*
G04 #@! TO.C,F1*
X119510000Y-56337221D02*
X119510000Y-56662779D01*
X118490000Y-56337221D02*
X118490000Y-56662779D01*
G04 #@! TO.C,R8*
X122477500Y-68237258D02*
X122477500Y-67762742D01*
X123522500Y-68237258D02*
X123522500Y-67762742D01*
G04 #@! TO.C,R10*
X77550242Y-88977500D02*
X78024758Y-88977500D01*
X77550242Y-90022500D02*
X78024758Y-90022500D01*
G04 #@! TO.C,R6*
X122977500Y-56737258D02*
X122977500Y-56262742D01*
X124022500Y-56737258D02*
X124022500Y-56262742D01*
G04 #@! TO.C,R14*
X84562258Y-90022500D02*
X84087742Y-90022500D01*
X84562258Y-88977500D02*
X84087742Y-88977500D01*
G04 #@! TO.C,C2*
X125510000Y-67859420D02*
X125510000Y-68140580D01*
X124490000Y-67859420D02*
X124490000Y-68140580D01*
G04 #@! TO.C,R23*
X114237258Y-90022500D02*
X113762742Y-90022500D01*
X114237258Y-88977500D02*
X113762742Y-88977500D01*
G04 #@! TO.C,R26*
X104737258Y-90022500D02*
X104262742Y-90022500D01*
X104737258Y-88977500D02*
X104262742Y-88977500D01*
G04 #@! TO.C,R5*
X122522500Y-56262742D02*
X122522500Y-56737258D01*
X121477500Y-56262742D02*
X121477500Y-56737258D01*
G04 #@! TO.C,R16*
X71562258Y-90022500D02*
X71087742Y-90022500D01*
X71562258Y-88977500D02*
X71087742Y-88977500D01*
G04 #@! TO.C,J1*
X131330000Y-40370000D02*
X67710000Y-40370000D01*
X131330000Y-40370000D02*
X131330000Y-49000000D01*
X131210000Y-40370000D02*
X131210000Y-49000000D01*
X131091905Y-40370000D02*
X131091905Y-49000000D01*
X130973810Y-40370000D02*
X130973810Y-49000000D01*
X130855715Y-40370000D02*
X130855715Y-49000000D01*
X130737620Y-40370000D02*
X130737620Y-49000000D01*
X130619525Y-40370000D02*
X130619525Y-49000000D01*
X130501430Y-40370000D02*
X130501430Y-49000000D01*
X130383335Y-40370000D02*
X130383335Y-49000000D01*
X130265240Y-40370000D02*
X130265240Y-49000000D01*
X130147145Y-40370000D02*
X130147145Y-49000000D01*
X130029050Y-40370000D02*
X130029050Y-49000000D01*
X129910955Y-40370000D02*
X129910955Y-49000000D01*
X129792860Y-40370000D02*
X129792860Y-49000000D01*
X129674765Y-40370000D02*
X129674765Y-49000000D01*
X129556670Y-40370000D02*
X129556670Y-49000000D01*
X129438575Y-40370000D02*
X129438575Y-49000000D01*
X129320480Y-40370000D02*
X129320480Y-49000000D01*
X129202385Y-40370000D02*
X129202385Y-49000000D01*
X129084290Y-40370000D02*
X129084290Y-49000000D01*
X128966195Y-40370000D02*
X128966195Y-49000000D01*
X128848100Y-40370000D02*
X128848100Y-49000000D01*
X128730000Y-40370000D02*
X128730000Y-49000000D01*
X126190000Y-40370000D02*
X126190000Y-49000000D01*
X123650000Y-40370000D02*
X123650000Y-49000000D01*
X121110000Y-40370000D02*
X121110000Y-49000000D01*
X118570000Y-40370000D02*
X118570000Y-49000000D01*
X116030000Y-40370000D02*
X116030000Y-49000000D01*
X113490000Y-40370000D02*
X113490000Y-49000000D01*
X110950000Y-40370000D02*
X110950000Y-49000000D01*
X108410000Y-40370000D02*
X108410000Y-49000000D01*
X105870000Y-40370000D02*
X105870000Y-49000000D01*
X103330000Y-40370000D02*
X103330000Y-49000000D01*
X100790000Y-40370000D02*
X100790000Y-49000000D01*
X98250000Y-40370000D02*
X98250000Y-49000000D01*
X95710000Y-40370000D02*
X95710000Y-49000000D01*
X93170000Y-40370000D02*
X93170000Y-49000000D01*
X90630000Y-40370000D02*
X90630000Y-49000000D01*
X88090000Y-40370000D02*
X88090000Y-49000000D01*
X85550000Y-40370000D02*
X85550000Y-49000000D01*
X83010000Y-40370000D02*
X83010000Y-49000000D01*
X80470000Y-40370000D02*
X80470000Y-49000000D01*
X77930000Y-40370000D02*
X77930000Y-49000000D01*
X75390000Y-40370000D02*
X75390000Y-49000000D01*
X72850000Y-40370000D02*
X72850000Y-49000000D01*
X70310000Y-40370000D02*
X70310000Y-49000000D01*
X67710000Y-40370000D02*
X67710000Y-49000000D01*
X131330000Y-49000000D02*
X67710000Y-49000000D01*
X130360000Y-49000000D02*
X130360000Y-49410000D01*
X129640000Y-49000000D02*
X129640000Y-49410000D01*
X127820000Y-49000000D02*
X127820000Y-49410000D01*
X127100000Y-49000000D02*
X127100000Y-49410000D01*
X125280000Y-49000000D02*
X125280000Y-49410000D01*
X124560000Y-49000000D02*
X124560000Y-49410000D01*
X122740000Y-49000000D02*
X122740000Y-49410000D01*
X122020000Y-49000000D02*
X122020000Y-49410000D01*
X120200000Y-49000000D02*
X120200000Y-49410000D01*
X119480000Y-49000000D02*
X119480000Y-49410000D01*
X117660000Y-49000000D02*
X117660000Y-49410000D01*
X116940000Y-49000000D02*
X116940000Y-49410000D01*
X115120000Y-49000000D02*
X115120000Y-49410000D01*
X114400000Y-49000000D02*
X114400000Y-49410000D01*
X112580000Y-49000000D02*
X112580000Y-49410000D01*
X111860000Y-49000000D02*
X111860000Y-49410000D01*
X110040000Y-49000000D02*
X110040000Y-49410000D01*
X109320000Y-49000000D02*
X109320000Y-49410000D01*
X107500000Y-49000000D02*
X107500000Y-49410000D01*
X106780000Y-49000000D02*
X106780000Y-49410000D01*
X104960000Y-49000000D02*
X104960000Y-49410000D01*
X104240000Y-49000000D02*
X104240000Y-49410000D01*
X102420000Y-49000000D02*
X102420000Y-49410000D01*
X101700000Y-49000000D02*
X101700000Y-49410000D01*
X99880000Y-49000000D02*
X99880000Y-49410000D01*
X99160000Y-49000000D02*
X99160000Y-49410000D01*
X97340000Y-49000000D02*
X97340000Y-49410000D01*
X96620000Y-49000000D02*
X96620000Y-49410000D01*
X94800000Y-49000000D02*
X94800000Y-49410000D01*
X94080000Y-49000000D02*
X94080000Y-49410000D01*
X92260000Y-49000000D02*
X92260000Y-49410000D01*
X91540000Y-49000000D02*
X91540000Y-49410000D01*
X89720000Y-49000000D02*
X89720000Y-49410000D01*
X89000000Y-49000000D02*
X89000000Y-49410000D01*
X87180000Y-49000000D02*
X87180000Y-49410000D01*
X86460000Y-49000000D02*
X86460000Y-49410000D01*
X84640000Y-49000000D02*
X84640000Y-49410000D01*
X83920000Y-49000000D02*
X83920000Y-49410000D01*
X82100000Y-49000000D02*
X82100000Y-49410000D01*
X81380000Y-49000000D02*
X81380000Y-49410000D01*
X79560000Y-49000000D02*
X79560000Y-49410000D01*
X78840000Y-49000000D02*
X78840000Y-49410000D01*
X77020000Y-49000000D02*
X77020000Y-49410000D01*
X76300000Y-49000000D02*
X76300000Y-49410000D01*
X74480000Y-49000000D02*
X74480000Y-49410000D01*
X73760000Y-49000000D02*
X73760000Y-49410000D01*
X71940000Y-49000000D02*
X71940000Y-49410000D01*
X71220000Y-49000000D02*
X71220000Y-49410000D01*
X69400000Y-49000000D02*
X69400000Y-49410000D01*
X68680000Y-49000000D02*
X68680000Y-49410000D01*
X130360000Y-51510000D02*
X130360000Y-51890000D01*
X129640000Y-51510000D02*
X129640000Y-51890000D01*
X127820000Y-51510000D02*
X127820000Y-51950000D01*
X127100000Y-51510000D02*
X127100000Y-51950000D01*
X125280000Y-51510000D02*
X125280000Y-51950000D01*
X124560000Y-51510000D02*
X124560000Y-51950000D01*
X122740000Y-51510000D02*
X122740000Y-51950000D01*
X122020000Y-51510000D02*
X122020000Y-51950000D01*
X120200000Y-51510000D02*
X120200000Y-51950000D01*
X119480000Y-51510000D02*
X119480000Y-51950000D01*
X117660000Y-51510000D02*
X117660000Y-51950000D01*
X116940000Y-51510000D02*
X116940000Y-51950000D01*
X115120000Y-51510000D02*
X115120000Y-51950000D01*
X114400000Y-51510000D02*
X114400000Y-51950000D01*
X112580000Y-51510000D02*
X112580000Y-51950000D01*
X111860000Y-51510000D02*
X111860000Y-51950000D01*
X110040000Y-51510000D02*
X110040000Y-51950000D01*
X109320000Y-51510000D02*
X109320000Y-51950000D01*
X107500000Y-51510000D02*
X107500000Y-51950000D01*
X106780000Y-51510000D02*
X106780000Y-51950000D01*
X104960000Y-51510000D02*
X104960000Y-51950000D01*
X104240000Y-51510000D02*
X104240000Y-51950000D01*
X102420000Y-51510000D02*
X102420000Y-51950000D01*
X101700000Y-51510000D02*
X101700000Y-51950000D01*
X99880000Y-51510000D02*
X99880000Y-51950000D01*
X99160000Y-51510000D02*
X99160000Y-51950000D01*
X97340000Y-51510000D02*
X97340000Y-51950000D01*
X96620000Y-51510000D02*
X96620000Y-51950000D01*
X94800000Y-51510000D02*
X94800000Y-51950000D01*
X94080000Y-51510000D02*
X94080000Y-51950000D01*
X92260000Y-51510000D02*
X92260000Y-51950000D01*
X91540000Y-51510000D02*
X91540000Y-51950000D01*
X89720000Y-51510000D02*
X89720000Y-51950000D01*
X89000000Y-51510000D02*
X89000000Y-51950000D01*
X87180000Y-51510000D02*
X87180000Y-51950000D01*
X86460000Y-51510000D02*
X86460000Y-51950000D01*
X84640000Y-51510000D02*
X84640000Y-51950000D01*
X83920000Y-51510000D02*
X83920000Y-51950000D01*
X82100000Y-51510000D02*
X82100000Y-51950000D01*
X81380000Y-51510000D02*
X81380000Y-51950000D01*
X79560000Y-51510000D02*
X79560000Y-51950000D01*
X78840000Y-51510000D02*
X78840000Y-51950000D01*
X77020000Y-51510000D02*
X77020000Y-51950000D01*
X76300000Y-51510000D02*
X76300000Y-51950000D01*
X74480000Y-51510000D02*
X74480000Y-51950000D01*
X73760000Y-51510000D02*
X73760000Y-51950000D01*
X71940000Y-51510000D02*
X71940000Y-51950000D01*
X71220000Y-51510000D02*
X71220000Y-51950000D01*
X69400000Y-51510000D02*
X69400000Y-51950000D01*
X68680000Y-51510000D02*
X68680000Y-51950000D01*
X131330000Y-53000000D02*
X131330000Y-54110000D01*
X131330000Y-54110000D02*
X130000000Y-54110000D01*
G04 #@! TO.C,R20*
X129737258Y-90022500D02*
X129262742Y-90022500D01*
X129737258Y-88977500D02*
X129262742Y-88977500D01*
G04 #@! TO.C,R11*
X94237258Y-90022500D02*
X93762742Y-90022500D01*
X94237258Y-88977500D02*
X93762742Y-88977500D01*
G04 #@! TO.C,R18*
X64737258Y-90022500D02*
X64262742Y-90022500D01*
X64737258Y-88977500D02*
X64262742Y-88977500D01*
G04 #@! TO.C,R4*
X128477500Y-68237258D02*
X128477500Y-67762742D01*
X129522500Y-68237258D02*
X129522500Y-67762742D01*
G04 #@! TO.C,R25*
X108062258Y-90022500D02*
X107587742Y-90022500D01*
X108062258Y-88977500D02*
X107587742Y-88977500D01*
G04 #@! TO.C,R1*
X128977500Y-56737258D02*
X128977500Y-56262742D01*
X130022500Y-56737258D02*
X130022500Y-56262742D01*
G04 #@! TO.C,R12*
X91062258Y-90022500D02*
X90587742Y-90022500D01*
X91062258Y-88977500D02*
X90587742Y-88977500D01*
G04 #@! TO.C,R17*
X68237258Y-90022500D02*
X67762742Y-90022500D01*
X68237258Y-88977500D02*
X67762742Y-88977500D01*
G04 #@! TO.C,R19*
X132912258Y-90022500D02*
X132437742Y-90022500D01*
X132912258Y-88977500D02*
X132437742Y-88977500D01*
G04 #@! TO.C,R7*
X125522500Y-56262742D02*
X125522500Y-56737258D01*
X124477500Y-56262742D02*
X124477500Y-56737258D01*
G04 #@! TO.C,R15*
X74737258Y-90022500D02*
X74262742Y-90022500D01*
X74737258Y-88977500D02*
X74262742Y-88977500D01*
G04 #@! TO.C,R21*
X126562258Y-90022500D02*
X126087742Y-90022500D01*
X126562258Y-88977500D02*
X126087742Y-88977500D01*
G04 #@! TO.C,J3*
X134000000Y-77320000D02*
X133000000Y-77320000D01*
X133000000Y-77320000D02*
X133500000Y-78320000D01*
X133500000Y-78320000D02*
X134000000Y-77320000D01*
X138710000Y-78710000D02*
X138710000Y-87830000D01*
X121580000Y-78710000D02*
X121580000Y-80020000D01*
X100350000Y-78710000D02*
X138710000Y-78710000D01*
X137410000Y-80020000D02*
X137410000Y-86520000D01*
X121580000Y-80020000D02*
X137410000Y-80020000D01*
X117480000Y-80020000D02*
X117480000Y-78710000D01*
X117480000Y-80020000D02*
X117480000Y-80020000D01*
X101650000Y-80020000D02*
X117480000Y-80020000D01*
X137410000Y-86520000D02*
X101650000Y-86520000D01*
X101650000Y-86520000D02*
X101650000Y-80020000D01*
X138710000Y-87830000D02*
X100350000Y-87830000D01*
X100350000Y-87830000D02*
X100350000Y-78710000D01*
G04 #@! TO.C,U1*
X131560000Y-62000000D02*
X131560000Y-58550000D01*
X131560000Y-62000000D02*
X131560000Y-63950000D01*
X126440000Y-62000000D02*
X126440000Y-60050000D01*
X126440000Y-62000000D02*
X126440000Y-63950000D01*
G04 #@! TO.C,R9*
X132477500Y-60237258D02*
X132477500Y-59762742D01*
X133522500Y-60237258D02*
X133522500Y-59762742D01*
G04 #@! TO.C,D1*
X127850000Y-66390000D02*
X126150000Y-66390000D01*
X127850000Y-66390000D02*
X127850000Y-69050000D01*
X126150000Y-66390000D02*
X126150000Y-69050000D01*
G04 #@! TO.C,U2*
X125560000Y-62000000D02*
X125560000Y-58550000D01*
X125560000Y-62000000D02*
X125560000Y-63950000D01*
X120440000Y-62000000D02*
X120440000Y-60050000D01*
X120440000Y-62000000D02*
X120440000Y-63950000D01*
G04 #@! TO.C,R22*
X123412258Y-90022500D02*
X122937742Y-90022500D01*
X123412258Y-88977500D02*
X122937742Y-88977500D01*
G04 #@! TO.C,R3*
X128022500Y-56262742D02*
X128022500Y-56737258D01*
X126977500Y-56262742D02*
X126977500Y-56737258D01*
G04 #@! TO.C,J2*
X94000000Y-77320000D02*
X93000000Y-77320000D01*
X93000000Y-77320000D02*
X93500000Y-78320000D01*
X93500000Y-78320000D02*
X94000000Y-77320000D01*
X98710000Y-78710000D02*
X98710000Y-87830000D01*
X81580000Y-78710000D02*
X81580000Y-80020000D01*
X60350000Y-78710000D02*
X98710000Y-78710000D01*
X97410000Y-80020000D02*
X97410000Y-86520000D01*
X81580000Y-80020000D02*
X97410000Y-80020000D01*
X77480000Y-80020000D02*
X77480000Y-78710000D01*
X77480000Y-80020000D02*
X77480000Y-80020000D01*
X61650000Y-80020000D02*
X77480000Y-80020000D01*
X97410000Y-86520000D02*
X61650000Y-86520000D01*
X61650000Y-86520000D02*
X61650000Y-80020000D01*
X98710000Y-87830000D02*
X60350000Y-87830000D01*
X60350000Y-87830000D02*
X60350000Y-78710000D01*
G04 #@! TO.C,R24*
X111237258Y-90022500D02*
X110762742Y-90022500D01*
X111237258Y-88977500D02*
X110762742Y-88977500D01*
G04 #@! TO.C,C1*
X131510000Y-67859420D02*
X131510000Y-68140580D01*
X130490000Y-67859420D02*
X130490000Y-68140580D01*
G04 #@! TO.C,R2*
X131522500Y-56262742D02*
X131522500Y-56737258D01*
X130477500Y-56262742D02*
X130477500Y-56737258D01*
G04 #@! TD*
M02*
