G04 #@! TF.GenerationSoftware,KiCad,Pcbnew,7.0.1*
G04 #@! TF.CreationDate,2023-04-11T19:54:40+03:00*
G04 #@! TF.ProjectId,connector-pcb,636f6e6e-6563-4746-9f72-2d7063622e6b,rev?*
G04 #@! TF.SameCoordinates,Original*
G04 #@! TF.FileFunction,Copper,L4,Bot*
G04 #@! TF.FilePolarity,Positive*
%FSLAX46Y46*%
G04 Gerber Fmt 4.6, Leading zero omitted, Abs format (unit mm)*
G04 Created by KiCad (PCBNEW 7.0.1) date 2023-04-11 19:54:40*
%MOMM*%
%LPD*%
G01*
G04 APERTURE LIST*
G04 Aperture macros list*
%AMRoundRect*
0 Rectangle with rounded corners*
0 $1 Rounding radius*
0 $2 $3 $4 $5 $6 $7 $8 $9 X,Y pos of 4 corners*
0 Add a 4 corners polygon primitive as box body*
4,1,4,$2,$3,$4,$5,$6,$7,$8,$9,$2,$3,0*
0 Add four circle primitives for the rounded corners*
1,1,$1+$1,$2,$3*
1,1,$1+$1,$4,$5*
1,1,$1+$1,$6,$7*
1,1,$1+$1,$8,$9*
0 Add four rect primitives between the rounded corners*
20,1,$1+$1,$2,$3,$4,$5,0*
20,1,$1+$1,$4,$5,$6,$7,0*
20,1,$1+$1,$6,$7,$8,$9,0*
20,1,$1+$1,$8,$9,$2,$3,0*%
G04 Aperture macros list end*
G04 #@! TA.AperFunction,ComponentPad*
%ADD10R,1.700000X1.700000*%
G04 #@! TD*
G04 #@! TA.AperFunction,ComponentPad*
%ADD11O,1.700000X1.700000*%
G04 #@! TD*
G04 #@! TA.AperFunction,ComponentPad*
%ADD12C,0.800000*%
G04 #@! TD*
G04 #@! TA.AperFunction,ComponentPad*
%ADD13C,6.400000*%
G04 #@! TD*
G04 #@! TA.AperFunction,ComponentPad*
%ADD14RoundRect,0.250000X0.600000X-0.600000X0.600000X0.600000X-0.600000X0.600000X-0.600000X-0.600000X0*%
G04 #@! TD*
G04 #@! TA.AperFunction,ComponentPad*
%ADD15C,1.700000*%
G04 #@! TD*
G04 #@! TA.AperFunction,ViaPad*
%ADD16C,0.800000*%
G04 #@! TD*
G04 #@! TA.AperFunction,Conductor*
%ADD17C,0.400000*%
G04 #@! TD*
G04 #@! TA.AperFunction,Conductor*
%ADD18C,0.250000*%
G04 #@! TD*
G04 #@! TA.AperFunction,Conductor*
%ADD19C,0.200000*%
G04 #@! TD*
G04 APERTURE END LIST*
D10*
G04 #@! TO.P,J1,1,ProbeDet*
G04 #@! TO.N,Net-(J1-ProbeDet)*
X130000000Y-53000000D03*
D11*
G04 #@! TO.P,J1,2,GND*
G04 #@! TO.N,GND*
X130000000Y-50460000D03*
G04 #@! TO.P,J1,3,GND*
X127460000Y-53000000D03*
G04 #@! TO.P,J1,4,-2.5Vin*
G04 #@! TO.N,unconnected-(J1--2.5Vin-Pad4)*
X127460000Y-50460000D03*
G04 #@! TO.P,J1,5,Vref_8-15*
G04 #@! TO.N,/Vref_8_15*
X124920000Y-53000000D03*
G04 #@! TO.P,J1,6,Vref_0-7*
G04 #@! TO.N,/Vref_0_7*
X124920000Y-50460000D03*
G04 #@! TO.P,J1,7,+2.5Vin*
G04 #@! TO.N,unconnected-(J1-+2.5Vin-Pad7)*
X122380000Y-53000000D03*
G04 #@! TO.P,J1,8,+4Vin*
G04 #@! TO.N,Net-(J1-+4Vin)*
X122380000Y-50460000D03*
G04 #@! TO.P,J1,9,GND*
G04 #@! TO.N,GND*
X119840000Y-53000000D03*
G04 #@! TO.P,J1,10,+4vin*
G04 #@! TO.N,Net-(J1-+4Vin)*
X119840000Y-50460000D03*
G04 #@! TO.P,J1,11,GND*
G04 #@! TO.N,GND*
X117300000Y-53000000D03*
G04 #@! TO.P,J1,12,D8_N*
G04 #@! TO.N,/D8_N*
X117300000Y-50460000D03*
G04 #@! TO.P,J1,13,D8_P*
G04 #@! TO.N,/D8_P*
X114760000Y-53000000D03*
G04 #@! TO.P,J1,14,D9_p*
G04 #@! TO.N,/D9_P*
X114760000Y-50460000D03*
G04 #@! TO.P,J1,15,D9_N*
G04 #@! TO.N,/D9_N*
X112220000Y-53000000D03*
G04 #@! TO.P,J1,16,D0_N*
G04 #@! TO.N,/D0_N*
X112220000Y-50460000D03*
G04 #@! TO.P,J1,17,D0_P*
G04 #@! TO.N,/D0_P*
X109680000Y-53000000D03*
G04 #@! TO.P,J1,18,D1_P*
G04 #@! TO.N,/D1_P*
X109680000Y-50460000D03*
G04 #@! TO.P,J1,19,D1_N*
G04 #@! TO.N,/D1_N*
X107140000Y-53000000D03*
G04 #@! TO.P,J1,20,GND*
G04 #@! TO.N,GND*
X107140000Y-50460000D03*
G04 #@! TO.P,J1,21,GND*
X104600000Y-53000000D03*
G04 #@! TO.P,J1,22,D10_N*
G04 #@! TO.N,/D10_N*
X104600000Y-50460000D03*
G04 #@! TO.P,J1,23,D10_P*
G04 #@! TO.N,/D10_P*
X102060000Y-53000000D03*
G04 #@! TO.P,J1,24,D11_N*
G04 #@! TO.N,/D11_N*
X102060000Y-50460000D03*
G04 #@! TO.P,J1,25,DI1_P*
G04 #@! TO.N,/D11_P*
X99520000Y-53000000D03*
G04 #@! TO.P,J1,26,D2_N*
G04 #@! TO.N,/D2_N*
X99520000Y-50460000D03*
G04 #@! TO.P,J1,27,D2_P*
G04 #@! TO.N,/D2_P*
X96980000Y-53000000D03*
G04 #@! TO.P,J1,28,D3_P*
G04 #@! TO.N,/D3_P*
X96980000Y-50460000D03*
G04 #@! TO.P,J1,29,D3_N*
G04 #@! TO.N,/D3_N*
X94440000Y-53000000D03*
G04 #@! TO.P,J1,30,GND*
G04 #@! TO.N,GND*
X94440000Y-50460000D03*
G04 #@! TO.P,J1,31,GND*
X91900000Y-53000000D03*
G04 #@! TO.P,J1,32,D12_N*
G04 #@! TO.N,/D12_N*
X91900000Y-50460000D03*
G04 #@! TO.P,J1,33,D12_P*
G04 #@! TO.N,/D12_P*
X89360000Y-53000000D03*
G04 #@! TO.P,J1,34,D13_P*
G04 #@! TO.N,/D13_P*
X89360000Y-50460000D03*
G04 #@! TO.P,J1,35,D13_N*
G04 #@! TO.N,/D13_N*
X86820000Y-53000000D03*
G04 #@! TO.P,J1,36,D4_N*
G04 #@! TO.N,/D4_N*
X86820000Y-50460000D03*
G04 #@! TO.P,J1,37,D4_P*
G04 #@! TO.N,/D4_P*
X84280000Y-53000000D03*
G04 #@! TO.P,J1,38,D5_P*
G04 #@! TO.N,/D5_P*
X84280000Y-50460000D03*
G04 #@! TO.P,J1,39,D5_N*
G04 #@! TO.N,/D5_N*
X81740000Y-53000000D03*
G04 #@! TO.P,J1,40,GND*
G04 #@! TO.N,GND*
X81740000Y-50460000D03*
G04 #@! TO.P,J1,41,GND*
X79200000Y-53000000D03*
G04 #@! TO.P,J1,42,D14_P*
G04 #@! TO.N,/D14_P*
X79200000Y-50460000D03*
G04 #@! TO.P,J1,43,D14_N*
G04 #@! TO.N,/D14_N*
X76660000Y-53000000D03*
G04 #@! TO.P,J1,44,D15_P*
G04 #@! TO.N,/D15_P*
X76660000Y-50460000D03*
G04 #@! TO.P,J1,45,D15_N*
G04 #@! TO.N,/D15_N*
X74120000Y-53000000D03*
G04 #@! TO.P,J1,46,D6_N*
G04 #@! TO.N,/D6_N*
X74120000Y-50460000D03*
G04 #@! TO.P,J1,47,D6_P*
G04 #@! TO.N,/D6_P*
X71580000Y-53000000D03*
G04 #@! TO.P,J1,48,D7_P*
G04 #@! TO.N,/D7_P*
X71580000Y-50460000D03*
G04 #@! TO.P,J1,49,D7_N*
G04 #@! TO.N,/D7_N*
X69040000Y-53000000D03*
G04 #@! TO.P,J1,50,GND*
G04 #@! TO.N,GND*
X69040000Y-50460000D03*
G04 #@! TD*
D12*
G04 #@! TO.P,H1,1,1*
G04 #@! TO.N,GND*
X61600000Y-74000000D03*
X62302944Y-72302944D03*
X62302944Y-75697056D03*
X64000000Y-71600000D03*
D13*
X64000000Y-74000000D03*
D12*
X64000000Y-76400000D03*
X65697056Y-72302944D03*
X65697056Y-75697056D03*
X66400000Y-74000000D03*
G04 #@! TD*
D14*
G04 #@! TO.P,J3,1,Pin_1*
G04 #@! TO.N,/Vref_8_15_out*
X105300000Y-84440000D03*
D15*
G04 #@! TO.P,J3,2,Pin_2*
G04 #@! TO.N,GND*
X105300000Y-81900000D03*
G04 #@! TO.P,J3,3,Pin_3*
G04 #@! TO.N,/D15_P*
X107840000Y-84440000D03*
G04 #@! TO.P,J3,4,Pin_4*
G04 #@! TO.N,/D15_N*
X107840000Y-81900000D03*
G04 #@! TO.P,J3,5,Pin_5*
G04 #@! TO.N,/D14_P*
X110380000Y-84440000D03*
G04 #@! TO.P,J3,6,Pin_6*
G04 #@! TO.N,/D14_N*
X110380000Y-81900000D03*
G04 #@! TO.P,J3,7,Pin_7*
G04 #@! TO.N,/D13_P*
X112920000Y-84440000D03*
G04 #@! TO.P,J3,8,Pin_8*
G04 #@! TO.N,/D13_N*
X112920000Y-81900000D03*
G04 #@! TO.P,J3,9,Pin_9*
G04 #@! TO.N,/D12_P*
X115460000Y-84440000D03*
G04 #@! TO.P,J3,10,Pin_10*
G04 #@! TO.N,/D12_N*
X115460000Y-81900000D03*
G04 #@! TO.P,J3,11,Pin_11*
G04 #@! TO.N,GND*
X118000000Y-84440000D03*
G04 #@! TO.P,J3,12,Pin_12*
X118000000Y-81900000D03*
G04 #@! TO.P,J3,13,Pin_13*
G04 #@! TO.N,+4V*
X120540000Y-84440000D03*
G04 #@! TO.P,J3,14,Pin_14*
X120540000Y-81900000D03*
G04 #@! TO.P,J3,15,Pin_15*
G04 #@! TO.N,/D11_P*
X123080000Y-84440000D03*
G04 #@! TO.P,J3,16,Pin_16*
G04 #@! TO.N,/D11_N*
X123080000Y-81900000D03*
G04 #@! TO.P,J3,17,Pin_17*
G04 #@! TO.N,/D10_P*
X125620000Y-84440000D03*
G04 #@! TO.P,J3,18,Pin_18*
G04 #@! TO.N,/D10_N*
X125620000Y-81900000D03*
G04 #@! TO.P,J3,19,Pin_19*
G04 #@! TO.N,/D9_P*
X128160000Y-84440000D03*
G04 #@! TO.P,J3,20,Pin_20*
G04 #@! TO.N,/D9_N*
X128160000Y-81900000D03*
G04 #@! TO.P,J3,21,Pin_21*
G04 #@! TO.N,/D8_P*
X130700000Y-84440000D03*
G04 #@! TO.P,J3,22,Pin_22*
G04 #@! TO.N,/D8_N*
X130700000Y-81900000D03*
G04 #@! TO.P,J3,23,Pin_23*
G04 #@! TO.N,GND*
X133240000Y-84440000D03*
G04 #@! TO.P,J3,24,Pin_24*
X133240000Y-81900000D03*
G04 #@! TD*
D12*
G04 #@! TO.P,H2,1,1*
G04 #@! TO.N,GND*
X132600000Y-74000000D03*
X133302944Y-72302944D03*
X133302944Y-75697056D03*
X135000000Y-71600000D03*
D13*
X135000000Y-74000000D03*
D12*
X135000000Y-76400000D03*
X136697056Y-72302944D03*
X136697056Y-75697056D03*
X137400000Y-74000000D03*
G04 #@! TD*
D14*
G04 #@! TO.P,J2,1,Pin_1*
G04 #@! TO.N,/Vref_0_7_out*
X65900000Y-84440000D03*
D15*
G04 #@! TO.P,J2,2,Pin_2*
G04 #@! TO.N,GND*
X65900000Y-81900000D03*
G04 #@! TO.P,J2,3,Pin_3*
G04 #@! TO.N,/D7_P*
X68440000Y-84440000D03*
G04 #@! TO.P,J2,4,Pin_4*
G04 #@! TO.N,/D7_N*
X68440000Y-81900000D03*
G04 #@! TO.P,J2,5,Pin_5*
G04 #@! TO.N,/D6_P*
X70980000Y-84440000D03*
G04 #@! TO.P,J2,6,Pin_6*
G04 #@! TO.N,/D6_N*
X70980000Y-81900000D03*
G04 #@! TO.P,J2,7,Pin_7*
G04 #@! TO.N,/D5_P*
X73520000Y-84440000D03*
G04 #@! TO.P,J2,8,Pin_8*
G04 #@! TO.N,/D5_N*
X73520000Y-81900000D03*
G04 #@! TO.P,J2,9,Pin_9*
G04 #@! TO.N,/D4_P*
X76060000Y-84440000D03*
G04 #@! TO.P,J2,10,Pin_10*
G04 #@! TO.N,/D4_N*
X76060000Y-81900000D03*
G04 #@! TO.P,J2,11,Pin_11*
G04 #@! TO.N,GND*
X78600000Y-84440000D03*
G04 #@! TO.P,J2,12,Pin_12*
X78600000Y-81900000D03*
G04 #@! TO.P,J2,13,Pin_13*
G04 #@! TO.N,+4V*
X81140000Y-84440000D03*
G04 #@! TO.P,J2,14,Pin_14*
X81140000Y-81900000D03*
G04 #@! TO.P,J2,15,Pin_15*
G04 #@! TO.N,/D3_P*
X83680000Y-84440000D03*
G04 #@! TO.P,J2,16,Pin_16*
G04 #@! TO.N,/D3_N*
X83680000Y-81900000D03*
G04 #@! TO.P,J2,17,Pin_17*
G04 #@! TO.N,/D2_P*
X86220000Y-84440000D03*
G04 #@! TO.P,J2,18,Pin_18*
G04 #@! TO.N,/D2_N*
X86220000Y-81900000D03*
G04 #@! TO.P,J2,19,Pin_19*
G04 #@! TO.N,/D1_P*
X88760000Y-84440000D03*
G04 #@! TO.P,J2,20,Pin_20*
G04 #@! TO.N,/D1_N*
X88760000Y-81900000D03*
G04 #@! TO.P,J2,21,Pin_21*
G04 #@! TO.N,/D0_P*
X91300000Y-84440000D03*
G04 #@! TO.P,J2,22,Pin_22*
G04 #@! TO.N,/D0_N*
X91300000Y-81900000D03*
G04 #@! TO.P,J2,23,Pin_23*
G04 #@! TO.N,GND*
X93840000Y-84440000D03*
G04 #@! TO.P,J2,24,Pin_24*
X93840000Y-81900000D03*
G04 #@! TD*
D16*
G04 #@! TO.N,+4V*
X126000000Y-63000000D03*
X120000000Y-62000000D03*
X135800000Y-84000000D03*
X132000000Y-66000000D03*
G04 #@! TO.N,GND*
X98400000Y-64800000D03*
X109200000Y-79000000D03*
X112600000Y-70000000D03*
X117400000Y-79200000D03*
X73600000Y-58200000D03*
X78000000Y-62000000D03*
X88400000Y-58800000D03*
X137500000Y-69300000D03*
X121700000Y-68650000D03*
X106200000Y-79600000D03*
X117800000Y-67800000D03*
X121600000Y-79200000D03*
X124200000Y-79200000D03*
X92200000Y-57200000D03*
X120500000Y-58000000D03*
X95400000Y-64600000D03*
X108000000Y-65400000D03*
X130000000Y-69500000D03*
X114200000Y-57200000D03*
X88000000Y-78200000D03*
X117500000Y-75500000D03*
X120600000Y-55000000D03*
X98000000Y-68000000D03*
X90800000Y-61600000D03*
X126800000Y-79800000D03*
X85200000Y-77600000D03*
X100000000Y-69600000D03*
X79400000Y-57000000D03*
X105200000Y-59000000D03*
X91000000Y-78800000D03*
X111000000Y-57000000D03*
X89600000Y-60400000D03*
X124500000Y-70000000D03*
X98200000Y-59800000D03*
X108200000Y-57000000D03*
X126000000Y-72500000D03*
X137700000Y-77900000D03*
X82400000Y-58200000D03*
X100200000Y-65600000D03*
X102000000Y-67600000D03*
X134200000Y-60900000D03*
X126000000Y-70000000D03*
X101800000Y-71400000D03*
X132500000Y-79500000D03*
X85400000Y-58800000D03*
X85000000Y-71600000D03*
X103200000Y-60800000D03*
X123100000Y-61500000D03*
X98200000Y-71400000D03*
X87600000Y-67800000D03*
X104000000Y-65400000D03*
X98800000Y-62200000D03*
X92400000Y-59000000D03*
X80000000Y-77600000D03*
X66000000Y-58400000D03*
X100200000Y-74000000D03*
X91800000Y-55000000D03*
X63800000Y-68200000D03*
X114400000Y-64000000D03*
X106000000Y-63400000D03*
X102200000Y-63600000D03*
X82400000Y-66600000D03*
X73800000Y-71000000D03*
X128600000Y-78000000D03*
X95200000Y-79000000D03*
X111200000Y-61000000D03*
X104000000Y-69400000D03*
X91000000Y-71400000D03*
X132500000Y-61500000D03*
X91400000Y-64600000D03*
X126500000Y-58000000D03*
X110000000Y-63600000D03*
X107600000Y-61200000D03*
X119000000Y-63000000D03*
X132500000Y-55900000D03*
X134300000Y-65600000D03*
X114400000Y-77400000D03*
X124500000Y-54500000D03*
X109000000Y-70400000D03*
X98600000Y-57200000D03*
X94200000Y-68000000D03*
X62500000Y-85000000D03*
X70400000Y-57600000D03*
X114600000Y-68000000D03*
X70400000Y-76800000D03*
X111600000Y-77200000D03*
X125600000Y-75200000D03*
X128900000Y-61600000D03*
X95400000Y-57600000D03*
X119500000Y-80500000D03*
X95400000Y-62200000D03*
X87600000Y-64000000D03*
X75600000Y-74800000D03*
X95000000Y-71200000D03*
X62500000Y-80500000D03*
X122200000Y-71800000D03*
X106200000Y-67400000D03*
X95400000Y-59800000D03*
G04 #@! TO.N,Net-(J1-ProbeDet)*
X133000000Y-58000000D03*
G04 #@! TO.N,/D8_P*
X116550000Y-54700000D03*
G04 #@! TO.N,/D0_P*
X110907122Y-54457122D03*
G04 #@! TO.N,/D10_N*
X103934437Y-56803028D03*
G04 #@! TO.N,/D10_P*
X102934437Y-56803028D03*
G04 #@! TO.N,/D11_N*
X100900000Y-56850000D03*
G04 #@! TO.N,/D11_P*
X99900000Y-56850000D03*
G04 #@! TO.N,/D2_P*
X98344622Y-54394622D03*
G04 #@! TO.N,/D12_N*
X89350000Y-57100000D03*
G04 #@! TO.N,/D12_P*
X90350000Y-57100000D03*
X90846891Y-54699018D03*
G04 #@! TO.N,/D13_P*
X87400000Y-57100000D03*
G04 #@! TO.N,/D13_N*
X86400000Y-57100000D03*
G04 #@! TO.N,/D4_P*
X85447795Y-54447795D03*
G04 #@! TO.N,/D14_P*
X78400000Y-57050000D03*
G04 #@! TO.N,/D14_N*
X77400000Y-57050000D03*
G04 #@! TO.N,/D15_N*
X74300000Y-56950000D03*
G04 #@! TO.N,/D6_P*
X72900000Y-54500000D03*
G04 #@! TO.N,/Vref_0_7_out*
X128500000Y-66000000D03*
G04 #@! TO.N,/D15_P*
X75300000Y-56950000D03*
G04 #@! TD*
D17*
G04 #@! TO.N,+4V*
X120700000Y-85800000D02*
X82600000Y-85800000D01*
X126000000Y-63000000D02*
X122500000Y-63000000D01*
X131500000Y-63000000D02*
X132000000Y-63500000D01*
X122500000Y-63000000D02*
X121500000Y-62000000D01*
X120540000Y-85640000D02*
X120700000Y-85800000D01*
X81140000Y-84340000D02*
X81140000Y-81900000D01*
X82600000Y-85800000D02*
X81140000Y-84340000D01*
X132000000Y-63500000D02*
X132000000Y-66000000D01*
X121500000Y-62000000D02*
X120000000Y-62000000D01*
X120540000Y-81900000D02*
X120540000Y-85640000D01*
X126000000Y-63000000D02*
X131500000Y-63000000D01*
X135800000Y-84000000D02*
X134000000Y-85800000D01*
X134000000Y-85800000D02*
X120700000Y-85800000D01*
G04 #@! TO.N,GND*
X79200000Y-56800000D02*
X79400000Y-57000000D01*
X79200000Y-53000000D02*
X79200000Y-56800000D01*
D18*
G04 #@! TO.N,Net-(J1-ProbeDet)*
X130000000Y-53000000D02*
X130000000Y-56000000D01*
X130000000Y-56000000D02*
X132000000Y-58000000D01*
X132000000Y-58000000D02*
X133000000Y-58000000D01*
D19*
G04 #@! TO.N,/D8_P*
X116550000Y-54700000D02*
X116460000Y-54700000D01*
X116460000Y-54700000D02*
X114760000Y-53000000D01*
G04 #@! TO.N,/D0_P*
X110907122Y-54227122D02*
X109680000Y-53000000D01*
X110907122Y-54457122D02*
X110907122Y-54227122D01*
G04 #@! TO.N,/D10_N*
X104032844Y-57750000D02*
X103634437Y-57351593D01*
X125650000Y-77267156D02*
X106132844Y-57750000D01*
X103634437Y-57103028D02*
X103934437Y-56803028D01*
X125650000Y-78600000D02*
X125650000Y-77267156D01*
X106132844Y-57750000D02*
X104032844Y-57750000D01*
X103634437Y-57351593D02*
X103634437Y-57103028D01*
X125620000Y-81900000D02*
X125620000Y-78630000D01*
X125620000Y-78630000D02*
X125650000Y-78600000D01*
G04 #@! TO.N,/D10_P*
X124470000Y-81250000D02*
X125070000Y-80650000D01*
X124470000Y-83290000D02*
X124470000Y-81250000D01*
X125070000Y-80650000D02*
X125220000Y-80650000D01*
X103234437Y-57517281D02*
X103234437Y-57103028D01*
X125620000Y-84440000D02*
X124470000Y-83290000D01*
X125220000Y-80650000D02*
X125220000Y-77402844D01*
X103234437Y-57103028D02*
X102934437Y-56803028D01*
X103867156Y-58150000D02*
X103234437Y-57517281D01*
X125220000Y-77402844D02*
X105967156Y-58150000D01*
X105967156Y-58150000D02*
X103867156Y-58150000D01*
G04 #@! TO.N,/D11_N*
X104182844Y-59350000D02*
X101682844Y-59350000D01*
X100600000Y-58267156D02*
X100600000Y-57150000D01*
X100600000Y-57150000D02*
X100900000Y-56850000D01*
X123080000Y-78247156D02*
X104182844Y-59350000D01*
X101682844Y-59350000D02*
X100600000Y-58267156D01*
X123080000Y-81900000D02*
X123080000Y-78247156D01*
G04 #@! TO.N,/D11_P*
X100200000Y-58432844D02*
X100200000Y-57150000D01*
X101517156Y-59750000D02*
X100200000Y-58432844D01*
X123080000Y-84440000D02*
X121930000Y-83290000D01*
X104017156Y-59750000D02*
X101517156Y-59750000D01*
X100200000Y-57150000D02*
X99900000Y-56850000D01*
X121930000Y-83290000D02*
X121930000Y-81370000D01*
X122680000Y-80620000D02*
X122680000Y-78412844D01*
X122680000Y-78412844D02*
X104017156Y-59750000D01*
X121930000Y-81370000D02*
X122680000Y-80620000D01*
G04 #@! TO.N,/D2_P*
X98344622Y-54394622D02*
X98344622Y-54364622D01*
X98344622Y-54364622D02*
X96980000Y-53000000D01*
G04 #@! TO.N,/D12_N*
X89650000Y-57400000D02*
X89350000Y-57100000D01*
X115460000Y-81900000D02*
X115460000Y-75142844D01*
X89650000Y-58682844D02*
X89650000Y-57400000D01*
X101717156Y-61400000D02*
X92367156Y-61400000D01*
X115460000Y-75142844D02*
X101717156Y-61400000D01*
X92367156Y-61400000D02*
X89650000Y-58682844D01*
G04 #@! TO.N,/D12_P*
X92532844Y-61000000D02*
X90050000Y-58517156D01*
X115460000Y-84440000D02*
X116610000Y-83290000D01*
X90846891Y-54699018D02*
X90846891Y-54486891D01*
X90846891Y-54486891D02*
X89360000Y-53000000D01*
X116610000Y-83290000D02*
X116610000Y-81010000D01*
X101882844Y-61000000D02*
X92532844Y-61000000D01*
X115860000Y-80260000D02*
X115860000Y-74977156D01*
X115860000Y-74977156D02*
X101882844Y-61000000D01*
X116610000Y-81010000D02*
X115860000Y-80260000D01*
X90050000Y-57400000D02*
X90350000Y-57100000D01*
X90050000Y-58517156D02*
X90050000Y-57400000D01*
G04 #@! TO.N,/D13_P*
X87100000Y-60267156D02*
X87100000Y-57400000D01*
X113346346Y-80700000D02*
X113320000Y-80700000D01*
X113320000Y-80700000D02*
X113320000Y-76237156D01*
X114070000Y-81423654D02*
X113346346Y-80700000D01*
X100082844Y-63000000D02*
X89832844Y-63000000D01*
X87100000Y-57400000D02*
X87400000Y-57100000D01*
X112920000Y-84440000D02*
X114070000Y-83290000D01*
X89832844Y-63000000D02*
X87100000Y-60267156D01*
X114070000Y-83290000D02*
X114070000Y-81423654D01*
X113320000Y-76237156D02*
X100082844Y-63000000D01*
G04 #@! TO.N,/D13_N*
X112920000Y-76402844D02*
X99917156Y-63400000D01*
X86700000Y-57400000D02*
X86400000Y-57100000D01*
X112920000Y-81900000D02*
X112920000Y-76402844D01*
X86700000Y-60432844D02*
X86700000Y-57400000D01*
X89667156Y-63400000D02*
X86700000Y-60432844D01*
X99917156Y-63400000D02*
X89667156Y-63400000D01*
G04 #@! TO.N,/D4_P*
X85447795Y-54447795D02*
X85447795Y-54167795D01*
X85447795Y-54167795D02*
X84280000Y-53000000D01*
G04 #@! TO.N,/D14_P*
X111530000Y-81280000D02*
X110850000Y-80600000D01*
X110380000Y-84440000D02*
X111530000Y-83290000D01*
X78100000Y-57350000D02*
X78400000Y-57050000D01*
X85582844Y-66100000D02*
X78100000Y-58617156D01*
X78100000Y-58617156D02*
X78100000Y-57350000D01*
X110850000Y-80600000D02*
X110850000Y-78550000D01*
X111530000Y-83290000D02*
X111530000Y-81280000D01*
X98400000Y-66100000D02*
X85582844Y-66100000D01*
X110850000Y-78550000D02*
X98400000Y-66100000D01*
G04 #@! TO.N,/D14_N*
X77700000Y-57350000D02*
X77400000Y-57050000D01*
X110380000Y-78680000D02*
X98200000Y-66500000D01*
X77700000Y-58782844D02*
X77700000Y-57350000D01*
X110380000Y-81900000D02*
X110380000Y-78680000D01*
X85417156Y-66500000D02*
X77700000Y-58782844D01*
X98200000Y-66500000D02*
X85417156Y-66500000D01*
G04 #@! TO.N,/D15_N*
X74600000Y-57250000D02*
X74300000Y-56950000D01*
X98217156Y-69650000D02*
X81617156Y-69650000D01*
X107840000Y-81900000D02*
X107840000Y-79272844D01*
X81617156Y-69650000D02*
X74600000Y-62632844D01*
X107840000Y-79272844D02*
X98217156Y-69650000D01*
X74600000Y-62632844D02*
X74600000Y-57250000D01*
G04 #@! TO.N,/D6_P*
X72900000Y-54500000D02*
X72900000Y-54320000D01*
X72900000Y-54320000D02*
X71580000Y-53000000D01*
D17*
G04 #@! TO.N,/Vref_0_7_out*
X68060000Y-86600000D02*
X65900000Y-84440000D01*
X134800000Y-86600000D02*
X68060000Y-86600000D01*
X136000000Y-80500000D02*
X136600000Y-81100000D01*
X128500000Y-74000000D02*
X135000000Y-80500000D01*
X136600000Y-81100000D02*
X136600000Y-84800000D01*
X136600000Y-84800000D02*
X134800000Y-86600000D01*
X135000000Y-80500000D02*
X136000000Y-80500000D01*
X128500000Y-66000000D02*
X128500000Y-74000000D01*
D19*
G04 #@! TO.N,/D15_P*
X108990000Y-83290000D02*
X108990000Y-81140000D01*
X98382844Y-69250000D02*
X81782844Y-69250000D01*
X108550000Y-80700000D02*
X108400000Y-80700000D01*
X75000000Y-62467156D02*
X75000000Y-57250000D01*
X81782844Y-69250000D02*
X75000000Y-62467156D01*
X108990000Y-81140000D02*
X108550000Y-80700000D01*
X108400000Y-80700000D02*
X108240000Y-80540000D01*
X75000000Y-57250000D02*
X75300000Y-56950000D01*
X108240000Y-79107156D02*
X98382844Y-69250000D01*
X108240000Y-80540000D02*
X108240000Y-79107156D01*
X107840000Y-84440000D02*
X108990000Y-83290000D01*
G04 #@! TD*
G04 #@! TA.AperFunction,Conductor*
G04 #@! TO.N,GND*
G36*
X103764512Y-60359939D02*
G01*
X103804740Y-60386819D01*
X122043181Y-78625260D01*
X122070061Y-78665488D01*
X122079500Y-78712941D01*
X122079500Y-80319903D01*
X122070061Y-80367356D01*
X122043181Y-80407584D01*
X121588011Y-80862753D01*
X121532423Y-80894847D01*
X121468236Y-80894847D01*
X121420568Y-80867325D01*
X121420287Y-80867728D01*
X121415686Y-80864507D01*
X121412649Y-80862753D01*
X121411404Y-80861508D01*
X121411401Y-80861505D01*
X121217830Y-80725965D01*
X121003663Y-80626097D01*
X120942502Y-80609709D01*
X120775407Y-80564936D01*
X120539999Y-80544340D01*
X120304592Y-80564936D01*
X120076336Y-80626097D01*
X119862170Y-80725965D01*
X119668598Y-80861505D01*
X119501505Y-81028598D01*
X119365965Y-81222170D01*
X119266097Y-81436336D01*
X119204936Y-81664592D01*
X119184340Y-81899999D01*
X119204936Y-82135407D01*
X119249709Y-82302502D01*
X119266097Y-82363663D01*
X119365965Y-82577830D01*
X119501505Y-82771401D01*
X119501507Y-82771403D01*
X119501508Y-82771404D01*
X119668598Y-82938494D01*
X119786623Y-83021136D01*
X119825489Y-83065454D01*
X119839500Y-83122711D01*
X119839500Y-83217289D01*
X119825489Y-83274546D01*
X119786623Y-83318863D01*
X119762686Y-83335624D01*
X119668598Y-83401505D01*
X119501505Y-83568598D01*
X119365965Y-83762170D01*
X119266097Y-83976336D01*
X119204936Y-84204592D01*
X119184340Y-84439999D01*
X119204936Y-84675407D01*
X119266097Y-84903663D01*
X119275158Y-84923095D01*
X119286511Y-84983610D01*
X119267357Y-85042125D01*
X119222419Y-85084214D01*
X119162776Y-85099500D01*
X116837224Y-85099500D01*
X116777581Y-85084214D01*
X116732643Y-85042125D01*
X116713489Y-84983610D01*
X116724842Y-84923095D01*
X116730000Y-84912032D01*
X116733903Y-84903663D01*
X116795063Y-84675408D01*
X116815659Y-84440000D01*
X116795063Y-84204592D01*
X116760672Y-84076241D01*
X116760672Y-84012054D01*
X116792764Y-83956469D01*
X117001043Y-83748190D01*
X117013223Y-83737509D01*
X117038282Y-83718282D01*
X117134536Y-83592841D01*
X117195044Y-83446762D01*
X117210500Y-83329361D01*
X117215682Y-83290000D01*
X117211560Y-83258697D01*
X117210500Y-83242513D01*
X117210500Y-81057487D01*
X117211561Y-81041301D01*
X117213233Y-81028599D01*
X117215682Y-81010000D01*
X117195044Y-80853238D01*
X117134536Y-80707159D01*
X117121297Y-80689906D01*
X117109337Y-80674319D01*
X117109336Y-80674318D01*
X117038282Y-80581717D01*
X117013229Y-80562494D01*
X117001034Y-80551799D01*
X116496819Y-80047584D01*
X116469939Y-80007356D01*
X116460500Y-79959903D01*
X116460500Y-75024650D01*
X116461561Y-75008464D01*
X116465683Y-74977156D01*
X116445044Y-74820394D01*
X116384536Y-74674315D01*
X116370118Y-74655526D01*
X116312454Y-74580375D01*
X116312452Y-74580373D01*
X116312450Y-74580371D01*
X116288282Y-74548874D01*
X116263229Y-74529650D01*
X116251035Y-74518956D01*
X102341043Y-60608964D01*
X102330347Y-60596768D01*
X102301187Y-60558765D01*
X102301388Y-60558610D01*
X102274842Y-60524934D01*
X102264504Y-60464770D01*
X102284127Y-60406964D01*
X102328955Y-60365527D01*
X102388122Y-60350500D01*
X103717059Y-60350500D01*
X103764512Y-60359939D01*
G37*
G04 #@! TD.AperFunction*
G04 #@! TA.AperFunction,Conductor*
G36*
X88459884Y-57324218D02*
G01*
X88492931Y-57376292D01*
X88522820Y-57468284D01*
X88617466Y-57632216D01*
X88744129Y-57772889D01*
X88897267Y-57884150D01*
X88924595Y-57896317D01*
X88975936Y-57919175D01*
X89014698Y-57946317D01*
X89040471Y-57986004D01*
X89049500Y-58032455D01*
X89049500Y-58635357D01*
X89048439Y-58651543D01*
X89044317Y-58682844D01*
X89049500Y-58722204D01*
X89049500Y-58722205D01*
X89064956Y-58839606D01*
X89125463Y-58985684D01*
X89221716Y-59111125D01*
X89246768Y-59130347D01*
X89258964Y-59141043D01*
X91908955Y-61791034D01*
X91919650Y-61803229D01*
X91938873Y-61828282D01*
X92057867Y-61919588D01*
X92062786Y-61923902D01*
X92064313Y-61924534D01*
X92064314Y-61924535D01*
X92064315Y-61924536D01*
X92210394Y-61985044D01*
X92288775Y-61995363D01*
X92367155Y-62005682D01*
X92367155Y-62005681D01*
X92367156Y-62005682D01*
X92398458Y-62001560D01*
X92414643Y-62000500D01*
X101417059Y-62000500D01*
X101464512Y-62009939D01*
X101504740Y-62036819D01*
X114823181Y-75355260D01*
X114850061Y-75395488D01*
X114859500Y-75442941D01*
X114859500Y-80610909D01*
X114840081Y-80677533D01*
X114787907Y-80723290D01*
X114782171Y-80725964D01*
X114588599Y-80861503D01*
X114560520Y-80889582D01*
X114504932Y-80921673D01*
X114440746Y-80921673D01*
X114385160Y-80889579D01*
X113956819Y-80461238D01*
X113929939Y-80421010D01*
X113920500Y-80373557D01*
X113920500Y-76284650D01*
X113921561Y-76268464D01*
X113925683Y-76237156D01*
X113905044Y-76080394D01*
X113844536Y-75934315D01*
X113830118Y-75915526D01*
X113772454Y-75840375D01*
X113772452Y-75840373D01*
X113772450Y-75840371D01*
X113748282Y-75808874D01*
X113723229Y-75789650D01*
X113711035Y-75778956D01*
X100541043Y-62608964D01*
X100530347Y-62596768D01*
X100527826Y-62593483D01*
X100526248Y-62591426D01*
X100511125Y-62571716D01*
X100385684Y-62475463D01*
X100239606Y-62414956D01*
X100122205Y-62399500D01*
X100117624Y-62398897D01*
X100082844Y-62394317D01*
X100055007Y-62397982D01*
X100051541Y-62398439D01*
X100035357Y-62399500D01*
X90132941Y-62399500D01*
X90085488Y-62390061D01*
X90045260Y-62363181D01*
X87736819Y-60054740D01*
X87709939Y-60014512D01*
X87700500Y-59967059D01*
X87700500Y-58032455D01*
X87709529Y-57986004D01*
X87735302Y-57946317D01*
X87774063Y-57919175D01*
X87852730Y-57884151D01*
X87852730Y-57884150D01*
X87852732Y-57884150D01*
X88005870Y-57772889D01*
X88132533Y-57632216D01*
X88227179Y-57468284D01*
X88257069Y-57376292D01*
X88290116Y-57324218D01*
X88344162Y-57294506D01*
X88405838Y-57294506D01*
X88459884Y-57324218D01*
G37*
G04 #@! TD.AperFunction*
G04 #@! TA.AperFunction,Conductor*
G36*
X105714512Y-58759939D02*
G01*
X105754740Y-58786819D01*
X124583181Y-77615260D01*
X124610061Y-77655488D01*
X124619500Y-77702941D01*
X124619500Y-80199902D01*
X124610061Y-80247355D01*
X124583181Y-80287583D01*
X124078965Y-80791798D01*
X124066773Y-80802491D01*
X124043647Y-80820237D01*
X123996756Y-80842520D01*
X123944853Y-80843653D01*
X123897038Y-80823439D01*
X123757830Y-80725965D01*
X123752094Y-80723290D01*
X123699919Y-80677534D01*
X123680500Y-80610909D01*
X123680500Y-78294643D01*
X123681561Y-78278457D01*
X123685682Y-78247156D01*
X123665044Y-78090394D01*
X123604536Y-77944315D01*
X123536228Y-77855294D01*
X123536227Y-77855293D01*
X123508282Y-77818873D01*
X123483229Y-77799650D01*
X123471034Y-77788955D01*
X104644260Y-58962181D01*
X104614010Y-58912818D01*
X104609468Y-58855102D01*
X104631623Y-58801615D01*
X104675646Y-58764015D01*
X104731941Y-58750500D01*
X105667059Y-58750500D01*
X105714512Y-58759939D01*
G37*
G04 #@! TD.AperFunction*
G04 #@! TA.AperFunction,Conductor*
G36*
X71018889Y-49018211D02*
G01*
X71064509Y-49066285D01*
X71078854Y-49130989D01*
X71057825Y-49193840D01*
X71007429Y-49236882D01*
X70902170Y-49285965D01*
X70708598Y-49421505D01*
X70541505Y-49588598D01*
X70405965Y-49782170D01*
X70306097Y-49996336D01*
X70244936Y-50224592D01*
X70224340Y-50459999D01*
X70244936Y-50695407D01*
X70289709Y-50862501D01*
X70306097Y-50923663D01*
X70405965Y-51137830D01*
X70541505Y-51331401D01*
X70708599Y-51498495D01*
X70894160Y-51628426D01*
X70933024Y-51672743D01*
X70947035Y-51730000D01*
X70933024Y-51787257D01*
X70894159Y-51831575D01*
X70708595Y-51961508D01*
X70541505Y-52128598D01*
X70411575Y-52314159D01*
X70367257Y-52353025D01*
X70310000Y-52367036D01*
X70252743Y-52353025D01*
X70208425Y-52314159D01*
X70078494Y-52128598D01*
X69911404Y-51961508D01*
X69911401Y-51961505D01*
X69717830Y-51825965D01*
X69503663Y-51726097D01*
X69442501Y-51709709D01*
X69275407Y-51664936D01*
X69040000Y-51644340D01*
X68804592Y-51664936D01*
X68576336Y-51726097D01*
X68362170Y-51825965D01*
X68168598Y-51961505D01*
X68001505Y-52128598D01*
X67865965Y-52322170D01*
X67766097Y-52536336D01*
X67704936Y-52764592D01*
X67684340Y-53000000D01*
X67704936Y-53235407D01*
X67739327Y-53363756D01*
X67766097Y-53463663D01*
X67865965Y-53677830D01*
X68001505Y-53871401D01*
X68168599Y-54038495D01*
X68362170Y-54174035D01*
X68576337Y-54273903D01*
X68804592Y-54335063D01*
X69040000Y-54355659D01*
X69275408Y-54335063D01*
X69503663Y-54273903D01*
X69717830Y-54174035D01*
X69911401Y-54038495D01*
X70078495Y-53871401D01*
X70208426Y-53685839D01*
X70252743Y-53646975D01*
X70310000Y-53632964D01*
X70367257Y-53646975D01*
X70411573Y-53685839D01*
X70541505Y-53871401D01*
X70708599Y-54038495D01*
X70902170Y-54174035D01*
X71116337Y-54273903D01*
X71344592Y-54335063D01*
X71580000Y-54355659D01*
X71815408Y-54335063D01*
X71843294Y-54327590D01*
X71902751Y-54326422D01*
X71955917Y-54353073D01*
X71990559Y-54401413D01*
X71998709Y-54460324D01*
X71994540Y-54499997D01*
X71994540Y-54500000D01*
X72003251Y-54582878D01*
X72014326Y-54688257D01*
X72072820Y-54868284D01*
X72167466Y-55032216D01*
X72294129Y-55172889D01*
X72447269Y-55284151D01*
X72620197Y-55361144D01*
X72805352Y-55400500D01*
X72805354Y-55400500D01*
X72994646Y-55400500D01*
X72994648Y-55400500D01*
X73124551Y-55372888D01*
X73179803Y-55361144D01*
X73352730Y-55284151D01*
X73505871Y-55172888D01*
X73632533Y-55032216D01*
X73727179Y-54868284D01*
X73785674Y-54688256D01*
X73805460Y-54500000D01*
X73802952Y-54476141D01*
X73809206Y-54422302D01*
X73837830Y-54376270D01*
X73883355Y-54346847D01*
X73937079Y-54339655D01*
X74120000Y-54355659D01*
X74355408Y-54335063D01*
X74583663Y-54273903D01*
X74797830Y-54174035D01*
X74991401Y-54038495D01*
X75158495Y-53871401D01*
X75288426Y-53685839D01*
X75332743Y-53646975D01*
X75390000Y-53632964D01*
X75447257Y-53646975D01*
X75491573Y-53685839D01*
X75621505Y-53871401D01*
X75788599Y-54038495D01*
X75982170Y-54174035D01*
X76196337Y-54273903D01*
X76424592Y-54335063D01*
X76660000Y-54355659D01*
X76895408Y-54335063D01*
X77123663Y-54273903D01*
X77337830Y-54174035D01*
X77531401Y-54038495D01*
X77698495Y-53871401D01*
X77834035Y-53677830D01*
X77933903Y-53463663D01*
X77995063Y-53235408D01*
X78015659Y-53000000D01*
X77995063Y-52764592D01*
X77933903Y-52536337D01*
X77834035Y-52322171D01*
X77698495Y-52128599D01*
X77531401Y-51961505D01*
X77345839Y-51831573D01*
X77306974Y-51787255D01*
X77292964Y-51729999D01*
X77306975Y-51672742D01*
X77345837Y-51628428D01*
X77531401Y-51498495D01*
X77698495Y-51331401D01*
X77828426Y-51145839D01*
X77872743Y-51106975D01*
X77930000Y-51092964D01*
X77987257Y-51106975D01*
X78031573Y-51145839D01*
X78161505Y-51331401D01*
X78328599Y-51498495D01*
X78522170Y-51634035D01*
X78736337Y-51733903D01*
X78964592Y-51795063D01*
X79200000Y-51815659D01*
X79435408Y-51795063D01*
X79663663Y-51733903D01*
X79877830Y-51634035D01*
X80071401Y-51498495D01*
X80238495Y-51331401D01*
X80374035Y-51137830D01*
X80473903Y-50923663D01*
X80535063Y-50695408D01*
X80555659Y-50460000D01*
X80535063Y-50224592D01*
X80473903Y-49996337D01*
X80374035Y-49782171D01*
X80238495Y-49588599D01*
X80071401Y-49421505D01*
X79877830Y-49285965D01*
X79772570Y-49236881D01*
X79722175Y-49193840D01*
X79701146Y-49130990D01*
X79715491Y-49066285D01*
X79761111Y-49018211D01*
X79824976Y-49000500D01*
X83655024Y-49000500D01*
X83718889Y-49018211D01*
X83764509Y-49066285D01*
X83778854Y-49130989D01*
X83757825Y-49193840D01*
X83707429Y-49236882D01*
X83602170Y-49285965D01*
X83408598Y-49421505D01*
X83241505Y-49588598D01*
X83105965Y-49782170D01*
X83006097Y-49996336D01*
X82944936Y-50224592D01*
X82924340Y-50459999D01*
X82944936Y-50695407D01*
X82989709Y-50862502D01*
X83006097Y-50923663D01*
X83105965Y-51137830D01*
X83241505Y-51331401D01*
X83408599Y-51498495D01*
X83594160Y-51628426D01*
X83633024Y-51672743D01*
X83647035Y-51730000D01*
X83633024Y-51787257D01*
X83594159Y-51831575D01*
X83408595Y-51961508D01*
X83241505Y-52128598D01*
X83111575Y-52314159D01*
X83067257Y-52353025D01*
X83010000Y-52367036D01*
X82952743Y-52353025D01*
X82908425Y-52314159D01*
X82778494Y-52128598D01*
X82611404Y-51961508D01*
X82611401Y-51961505D01*
X82417830Y-51825965D01*
X82203663Y-51726097D01*
X82142501Y-51709709D01*
X81975407Y-51664936D01*
X81740000Y-51644340D01*
X81504592Y-51664936D01*
X81276336Y-51726097D01*
X81062170Y-51825965D01*
X80868598Y-51961505D01*
X80701505Y-52128598D01*
X80565965Y-52322170D01*
X80466097Y-52536336D01*
X80404936Y-52764592D01*
X80384340Y-53000000D01*
X80404936Y-53235407D01*
X80439327Y-53363756D01*
X80466097Y-53463663D01*
X80565965Y-53677830D01*
X80701505Y-53871401D01*
X80868599Y-54038495D01*
X81062170Y-54174035D01*
X81276337Y-54273903D01*
X81504592Y-54335063D01*
X81740000Y-54355659D01*
X81975408Y-54335063D01*
X82203663Y-54273903D01*
X82417830Y-54174035D01*
X82611401Y-54038495D01*
X82778495Y-53871401D01*
X82908426Y-53685839D01*
X82952743Y-53646975D01*
X83010000Y-53632964D01*
X83067257Y-53646975D01*
X83111573Y-53685839D01*
X83241505Y-53871401D01*
X83408599Y-54038495D01*
X83602170Y-54174035D01*
X83816337Y-54273903D01*
X84038912Y-54333541D01*
X84044592Y-54335063D01*
X84279999Y-54355659D01*
X84279999Y-54355658D01*
X84280000Y-54355659D01*
X84408958Y-54344376D01*
X84471514Y-54355219D01*
X84520505Y-54395603D01*
X84543086Y-54454942D01*
X84562121Y-54636052D01*
X84620615Y-54816079D01*
X84715261Y-54980011D01*
X84841924Y-55120684D01*
X84995064Y-55231946D01*
X85167992Y-55308939D01*
X85353147Y-55348295D01*
X85353149Y-55348295D01*
X85542441Y-55348295D01*
X85542443Y-55348295D01*
X85665879Y-55322057D01*
X85727598Y-55308939D01*
X85900525Y-55231946D01*
X85973712Y-55178773D01*
X86053665Y-55120684D01*
X86180328Y-54980011D01*
X86274974Y-54816079D01*
X86292251Y-54762906D01*
X86333469Y-54636051D01*
X86353255Y-54447795D01*
X86353218Y-54447445D01*
X86353523Y-54445238D01*
X86354617Y-54434834D01*
X86354957Y-54434869D01*
X86361366Y-54388536D01*
X86396007Y-54340195D01*
X86449172Y-54313543D01*
X86508632Y-54314709D01*
X86584592Y-54335063D01*
X86820000Y-54355659D01*
X87055408Y-54335063D01*
X87283663Y-54273903D01*
X87497830Y-54174035D01*
X87691401Y-54038495D01*
X87858495Y-53871401D01*
X87988426Y-53685839D01*
X88032743Y-53646975D01*
X88090000Y-53632964D01*
X88147257Y-53646975D01*
X88191573Y-53685839D01*
X88321505Y-53871401D01*
X88488599Y-54038495D01*
X88682170Y-54174035D01*
X88896337Y-54273903D01*
X89124592Y-54335063D01*
X89360000Y-54355659D01*
X89595408Y-54335063D01*
X89723757Y-54300672D01*
X89787943Y-54300672D01*
X89843531Y-54332766D01*
X89925131Y-54414366D01*
X89954337Y-54460655D01*
X89960770Y-54515006D01*
X89941431Y-54699018D01*
X89945501Y-54737741D01*
X89961217Y-54887275D01*
X90019711Y-55067302D01*
X90114357Y-55231234D01*
X90241020Y-55371907D01*
X90394160Y-55483169D01*
X90567088Y-55560162D01*
X90752243Y-55599518D01*
X90752245Y-55599518D01*
X90941537Y-55599518D01*
X90941539Y-55599518D01*
X91064975Y-55573280D01*
X91126694Y-55560162D01*
X91299621Y-55483169D01*
X91451409Y-55372889D01*
X91452761Y-55371907D01*
X91474022Y-55348295D01*
X91579424Y-55231234D01*
X91674070Y-55067302D01*
X91732565Y-54887274D01*
X91752351Y-54699018D01*
X91732565Y-54510762D01*
X91687586Y-54372332D01*
X91674070Y-54330733D01*
X91579424Y-54166801D01*
X91452761Y-54026128D01*
X91299623Y-53914867D01*
X91126692Y-53837873D01*
X91061552Y-53824027D01*
X91028166Y-53811710D01*
X90999653Y-53790418D01*
X90692766Y-53483531D01*
X90660672Y-53427943D01*
X90660672Y-53363756D01*
X90695063Y-53235408D01*
X90715659Y-53000000D01*
X90695063Y-52764592D01*
X90633903Y-52536337D01*
X90534035Y-52322171D01*
X90398495Y-52128599D01*
X90231401Y-51961505D01*
X90045839Y-51831573D01*
X90006974Y-51787255D01*
X89992964Y-51729999D01*
X90006975Y-51672742D01*
X90045837Y-51628428D01*
X90231401Y-51498495D01*
X90398495Y-51331401D01*
X90528426Y-51145839D01*
X90572743Y-51106975D01*
X90630000Y-51092964D01*
X90687257Y-51106975D01*
X90731573Y-51145839D01*
X90861505Y-51331401D01*
X91028599Y-51498495D01*
X91222170Y-51634035D01*
X91436337Y-51733903D01*
X91664592Y-51795063D01*
X91900000Y-51815659D01*
X92135408Y-51795063D01*
X92363663Y-51733903D01*
X92577830Y-51634035D01*
X92771401Y-51498495D01*
X92938495Y-51331401D01*
X93074035Y-51137830D01*
X93173903Y-50923663D01*
X93235063Y-50695408D01*
X93255659Y-50460000D01*
X93235063Y-50224592D01*
X93173903Y-49996337D01*
X93074035Y-49782171D01*
X92938495Y-49588599D01*
X92771401Y-49421505D01*
X92577830Y-49285965D01*
X92472570Y-49236881D01*
X92422175Y-49193840D01*
X92401146Y-49130990D01*
X92415491Y-49066285D01*
X92461111Y-49018211D01*
X92524976Y-49000500D01*
X96355024Y-49000500D01*
X96418889Y-49018211D01*
X96464509Y-49066285D01*
X96478854Y-49130989D01*
X96457825Y-49193840D01*
X96407429Y-49236882D01*
X96302170Y-49285965D01*
X96108598Y-49421505D01*
X95941505Y-49588598D01*
X95805965Y-49782170D01*
X95706097Y-49996336D01*
X95644936Y-50224592D01*
X95624340Y-50459999D01*
X95644936Y-50695407D01*
X95689709Y-50862502D01*
X95706097Y-50923663D01*
X95805965Y-51137830D01*
X95941505Y-51331401D01*
X96108599Y-51498495D01*
X96294160Y-51628426D01*
X96333024Y-51672743D01*
X96347035Y-51730000D01*
X96333024Y-51787257D01*
X96294159Y-51831575D01*
X96108595Y-51961508D01*
X95941505Y-52128598D01*
X95811575Y-52314159D01*
X95767257Y-52353025D01*
X95710000Y-52367036D01*
X95652743Y-52353025D01*
X95608425Y-52314159D01*
X95478494Y-52128598D01*
X95311404Y-51961508D01*
X95311401Y-51961505D01*
X95117830Y-51825965D01*
X94903663Y-51726097D01*
X94842501Y-51709709D01*
X94675407Y-51664936D01*
X94440000Y-51644340D01*
X94204592Y-51664936D01*
X93976336Y-51726097D01*
X93762170Y-51825965D01*
X93568598Y-51961505D01*
X93401505Y-52128598D01*
X93265965Y-52322170D01*
X93166097Y-52536336D01*
X93104936Y-52764592D01*
X93084340Y-53000000D01*
X93104936Y-53235407D01*
X93139327Y-53363756D01*
X93166097Y-53463663D01*
X93265965Y-53677830D01*
X93401505Y-53871401D01*
X93568599Y-54038495D01*
X93762170Y-54174035D01*
X93976337Y-54273903D01*
X94204592Y-54335063D01*
X94440000Y-54355659D01*
X94675408Y-54335063D01*
X94903663Y-54273903D01*
X95117830Y-54174035D01*
X95311401Y-54038495D01*
X95478495Y-53871401D01*
X95608426Y-53685839D01*
X95652743Y-53646975D01*
X95710000Y-53632964D01*
X95767257Y-53646975D01*
X95811573Y-53685839D01*
X95941505Y-53871401D01*
X96108599Y-54038495D01*
X96302170Y-54174035D01*
X96516337Y-54273903D01*
X96738912Y-54333541D01*
X96744592Y-54335063D01*
X96980000Y-54355659D01*
X97215409Y-54335063D01*
X97286705Y-54315959D01*
X97339798Y-54313524D01*
X97389034Y-54333541D01*
X97425366Y-54372332D01*
X97442120Y-54422770D01*
X97451472Y-54511744D01*
X97458948Y-54582879D01*
X97517442Y-54762906D01*
X97612088Y-54926838D01*
X97738751Y-55067511D01*
X97891891Y-55178773D01*
X98064819Y-55255766D01*
X98249974Y-55295122D01*
X98249976Y-55295122D01*
X98439268Y-55295122D01*
X98439270Y-55295122D01*
X98562706Y-55268884D01*
X98624425Y-55255766D01*
X98797352Y-55178773D01*
X98805452Y-55172888D01*
X98950492Y-55067511D01*
X99077155Y-54926838D01*
X99171801Y-54762906D01*
X99190066Y-54706691D01*
X99230296Y-54582878D01*
X99243862Y-54453796D01*
X99266441Y-54394462D01*
X99315432Y-54354077D01*
X99377988Y-54343234D01*
X99520000Y-54355659D01*
X99755408Y-54335063D01*
X99983663Y-54273903D01*
X100197830Y-54174035D01*
X100391401Y-54038495D01*
X100558495Y-53871401D01*
X100688426Y-53685839D01*
X100732743Y-53646975D01*
X100790000Y-53632964D01*
X100847257Y-53646975D01*
X100891573Y-53685839D01*
X101021505Y-53871401D01*
X101188599Y-54038495D01*
X101382170Y-54174035D01*
X101596337Y-54273903D01*
X101824592Y-54335063D01*
X102060000Y-54355659D01*
X102295408Y-54335063D01*
X102523663Y-54273903D01*
X102737830Y-54174035D01*
X102931401Y-54038495D01*
X103098495Y-53871401D01*
X103234035Y-53677830D01*
X103333903Y-53463663D01*
X103395063Y-53235408D01*
X103415659Y-53000000D01*
X103395063Y-52764592D01*
X103333903Y-52536337D01*
X103234035Y-52322171D01*
X103098495Y-52128599D01*
X102931401Y-51961505D01*
X102745839Y-51831573D01*
X102706974Y-51787255D01*
X102692964Y-51729999D01*
X102706975Y-51672742D01*
X102745837Y-51628428D01*
X102931401Y-51498495D01*
X103098495Y-51331401D01*
X103228426Y-51145839D01*
X103272743Y-51106975D01*
X103330000Y-51092964D01*
X103387257Y-51106975D01*
X103431573Y-51145839D01*
X103561505Y-51331401D01*
X103728599Y-51498495D01*
X103922170Y-51634035D01*
X104136337Y-51733903D01*
X104364592Y-51795063D01*
X104600000Y-51815659D01*
X104835408Y-51795063D01*
X105063663Y-51733903D01*
X105277830Y-51634035D01*
X105471401Y-51498495D01*
X105638495Y-51331401D01*
X105774035Y-51137830D01*
X105873903Y-50923663D01*
X105935063Y-50695408D01*
X105955659Y-50460000D01*
X105935063Y-50224592D01*
X105873903Y-49996337D01*
X105774035Y-49782171D01*
X105638495Y-49588599D01*
X105471401Y-49421505D01*
X105277830Y-49285965D01*
X105172570Y-49236881D01*
X105122175Y-49193840D01*
X105101146Y-49130990D01*
X105115491Y-49066285D01*
X105161111Y-49018211D01*
X105224976Y-49000500D01*
X109055024Y-49000500D01*
X109118889Y-49018211D01*
X109164509Y-49066285D01*
X109178854Y-49130989D01*
X109157825Y-49193840D01*
X109107429Y-49236882D01*
X109002170Y-49285965D01*
X108808598Y-49421505D01*
X108641505Y-49588598D01*
X108505965Y-49782170D01*
X108406097Y-49996336D01*
X108344936Y-50224592D01*
X108324340Y-50459999D01*
X108344936Y-50695407D01*
X108389709Y-50862502D01*
X108406097Y-50923663D01*
X108505965Y-51137830D01*
X108641505Y-51331401D01*
X108808599Y-51498495D01*
X108994160Y-51628426D01*
X109033024Y-51672743D01*
X109047035Y-51730000D01*
X109033024Y-51787257D01*
X108994159Y-51831575D01*
X108808595Y-51961508D01*
X108641505Y-52128598D01*
X108511575Y-52314159D01*
X108467257Y-52353025D01*
X108410000Y-52367036D01*
X108352743Y-52353025D01*
X108308425Y-52314159D01*
X108178494Y-52128598D01*
X108011404Y-51961508D01*
X108011401Y-51961505D01*
X107817830Y-51825965D01*
X107603663Y-51726097D01*
X107542501Y-51709709D01*
X107375407Y-51664936D01*
X107140000Y-51644340D01*
X106904592Y-51664936D01*
X106676336Y-51726097D01*
X106462170Y-51825965D01*
X106268598Y-51961505D01*
X106101505Y-52128598D01*
X105965965Y-52322170D01*
X105866097Y-52536336D01*
X105804936Y-52764592D01*
X105784340Y-53000000D01*
X105804936Y-53235407D01*
X105839327Y-53363756D01*
X105866097Y-53463663D01*
X105965965Y-53677830D01*
X106101505Y-53871401D01*
X106268599Y-54038495D01*
X106462170Y-54174035D01*
X106676337Y-54273903D01*
X106904592Y-54335063D01*
X107140000Y-54355659D01*
X107375408Y-54335063D01*
X107603663Y-54273903D01*
X107817830Y-54174035D01*
X108011401Y-54038495D01*
X108178495Y-53871401D01*
X108308426Y-53685839D01*
X108352743Y-53646975D01*
X108410000Y-53632964D01*
X108467257Y-53646975D01*
X108511573Y-53685839D01*
X108641505Y-53871401D01*
X108808599Y-54038495D01*
X109002170Y-54174035D01*
X109216337Y-54273903D01*
X109438912Y-54333541D01*
X109444592Y-54335063D01*
X109679999Y-54355659D01*
X109679999Y-54355658D01*
X109680000Y-54355659D01*
X109866772Y-54339318D01*
X109929330Y-54350161D01*
X109978320Y-54390545D01*
X110000901Y-54449884D01*
X110021448Y-54645379D01*
X110079942Y-54825406D01*
X110174588Y-54989338D01*
X110301251Y-55130011D01*
X110454391Y-55241273D01*
X110627319Y-55318266D01*
X110812474Y-55357622D01*
X110812476Y-55357622D01*
X111001768Y-55357622D01*
X111001770Y-55357622D01*
X111125206Y-55331384D01*
X111186925Y-55318266D01*
X111359852Y-55241273D01*
X111512993Y-55130010D01*
X111639655Y-54989338D01*
X111734301Y-54825406D01*
X111792796Y-54645378D01*
X111812582Y-54457122D01*
X111812581Y-54457120D01*
X111813944Y-54444161D01*
X111815907Y-54444367D01*
X111821401Y-54404630D01*
X111856040Y-54356285D01*
X111909207Y-54329630D01*
X111968669Y-54330797D01*
X111984592Y-54335063D01*
X112220000Y-54355659D01*
X112455408Y-54335063D01*
X112683663Y-54273903D01*
X112897830Y-54174035D01*
X113091401Y-54038495D01*
X113258495Y-53871401D01*
X113388426Y-53685839D01*
X113432743Y-53646975D01*
X113490000Y-53632964D01*
X113547257Y-53646975D01*
X113591573Y-53685839D01*
X113721505Y-53871401D01*
X113888599Y-54038495D01*
X114082170Y-54174035D01*
X114296337Y-54273903D01*
X114524592Y-54335063D01*
X114760000Y-54355659D01*
X114995408Y-54335063D01*
X115123757Y-54300672D01*
X115187943Y-54300672D01*
X115243531Y-54332766D01*
X115617456Y-54706691D01*
X115641695Y-54740988D01*
X115653096Y-54781410D01*
X115664326Y-54888257D01*
X115722820Y-55068284D01*
X115817466Y-55232216D01*
X115944129Y-55372889D01*
X116097269Y-55484151D01*
X116270197Y-55561144D01*
X116455352Y-55600500D01*
X116455354Y-55600500D01*
X116644646Y-55600500D01*
X116644648Y-55600500D01*
X116768083Y-55574262D01*
X116829803Y-55561144D01*
X117002730Y-55484151D01*
X117155871Y-55372888D01*
X117282533Y-55232216D01*
X117377179Y-55068284D01*
X117435674Y-54888256D01*
X117455460Y-54700000D01*
X117435674Y-54511744D01*
X117384445Y-54354077D01*
X117377179Y-54331715D01*
X117282533Y-54167783D01*
X117155870Y-54027110D01*
X117002730Y-53915848D01*
X116829802Y-53838855D01*
X116644648Y-53799500D01*
X116644646Y-53799500D01*
X116460097Y-53799500D01*
X116412644Y-53790061D01*
X116372416Y-53763181D01*
X116092766Y-53483531D01*
X116060672Y-53427943D01*
X116060672Y-53363756D01*
X116095063Y-53235408D01*
X116115659Y-53000000D01*
X116095063Y-52764592D01*
X116033903Y-52536337D01*
X115934035Y-52322171D01*
X115798495Y-52128599D01*
X115631401Y-51961505D01*
X115445839Y-51831573D01*
X115406974Y-51787255D01*
X115392964Y-51729999D01*
X115406975Y-51672742D01*
X115445837Y-51628428D01*
X115631401Y-51498495D01*
X115798495Y-51331401D01*
X115928426Y-51145839D01*
X115972743Y-51106975D01*
X116030000Y-51092964D01*
X116087257Y-51106975D01*
X116131573Y-51145839D01*
X116261505Y-51331401D01*
X116428599Y-51498495D01*
X116622170Y-51634035D01*
X116836337Y-51733903D01*
X117064592Y-51795063D01*
X117300000Y-51815659D01*
X117535408Y-51795063D01*
X117763663Y-51733903D01*
X117977830Y-51634035D01*
X118171401Y-51498495D01*
X118338495Y-51331401D01*
X118468426Y-51145839D01*
X118512743Y-51106975D01*
X118570000Y-51092964D01*
X118627257Y-51106975D01*
X118671573Y-51145839D01*
X118801505Y-51331401D01*
X118968599Y-51498495D01*
X119162170Y-51634035D01*
X119376337Y-51733903D01*
X119604592Y-51795063D01*
X119840000Y-51815659D01*
X120075408Y-51795063D01*
X120303663Y-51733903D01*
X120517830Y-51634035D01*
X120711401Y-51498495D01*
X120878495Y-51331401D01*
X121008426Y-51145839D01*
X121052743Y-51106975D01*
X121110000Y-51092964D01*
X121167257Y-51106975D01*
X121211573Y-51145839D01*
X121341505Y-51331401D01*
X121508599Y-51498495D01*
X121694160Y-51628426D01*
X121733024Y-51672743D01*
X121747035Y-51730000D01*
X121733024Y-51787257D01*
X121694159Y-51831575D01*
X121508595Y-51961508D01*
X121341505Y-52128598D01*
X121205965Y-52322170D01*
X121106097Y-52536336D01*
X121044936Y-52764592D01*
X121024340Y-53000000D01*
X121044936Y-53235407D01*
X121079327Y-53363756D01*
X121106097Y-53463663D01*
X121205965Y-53677830D01*
X121341505Y-53871401D01*
X121508599Y-54038495D01*
X121702170Y-54174035D01*
X121916337Y-54273903D01*
X122144592Y-54335063D01*
X122380000Y-54355659D01*
X122615408Y-54335063D01*
X122843663Y-54273903D01*
X123057830Y-54174035D01*
X123251401Y-54038495D01*
X123418495Y-53871401D01*
X123548426Y-53685839D01*
X123592743Y-53646975D01*
X123650000Y-53632964D01*
X123707257Y-53646975D01*
X123751573Y-53685839D01*
X123881505Y-53871401D01*
X124048599Y-54038495D01*
X124242170Y-54174035D01*
X124456337Y-54273903D01*
X124684592Y-54335063D01*
X124920000Y-54355659D01*
X125155408Y-54335063D01*
X125383663Y-54273903D01*
X125597830Y-54174035D01*
X125791401Y-54038495D01*
X125932027Y-53897869D01*
X128649500Y-53897869D01*
X128655909Y-53957484D01*
X128671925Y-54000424D01*
X128706204Y-54092331D01*
X128792454Y-54207546D01*
X128907669Y-54293796D01*
X129042517Y-54344091D01*
X129102127Y-54350500D01*
X129250500Y-54350500D01*
X129312500Y-54367113D01*
X129357887Y-54412500D01*
X129374500Y-54474500D01*
X129374500Y-55917256D01*
X129372235Y-55937762D01*
X129374439Y-56007873D01*
X129374500Y-56011768D01*
X129374500Y-56039349D01*
X129375003Y-56043334D01*
X129375918Y-56054967D01*
X129377290Y-56098626D01*
X129382879Y-56117860D01*
X129386825Y-56136916D01*
X129389335Y-56156792D01*
X129405414Y-56197404D01*
X129409197Y-56208451D01*
X129421382Y-56250391D01*
X129431580Y-56267635D01*
X129440136Y-56285100D01*
X129447514Y-56303732D01*
X129457723Y-56317783D01*
X129473180Y-56339059D01*
X129479593Y-56348822D01*
X129501826Y-56386416D01*
X129501829Y-56386419D01*
X129501830Y-56386420D01*
X129515995Y-56400585D01*
X129528627Y-56415375D01*
X129540406Y-56431587D01*
X129574058Y-56459426D01*
X129582699Y-56467289D01*
X131499196Y-58383787D01*
X131512096Y-58399888D01*
X131563223Y-58447900D01*
X131566019Y-58450610D01*
X131585529Y-58470120D01*
X131588711Y-58472588D01*
X131597571Y-58480155D01*
X131629417Y-58510061D01*
X131629418Y-58510062D01*
X131646970Y-58519711D01*
X131663238Y-58530397D01*
X131679064Y-58542673D01*
X131719146Y-58560017D01*
X131729633Y-58565155D01*
X131767907Y-58586197D01*
X131771744Y-58587182D01*
X131787308Y-58591178D01*
X131805713Y-58597478D01*
X131824104Y-58605437D01*
X131867250Y-58612270D01*
X131878668Y-58614635D01*
X131920981Y-58625500D01*
X131941016Y-58625500D01*
X131960415Y-58627027D01*
X131980196Y-58630160D01*
X132023674Y-58626050D01*
X132035344Y-58625500D01*
X132296253Y-58625500D01*
X132346688Y-58636220D01*
X132388401Y-58666526D01*
X132394129Y-58672888D01*
X132547270Y-58784151D01*
X132547271Y-58784151D01*
X132547272Y-58784152D01*
X132720197Y-58861144D01*
X132905352Y-58900500D01*
X132905354Y-58900500D01*
X133094646Y-58900500D01*
X133094648Y-58900500D01*
X133218084Y-58874262D01*
X133279803Y-58861144D01*
X133452730Y-58784151D01*
X133519438Y-58735685D01*
X133605870Y-58672889D01*
X133611598Y-58666528D01*
X133732533Y-58532216D01*
X133827179Y-58368284D01*
X133885674Y-58188256D01*
X133905460Y-58000000D01*
X133885674Y-57811744D01*
X133839350Y-57669175D01*
X133827179Y-57631715D01*
X133732533Y-57467783D01*
X133605870Y-57327110D01*
X133452730Y-57215848D01*
X133279802Y-57138855D01*
X133094648Y-57099500D01*
X133094646Y-57099500D01*
X132905354Y-57099500D01*
X132905352Y-57099500D01*
X132720197Y-57138855D01*
X132547272Y-57215847D01*
X132516429Y-57238256D01*
X132394129Y-57327112D01*
X132394126Y-57327114D01*
X132383586Y-57334773D01*
X132382882Y-57333804D01*
X132339225Y-57361611D01*
X132272977Y-57363343D01*
X132215299Y-57330708D01*
X130661819Y-55777228D01*
X130634939Y-55737000D01*
X130625500Y-55689547D01*
X130625500Y-54474499D01*
X130642113Y-54412499D01*
X130687500Y-54367112D01*
X130749500Y-54350499D01*
X130897870Y-54350499D01*
X130897872Y-54350499D01*
X130957483Y-54344091D01*
X131092331Y-54293796D01*
X131207546Y-54207546D01*
X131293796Y-54092331D01*
X131344091Y-53957483D01*
X131350500Y-53897873D01*
X131350499Y-52102128D01*
X131344091Y-52042517D01*
X131293796Y-51907669D01*
X131207546Y-51792454D01*
X131092331Y-51706204D01*
X130957483Y-51655909D01*
X130897873Y-51649500D01*
X130897869Y-51649500D01*
X129102130Y-51649500D01*
X129042515Y-51655909D01*
X128907669Y-51706204D01*
X128792454Y-51792454D01*
X128706204Y-51907668D01*
X128655909Y-52042516D01*
X128649500Y-52102130D01*
X128649500Y-53897869D01*
X125932027Y-53897869D01*
X125958495Y-53871401D01*
X126094035Y-53677830D01*
X126193903Y-53463663D01*
X126255063Y-53235408D01*
X126275659Y-53000000D01*
X126255063Y-52764592D01*
X126193903Y-52536337D01*
X126094035Y-52322171D01*
X125958495Y-52128599D01*
X125791401Y-51961505D01*
X125605839Y-51831573D01*
X125566974Y-51787255D01*
X125552964Y-51729999D01*
X125566975Y-51672742D01*
X125605837Y-51628428D01*
X125791401Y-51498495D01*
X125958495Y-51331401D01*
X126088426Y-51145839D01*
X126132743Y-51106975D01*
X126190000Y-51092964D01*
X126247257Y-51106975D01*
X126291573Y-51145839D01*
X126421505Y-51331401D01*
X126588599Y-51498495D01*
X126782170Y-51634035D01*
X126996337Y-51733903D01*
X127224592Y-51795063D01*
X127460000Y-51815659D01*
X127695408Y-51795063D01*
X127923663Y-51733903D01*
X128137830Y-51634035D01*
X128331401Y-51498495D01*
X128498495Y-51331401D01*
X128634035Y-51137830D01*
X128733903Y-50923663D01*
X128795063Y-50695408D01*
X128815659Y-50460000D01*
X128795063Y-50224592D01*
X128733903Y-49996337D01*
X128634035Y-49782171D01*
X128498495Y-49588599D01*
X128331401Y-49421505D01*
X128137830Y-49285965D01*
X128032570Y-49236881D01*
X127982175Y-49193840D01*
X127961146Y-49130990D01*
X127975491Y-49066285D01*
X128021111Y-49018211D01*
X128084976Y-49000500D01*
X131875500Y-49000500D01*
X131937500Y-49017113D01*
X131982887Y-49062500D01*
X131999500Y-49124500D01*
X131999500Y-53975144D01*
X131999446Y-53975414D01*
X131999458Y-54000001D01*
X131999469Y-54000028D01*
X131999614Y-54000379D01*
X131999616Y-54000381D01*
X131999617Y-54000383D01*
X131999618Y-54000383D01*
X132017272Y-54018009D01*
X132017265Y-54018015D01*
X132017391Y-54018099D01*
X134963181Y-56963888D01*
X134990061Y-57004116D01*
X134999500Y-57051569D01*
X134999500Y-64975145D01*
X134999461Y-64975334D01*
X134999458Y-64999998D01*
X134999458Y-64999999D01*
X134999458Y-65000000D01*
X134999520Y-65000150D01*
X134999549Y-65000295D01*
X134999576Y-65000285D01*
X134999616Y-65000382D01*
X135010962Y-65011670D01*
X135011187Y-65011895D01*
X138963181Y-68963888D01*
X138990061Y-69004116D01*
X138999500Y-69051569D01*
X138999500Y-87876000D01*
X138982887Y-87938000D01*
X138937500Y-87983387D01*
X138875500Y-88000000D01*
X60790490Y-88000000D01*
X60789514Y-87999999D01*
X60124421Y-87999578D01*
X60062455Y-87982939D01*
X60017100Y-87937555D01*
X60000500Y-87875578D01*
X60000500Y-85090008D01*
X64549500Y-85090008D01*
X64560000Y-85192796D01*
X64615186Y-85359334D01*
X64707288Y-85508657D01*
X64831342Y-85632711D01*
X64831344Y-85632712D01*
X64980666Y-85724814D01*
X65092017Y-85761712D01*
X65147202Y-85779999D01*
X65157702Y-85781071D01*
X65249991Y-85790500D01*
X66208480Y-85790499D01*
X66255933Y-85799938D01*
X66296161Y-85826818D01*
X67547058Y-87077715D01*
X67552178Y-87083153D01*
X67592071Y-87128183D01*
X67592072Y-87128184D01*
X67641569Y-87162349D01*
X67647602Y-87166788D01*
X67694943Y-87203877D01*
X67704174Y-87208031D01*
X67723726Y-87219058D01*
X67732070Y-87224818D01*
X67788322Y-87246151D01*
X67795228Y-87249012D01*
X67850068Y-87273694D01*
X67860030Y-87275519D01*
X67881650Y-87281546D01*
X67891125Y-87285139D01*
X67891128Y-87285140D01*
X67950856Y-87292392D01*
X67958201Y-87293509D01*
X68017394Y-87304357D01*
X68077422Y-87300726D01*
X68084910Y-87300500D01*
X134775079Y-87300500D01*
X134782566Y-87300726D01*
X134785706Y-87300915D01*
X134842606Y-87304358D01*
X134901782Y-87293513D01*
X134909181Y-87292387D01*
X134968872Y-87285140D01*
X134978335Y-87281550D01*
X134999958Y-87275522D01*
X135009932Y-87273695D01*
X135064808Y-87248996D01*
X135071673Y-87246152D01*
X135127930Y-87224818D01*
X135136270Y-87219060D01*
X135155819Y-87208035D01*
X135165057Y-87203878D01*
X135212413Y-87166775D01*
X135218420Y-87162355D01*
X135267929Y-87128183D01*
X135307823Y-87083150D01*
X135312924Y-87077731D01*
X137077731Y-85312924D01*
X137083151Y-85307822D01*
X137128183Y-85267929D01*
X137162358Y-85218416D01*
X137166779Y-85212407D01*
X137203877Y-85165057D01*
X137208033Y-85155820D01*
X137219058Y-85136273D01*
X137224818Y-85127930D01*
X137246154Y-85071668D01*
X137249014Y-85064766D01*
X137249728Y-85063181D01*
X137273694Y-85009932D01*
X137275519Y-84999970D01*
X137281545Y-84978348D01*
X137285140Y-84968872D01*
X137292389Y-84909165D01*
X137293516Y-84901762D01*
X137304357Y-84842606D01*
X137300726Y-84782578D01*
X137300500Y-84775091D01*
X137300500Y-81124910D01*
X137300726Y-81117423D01*
X137301545Y-81103878D01*
X137304357Y-81057394D01*
X137293509Y-80998201D01*
X137292392Y-80990856D01*
X137285140Y-80931128D01*
X137281546Y-80921652D01*
X137275520Y-80900036D01*
X137273694Y-80890068D01*
X137248997Y-80835195D01*
X137246155Y-80828334D01*
X137224818Y-80772070D01*
X137219058Y-80763726D01*
X137208039Y-80744190D01*
X137203878Y-80734943D01*
X137196844Y-80725965D01*
X137166785Y-80687596D01*
X137162354Y-80681577D01*
X137128183Y-80632071D01*
X137083153Y-80592178D01*
X137077715Y-80587058D01*
X136512940Y-80022283D01*
X136507822Y-80016847D01*
X136467929Y-79971817D01*
X136418432Y-79937651D01*
X136412405Y-79933216D01*
X136365054Y-79896120D01*
X136355813Y-79891961D01*
X136336273Y-79880941D01*
X136327930Y-79875182D01*
X136327927Y-79875181D01*
X136327926Y-79875180D01*
X136271701Y-79853856D01*
X136264783Y-79850991D01*
X136209929Y-79826303D01*
X136199952Y-79824475D01*
X136178339Y-79818450D01*
X136168873Y-79814860D01*
X136109172Y-79807610D01*
X136101771Y-79806483D01*
X136042607Y-79795641D01*
X135982566Y-79799274D01*
X135975079Y-79799500D01*
X135341519Y-79799500D01*
X135294066Y-79790061D01*
X135253838Y-79763181D01*
X129236819Y-73746162D01*
X129209939Y-73705934D01*
X129200500Y-73658481D01*
X129200500Y-66615392D01*
X129208736Y-66570955D01*
X129232350Y-66532420D01*
X129232533Y-66532216D01*
X129327179Y-66368284D01*
X129327179Y-66368283D01*
X129385674Y-66188256D01*
X129405460Y-66000000D01*
X129385674Y-65811744D01*
X129327179Y-65631716D01*
X129327179Y-65631715D01*
X129232533Y-65467783D01*
X129105870Y-65327110D01*
X128952730Y-65215848D01*
X128779802Y-65138855D01*
X128594648Y-65099500D01*
X128594646Y-65099500D01*
X128405354Y-65099500D01*
X128405352Y-65099500D01*
X128220197Y-65138855D01*
X128047269Y-65215848D01*
X127894129Y-65327110D01*
X127767466Y-65467783D01*
X127672820Y-65631715D01*
X127614326Y-65811742D01*
X127594540Y-66000000D01*
X127614326Y-66188257D01*
X127672820Y-66368284D01*
X127767466Y-66532216D01*
X127767650Y-66532420D01*
X127791264Y-66570955D01*
X127799500Y-66615392D01*
X127799500Y-73975079D01*
X127799274Y-73982566D01*
X127795641Y-74042607D01*
X127806483Y-74101771D01*
X127807610Y-74109172D01*
X127814860Y-74168873D01*
X127818450Y-74178339D01*
X127824475Y-74199952D01*
X127826303Y-74209929D01*
X127850991Y-74264783D01*
X127853856Y-74271701D01*
X127875180Y-74327926D01*
X127875182Y-74327930D01*
X127880941Y-74336273D01*
X127891961Y-74355813D01*
X127896120Y-74365054D01*
X127933216Y-74412405D01*
X127937651Y-74418432D01*
X127971817Y-74467929D01*
X128016847Y-74507822D01*
X128022283Y-74512940D01*
X134487058Y-80977715D01*
X134492178Y-80983153D01*
X134532071Y-81028183D01*
X134581577Y-81062354D01*
X134587596Y-81066785D01*
X134631178Y-81100928D01*
X134634943Y-81103878D01*
X134644190Y-81108039D01*
X134663726Y-81119058D01*
X134672070Y-81124818D01*
X134728334Y-81146155D01*
X134735195Y-81148997D01*
X134790068Y-81173694D01*
X134800036Y-81175520D01*
X134821652Y-81181546D01*
X134831128Y-81185140D01*
X134890856Y-81192392D01*
X134898201Y-81193509D01*
X134957394Y-81204357D01*
X135017422Y-81200726D01*
X135024910Y-81200500D01*
X135658481Y-81200500D01*
X135705934Y-81209939D01*
X135746162Y-81236819D01*
X135863181Y-81353838D01*
X135890061Y-81394066D01*
X135899500Y-81441519D01*
X135899500Y-82975500D01*
X135882887Y-83037500D01*
X135837500Y-83082887D01*
X135775500Y-83099500D01*
X135705352Y-83099500D01*
X135520197Y-83138855D01*
X135347269Y-83215848D01*
X135194129Y-83327110D01*
X135067466Y-83467783D01*
X134972820Y-83631715D01*
X134914325Y-83811746D01*
X134909134Y-83861129D01*
X134897734Y-83901549D01*
X134873495Y-83935846D01*
X133746162Y-85063181D01*
X133705934Y-85090061D01*
X133658481Y-85099500D01*
X132077224Y-85099500D01*
X132017581Y-85084214D01*
X131972643Y-85042125D01*
X131953489Y-84983610D01*
X131964842Y-84923095D01*
X131970000Y-84912032D01*
X131973903Y-84903663D01*
X132035063Y-84675408D01*
X132055659Y-84440000D01*
X132035063Y-84204592D01*
X131973903Y-83976337D01*
X131874035Y-83762171D01*
X131738495Y-83568599D01*
X131571401Y-83401505D01*
X131385839Y-83271573D01*
X131346975Y-83227257D01*
X131332964Y-83170000D01*
X131346975Y-83112743D01*
X131385839Y-83068426D01*
X131571401Y-82938495D01*
X131738495Y-82771401D01*
X131874035Y-82577830D01*
X131973903Y-82363663D01*
X132035063Y-82135408D01*
X132055659Y-81900000D01*
X132035063Y-81664592D01*
X131973903Y-81436337D01*
X131874035Y-81222171D01*
X131738495Y-81028599D01*
X131571401Y-80861505D01*
X131377830Y-80725965D01*
X131163663Y-80626097D01*
X131102502Y-80609709D01*
X130935407Y-80564936D01*
X130699999Y-80544340D01*
X130464592Y-80564936D01*
X130236336Y-80626097D01*
X130022170Y-80725965D01*
X129828598Y-80861505D01*
X129661505Y-81028598D01*
X129531575Y-81214159D01*
X129487257Y-81253025D01*
X129430000Y-81267036D01*
X129372743Y-81253025D01*
X129328425Y-81214159D01*
X129265868Y-81124818D01*
X129198495Y-81028599D01*
X129031401Y-80861505D01*
X128837830Y-80725965D01*
X128623663Y-80626097D01*
X128562502Y-80609709D01*
X128395407Y-80564936D01*
X128159999Y-80544340D01*
X127924592Y-80564936D01*
X127696336Y-80626097D01*
X127482170Y-80725965D01*
X127288598Y-80861505D01*
X127121505Y-81028598D01*
X126991575Y-81214159D01*
X126947257Y-81253025D01*
X126890000Y-81267036D01*
X126832743Y-81253025D01*
X126788425Y-81214159D01*
X126725868Y-81124818D01*
X126658495Y-81028599D01*
X126491401Y-80861505D01*
X126297830Y-80725965D01*
X126292094Y-80723290D01*
X126239919Y-80677534D01*
X126220500Y-80610909D01*
X126220500Y-78816539D01*
X126229939Y-78769086D01*
X126235044Y-78756762D01*
X126250500Y-78639361D01*
X126255682Y-78600000D01*
X126251560Y-78568697D01*
X126250500Y-78552513D01*
X126250500Y-77314643D01*
X126251561Y-77298457D01*
X126255682Y-77267155D01*
X126252964Y-77246517D01*
X126235044Y-77110394D01*
X126174536Y-76964315D01*
X126146195Y-76927380D01*
X126078282Y-76838873D01*
X126053229Y-76819650D01*
X126041034Y-76808955D01*
X111232079Y-62000000D01*
X119094540Y-62000000D01*
X119114326Y-62188257D01*
X119172820Y-62368284D01*
X119267466Y-62532216D01*
X119394129Y-62672889D01*
X119547269Y-62784151D01*
X119720197Y-62861144D01*
X119905352Y-62900500D01*
X119905354Y-62900500D01*
X120094646Y-62900500D01*
X120094648Y-62900500D01*
X120218083Y-62874262D01*
X120279803Y-62861144D01*
X120452730Y-62784151D01*
X120535271Y-62724181D01*
X120569838Y-62706569D01*
X120608156Y-62700500D01*
X121158481Y-62700500D01*
X121205934Y-62709939D01*
X121246162Y-62736819D01*
X121987051Y-63477707D01*
X121992171Y-63483145D01*
X122032071Y-63528183D01*
X122081574Y-63562352D01*
X122087603Y-63566788D01*
X122134944Y-63603878D01*
X122144183Y-63608036D01*
X122163719Y-63619053D01*
X122172070Y-63624818D01*
X122228326Y-63646152D01*
X122235220Y-63649009D01*
X122290069Y-63673695D01*
X122300044Y-63675522D01*
X122321656Y-63681547D01*
X122331128Y-63685140D01*
X122390841Y-63692390D01*
X122398185Y-63693507D01*
X122457394Y-63704358D01*
X122514102Y-63700927D01*
X122517434Y-63700726D01*
X122524921Y-63700500D01*
X125391844Y-63700500D01*
X125430162Y-63706569D01*
X125464728Y-63724181D01*
X125547270Y-63784151D01*
X125547271Y-63784151D01*
X125547272Y-63784152D01*
X125720197Y-63861144D01*
X125905352Y-63900500D01*
X125905354Y-63900500D01*
X126094646Y-63900500D01*
X126094648Y-63900500D01*
X126218083Y-63874262D01*
X126279803Y-63861144D01*
X126452730Y-63784151D01*
X126535271Y-63724181D01*
X126569838Y-63706569D01*
X126608156Y-63700500D01*
X131158481Y-63700500D01*
X131205934Y-63709939D01*
X131246162Y-63736819D01*
X131263181Y-63753838D01*
X131290061Y-63794066D01*
X131299500Y-63841519D01*
X131299500Y-65384608D01*
X131291264Y-65429045D01*
X131267650Y-65467580D01*
X131267466Y-65467783D01*
X131172820Y-65631715D01*
X131114326Y-65811742D01*
X131094540Y-66000000D01*
X131114326Y-66188257D01*
X131172820Y-66368284D01*
X131267466Y-66532216D01*
X131394129Y-66672889D01*
X131547269Y-66784151D01*
X131720197Y-66861144D01*
X131905352Y-66900500D01*
X131905354Y-66900500D01*
X132094646Y-66900500D01*
X132094648Y-66900500D01*
X132218084Y-66874262D01*
X132279803Y-66861144D01*
X132452730Y-66784151D01*
X132605871Y-66672888D01*
X132732533Y-66532216D01*
X132827179Y-66368284D01*
X132885674Y-66188256D01*
X132905460Y-66000000D01*
X132885674Y-65811744D01*
X132827179Y-65631716D01*
X132827179Y-65631715D01*
X132732533Y-65467783D01*
X132732350Y-65467580D01*
X132708736Y-65429045D01*
X132700500Y-65384608D01*
X132700500Y-63524921D01*
X132700726Y-63517434D01*
X132702799Y-63483161D01*
X132704358Y-63457394D01*
X132693507Y-63398185D01*
X132692390Y-63390841D01*
X132685140Y-63331128D01*
X132681547Y-63321656D01*
X132675522Y-63300044D01*
X132673695Y-63290069D01*
X132649009Y-63235220D01*
X132646152Y-63228326D01*
X132624818Y-63172070D01*
X132624816Y-63172068D01*
X132624816Y-63172066D01*
X132619062Y-63163731D01*
X132608033Y-63144177D01*
X132603878Y-63134944D01*
X132566780Y-63087591D01*
X132562352Y-63081573D01*
X132548238Y-63061126D01*
X132528183Y-63032071D01*
X132483153Y-62992178D01*
X132477715Y-62987058D01*
X132012940Y-62522283D01*
X132007822Y-62516847D01*
X131967929Y-62471817D01*
X131918432Y-62437651D01*
X131912405Y-62433216D01*
X131883709Y-62410735D01*
X131865057Y-62396122D01*
X131865055Y-62396121D01*
X131865054Y-62396120D01*
X131855813Y-62391961D01*
X131836273Y-62380941D01*
X131827930Y-62375182D01*
X131827927Y-62375181D01*
X131827926Y-62375180D01*
X131771701Y-62353856D01*
X131764783Y-62350991D01*
X131709929Y-62326303D01*
X131699952Y-62324475D01*
X131678339Y-62318450D01*
X131668873Y-62314860D01*
X131609172Y-62307610D01*
X131601771Y-62306483D01*
X131542607Y-62295641D01*
X131482566Y-62299274D01*
X131475079Y-62299500D01*
X126608156Y-62299500D01*
X126569838Y-62293431D01*
X126535270Y-62275818D01*
X126452727Y-62215847D01*
X126279802Y-62138855D01*
X126094648Y-62099500D01*
X126094646Y-62099500D01*
X125905354Y-62099500D01*
X125905352Y-62099500D01*
X125720197Y-62138855D01*
X125547272Y-62215847D01*
X125464730Y-62275818D01*
X125430162Y-62293431D01*
X125391844Y-62299500D01*
X122841518Y-62299500D01*
X122794065Y-62290061D01*
X122753837Y-62263181D01*
X122012940Y-61522283D01*
X122007822Y-61516847D01*
X121967929Y-61471817D01*
X121962086Y-61467784D01*
X121918436Y-61437654D01*
X121912405Y-61433216D01*
X121865054Y-61396120D01*
X121855813Y-61391961D01*
X121836273Y-61380941D01*
X121827930Y-61375182D01*
X121827927Y-61375181D01*
X121827926Y-61375180D01*
X121771701Y-61353856D01*
X121764783Y-61350991D01*
X121709929Y-61326303D01*
X121699952Y-61324475D01*
X121678339Y-61318450D01*
X121668873Y-61314860D01*
X121609172Y-61307610D01*
X121601771Y-61306483D01*
X121542607Y-61295641D01*
X121482566Y-61299274D01*
X121475079Y-61299500D01*
X120608156Y-61299500D01*
X120569838Y-61293431D01*
X120535270Y-61275818D01*
X120452727Y-61215847D01*
X120279802Y-61138855D01*
X120094648Y-61099500D01*
X120094646Y-61099500D01*
X119905354Y-61099500D01*
X119905352Y-61099500D01*
X119720197Y-61138855D01*
X119547269Y-61215848D01*
X119394129Y-61327110D01*
X119267466Y-61467783D01*
X119172820Y-61631715D01*
X119114326Y-61811742D01*
X119094540Y-62000000D01*
X111232079Y-62000000D01*
X106591043Y-57358964D01*
X106580347Y-57346768D01*
X106561125Y-57321716D01*
X106435684Y-57225463D01*
X106289606Y-57164956D01*
X106172205Y-57149500D01*
X106167624Y-57148897D01*
X106132844Y-57144317D01*
X106105007Y-57147982D01*
X106101541Y-57148439D01*
X106085357Y-57149500D01*
X104939374Y-57149500D01*
X104883078Y-57135984D01*
X104839054Y-57098383D01*
X104816900Y-57044893D01*
X104820089Y-57004387D01*
X104818748Y-57004246D01*
X104820109Y-56991287D01*
X104820111Y-56991284D01*
X104839897Y-56803028D01*
X104820111Y-56614772D01*
X104789769Y-56521391D01*
X104761616Y-56434743D01*
X104666970Y-56270811D01*
X104540307Y-56130138D01*
X104387167Y-56018876D01*
X104214239Y-55941883D01*
X104029085Y-55902528D01*
X104029083Y-55902528D01*
X103839791Y-55902528D01*
X103839789Y-55902528D01*
X103654636Y-55941882D01*
X103484871Y-56017467D01*
X103434436Y-56028187D01*
X103384000Y-56017466D01*
X103214239Y-55941883D01*
X103029085Y-55902528D01*
X103029083Y-55902528D01*
X102839791Y-55902528D01*
X102839789Y-55902528D01*
X102654634Y-55941883D01*
X102481706Y-56018876D01*
X102328566Y-56130138D01*
X102201903Y-56270811D01*
X102107257Y-56434743D01*
X102048763Y-56614770D01*
X102038071Y-56716506D01*
X102017551Y-56772884D01*
X101972964Y-56813030D01*
X101921350Y-56825898D01*
X101977899Y-56839997D01*
X102022486Y-56880142D01*
X102043007Y-56936520D01*
X102048763Y-56991285D01*
X102107257Y-57171312D01*
X102201903Y-57335244D01*
X102328566Y-57475917D01*
X102481704Y-57587178D01*
X102548202Y-57616785D01*
X102598000Y-57638956D01*
X102636386Y-57665710D01*
X102662126Y-57704783D01*
X102709901Y-57820122D01*
X102806153Y-57945562D01*
X102831205Y-57964784D01*
X102843401Y-57975480D01*
X103405740Y-58537819D01*
X103435990Y-58587182D01*
X103440532Y-58644898D01*
X103418377Y-58698385D01*
X103374354Y-58735985D01*
X103318059Y-58749500D01*
X101982941Y-58749500D01*
X101935488Y-58740061D01*
X101895260Y-58713181D01*
X101236819Y-58054740D01*
X101209939Y-58014512D01*
X101200500Y-57967059D01*
X101200500Y-57782455D01*
X101209529Y-57736004D01*
X101235302Y-57696317D01*
X101274063Y-57669175D01*
X101352730Y-57634151D01*
X101352730Y-57634150D01*
X101352732Y-57634150D01*
X101505870Y-57522889D01*
X101632533Y-57382216D01*
X101727179Y-57218284D01*
X101752987Y-57138855D01*
X101785674Y-57038256D01*
X101796366Y-56936517D01*
X101816885Y-56880144D01*
X101861470Y-56839998D01*
X101913084Y-56827128D01*
X101856536Y-56813030D01*
X101811949Y-56772884D01*
X101791429Y-56716508D01*
X101785674Y-56661744D01*
X101727179Y-56481716D01*
X101727179Y-56481715D01*
X101632533Y-56317783D01*
X101505870Y-56177110D01*
X101352730Y-56065848D01*
X101179802Y-55988855D01*
X100994648Y-55949500D01*
X100994646Y-55949500D01*
X100805354Y-55949500D01*
X100805352Y-55949500D01*
X100620197Y-55988855D01*
X100450435Y-56064439D01*
X100399999Y-56075160D01*
X100349563Y-56064439D01*
X100179802Y-55988855D01*
X99994648Y-55949500D01*
X99994646Y-55949500D01*
X99805354Y-55949500D01*
X99805352Y-55949500D01*
X99620197Y-55988855D01*
X99447269Y-56065848D01*
X99294129Y-56177110D01*
X99167466Y-56317783D01*
X99072820Y-56481715D01*
X99014326Y-56661742D01*
X98994540Y-56849999D01*
X99014326Y-57038257D01*
X99072820Y-57218284D01*
X99167466Y-57382216D01*
X99294129Y-57522889D01*
X99447267Y-57634150D01*
X99458062Y-57638956D01*
X99525936Y-57669175D01*
X99564698Y-57696317D01*
X99590471Y-57736004D01*
X99599500Y-57782455D01*
X99599500Y-58385357D01*
X99598439Y-58401543D01*
X99594317Y-58432844D01*
X99599500Y-58472204D01*
X99599500Y-58472205D01*
X99614956Y-58589606D01*
X99675463Y-58735684D01*
X99771716Y-58861125D01*
X99796768Y-58880347D01*
X99808964Y-58891043D01*
X101058955Y-60141034D01*
X101069650Y-60153229D01*
X101098812Y-60191234D01*
X101098610Y-60191388D01*
X101125158Y-60225066D01*
X101135496Y-60285230D01*
X101115873Y-60343036D01*
X101071045Y-60384473D01*
X101011878Y-60399500D01*
X92832941Y-60399500D01*
X92785488Y-60390061D01*
X92745260Y-60363181D01*
X90686819Y-58304740D01*
X90659939Y-58264512D01*
X90650500Y-58217059D01*
X90650500Y-58032455D01*
X90659529Y-57986004D01*
X90685302Y-57946317D01*
X90724063Y-57919175D01*
X90802730Y-57884151D01*
X90802730Y-57884150D01*
X90802732Y-57884150D01*
X90955870Y-57772889D01*
X91082533Y-57632216D01*
X91177179Y-57468284D01*
X91207651Y-57374500D01*
X91235674Y-57288256D01*
X91255460Y-57100000D01*
X91235674Y-56911744D01*
X91200350Y-56803028D01*
X91177179Y-56731715D01*
X91082533Y-56567783D01*
X90955870Y-56427110D01*
X90802730Y-56315848D01*
X90629802Y-56238855D01*
X90444648Y-56199500D01*
X90444646Y-56199500D01*
X90255354Y-56199500D01*
X90255352Y-56199500D01*
X90070199Y-56238854D01*
X89900434Y-56314439D01*
X89849999Y-56325159D01*
X89799563Y-56314438D01*
X89629802Y-56238855D01*
X89444648Y-56199500D01*
X89444646Y-56199500D01*
X89255354Y-56199500D01*
X89255352Y-56199500D01*
X89070197Y-56238855D01*
X88897269Y-56315848D01*
X88744129Y-56427110D01*
X88617466Y-56567783D01*
X88522820Y-56731715D01*
X88492931Y-56823707D01*
X88459884Y-56875781D01*
X88405838Y-56905493D01*
X88344162Y-56905493D01*
X88290116Y-56875781D01*
X88257069Y-56823707D01*
X88227179Y-56731715D01*
X88132533Y-56567783D01*
X88005870Y-56427110D01*
X87852730Y-56315848D01*
X87679802Y-56238855D01*
X87494648Y-56199500D01*
X87494646Y-56199500D01*
X87305354Y-56199500D01*
X87305352Y-56199500D01*
X87120199Y-56238854D01*
X86950434Y-56314439D01*
X86899999Y-56325159D01*
X86849563Y-56314438D01*
X86679802Y-56238855D01*
X86494648Y-56199500D01*
X86494646Y-56199500D01*
X86305354Y-56199500D01*
X86305352Y-56199500D01*
X86120197Y-56238855D01*
X85947269Y-56315848D01*
X85794129Y-56427110D01*
X85667466Y-56567783D01*
X85572820Y-56731715D01*
X85514326Y-56911742D01*
X85494540Y-57100000D01*
X85514326Y-57288257D01*
X85572820Y-57468284D01*
X85667466Y-57632216D01*
X85794129Y-57772889D01*
X85947267Y-57884150D01*
X85974595Y-57896317D01*
X86025936Y-57919175D01*
X86064698Y-57946317D01*
X86090471Y-57986004D01*
X86099500Y-58032455D01*
X86099500Y-60385357D01*
X86098439Y-60401543D01*
X86094317Y-60432844D01*
X86099500Y-60472204D01*
X86099500Y-60472205D01*
X86114956Y-60589606D01*
X86175463Y-60735684D01*
X86271716Y-60861125D01*
X86296768Y-60880347D01*
X86308964Y-60891043D01*
X89208955Y-63791034D01*
X89219650Y-63803229D01*
X89238874Y-63828282D01*
X89281701Y-63861144D01*
X89364315Y-63924536D01*
X89510394Y-63985044D01*
X89635854Y-64001561D01*
X89667155Y-64005682D01*
X89667155Y-64005681D01*
X89667156Y-64005682D01*
X89698458Y-64001560D01*
X89714643Y-64000500D01*
X99617059Y-64000500D01*
X99664512Y-64009939D01*
X99704740Y-64036819D01*
X112283181Y-76615260D01*
X112310061Y-76655488D01*
X112319500Y-76702941D01*
X112319500Y-80610909D01*
X112300081Y-80677533D01*
X112247907Y-80723290D01*
X112242171Y-80725964D01*
X112082521Y-80837752D01*
X112034701Y-80857968D01*
X111982797Y-80856833D01*
X111935906Y-80834548D01*
X111933223Y-80832489D01*
X111921034Y-80821799D01*
X111486819Y-80387584D01*
X111459939Y-80347356D01*
X111450500Y-80299903D01*
X111450500Y-78597487D01*
X111451561Y-78581301D01*
X111455682Y-78549999D01*
X111452964Y-78529361D01*
X111435044Y-78393238D01*
X111374536Y-78247159D01*
X111374533Y-78247155D01*
X111302454Y-78153219D01*
X111302452Y-78153217D01*
X111302450Y-78153215D01*
X111278282Y-78121718D01*
X111253229Y-78102494D01*
X111241035Y-78091800D01*
X98858199Y-65708964D01*
X98847503Y-65696768D01*
X98828281Y-65671716D01*
X98702840Y-65575463D01*
X98556762Y-65514956D01*
X98439361Y-65499500D01*
X98434780Y-65498897D01*
X98400000Y-65494317D01*
X98372163Y-65497982D01*
X98368697Y-65498439D01*
X98352513Y-65499500D01*
X85882942Y-65499500D01*
X85835489Y-65490061D01*
X85795261Y-65463181D01*
X78736819Y-58404740D01*
X78709939Y-58364512D01*
X78700500Y-58317059D01*
X78700500Y-57982455D01*
X78709529Y-57936004D01*
X78735302Y-57896317D01*
X78774063Y-57869175D01*
X78852730Y-57834151D01*
X78852730Y-57834150D01*
X78852732Y-57834150D01*
X79005870Y-57722889D01*
X79054235Y-57669175D01*
X79132533Y-57582216D01*
X79227179Y-57418284D01*
X79285674Y-57238256D01*
X79305460Y-57050000D01*
X79285674Y-56861744D01*
X79227179Y-56681716D01*
X79227179Y-56681715D01*
X79132533Y-56517783D01*
X79005870Y-56377110D01*
X78852730Y-56265848D01*
X78679802Y-56188855D01*
X78494648Y-56149500D01*
X78494646Y-56149500D01*
X78305354Y-56149500D01*
X78305352Y-56149500D01*
X78120199Y-56188854D01*
X77950435Y-56264439D01*
X77900000Y-56275159D01*
X77849565Y-56264439D01*
X77679800Y-56188854D01*
X77494648Y-56149500D01*
X77494646Y-56149500D01*
X77305354Y-56149500D01*
X77305352Y-56149500D01*
X77120197Y-56188855D01*
X76947269Y-56265848D01*
X76794129Y-56377110D01*
X76667466Y-56517783D01*
X76572820Y-56681715D01*
X76514326Y-56861742D01*
X76494540Y-57050000D01*
X76514326Y-57238257D01*
X76572820Y-57418284D01*
X76667466Y-57582216D01*
X76794129Y-57722889D01*
X76947267Y-57834150D01*
X76985940Y-57851368D01*
X77025936Y-57869175D01*
X77064698Y-57896317D01*
X77090471Y-57936004D01*
X77099500Y-57982455D01*
X77099500Y-58735357D01*
X77098439Y-58751543D01*
X77094317Y-58782844D01*
X77099500Y-58822204D01*
X77099500Y-58822205D01*
X77114956Y-58939606D01*
X77175463Y-59085684D01*
X77271716Y-59211125D01*
X77296768Y-59230347D01*
X77308964Y-59241043D01*
X84958955Y-66891034D01*
X84969650Y-66903229D01*
X84988873Y-66928282D01*
X85107867Y-67019588D01*
X85112786Y-67023902D01*
X85114313Y-67024534D01*
X85114314Y-67024535D01*
X85114315Y-67024536D01*
X85260394Y-67085044D01*
X85338775Y-67095363D01*
X85417155Y-67105682D01*
X85417155Y-67105681D01*
X85417156Y-67105682D01*
X85448458Y-67101560D01*
X85464643Y-67100500D01*
X97899903Y-67100500D01*
X97947356Y-67109939D01*
X97987584Y-67136819D01*
X109743181Y-78892416D01*
X109770061Y-78932644D01*
X109779500Y-78980097D01*
X109779500Y-80610909D01*
X109760080Y-80677534D01*
X109707904Y-80723291D01*
X109702173Y-80725963D01*
X109621848Y-80782206D01*
X109563328Y-80803988D01*
X109501611Y-80794489D01*
X109452350Y-80756116D01*
X109418282Y-80711717D01*
X109393229Y-80692494D01*
X109381034Y-80681799D01*
X109008199Y-80308964D01*
X108997503Y-80296768D01*
X108978281Y-80271716D01*
X108889014Y-80203220D01*
X108853288Y-80159688D01*
X108840500Y-80104844D01*
X108840500Y-79154643D01*
X108841561Y-79138457D01*
X108845682Y-79107155D01*
X108828954Y-78980097D01*
X108825044Y-78950394D01*
X108764536Y-78804315D01*
X108751067Y-78786762D01*
X108737504Y-78769086D01*
X108668282Y-78678873D01*
X108643229Y-78659650D01*
X108631034Y-78648955D01*
X98841043Y-68858964D01*
X98830347Y-68846768D01*
X98811125Y-68821716D01*
X98685684Y-68725463D01*
X98539606Y-68664956D01*
X98422205Y-68649500D01*
X98417624Y-68648897D01*
X98382844Y-68644317D01*
X98355007Y-68647982D01*
X98351541Y-68648439D01*
X98335357Y-68649500D01*
X82082941Y-68649500D01*
X82035488Y-68640061D01*
X81995260Y-68613181D01*
X75636819Y-62254740D01*
X75609939Y-62214512D01*
X75600500Y-62167059D01*
X75600500Y-57882455D01*
X75609529Y-57836004D01*
X75635302Y-57796317D01*
X75674063Y-57769175D01*
X75752730Y-57734151D01*
X75752730Y-57734150D01*
X75752732Y-57734150D01*
X75905870Y-57622889D01*
X75938025Y-57587178D01*
X76032533Y-57482216D01*
X76127179Y-57318284D01*
X76185674Y-57138256D01*
X76205460Y-56950000D01*
X76185674Y-56761744D01*
X76127179Y-56581716D01*
X76127179Y-56581715D01*
X76032533Y-56417783D01*
X75905870Y-56277110D01*
X75752730Y-56165848D01*
X75579802Y-56088855D01*
X75394648Y-56049500D01*
X75394646Y-56049500D01*
X75205354Y-56049500D01*
X75205352Y-56049500D01*
X75020199Y-56088854D01*
X74850435Y-56164439D01*
X74800000Y-56175159D01*
X74749565Y-56164439D01*
X74579800Y-56088854D01*
X74394648Y-56049500D01*
X74394646Y-56049500D01*
X74205354Y-56049500D01*
X74205352Y-56049500D01*
X74020197Y-56088855D01*
X73847269Y-56165848D01*
X73694129Y-56277110D01*
X73567466Y-56417783D01*
X73472820Y-56581715D01*
X73414326Y-56761742D01*
X73394540Y-56950000D01*
X73414326Y-57138257D01*
X73472820Y-57318284D01*
X73567466Y-57482216D01*
X73694129Y-57622889D01*
X73847267Y-57734150D01*
X73885940Y-57751368D01*
X73925936Y-57769175D01*
X73964698Y-57796317D01*
X73990471Y-57836004D01*
X73999500Y-57882455D01*
X73999500Y-62585357D01*
X73998439Y-62601543D01*
X73994317Y-62632844D01*
X73999500Y-62672204D01*
X73999500Y-62672205D01*
X74014956Y-62789606D01*
X74075463Y-62935684D01*
X74171716Y-63061125D01*
X74196768Y-63080347D01*
X74208964Y-63091043D01*
X81158955Y-70041034D01*
X81169650Y-70053229D01*
X81188873Y-70078282D01*
X81314315Y-70174536D01*
X81460394Y-70235044D01*
X81585854Y-70251561D01*
X81617155Y-70255682D01*
X81617155Y-70255681D01*
X81617156Y-70255682D01*
X81648458Y-70251560D01*
X81664643Y-70250500D01*
X97917059Y-70250500D01*
X97964512Y-70259939D01*
X98004740Y-70286819D01*
X107203181Y-79485261D01*
X107230061Y-79525489D01*
X107239500Y-79572942D01*
X107239500Y-80610909D01*
X107220081Y-80677533D01*
X107167907Y-80723290D01*
X107162171Y-80725964D01*
X106968598Y-80861505D01*
X106801505Y-81028598D01*
X106665965Y-81222170D01*
X106566097Y-81436336D01*
X106504936Y-81664592D01*
X106484340Y-81899999D01*
X106504936Y-82135407D01*
X106549709Y-82302502D01*
X106566097Y-82363663D01*
X106665965Y-82577830D01*
X106801505Y-82771401D01*
X106968599Y-82938495D01*
X107154160Y-83068426D01*
X107193024Y-83112743D01*
X107207035Y-83170000D01*
X107193024Y-83227257D01*
X107154158Y-83271575D01*
X107011677Y-83371342D01*
X106968595Y-83401508D01*
X106793834Y-83576270D01*
X106791261Y-83573697D01*
X106754290Y-83603773D01*
X106687223Y-83612568D01*
X106625518Y-83584858D01*
X106587539Y-83528890D01*
X106584814Y-83520666D01*
X106492712Y-83371344D01*
X106492711Y-83371342D01*
X106368657Y-83247288D01*
X106219334Y-83155186D01*
X106052797Y-83100000D01*
X105950009Y-83089500D01*
X104649991Y-83089500D01*
X104547203Y-83100000D01*
X104380665Y-83155186D01*
X104231342Y-83247288D01*
X104107288Y-83371342D01*
X104015186Y-83520665D01*
X103960000Y-83687202D01*
X103952342Y-83762170D01*
X103949500Y-83789991D01*
X103949500Y-84439999D01*
X103949501Y-84975500D01*
X103932888Y-85037500D01*
X103887501Y-85082887D01*
X103825501Y-85099500D01*
X92677224Y-85099500D01*
X92617581Y-85084214D01*
X92572643Y-85042125D01*
X92553489Y-84983610D01*
X92564842Y-84923095D01*
X92570000Y-84912032D01*
X92573903Y-84903663D01*
X92635063Y-84675408D01*
X92655659Y-84440000D01*
X92635063Y-84204592D01*
X92573903Y-83976337D01*
X92474035Y-83762171D01*
X92338495Y-83568599D01*
X92171401Y-83401505D01*
X91985839Y-83271573D01*
X91946975Y-83227257D01*
X91932964Y-83170000D01*
X91946975Y-83112743D01*
X91985839Y-83068426D01*
X92171401Y-82938495D01*
X92338495Y-82771401D01*
X92474035Y-82577830D01*
X92573903Y-82363663D01*
X92635063Y-82135408D01*
X92655659Y-81900000D01*
X92635063Y-81664592D01*
X92573903Y-81436337D01*
X92474035Y-81222171D01*
X92338495Y-81028599D01*
X92171401Y-80861505D01*
X91977830Y-80725965D01*
X91763663Y-80626097D01*
X91702502Y-80609709D01*
X91535407Y-80564936D01*
X91299999Y-80544340D01*
X91064592Y-80564936D01*
X90836336Y-80626097D01*
X90622170Y-80725965D01*
X90428598Y-80861505D01*
X90261505Y-81028598D01*
X90131575Y-81214159D01*
X90087257Y-81253025D01*
X90030000Y-81267036D01*
X89972743Y-81253025D01*
X89928425Y-81214159D01*
X89865868Y-81124818D01*
X89798495Y-81028599D01*
X89631401Y-80861505D01*
X89437830Y-80725965D01*
X89223663Y-80626097D01*
X89162502Y-80609709D01*
X88995407Y-80564936D01*
X88759999Y-80544340D01*
X88524592Y-80564936D01*
X88296336Y-80626097D01*
X88082170Y-80725965D01*
X87888598Y-80861505D01*
X87721505Y-81028598D01*
X87591575Y-81214159D01*
X87547257Y-81253025D01*
X87490000Y-81267036D01*
X87432743Y-81253025D01*
X87388425Y-81214159D01*
X87325868Y-81124818D01*
X87258495Y-81028599D01*
X87091401Y-80861505D01*
X86897830Y-80725965D01*
X86683663Y-80626097D01*
X86622502Y-80609709D01*
X86455407Y-80564936D01*
X86219999Y-80544340D01*
X85984592Y-80564936D01*
X85756336Y-80626097D01*
X85542170Y-80725965D01*
X85348598Y-80861505D01*
X85181505Y-81028598D01*
X85051575Y-81214159D01*
X85007257Y-81253025D01*
X84950000Y-81267036D01*
X84892743Y-81253025D01*
X84848425Y-81214159D01*
X84785868Y-81124818D01*
X84718495Y-81028599D01*
X84551401Y-80861505D01*
X84357830Y-80725965D01*
X84143663Y-80626097D01*
X84082502Y-80609709D01*
X83915407Y-80564936D01*
X83679999Y-80544340D01*
X83444592Y-80564936D01*
X83216336Y-80626097D01*
X83002170Y-80725965D01*
X82808598Y-80861505D01*
X82641505Y-81028598D01*
X82511575Y-81214159D01*
X82467257Y-81253025D01*
X82410000Y-81267036D01*
X82352743Y-81253025D01*
X82308425Y-81214159D01*
X82245868Y-81124818D01*
X82178495Y-81028599D01*
X82011401Y-80861505D01*
X81817830Y-80725965D01*
X81603663Y-80626097D01*
X81542502Y-80609709D01*
X81375407Y-80564936D01*
X81139999Y-80544340D01*
X80904592Y-80564936D01*
X80676336Y-80626097D01*
X80462170Y-80725965D01*
X80268598Y-80861505D01*
X80101505Y-81028598D01*
X79965965Y-81222170D01*
X79866097Y-81436336D01*
X79804936Y-81664592D01*
X79784340Y-81899999D01*
X79804936Y-82135407D01*
X79849709Y-82302502D01*
X79866097Y-82363663D01*
X79965965Y-82577830D01*
X80101505Y-82771401D01*
X80101507Y-82771403D01*
X80101508Y-82771404D01*
X80268598Y-82938494D01*
X80386623Y-83021136D01*
X80425489Y-83065454D01*
X80439500Y-83122711D01*
X80439500Y-83217289D01*
X80425489Y-83274546D01*
X80386623Y-83318863D01*
X80362686Y-83335624D01*
X80268598Y-83401505D01*
X80101505Y-83568598D01*
X79965965Y-83762170D01*
X79866097Y-83976336D01*
X79804936Y-84204592D01*
X79784340Y-84439999D01*
X79804936Y-84675407D01*
X79833653Y-84782578D01*
X79866097Y-84903663D01*
X79965965Y-85117830D01*
X80101505Y-85311401D01*
X80268599Y-85478495D01*
X80462170Y-85614035D01*
X80567429Y-85663118D01*
X80617825Y-85706160D01*
X80638854Y-85769010D01*
X80624509Y-85833715D01*
X80578889Y-85881789D01*
X80515024Y-85899500D01*
X76684976Y-85899500D01*
X76621111Y-85881789D01*
X76575491Y-85833715D01*
X76561146Y-85769010D01*
X76582175Y-85706160D01*
X76632571Y-85663118D01*
X76737830Y-85614035D01*
X76931401Y-85478495D01*
X77098495Y-85311401D01*
X77234035Y-85117830D01*
X77333903Y-84903663D01*
X77395063Y-84675408D01*
X77415659Y-84440000D01*
X77395063Y-84204592D01*
X77333903Y-83976337D01*
X77234035Y-83762171D01*
X77098495Y-83568599D01*
X76931401Y-83401505D01*
X76745839Y-83271573D01*
X76706975Y-83227257D01*
X76692964Y-83170000D01*
X76706975Y-83112743D01*
X76745839Y-83068426D01*
X76931401Y-82938495D01*
X77098495Y-82771401D01*
X77234035Y-82577830D01*
X77333903Y-82363663D01*
X77395063Y-82135408D01*
X77415659Y-81900000D01*
X77395063Y-81664592D01*
X77333903Y-81436337D01*
X77234035Y-81222171D01*
X77098495Y-81028599D01*
X76931401Y-80861505D01*
X76737830Y-80725965D01*
X76523663Y-80626097D01*
X76462502Y-80609709D01*
X76295407Y-80564936D01*
X76059999Y-80544340D01*
X75824592Y-80564936D01*
X75596336Y-80626097D01*
X75382170Y-80725965D01*
X75188598Y-80861505D01*
X75021505Y-81028598D01*
X74891575Y-81214159D01*
X74847257Y-81253025D01*
X74790000Y-81267036D01*
X74732743Y-81253025D01*
X74688425Y-81214159D01*
X74625868Y-81124818D01*
X74558495Y-81028599D01*
X74391401Y-80861505D01*
X74197830Y-80725965D01*
X73983663Y-80626097D01*
X73922502Y-80609709D01*
X73755407Y-80564936D01*
X73519999Y-80544340D01*
X73284592Y-80564936D01*
X73056336Y-80626097D01*
X72842170Y-80725965D01*
X72648598Y-80861505D01*
X72481505Y-81028598D01*
X72351575Y-81214159D01*
X72307257Y-81253025D01*
X72250000Y-81267036D01*
X72192743Y-81253025D01*
X72148425Y-81214159D01*
X72085868Y-81124818D01*
X72018495Y-81028599D01*
X71851401Y-80861505D01*
X71657830Y-80725965D01*
X71443663Y-80626097D01*
X71382502Y-80609709D01*
X71215407Y-80564936D01*
X70979999Y-80544340D01*
X70744592Y-80564936D01*
X70516336Y-80626097D01*
X70302170Y-80725965D01*
X70108598Y-80861505D01*
X69941505Y-81028598D01*
X69811575Y-81214159D01*
X69767257Y-81253025D01*
X69710000Y-81267036D01*
X69652743Y-81253025D01*
X69608425Y-81214159D01*
X69545868Y-81124818D01*
X69478495Y-81028599D01*
X69311401Y-80861505D01*
X69117830Y-80725965D01*
X68903663Y-80626097D01*
X68842502Y-80609709D01*
X68675407Y-80564936D01*
X68439999Y-80544340D01*
X68204592Y-80564936D01*
X67976336Y-80626097D01*
X67762170Y-80725965D01*
X67568598Y-80861505D01*
X67401505Y-81028598D01*
X67265965Y-81222170D01*
X67166097Y-81436336D01*
X67104936Y-81664592D01*
X67084340Y-81899999D01*
X67104936Y-82135407D01*
X67149709Y-82302502D01*
X67166097Y-82363663D01*
X67265965Y-82577830D01*
X67401505Y-82771401D01*
X67568599Y-82938495D01*
X67754160Y-83068426D01*
X67793024Y-83112743D01*
X67807035Y-83170000D01*
X67793024Y-83227257D01*
X67754158Y-83271575D01*
X67611677Y-83371342D01*
X67568595Y-83401508D01*
X67393834Y-83576270D01*
X67391261Y-83573697D01*
X67354290Y-83603773D01*
X67287223Y-83612568D01*
X67225518Y-83584858D01*
X67187539Y-83528890D01*
X67184814Y-83520666D01*
X67092712Y-83371344D01*
X67092711Y-83371342D01*
X66968657Y-83247288D01*
X66819334Y-83155186D01*
X66652797Y-83100000D01*
X66550009Y-83089500D01*
X65249991Y-83089500D01*
X65147203Y-83100000D01*
X64980665Y-83155186D01*
X64831342Y-83247288D01*
X64707288Y-83371342D01*
X64615186Y-83520665D01*
X64560000Y-83687202D01*
X64549500Y-83789990D01*
X64549500Y-85090008D01*
X60000500Y-85090008D01*
X60000500Y-69051570D01*
X60009939Y-69004117D01*
X60036819Y-68963889D01*
X61981119Y-67019588D01*
X63988915Y-65011790D01*
X64000381Y-65000383D01*
X64000383Y-65000383D01*
X64000500Y-65000099D01*
X64000541Y-65000000D01*
X64000541Y-64975446D01*
X64000500Y-64975240D01*
X64000500Y-57051570D01*
X64009939Y-57004117D01*
X64036819Y-56963889D01*
X64518993Y-56481715D01*
X66982519Y-54018186D01*
X66982644Y-54018104D01*
X67000381Y-54000383D01*
X67000383Y-54000383D01*
X67000383Y-54000381D01*
X67000386Y-54000379D01*
X67000541Y-54000005D01*
X67000541Y-54000002D01*
X67000542Y-54000000D01*
X67000541Y-53999997D01*
X67000582Y-53975557D01*
X67000500Y-53975144D01*
X67000500Y-49124500D01*
X67017113Y-49062500D01*
X67062500Y-49017113D01*
X67124500Y-49000500D01*
X70955024Y-49000500D01*
X71018889Y-49018211D01*
G37*
G04 #@! TD.AperFunction*
G04 #@! TD*
M02*
