M48
; DRILL file {KiCad 7.0.1} date Thu Mar 16 04:22:28 2023
; FORMAT={-:-/ absolute / metric / decimal}
; #@! TF.CreationDate,2023-03-16T04:22:28+02:00
; #@! TF.GenerationSoftware,Kicad,Pcbnew,7.0.1
; #@! TF.FileFunction,MixedPlating,1,2
FMAT,2
METRIC
; #@! TA.AperFunction,Plated,PTH,ViaDrill
T1C0.400
; #@! TA.AperFunction,Plated,PTH,ComponentDrill
T2C0.500
; #@! TA.AperFunction,Plated,PTH,ComponentDrill
T3C1.000
; #@! TA.AperFunction,Plated,PTH,ComponentDrill
T4C3.200
%
G90
G05
T1
X62.5Y-80.5
X62.5Y-85.0
X63.8Y-68.2
X66.0Y-58.4
X69.6Y-55.4
X69.6Y-65.8
X69.6Y-79.5
X72.2Y-65.8
X72.2Y-79.5
X72.5Y-61.0
X73.3Y-55.0
X74.7Y-65.8
X74.7Y-79.5
X75.5Y-55.0
X75.5Y-63.0
X76.5Y-58.0
X77.5Y-65.5
X78.0Y-79.5
X78.5Y-55.5
X78.5Y-60.0
X79.5Y-54.5
X79.5Y-87.0
X80.0Y-80.0
X80.3Y-62.4
X81.0Y-57.5
X81.5Y-54.975
X81.5Y-56.025
X82.0Y-79.5
X82.5Y-69.5
X83.0Y-65.0
X83.5Y-55.0
X84.0Y-59.0
X84.9Y-72.0
X85.0Y-79.5
X85.5Y-67.0
X86.0Y-61.5
X86.0Y-64.1
X86.2Y-56.1
X87.5Y-79.5
X88.003Y-54.503
X88.75Y-67.5
X89.5Y-57.5
X89.5Y-71.0
X90.0Y-79.5
X90.1Y-62.1
X92.0Y-55.0
X92.0Y-59.5
X92.0Y-73.5
X92.5Y-67.5
X92.75Y-63.5
X93.5Y-56.5
X93.5Y-79.5
X95.0Y-65.5
X95.0Y-75.5
X95.0Y-86.0
X95.5Y-70.0
X95.563Y-54.563
X95.75Y-60.5
X96.2Y-90.6
X96.25Y-56.0
X96.5Y-81.0
X97.0Y-76.0
X97.5Y-62.5
X97.5Y-67.5
X97.724Y-75.177
X98.5Y-77.5
X99.0Y-55.75
X99.0Y-73.5
X99.5Y-81.5
X99.5Y-88.0
X99.724Y-72.677
X100.0Y-65.0
X100.0Y-71.0
X100.5Y-59.0
X100.5Y-75.0
X101.0Y-70.5
X101.0Y-80.0
X101.724Y-69.793
X102.4Y-90.6
X103.0Y-57.0
X103.0Y-62.5
X103.0Y-81.5
X103.0Y-85.0
X103.5Y-70.0
X104.0Y-69.0
X104.0Y-71.0
X104.5Y-54.5
X104.5Y-79.0
X105.5Y-59.5
X105.5Y-69.5
X106.0Y-67.0
X106.724Y-66.177
X107.8Y-62.8
X108.0Y-57.0
X108.0Y-69.0
X108.0Y-79.0
X108.174Y-54.652
X108.475Y-65.0
X109.525Y-65.0
X111.0Y-68.5
X111.0Y-78.0
X111.3Y-56.1
X113.0Y-55.0
X113.75Y-57.0
X113.75Y-68.0
X115.5Y-79.5
X116.4Y-63.1
X116.5Y-59.1
X116.5Y-77.5
X117.0Y-55.0
X117.5Y-69.0
X117.5Y-75.5
X118.0Y-86.5
X118.3Y-90.0
X119.5Y-80.5
X120.0Y-62.0
X120.0Y-68.0
X120.5Y-58.0
X120.6Y-55.0
X122.0Y-79.5
X123.1Y-61.5
X124.5Y-54.5
X124.5Y-70.0
X126.0Y-63.0
X126.0Y-70.0
X126.0Y-72.5
X126.0Y-79.0
X126.5Y-58.0
X128.5Y-66.0
X128.9Y-61.6
X130.0Y-69.5
X130.0Y-80.0
X132.0Y-66.0
X132.5Y-55.9
X132.5Y-61.5
X132.5Y-79.5
X133.0Y-58.0
X134.2Y-60.9
X134.3Y-65.6
X136.0Y-86.5
X137.4Y-90.2
X137.5Y-69.3
X137.7Y-77.9
T2
X61.6Y-74.0
X62.303Y-72.303
X62.303Y-75.697
X64.0Y-71.6
X64.0Y-76.4
X65.697Y-72.303
X65.697Y-75.697
X66.4Y-74.0
X132.6Y-74.0
X133.303Y-72.303
X133.303Y-75.697
X135.0Y-71.6
X135.0Y-76.4
X136.697Y-72.303
X136.697Y-75.697
X137.4Y-74.0
T3
X65.56Y-82.0
X65.56Y-84.54
X68.1Y-82.0
X68.1Y-84.54
X69.04Y-50.46
X69.04Y-53.0
X70.64Y-82.0
X70.64Y-84.54
X71.58Y-50.46
X71.58Y-53.0
X73.18Y-82.0
X73.18Y-84.54
X74.12Y-50.46
X74.12Y-53.0
X75.72Y-82.0
X75.72Y-84.54
X76.66Y-50.46
X76.66Y-53.0
X78.26Y-82.0
X78.26Y-84.54
X79.2Y-50.46
X79.2Y-53.0
X80.8Y-82.0
X80.8Y-84.54
X81.74Y-50.46
X81.74Y-53.0
X83.34Y-82.0
X83.34Y-84.54
X84.28Y-50.46
X84.28Y-53.0
X85.88Y-82.0
X85.88Y-84.54
X86.82Y-50.46
X86.82Y-53.0
X88.42Y-82.0
X88.42Y-84.54
X89.36Y-50.46
X89.36Y-53.0
X90.96Y-82.0
X90.96Y-84.54
X91.9Y-50.46
X91.9Y-53.0
X93.5Y-82.0
X93.5Y-84.54
X94.44Y-50.46
X94.44Y-53.0
X96.98Y-50.46
X96.98Y-53.0
X99.52Y-50.46
X99.52Y-53.0
X102.06Y-50.46
X102.06Y-53.0
X104.6Y-50.46
X104.6Y-53.0
X105.56Y-82.0
X105.56Y-84.54
X107.14Y-50.46
X107.14Y-53.0
X108.1Y-82.0
X108.1Y-84.54
X109.68Y-50.46
X109.68Y-53.0
X110.64Y-82.0
X110.64Y-84.54
X112.22Y-50.46
X112.22Y-53.0
X113.18Y-82.0
X113.18Y-84.54
X114.76Y-50.46
X114.76Y-53.0
X115.72Y-82.0
X115.72Y-84.54
X117.3Y-50.46
X117.3Y-53.0
X118.26Y-82.0
X118.26Y-84.54
X119.84Y-50.46
X119.84Y-53.0
X120.8Y-82.0
X120.8Y-84.54
X122.38Y-50.46
X122.38Y-53.0
X123.34Y-82.0
X123.34Y-84.54
X124.92Y-50.46
X124.92Y-53.0
X125.88Y-82.0
X125.88Y-84.54
X127.46Y-50.46
X127.46Y-53.0
X128.42Y-82.0
X128.42Y-84.54
X130.0Y-50.46
X130.0Y-53.0
X130.96Y-82.0
X130.96Y-84.54
X133.5Y-82.0
X133.5Y-84.54
T4
X64.0Y-74.0
X135.0Y-74.0
T0
M30
