M48
; DRILL file {KiCad 7.0.1} date Tue Apr 11 19:54:40 2023
; FORMAT={-:-/ absolute / metric / decimal}
; #@! TF.CreationDate,2023-04-11T19:54:40+03:00
; #@! TF.GenerationSoftware,Kicad,Pcbnew,7.0.1
; #@! TF.FileFunction,MixedPlating,1,4
FMAT,2
METRIC
; #@! TA.AperFunction,Plated,PTH,ViaDrill
T1C0.400
; #@! TA.AperFunction,Plated,PTH,ComponentDrill
T2C0.500
; #@! TA.AperFunction,Plated,PTH,ComponentDrill
T3C1.000
; #@! TA.AperFunction,Plated,PTH,ComponentDrill
T4C3.200
%
G90
G05
T1
X62.5Y-80.5
X62.5Y-85.0
X63.8Y-68.2
X66.0Y-58.4
X70.4Y-57.6
X70.4Y-76.8
X72.9Y-54.5
X73.6Y-58.2
X73.8Y-71.0
X74.3Y-56.95
X75.3Y-56.95
X75.6Y-74.8
X77.4Y-57.05
X78.0Y-62.0
X78.4Y-57.05
X79.4Y-57.0
X80.0Y-77.6
X82.4Y-58.2
X82.4Y-66.6
X85.0Y-71.6
X85.2Y-77.6
X85.4Y-58.8
X85.448Y-54.448
X86.4Y-57.1
X87.4Y-57.1
X87.6Y-64.0
X87.6Y-67.8
X88.0Y-78.2
X88.4Y-58.8
X89.35Y-57.1
X89.6Y-60.4
X90.35Y-57.1
X90.8Y-61.6
X90.847Y-54.699
X91.0Y-71.4
X91.0Y-78.8
X91.4Y-64.6
X91.8Y-55.0
X92.2Y-57.2
X92.4Y-59.0
X94.2Y-68.0
X95.0Y-71.2
X95.2Y-79.0
X95.4Y-57.6
X95.4Y-59.8
X95.4Y-62.2
X95.4Y-64.6
X98.0Y-68.0
X98.2Y-59.8
X98.2Y-71.4
X98.345Y-54.395
X98.4Y-64.8
X98.6Y-57.2
X98.8Y-62.2
X99.9Y-56.85
X100.0Y-69.6
X100.2Y-65.6
X100.2Y-74.0
X100.9Y-56.85
X101.8Y-71.4
X102.0Y-67.6
X102.2Y-63.6
X102.934Y-56.803
X103.2Y-60.8
X103.934Y-56.803
X104.0Y-65.4
X104.0Y-69.4
X105.2Y-59.0
X106.0Y-63.4
X106.2Y-67.4
X106.2Y-79.6
X107.6Y-61.2
X108.0Y-65.4
X108.2Y-57.0
X109.0Y-70.4
X109.2Y-79.0
X110.0Y-63.6
X110.907Y-54.457
X111.0Y-57.0
X111.2Y-61.0
X111.6Y-77.2
X112.6Y-70.0
X114.2Y-57.2
X114.4Y-64.0
X114.4Y-77.4
X114.6Y-68.0
X116.55Y-54.7
X117.4Y-79.2
X117.5Y-75.5
X117.8Y-67.8
X119.0Y-63.0
X119.5Y-80.5
X120.0Y-62.0
X120.5Y-58.0
X120.6Y-55.0
X121.6Y-79.2
X121.7Y-68.65
X122.2Y-71.8
X123.1Y-61.5
X124.2Y-79.2
X124.5Y-54.5
X124.5Y-70.0
X125.6Y-75.2
X126.0Y-63.0
X126.0Y-70.0
X126.0Y-72.5
X126.5Y-58.0
X126.8Y-79.8
X128.5Y-66.0
X128.6Y-78.0
X128.9Y-61.6
X130.0Y-69.5
X132.0Y-66.0
X132.5Y-55.9
X132.5Y-61.5
X132.5Y-79.5
X133.0Y-58.0
X134.2Y-60.9
X134.3Y-65.6
X135.8Y-84.0
X137.5Y-69.3
X137.7Y-77.9
T2
X61.6Y-74.0
X62.303Y-72.303
X62.303Y-75.697
X64.0Y-71.6
X64.0Y-76.4
X65.697Y-72.303
X65.697Y-75.697
X66.4Y-74.0
X132.6Y-74.0
X133.303Y-72.303
X133.303Y-75.697
X135.0Y-71.6
X135.0Y-76.4
X136.697Y-72.303
X136.697Y-75.697
X137.4Y-74.0
T3
X65.9Y-81.9
X65.9Y-84.44
X68.44Y-81.9
X68.44Y-84.44
X69.04Y-50.46
X69.04Y-53.0
X70.98Y-81.9
X70.98Y-84.44
X71.58Y-50.46
X71.58Y-53.0
X73.52Y-81.9
X73.52Y-84.44
X74.12Y-50.46
X74.12Y-53.0
X76.06Y-81.9
X76.06Y-84.44
X76.66Y-50.46
X76.66Y-53.0
X78.6Y-81.9
X78.6Y-84.44
X79.2Y-50.46
X79.2Y-53.0
X81.14Y-81.9
X81.14Y-84.44
X81.74Y-50.46
X81.74Y-53.0
X83.68Y-81.9
X83.68Y-84.44
X84.28Y-50.46
X84.28Y-53.0
X86.22Y-81.9
X86.22Y-84.44
X86.82Y-50.46
X86.82Y-53.0
X88.76Y-81.9
X88.76Y-84.44
X89.36Y-50.46
X89.36Y-53.0
X91.3Y-81.9
X91.3Y-84.44
X91.9Y-50.46
X91.9Y-53.0
X93.84Y-81.9
X93.84Y-84.44
X94.44Y-50.46
X94.44Y-53.0
X96.98Y-50.46
X96.98Y-53.0
X99.52Y-50.46
X99.52Y-53.0
X102.06Y-50.46
X102.06Y-53.0
X104.6Y-50.46
X104.6Y-53.0
X105.3Y-81.9
X105.3Y-84.44
X107.14Y-50.46
X107.14Y-53.0
X107.84Y-81.9
X107.84Y-84.44
X109.68Y-50.46
X109.68Y-53.0
X110.38Y-81.9
X110.38Y-84.44
X112.22Y-50.46
X112.22Y-53.0
X112.92Y-81.9
X112.92Y-84.44
X114.76Y-50.46
X114.76Y-53.0
X115.46Y-81.9
X115.46Y-84.44
X117.3Y-50.46
X117.3Y-53.0
X118.0Y-81.9
X118.0Y-84.44
X119.84Y-50.46
X119.84Y-53.0
X120.54Y-81.9
X120.54Y-84.44
X122.38Y-50.46
X122.38Y-53.0
X123.08Y-81.9
X123.08Y-84.44
X124.92Y-50.46
X124.92Y-53.0
X125.62Y-81.9
X125.62Y-84.44
X127.46Y-50.46
X127.46Y-53.0
X128.16Y-81.9
X128.16Y-84.44
X130.0Y-50.46
X130.0Y-53.0
X130.7Y-81.9
X130.7Y-84.44
X133.24Y-81.9
X133.24Y-84.44
T4
X64.0Y-74.0
X135.0Y-74.0
T0
M30
