G04 #@! TF.GenerationSoftware,KiCad,Pcbnew,7.0.1*
G04 #@! TF.CreationDate,2023-04-11T19:54:40+03:00*
G04 #@! TF.ProjectId,connector-pcb,636f6e6e-6563-4746-9f72-2d7063622e6b,rev?*
G04 #@! TF.SameCoordinates,Original*
G04 #@! TF.FileFunction,Soldermask,Top*
G04 #@! TF.FilePolarity,Negative*
%FSLAX46Y46*%
G04 Gerber Fmt 4.6, Leading zero omitted, Abs format (unit mm)*
G04 Created by KiCad (PCBNEW 7.0.1) date 2023-04-11 19:54:40*
%MOMM*%
%LPD*%
G01*
G04 APERTURE LIST*
G04 Aperture macros list*
%AMRoundRect*
0 Rectangle with rounded corners*
0 $1 Rounding radius*
0 $2 $3 $4 $5 $6 $7 $8 $9 X,Y pos of 4 corners*
0 Add a 4 corners polygon primitive as box body*
4,1,4,$2,$3,$4,$5,$6,$7,$8,$9,$2,$3,0*
0 Add four circle primitives for the rounded corners*
1,1,$1+$1,$2,$3*
1,1,$1+$1,$4,$5*
1,1,$1+$1,$6,$7*
1,1,$1+$1,$8,$9*
0 Add four rect primitives between the rounded corners*
20,1,$1+$1,$2,$3,$4,$5,0*
20,1,$1+$1,$4,$5,$6,$7,0*
20,1,$1+$1,$6,$7,$8,$9,0*
20,1,$1+$1,$8,$9,$2,$3,0*%
G04 Aperture macros list end*
%ADD10C,0.150000*%
%ADD11RoundRect,0.112500X-0.112500X0.187500X-0.112500X-0.187500X0.112500X-0.187500X0.112500X0.187500X0*%
%ADD12RoundRect,0.200000X-0.200000X-0.275000X0.200000X-0.275000X0.200000X0.275000X-0.200000X0.275000X0*%
%ADD13RoundRect,0.218750X0.256250X-0.218750X0.256250X0.218750X-0.256250X0.218750X-0.256250X-0.218750X0*%
%ADD14RoundRect,0.218750X-0.256250X0.218750X-0.256250X-0.218750X0.256250X-0.218750X0.256250X0.218750X0*%
%ADD15RoundRect,0.200000X0.275000X-0.200000X0.275000X0.200000X-0.275000X0.200000X-0.275000X-0.200000X0*%
%ADD16RoundRect,0.200000X-0.275000X0.200000X-0.275000X-0.200000X0.275000X-0.200000X0.275000X0.200000X0*%
%ADD17RoundRect,0.225000X-0.250000X0.225000X-0.250000X-0.225000X0.250000X-0.225000X0.250000X0.225000X0*%
%ADD18RoundRect,0.200000X0.200000X0.275000X-0.200000X0.275000X-0.200000X-0.275000X0.200000X-0.275000X0*%
%ADD19R,1.700000X1.700000*%
%ADD20O,1.700000X1.700000*%
%ADD21C,0.800000*%
%ADD22C,6.400000*%
%ADD23RoundRect,0.250000X0.600000X-0.600000X0.600000X0.600000X-0.600000X0.600000X-0.600000X-0.600000X0*%
%ADD24C,1.700000*%
%ADD25RoundRect,0.150000X-0.150000X0.825000X-0.150000X-0.825000X0.150000X-0.825000X0.150000X0.825000X0*%
G04 APERTURE END LIST*
D10*
X97966666Y-77914333D02*
X97733333Y-77581000D01*
X97566666Y-77914333D02*
X97566666Y-77214333D01*
X97566666Y-77214333D02*
X97833333Y-77214333D01*
X97833333Y-77214333D02*
X97900000Y-77247666D01*
X97900000Y-77247666D02*
X97933333Y-77281000D01*
X97933333Y-77281000D02*
X97966666Y-77347666D01*
X97966666Y-77347666D02*
X97966666Y-77447666D01*
X97966666Y-77447666D02*
X97933333Y-77514333D01*
X97933333Y-77514333D02*
X97900000Y-77547666D01*
X97900000Y-77547666D02*
X97833333Y-77581000D01*
X97833333Y-77581000D02*
X97566666Y-77581000D01*
X98166666Y-77214333D02*
X98400000Y-77914333D01*
X98400000Y-77914333D02*
X98633333Y-77214333D01*
X98833333Y-77281000D02*
X98866666Y-77247666D01*
X98866666Y-77247666D02*
X98933333Y-77214333D01*
X98933333Y-77214333D02*
X99100000Y-77214333D01*
X99100000Y-77214333D02*
X99166666Y-77247666D01*
X99166666Y-77247666D02*
X99200000Y-77281000D01*
X99200000Y-77281000D02*
X99233333Y-77347666D01*
X99233333Y-77347666D02*
X99233333Y-77414333D01*
X99233333Y-77414333D02*
X99200000Y-77514333D01*
X99200000Y-77514333D02*
X98800000Y-77914333D01*
X98800000Y-77914333D02*
X99233333Y-77914333D01*
X99666667Y-77214333D02*
X99733333Y-77214333D01*
X99733333Y-77214333D02*
X99800000Y-77247666D01*
X99800000Y-77247666D02*
X99833333Y-77281000D01*
X99833333Y-77281000D02*
X99866667Y-77347666D01*
X99866667Y-77347666D02*
X99900000Y-77481000D01*
X99900000Y-77481000D02*
X99900000Y-77647666D01*
X99900000Y-77647666D02*
X99866667Y-77781000D01*
X99866667Y-77781000D02*
X99833333Y-77847666D01*
X99833333Y-77847666D02*
X99800000Y-77881000D01*
X99800000Y-77881000D02*
X99733333Y-77914333D01*
X99733333Y-77914333D02*
X99666667Y-77914333D01*
X99666667Y-77914333D02*
X99600000Y-77881000D01*
X99600000Y-77881000D02*
X99566667Y-77847666D01*
X99566667Y-77847666D02*
X99533333Y-77781000D01*
X99533333Y-77781000D02*
X99500000Y-77647666D01*
X99500000Y-77647666D02*
X99500000Y-77481000D01*
X99500000Y-77481000D02*
X99533333Y-77347666D01*
X99533333Y-77347666D02*
X99566667Y-77281000D01*
X99566667Y-77281000D02*
X99600000Y-77247666D01*
X99600000Y-77247666D02*
X99666667Y-77214333D01*
X100166667Y-77281000D02*
X100200000Y-77247666D01*
X100200000Y-77247666D02*
X100266667Y-77214333D01*
X100266667Y-77214333D02*
X100433334Y-77214333D01*
X100433334Y-77214333D02*
X100500000Y-77247666D01*
X100500000Y-77247666D02*
X100533334Y-77281000D01*
X100533334Y-77281000D02*
X100566667Y-77347666D01*
X100566667Y-77347666D02*
X100566667Y-77414333D01*
X100566667Y-77414333D02*
X100533334Y-77514333D01*
X100533334Y-77514333D02*
X100133334Y-77914333D01*
X100133334Y-77914333D02*
X100566667Y-77914333D01*
X100800001Y-77214333D02*
X101233334Y-77214333D01*
X101233334Y-77214333D02*
X101000001Y-77481000D01*
X101000001Y-77481000D02*
X101100001Y-77481000D01*
X101100001Y-77481000D02*
X101166667Y-77514333D01*
X101166667Y-77514333D02*
X101200001Y-77547666D01*
X101200001Y-77547666D02*
X101233334Y-77614333D01*
X101233334Y-77614333D02*
X101233334Y-77781000D01*
X101233334Y-77781000D02*
X101200001Y-77847666D01*
X101200001Y-77847666D02*
X101166667Y-77881000D01*
X101166667Y-77881000D02*
X101100001Y-77914333D01*
X101100001Y-77914333D02*
X100900001Y-77914333D01*
X100900001Y-77914333D02*
X100833334Y-77881000D01*
X100833334Y-77881000D02*
X100800001Y-77847666D01*
D11*
G04 #@! TO.C,D2*
X121000000Y-66950000D03*
X121000000Y-69050000D03*
G04 #@! TD*
D12*
G04 #@! TO.C,R13*
X80100000Y-55600000D03*
X81750000Y-55600000D03*
G04 #@! TD*
D13*
G04 #@! TO.C,D3*
X117850000Y-63625000D03*
X117850000Y-62050000D03*
G04 #@! TD*
D14*
G04 #@! TO.C,F1*
X119000000Y-55712500D03*
X119000000Y-57287500D03*
G04 #@! TD*
D15*
G04 #@! TO.C,R8*
X123000000Y-68825000D03*
X123000000Y-67175000D03*
G04 #@! TD*
D16*
G04 #@! TO.C,R10*
X117850000Y-58800000D03*
X117850000Y-60450000D03*
G04 #@! TD*
D15*
G04 #@! TO.C,R6*
X123500000Y-57325000D03*
X123500000Y-55675000D03*
G04 #@! TD*
D12*
G04 #@! TO.C,R14*
X83075000Y-55600000D03*
X84725000Y-55600000D03*
G04 #@! TD*
D17*
G04 #@! TO.C,C2*
X125000000Y-67225000D03*
X125000000Y-68775000D03*
G04 #@! TD*
D18*
G04 #@! TO.C,R23*
X101125000Y-55600000D03*
X99475000Y-55600000D03*
G04 #@! TD*
D12*
G04 #@! TO.C,R26*
X114975000Y-55600000D03*
X116625000Y-55600000D03*
G04 #@! TD*
D16*
G04 #@! TO.C,R5*
X122000000Y-55675000D03*
X122000000Y-57325000D03*
G04 #@! TD*
D12*
G04 #@! TO.C,R16*
X96150000Y-55600000D03*
X97800000Y-55600000D03*
G04 #@! TD*
D19*
G04 #@! TO.C,J1*
X130000000Y-53000000D03*
D20*
X130000000Y-50460000D03*
X127460000Y-53000000D03*
X127460000Y-50460000D03*
X124920000Y-53000000D03*
X124920000Y-50460000D03*
X122380000Y-53000000D03*
X122380000Y-50460000D03*
X119840000Y-53000000D03*
X119840000Y-50460000D03*
X117300000Y-53000000D03*
X117300000Y-50460000D03*
X114760000Y-53000000D03*
X114760000Y-50460000D03*
X112220000Y-53000000D03*
X112220000Y-50460000D03*
X109680000Y-53000000D03*
X109680000Y-50460000D03*
X107140000Y-53000000D03*
X107140000Y-50460000D03*
X104600000Y-53000000D03*
X104600000Y-50460000D03*
X102060000Y-53000000D03*
X102060000Y-50460000D03*
X99520000Y-53000000D03*
X99520000Y-50460000D03*
X96980000Y-53000000D03*
X96980000Y-50460000D03*
X94440000Y-53000000D03*
X94440000Y-50460000D03*
X91900000Y-53000000D03*
X91900000Y-50460000D03*
X89360000Y-53000000D03*
X89360000Y-50460000D03*
X86820000Y-53000000D03*
X86820000Y-50460000D03*
X84280000Y-53000000D03*
X84280000Y-50460000D03*
X81740000Y-53000000D03*
X81740000Y-50460000D03*
X79200000Y-53000000D03*
X79200000Y-50460000D03*
X76660000Y-53000000D03*
X76660000Y-50460000D03*
X74120000Y-53000000D03*
X74120000Y-50460000D03*
X71580000Y-53000000D03*
X71580000Y-50460000D03*
X69040000Y-53000000D03*
X69040000Y-50460000D03*
G04 #@! TD*
D12*
G04 #@! TO.C,R20*
X77075000Y-55600000D03*
X78725000Y-55600000D03*
G04 #@! TD*
G04 #@! TO.C,R11*
X68075000Y-55600000D03*
X69725000Y-55600000D03*
G04 #@! TD*
G04 #@! TO.C,R18*
X108775000Y-55600000D03*
X110425000Y-55600000D03*
G04 #@! TD*
D15*
G04 #@! TO.C,R4*
X129000000Y-68825000D03*
X129000000Y-67175000D03*
G04 #@! TD*
D12*
G04 #@! TO.C,R25*
X111875000Y-55600000D03*
X113525000Y-55600000D03*
G04 #@! TD*
D15*
G04 #@! TO.C,R1*
X129500000Y-57325000D03*
X129500000Y-55675000D03*
G04 #@! TD*
D12*
G04 #@! TO.C,R12*
X71075000Y-55600000D03*
X72725000Y-55600000D03*
G04 #@! TD*
G04 #@! TO.C,R17*
X105700000Y-55600000D03*
X107350000Y-55600000D03*
G04 #@! TD*
G04 #@! TO.C,R19*
X74075000Y-55600000D03*
X75725000Y-55600000D03*
G04 #@! TD*
D21*
G04 #@! TO.C,H1*
X61600000Y-74000000D03*
X62302944Y-72302944D03*
X62302944Y-75697056D03*
X64000000Y-71600000D03*
D22*
X64000000Y-74000000D03*
D21*
X64000000Y-76400000D03*
X65697056Y-72302944D03*
X65697056Y-75697056D03*
X66400000Y-74000000D03*
G04 #@! TD*
D16*
G04 #@! TO.C,R7*
X125000000Y-55675000D03*
X125000000Y-57325000D03*
G04 #@! TD*
D12*
G04 #@! TO.C,R15*
X93000000Y-55600000D03*
X94650000Y-55600000D03*
G04 #@! TD*
G04 #@! TO.C,R21*
X86050000Y-55600000D03*
X87700000Y-55600000D03*
G04 #@! TD*
D23*
G04 #@! TO.C,J3*
X105300000Y-84440000D03*
D24*
X105300000Y-81900000D03*
X107840000Y-84440000D03*
X107840000Y-81900000D03*
X110380000Y-84440000D03*
X110380000Y-81900000D03*
X112920000Y-84440000D03*
X112920000Y-81900000D03*
X115460000Y-84440000D03*
X115460000Y-81900000D03*
X118000000Y-84440000D03*
X118000000Y-81900000D03*
X120540000Y-84440000D03*
X120540000Y-81900000D03*
X123080000Y-84440000D03*
X123080000Y-81900000D03*
X125620000Y-84440000D03*
X125620000Y-81900000D03*
X128160000Y-84440000D03*
X128160000Y-81900000D03*
X130700000Y-84440000D03*
X130700000Y-81900000D03*
X133240000Y-84440000D03*
X133240000Y-81900000D03*
G04 #@! TD*
D25*
G04 #@! TO.C,U1*
X130905000Y-59525000D03*
X129635000Y-59525000D03*
X128365000Y-59525000D03*
X127095000Y-59525000D03*
X127095000Y-64475000D03*
X128365000Y-64475000D03*
X129635000Y-64475000D03*
X130905000Y-64475000D03*
G04 #@! TD*
D15*
G04 #@! TO.C,R9*
X133000000Y-60825000D03*
X133000000Y-59175000D03*
G04 #@! TD*
D11*
G04 #@! TO.C,D1*
X127000000Y-66950000D03*
X127000000Y-69050000D03*
G04 #@! TD*
D25*
G04 #@! TO.C,U2*
X124905000Y-59525000D03*
X123635000Y-59525000D03*
X122365000Y-59525000D03*
X121095000Y-59525000D03*
X121095000Y-64475000D03*
X122365000Y-64475000D03*
X123635000Y-64475000D03*
X124905000Y-64475000D03*
G04 #@! TD*
D21*
G04 #@! TO.C,H2*
X132600000Y-74000000D03*
X133302944Y-72302944D03*
X133302944Y-75697056D03*
X135000000Y-71600000D03*
D22*
X135000000Y-74000000D03*
D21*
X135000000Y-76400000D03*
X136697056Y-72302944D03*
X136697056Y-75697056D03*
X137400000Y-74000000D03*
G04 #@! TD*
D12*
G04 #@! TO.C,R22*
X89075000Y-55600000D03*
X90725000Y-55600000D03*
G04 #@! TD*
D16*
G04 #@! TO.C,R3*
X127500000Y-55675000D03*
X127500000Y-57325000D03*
G04 #@! TD*
D23*
G04 #@! TO.C,J2*
X65900000Y-84440000D03*
D24*
X65900000Y-81900000D03*
X68440000Y-84440000D03*
X68440000Y-81900000D03*
X70980000Y-84440000D03*
X70980000Y-81900000D03*
X73520000Y-84440000D03*
X73520000Y-81900000D03*
X76060000Y-84440000D03*
X76060000Y-81900000D03*
X78600000Y-84440000D03*
X78600000Y-81900000D03*
X81140000Y-84440000D03*
X81140000Y-81900000D03*
X83680000Y-84440000D03*
X83680000Y-81900000D03*
X86220000Y-84440000D03*
X86220000Y-81900000D03*
X88760000Y-84440000D03*
X88760000Y-81900000D03*
X91300000Y-84440000D03*
X91300000Y-81900000D03*
X93840000Y-84440000D03*
X93840000Y-81900000D03*
G04 #@! TD*
D18*
G04 #@! TO.C,R24*
X104225000Y-55600000D03*
X102575000Y-55600000D03*
G04 #@! TD*
D17*
G04 #@! TO.C,C1*
X131000000Y-67225000D03*
X131000000Y-68775000D03*
G04 #@! TD*
D16*
G04 #@! TO.C,R2*
X131000000Y-55675000D03*
X131000000Y-57325000D03*
G04 #@! TD*
M02*
