G04 #@! TF.GenerationSoftware,KiCad,Pcbnew,7.0.1*
G04 #@! TF.CreationDate,2023-03-16T04:22:28+02:00*
G04 #@! TF.ProjectId,connector-pcb,636f6e6e-6563-4746-9f72-2d7063622e6b,rev?*
G04 #@! TF.SameCoordinates,Original*
G04 #@! TF.FileFunction,Copper,L1,Top*
G04 #@! TF.FilePolarity,Positive*
%FSLAX46Y46*%
G04 Gerber Fmt 4.6, Leading zero omitted, Abs format (unit mm)*
G04 Created by KiCad (PCBNEW 7.0.1) date 2023-03-16 04:22:28*
%MOMM*%
%LPD*%
G01*
G04 APERTURE LIST*
G04 Aperture macros list*
%AMRoundRect*
0 Rectangle with rounded corners*
0 $1 Rounding radius*
0 $2 $3 $4 $5 $6 $7 $8 $9 X,Y pos of 4 corners*
0 Add a 4 corners polygon primitive as box body*
4,1,4,$2,$3,$4,$5,$6,$7,$8,$9,$2,$3,0*
0 Add four circle primitives for the rounded corners*
1,1,$1+$1,$2,$3*
1,1,$1+$1,$4,$5*
1,1,$1+$1,$6,$7*
1,1,$1+$1,$8,$9*
0 Add four rect primitives between the rounded corners*
20,1,$1+$1,$2,$3,$4,$5,0*
20,1,$1+$1,$4,$5,$6,$7,0*
20,1,$1+$1,$6,$7,$8,$9,0*
20,1,$1+$1,$8,$9,$2,$3,0*%
G04 Aperture macros list end*
G04 #@! TA.AperFunction,SMDPad,CuDef*
%ADD10RoundRect,0.112500X-0.112500X0.187500X-0.112500X-0.187500X0.112500X-0.187500X0.112500X0.187500X0*%
G04 #@! TD*
G04 #@! TA.AperFunction,SMDPad,CuDef*
%ADD11RoundRect,0.200000X0.200000X0.275000X-0.200000X0.275000X-0.200000X-0.275000X0.200000X-0.275000X0*%
G04 #@! TD*
G04 #@! TA.AperFunction,SMDPad,CuDef*
%ADD12RoundRect,0.218750X0.218750X0.256250X-0.218750X0.256250X-0.218750X-0.256250X0.218750X-0.256250X0*%
G04 #@! TD*
G04 #@! TA.AperFunction,SMDPad,CuDef*
%ADD13RoundRect,0.218750X-0.256250X0.218750X-0.256250X-0.218750X0.256250X-0.218750X0.256250X0.218750X0*%
G04 #@! TD*
G04 #@! TA.AperFunction,SMDPad,CuDef*
%ADD14RoundRect,0.200000X0.275000X-0.200000X0.275000X0.200000X-0.275000X0.200000X-0.275000X-0.200000X0*%
G04 #@! TD*
G04 #@! TA.AperFunction,SMDPad,CuDef*
%ADD15RoundRect,0.200000X-0.200000X-0.275000X0.200000X-0.275000X0.200000X0.275000X-0.200000X0.275000X0*%
G04 #@! TD*
G04 #@! TA.AperFunction,SMDPad,CuDef*
%ADD16RoundRect,0.225000X-0.250000X0.225000X-0.250000X-0.225000X0.250000X-0.225000X0.250000X0.225000X0*%
G04 #@! TD*
G04 #@! TA.AperFunction,SMDPad,CuDef*
%ADD17RoundRect,0.200000X-0.275000X0.200000X-0.275000X-0.200000X0.275000X-0.200000X0.275000X0.200000X0*%
G04 #@! TD*
G04 #@! TA.AperFunction,ComponentPad*
%ADD18R,1.700000X1.700000*%
G04 #@! TD*
G04 #@! TA.AperFunction,ComponentPad*
%ADD19O,1.700000X1.700000*%
G04 #@! TD*
G04 #@! TA.AperFunction,ComponentPad*
%ADD20C,0.800000*%
G04 #@! TD*
G04 #@! TA.AperFunction,ComponentPad*
%ADD21C,6.400000*%
G04 #@! TD*
G04 #@! TA.AperFunction,ComponentPad*
%ADD22RoundRect,0.250000X-0.600000X0.600000X-0.600000X-0.600000X0.600000X-0.600000X0.600000X0.600000X0*%
G04 #@! TD*
G04 #@! TA.AperFunction,ComponentPad*
%ADD23C,1.700000*%
G04 #@! TD*
G04 #@! TA.AperFunction,SMDPad,CuDef*
%ADD24RoundRect,0.150000X-0.150000X0.825000X-0.150000X-0.825000X0.150000X-0.825000X0.150000X0.825000X0*%
G04 #@! TD*
G04 #@! TA.AperFunction,ViaPad*
%ADD25C,0.800000*%
G04 #@! TD*
G04 #@! TA.AperFunction,Conductor*
%ADD26C,0.250000*%
G04 #@! TD*
G04 #@! TA.AperFunction,Conductor*
%ADD27C,0.400000*%
G04 #@! TD*
G04 APERTURE END LIST*
D10*
G04 #@! TO.P,D2,1,K*
G04 #@! TO.N,Net-(D2-K)*
X121000000Y-66950000D03*
G04 #@! TO.P,D2,2,A*
G04 #@! TO.N,GND*
X121000000Y-69050000D03*
G04 #@! TD*
D11*
G04 #@! TO.P,R13,1*
G04 #@! TO.N,/D2_N*
X88325000Y-89500000D03*
G04 #@! TO.P,R13,2*
G04 #@! TO.N,/D2_P*
X86675000Y-89500000D03*
G04 #@! TD*
D12*
G04 #@! TO.P,D3,1,K*
G04 #@! TO.N,GND*
X81787500Y-89500000D03*
G04 #@! TO.P,D3,2,A*
G04 #@! TO.N,Net-(D3-A)*
X80212500Y-89500000D03*
G04 #@! TD*
D13*
G04 #@! TO.P,F1,1*
G04 #@! TO.N,Net-(J1-+4Vin)*
X119000000Y-55712500D03*
G04 #@! TO.P,F1,2*
G04 #@! TO.N,+4V*
X119000000Y-57287500D03*
G04 #@! TD*
D14*
G04 #@! TO.P,R8,1*
G04 #@! TO.N,Net-(R7-Pad1)*
X123000000Y-68825000D03*
G04 #@! TO.P,R8,2*
G04 #@! TO.N,Net-(D2-K)*
X123000000Y-67175000D03*
G04 #@! TD*
D15*
G04 #@! TO.P,R10,1*
G04 #@! TO.N,+4V*
X76962500Y-89500000D03*
G04 #@! TO.P,R10,2*
G04 #@! TO.N,Net-(D3-A)*
X78612500Y-89500000D03*
G04 #@! TD*
D14*
G04 #@! TO.P,R6,1*
G04 #@! TO.N,Net-(U2A--)*
X123500000Y-57325000D03*
G04 #@! TO.P,R6,2*
G04 #@! TO.N,GND*
X123500000Y-55675000D03*
G04 #@! TD*
D11*
G04 #@! TO.P,R14,1*
G04 #@! TO.N,/D3_N*
X85150000Y-89500000D03*
G04 #@! TO.P,R14,2*
G04 #@! TO.N,/D3_P*
X83500000Y-89500000D03*
G04 #@! TD*
D16*
G04 #@! TO.P,C2,1*
G04 #@! TO.N,+4V*
X125000000Y-67225000D03*
G04 #@! TO.P,C2,2*
G04 #@! TO.N,GND*
X125000000Y-68775000D03*
G04 #@! TD*
D11*
G04 #@! TO.P,R23,1*
G04 #@! TO.N,/D12_N*
X114825000Y-89500000D03*
G04 #@! TO.P,R23,2*
G04 #@! TO.N,/D12_P*
X113175000Y-89500000D03*
G04 #@! TD*
G04 #@! TO.P,R26,1*
G04 #@! TO.N,/D15_N*
X105325000Y-89500000D03*
G04 #@! TO.P,R26,2*
G04 #@! TO.N,/D15_P*
X103675000Y-89500000D03*
G04 #@! TD*
D17*
G04 #@! TO.P,R5,1*
G04 #@! TO.N,/Vref_8_15*
X122000000Y-55675000D03*
G04 #@! TO.P,R5,2*
G04 #@! TO.N,Net-(U2A-+)*
X122000000Y-57325000D03*
G04 #@! TD*
D11*
G04 #@! TO.P,R16,1*
G04 #@! TO.N,/D5_N*
X72150000Y-89500000D03*
G04 #@! TO.P,R16,2*
G04 #@! TO.N,/D5_P*
X70500000Y-89500000D03*
G04 #@! TD*
D18*
G04 #@! TO.P,J1,1,ProbeDet*
G04 #@! TO.N,Net-(J1-ProbeDet)*
X130000000Y-53000000D03*
D19*
G04 #@! TO.P,J1,2,GND*
G04 #@! TO.N,GND*
X130000000Y-50460000D03*
G04 #@! TO.P,J1,3,GND*
X127460000Y-53000000D03*
G04 #@! TO.P,J1,4,-2.5Vin*
G04 #@! TO.N,unconnected-(J1--2.5Vin-Pad4)*
X127460000Y-50460000D03*
G04 #@! TO.P,J1,5,Vref_8-15*
G04 #@! TO.N,/Vref_8_15*
X124920000Y-53000000D03*
G04 #@! TO.P,J1,6,Vref_0-7*
G04 #@! TO.N,/Vref_0_7*
X124920000Y-50460000D03*
G04 #@! TO.P,J1,7,+2.5Vin*
G04 #@! TO.N,unconnected-(J1-+2.5Vin-Pad7)*
X122380000Y-53000000D03*
G04 #@! TO.P,J1,8,+4Vin*
G04 #@! TO.N,Net-(J1-+4Vin)*
X122380000Y-50460000D03*
G04 #@! TO.P,J1,9,GND*
G04 #@! TO.N,GND*
X119840000Y-53000000D03*
G04 #@! TO.P,J1,10,+4vin*
G04 #@! TO.N,Net-(J1-+4Vin)*
X119840000Y-50460000D03*
G04 #@! TO.P,J1,11,GND*
G04 #@! TO.N,GND*
X117300000Y-53000000D03*
G04 #@! TO.P,J1,12,D8_N*
G04 #@! TO.N,/D8_N*
X117300000Y-50460000D03*
G04 #@! TO.P,J1,13,D8_P*
G04 #@! TO.N,/D8_P*
X114760000Y-53000000D03*
G04 #@! TO.P,J1,14,D9_p*
G04 #@! TO.N,/D9_P*
X114760000Y-50460000D03*
G04 #@! TO.P,J1,15,D9_N*
G04 #@! TO.N,/D9_N*
X112220000Y-53000000D03*
G04 #@! TO.P,J1,16,D0_N*
G04 #@! TO.N,/D0_N*
X112220000Y-50460000D03*
G04 #@! TO.P,J1,17,D0_P*
G04 #@! TO.N,/D0_P*
X109680000Y-53000000D03*
G04 #@! TO.P,J1,18,D1_P*
G04 #@! TO.N,/D1_P*
X109680000Y-50460000D03*
G04 #@! TO.P,J1,19,D1_N*
G04 #@! TO.N,/D1_N*
X107140000Y-53000000D03*
G04 #@! TO.P,J1,20,GND*
G04 #@! TO.N,GND*
X107140000Y-50460000D03*
G04 #@! TO.P,J1,21,GND*
X104600000Y-53000000D03*
G04 #@! TO.P,J1,22,D10_N*
G04 #@! TO.N,/D10_N*
X104600000Y-50460000D03*
G04 #@! TO.P,J1,23,D10_P*
G04 #@! TO.N,/D10_P*
X102060000Y-53000000D03*
G04 #@! TO.P,J1,24,D11_N*
G04 #@! TO.N,/D11_N*
X102060000Y-50460000D03*
G04 #@! TO.P,J1,25,DI1_P*
G04 #@! TO.N,/D11_P*
X99520000Y-53000000D03*
G04 #@! TO.P,J1,26,D2_N*
G04 #@! TO.N,/D2_N*
X99520000Y-50460000D03*
G04 #@! TO.P,J1,27,D2_P*
G04 #@! TO.N,/D2_P*
X96980000Y-53000000D03*
G04 #@! TO.P,J1,28,D3_P*
G04 #@! TO.N,/D3_P*
X96980000Y-50460000D03*
G04 #@! TO.P,J1,29,D3_N*
G04 #@! TO.N,/D3_N*
X94440000Y-53000000D03*
G04 #@! TO.P,J1,30,GND*
G04 #@! TO.N,GND*
X94440000Y-50460000D03*
G04 #@! TO.P,J1,31,GND*
X91900000Y-53000000D03*
G04 #@! TO.P,J1,32,D12_N*
G04 #@! TO.N,/D12_N*
X91900000Y-50460000D03*
G04 #@! TO.P,J1,33,D12_P*
G04 #@! TO.N,/D12_P*
X89360000Y-53000000D03*
G04 #@! TO.P,J1,34,D13_P*
G04 #@! TO.N,/D13_P*
X89360000Y-50460000D03*
G04 #@! TO.P,J1,35,D13_N*
G04 #@! TO.N,/D13_N*
X86820000Y-53000000D03*
G04 #@! TO.P,J1,36,D4_N*
G04 #@! TO.N,/D4_N*
X86820000Y-50460000D03*
G04 #@! TO.P,J1,37,D4_P*
G04 #@! TO.N,/D4_P*
X84280000Y-53000000D03*
G04 #@! TO.P,J1,38,D5_P*
G04 #@! TO.N,/D5_P*
X84280000Y-50460000D03*
G04 #@! TO.P,J1,39,D5_N*
G04 #@! TO.N,/D5_N*
X81740000Y-53000000D03*
G04 #@! TO.P,J1,40,GND*
G04 #@! TO.N,GND*
X81740000Y-50460000D03*
G04 #@! TO.P,J1,41,GND*
X79200000Y-53000000D03*
G04 #@! TO.P,J1,42,D14_P*
G04 #@! TO.N,/D14_P*
X79200000Y-50460000D03*
G04 #@! TO.P,J1,43,D14_N*
G04 #@! TO.N,/D14_N*
X76660000Y-53000000D03*
G04 #@! TO.P,J1,44,D15_P*
G04 #@! TO.N,/D15_P*
X76660000Y-50460000D03*
G04 #@! TO.P,J1,45,D15_N*
G04 #@! TO.N,/D15_N*
X74120000Y-53000000D03*
G04 #@! TO.P,J1,46,D6_N*
G04 #@! TO.N,/D6_N*
X74120000Y-50460000D03*
G04 #@! TO.P,J1,47,D6_P*
G04 #@! TO.N,/D6_P*
X71580000Y-53000000D03*
G04 #@! TO.P,J1,48,D7_P*
G04 #@! TO.N,/D7_P*
X71580000Y-50460000D03*
G04 #@! TO.P,J1,49,D7_N*
G04 #@! TO.N,/D7_N*
X69040000Y-53000000D03*
G04 #@! TO.P,J1,50,GND*
G04 #@! TO.N,GND*
X69040000Y-50460000D03*
G04 #@! TD*
D11*
G04 #@! TO.P,R20,1*
G04 #@! TO.N,/D9_N*
X130325000Y-89500000D03*
G04 #@! TO.P,R20,2*
G04 #@! TO.N,/D9_P*
X128675000Y-89500000D03*
G04 #@! TD*
G04 #@! TO.P,R11,1*
G04 #@! TO.N,/D0_N*
X94825000Y-89500000D03*
G04 #@! TO.P,R11,2*
G04 #@! TO.N,/D0_P*
X93175000Y-89500000D03*
G04 #@! TD*
G04 #@! TO.P,R18,1*
G04 #@! TO.N,/D7_N*
X65325000Y-89500000D03*
G04 #@! TO.P,R18,2*
G04 #@! TO.N,/D7_P*
X63675000Y-89500000D03*
G04 #@! TD*
D14*
G04 #@! TO.P,R4,1*
G04 #@! TO.N,Net-(R2-Pad1)*
X129000000Y-68825000D03*
G04 #@! TO.P,R4,2*
G04 #@! TO.N,Net-(D1-K)*
X129000000Y-67175000D03*
G04 #@! TD*
D11*
G04 #@! TO.P,R25,1*
G04 #@! TO.N,/D14_N*
X108650000Y-89500000D03*
G04 #@! TO.P,R25,2*
G04 #@! TO.N,/D14_P*
X107000000Y-89500000D03*
G04 #@! TD*
D14*
G04 #@! TO.P,R1,1*
G04 #@! TO.N,Net-(U1A--)*
X129500000Y-57325000D03*
G04 #@! TO.P,R1,2*
G04 #@! TO.N,GND*
X129500000Y-55675000D03*
G04 #@! TD*
D11*
G04 #@! TO.P,R12,1*
G04 #@! TO.N,/D1_N*
X91650000Y-89500000D03*
G04 #@! TO.P,R12,2*
G04 #@! TO.N,/D1_P*
X90000000Y-89500000D03*
G04 #@! TD*
G04 #@! TO.P,R17,1*
G04 #@! TO.N,/D6_N*
X68825000Y-89500000D03*
G04 #@! TO.P,R17,2*
G04 #@! TO.N,/D6_P*
X67175000Y-89500000D03*
G04 #@! TD*
G04 #@! TO.P,R19,1*
G04 #@! TO.N,/D8_N*
X133500000Y-89500000D03*
G04 #@! TO.P,R19,2*
G04 #@! TO.N,/D8_P*
X131850000Y-89500000D03*
G04 #@! TD*
D20*
G04 #@! TO.P,H1,1,1*
G04 #@! TO.N,GND*
X61600000Y-74000000D03*
X62302944Y-72302944D03*
X62302944Y-75697056D03*
X64000000Y-71600000D03*
D21*
X64000000Y-74000000D03*
D20*
X64000000Y-76400000D03*
X65697056Y-72302944D03*
X65697056Y-75697056D03*
X66400000Y-74000000D03*
G04 #@! TD*
D17*
G04 #@! TO.P,R7,1*
G04 #@! TO.N,Net-(R7-Pad1)*
X125000000Y-55675000D03*
G04 #@! TO.P,R7,2*
G04 #@! TO.N,Net-(U2A--)*
X125000000Y-57325000D03*
G04 #@! TD*
D11*
G04 #@! TO.P,R15,1*
G04 #@! TO.N,/D4_N*
X75325000Y-89500000D03*
G04 #@! TO.P,R15,2*
G04 #@! TO.N,/D4_P*
X73675000Y-89500000D03*
G04 #@! TD*
G04 #@! TO.P,R21,1*
G04 #@! TO.N,/D10_N*
X127150000Y-89500000D03*
G04 #@! TO.P,R21,2*
G04 #@! TO.N,/D10_P*
X125500000Y-89500000D03*
G04 #@! TD*
D22*
G04 #@! TO.P,J3,1,Pin_1*
G04 #@! TO.N,/Vref_8_15_out*
X133500000Y-82000000D03*
D23*
G04 #@! TO.P,J3,2,Pin_2*
G04 #@! TO.N,GND*
X133500000Y-84540000D03*
G04 #@! TO.P,J3,3,Pin_3*
G04 #@! TO.N,/D8_P*
X130960000Y-82000000D03*
G04 #@! TO.P,J3,4,Pin_4*
G04 #@! TO.N,/D8_N*
X130960000Y-84540000D03*
G04 #@! TO.P,J3,5,Pin_5*
G04 #@! TO.N,/D9_P*
X128420000Y-82000000D03*
G04 #@! TO.P,J3,6,Pin_6*
G04 #@! TO.N,/D9_N*
X128420000Y-84540000D03*
G04 #@! TO.P,J3,7,Pin_7*
G04 #@! TO.N,/D10_P*
X125880000Y-82000000D03*
G04 #@! TO.P,J3,8,Pin_8*
G04 #@! TO.N,/D10_N*
X125880000Y-84540000D03*
G04 #@! TO.P,J3,9,Pin_9*
G04 #@! TO.N,/D11_P*
X123340000Y-82000000D03*
G04 #@! TO.P,J3,10,Pin_10*
G04 #@! TO.N,/D11_N*
X123340000Y-84540000D03*
G04 #@! TO.P,J3,11,Pin_11*
G04 #@! TO.N,GND*
X120800000Y-82000000D03*
G04 #@! TO.P,J3,12,Pin_12*
X120800000Y-84540000D03*
G04 #@! TO.P,J3,13,Pin_13*
G04 #@! TO.N,+4V*
X118260000Y-82000000D03*
G04 #@! TO.P,J3,14,Pin_14*
X118260000Y-84540000D03*
G04 #@! TO.P,J3,15,Pin_15*
G04 #@! TO.N,/D12_P*
X115720000Y-82000000D03*
G04 #@! TO.P,J3,16,Pin_16*
G04 #@! TO.N,/D12_N*
X115720000Y-84540000D03*
G04 #@! TO.P,J3,17,Pin_17*
G04 #@! TO.N,/D13_P*
X113180000Y-82000000D03*
G04 #@! TO.P,J3,18,Pin_18*
G04 #@! TO.N,/D13_N*
X113180000Y-84540000D03*
G04 #@! TO.P,J3,19,Pin_19*
G04 #@! TO.N,/D14_P*
X110640000Y-82000000D03*
G04 #@! TO.P,J3,20,Pin_20*
G04 #@! TO.N,/D14_N*
X110640000Y-84540000D03*
G04 #@! TO.P,J3,21,Pin_21*
G04 #@! TO.N,/D15_P*
X108100000Y-82000000D03*
G04 #@! TO.P,J3,22,Pin_22*
G04 #@! TO.N,/D15_N*
X108100000Y-84540000D03*
G04 #@! TO.P,J3,23,Pin_23*
G04 #@! TO.N,GND*
X105560000Y-82000000D03*
G04 #@! TO.P,J3,24,Pin_24*
X105560000Y-84540000D03*
G04 #@! TD*
D24*
G04 #@! TO.P,U1,1*
G04 #@! TO.N,Net-(R2-Pad1)*
X130905000Y-59525000D03*
G04 #@! TO.P,U1,2,-*
G04 #@! TO.N,Net-(U1A--)*
X129635000Y-59525000D03*
G04 #@! TO.P,U1,3,+*
G04 #@! TO.N,Net-(U1A-+)*
X128365000Y-59525000D03*
G04 #@! TO.P,U1,4,V-*
G04 #@! TO.N,GND*
X127095000Y-59525000D03*
G04 #@! TO.P,U1,5,+*
G04 #@! TO.N,Net-(D1-K)*
X127095000Y-64475000D03*
G04 #@! TO.P,U1,6,-*
G04 #@! TO.N,/Vref_0_7_out*
X128365000Y-64475000D03*
G04 #@! TO.P,U1,7*
X129635000Y-64475000D03*
G04 #@! TO.P,U1,8,V+*
G04 #@! TO.N,+4V*
X130905000Y-64475000D03*
G04 #@! TD*
D14*
G04 #@! TO.P,R9,1*
G04 #@! TO.N,GND*
X133000000Y-60825000D03*
G04 #@! TO.P,R9,2*
G04 #@! TO.N,Net-(J1-ProbeDet)*
X133000000Y-59175000D03*
G04 #@! TD*
D10*
G04 #@! TO.P,D1,1,K*
G04 #@! TO.N,Net-(D1-K)*
X127000000Y-66950000D03*
G04 #@! TO.P,D1,2,A*
G04 #@! TO.N,GND*
X127000000Y-69050000D03*
G04 #@! TD*
D24*
G04 #@! TO.P,U2,1*
G04 #@! TO.N,Net-(R7-Pad1)*
X124905000Y-59525000D03*
G04 #@! TO.P,U2,2,-*
G04 #@! TO.N,Net-(U2A--)*
X123635000Y-59525000D03*
G04 #@! TO.P,U2,3,+*
G04 #@! TO.N,Net-(U2A-+)*
X122365000Y-59525000D03*
G04 #@! TO.P,U2,4,V-*
G04 #@! TO.N,GND*
X121095000Y-59525000D03*
G04 #@! TO.P,U2,5,+*
G04 #@! TO.N,Net-(D2-K)*
X121095000Y-64475000D03*
G04 #@! TO.P,U2,6,-*
G04 #@! TO.N,/Vref_8_15_out*
X122365000Y-64475000D03*
G04 #@! TO.P,U2,7*
X123635000Y-64475000D03*
G04 #@! TO.P,U2,8,V+*
G04 #@! TO.N,+4V*
X124905000Y-64475000D03*
G04 #@! TD*
D20*
G04 #@! TO.P,H2,1,1*
G04 #@! TO.N,GND*
X132600000Y-74000000D03*
X133302944Y-72302944D03*
X133302944Y-75697056D03*
X135000000Y-71600000D03*
D21*
X135000000Y-74000000D03*
D20*
X135000000Y-76400000D03*
X136697056Y-72302944D03*
X136697056Y-75697056D03*
X137400000Y-74000000D03*
G04 #@! TD*
D11*
G04 #@! TO.P,R22,1*
G04 #@! TO.N,/D11_N*
X124000000Y-89500000D03*
G04 #@! TO.P,R22,2*
G04 #@! TO.N,/D11_P*
X122350000Y-89500000D03*
G04 #@! TD*
D17*
G04 #@! TO.P,R3,1*
G04 #@! TO.N,/Vref_0_7*
X127500000Y-55675000D03*
G04 #@! TO.P,R3,2*
G04 #@! TO.N,Net-(U1A-+)*
X127500000Y-57325000D03*
G04 #@! TD*
D22*
G04 #@! TO.P,J2,1,Pin_1*
G04 #@! TO.N,/Vref_0_7_out*
X93500000Y-82000000D03*
D23*
G04 #@! TO.P,J2,2,Pin_2*
G04 #@! TO.N,GND*
X93500000Y-84540000D03*
G04 #@! TO.P,J2,3,Pin_3*
G04 #@! TO.N,/D0_P*
X90960000Y-82000000D03*
G04 #@! TO.P,J2,4,Pin_4*
G04 #@! TO.N,/D0_N*
X90960000Y-84540000D03*
G04 #@! TO.P,J2,5,Pin_5*
G04 #@! TO.N,/D1_P*
X88420000Y-82000000D03*
G04 #@! TO.P,J2,6,Pin_6*
G04 #@! TO.N,/D1_N*
X88420000Y-84540000D03*
G04 #@! TO.P,J2,7,Pin_7*
G04 #@! TO.N,/D2_P*
X85880000Y-82000000D03*
G04 #@! TO.P,J2,8,Pin_8*
G04 #@! TO.N,/D2_N*
X85880000Y-84540000D03*
G04 #@! TO.P,J2,9,Pin_9*
G04 #@! TO.N,/D3_P*
X83340000Y-82000000D03*
G04 #@! TO.P,J2,10,Pin_10*
G04 #@! TO.N,/D3_N*
X83340000Y-84540000D03*
G04 #@! TO.P,J2,11,Pin_11*
G04 #@! TO.N,GND*
X80800000Y-82000000D03*
G04 #@! TO.P,J2,12,Pin_12*
X80800000Y-84540000D03*
G04 #@! TO.P,J2,13,Pin_13*
G04 #@! TO.N,+4V*
X78260000Y-82000000D03*
G04 #@! TO.P,J2,14,Pin_14*
X78260000Y-84540000D03*
G04 #@! TO.P,J2,15,Pin_15*
G04 #@! TO.N,/D4_P*
X75720000Y-82000000D03*
G04 #@! TO.P,J2,16,Pin_16*
G04 #@! TO.N,/D4_N*
X75720000Y-84540000D03*
G04 #@! TO.P,J2,17,Pin_17*
G04 #@! TO.N,/D5_P*
X73180000Y-82000000D03*
G04 #@! TO.P,J2,18,Pin_18*
G04 #@! TO.N,/D5_N*
X73180000Y-84540000D03*
G04 #@! TO.P,J2,19,Pin_19*
G04 #@! TO.N,/D6_P*
X70640000Y-82000000D03*
G04 #@! TO.P,J2,20,Pin_20*
G04 #@! TO.N,/D6_N*
X70640000Y-84540000D03*
G04 #@! TO.P,J2,21,Pin_21*
G04 #@! TO.N,/D7_P*
X68100000Y-82000000D03*
G04 #@! TO.P,J2,22,Pin_22*
G04 #@! TO.N,/D7_N*
X68100000Y-84540000D03*
G04 #@! TO.P,J2,23,Pin_23*
G04 #@! TO.N,GND*
X65560000Y-82000000D03*
G04 #@! TO.P,J2,24,Pin_24*
X65560000Y-84540000D03*
G04 #@! TD*
D11*
G04 #@! TO.P,R24,1*
G04 #@! TO.N,/D13_N*
X111825000Y-89500000D03*
G04 #@! TO.P,R24,2*
G04 #@! TO.N,/D13_P*
X110175000Y-89500000D03*
G04 #@! TD*
D16*
G04 #@! TO.P,C1,1*
G04 #@! TO.N,+4V*
X131000000Y-67225000D03*
G04 #@! TO.P,C1,2*
G04 #@! TO.N,GND*
X131000000Y-68775000D03*
G04 #@! TD*
D17*
G04 #@! TO.P,R2,1*
G04 #@! TO.N,Net-(R2-Pad1)*
X131000000Y-55675000D03*
G04 #@! TO.P,R2,2*
G04 #@! TO.N,Net-(U1A--)*
X131000000Y-57325000D03*
G04 #@! TD*
D25*
G04 #@! TO.N,+4V*
X118000000Y-86500000D03*
X126000000Y-63000000D03*
X79500000Y-87000000D03*
X120000000Y-62000000D03*
X136000000Y-86500000D03*
X132000000Y-66000000D03*
G04 #@! TO.N,GND*
X93500000Y-56500000D03*
X72200000Y-65800000D03*
X80000000Y-80000000D03*
X100000000Y-65000000D03*
X108000000Y-69000000D03*
X92000000Y-55000000D03*
X104500000Y-79000000D03*
X108000000Y-57000000D03*
X116500000Y-77500000D03*
X105500000Y-59500000D03*
X137500000Y-69300000D03*
X111000000Y-68500000D03*
X92000000Y-73500000D03*
X120000000Y-68000000D03*
X77500000Y-65500000D03*
X96500000Y-81000000D03*
X97500000Y-62500000D03*
X117000000Y-55000000D03*
X120500000Y-58000000D03*
X99500000Y-81500000D03*
X89500000Y-71000000D03*
X130000000Y-69500000D03*
X69600000Y-55400000D03*
X130000000Y-80000000D03*
X113750000Y-68000000D03*
X95000000Y-65500000D03*
X117500000Y-75500000D03*
X120600000Y-55000000D03*
X103000000Y-85000000D03*
X81000000Y-57500000D03*
X137400000Y-90200000D03*
X74700000Y-65800000D03*
X111000000Y-78000000D03*
X93500000Y-79500000D03*
X100500000Y-59000000D03*
X86000000Y-64100000D03*
X126000000Y-79000000D03*
X72500000Y-61000000D03*
X75500000Y-63000000D03*
X86000000Y-61500000D03*
X115500000Y-79500000D03*
X122000000Y-79500000D03*
X76500000Y-58000000D03*
X92500000Y-67500000D03*
X116400000Y-63100000D03*
X103000000Y-81500000D03*
X88750000Y-67500000D03*
X124500000Y-70000000D03*
X78000000Y-79500000D03*
X103000000Y-62500000D03*
X126000000Y-72500000D03*
X103000000Y-57000000D03*
X137700000Y-77900000D03*
X85500000Y-67000000D03*
X134200000Y-60900000D03*
X79500000Y-54500000D03*
X126000000Y-70000000D03*
X101000000Y-80000000D03*
X132500000Y-79500000D03*
X123100000Y-61500000D03*
X73300000Y-55000000D03*
X66000000Y-58400000D03*
X87500000Y-79500000D03*
X63800000Y-68200000D03*
X72200000Y-79500000D03*
X99000000Y-55750000D03*
X98500000Y-77500000D03*
X97500000Y-67500000D03*
X83500000Y-55000000D03*
X89500000Y-57500000D03*
X90000000Y-79500000D03*
X95750000Y-60500000D03*
X102400000Y-90600000D03*
X85000000Y-79500000D03*
X69600000Y-79500000D03*
X82000000Y-79500000D03*
X92750000Y-63500000D03*
X84000000Y-59000000D03*
X100000000Y-71000000D03*
X132500000Y-61500000D03*
X84900000Y-72000000D03*
X86200000Y-56100000D03*
X118300000Y-90000000D03*
X104500000Y-54500000D03*
X92000000Y-59500000D03*
X126500000Y-58000000D03*
X105500000Y-69500000D03*
X78500000Y-60000000D03*
X116500000Y-59100000D03*
X104000000Y-71000000D03*
X83000000Y-65000000D03*
X132500000Y-55900000D03*
X108000000Y-79000000D03*
X111300000Y-56100000D03*
X134300000Y-65600000D03*
X124500000Y-54500000D03*
X117500000Y-69000000D03*
X95500000Y-70000000D03*
X62500000Y-85000000D03*
X74700000Y-79500000D03*
X128900000Y-61600000D03*
X80300000Y-62400000D03*
X96200000Y-90600000D03*
X82500000Y-69500000D03*
X107800000Y-62800000D03*
X119500000Y-80500000D03*
X95000000Y-75500000D03*
X100500000Y-75000000D03*
X69600000Y-65800000D03*
X113750000Y-57000000D03*
X62500000Y-80500000D03*
X96250000Y-56000000D03*
X90100000Y-62100000D03*
X95000000Y-86000000D03*
G04 #@! TO.N,Net-(J1-ProbeDet)*
X133000000Y-58000000D03*
G04 #@! TO.N,/D9_N*
X113000000Y-55000000D03*
G04 #@! TO.N,/D1_N*
X108174350Y-54651950D03*
G04 #@! TO.N,/D10_N*
X109525000Y-65000000D03*
G04 #@! TO.N,/D10_P*
X108475000Y-65000000D03*
G04 #@! TO.N,/D11_N*
X106724500Y-66177380D03*
G04 #@! TO.N,/D11_P*
X106000000Y-67000000D03*
G04 #@! TO.N,/D3_N*
X95563150Y-54563150D03*
G04 #@! TO.N,/D12_N*
X104000000Y-69000000D03*
G04 #@! TO.N,/D12_P*
X103500000Y-70000000D03*
G04 #@! TO.N,/D13_P*
X101000000Y-70500000D03*
G04 #@! TO.N,/D13_N*
X88003150Y-54503150D03*
X101724500Y-69793245D03*
G04 #@! TO.N,/D5_P*
X81500000Y-54975000D03*
G04 #@! TO.N,/D5_N*
X81500000Y-56025000D03*
G04 #@! TO.N,/D14_P*
X99000000Y-73500000D03*
G04 #@! TO.N,/D14_N*
X99724500Y-72677380D03*
X78500000Y-55500000D03*
G04 #@! TO.N,/D15_N*
X97724500Y-75177380D03*
X75500000Y-55000000D03*
G04 #@! TO.N,/Vref_0_7_out*
X99500000Y-88000000D03*
X128500000Y-66000000D03*
G04 #@! TO.N,/D15_P*
X97000000Y-76000000D03*
G04 #@! TD*
D26*
G04 #@! TO.N,+4V*
X131000000Y-64570000D02*
X130905000Y-64475000D01*
X76962500Y-87537500D02*
X78260000Y-86240000D01*
D27*
X78260000Y-85760000D02*
X79500000Y-87000000D01*
X118000000Y-86500000D02*
X118000000Y-84800000D01*
X126000000Y-66225000D02*
X125000000Y-67225000D01*
X78260000Y-82000000D02*
X78260000Y-84540000D01*
X78260000Y-84540000D02*
X78260000Y-85760000D01*
X130500000Y-75000000D02*
X136000000Y-80500000D01*
D26*
X125000000Y-67225000D02*
X125000000Y-64570000D01*
D27*
X132000000Y-66000000D02*
X132000000Y-70500000D01*
D26*
X76962500Y-89500000D02*
X76962500Y-87537500D01*
D27*
X130500000Y-72000000D02*
X130500000Y-75000000D01*
X118000000Y-84800000D02*
X118260000Y-84540000D01*
X136000000Y-80500000D02*
X136000000Y-86500000D01*
X118260000Y-82000000D02*
X118260000Y-84540000D01*
X132000000Y-70500000D02*
X130500000Y-72000000D01*
D26*
X125000000Y-64570000D02*
X124905000Y-64475000D01*
X131000000Y-67225000D02*
X131000000Y-64570000D01*
D27*
X132000000Y-66000000D02*
X132000000Y-66225000D01*
X126000000Y-63000000D02*
X126000000Y-66225000D01*
D26*
X78260000Y-86240000D02*
X78260000Y-84540000D01*
D27*
X119000000Y-57287500D02*
X119000000Y-61000000D01*
X132000000Y-66225000D02*
X131000000Y-67225000D01*
X119000000Y-61000000D02*
X120000000Y-62000000D01*
D26*
G04 #@! TO.N,GND*
X125000000Y-68775000D02*
X125000000Y-69500000D01*
D27*
X117000000Y-54500000D02*
X117000000Y-55000000D01*
D26*
X127095000Y-59525000D02*
X127095000Y-58595000D01*
X81787500Y-89500000D02*
X80800000Y-88512500D01*
X120000000Y-68050000D02*
X121000000Y-69050000D01*
X133000000Y-60825000D02*
X133000000Y-61000000D01*
D27*
X94440000Y-50460000D02*
X91900000Y-53000000D01*
D26*
X80800000Y-88512500D02*
X80800000Y-84540000D01*
D27*
X79200000Y-54200000D02*
X79500000Y-54500000D01*
D26*
X127000000Y-69050000D02*
X126950000Y-69050000D01*
D27*
X79200000Y-53000000D02*
X79200000Y-54200000D01*
X104600000Y-54400000D02*
X104500000Y-54500000D01*
D26*
X120000000Y-68000000D02*
X120000000Y-68050000D01*
D27*
X104600000Y-53000000D02*
X104600000Y-54400000D01*
D26*
X123500000Y-55500000D02*
X124500000Y-54500000D01*
D27*
X81740000Y-50460000D02*
X79200000Y-53000000D01*
D26*
X129500000Y-55040000D02*
X127460000Y-53000000D01*
X126950000Y-69050000D02*
X126000000Y-70000000D01*
D27*
X117300000Y-54200000D02*
X117000000Y-54500000D01*
D26*
X131000000Y-68775000D02*
X130725000Y-68775000D01*
D27*
X107140000Y-50460000D02*
X104600000Y-53000000D01*
D26*
X133000000Y-61000000D02*
X132500000Y-61500000D01*
X127095000Y-58595000D02*
X126500000Y-58000000D01*
X123500000Y-55675000D02*
X123500000Y-55500000D01*
D27*
X91900000Y-54900000D02*
X92000000Y-55000000D01*
X91900000Y-53000000D02*
X91900000Y-54900000D01*
X117300000Y-53000000D02*
X117300000Y-54200000D01*
D26*
X121095000Y-58595000D02*
X120500000Y-58000000D01*
X125000000Y-69500000D02*
X124500000Y-70000000D01*
X121095000Y-59525000D02*
X121095000Y-58595000D01*
X129500000Y-55675000D02*
X129500000Y-55040000D01*
X130725000Y-68775000D02*
X130000000Y-69500000D01*
G04 #@! TO.N,Net-(D1-K)*
X127095000Y-66855000D02*
X127000000Y-66950000D01*
X127095000Y-64475000D02*
X127095000Y-66855000D01*
X127225000Y-67175000D02*
X127000000Y-66950000D01*
X129000000Y-67175000D02*
X127225000Y-67175000D01*
G04 #@! TO.N,Net-(D2-K)*
X121095000Y-66855000D02*
X121000000Y-66950000D01*
X123000000Y-67175000D02*
X121225000Y-67175000D01*
X121095000Y-64475000D02*
X121095000Y-66855000D01*
X121225000Y-67175000D02*
X121000000Y-66950000D01*
G04 #@! TO.N,Net-(D3-A)*
X80212500Y-89500000D02*
X78612500Y-89500000D01*
D27*
G04 #@! TO.N,Net-(J1-+4Vin)*
X122380000Y-50460000D02*
X119840000Y-50460000D01*
X118590000Y-51710000D02*
X118590000Y-55302500D01*
X118590000Y-55302500D02*
X119000000Y-55712500D01*
X119840000Y-50460000D02*
X118590000Y-51710000D01*
D26*
G04 #@! TO.N,Net-(J1-ProbeDet)*
X133000000Y-58000000D02*
X133000000Y-59175000D01*
G04 #@! TO.N,/Vref_8_15*
X122000000Y-55675000D02*
X122245000Y-55675000D01*
X122245000Y-55675000D02*
X124920000Y-53000000D01*
G04 #@! TO.N,/Vref_0_7*
X126095000Y-54270000D02*
X126095000Y-51635000D01*
X126095000Y-51635000D02*
X124920000Y-50460000D01*
X127500000Y-55675000D02*
X126095000Y-54270000D01*
G04 #@! TO.N,/D8_N*
X130960000Y-84540000D02*
X131460000Y-84040000D01*
X131460000Y-80838299D02*
X131460000Y-79606446D01*
X132135000Y-81513299D02*
X131460000Y-80838299D01*
X131460000Y-79606446D02*
X124353554Y-72500000D01*
X119353554Y-72500000D02*
X115250000Y-68396446D01*
X115935000Y-54815000D02*
X115935000Y-51825000D01*
X133500000Y-89500000D02*
X133500000Y-87080000D01*
X115250000Y-68396446D02*
X115250000Y-55500000D01*
X131460000Y-84040000D02*
X131460000Y-83161701D01*
X131460000Y-83161701D02*
X132135000Y-82486701D01*
X132135000Y-82486701D02*
X132135000Y-81513299D01*
X115935000Y-51825000D02*
X117300000Y-50460000D01*
X133500000Y-87080000D02*
X130960000Y-84540000D01*
X124353554Y-72500000D02*
X119353554Y-72500000D01*
X115250000Y-55500000D02*
X115935000Y-54815000D01*
G04 #@! TO.N,/D8_P*
X114760000Y-55490000D02*
X114760000Y-53000000D01*
X131850000Y-89500000D02*
X131850000Y-87350000D01*
X119073223Y-73000000D02*
X114750000Y-68676777D01*
X130960000Y-79813554D02*
X124146446Y-73000000D01*
X129785000Y-83175000D02*
X130960000Y-82000000D01*
X124146446Y-73000000D02*
X119073223Y-73000000D01*
X129785000Y-85285000D02*
X129785000Y-83175000D01*
X131850000Y-87350000D02*
X129785000Y-85285000D01*
X114750000Y-68676777D02*
X114750000Y-55500000D01*
X130960000Y-82000000D02*
X130960000Y-79813554D01*
X114750000Y-55500000D02*
X114760000Y-55490000D01*
G04 #@! TO.N,/D9_P*
X113500000Y-53381701D02*
X113500000Y-51720000D01*
X117800305Y-74775000D02*
X117775000Y-74775000D01*
X112250000Y-69250000D02*
X112250000Y-54631701D01*
X123073223Y-75000000D02*
X118025305Y-75000000D01*
X117775000Y-74775000D02*
X112250000Y-69250000D01*
X128420000Y-82000000D02*
X128420000Y-80346777D01*
X128420000Y-80346777D02*
X123073223Y-75000000D01*
X127245000Y-88070000D02*
X127245000Y-83175000D01*
X127245000Y-83175000D02*
X128420000Y-82000000D01*
X128675000Y-89500000D02*
X127245000Y-88070000D01*
X118025305Y-75000000D02*
X117800305Y-74775000D01*
X112250000Y-54631701D02*
X113500000Y-53381701D01*
X113500000Y-51720000D02*
X114760000Y-50460000D01*
G04 #@! TO.N,/D9_N*
X128920000Y-83161701D02*
X129595000Y-82486701D01*
X128920000Y-80838299D02*
X128920000Y-79920000D01*
X130325000Y-89500000D02*
X128420000Y-87595000D01*
X128920000Y-84040000D02*
X128920000Y-83161701D01*
X128420000Y-87595000D02*
X128420000Y-84540000D01*
X112750000Y-69113604D02*
X112750000Y-55250000D01*
X117961396Y-74325000D02*
X112750000Y-69113604D01*
X128420000Y-84540000D02*
X128920000Y-84040000D01*
X123500000Y-74500000D02*
X118161701Y-74500000D01*
X128920000Y-79920000D02*
X123500000Y-74500000D01*
X129595000Y-81513299D02*
X128920000Y-80838299D01*
X129595000Y-82486701D02*
X129595000Y-81513299D01*
X117986701Y-74325000D02*
X117961396Y-74325000D01*
X112750000Y-55250000D02*
X113000000Y-55000000D01*
X118161701Y-74500000D02*
X117986701Y-74325000D01*
G04 #@! TO.N,/D0_N*
X90960000Y-84540000D02*
X91460000Y-84040000D01*
X93500000Y-87000000D02*
X93420000Y-87000000D01*
X110855000Y-51825000D02*
X112220000Y-50460000D01*
X94825000Y-88325000D02*
X93500000Y-87000000D01*
X110400000Y-57953554D02*
X110400000Y-55500000D01*
X94825000Y-89500000D02*
X94825000Y-88325000D01*
X110855000Y-55045000D02*
X110855000Y-51825000D01*
X91460000Y-84040000D02*
X91460000Y-83161701D01*
X91460000Y-76893554D02*
X110400000Y-57953554D01*
X91460000Y-83161701D02*
X92135000Y-82486701D01*
X110400000Y-55500000D02*
X110855000Y-55045000D01*
X91460000Y-80838299D02*
X91460000Y-76893554D01*
X92135000Y-82486701D02*
X92135000Y-81513299D01*
X93420000Y-87000000D02*
X90960000Y-84540000D01*
X92135000Y-81513299D02*
X91460000Y-80838299D01*
G04 #@! TO.N,/D0_P*
X93175000Y-88675000D02*
X89785000Y-85285000D01*
X109800000Y-55050000D02*
X109680000Y-54930000D01*
X90960000Y-76686446D02*
X109800000Y-57846446D01*
X89785000Y-83175000D02*
X90960000Y-82000000D01*
X109800000Y-57846446D02*
X109800000Y-55050000D01*
X90960000Y-82000000D02*
X90960000Y-76686446D01*
X109680000Y-54930000D02*
X109680000Y-53000000D01*
X89785000Y-85285000D02*
X89785000Y-83175000D01*
X93175000Y-89500000D02*
X93175000Y-88675000D01*
G04 #@! TO.N,/D1_P*
X106750000Y-54750000D02*
X107325000Y-54175000D01*
X87245000Y-83175000D02*
X88420000Y-82000000D01*
X107325000Y-54175000D02*
X107626701Y-54175000D01*
X88420000Y-74226446D02*
X106750000Y-55896446D01*
X90000000Y-89000000D02*
X87245000Y-86245000D01*
X108500000Y-51640000D02*
X109680000Y-50460000D01*
X108500000Y-53301701D02*
X108500000Y-51640000D01*
X90000000Y-89500000D02*
X90000000Y-89000000D01*
X107626701Y-54175000D02*
X108500000Y-53301701D01*
X88420000Y-82000000D02*
X88420000Y-74226446D01*
X106750000Y-55896446D02*
X106750000Y-54750000D01*
X87245000Y-86245000D02*
X87245000Y-83175000D01*
G04 #@! TO.N,/D1_N*
X91650000Y-89500000D02*
X91000000Y-88850000D01*
X88420000Y-85420000D02*
X88420000Y-84540000D01*
X88420000Y-84540000D02*
X88920000Y-84040000D01*
X88920000Y-74433554D02*
X107250000Y-56103554D01*
X88920000Y-84040000D02*
X88920000Y-83161701D01*
X91000000Y-88000000D02*
X88420000Y-85420000D01*
X91000000Y-88850000D02*
X91000000Y-88000000D01*
X89595000Y-82486701D02*
X89595000Y-81513299D01*
X88920000Y-83161701D02*
X89595000Y-82486701D01*
X107250000Y-55576300D02*
X108174350Y-54651950D01*
X107250000Y-56103554D02*
X107250000Y-55576300D01*
X89595000Y-81513299D02*
X88920000Y-80838299D01*
X88920000Y-80838299D02*
X88920000Y-74433554D01*
G04 #@! TO.N,/D10_N*
X109250000Y-65275000D02*
X109525000Y-65000000D01*
X109250000Y-68613604D02*
X109250000Y-65275000D01*
X126380000Y-80838299D02*
X126380000Y-80526446D01*
X126380000Y-80526446D02*
X122353554Y-76500000D01*
X127055000Y-82486701D02*
X127055000Y-81513299D01*
X125880000Y-88230000D02*
X125880000Y-84540000D01*
X116986701Y-76325000D02*
X116961396Y-76325000D01*
X127055000Y-81513299D02*
X126380000Y-80838299D01*
X126380000Y-84040000D02*
X126380000Y-83161701D01*
X122353554Y-76500000D02*
X117161701Y-76500000D01*
X125880000Y-84540000D02*
X126380000Y-84040000D01*
X116961396Y-76325000D02*
X109250000Y-68613604D01*
X126380000Y-83161701D02*
X127055000Y-82486701D01*
X127150000Y-89500000D02*
X125880000Y-88230000D01*
X117161701Y-76500000D02*
X116986701Y-76325000D01*
G04 #@! TO.N,/D10_P*
X108750000Y-68750000D02*
X108750000Y-65275000D01*
X125880000Y-82000000D02*
X125880000Y-80733554D01*
X124705000Y-88705000D02*
X124705000Y-83175000D01*
X108750000Y-65275000D02*
X108475000Y-65000000D01*
X124705000Y-83175000D02*
X125880000Y-82000000D01*
X117025305Y-77000000D02*
X116800305Y-76775000D01*
X125500000Y-89500000D02*
X124705000Y-88705000D01*
X116800305Y-76775000D02*
X116775000Y-76775000D01*
X122146446Y-77000000D02*
X117025305Y-77000000D01*
X116775000Y-76775000D02*
X108750000Y-68750000D01*
X125880000Y-80733554D02*
X122146446Y-77000000D01*
G04 #@! TO.N,/D11_N*
X106724500Y-69088104D02*
X115961396Y-78325000D01*
X124000000Y-89500000D02*
X123340000Y-88840000D01*
X124515000Y-81513299D02*
X124515000Y-82486701D01*
X106724500Y-66177380D02*
X106724500Y-69088104D01*
X124515000Y-82486701D02*
X123840000Y-83161701D01*
X116161701Y-78500000D02*
X119636396Y-78500000D01*
X119636396Y-78500000D02*
X121961396Y-80825000D01*
X123826701Y-80825000D02*
X124515000Y-81513299D01*
X123840000Y-83161701D02*
X123840000Y-84040000D01*
X121961396Y-80825000D02*
X123826701Y-80825000D01*
X115961396Y-78325000D02*
X115986701Y-78325000D01*
X123340000Y-88840000D02*
X123340000Y-84540000D01*
X115986701Y-78325000D02*
X116161701Y-78500000D01*
X123840000Y-84040000D02*
X123340000Y-84540000D01*
G04 #@! TO.N,/D11_P*
X122165000Y-89315000D02*
X122165000Y-83175000D01*
X106000000Y-68974695D02*
X106225000Y-69199695D01*
X106225000Y-69199695D02*
X106225000Y-69225000D01*
X116025305Y-79000000D02*
X119500000Y-79000000D01*
X122165000Y-83175000D02*
X123340000Y-82000000D01*
X122500000Y-82000000D02*
X123340000Y-82000000D01*
X106225000Y-69225000D02*
X115775000Y-78775000D01*
X115800305Y-78775000D02*
X116025305Y-79000000D01*
X115775000Y-78775000D02*
X115800305Y-78775000D01*
X106000000Y-67000000D02*
X106000000Y-68974695D01*
X119500000Y-79000000D02*
X122500000Y-82000000D01*
X122350000Y-89500000D02*
X122165000Y-89315000D01*
G04 #@! TO.N,/D2_N*
X98155000Y-51825000D02*
X99520000Y-50460000D01*
X86380000Y-71973554D02*
X97750000Y-60603554D01*
X85880000Y-84540000D02*
X86380000Y-84040000D01*
X97750000Y-54500000D02*
X98155000Y-54095000D01*
X88325000Y-89500000D02*
X85880000Y-87055000D01*
X86380000Y-83161701D02*
X87055000Y-82486701D01*
X97750000Y-60603554D02*
X97750000Y-54500000D01*
X85880000Y-87055000D02*
X85880000Y-84540000D01*
X87055000Y-81513299D02*
X86380000Y-80838299D01*
X86380000Y-80838299D02*
X86380000Y-71973554D01*
X98155000Y-54095000D02*
X98155000Y-51825000D01*
X87055000Y-82486701D02*
X87055000Y-81513299D01*
X86380000Y-84040000D02*
X86380000Y-83161701D01*
G04 #@! TO.N,/D2_P*
X97250000Y-60396446D02*
X97250000Y-54500000D01*
X84705000Y-83175000D02*
X85880000Y-82000000D01*
X96980000Y-54230000D02*
X96980000Y-53000000D01*
X84705000Y-87530000D02*
X84705000Y-83175000D01*
X85880000Y-82000000D02*
X85880000Y-71766446D01*
X97250000Y-54500000D02*
X96980000Y-54230000D01*
X86675000Y-89500000D02*
X84705000Y-87530000D01*
X85880000Y-71766446D02*
X97250000Y-60396446D01*
G04 #@! TO.N,/D3_P*
X94750000Y-54351701D02*
X95615000Y-53486701D01*
X83340000Y-70806446D02*
X94750000Y-59396446D01*
X95615000Y-51825000D02*
X96980000Y-50460000D01*
X82165000Y-83175000D02*
X83340000Y-82000000D01*
X82165000Y-88165000D02*
X82165000Y-83175000D01*
X95615000Y-53486701D02*
X95615000Y-51825000D01*
X94750000Y-59396446D02*
X94750000Y-54351701D01*
X83500000Y-89500000D02*
X82165000Y-88165000D01*
X83340000Y-82000000D02*
X83340000Y-70806446D01*
G04 #@! TO.N,/D3_N*
X83840000Y-71013554D02*
X95250000Y-59603554D01*
X83840000Y-84040000D02*
X83840000Y-83161701D01*
X95250000Y-55000000D02*
X95250000Y-54876300D01*
X83340000Y-84540000D02*
X83840000Y-84040000D01*
X83340000Y-87690000D02*
X83340000Y-84540000D01*
X95250000Y-54876300D02*
X95563150Y-54563150D01*
X84515000Y-82486701D02*
X84515000Y-81513299D01*
X95250000Y-59603554D02*
X95250000Y-55000000D01*
X83840000Y-80838299D02*
X83840000Y-71013554D01*
X85150000Y-89500000D02*
X83340000Y-87690000D01*
X83840000Y-83161701D02*
X84515000Y-82486701D01*
X84515000Y-81513299D02*
X83840000Y-80838299D01*
G04 #@! TO.N,/D12_N*
X104000000Y-69338299D02*
X105175000Y-70513299D01*
X111486701Y-76825000D02*
X115486701Y-80825000D01*
X111461396Y-76825000D02*
X111486701Y-76825000D01*
X104000000Y-69000000D02*
X104000000Y-69338299D01*
X116895000Y-81513299D02*
X116895000Y-83365000D01*
X116895000Y-83365000D02*
X115720000Y-84540000D01*
X115486701Y-80825000D02*
X116206701Y-80825000D01*
X105175000Y-70513299D02*
X105175000Y-70538604D01*
X105175000Y-70538604D02*
X111461396Y-76825000D01*
X116206701Y-80825000D02*
X116895000Y-81513299D01*
X115720000Y-86780000D02*
X115720000Y-84540000D01*
X114825000Y-87675000D02*
X115720000Y-86780000D01*
X114825000Y-89500000D02*
X114825000Y-87675000D01*
G04 #@! TO.N,/D12_P*
X103500000Y-70000000D02*
X104025305Y-70000000D01*
X111300305Y-77275000D02*
X115720000Y-81694695D01*
X113175000Y-89500000D02*
X113175000Y-88688604D01*
X111275000Y-77275000D02*
X111300305Y-77275000D01*
X114500000Y-87363604D02*
X114500000Y-83220000D01*
X104725000Y-70699695D02*
X104725000Y-70725000D01*
X113175000Y-88688604D02*
X114500000Y-87363604D01*
X104025305Y-70000000D02*
X104725000Y-70699695D01*
X115720000Y-81694695D02*
X115720000Y-82000000D01*
X104725000Y-70725000D02*
X111275000Y-77275000D01*
X114500000Y-83220000D02*
X115720000Y-82000000D01*
G04 #@! TO.N,/D13_P*
X110655000Y-79475000D02*
X113180000Y-82000000D01*
X101000000Y-70500000D02*
X109975000Y-79475000D01*
X110175000Y-88325000D02*
X112000000Y-86500000D01*
X112000000Y-83180000D02*
X113180000Y-82000000D01*
X112000000Y-86500000D02*
X112000000Y-83180000D01*
X109975000Y-79475000D02*
X110655000Y-79475000D01*
X110175000Y-89500000D02*
X110175000Y-88325000D01*
G04 #@! TO.N,/D13_N*
X114355000Y-81513299D02*
X114355000Y-82486701D01*
X113680000Y-83161701D02*
X113680000Y-84040000D01*
X101724500Y-70224500D02*
X110525000Y-79025000D01*
X110841396Y-79025000D02*
X112641396Y-80825000D01*
X111825000Y-87675000D02*
X113180000Y-86320000D01*
X88003150Y-54183150D02*
X86820000Y-53000000D01*
X88003150Y-54503150D02*
X88003150Y-54183150D01*
X113680000Y-84040000D02*
X113180000Y-84540000D01*
X110525000Y-79025000D02*
X110841396Y-79025000D01*
X101724500Y-69793245D02*
X101724500Y-70224500D01*
X114355000Y-82486701D02*
X113680000Y-83161701D01*
X111825000Y-89500000D02*
X111825000Y-87675000D01*
X113180000Y-86320000D02*
X113180000Y-84540000D01*
X113666701Y-80825000D02*
X114355000Y-81513299D01*
X112641396Y-80825000D02*
X113666701Y-80825000D01*
G04 #@! TO.N,/D4_N*
X76220000Y-80838299D02*
X76220000Y-64633554D01*
X85250000Y-55603554D02*
X85250000Y-54500000D01*
X85455000Y-51825000D02*
X86820000Y-50460000D01*
X75720000Y-89105000D02*
X75720000Y-84540000D01*
X76895000Y-81513299D02*
X76220000Y-80838299D01*
X76220000Y-64633554D02*
X85250000Y-55603554D01*
X76220000Y-83161701D02*
X76895000Y-82486701D01*
X76895000Y-82486701D02*
X76895000Y-81513299D01*
X85455000Y-54295000D02*
X85455000Y-51825000D01*
X75720000Y-84540000D02*
X76220000Y-84040000D01*
X85250000Y-54500000D02*
X85455000Y-54295000D01*
X75325000Y-89500000D02*
X75720000Y-89105000D01*
X76220000Y-84040000D02*
X76220000Y-83161701D01*
G04 #@! TO.N,/D4_P*
X75720000Y-82000000D02*
X75720000Y-64426446D01*
X84750000Y-55396446D02*
X84750000Y-53470000D01*
X73675000Y-89500000D02*
X74355000Y-88820000D01*
X84280000Y-53000000D02*
X84500000Y-53000000D01*
X84750000Y-53470000D02*
X84280000Y-53000000D01*
X74355000Y-88820000D02*
X74355000Y-83365000D01*
X74355000Y-83365000D02*
X75720000Y-82000000D01*
X75720000Y-64426446D02*
X84750000Y-55396446D01*
X84500000Y-53000000D02*
X84800000Y-53300000D01*
G04 #@! TO.N,/D5_P*
X73180000Y-82000000D02*
X73180000Y-62966446D01*
X72000000Y-83180000D02*
X73180000Y-82000000D01*
X70500000Y-89500000D02*
X70500000Y-86341701D01*
X70500000Y-86341701D02*
X72000000Y-84841701D01*
X81225000Y-55250000D02*
X81500000Y-54975000D01*
X73180000Y-62966446D02*
X80896446Y-55250000D01*
X80896446Y-55250000D02*
X81225000Y-55250000D01*
X72000000Y-84841701D02*
X72000000Y-83180000D01*
G04 #@! TO.N,/D5_N*
X72150000Y-85570000D02*
X73180000Y-84540000D01*
X81103554Y-55750000D02*
X81225000Y-55750000D01*
X73680000Y-83161701D02*
X74355000Y-82486701D01*
X74355000Y-81513299D02*
X73680000Y-80838299D01*
X73180000Y-84540000D02*
X73680000Y-84040000D01*
X73680000Y-63173554D02*
X81103554Y-55750000D01*
X72150000Y-89500000D02*
X72150000Y-85570000D01*
X74355000Y-82486701D02*
X74355000Y-81513299D01*
X73680000Y-80838299D02*
X73680000Y-63173554D01*
X73680000Y-84040000D02*
X73680000Y-83161701D01*
X81225000Y-55750000D02*
X81500000Y-56025000D01*
G04 #@! TO.N,/D14_P*
X107000000Y-89500000D02*
X107000000Y-88500000D01*
X99000000Y-73500000D02*
X100500000Y-73500000D01*
X109465000Y-86035000D02*
X109465000Y-83175000D01*
X109465000Y-83175000D02*
X110640000Y-82000000D01*
X109015000Y-80375000D02*
X110640000Y-82000000D01*
X100500000Y-73500000D02*
X107375000Y-80375000D01*
X107375000Y-80375000D02*
X109015000Y-80375000D01*
X107000000Y-88500000D02*
X109465000Y-86035000D01*
G04 #@! TO.N,/D14_N*
X100313776Y-72677380D02*
X107561396Y-79925000D01*
X111140000Y-83161701D02*
X111140000Y-84040000D01*
X108650000Y-88350000D02*
X110640000Y-86360000D01*
X78500000Y-55500000D02*
X78500000Y-54840000D01*
X111815000Y-81513299D02*
X111815000Y-82486701D01*
X99724500Y-72677380D02*
X100313776Y-72677380D01*
X111815000Y-82486701D02*
X111140000Y-83161701D01*
X110226701Y-79925000D02*
X111815000Y-81513299D01*
X108650000Y-89500000D02*
X108650000Y-88350000D01*
X111140000Y-84040000D02*
X110640000Y-84540000D01*
X107561396Y-79925000D02*
X110226701Y-79925000D01*
X78500000Y-54840000D02*
X76660000Y-53000000D01*
X110640000Y-86360000D02*
X110640000Y-84540000D01*
G04 #@! TO.N,/D15_N*
X99313776Y-75177380D02*
X104511396Y-80375000D01*
X75500000Y-54380000D02*
X74120000Y-53000000D01*
X106233097Y-80375000D02*
X106683097Y-80825000D01*
X108100000Y-85900000D02*
X108100000Y-84540000D01*
X108586701Y-80825000D02*
X109275000Y-81513299D01*
X109275000Y-81513299D02*
X109275000Y-82486701D01*
X109275000Y-82486701D02*
X108600000Y-83161701D01*
X105325000Y-89500000D02*
X105325000Y-88675000D01*
X108600000Y-84040000D02*
X108100000Y-84540000D01*
X108600000Y-83161701D02*
X108600000Y-84040000D01*
X97724500Y-75177380D02*
X99313776Y-75177380D01*
X104511396Y-80375000D02*
X106233097Y-80375000D01*
X75500000Y-55000000D02*
X75500000Y-54380000D01*
X106683097Y-80825000D02*
X108586701Y-80825000D01*
X105325000Y-88675000D02*
X108100000Y-85900000D01*
G04 #@! TO.N,/D6_N*
X72755000Y-53486701D02*
X72755000Y-52532108D01*
X72755000Y-52532108D02*
X74120000Y-51167108D01*
X71815000Y-82486701D02*
X71815000Y-81513299D01*
X71140000Y-55101701D02*
X72755000Y-53486701D01*
X68825000Y-89500000D02*
X68825000Y-86355000D01*
X71815000Y-81513299D02*
X71140000Y-80838299D01*
X74120000Y-51167108D02*
X74120000Y-50460000D01*
X70640000Y-84540000D02*
X71140000Y-84040000D01*
X71140000Y-83161701D02*
X71815000Y-82486701D01*
X71140000Y-84040000D02*
X71140000Y-83161701D01*
X71140000Y-80838299D02*
X71140000Y-55101701D01*
X68825000Y-86355000D02*
X70640000Y-84540000D01*
G04 #@! TO.N,/D6_P*
X69465000Y-85026701D02*
X69465000Y-83175000D01*
X70640000Y-53940000D02*
X71580000Y-53000000D01*
X70640000Y-82000000D02*
X70640000Y-53940000D01*
X67175000Y-89500000D02*
X67175000Y-87316701D01*
X69465000Y-83175000D02*
X70640000Y-82000000D01*
X67175000Y-87316701D02*
X69465000Y-85026701D01*
G04 #@! TO.N,/D7_P*
X70872892Y-50460000D02*
X71580000Y-50460000D01*
X69507892Y-51825000D02*
X70872892Y-50460000D01*
X66925000Y-84836701D02*
X66925000Y-83175000D01*
X68100000Y-53721701D02*
X67865000Y-53486701D01*
X68100000Y-82000000D02*
X68100000Y-53721701D01*
X63675000Y-88086701D02*
X66925000Y-84836701D01*
X67865000Y-53486701D02*
X67865000Y-52513299D01*
X67865000Y-52513299D02*
X68553299Y-51825000D01*
X66925000Y-83175000D02*
X68100000Y-82000000D01*
X68553299Y-51825000D02*
X69507892Y-51825000D01*
X63675000Y-89500000D02*
X63675000Y-88086701D01*
G04 #@! TO.N,/D7_N*
X69275000Y-82486701D02*
X69275000Y-81513299D01*
X68600000Y-53440000D02*
X69040000Y-53000000D01*
X65325000Y-87315000D02*
X68100000Y-84540000D01*
X68100000Y-84540000D02*
X68600000Y-84040000D01*
X68600000Y-84040000D02*
X68600000Y-83161701D01*
X68600000Y-83161701D02*
X69275000Y-82486701D01*
X69275000Y-81513299D02*
X68600000Y-80838299D01*
X68600000Y-80838299D02*
X68600000Y-53440000D01*
X65325000Y-89500000D02*
X65325000Y-87315000D01*
D27*
G04 #@! TO.N,/Vref_0_7_out*
X99500000Y-88000000D02*
X93500000Y-82000000D01*
X129635000Y-64475000D02*
X128365000Y-64475000D01*
X128365000Y-64475000D02*
X128365000Y-65865000D01*
X128365000Y-65865000D02*
X128500000Y-66000000D01*
G04 #@! TO.N,/Vref_8_15_out*
X120817183Y-63000000D02*
X119000000Y-64817183D01*
X122365000Y-63992183D02*
X121372817Y-63000000D01*
X121372817Y-63000000D02*
X120817183Y-63000000D01*
X119000000Y-64817183D02*
X119000000Y-69000000D01*
X119000000Y-69000000D02*
X120500000Y-70500000D01*
X123635000Y-64475000D02*
X122365000Y-64475000D01*
X124168629Y-70800000D02*
X125451472Y-70800000D01*
X122365000Y-64475000D02*
X122365000Y-63992183D01*
X123868629Y-70500000D02*
X124168629Y-70800000D01*
X133500000Y-78848528D02*
X133500000Y-82000000D01*
X120500000Y-70500000D02*
X123868629Y-70500000D01*
X125451472Y-70800000D02*
X133500000Y-78848528D01*
D26*
G04 #@! TO.N,/D15_P*
X106735000Y-86265000D02*
X106735000Y-83365000D01*
X97000000Y-76000000D02*
X99500000Y-76000000D01*
X106046701Y-80825000D02*
X107221701Y-82000000D01*
X106735000Y-83365000D02*
X108100000Y-82000000D01*
X107221701Y-82000000D02*
X108100000Y-82000000D01*
X103675000Y-89500000D02*
X103675000Y-89325000D01*
X104325000Y-80825000D02*
X106046701Y-80825000D01*
X99500000Y-76000000D02*
X104325000Y-80825000D01*
X103675000Y-89325000D02*
X106735000Y-86265000D01*
G04 #@! TO.N,Net-(U1A--)*
X129500000Y-57325000D02*
X129500000Y-59390000D01*
X129500000Y-59390000D02*
X129635000Y-59525000D01*
X131000000Y-57325000D02*
X129500000Y-57325000D01*
G04 #@! TO.N,Net-(R2-Pad1)*
X131000000Y-61000000D02*
X131000000Y-59620000D01*
X129000000Y-68825000D02*
X130200000Y-67625000D01*
X131000000Y-55675000D02*
X131800000Y-56475000D01*
X130200000Y-67625000D02*
X130200000Y-65576751D01*
X130260000Y-61740000D02*
X131000000Y-61000000D01*
X130200000Y-65576751D02*
X130260000Y-65516751D01*
X131800000Y-58630000D02*
X130905000Y-59525000D01*
X131800000Y-56475000D02*
X131800000Y-58630000D01*
X131000000Y-59620000D02*
X130905000Y-59525000D01*
X130260000Y-65516751D02*
X130260000Y-61740000D01*
G04 #@! TO.N,Net-(U1A-+)*
X128365000Y-58190000D02*
X128365000Y-59525000D01*
X127500000Y-57325000D02*
X128365000Y-58190000D01*
G04 #@! TO.N,Net-(U2A-+)*
X122000000Y-57325000D02*
X122000000Y-59160000D01*
X122000000Y-59160000D02*
X122365000Y-59525000D01*
G04 #@! TO.N,Net-(U2A--)*
X123500000Y-59390000D02*
X123635000Y-59525000D01*
X123500000Y-57325000D02*
X123500000Y-59390000D01*
X125000000Y-57325000D02*
X123500000Y-57325000D01*
G04 #@! TO.N,Net-(R7-Pad1)*
X123800000Y-66199999D02*
X124280000Y-65719999D01*
X124905000Y-61595000D02*
X124905000Y-59525000D01*
X124280000Y-62220000D02*
X124905000Y-61595000D01*
X124280000Y-65719999D02*
X124280000Y-62220000D01*
X126000000Y-57474695D02*
X125775000Y-57699695D01*
X125775000Y-58655000D02*
X124905000Y-59525000D01*
X123800000Y-68025000D02*
X123800000Y-66199999D01*
X125000000Y-55675000D02*
X126000000Y-56675000D01*
X123000000Y-68825000D02*
X123800000Y-68025000D01*
X125775000Y-57699695D02*
X125775000Y-58655000D01*
X126000000Y-56675000D02*
X126000000Y-57474695D01*
G04 #@! TD*
G04 #@! TA.AperFunction,Conductor*
G04 #@! TO.N,GND*
G36*
X103952481Y-70825707D02*
G01*
X103993711Y-70852997D01*
X104173760Y-71033046D01*
X104186397Y-71047842D01*
X104198183Y-71064064D01*
X104204596Y-71073827D01*
X104226826Y-71111416D01*
X104226829Y-71111419D01*
X104226830Y-71111420D01*
X104240995Y-71125585D01*
X104253627Y-71140375D01*
X104265406Y-71156587D01*
X104299058Y-71184426D01*
X104307699Y-71192289D01*
X110774196Y-77658787D01*
X110787096Y-77674888D01*
X110838223Y-77722900D01*
X110841020Y-77725611D01*
X110860529Y-77745120D01*
X110863711Y-77747588D01*
X110872571Y-77755155D01*
X110901506Y-77782327D01*
X110904418Y-77785062D01*
X110921970Y-77794711D01*
X110938237Y-77805396D01*
X110966445Y-77827277D01*
X110965275Y-77828784D01*
X110978414Y-77837699D01*
X113128534Y-79987819D01*
X113158784Y-80037182D01*
X113163326Y-80094898D01*
X113141171Y-80148385D01*
X113097148Y-80185985D01*
X113040853Y-80199500D01*
X112951849Y-80199500D01*
X112904396Y-80190061D01*
X112864168Y-80163181D01*
X111342198Y-78641211D01*
X111329302Y-78625113D01*
X111278171Y-78577098D01*
X111275374Y-78574387D01*
X111255866Y-78554879D01*
X111252686Y-78552412D01*
X111243820Y-78544839D01*
X111211978Y-78514938D01*
X111194420Y-78505285D01*
X111178160Y-78494604D01*
X111162332Y-78482327D01*
X111122247Y-78464980D01*
X111111757Y-78459841D01*
X111073487Y-78438802D01*
X111054087Y-78433821D01*
X111035680Y-78427519D01*
X111017293Y-78419562D01*
X110974154Y-78412729D01*
X110962720Y-78410361D01*
X110920415Y-78399500D01*
X110900380Y-78399500D01*
X110880982Y-78397973D01*
X110878563Y-78397589D01*
X110861198Y-78394839D01*
X110844579Y-78396410D01*
X110790908Y-78389629D01*
X110745232Y-78360641D01*
X103496772Y-71112181D01*
X103466522Y-71062818D01*
X103461980Y-71005102D01*
X103484135Y-70951615D01*
X103528158Y-70914015D01*
X103584453Y-70900500D01*
X103594648Y-70900500D01*
X103779801Y-70861145D01*
X103814836Y-70845546D01*
X103855594Y-70827398D01*
X103903865Y-70816697D01*
X103952481Y-70825707D01*
G37*
G04 #@! TD.AperFunction*
G04 #@! TA.AperFunction,Conductor*
G36*
X100237001Y-74134939D02*
G01*
X100277229Y-74161819D01*
X105653228Y-79537819D01*
X105683478Y-79587182D01*
X105688020Y-79644898D01*
X105665865Y-79698385D01*
X105621842Y-79735985D01*
X105565547Y-79749500D01*
X104821848Y-79749500D01*
X104774395Y-79740061D01*
X104734167Y-79713181D01*
X102276147Y-77255161D01*
X99814578Y-74793591D01*
X99801682Y-74777493D01*
X99750551Y-74729478D01*
X99747754Y-74726767D01*
X99728246Y-74707259D01*
X99725066Y-74704792D01*
X99716200Y-74697219D01*
X99684358Y-74667318D01*
X99666800Y-74657665D01*
X99650540Y-74646984D01*
X99634712Y-74634707D01*
X99594627Y-74617360D01*
X99584137Y-74612221D01*
X99545867Y-74591182D01*
X99526467Y-74586201D01*
X99508060Y-74579899D01*
X99489673Y-74571942D01*
X99446534Y-74565109D01*
X99435099Y-74562741D01*
X99394315Y-74552270D01*
X99341028Y-74523266D01*
X99307879Y-74472454D01*
X99302802Y-74411998D01*
X99327013Y-74356370D01*
X99374714Y-74318886D01*
X99452730Y-74284151D01*
X99605871Y-74172888D01*
X99611598Y-74166526D01*
X99653312Y-74136220D01*
X99703747Y-74125500D01*
X100189548Y-74125500D01*
X100237001Y-74134939D01*
G37*
G04 #@! TD.AperFunction*
G04 #@! TA.AperFunction,Conductor*
G36*
X131937500Y-49017113D02*
G01*
X131982887Y-49062500D01*
X131999500Y-49124500D01*
X131999500Y-53975144D01*
X131999446Y-53975414D01*
X131999458Y-54000001D01*
X131999469Y-54000028D01*
X131999614Y-54000379D01*
X131999616Y-54000381D01*
X131999617Y-54000383D01*
X131999618Y-54000383D01*
X132017272Y-54018009D01*
X132017265Y-54018015D01*
X132017391Y-54018099D01*
X133499292Y-55500000D01*
X134963181Y-56963888D01*
X134990061Y-57004116D01*
X134999500Y-57051569D01*
X134999500Y-64975145D01*
X134999461Y-64975334D01*
X134999458Y-64999998D01*
X134999458Y-64999999D01*
X134999458Y-65000000D01*
X134999520Y-65000150D01*
X134999549Y-65000295D01*
X134999576Y-65000285D01*
X134999616Y-65000382D01*
X135010962Y-65011670D01*
X136999292Y-67000000D01*
X138963181Y-68963888D01*
X138990061Y-69004116D01*
X138999500Y-69051569D01*
X138999500Y-89995947D01*
X138999234Y-90004058D01*
X138994045Y-90083217D01*
X138993995Y-90083952D01*
X138981291Y-90261573D01*
X138979224Y-90276918D01*
X138957064Y-90388323D01*
X138956613Y-90390490D01*
X138926217Y-90530221D01*
X138922470Y-90543722D01*
X138883793Y-90657660D01*
X138882556Y-90661135D01*
X138834938Y-90788802D01*
X138829969Y-90800311D01*
X138775564Y-90910635D01*
X138773183Y-90915219D01*
X138709154Y-91032478D01*
X138703424Y-91041942D01*
X138634383Y-91145269D01*
X138630548Y-91150688D01*
X138551181Y-91256711D01*
X138545142Y-91264160D01*
X138462867Y-91357976D01*
X138457320Y-91363898D01*
X138363898Y-91457320D01*
X138357976Y-91462867D01*
X138264160Y-91545142D01*
X138256711Y-91551181D01*
X138150688Y-91630548D01*
X138145269Y-91634383D01*
X138041942Y-91703424D01*
X138032478Y-91709154D01*
X137915219Y-91773183D01*
X137910635Y-91775564D01*
X137800311Y-91829969D01*
X137788802Y-91834938D01*
X137661135Y-91882556D01*
X137657660Y-91883793D01*
X137543722Y-91922470D01*
X137530221Y-91926217D01*
X137390490Y-91956613D01*
X137388323Y-91957064D01*
X137276918Y-91979224D01*
X137261573Y-91981291D01*
X137083952Y-91993995D01*
X137083217Y-91994045D01*
X137004058Y-91999234D01*
X136995947Y-91999500D01*
X62004053Y-91999500D01*
X61995942Y-91999234D01*
X61916781Y-91994045D01*
X61916046Y-91993995D01*
X61738425Y-91981291D01*
X61723080Y-91979224D01*
X61611675Y-91957064D01*
X61609508Y-91956613D01*
X61469777Y-91926217D01*
X61456276Y-91922470D01*
X61342338Y-91883793D01*
X61338863Y-91882556D01*
X61211196Y-91834938D01*
X61199687Y-91829969D01*
X61134947Y-91798043D01*
X61089348Y-91775556D01*
X61084779Y-91773183D01*
X60967520Y-91709154D01*
X60958056Y-91703424D01*
X60854729Y-91634383D01*
X60849310Y-91630548D01*
X60793396Y-91588691D01*
X60743278Y-91551173D01*
X60735848Y-91545150D01*
X60642022Y-91462867D01*
X60636100Y-91457320D01*
X60542678Y-91363898D01*
X60537131Y-91357976D01*
X60505450Y-91321851D01*
X60454844Y-91264145D01*
X60448830Y-91256727D01*
X60369450Y-91150688D01*
X60365615Y-91145269D01*
X60296574Y-91041942D01*
X60290844Y-91032478D01*
X60226798Y-90915187D01*
X60224461Y-90910687D01*
X60170024Y-90800300D01*
X60165060Y-90788802D01*
X60117420Y-90661074D01*
X60116228Y-90657725D01*
X60077522Y-90543703D01*
X60073786Y-90530240D01*
X60043374Y-90390437D01*
X60042945Y-90388378D01*
X60020772Y-90276904D01*
X60018709Y-90261587D01*
X60005991Y-90083767D01*
X60005978Y-90083586D01*
X60000764Y-90004042D01*
X60000500Y-89995935D01*
X60000500Y-84540000D01*
X64204842Y-84540000D01*
X64225430Y-84775318D01*
X64286569Y-85003492D01*
X64386400Y-85217580D01*
X64445073Y-85301373D01*
X65206447Y-84540001D01*
X65206447Y-84540000D01*
X64445072Y-83778625D01*
X64386399Y-83862422D01*
X64286569Y-84076507D01*
X64225430Y-84304681D01*
X64204842Y-84540000D01*
X60000500Y-84540000D01*
X60000500Y-82000000D01*
X64204842Y-82000000D01*
X64225430Y-82235318D01*
X64286569Y-82463492D01*
X64386400Y-82677580D01*
X64445073Y-82761373D01*
X65206447Y-82000001D01*
X65206447Y-82000000D01*
X64445072Y-81238625D01*
X64386399Y-81322422D01*
X64286569Y-81536507D01*
X64225430Y-81764681D01*
X64204842Y-82000000D01*
X60000500Y-82000000D01*
X60000500Y-80885072D01*
X64798625Y-80885072D01*
X65560000Y-81646447D01*
X65560001Y-81646447D01*
X66321373Y-80885073D01*
X66321373Y-80885072D01*
X66237580Y-80826400D01*
X66023492Y-80726569D01*
X65795318Y-80665430D01*
X65559999Y-80644842D01*
X65324681Y-80665430D01*
X65096507Y-80726569D01*
X64882422Y-80826399D01*
X64798625Y-80885072D01*
X60000500Y-80885072D01*
X60000500Y-76788903D01*
X61564648Y-76788903D01*
X61564649Y-76788904D01*
X61822207Y-76997469D01*
X62147456Y-77208690D01*
X62493009Y-77384757D01*
X62855068Y-77523739D01*
X63229674Y-77624114D01*
X63612711Y-77684780D01*
X63999999Y-77705077D01*
X64387288Y-77684780D01*
X64770325Y-77624114D01*
X65144931Y-77523739D01*
X65506990Y-77384757D01*
X65852543Y-77208690D01*
X66177786Y-76997473D01*
X66435349Y-76788902D01*
X64000000Y-74353553D01*
X61564648Y-76788903D01*
X60000500Y-76788903D01*
X60000500Y-74000000D01*
X60294922Y-74000000D01*
X60315219Y-74387288D01*
X60375885Y-74770325D01*
X60476260Y-75144931D01*
X60615242Y-75506990D01*
X60791309Y-75852543D01*
X61002530Y-76177792D01*
X61211095Y-76435350D01*
X61211096Y-76435350D01*
X63646447Y-74000000D01*
X61211096Y-71564648D01*
X61002526Y-71822214D01*
X60791309Y-72147456D01*
X60615242Y-72493009D01*
X60476260Y-72855068D01*
X60375885Y-73229674D01*
X60315219Y-73612711D01*
X60294922Y-74000000D01*
X60000500Y-74000000D01*
X60000500Y-71211096D01*
X61564648Y-71211096D01*
X64000000Y-73646447D01*
X64000001Y-73646447D01*
X66435350Y-71211096D01*
X66435350Y-71211095D01*
X66177792Y-71002530D01*
X65852543Y-70791309D01*
X65506990Y-70615242D01*
X65144931Y-70476260D01*
X64770325Y-70375885D01*
X64387288Y-70315219D01*
X64000000Y-70294922D01*
X63612711Y-70315219D01*
X63229674Y-70375885D01*
X62855068Y-70476260D01*
X62493009Y-70615242D01*
X62147456Y-70791309D01*
X61822214Y-71002526D01*
X61564648Y-71211096D01*
X60000500Y-71211096D01*
X60000500Y-69051570D01*
X60009939Y-69004117D01*
X60036819Y-68963889D01*
X60673598Y-68327110D01*
X63988915Y-65011790D01*
X64000381Y-65000383D01*
X64000383Y-65000383D01*
X64000500Y-65000099D01*
X64000541Y-65000000D01*
X64000541Y-64999999D01*
X64000541Y-64975446D01*
X64000500Y-64975240D01*
X64000500Y-57051570D01*
X64009939Y-57004117D01*
X64036819Y-56963889D01*
X64526573Y-56474135D01*
X66982519Y-54018186D01*
X66982644Y-54018104D01*
X67000381Y-54000383D01*
X67000383Y-54000383D01*
X67000383Y-54000381D01*
X67000386Y-54000379D01*
X67000541Y-54000005D01*
X67000541Y-54000002D01*
X67000542Y-54000000D01*
X67000541Y-53999997D01*
X67000582Y-53975557D01*
X67000500Y-53975144D01*
X67000500Y-53624348D01*
X67014311Y-53567476D01*
X67052669Y-53523273D01*
X67107027Y-53501585D01*
X67165278Y-53507245D01*
X67214445Y-53538991D01*
X67243576Y-53589751D01*
X67247879Y-53604561D01*
X67251825Y-53623617D01*
X67254335Y-53643493D01*
X67270414Y-53684105D01*
X67274197Y-53695152D01*
X67286382Y-53737092D01*
X67296580Y-53754336D01*
X67305136Y-53771801D01*
X67312514Y-53790433D01*
X67312515Y-53790434D01*
X67338180Y-53825760D01*
X67344593Y-53835523D01*
X67366826Y-53873117D01*
X67366829Y-53873120D01*
X67366830Y-53873121D01*
X67380995Y-53887286D01*
X67393627Y-53902076D01*
X67405406Y-53918288D01*
X67429540Y-53938253D01*
X67462698Y-53981000D01*
X67474500Y-54033797D01*
X67474500Y-72152641D01*
X67457232Y-72215762D01*
X67410237Y-72261303D01*
X67346605Y-72276580D01*
X67284057Y-72257338D01*
X67240015Y-72208936D01*
X67208690Y-72147456D01*
X66997469Y-71822207D01*
X66788904Y-71564649D01*
X66788903Y-71564648D01*
X64353553Y-74000000D01*
X66788902Y-76435349D01*
X66997473Y-76177786D01*
X67208690Y-75852543D01*
X67240015Y-75791064D01*
X67284057Y-75742662D01*
X67346605Y-75723420D01*
X67410237Y-75738697D01*
X67457232Y-75784238D01*
X67474500Y-75847359D01*
X67474500Y-80724774D01*
X67460489Y-80782031D01*
X67421623Y-80826348D01*
X67421550Y-80826400D01*
X67228598Y-80961505D01*
X67061508Y-81128595D01*
X67061505Y-81128598D01*
X67061505Y-81128599D01*
X66931271Y-81314594D01*
X66931270Y-81314595D01*
X66886952Y-81353460D01*
X66829695Y-81367471D01*
X66772438Y-81353460D01*
X66728120Y-81314595D01*
X66674925Y-81238626D01*
X66674925Y-81238625D01*
X65560000Y-82353553D01*
X64798625Y-83114925D01*
X64875031Y-83168425D01*
X64913897Y-83212744D01*
X64927907Y-83270001D01*
X64913896Y-83327258D01*
X64875029Y-83371576D01*
X64798625Y-83425072D01*
X65825871Y-84452318D01*
X65857965Y-84507905D01*
X65857965Y-84572093D01*
X65825871Y-84627680D01*
X64798625Y-85654925D01*
X64882419Y-85713598D01*
X64913619Y-85728147D01*
X64959591Y-85765043D01*
X64983332Y-85818997D01*
X64979477Y-85877817D01*
X64948897Y-85928211D01*
X63291208Y-87585900D01*
X63275110Y-87598797D01*
X63227096Y-87649926D01*
X63224391Y-87652718D01*
X63204874Y-87672235D01*
X63202415Y-87675406D01*
X63194842Y-87684273D01*
X63164935Y-87716121D01*
X63155285Y-87733675D01*
X63144609Y-87749929D01*
X63132326Y-87765764D01*
X63114975Y-87805859D01*
X63109838Y-87816345D01*
X63088802Y-87854608D01*
X63083821Y-87874010D01*
X63077520Y-87892412D01*
X63069561Y-87910803D01*
X63062728Y-87953943D01*
X63060360Y-87965375D01*
X63049500Y-88007679D01*
X63049500Y-88027717D01*
X63047973Y-88047116D01*
X63044840Y-88066895D01*
X63048950Y-88110376D01*
X63049500Y-88122045D01*
X63049500Y-88608480D01*
X63040061Y-88655933D01*
X63013181Y-88696161D01*
X62919528Y-88789813D01*
X62856117Y-88894709D01*
X62831522Y-88935394D01*
X62830534Y-88938565D01*
X62780913Y-89097806D01*
X62774500Y-89168383D01*
X62774500Y-89831617D01*
X62780913Y-89902193D01*
X62780914Y-89902196D01*
X62831522Y-90064606D01*
X62866326Y-90122180D01*
X62919528Y-90210186D01*
X63039813Y-90330471D01*
X63039815Y-90330472D01*
X63185394Y-90418478D01*
X63347804Y-90469086D01*
X63394857Y-90473362D01*
X63418383Y-90475500D01*
X63418384Y-90475500D01*
X63931616Y-90475500D01*
X63931617Y-90475500D01*
X63949260Y-90473896D01*
X64002196Y-90469086D01*
X64164606Y-90418478D01*
X64310185Y-90330472D01*
X64412320Y-90228336D01*
X64467906Y-90196244D01*
X64532094Y-90196244D01*
X64587679Y-90228336D01*
X64689815Y-90330472D01*
X64835394Y-90418478D01*
X64997804Y-90469086D01*
X65044857Y-90473362D01*
X65068383Y-90475500D01*
X65068384Y-90475500D01*
X65581616Y-90475500D01*
X65581617Y-90475500D01*
X65599260Y-90473896D01*
X65652196Y-90469086D01*
X65814606Y-90418478D01*
X65960185Y-90330472D01*
X66080472Y-90210185D01*
X66143884Y-90105288D01*
X66189084Y-90061434D01*
X66250000Y-90045440D01*
X66310916Y-90061434D01*
X66356115Y-90105288D01*
X66389481Y-90160481D01*
X66419529Y-90210187D01*
X66539813Y-90330471D01*
X66539815Y-90330472D01*
X66685394Y-90418478D01*
X66847804Y-90469086D01*
X66894857Y-90473362D01*
X66918383Y-90475500D01*
X66918384Y-90475500D01*
X67431616Y-90475500D01*
X67431617Y-90475500D01*
X67449260Y-90473896D01*
X67502196Y-90469086D01*
X67664606Y-90418478D01*
X67810185Y-90330472D01*
X67850000Y-90290657D01*
X67912319Y-90228339D01*
X67967906Y-90196245D01*
X68032094Y-90196245D01*
X68087681Y-90228339D01*
X68189813Y-90330471D01*
X68189815Y-90330472D01*
X68335394Y-90418478D01*
X68497804Y-90469086D01*
X68544857Y-90473362D01*
X68568383Y-90475500D01*
X68568384Y-90475500D01*
X69081616Y-90475500D01*
X69081617Y-90475500D01*
X69099260Y-90473896D01*
X69152196Y-90469086D01*
X69314606Y-90418478D01*
X69460185Y-90330472D01*
X69513739Y-90276918D01*
X69574819Y-90215839D01*
X69630406Y-90183745D01*
X69694594Y-90183745D01*
X69750181Y-90215839D01*
X69864813Y-90330471D01*
X69864815Y-90330472D01*
X70010394Y-90418478D01*
X70172804Y-90469086D01*
X70219857Y-90473362D01*
X70243383Y-90475500D01*
X70243384Y-90475500D01*
X70756616Y-90475500D01*
X70756617Y-90475500D01*
X70774260Y-90473896D01*
X70827196Y-90469086D01*
X70989606Y-90418478D01*
X71135185Y-90330472D01*
X71175000Y-90290657D01*
X71237319Y-90228339D01*
X71292906Y-90196245D01*
X71357094Y-90196245D01*
X71412681Y-90228339D01*
X71514813Y-90330471D01*
X71514815Y-90330472D01*
X71660394Y-90418478D01*
X71822804Y-90469086D01*
X71869857Y-90473362D01*
X71893383Y-90475500D01*
X71893384Y-90475500D01*
X72406616Y-90475500D01*
X72406617Y-90475500D01*
X72424260Y-90473896D01*
X72477196Y-90469086D01*
X72639606Y-90418478D01*
X72785185Y-90330472D01*
X72824818Y-90290839D01*
X72880406Y-90258744D01*
X72944594Y-90258744D01*
X73000182Y-90290839D01*
X73039813Y-90330471D01*
X73039815Y-90330472D01*
X73185394Y-90418478D01*
X73347804Y-90469086D01*
X73394857Y-90473362D01*
X73418383Y-90475500D01*
X73418384Y-90475500D01*
X73931616Y-90475500D01*
X73931617Y-90475500D01*
X73949260Y-90473896D01*
X74002196Y-90469086D01*
X74164606Y-90418478D01*
X74310185Y-90330472D01*
X74350000Y-90290657D01*
X74412319Y-90228339D01*
X74467906Y-90196245D01*
X74532094Y-90196245D01*
X74587681Y-90228339D01*
X74689813Y-90330471D01*
X74689815Y-90330472D01*
X74835394Y-90418478D01*
X74997804Y-90469086D01*
X75044857Y-90473362D01*
X75068383Y-90475500D01*
X75068384Y-90475500D01*
X75581616Y-90475500D01*
X75581617Y-90475500D01*
X75599260Y-90473896D01*
X75652196Y-90469086D01*
X75814606Y-90418478D01*
X75960185Y-90330472D01*
X76000000Y-90290657D01*
X76056069Y-90234589D01*
X76111656Y-90202495D01*
X76175844Y-90202495D01*
X76231431Y-90234589D01*
X76327313Y-90330471D01*
X76327315Y-90330472D01*
X76472894Y-90418478D01*
X76635304Y-90469086D01*
X76682357Y-90473362D01*
X76705883Y-90475500D01*
X76705884Y-90475500D01*
X77219116Y-90475500D01*
X77219117Y-90475500D01*
X77236760Y-90473896D01*
X77289696Y-90469086D01*
X77452106Y-90418478D01*
X77597685Y-90330472D01*
X77637500Y-90290657D01*
X77699819Y-90228339D01*
X77755406Y-90196245D01*
X77819594Y-90196245D01*
X77875181Y-90228339D01*
X77977313Y-90330471D01*
X77977315Y-90330472D01*
X78122894Y-90418478D01*
X78285304Y-90469086D01*
X78332357Y-90473362D01*
X78355883Y-90475500D01*
X78355884Y-90475500D01*
X78869116Y-90475500D01*
X78869117Y-90475500D01*
X78886760Y-90473896D01*
X78939696Y-90469086D01*
X79102106Y-90418478D01*
X79247685Y-90330472D01*
X79311562Y-90266594D01*
X79367148Y-90234502D01*
X79431335Y-90234502D01*
X79486923Y-90266596D01*
X79544606Y-90324279D01*
X79544608Y-90324280D01*
X79544609Y-90324281D01*
X79687713Y-90412549D01*
X79767513Y-90438992D01*
X79847314Y-90465436D01*
X79945826Y-90475500D01*
X80479174Y-90475500D01*
X80577685Y-90465436D01*
X80579173Y-90464943D01*
X80737287Y-90412549D01*
X80880391Y-90324281D01*
X80912671Y-90292000D01*
X80968257Y-90259907D01*
X81032445Y-90259906D01*
X81088033Y-90292000D01*
X81119918Y-90323885D01*
X81262926Y-90412093D01*
X81422416Y-90464943D01*
X81520857Y-90475000D01*
X81537500Y-90475000D01*
X81537500Y-89374000D01*
X81554113Y-89312000D01*
X81599500Y-89266613D01*
X81661500Y-89250000D01*
X81913500Y-89250000D01*
X81975500Y-89266613D01*
X82020887Y-89312000D01*
X82037500Y-89374000D01*
X82037500Y-90474999D01*
X82054143Y-90474999D01*
X82152582Y-90464943D01*
X82312073Y-90412093D01*
X82455079Y-90323886D01*
X82568972Y-90209993D01*
X82624560Y-90177899D01*
X82688747Y-90177899D01*
X82744335Y-90209993D01*
X82864813Y-90330471D01*
X82864815Y-90330472D01*
X83010394Y-90418478D01*
X83172804Y-90469086D01*
X83219857Y-90473362D01*
X83243383Y-90475500D01*
X83243384Y-90475500D01*
X83756616Y-90475500D01*
X83756617Y-90475500D01*
X83774260Y-90473896D01*
X83827196Y-90469086D01*
X83989606Y-90418478D01*
X84135185Y-90330472D01*
X84175000Y-90290657D01*
X84237319Y-90228339D01*
X84292906Y-90196245D01*
X84357094Y-90196245D01*
X84412681Y-90228339D01*
X84514813Y-90330471D01*
X84514815Y-90330472D01*
X84660394Y-90418478D01*
X84822804Y-90469086D01*
X84869857Y-90473362D01*
X84893383Y-90475500D01*
X84893384Y-90475500D01*
X85406616Y-90475500D01*
X85406617Y-90475500D01*
X85424260Y-90473896D01*
X85477196Y-90469086D01*
X85639606Y-90418478D01*
X85785185Y-90330472D01*
X85824818Y-90290839D01*
X85880406Y-90258744D01*
X85944594Y-90258744D01*
X86000182Y-90290839D01*
X86039813Y-90330471D01*
X86039815Y-90330472D01*
X86185394Y-90418478D01*
X86347804Y-90469086D01*
X86394857Y-90473362D01*
X86418383Y-90475500D01*
X86418384Y-90475500D01*
X86931616Y-90475500D01*
X86931617Y-90475500D01*
X86949260Y-90473896D01*
X87002196Y-90469086D01*
X87164606Y-90418478D01*
X87310185Y-90330472D01*
X87350000Y-90290657D01*
X87412319Y-90228339D01*
X87467906Y-90196245D01*
X87532094Y-90196245D01*
X87587681Y-90228339D01*
X87689813Y-90330471D01*
X87689815Y-90330472D01*
X87835394Y-90418478D01*
X87997804Y-90469086D01*
X88044857Y-90473362D01*
X88068383Y-90475500D01*
X88068384Y-90475500D01*
X88581616Y-90475500D01*
X88581617Y-90475500D01*
X88599260Y-90473896D01*
X88652196Y-90469086D01*
X88814606Y-90418478D01*
X88960185Y-90330472D01*
X89013739Y-90276918D01*
X89074819Y-90215839D01*
X89130406Y-90183745D01*
X89194594Y-90183745D01*
X89250181Y-90215839D01*
X89364813Y-90330471D01*
X89364815Y-90330472D01*
X89510394Y-90418478D01*
X89672804Y-90469086D01*
X89719857Y-90473362D01*
X89743383Y-90475500D01*
X89743384Y-90475500D01*
X90256616Y-90475500D01*
X90256617Y-90475500D01*
X90274260Y-90473896D01*
X90327196Y-90469086D01*
X90489606Y-90418478D01*
X90635185Y-90330472D01*
X90675000Y-90290657D01*
X90737319Y-90228339D01*
X90792906Y-90196245D01*
X90857094Y-90196245D01*
X90912681Y-90228339D01*
X91014813Y-90330471D01*
X91014815Y-90330472D01*
X91160394Y-90418478D01*
X91322804Y-90469086D01*
X91369857Y-90473362D01*
X91393383Y-90475500D01*
X91393384Y-90475500D01*
X91906616Y-90475500D01*
X91906617Y-90475500D01*
X91924260Y-90473896D01*
X91977196Y-90469086D01*
X92139606Y-90418478D01*
X92285185Y-90330472D01*
X92324818Y-90290839D01*
X92380406Y-90258744D01*
X92444594Y-90258744D01*
X92500182Y-90290839D01*
X92539813Y-90330471D01*
X92539815Y-90330472D01*
X92685394Y-90418478D01*
X92847804Y-90469086D01*
X92894857Y-90473362D01*
X92918383Y-90475500D01*
X92918384Y-90475500D01*
X93431616Y-90475500D01*
X93431617Y-90475500D01*
X93449260Y-90473896D01*
X93502196Y-90469086D01*
X93664606Y-90418478D01*
X93810185Y-90330472D01*
X93850000Y-90290657D01*
X93912319Y-90228339D01*
X93967906Y-90196245D01*
X94032094Y-90196245D01*
X94087681Y-90228339D01*
X94189813Y-90330471D01*
X94189815Y-90330472D01*
X94335394Y-90418478D01*
X94497804Y-90469086D01*
X94544857Y-90473362D01*
X94568383Y-90475500D01*
X94568384Y-90475500D01*
X95081616Y-90475500D01*
X95081617Y-90475500D01*
X95099260Y-90473896D01*
X95152196Y-90469086D01*
X95314606Y-90418478D01*
X95460185Y-90330472D01*
X95580472Y-90210185D01*
X95668478Y-90064606D01*
X95719086Y-89902196D01*
X95725500Y-89831616D01*
X95725500Y-89168384D01*
X95719086Y-89097804D01*
X95668478Y-88935394D01*
X95583370Y-88794609D01*
X95580471Y-88789813D01*
X95486819Y-88696161D01*
X95459939Y-88655933D01*
X95450500Y-88608480D01*
X95450500Y-88407744D01*
X95452764Y-88387237D01*
X95452666Y-88384134D01*
X95450561Y-88317127D01*
X95450500Y-88313232D01*
X95450500Y-88285653D01*
X95449997Y-88281672D01*
X95449080Y-88270019D01*
X95447709Y-88226373D01*
X95442120Y-88207140D01*
X95438174Y-88188082D01*
X95435664Y-88168206D01*
X95419588Y-88127604D01*
X95415804Y-88116553D01*
X95405839Y-88082256D01*
X95403618Y-88074610D01*
X95393414Y-88057355D01*
X95384861Y-88039895D01*
X95377486Y-88021268D01*
X95351808Y-87985925D01*
X95345401Y-87976171D01*
X95335671Y-87959719D01*
X95323170Y-87938580D01*
X95309006Y-87924416D01*
X95296367Y-87909617D01*
X95284595Y-87893413D01*
X95250941Y-87865573D01*
X95242299Y-87857709D01*
X94000802Y-86616211D01*
X93987906Y-86600113D01*
X93936775Y-86552098D01*
X93933978Y-86549387D01*
X93914470Y-86529879D01*
X93911290Y-86527412D01*
X93902424Y-86519839D01*
X93870582Y-86489938D01*
X93853024Y-86480285D01*
X93836764Y-86469604D01*
X93820936Y-86457327D01*
X93780851Y-86439980D01*
X93770367Y-86434844D01*
X93732092Y-86413803D01*
X93718366Y-86406257D01*
X93720370Y-86402610D01*
X93689674Y-86385083D01*
X93411863Y-86107272D01*
X93380961Y-86055840D01*
X93377824Y-85995920D01*
X93403189Y-85941542D01*
X93451114Y-85905440D01*
X93489478Y-85899371D01*
X93489193Y-85896103D01*
X93735318Y-85874569D01*
X93963492Y-85813430D01*
X94177576Y-85713600D01*
X94261373Y-85654925D01*
X93500000Y-84893553D01*
X92385073Y-83778626D01*
X92331881Y-83854594D01*
X92287563Y-83893460D01*
X92230306Y-83907471D01*
X92173049Y-83893461D01*
X92128731Y-83854595D01*
X92107926Y-83824883D01*
X92091239Y-83791047D01*
X92085500Y-83753759D01*
X92085500Y-83472153D01*
X92094939Y-83424700D01*
X92121816Y-83384474D01*
X92289178Y-83217111D01*
X92335578Y-83187868D01*
X92390057Y-83181500D01*
X92441953Y-83199256D01*
X92450444Y-83204493D01*
X92580666Y-83284814D01*
X92653032Y-83308793D01*
X92699992Y-83337134D01*
X92730132Y-83382960D01*
X92735450Y-83421897D01*
X93500000Y-84186447D01*
X94614925Y-85301373D01*
X94673600Y-85217576D01*
X94773430Y-85003492D01*
X94834569Y-84775318D01*
X94847603Y-84626343D01*
X94872755Y-84561664D01*
X94928720Y-84520628D01*
X94997969Y-84516089D01*
X95058812Y-84549469D01*
X98573495Y-88064152D01*
X98597734Y-88098449D01*
X98609134Y-88138869D01*
X98614325Y-88188254D01*
X98672820Y-88368284D01*
X98767466Y-88532216D01*
X98894129Y-88672889D01*
X99047269Y-88784151D01*
X99220197Y-88861144D01*
X99405352Y-88900500D01*
X99405354Y-88900500D01*
X99594646Y-88900500D01*
X99594648Y-88900500D01*
X99718083Y-88874262D01*
X99779803Y-88861144D01*
X99952730Y-88784151D01*
X100055275Y-88709648D01*
X100105870Y-88672889D01*
X100136045Y-88639377D01*
X100232533Y-88532216D01*
X100327179Y-88368284D01*
X100385674Y-88188256D01*
X100405460Y-88000000D01*
X100385674Y-87811744D01*
X100327179Y-87631716D01*
X100327179Y-87631715D01*
X100232533Y-87467783D01*
X100105870Y-87327110D01*
X99952730Y-87215848D01*
X99779802Y-87138855D01*
X99624872Y-87105924D01*
X99591485Y-87093607D01*
X99562972Y-87072315D01*
X97030657Y-84540000D01*
X104204842Y-84540000D01*
X104225430Y-84775318D01*
X104286569Y-85003492D01*
X104386400Y-85217580D01*
X104445073Y-85301373D01*
X105206447Y-84540001D01*
X105206447Y-84540000D01*
X104445072Y-83778625D01*
X104386399Y-83862422D01*
X104286569Y-84076507D01*
X104225430Y-84304681D01*
X104204842Y-84540000D01*
X97030657Y-84540000D01*
X94886818Y-82396161D01*
X94859938Y-82355933D01*
X94850499Y-82308480D01*
X94850499Y-81349991D01*
X94839999Y-81247203D01*
X94837157Y-81238626D01*
X94784814Y-81080666D01*
X94713329Y-80964770D01*
X94692711Y-80931342D01*
X94568657Y-80807288D01*
X94419334Y-80715186D01*
X94252797Y-80660000D01*
X94150009Y-80649500D01*
X92849991Y-80649500D01*
X92747203Y-80660000D01*
X92580665Y-80715186D01*
X92441954Y-80800743D01*
X92390058Y-80818499D01*
X92335579Y-80812131D01*
X92289177Y-80782885D01*
X92121819Y-80615527D01*
X92094939Y-80575299D01*
X92085500Y-80527846D01*
X92085500Y-77204006D01*
X92094939Y-77156553D01*
X92121819Y-77116325D01*
X93238144Y-76000000D01*
X96094540Y-76000000D01*
X96114326Y-76188257D01*
X96172820Y-76368284D01*
X96267466Y-76532216D01*
X96394129Y-76672889D01*
X96547269Y-76784151D01*
X96720197Y-76861144D01*
X96905352Y-76900500D01*
X96905354Y-76900500D01*
X97094646Y-76900500D01*
X97094648Y-76900500D01*
X97218083Y-76874262D01*
X97279803Y-76861144D01*
X97452730Y-76784151D01*
X97605871Y-76672888D01*
X97611598Y-76666526D01*
X97653312Y-76636220D01*
X97703747Y-76625500D01*
X99189548Y-76625500D01*
X99237001Y-76634939D01*
X99277229Y-76661819D01*
X103824196Y-81208787D01*
X103837096Y-81224888D01*
X103888223Y-81272900D01*
X103891020Y-81275611D01*
X103910529Y-81295120D01*
X103913711Y-81297588D01*
X103922571Y-81305155D01*
X103940958Y-81322422D01*
X103954418Y-81335062D01*
X103971970Y-81344711D01*
X103988238Y-81355397D01*
X104004064Y-81367673D01*
X104044146Y-81385017D01*
X104054633Y-81390155D01*
X104092907Y-81411197D01*
X104101410Y-81413379D01*
X104112308Y-81416178D01*
X104130713Y-81422478D01*
X104149104Y-81430437D01*
X104172216Y-81434097D01*
X104234168Y-81462984D01*
X104271400Y-81520315D01*
X104272594Y-81588664D01*
X104225430Y-81764681D01*
X104204842Y-82000000D01*
X104225430Y-82235318D01*
X104286569Y-82463492D01*
X104386400Y-82677580D01*
X104445073Y-82761373D01*
X105472319Y-81734128D01*
X105527906Y-81702034D01*
X105592094Y-81702034D01*
X105647681Y-81734128D01*
X105825871Y-81912318D01*
X105857965Y-81967905D01*
X105857965Y-82032093D01*
X105825871Y-82087680D01*
X104798625Y-83114925D01*
X104875031Y-83168425D01*
X104913897Y-83212744D01*
X104927907Y-83270001D01*
X104913896Y-83327258D01*
X104875029Y-83371576D01*
X104798625Y-83425072D01*
X105825871Y-84452318D01*
X105857965Y-84507905D01*
X105857965Y-84572093D01*
X105825871Y-84627680D01*
X104798625Y-85654925D01*
X104882420Y-85713599D01*
X105096507Y-85813430D01*
X105324681Y-85874569D01*
X105560000Y-85895157D01*
X105795318Y-85874569D01*
X105953406Y-85832210D01*
X106009691Y-85830368D01*
X106060986Y-85853609D01*
X106096712Y-85897141D01*
X106109500Y-85951985D01*
X106109500Y-85954547D01*
X106100061Y-86002000D01*
X106073181Y-86042228D01*
X103627228Y-88488181D01*
X103587000Y-88515061D01*
X103539547Y-88524500D01*
X103418383Y-88524500D01*
X103347806Y-88530913D01*
X103266599Y-88556217D01*
X103185394Y-88581522D01*
X103185392Y-88581522D01*
X103185392Y-88581523D01*
X103039813Y-88669528D01*
X102919528Y-88789813D01*
X102856117Y-88894709D01*
X102831522Y-88935394D01*
X102830534Y-88938565D01*
X102780913Y-89097806D01*
X102774500Y-89168383D01*
X102774500Y-89831617D01*
X102780913Y-89902193D01*
X102780914Y-89902196D01*
X102831522Y-90064606D01*
X102866326Y-90122180D01*
X102919528Y-90210186D01*
X103039813Y-90330471D01*
X103039815Y-90330472D01*
X103185394Y-90418478D01*
X103347804Y-90469086D01*
X103394857Y-90473362D01*
X103418383Y-90475500D01*
X103418384Y-90475500D01*
X103931616Y-90475500D01*
X103931617Y-90475500D01*
X103949260Y-90473896D01*
X104002196Y-90469086D01*
X104164606Y-90418478D01*
X104310185Y-90330472D01*
X104350000Y-90290657D01*
X104412319Y-90228339D01*
X104467906Y-90196245D01*
X104532094Y-90196245D01*
X104587681Y-90228339D01*
X104689813Y-90330471D01*
X104689815Y-90330472D01*
X104835394Y-90418478D01*
X104997804Y-90469086D01*
X105044857Y-90473362D01*
X105068383Y-90475500D01*
X105068384Y-90475500D01*
X105581616Y-90475500D01*
X105581617Y-90475500D01*
X105599260Y-90473896D01*
X105652196Y-90469086D01*
X105814606Y-90418478D01*
X105960185Y-90330472D01*
X106013739Y-90276918D01*
X106074819Y-90215839D01*
X106130406Y-90183745D01*
X106194594Y-90183745D01*
X106250181Y-90215839D01*
X106364813Y-90330471D01*
X106364815Y-90330472D01*
X106510394Y-90418478D01*
X106672804Y-90469086D01*
X106719857Y-90473362D01*
X106743383Y-90475500D01*
X106743384Y-90475500D01*
X107256616Y-90475500D01*
X107256617Y-90475500D01*
X107274260Y-90473896D01*
X107327196Y-90469086D01*
X107489606Y-90418478D01*
X107635185Y-90330472D01*
X107675000Y-90290657D01*
X107737319Y-90228339D01*
X107792906Y-90196245D01*
X107857094Y-90196245D01*
X107912681Y-90228339D01*
X108014813Y-90330471D01*
X108014815Y-90330472D01*
X108160394Y-90418478D01*
X108322804Y-90469086D01*
X108369857Y-90473362D01*
X108393383Y-90475500D01*
X108393384Y-90475500D01*
X108906616Y-90475500D01*
X108906617Y-90475500D01*
X108924260Y-90473896D01*
X108977196Y-90469086D01*
X109139606Y-90418478D01*
X109285185Y-90330472D01*
X109324818Y-90290839D01*
X109380406Y-90258744D01*
X109444594Y-90258744D01*
X109500182Y-90290839D01*
X109539813Y-90330471D01*
X109539815Y-90330472D01*
X109685394Y-90418478D01*
X109847804Y-90469086D01*
X109894857Y-90473362D01*
X109918383Y-90475500D01*
X109918384Y-90475500D01*
X110431616Y-90475500D01*
X110431617Y-90475500D01*
X110449260Y-90473896D01*
X110502196Y-90469086D01*
X110664606Y-90418478D01*
X110810185Y-90330472D01*
X110850000Y-90290657D01*
X110912319Y-90228339D01*
X110967906Y-90196245D01*
X111032094Y-90196245D01*
X111087681Y-90228339D01*
X111189813Y-90330471D01*
X111189815Y-90330472D01*
X111335394Y-90418478D01*
X111497804Y-90469086D01*
X111544857Y-90473362D01*
X111568383Y-90475500D01*
X111568384Y-90475500D01*
X112081616Y-90475500D01*
X112081617Y-90475500D01*
X112099260Y-90473896D01*
X112152196Y-90469086D01*
X112314606Y-90418478D01*
X112435850Y-90345182D01*
X112500000Y-90327300D01*
X112564149Y-90345182D01*
X112685394Y-90418478D01*
X112847804Y-90469086D01*
X112894857Y-90473362D01*
X112918383Y-90475500D01*
X112918384Y-90475500D01*
X113431616Y-90475500D01*
X113431617Y-90475500D01*
X113449260Y-90473896D01*
X113502196Y-90469086D01*
X113664606Y-90418478D01*
X113810185Y-90330472D01*
X113850000Y-90290657D01*
X113912319Y-90228339D01*
X113967906Y-90196245D01*
X114032094Y-90196245D01*
X114087681Y-90228339D01*
X114189813Y-90330471D01*
X114189815Y-90330472D01*
X114335394Y-90418478D01*
X114497804Y-90469086D01*
X114544857Y-90473362D01*
X114568383Y-90475500D01*
X114568384Y-90475500D01*
X115081616Y-90475500D01*
X115081617Y-90475500D01*
X115099260Y-90473896D01*
X115152196Y-90469086D01*
X115314606Y-90418478D01*
X115460185Y-90330472D01*
X115580472Y-90210185D01*
X115668478Y-90064606D01*
X115719086Y-89902196D01*
X115725500Y-89831616D01*
X115725500Y-89168384D01*
X115719086Y-89097804D01*
X115668478Y-88935394D01*
X115583370Y-88794609D01*
X115580471Y-88789813D01*
X115486819Y-88696161D01*
X115459939Y-88655933D01*
X115450500Y-88608480D01*
X115450500Y-87985452D01*
X115459939Y-87937999D01*
X115486819Y-87897771D01*
X115793661Y-87590929D01*
X116103789Y-87280800D01*
X116119885Y-87267906D01*
X116121873Y-87265787D01*
X116121877Y-87265786D01*
X116167948Y-87216723D01*
X116170566Y-87214023D01*
X116190120Y-87194471D01*
X116192581Y-87191298D01*
X116200156Y-87182427D01*
X116230062Y-87150582D01*
X116239717Y-87133018D01*
X116250394Y-87116764D01*
X116262673Y-87100936D01*
X116280018Y-87060852D01*
X116285160Y-87050356D01*
X116306197Y-87012092D01*
X116311179Y-86992684D01*
X116317481Y-86974280D01*
X116325437Y-86955896D01*
X116332269Y-86912752D01*
X116334633Y-86901338D01*
X116345500Y-86859019D01*
X116345500Y-86838984D01*
X116347027Y-86819585D01*
X116348269Y-86811742D01*
X116350160Y-86799804D01*
X116346050Y-86756325D01*
X116345500Y-86744656D01*
X116345500Y-85815227D01*
X116359511Y-85757970D01*
X116398374Y-85713653D01*
X116591401Y-85578495D01*
X116758495Y-85411401D01*
X116888426Y-85225839D01*
X116932743Y-85186975D01*
X116990000Y-85172964D01*
X117047257Y-85186975D01*
X117091573Y-85225839D01*
X117221503Y-85411398D01*
X117221505Y-85411401D01*
X117263181Y-85453077D01*
X117290061Y-85493305D01*
X117299500Y-85540758D01*
X117299500Y-85884608D01*
X117291264Y-85929045D01*
X117267650Y-85967580D01*
X117267466Y-85967783D01*
X117172820Y-86131715D01*
X117114326Y-86311742D01*
X117094540Y-86500000D01*
X117114326Y-86688257D01*
X117172820Y-86868284D01*
X117267466Y-87032216D01*
X117394129Y-87172889D01*
X117547269Y-87284151D01*
X117720197Y-87361144D01*
X117905352Y-87400500D01*
X117905354Y-87400500D01*
X118094646Y-87400500D01*
X118094648Y-87400500D01*
X118227656Y-87372228D01*
X118279803Y-87361144D01*
X118452730Y-87284151D01*
X118513306Y-87240140D01*
X118605870Y-87172889D01*
X118618804Y-87158525D01*
X118732533Y-87032216D01*
X118827179Y-86868284D01*
X118885674Y-86688256D01*
X118905460Y-86500000D01*
X118885674Y-86311744D01*
X118841550Y-86175946D01*
X118827179Y-86131715D01*
X118728315Y-85960477D01*
X118711754Y-85894870D01*
X118732101Y-85830338D01*
X118783297Y-85786095D01*
X118937830Y-85714035D01*
X119131401Y-85578495D01*
X119298495Y-85411401D01*
X119428732Y-85225402D01*
X119473048Y-85186539D01*
X119530305Y-85172528D01*
X119587562Y-85186539D01*
X119631880Y-85225405D01*
X119685073Y-85301373D01*
X120446447Y-84540001D01*
X120446447Y-84540000D01*
X119685073Y-83778626D01*
X119631881Y-83854594D01*
X119587563Y-83893460D01*
X119530306Y-83907471D01*
X119473048Y-83893460D01*
X119428730Y-83854595D01*
X119298495Y-83668599D01*
X119131401Y-83501505D01*
X119013376Y-83418863D01*
X118974511Y-83374546D01*
X118960500Y-83317289D01*
X118960500Y-83222711D01*
X118974511Y-83165454D01*
X119013377Y-83121136D01*
X119058538Y-83089514D01*
X119131401Y-83038495D01*
X119298495Y-82871401D01*
X119428732Y-82685402D01*
X119473048Y-82646539D01*
X119530305Y-82632528D01*
X119587562Y-82646539D01*
X119631880Y-82685405D01*
X119685073Y-82761373D01*
X120446447Y-82000001D01*
X120446447Y-82000000D01*
X119685073Y-81238626D01*
X119631881Y-81314594D01*
X119587563Y-81353460D01*
X119530306Y-81367471D01*
X119473048Y-81353460D01*
X119428730Y-81314595D01*
X119298495Y-81128599D01*
X119131401Y-80961505D01*
X118937830Y-80825965D01*
X118723663Y-80726097D01*
X118659180Y-80708819D01*
X118495407Y-80664936D01*
X118260000Y-80644340D01*
X118024592Y-80664936D01*
X117796336Y-80726097D01*
X117582170Y-80825965D01*
X117379712Y-80967727D01*
X117377643Y-80964773D01*
X117340189Y-80986345D01*
X117276052Y-80986304D01*
X117220516Y-80954224D01*
X116707503Y-80441211D01*
X116694607Y-80425113D01*
X116643476Y-80377098D01*
X116640679Y-80374387D01*
X116621171Y-80354879D01*
X116617991Y-80352412D01*
X116609125Y-80344839D01*
X116577283Y-80314938D01*
X116559725Y-80305285D01*
X116543465Y-80294604D01*
X116527637Y-80282327D01*
X116487552Y-80264980D01*
X116477062Y-80259841D01*
X116438792Y-80238802D01*
X116419392Y-80233821D01*
X116400985Y-80227519D01*
X116382598Y-80219562D01*
X116339459Y-80212729D01*
X116328025Y-80210361D01*
X116285720Y-80199500D01*
X116265685Y-80199500D01*
X116246287Y-80197973D01*
X116238863Y-80196797D01*
X116226506Y-80194840D01*
X116226505Y-80194840D01*
X116193452Y-80197964D01*
X116183026Y-80198950D01*
X116171357Y-80199500D01*
X115797154Y-80199500D01*
X115749701Y-80190061D01*
X115709473Y-80163181D01*
X111987503Y-76441211D01*
X111974607Y-76425113D01*
X111923476Y-76377098D01*
X111920679Y-76374387D01*
X111901171Y-76354879D01*
X111897991Y-76352412D01*
X111889125Y-76344839D01*
X111857283Y-76314938D01*
X111839725Y-76305285D01*
X111823465Y-76294604D01*
X111795260Y-76272726D01*
X111796415Y-76271236D01*
X111783289Y-76262302D01*
X105726234Y-70205247D01*
X105713599Y-70190454D01*
X105701811Y-70174229D01*
X105695401Y-70164470D01*
X105688339Y-70152529D01*
X105673170Y-70126879D01*
X105659006Y-70112715D01*
X105646367Y-70097916D01*
X105634595Y-70081712D01*
X105600941Y-70053872D01*
X105592299Y-70046008D01*
X104902343Y-69356051D01*
X104869450Y-69297317D01*
X104872092Y-69230053D01*
X104885674Y-69188256D01*
X104905460Y-69000000D01*
X104885674Y-68811744D01*
X104851294Y-68705934D01*
X104827179Y-68631715D01*
X104732533Y-68467783D01*
X104605870Y-68327110D01*
X104452730Y-68215848D01*
X104279802Y-68138855D01*
X104094648Y-68099500D01*
X104094646Y-68099500D01*
X103905354Y-68099500D01*
X103905352Y-68099500D01*
X103720197Y-68138855D01*
X103547269Y-68215848D01*
X103394129Y-68327110D01*
X103267466Y-68467783D01*
X103172820Y-68631715D01*
X103114326Y-68811742D01*
X103094540Y-69000000D01*
X103104779Y-69097431D01*
X103094737Y-69160827D01*
X103054343Y-69210709D01*
X102894132Y-69327108D01*
X102762836Y-69472927D01*
X102709003Y-69507885D01*
X102644904Y-69511244D01*
X102587713Y-69482103D01*
X102552755Y-69428271D01*
X102551679Y-69424961D01*
X102457033Y-69261028D01*
X102330370Y-69120355D01*
X102177230Y-69009093D01*
X102004302Y-68932100D01*
X101819148Y-68892745D01*
X101819146Y-68892745D01*
X101629854Y-68892745D01*
X101629852Y-68892745D01*
X101444697Y-68932100D01*
X101271769Y-69009093D01*
X101118629Y-69120355D01*
X100991966Y-69261028D01*
X100897321Y-69424959D01*
X100857929Y-69546195D01*
X100822971Y-69600025D01*
X100765782Y-69629166D01*
X100720197Y-69638856D01*
X100547267Y-69715849D01*
X100394129Y-69827110D01*
X100267466Y-69967783D01*
X100172820Y-70131715D01*
X100114326Y-70311742D01*
X100094540Y-70499999D01*
X100114326Y-70688257D01*
X100172820Y-70868284D01*
X100267466Y-71032216D01*
X100394129Y-71172889D01*
X100547269Y-71284151D01*
X100720197Y-71361144D01*
X100905352Y-71400500D01*
X100905354Y-71400500D01*
X100964548Y-71400500D01*
X101012001Y-71409939D01*
X101052229Y-71436819D01*
X108703229Y-79087819D01*
X108733479Y-79137182D01*
X108738021Y-79194898D01*
X108715866Y-79248385D01*
X108671843Y-79285985D01*
X108615548Y-79299500D01*
X107871849Y-79299500D01*
X107824396Y-79290061D01*
X107784168Y-79263181D01*
X100814578Y-72293591D01*
X100801682Y-72277493D01*
X100750551Y-72229478D01*
X100747754Y-72226767D01*
X100728246Y-72207259D01*
X100725066Y-72204792D01*
X100716200Y-72197219D01*
X100684358Y-72167318D01*
X100666800Y-72157665D01*
X100650540Y-72146984D01*
X100634712Y-72134707D01*
X100594627Y-72117360D01*
X100584137Y-72112221D01*
X100545867Y-72091182D01*
X100526467Y-72086201D01*
X100508060Y-72079899D01*
X100489673Y-72071942D01*
X100446534Y-72065109D01*
X100435098Y-72062740D01*
X100403359Y-72054591D01*
X100369961Y-72040552D01*
X100342046Y-72017459D01*
X100330371Y-72004492D01*
X100177230Y-71893229D01*
X100177229Y-71893228D01*
X100177227Y-71893227D01*
X100004302Y-71816235D01*
X99819148Y-71776880D01*
X99819146Y-71776880D01*
X99629854Y-71776880D01*
X99629852Y-71776880D01*
X99444697Y-71816235D01*
X99271769Y-71893228D01*
X99118629Y-72004490D01*
X98991966Y-72145163D01*
X98897320Y-72309095D01*
X98838826Y-72489122D01*
X98834857Y-72526889D01*
X98818923Y-72575926D01*
X98784422Y-72614244D01*
X98737318Y-72635216D01*
X98720196Y-72638855D01*
X98547269Y-72715848D01*
X98394129Y-72827110D01*
X98267466Y-72967783D01*
X98172820Y-73131715D01*
X98114326Y-73311742D01*
X98094540Y-73500000D01*
X98114326Y-73688257D01*
X98172820Y-73868284D01*
X98267466Y-74032216D01*
X98394129Y-74172889D01*
X98547269Y-74284151D01*
X98615659Y-74314601D01*
X98667046Y-74357112D01*
X98688978Y-74420094D01*
X98675112Y-74485329D01*
X98629458Y-74533945D01*
X98565223Y-74551880D01*
X98428247Y-74551880D01*
X98377812Y-74541160D01*
X98336098Y-74510853D01*
X98330371Y-74504492D01*
X98177230Y-74393229D01*
X98177229Y-74393228D01*
X98177227Y-74393227D01*
X98004302Y-74316235D01*
X97819148Y-74276880D01*
X97819146Y-74276880D01*
X97629854Y-74276880D01*
X97629852Y-74276880D01*
X97444697Y-74316235D01*
X97271769Y-74393228D01*
X97118629Y-74504490D01*
X96991966Y-74645163D01*
X96897320Y-74809095D01*
X96838826Y-74989122D01*
X96834857Y-75026889D01*
X96818923Y-75075926D01*
X96784422Y-75114244D01*
X96737318Y-75135216D01*
X96720196Y-75138855D01*
X96547269Y-75215848D01*
X96394129Y-75327110D01*
X96267466Y-75467783D01*
X96172820Y-75631715D01*
X96114326Y-75811742D01*
X96094540Y-76000000D01*
X93238144Y-76000000D01*
X101450876Y-67787268D01*
X110783789Y-58454354D01*
X110799885Y-58441460D01*
X110801873Y-58439341D01*
X110801877Y-58439340D01*
X110847948Y-58390277D01*
X110850566Y-58387577D01*
X110870120Y-58368025D01*
X110872581Y-58364852D01*
X110880156Y-58355981D01*
X110910062Y-58324136D01*
X110919712Y-58306581D01*
X110930400Y-58290311D01*
X110942671Y-58274492D01*
X110942673Y-58274490D01*
X110960026Y-58234386D01*
X110965157Y-58223916D01*
X110986197Y-58185646D01*
X110991175Y-58166253D01*
X110997481Y-58147836D01*
X110999018Y-58144282D01*
X111005438Y-58129450D01*
X111012272Y-58086299D01*
X111014635Y-58074885D01*
X111025500Y-58032573D01*
X111025500Y-58012538D01*
X111027027Y-57993139D01*
X111030160Y-57973358D01*
X111026050Y-57929879D01*
X111025500Y-57918210D01*
X111025500Y-55810452D01*
X111034939Y-55763000D01*
X111061816Y-55722773D01*
X111238790Y-55545798D01*
X111254882Y-55532909D01*
X111256873Y-55530788D01*
X111256877Y-55530786D01*
X111302948Y-55481723D01*
X111305566Y-55479023D01*
X111325120Y-55459471D01*
X111327581Y-55456298D01*
X111335156Y-55447427D01*
X111365062Y-55415582D01*
X111374717Y-55398018D01*
X111385389Y-55381770D01*
X111397673Y-55365936D01*
X111397674Y-55365932D01*
X111402525Y-55359680D01*
X111450544Y-55322194D01*
X111510621Y-55312100D01*
X111568255Y-55331834D01*
X111609536Y-55376634D01*
X111624500Y-55435686D01*
X111624500Y-69167256D01*
X111622235Y-69187762D01*
X111624439Y-69257873D01*
X111624500Y-69261768D01*
X111624500Y-69289349D01*
X111625003Y-69293334D01*
X111625918Y-69304967D01*
X111627290Y-69348626D01*
X111629448Y-69356051D01*
X111632064Y-69365057D01*
X111632879Y-69367860D01*
X111636825Y-69386916D01*
X111639335Y-69406792D01*
X111655414Y-69447404D01*
X111659197Y-69458451D01*
X111671382Y-69500391D01*
X111681580Y-69517635D01*
X111690136Y-69535100D01*
X111697514Y-69553732D01*
X111697515Y-69553733D01*
X111723180Y-69589059D01*
X111729593Y-69598822D01*
X111751826Y-69636416D01*
X111751829Y-69636419D01*
X111751830Y-69636420D01*
X111765995Y-69650585D01*
X111778627Y-69665375D01*
X111790406Y-69681587D01*
X111824058Y-69709426D01*
X111832699Y-69717289D01*
X117274196Y-75158787D01*
X117287096Y-75174888D01*
X117338223Y-75222900D01*
X117341020Y-75225611D01*
X117360529Y-75245120D01*
X117363711Y-75247588D01*
X117372571Y-75255155D01*
X117404418Y-75285062D01*
X117421970Y-75294711D01*
X117438230Y-75305390D01*
X117454064Y-75317673D01*
X117454065Y-75317673D01*
X117466443Y-75327275D01*
X117465273Y-75328782D01*
X117478411Y-75337697D01*
X117524503Y-75383789D01*
X117537401Y-75399888D01*
X117588530Y-75447902D01*
X117591325Y-75450611D01*
X117610834Y-75470120D01*
X117614016Y-75472588D01*
X117622876Y-75480155D01*
X117654723Y-75510062D01*
X117672277Y-75519712D01*
X117688541Y-75530396D01*
X117700277Y-75539499D01*
X117704369Y-75542673D01*
X117729214Y-75553424D01*
X117744457Y-75560021D01*
X117754936Y-75565154D01*
X117793213Y-75586197D01*
X117812611Y-75591177D01*
X117831013Y-75597477D01*
X117849409Y-75605438D01*
X117892566Y-75612273D01*
X117903969Y-75614634D01*
X117946286Y-75625500D01*
X117966321Y-75625500D01*
X117985718Y-75627027D01*
X117992032Y-75628027D01*
X118012034Y-75636620D01*
X118038401Y-75627050D01*
X118048980Y-75626050D01*
X118060649Y-75625500D01*
X122328789Y-75625500D01*
X122367086Y-75635439D01*
X122406224Y-75625500D01*
X122762771Y-75625500D01*
X122810224Y-75634939D01*
X122850452Y-75661819D01*
X127758181Y-80569548D01*
X127785061Y-80609776D01*
X127794500Y-80657229D01*
X127794500Y-80724774D01*
X127780489Y-80782031D01*
X127741623Y-80826348D01*
X127548599Y-80961505D01*
X127539712Y-80967728D01*
X127537633Y-80964759D01*
X127500292Y-80986319D01*
X127436104Y-80986319D01*
X127380517Y-80954225D01*
X127042246Y-80615954D01*
X127016124Y-80577517D01*
X127005988Y-80532163D01*
X127005561Y-80518557D01*
X127005500Y-80514667D01*
X127005500Y-80487100D01*
X127005500Y-80487096D01*
X127004997Y-80483116D01*
X127004081Y-80471474D01*
X127003639Y-80457395D01*
X127002710Y-80427819D01*
X126997118Y-80408572D01*
X126993174Y-80389531D01*
X126990664Y-80369654D01*
X126974579Y-80329029D01*
X126970808Y-80318014D01*
X126958618Y-80276056D01*
X126948414Y-80258801D01*
X126939861Y-80241341D01*
X126938856Y-80238802D01*
X126932486Y-80222714D01*
X126906808Y-80187371D01*
X126900401Y-80177617D01*
X126897121Y-80172071D01*
X126878170Y-80140026D01*
X126864005Y-80125861D01*
X126851367Y-80111063D01*
X126839595Y-80094859D01*
X126805941Y-80067019D01*
X126797299Y-80059155D01*
X122854356Y-76116211D01*
X122841460Y-76100113D01*
X122790329Y-76052098D01*
X122787532Y-76049387D01*
X122768024Y-76029879D01*
X122764844Y-76027412D01*
X122755978Y-76019839D01*
X122724136Y-75989938D01*
X122706578Y-75980285D01*
X122690318Y-75969604D01*
X122674490Y-75957327D01*
X122634405Y-75939980D01*
X122623915Y-75934841D01*
X122585645Y-75913802D01*
X122566245Y-75908821D01*
X122547838Y-75902519D01*
X122529451Y-75894562D01*
X122486312Y-75887729D01*
X122474878Y-75885361D01*
X122432573Y-75874500D01*
X122412538Y-75874500D01*
X122393141Y-75872973D01*
X122386827Y-75871973D01*
X122366824Y-75863379D01*
X122340458Y-75872950D01*
X122329879Y-75873950D01*
X122318210Y-75874500D01*
X118050070Y-75874500D01*
X118011772Y-75864560D01*
X117972635Y-75874500D01*
X117469805Y-75874500D01*
X117424157Y-75865792D01*
X117384921Y-75840892D01*
X117357283Y-75814938D01*
X117351469Y-75811742D01*
X117339725Y-75805285D01*
X117323469Y-75794607D01*
X117307637Y-75782327D01*
X117307634Y-75782326D01*
X117295261Y-75772728D01*
X117296422Y-75771230D01*
X117283289Y-75762303D01*
X109911819Y-68390832D01*
X109884939Y-68350604D01*
X109875500Y-68303151D01*
X109875500Y-65910194D01*
X109884529Y-65863743D01*
X109910302Y-65824057D01*
X109949064Y-65796915D01*
X109977730Y-65784151D01*
X110130870Y-65672889D01*
X110167943Y-65631716D01*
X110257533Y-65532216D01*
X110352179Y-65368284D01*
X110410674Y-65188256D01*
X110430460Y-65000000D01*
X110410674Y-64811744D01*
X110352179Y-64631716D01*
X110352179Y-64631715D01*
X110257533Y-64467783D01*
X110130870Y-64327110D01*
X109977730Y-64215848D01*
X109804802Y-64138855D01*
X109619648Y-64099500D01*
X109619646Y-64099500D01*
X109430354Y-64099500D01*
X109430352Y-64099500D01*
X109245197Y-64138855D01*
X109060365Y-64221149D01*
X109060301Y-64221005D01*
X109025773Y-64236375D01*
X108974216Y-64236373D01*
X108939700Y-64221005D01*
X108939636Y-64221150D01*
X108754802Y-64138855D01*
X108569648Y-64099500D01*
X108569646Y-64099500D01*
X108380354Y-64099500D01*
X108380352Y-64099500D01*
X108195197Y-64138855D01*
X108022269Y-64215848D01*
X107869129Y-64327110D01*
X107742466Y-64467783D01*
X107647820Y-64631715D01*
X107589326Y-64811742D01*
X107569562Y-64999792D01*
X107569540Y-65000000D01*
X107569585Y-65000424D01*
X107589326Y-65188257D01*
X107647820Y-65368284D01*
X107742466Y-65532216D01*
X107869129Y-65672889D01*
X108022269Y-65784151D01*
X108050936Y-65796915D01*
X108089698Y-65824057D01*
X108115471Y-65863743D01*
X108124500Y-65910194D01*
X108124500Y-68667256D01*
X108122235Y-68687762D01*
X108124439Y-68757873D01*
X108124500Y-68761768D01*
X108124500Y-68789349D01*
X108125003Y-68793334D01*
X108125918Y-68804967D01*
X108127290Y-68848626D01*
X108132879Y-68867860D01*
X108136825Y-68886916D01*
X108139335Y-68906792D01*
X108155414Y-68947404D01*
X108159197Y-68958451D01*
X108171382Y-69000391D01*
X108181580Y-69017635D01*
X108190136Y-69035100D01*
X108197514Y-69053732D01*
X108197515Y-69053733D01*
X108223180Y-69089059D01*
X108229593Y-69098822D01*
X108251826Y-69136416D01*
X108251829Y-69136419D01*
X108251830Y-69136420D01*
X108265995Y-69150585D01*
X108278627Y-69165375D01*
X108290406Y-69181587D01*
X108324058Y-69209426D01*
X108332699Y-69217289D01*
X116274196Y-77158787D01*
X116287096Y-77174888D01*
X116338223Y-77222900D01*
X116341019Y-77225610D01*
X116360529Y-77245120D01*
X116363711Y-77247588D01*
X116372571Y-77255155D01*
X116404418Y-77285062D01*
X116421970Y-77294711D01*
X116438230Y-77305390D01*
X116454064Y-77317673D01*
X116454065Y-77317673D01*
X116466443Y-77327275D01*
X116465273Y-77328782D01*
X116478411Y-77337697D01*
X116524503Y-77383789D01*
X116537401Y-77399888D01*
X116588530Y-77447902D01*
X116591326Y-77450612D01*
X116610834Y-77470120D01*
X116614016Y-77472588D01*
X116622876Y-77480155D01*
X116654723Y-77510062D01*
X116672277Y-77519712D01*
X116688541Y-77530396D01*
X116700277Y-77539499D01*
X116704369Y-77542673D01*
X116729214Y-77553424D01*
X116744457Y-77560021D01*
X116754936Y-77565154D01*
X116793213Y-77586197D01*
X116812611Y-77591177D01*
X116831013Y-77597477D01*
X116849409Y-77605438D01*
X116892566Y-77612273D01*
X116903969Y-77614634D01*
X116946286Y-77625500D01*
X116966321Y-77625500D01*
X116985718Y-77627027D01*
X116992032Y-77628027D01*
X117012034Y-77636620D01*
X117038401Y-77627050D01*
X117048980Y-77626050D01*
X117060649Y-77625500D01*
X119611631Y-77625500D01*
X119649928Y-77635439D01*
X119689066Y-77625500D01*
X121835994Y-77625500D01*
X121883447Y-77634939D01*
X121923675Y-77661819D01*
X125030419Y-80768563D01*
X125059260Y-80813832D01*
X125066266Y-80867049D01*
X125050127Y-80918241D01*
X125013865Y-80957816D01*
X124999716Y-80967724D01*
X124997648Y-80964770D01*
X124960189Y-80986345D01*
X124896052Y-80986304D01*
X124840516Y-80954224D01*
X124327503Y-80441211D01*
X124314607Y-80425113D01*
X124263476Y-80377098D01*
X124260679Y-80374387D01*
X124241171Y-80354879D01*
X124237991Y-80352412D01*
X124229125Y-80344839D01*
X124197283Y-80314938D01*
X124179725Y-80305285D01*
X124163465Y-80294604D01*
X124147637Y-80282327D01*
X124107552Y-80264980D01*
X124097062Y-80259841D01*
X124058792Y-80238802D01*
X124039392Y-80233821D01*
X124020985Y-80227519D01*
X124002598Y-80219562D01*
X123959459Y-80212729D01*
X123948025Y-80210361D01*
X123905720Y-80199500D01*
X123885685Y-80199500D01*
X123866287Y-80197973D01*
X123858863Y-80196797D01*
X123846506Y-80194840D01*
X123846505Y-80194840D01*
X123813452Y-80197964D01*
X123803026Y-80198950D01*
X123791357Y-80199500D01*
X122271848Y-80199500D01*
X122224395Y-80190061D01*
X122184167Y-80163181D01*
X121168009Y-79147023D01*
X120137198Y-78116211D01*
X120124302Y-78100113D01*
X120073171Y-78052098D01*
X120070374Y-78049387D01*
X120050866Y-78029879D01*
X120047686Y-78027412D01*
X120038820Y-78019839D01*
X120006978Y-77989938D01*
X119989420Y-77980285D01*
X119973160Y-77969604D01*
X119957332Y-77957327D01*
X119917247Y-77939980D01*
X119906757Y-77934841D01*
X119868487Y-77913802D01*
X119849087Y-77908821D01*
X119830680Y-77902519D01*
X119812293Y-77894562D01*
X119769154Y-77887729D01*
X119757720Y-77885361D01*
X119715415Y-77874500D01*
X119695380Y-77874500D01*
X119675983Y-77872973D01*
X119669669Y-77871973D01*
X119649666Y-77863379D01*
X119623300Y-77872950D01*
X119612721Y-77873950D01*
X119601052Y-77874500D01*
X117050070Y-77874500D01*
X117011772Y-77864560D01*
X116972635Y-77874500D01*
X116469805Y-77874500D01*
X116424157Y-77865792D01*
X116384921Y-77840892D01*
X116372027Y-77828784D01*
X116357283Y-77814938D01*
X116339725Y-77805285D01*
X116323469Y-77794607D01*
X116307637Y-77782327D01*
X116307634Y-77782326D01*
X116295261Y-77772728D01*
X116296422Y-77771230D01*
X116283289Y-77762303D01*
X107386319Y-68865332D01*
X107359439Y-68825104D01*
X107350000Y-68777651D01*
X107350000Y-66876067D01*
X107358236Y-66831629D01*
X107381847Y-66793097D01*
X107457033Y-66709596D01*
X107551679Y-66545664D01*
X107610174Y-66365636D01*
X107629960Y-66177380D01*
X107610174Y-65989124D01*
X107556540Y-65824057D01*
X107551679Y-65809095D01*
X107457033Y-65645163D01*
X107330370Y-65504490D01*
X107177230Y-65393228D01*
X107004302Y-65316235D01*
X106819148Y-65276880D01*
X106819146Y-65276880D01*
X106629854Y-65276880D01*
X106629852Y-65276880D01*
X106444697Y-65316235D01*
X106271769Y-65393228D01*
X106118629Y-65504490D01*
X105991966Y-65645163D01*
X105897320Y-65809095D01*
X105838826Y-65989122D01*
X105834857Y-66026889D01*
X105818923Y-66075926D01*
X105784422Y-66114244D01*
X105737318Y-66135216D01*
X105720196Y-66138855D01*
X105547269Y-66215848D01*
X105394129Y-66327110D01*
X105267466Y-66467783D01*
X105172820Y-66631715D01*
X105114326Y-66811742D01*
X105094540Y-67000000D01*
X105114326Y-67188257D01*
X105172820Y-67368284D01*
X105267464Y-67532213D01*
X105267467Y-67532216D01*
X105342652Y-67615717D01*
X105366264Y-67654249D01*
X105374500Y-67698687D01*
X105374500Y-68891951D01*
X105372235Y-68912457D01*
X105374439Y-68982568D01*
X105374500Y-68986463D01*
X105374500Y-69014044D01*
X105375003Y-69018029D01*
X105375918Y-69029662D01*
X105377290Y-69073321D01*
X105382879Y-69092555D01*
X105386825Y-69111611D01*
X105389335Y-69131487D01*
X105405414Y-69172099D01*
X105409197Y-69183146D01*
X105421382Y-69225086D01*
X105431580Y-69242330D01*
X105440136Y-69259795D01*
X105447514Y-69278427D01*
X105447515Y-69278428D01*
X105473180Y-69313754D01*
X105479593Y-69323517D01*
X105501826Y-69361111D01*
X105501829Y-69361114D01*
X105501830Y-69361115D01*
X105515995Y-69375280D01*
X105528627Y-69390070D01*
X105540406Y-69406282D01*
X105566987Y-69428271D01*
X105574057Y-69434120D01*
X105582698Y-69441983D01*
X105673761Y-69533046D01*
X105686398Y-69547842D01*
X105698181Y-69564060D01*
X105704595Y-69573823D01*
X105723026Y-69604989D01*
X105726830Y-69611420D01*
X105740995Y-69625585D01*
X105753627Y-69640375D01*
X105765406Y-69656587D01*
X105799058Y-69684426D01*
X105807699Y-69692289D01*
X115274197Y-79158787D01*
X115287098Y-79174889D01*
X115289212Y-79176874D01*
X115289214Y-79176877D01*
X115335160Y-79220024D01*
X115338240Y-79222916D01*
X115341035Y-79225625D01*
X115360530Y-79245120D01*
X115363704Y-79247582D01*
X115372568Y-79255153D01*
X115404418Y-79285062D01*
X115421976Y-79294715D01*
X115438237Y-79305397D01*
X115466448Y-79327281D01*
X115465278Y-79328787D01*
X115478417Y-79337703D01*
X115524505Y-79383792D01*
X115537401Y-79399887D01*
X115539517Y-79401874D01*
X115539519Y-79401877D01*
X115586925Y-79446395D01*
X115588530Y-79447902D01*
X115591326Y-79450612D01*
X115610834Y-79470120D01*
X115614016Y-79472588D01*
X115622876Y-79480155D01*
X115654723Y-79510062D01*
X115671737Y-79519415D01*
X115672277Y-79519712D01*
X115688541Y-79530396D01*
X115698111Y-79537819D01*
X115704369Y-79542673D01*
X115729214Y-79553424D01*
X115744457Y-79560021D01*
X115754936Y-79565154D01*
X115793213Y-79586197D01*
X115812611Y-79591177D01*
X115831013Y-79597477D01*
X115849409Y-79605438D01*
X115892566Y-79612273D01*
X115903969Y-79614634D01*
X115946286Y-79625500D01*
X115966321Y-79625500D01*
X115985718Y-79627026D01*
X116005501Y-79630160D01*
X116048979Y-79626050D01*
X116060649Y-79625500D01*
X119189548Y-79625500D01*
X119237001Y-79634939D01*
X119277229Y-79661819D01*
X120215017Y-80599607D01*
X120245597Y-80650000D01*
X120249452Y-80708819D01*
X120225713Y-80762773D01*
X120179743Y-80799669D01*
X120122423Y-80826398D01*
X120038625Y-80885072D01*
X121065871Y-81912318D01*
X121097965Y-81967905D01*
X121097965Y-82032093D01*
X121065871Y-82087680D01*
X120038625Y-83114925D01*
X120115031Y-83168425D01*
X120153897Y-83212744D01*
X120167907Y-83270001D01*
X120153896Y-83327258D01*
X120115029Y-83371576D01*
X120038625Y-83425072D01*
X121065871Y-84452318D01*
X121097965Y-84507905D01*
X121097965Y-84572093D01*
X121065871Y-84627680D01*
X120038625Y-85654925D01*
X120122420Y-85713599D01*
X120336507Y-85813430D01*
X120564681Y-85874569D01*
X120800000Y-85895157D01*
X121035318Y-85874569D01*
X121263492Y-85813430D01*
X121363095Y-85766985D01*
X121423610Y-85755632D01*
X121482125Y-85774786D01*
X121524214Y-85819724D01*
X121539500Y-85879367D01*
X121539500Y-88846274D01*
X121521617Y-88910423D01*
X121506522Y-88935394D01*
X121505534Y-88938565D01*
X121455913Y-89097806D01*
X121449500Y-89168383D01*
X121449500Y-89831617D01*
X121455913Y-89902193D01*
X121455914Y-89902196D01*
X121506522Y-90064606D01*
X121541326Y-90122180D01*
X121594528Y-90210186D01*
X121714813Y-90330471D01*
X121714815Y-90330472D01*
X121860394Y-90418478D01*
X122022804Y-90469086D01*
X122069857Y-90473362D01*
X122093383Y-90475500D01*
X122093384Y-90475500D01*
X122606616Y-90475500D01*
X122606617Y-90475500D01*
X122624260Y-90473896D01*
X122677196Y-90469086D01*
X122839606Y-90418478D01*
X122985185Y-90330472D01*
X123025000Y-90290657D01*
X123087319Y-90228339D01*
X123142906Y-90196245D01*
X123207094Y-90196245D01*
X123262681Y-90228339D01*
X123364813Y-90330471D01*
X123364815Y-90330472D01*
X123510394Y-90418478D01*
X123672804Y-90469086D01*
X123719857Y-90473362D01*
X123743383Y-90475500D01*
X123743384Y-90475500D01*
X124256616Y-90475500D01*
X124256617Y-90475500D01*
X124274260Y-90473896D01*
X124327196Y-90469086D01*
X124489606Y-90418478D01*
X124635185Y-90330472D01*
X124662318Y-90303338D01*
X124717906Y-90271244D01*
X124782094Y-90271244D01*
X124837682Y-90303339D01*
X124864813Y-90330471D01*
X124864815Y-90330472D01*
X125010394Y-90418478D01*
X125172804Y-90469086D01*
X125219857Y-90473362D01*
X125243383Y-90475500D01*
X125243384Y-90475500D01*
X125756616Y-90475500D01*
X125756617Y-90475500D01*
X125774260Y-90473896D01*
X125827196Y-90469086D01*
X125989606Y-90418478D01*
X126135185Y-90330472D01*
X126175000Y-90290657D01*
X126237319Y-90228339D01*
X126292906Y-90196245D01*
X126357094Y-90196245D01*
X126412681Y-90228339D01*
X126514813Y-90330471D01*
X126514815Y-90330472D01*
X126660394Y-90418478D01*
X126822804Y-90469086D01*
X126869857Y-90473362D01*
X126893383Y-90475500D01*
X126893384Y-90475500D01*
X127406616Y-90475500D01*
X127406617Y-90475500D01*
X127424260Y-90473896D01*
X127477196Y-90469086D01*
X127639606Y-90418478D01*
X127785185Y-90330472D01*
X127824817Y-90290839D01*
X127880406Y-90258744D01*
X127944594Y-90258744D01*
X128000182Y-90290839D01*
X128039813Y-90330471D01*
X128039815Y-90330472D01*
X128185394Y-90418478D01*
X128347804Y-90469086D01*
X128394857Y-90473362D01*
X128418383Y-90475500D01*
X128418384Y-90475500D01*
X128931616Y-90475500D01*
X128931617Y-90475500D01*
X128949260Y-90473896D01*
X129002196Y-90469086D01*
X129164606Y-90418478D01*
X129310185Y-90330472D01*
X129350000Y-90290657D01*
X129412319Y-90228339D01*
X129467906Y-90196245D01*
X129532094Y-90196245D01*
X129587681Y-90228339D01*
X129689813Y-90330471D01*
X129689815Y-90330472D01*
X129835394Y-90418478D01*
X129997804Y-90469086D01*
X130044857Y-90473362D01*
X130068383Y-90475500D01*
X130068384Y-90475500D01*
X130581616Y-90475500D01*
X130581617Y-90475500D01*
X130599260Y-90473896D01*
X130652196Y-90469086D01*
X130814606Y-90418478D01*
X130960185Y-90330472D01*
X130999817Y-90290839D01*
X131055406Y-90258744D01*
X131119594Y-90258744D01*
X131175182Y-90290839D01*
X131214813Y-90330471D01*
X131214815Y-90330472D01*
X131360394Y-90418478D01*
X131522804Y-90469086D01*
X131569857Y-90473362D01*
X131593383Y-90475500D01*
X131593384Y-90475500D01*
X132106616Y-90475500D01*
X132106617Y-90475500D01*
X132124260Y-90473896D01*
X132177196Y-90469086D01*
X132339606Y-90418478D01*
X132485185Y-90330472D01*
X132525000Y-90290657D01*
X132587319Y-90228339D01*
X132642906Y-90196245D01*
X132707094Y-90196245D01*
X132762681Y-90228339D01*
X132864813Y-90330471D01*
X132864815Y-90330472D01*
X133010394Y-90418478D01*
X133172804Y-90469086D01*
X133219857Y-90473362D01*
X133243383Y-90475500D01*
X133243384Y-90475500D01*
X133756616Y-90475500D01*
X133756617Y-90475500D01*
X133774260Y-90473896D01*
X133827196Y-90469086D01*
X133989606Y-90418478D01*
X134135185Y-90330472D01*
X134255472Y-90210185D01*
X134343478Y-90064606D01*
X134394086Y-89902196D01*
X134400500Y-89831616D01*
X134400500Y-89168384D01*
X134394086Y-89097804D01*
X134343478Y-88935394D01*
X134258370Y-88794609D01*
X134255471Y-88789813D01*
X134161819Y-88696161D01*
X134134939Y-88655933D01*
X134125500Y-88608480D01*
X134125500Y-87162740D01*
X134127763Y-87142236D01*
X134127404Y-87130819D01*
X134125561Y-87072144D01*
X134125500Y-87068250D01*
X134125500Y-87040657D01*
X134125500Y-87040650D01*
X134124995Y-87036653D01*
X134124080Y-87025023D01*
X134123674Y-87012092D01*
X134122709Y-86981372D01*
X134117119Y-86962134D01*
X134113174Y-86943082D01*
X134110664Y-86923208D01*
X134110663Y-86923207D01*
X134094578Y-86882581D01*
X134090805Y-86871560D01*
X134078617Y-86829610D01*
X134068421Y-86812369D01*
X134059863Y-86794902D01*
X134052486Y-86776268D01*
X134026798Y-86740912D01*
X134020409Y-86731184D01*
X133998170Y-86693579D01*
X133984005Y-86679414D01*
X133971369Y-86664620D01*
X133959595Y-86648414D01*
X133956168Y-86645579D01*
X133925935Y-86620568D01*
X133917305Y-86612714D01*
X133411863Y-86107272D01*
X133380961Y-86055840D01*
X133377824Y-85995920D01*
X133403189Y-85941542D01*
X133451114Y-85905440D01*
X133489478Y-85899371D01*
X133489193Y-85896103D01*
X133735318Y-85874569D01*
X133963492Y-85813430D01*
X134177576Y-85713600D01*
X134261373Y-85654925D01*
X133500000Y-84893553D01*
X133146448Y-84540001D01*
X133853553Y-84540001D01*
X134614925Y-85301373D01*
X134673600Y-85217576D01*
X134773430Y-85003492D01*
X134834569Y-84775318D01*
X134855157Y-84540000D01*
X134834569Y-84304681D01*
X134773430Y-84076507D01*
X134673599Y-83862421D01*
X134614926Y-83778626D01*
X134614925Y-83778625D01*
X133853553Y-84540000D01*
X133853553Y-84540001D01*
X133146448Y-84540001D01*
X132385073Y-83778626D01*
X132331881Y-83854594D01*
X132287563Y-83893460D01*
X132230306Y-83907471D01*
X132173049Y-83893461D01*
X132128731Y-83854595D01*
X132107926Y-83824883D01*
X132091239Y-83791047D01*
X132085500Y-83753759D01*
X132085500Y-83472153D01*
X132094939Y-83424700D01*
X132121816Y-83384474D01*
X132289178Y-83217111D01*
X132335578Y-83187868D01*
X132390057Y-83181500D01*
X132441953Y-83199256D01*
X132450444Y-83204493D01*
X132580666Y-83284814D01*
X132653032Y-83308793D01*
X132699992Y-83337134D01*
X132730132Y-83382960D01*
X132735450Y-83421897D01*
X133500000Y-84186447D01*
X133500001Y-84186447D01*
X134264547Y-83421899D01*
X134269865Y-83382962D01*
X134300006Y-83337134D01*
X134346965Y-83308794D01*
X134419334Y-83284814D01*
X134568656Y-83192712D01*
X134692712Y-83068656D01*
X134784814Y-82919334D01*
X134839999Y-82752797D01*
X134850500Y-82650009D01*
X134850499Y-81349992D01*
X134845919Y-81305161D01*
X134839999Y-81247203D01*
X134837157Y-81238626D01*
X134784814Y-81080666D01*
X134713329Y-80964770D01*
X134692711Y-80931342D01*
X134568657Y-80807288D01*
X134476554Y-80750479D01*
X134419334Y-80715186D01*
X134285495Y-80670836D01*
X134241171Y-80644957D01*
X134211123Y-80603345D01*
X134200500Y-80553130D01*
X134200500Y-79990518D01*
X134214015Y-79934223D01*
X134251615Y-79890200D01*
X134305102Y-79868045D01*
X134362818Y-79872587D01*
X134412181Y-79902837D01*
X135263181Y-80753837D01*
X135290061Y-80794065D01*
X135299500Y-80841518D01*
X135299500Y-85884608D01*
X135291264Y-85929045D01*
X135267650Y-85967580D01*
X135267466Y-85967783D01*
X135172820Y-86131715D01*
X135114326Y-86311742D01*
X135094540Y-86500000D01*
X135114326Y-86688257D01*
X135172820Y-86868284D01*
X135267466Y-87032216D01*
X135394129Y-87172889D01*
X135547269Y-87284151D01*
X135720197Y-87361144D01*
X135905352Y-87400500D01*
X135905354Y-87400500D01*
X136094646Y-87400500D01*
X136094648Y-87400500D01*
X136227656Y-87372228D01*
X136279803Y-87361144D01*
X136452730Y-87284151D01*
X136513306Y-87240140D01*
X136605870Y-87172889D01*
X136618804Y-87158525D01*
X136732533Y-87032216D01*
X136827179Y-86868284D01*
X136885674Y-86688256D01*
X136905460Y-86500000D01*
X136885674Y-86311744D01*
X136841550Y-86175946D01*
X136827179Y-86131715D01*
X136732533Y-85967783D01*
X136732350Y-85967580D01*
X136708736Y-85929045D01*
X136700500Y-85884608D01*
X136700500Y-80524921D01*
X136700726Y-80517434D01*
X136703506Y-80471474D01*
X136704358Y-80457394D01*
X136693507Y-80398185D01*
X136692390Y-80390841D01*
X136685140Y-80331128D01*
X136681547Y-80321656D01*
X136675522Y-80300044D01*
X136673695Y-80290069D01*
X136649009Y-80235220D01*
X136646152Y-80228326D01*
X136624818Y-80172070D01*
X136619053Y-80163719D01*
X136608036Y-80144183D01*
X136603878Y-80134944D01*
X136566788Y-80087603D01*
X136562352Y-80081574D01*
X136556189Y-80072645D01*
X136528183Y-80032071D01*
X136483145Y-79992171D01*
X136477707Y-79987051D01*
X134363000Y-77872344D01*
X134331605Y-77819258D01*
X134329667Y-77757613D01*
X134357667Y-77702660D01*
X134408678Y-77667994D01*
X134470079Y-77662190D01*
X134612711Y-77684780D01*
X134999999Y-77705077D01*
X135387288Y-77684780D01*
X135770325Y-77624114D01*
X136144931Y-77523739D01*
X136506990Y-77384757D01*
X136852543Y-77208690D01*
X137177786Y-76997473D01*
X137435349Y-76788902D01*
X134734128Y-74087681D01*
X134702034Y-74032094D01*
X134702034Y-74000000D01*
X135353553Y-74000000D01*
X137788902Y-76435349D01*
X137997473Y-76177786D01*
X138208690Y-75852543D01*
X138384757Y-75506990D01*
X138523739Y-75144931D01*
X138624114Y-74770325D01*
X138684780Y-74387288D01*
X138705077Y-73999999D01*
X138684780Y-73612711D01*
X138624114Y-73229674D01*
X138523739Y-72855068D01*
X138384757Y-72493009D01*
X138208690Y-72147456D01*
X137997469Y-71822207D01*
X137788904Y-71564649D01*
X137788903Y-71564648D01*
X135353553Y-74000000D01*
X134702034Y-74000000D01*
X134702034Y-73967906D01*
X134734128Y-73912319D01*
X137435350Y-71211096D01*
X137435350Y-71211095D01*
X137177792Y-71002530D01*
X136852543Y-70791309D01*
X136506990Y-70615242D01*
X136144931Y-70476260D01*
X135770325Y-70375885D01*
X135387288Y-70315219D01*
X135000000Y-70294922D01*
X134612711Y-70315219D01*
X134229674Y-70375885D01*
X133855068Y-70476260D01*
X133493009Y-70615242D01*
X133147456Y-70791309D01*
X132822214Y-71002525D01*
X132781236Y-71035708D01*
X132727185Y-71060999D01*
X132667579Y-71058113D01*
X132616224Y-71027719D01*
X132585013Y-70976856D01*
X132581176Y-70917304D01*
X132598323Y-70879076D01*
X132597695Y-70878794D01*
X132603874Y-70865059D01*
X132603877Y-70865057D01*
X132608033Y-70855820D01*
X132619058Y-70836273D01*
X132624818Y-70827930D01*
X132646154Y-70771668D01*
X132649014Y-70764766D01*
X132673694Y-70709932D01*
X132675519Y-70699971D01*
X132681545Y-70678348D01*
X132685140Y-70668872D01*
X132692389Y-70609165D01*
X132693516Y-70601762D01*
X132694983Y-70593755D01*
X132704357Y-70542606D01*
X132700726Y-70482577D01*
X132700500Y-70475090D01*
X132700500Y-66615392D01*
X132708736Y-66570955D01*
X132732350Y-66532420D01*
X132732533Y-66532216D01*
X132827179Y-66368284D01*
X132855567Y-66280914D01*
X132885674Y-66188256D01*
X132905460Y-66000000D01*
X132885674Y-65811744D01*
X132827179Y-65631716D01*
X132827179Y-65631715D01*
X132732533Y-65467783D01*
X132605870Y-65327110D01*
X132452730Y-65215848D01*
X132279802Y-65138855D01*
X132094648Y-65099500D01*
X132094646Y-65099500D01*
X131905354Y-65099500D01*
X131905352Y-65099500D01*
X131855281Y-65110143D01*
X131800553Y-65109427D01*
X131751464Y-65085219D01*
X131717579Y-65042236D01*
X131705500Y-64988853D01*
X131705500Y-63584308D01*
X131705500Y-63584306D01*
X131702598Y-63547431D01*
X131656744Y-63389602D01*
X131573081Y-63248135D01*
X131456865Y-63131919D01*
X131456864Y-63131918D01*
X131315397Y-63048255D01*
X131157572Y-63002402D01*
X131135443Y-63000660D01*
X131120694Y-62999500D01*
X131120692Y-62999500D01*
X131009500Y-62999500D01*
X130947500Y-62982887D01*
X130902113Y-62937500D01*
X130885500Y-62875500D01*
X130885500Y-62050452D01*
X130894939Y-62002999D01*
X130921819Y-61962771D01*
X131152494Y-61732096D01*
X131383789Y-61500800D01*
X131399885Y-61487906D01*
X131401873Y-61485787D01*
X131401877Y-61485786D01*
X131447948Y-61436723D01*
X131450566Y-61434023D01*
X131470120Y-61414471D01*
X131472581Y-61411298D01*
X131480156Y-61402427D01*
X131510062Y-61370582D01*
X131519712Y-61353027D01*
X131530400Y-61336757D01*
X131536646Y-61328705D01*
X131542673Y-61320936D01*
X131560026Y-61280832D01*
X131565157Y-61270362D01*
X131566346Y-61268200D01*
X131586197Y-61232092D01*
X131591175Y-61212699D01*
X131597481Y-61194282D01*
X131599820Y-61188876D01*
X131605438Y-61175896D01*
X131612272Y-61132745D01*
X131614635Y-61121331D01*
X131625500Y-61079019D01*
X131625500Y-61075000D01*
X132025001Y-61075000D01*
X132025001Y-61081579D01*
X132031408Y-61152104D01*
X132081981Y-61314397D01*
X132169925Y-61459875D01*
X132290124Y-61580074D01*
X132435603Y-61668019D01*
X132597893Y-61718590D01*
X132668424Y-61725000D01*
X132750000Y-61725000D01*
X132750000Y-61075000D01*
X133250000Y-61075000D01*
X133250000Y-61724999D01*
X133331579Y-61724999D01*
X133402104Y-61718591D01*
X133564397Y-61668018D01*
X133709875Y-61580074D01*
X133830074Y-61459875D01*
X133918019Y-61314396D01*
X133968590Y-61152106D01*
X133975000Y-61081576D01*
X133975000Y-61075000D01*
X133250000Y-61075000D01*
X132750000Y-61075000D01*
X132025001Y-61075000D01*
X131625500Y-61075000D01*
X131625500Y-61058984D01*
X131627027Y-61039585D01*
X131627133Y-61038918D01*
X131630160Y-61019804D01*
X131626050Y-60976325D01*
X131625500Y-60964656D01*
X131625500Y-60697151D01*
X131642767Y-60634031D01*
X131656744Y-60610398D01*
X131702598Y-60452569D01*
X131705500Y-60415694D01*
X131705500Y-59660452D01*
X131714939Y-59613000D01*
X131741815Y-59572774D01*
X131833959Y-59480630D01*
X131888338Y-59448870D01*
X131951311Y-59447918D01*
X132006629Y-59478026D01*
X132040021Y-59531425D01*
X132081520Y-59664603D01*
X132169528Y-59810186D01*
X132272015Y-59912673D01*
X132304109Y-59968260D01*
X132304109Y-60032448D01*
X132272015Y-60088035D01*
X132169925Y-60190124D01*
X132081980Y-60335603D01*
X132031409Y-60497893D01*
X132025000Y-60568424D01*
X132025000Y-60575000D01*
X133974999Y-60575000D01*
X133974999Y-60568421D01*
X133968591Y-60497895D01*
X133918018Y-60335602D01*
X133830075Y-60190126D01*
X133727984Y-60088036D01*
X133695890Y-60032448D01*
X133695890Y-59968260D01*
X133727982Y-59912674D01*
X133830472Y-59810185D01*
X133918478Y-59664606D01*
X133969086Y-59502196D01*
X133975500Y-59431616D01*
X133975500Y-58918384D01*
X133969086Y-58847804D01*
X133918478Y-58685394D01*
X133830472Y-58539815D01*
X133822683Y-58526930D01*
X133823011Y-58526731D01*
X133804039Y-58496951D01*
X133797033Y-58443733D01*
X133813173Y-58392542D01*
X133827179Y-58368284D01*
X133885674Y-58188256D01*
X133905460Y-58000000D01*
X133885674Y-57811744D01*
X133855332Y-57718363D01*
X133827179Y-57631715D01*
X133732533Y-57467783D01*
X133605870Y-57327110D01*
X133452730Y-57215848D01*
X133279802Y-57138855D01*
X133094648Y-57099500D01*
X133094646Y-57099500D01*
X132905354Y-57099500D01*
X132905352Y-57099500D01*
X132720199Y-57138854D01*
X132599935Y-57192400D01*
X132539771Y-57202738D01*
X132481965Y-57183115D01*
X132440527Y-57138288D01*
X132425500Y-57079120D01*
X132425500Y-56557744D01*
X132427764Y-56537237D01*
X132427602Y-56532094D01*
X132425561Y-56467127D01*
X132425500Y-56463232D01*
X132425500Y-56435653D01*
X132424997Y-56431672D01*
X132424080Y-56420019D01*
X132422709Y-56376373D01*
X132417120Y-56357140D01*
X132413174Y-56338082D01*
X132410664Y-56318206D01*
X132394588Y-56277604D01*
X132390804Y-56266553D01*
X132382019Y-56236316D01*
X132378618Y-56224610D01*
X132368414Y-56207355D01*
X132359861Y-56189895D01*
X132356962Y-56182573D01*
X132352486Y-56171268D01*
X132326808Y-56135925D01*
X132320401Y-56126171D01*
X132318738Y-56123359D01*
X132298170Y-56088580D01*
X132284006Y-56074416D01*
X132271367Y-56059617D01*
X132259595Y-56043413D01*
X132225941Y-56015573D01*
X132217299Y-56007709D01*
X132011819Y-55802229D01*
X131984939Y-55762001D01*
X131975500Y-55714548D01*
X131975500Y-55418383D01*
X131970621Y-55364700D01*
X131969086Y-55347804D01*
X131918478Y-55185394D01*
X131830472Y-55039815D01*
X131830471Y-55039813D01*
X131710186Y-54919528D01*
X131607094Y-54857207D01*
X131564606Y-54831522D01*
X131415370Y-54785019D01*
X131402193Y-54780913D01*
X131331617Y-54774500D01*
X131331616Y-54774500D01*
X130668384Y-54774500D01*
X130668383Y-54774500D01*
X130597806Y-54780913D01*
X130534458Y-54800653D01*
X130435394Y-54831522D01*
X130435392Y-54831522D01*
X130435392Y-54831523D01*
X130313666Y-54905109D01*
X130249516Y-54922992D01*
X130185366Y-54905109D01*
X130064396Y-54831980D01*
X129902106Y-54781409D01*
X129831576Y-54775000D01*
X129750000Y-54775000D01*
X129750000Y-55801000D01*
X129733387Y-55863000D01*
X129688000Y-55908387D01*
X129626000Y-55925000D01*
X129374000Y-55925000D01*
X129312000Y-55908387D01*
X129266613Y-55863000D01*
X129250000Y-55801000D01*
X129250000Y-54775001D01*
X129168421Y-54775001D01*
X129097895Y-54781408D01*
X128935602Y-54831981D01*
X128790124Y-54919925D01*
X128669925Y-55040124D01*
X128606409Y-55145193D01*
X128561207Y-55189049D01*
X128500292Y-55205043D01*
X128439376Y-55189049D01*
X128394176Y-55145194D01*
X128330472Y-55039815D01*
X128330471Y-55039814D01*
X128330470Y-55039812D01*
X128210186Y-54919528D01*
X128107094Y-54857207D01*
X128064606Y-54831522D01*
X127915370Y-54785019D01*
X127902193Y-54780913D01*
X127831617Y-54774500D01*
X127831616Y-54774500D01*
X127535452Y-54774500D01*
X127487999Y-54765061D01*
X127447771Y-54738181D01*
X127213919Y-54504328D01*
X127180539Y-54443485D01*
X127185078Y-54374236D01*
X127210000Y-54340247D01*
X127210000Y-52874000D01*
X127226613Y-52812000D01*
X127272000Y-52766613D01*
X127334000Y-52750000D01*
X127586000Y-52750000D01*
X127648000Y-52766613D01*
X127693387Y-52812000D01*
X127710000Y-52874000D01*
X127710000Y-54330635D01*
X127923492Y-54273430D01*
X128137576Y-54173600D01*
X128331077Y-54038109D01*
X128453133Y-53916053D01*
X128505880Y-53884757D01*
X128567173Y-53882568D01*
X128622018Y-53910021D01*
X128656996Y-53960399D01*
X128706204Y-54092331D01*
X128792454Y-54207546D01*
X128907669Y-54293796D01*
X129042517Y-54344091D01*
X129102127Y-54350500D01*
X130897872Y-54350499D01*
X130957483Y-54344091D01*
X131092331Y-54293796D01*
X131207546Y-54207546D01*
X131293796Y-54092331D01*
X131344091Y-53957483D01*
X131350500Y-53897873D01*
X131350499Y-52102128D01*
X131344091Y-52042517D01*
X131293796Y-51907669D01*
X131207546Y-51792454D01*
X131092331Y-51706204D01*
X130960399Y-51656996D01*
X130910021Y-51622018D01*
X130882568Y-51567173D01*
X130884757Y-51505880D01*
X130916053Y-51453133D01*
X131038109Y-51331077D01*
X131173600Y-51137576D01*
X131273430Y-50923492D01*
X131330636Y-50710000D01*
X129874000Y-50710000D01*
X129812000Y-50693387D01*
X129766613Y-50648000D01*
X129750000Y-50586000D01*
X129750000Y-50334000D01*
X129766613Y-50272000D01*
X129812000Y-50226613D01*
X129874000Y-50210000D01*
X131330636Y-50210000D01*
X131330635Y-50209999D01*
X131273430Y-49996507D01*
X131173599Y-49782421D01*
X131038109Y-49588921D01*
X130871081Y-49421893D01*
X130677576Y-49286399D01*
X130571387Y-49236882D01*
X130520991Y-49193840D01*
X130499962Y-49130990D01*
X130514307Y-49066285D01*
X130559927Y-49018211D01*
X130623792Y-49000500D01*
X131875500Y-49000500D01*
X131937500Y-49017113D01*
G37*
G04 #@! TD.AperFunction*
G04 #@! TA.AperFunction,Conductor*
G36*
X92088000Y-52766613D02*
G01*
X92133387Y-52812000D01*
X92150000Y-52874000D01*
X92150000Y-54330635D01*
X92363492Y-54273430D01*
X92577576Y-54173600D01*
X92771081Y-54038106D01*
X92938109Y-53871078D01*
X93068119Y-53685405D01*
X93112437Y-53646539D01*
X93169694Y-53632528D01*
X93226951Y-53646539D01*
X93271267Y-53685402D01*
X93401505Y-53871401D01*
X93568599Y-54038495D01*
X93762170Y-54174035D01*
X93976337Y-54273903D01*
X94032594Y-54288976D01*
X94080205Y-54313761D01*
X94112882Y-54356346D01*
X94124500Y-54408751D01*
X94124500Y-59085994D01*
X94115061Y-59133447D01*
X94088181Y-59173675D01*
X82956208Y-70305645D01*
X82940110Y-70318542D01*
X82892096Y-70369671D01*
X82889391Y-70372463D01*
X82869874Y-70391980D01*
X82867415Y-70395151D01*
X82859842Y-70404018D01*
X82829935Y-70435866D01*
X82820285Y-70453420D01*
X82809609Y-70469674D01*
X82797326Y-70485509D01*
X82779975Y-70525604D01*
X82774838Y-70536090D01*
X82753802Y-70574353D01*
X82748821Y-70593755D01*
X82742520Y-70612157D01*
X82734561Y-70630548D01*
X82727728Y-70673688D01*
X82725360Y-70685120D01*
X82714500Y-70727424D01*
X82714500Y-70747462D01*
X82712973Y-70766861D01*
X82709840Y-70786640D01*
X82713950Y-70830121D01*
X82714500Y-70841790D01*
X82714500Y-80724774D01*
X82700489Y-80782031D01*
X82661623Y-80826348D01*
X82661550Y-80826400D01*
X82468598Y-80961505D01*
X82301508Y-81128595D01*
X82301505Y-81128598D01*
X82301505Y-81128599D01*
X82171271Y-81314594D01*
X82171270Y-81314595D01*
X82126952Y-81353460D01*
X82069695Y-81367471D01*
X82012438Y-81353460D01*
X81968120Y-81314595D01*
X81914925Y-81238626D01*
X81914925Y-81238625D01*
X80800000Y-82353553D01*
X80038625Y-83114925D01*
X80115031Y-83168425D01*
X80153897Y-83212744D01*
X80167907Y-83270001D01*
X80153896Y-83327258D01*
X80115029Y-83371576D01*
X80038625Y-83425072D01*
X81065871Y-84452318D01*
X81097965Y-84507905D01*
X81097965Y-84572093D01*
X81065871Y-84627680D01*
X80038625Y-85654925D01*
X80122420Y-85713599D01*
X80336507Y-85813430D01*
X80564681Y-85874569D01*
X80800000Y-85895157D01*
X81035318Y-85874569D01*
X81263492Y-85813430D01*
X81363095Y-85766985D01*
X81423610Y-85755632D01*
X81482125Y-85774786D01*
X81524214Y-85819724D01*
X81539500Y-85879367D01*
X81539500Y-88082256D01*
X81537235Y-88102762D01*
X81539439Y-88172873D01*
X81539500Y-88176768D01*
X81539500Y-88204349D01*
X81540003Y-88208334D01*
X81540918Y-88219967D01*
X81542290Y-88263626D01*
X81547879Y-88282860D01*
X81551825Y-88301916D01*
X81554335Y-88321790D01*
X81570042Y-88361462D01*
X81578306Y-88417575D01*
X81560720Y-88471498D01*
X81520963Y-88511949D01*
X81467352Y-88530466D01*
X81422417Y-88535056D01*
X81262926Y-88587906D01*
X81119917Y-88676115D01*
X81088032Y-88708000D01*
X81032444Y-88740093D01*
X80968257Y-88740092D01*
X80912670Y-88707998D01*
X80880393Y-88675720D01*
X80774811Y-88610596D01*
X80737287Y-88587451D01*
X80737286Y-88587450D01*
X80737285Y-88587450D01*
X80577685Y-88534563D01*
X80479174Y-88524500D01*
X79945826Y-88524500D01*
X79847314Y-88534563D01*
X79687714Y-88587450D01*
X79544606Y-88675720D01*
X79486923Y-88733404D01*
X79431335Y-88765498D01*
X79367148Y-88765498D01*
X79311562Y-88733405D01*
X79247685Y-88669528D01*
X79247684Y-88669527D01*
X79150200Y-88610596D01*
X79102106Y-88581522D01*
X78952988Y-88535056D01*
X78939693Y-88530913D01*
X78869117Y-88524500D01*
X78869116Y-88524500D01*
X78355884Y-88524500D01*
X78355883Y-88524500D01*
X78285306Y-88530913D01*
X78204099Y-88556217D01*
X78122894Y-88581522D01*
X78122892Y-88581522D01*
X78122892Y-88581523D01*
X77977313Y-88669528D01*
X77875181Y-88771661D01*
X77819594Y-88803755D01*
X77755406Y-88803755D01*
X77699819Y-88771661D01*
X77624319Y-88696161D01*
X77597439Y-88655933D01*
X77588000Y-88608480D01*
X77588000Y-87847952D01*
X77597439Y-87800499D01*
X77624319Y-87760271D01*
X77991121Y-87393469D01*
X78359285Y-87025303D01*
X78414872Y-86993210D01*
X78479060Y-86993210D01*
X78534647Y-87025304D01*
X78573495Y-87064152D01*
X78597734Y-87098449D01*
X78609134Y-87138869D01*
X78614325Y-87188254D01*
X78672820Y-87368284D01*
X78767466Y-87532216D01*
X78894129Y-87672889D01*
X79047269Y-87784151D01*
X79220197Y-87861144D01*
X79405352Y-87900500D01*
X79405354Y-87900500D01*
X79594646Y-87900500D01*
X79594648Y-87900500D01*
X79719273Y-87874010D01*
X79779803Y-87861144D01*
X79952730Y-87784151D01*
X80046366Y-87716121D01*
X80105870Y-87672889D01*
X80117068Y-87660453D01*
X80232533Y-87532216D01*
X80327179Y-87368284D01*
X80385674Y-87188256D01*
X80405460Y-87000000D01*
X80385674Y-86811744D01*
X80346306Y-86690582D01*
X80327179Y-86631715D01*
X80232533Y-86467783D01*
X80105870Y-86327110D01*
X79952730Y-86215848D01*
X79779802Y-86138855D01*
X79624872Y-86105924D01*
X79591485Y-86093607D01*
X79562972Y-86072315D01*
X79187957Y-85697300D01*
X79155863Y-85641712D01*
X79155863Y-85577525D01*
X79187954Y-85521941D01*
X79298495Y-85411401D01*
X79428732Y-85225402D01*
X79473048Y-85186539D01*
X79530305Y-85172528D01*
X79587562Y-85186539D01*
X79631880Y-85225405D01*
X79685073Y-85301373D01*
X80446447Y-84540001D01*
X80446447Y-84540000D01*
X79685073Y-83778626D01*
X79631881Y-83854594D01*
X79587563Y-83893460D01*
X79530306Y-83907471D01*
X79473048Y-83893460D01*
X79428730Y-83854595D01*
X79298495Y-83668599D01*
X79131401Y-83501505D01*
X79013376Y-83418863D01*
X78974511Y-83374546D01*
X78960500Y-83317289D01*
X78960500Y-83222711D01*
X78974511Y-83165454D01*
X79013377Y-83121136D01*
X79058538Y-83089514D01*
X79131401Y-83038495D01*
X79298495Y-82871401D01*
X79428732Y-82685402D01*
X79473048Y-82646539D01*
X79530305Y-82632528D01*
X79587562Y-82646539D01*
X79631880Y-82685405D01*
X79685073Y-82761373D01*
X80446447Y-82000001D01*
X80446447Y-82000000D01*
X79685073Y-81238626D01*
X79631881Y-81314594D01*
X79587563Y-81353460D01*
X79530306Y-81367471D01*
X79473048Y-81353460D01*
X79428730Y-81314595D01*
X79298495Y-81128599D01*
X79131401Y-80961505D01*
X79022243Y-80885072D01*
X80038625Y-80885072D01*
X80800000Y-81646447D01*
X80800001Y-81646447D01*
X81561373Y-80885073D01*
X81561373Y-80885072D01*
X81477580Y-80826400D01*
X81263492Y-80726569D01*
X81035318Y-80665430D01*
X80799999Y-80644842D01*
X80564681Y-80665430D01*
X80336507Y-80726569D01*
X80122422Y-80826399D01*
X80038625Y-80885072D01*
X79022243Y-80885072D01*
X78937830Y-80825965D01*
X78723663Y-80726097D01*
X78659180Y-80708819D01*
X78495407Y-80664936D01*
X78260000Y-80644340D01*
X78024592Y-80664936D01*
X77796336Y-80726097D01*
X77582170Y-80825965D01*
X77450387Y-80918241D01*
X77393868Y-80957816D01*
X77379712Y-80967728D01*
X77377633Y-80964759D01*
X77340292Y-80986319D01*
X77276104Y-80986319D01*
X77220517Y-80954225D01*
X76881819Y-80615527D01*
X76854939Y-80575299D01*
X76845500Y-80527846D01*
X76845500Y-64944006D01*
X76854939Y-64896553D01*
X76881819Y-64856325D01*
X81240251Y-60497893D01*
X85633789Y-56104354D01*
X85649885Y-56091460D01*
X85651873Y-56089341D01*
X85651877Y-56089340D01*
X85697948Y-56040277D01*
X85700566Y-56037577D01*
X85720120Y-56018025D01*
X85722581Y-56014852D01*
X85730156Y-56005981D01*
X85760062Y-55974136D01*
X85769717Y-55956572D01*
X85780394Y-55940318D01*
X85792673Y-55924490D01*
X85810018Y-55884406D01*
X85815160Y-55873910D01*
X85821158Y-55863000D01*
X85836197Y-55835646D01*
X85841179Y-55816238D01*
X85847481Y-55797834D01*
X85855437Y-55779450D01*
X85862269Y-55736306D01*
X85864633Y-55724892D01*
X85875500Y-55682573D01*
X85875500Y-55662538D01*
X85877027Y-55643139D01*
X85877068Y-55642875D01*
X85880160Y-55623358D01*
X85876050Y-55579879D01*
X85875500Y-55568210D01*
X85875500Y-54810451D01*
X85884940Y-54762997D01*
X85911818Y-54722771D01*
X85925120Y-54709470D01*
X85927581Y-54706295D01*
X85935152Y-54697431D01*
X85965062Y-54665582D01*
X85974712Y-54648027D01*
X85985400Y-54631757D01*
X85985433Y-54631715D01*
X85997673Y-54615936D01*
X86015022Y-54575841D01*
X86020157Y-54565362D01*
X86025798Y-54555101D01*
X86041197Y-54527092D01*
X86046178Y-54507690D01*
X86052478Y-54489287D01*
X86060438Y-54470895D01*
X86067270Y-54427748D01*
X86069639Y-54416315D01*
X86080500Y-54374020D01*
X86080500Y-54353984D01*
X86082026Y-54334591D01*
X86082453Y-54331897D01*
X86084100Y-54321490D01*
X86105622Y-54268882D01*
X86148357Y-54231402D01*
X86203327Y-54216929D01*
X86258978Y-54228503D01*
X86356337Y-54273903D01*
X86572776Y-54331897D01*
X86584592Y-54335063D01*
X86819999Y-54355659D01*
X86819999Y-54355658D01*
X86820000Y-54355659D01*
X86966060Y-54342880D01*
X87019785Y-54350072D01*
X87065310Y-54379494D01*
X87093934Y-54425524D01*
X87100189Y-54479367D01*
X87097844Y-54501680D01*
X87097690Y-54503150D01*
X87111207Y-54631757D01*
X87117476Y-54691407D01*
X87175970Y-54871434D01*
X87270616Y-55035366D01*
X87397279Y-55176039D01*
X87550419Y-55287301D01*
X87723347Y-55364294D01*
X87908502Y-55403650D01*
X87908504Y-55403650D01*
X88097796Y-55403650D01*
X88097798Y-55403650D01*
X88264181Y-55368284D01*
X88282953Y-55364294D01*
X88455880Y-55287301D01*
X88474468Y-55273796D01*
X88609020Y-55176039D01*
X88611150Y-55173674D01*
X88735683Y-55035366D01*
X88830329Y-54871434D01*
X88888824Y-54691406D01*
X88908610Y-54503150D01*
X88903031Y-54450072D01*
X88911179Y-54391165D01*
X88945820Y-54342824D01*
X88998986Y-54316171D01*
X89058444Y-54317338D01*
X89124592Y-54335063D01*
X89360000Y-54355659D01*
X89595408Y-54335063D01*
X89823663Y-54273903D01*
X90037830Y-54174035D01*
X90231401Y-54038495D01*
X90398495Y-53871401D01*
X90528732Y-53685402D01*
X90573048Y-53646539D01*
X90630305Y-53632528D01*
X90687562Y-53646539D01*
X90731880Y-53685404D01*
X90861893Y-53871081D01*
X91028918Y-54038106D01*
X91222423Y-54173600D01*
X91436507Y-54273430D01*
X91649999Y-54330635D01*
X91650000Y-54330636D01*
X91650000Y-52874000D01*
X91666613Y-52812000D01*
X91712000Y-52766613D01*
X91774000Y-52750000D01*
X92026000Y-52750000D01*
X92088000Y-52766613D01*
G37*
G04 #@! TD.AperFunction*
G04 #@! TA.AperFunction,Conductor*
G36*
X114076210Y-55081734D02*
G01*
X114118953Y-55126776D01*
X114134500Y-55186892D01*
X114134500Y-55366370D01*
X114130604Y-55397206D01*
X114125167Y-55418383D01*
X114124500Y-55420982D01*
X114124500Y-55441016D01*
X114122973Y-55460415D01*
X114119840Y-55480194D01*
X114123950Y-55523675D01*
X114124500Y-55535344D01*
X114124500Y-68594033D01*
X114122235Y-68614539D01*
X114124439Y-68684650D01*
X114124500Y-68688545D01*
X114124500Y-68716126D01*
X114125003Y-68720111D01*
X114125918Y-68731744D01*
X114127290Y-68775403D01*
X114132879Y-68794637D01*
X114136825Y-68813693D01*
X114139335Y-68833569D01*
X114155414Y-68874181D01*
X114159197Y-68885228D01*
X114171382Y-68927168D01*
X114181580Y-68944412D01*
X114190136Y-68961877D01*
X114197514Y-68980509D01*
X114199010Y-68982568D01*
X114223180Y-69015836D01*
X114229593Y-69025599D01*
X114251826Y-69063193D01*
X114251829Y-69063196D01*
X114251830Y-69063197D01*
X114265995Y-69077362D01*
X114278627Y-69092152D01*
X114290406Y-69108364D01*
X114324058Y-69136203D01*
X114332699Y-69144066D01*
X118572420Y-73383787D01*
X118585321Y-73399889D01*
X118587435Y-73401874D01*
X118587437Y-73401877D01*
X118634784Y-73446339D01*
X118636463Y-73447916D01*
X118639258Y-73450625D01*
X118658753Y-73470120D01*
X118661927Y-73472582D01*
X118670791Y-73480153D01*
X118702641Y-73510062D01*
X118713137Y-73515832D01*
X118720197Y-73519714D01*
X118736454Y-73530392D01*
X118752287Y-73542674D01*
X118768408Y-73549649D01*
X118792379Y-73560023D01*
X118802866Y-73565160D01*
X118841131Y-73586197D01*
X118860539Y-73591180D01*
X118878933Y-73597478D01*
X118897328Y-73605438D01*
X118940477Y-73612271D01*
X118951903Y-73614638D01*
X118967445Y-73618629D01*
X118994203Y-73625500D01*
X118994204Y-73625500D01*
X119014239Y-73625500D01*
X119033636Y-73627027D01*
X119039950Y-73628027D01*
X119059952Y-73636620D01*
X119086319Y-73627050D01*
X119096898Y-73626050D01*
X119108567Y-73625500D01*
X123475235Y-73625500D01*
X123513532Y-73635439D01*
X123552670Y-73625500D01*
X123835994Y-73625500D01*
X123883447Y-73634939D01*
X123923675Y-73661819D01*
X130298181Y-80036326D01*
X130325061Y-80076554D01*
X130334500Y-80124007D01*
X130334500Y-80724774D01*
X130320489Y-80782031D01*
X130281623Y-80826348D01*
X130088599Y-80961505D01*
X130079712Y-80967728D01*
X130077633Y-80964759D01*
X130040292Y-80986319D01*
X129976104Y-80986319D01*
X129920517Y-80954225D01*
X129581819Y-80615527D01*
X129554939Y-80575299D01*
X129545500Y-80527846D01*
X129545500Y-80002744D01*
X129547764Y-79982236D01*
X129545561Y-79912113D01*
X129545500Y-79908219D01*
X129545500Y-79880654D01*
X129545500Y-79880650D01*
X129544997Y-79876670D01*
X129544081Y-79865028D01*
X129542710Y-79821373D01*
X129537118Y-79802126D01*
X129533174Y-79783085D01*
X129530664Y-79763208D01*
X129514579Y-79722583D01*
X129510806Y-79711562D01*
X129498618Y-79669610D01*
X129496352Y-79665778D01*
X129488419Y-79652364D01*
X129479861Y-79634897D01*
X129472486Y-79616268D01*
X129446808Y-79580926D01*
X129440405Y-79571176D01*
X129436847Y-79565160D01*
X129418171Y-79533580D01*
X129404006Y-79519415D01*
X129391369Y-79504620D01*
X129379595Y-79488414D01*
X129364786Y-79476163D01*
X129345935Y-79460568D01*
X129337305Y-79452714D01*
X124000802Y-74116211D01*
X123987906Y-74100113D01*
X123936775Y-74052098D01*
X123933978Y-74049387D01*
X123914470Y-74029879D01*
X123911290Y-74027412D01*
X123902424Y-74019839D01*
X123870582Y-73989938D01*
X123853024Y-73980285D01*
X123836764Y-73969604D01*
X123820936Y-73957327D01*
X123780851Y-73939980D01*
X123770361Y-73934841D01*
X123732091Y-73913802D01*
X123712691Y-73908821D01*
X123694284Y-73902519D01*
X123675897Y-73894562D01*
X123632758Y-73887729D01*
X123621324Y-73885361D01*
X123579019Y-73874500D01*
X123558984Y-73874500D01*
X123539587Y-73872973D01*
X123533273Y-73871973D01*
X123513270Y-73863379D01*
X123486904Y-73872950D01*
X123476325Y-73873950D01*
X123464656Y-73874500D01*
X119097988Y-73874500D01*
X119059690Y-73864560D01*
X119020553Y-73874500D01*
X118469805Y-73874500D01*
X118424157Y-73865792D01*
X118384921Y-73840892D01*
X118357283Y-73814938D01*
X118351893Y-73811975D01*
X118339725Y-73805285D01*
X118323469Y-73794607D01*
X118307637Y-73782327D01*
X118307634Y-73782326D01*
X118295261Y-73772728D01*
X118296422Y-73771230D01*
X118283289Y-73762303D01*
X113411819Y-68890832D01*
X113384939Y-68850604D01*
X113375500Y-68803151D01*
X113375500Y-55899063D01*
X113384529Y-55852612D01*
X113410301Y-55812926D01*
X113449063Y-55785784D01*
X113452730Y-55784151D01*
X113605870Y-55672889D01*
X113620431Y-55656718D01*
X113732533Y-55532216D01*
X113827179Y-55368284D01*
X113885674Y-55188256D01*
X113887179Y-55173927D01*
X113908925Y-55115768D01*
X113956142Y-55075442D01*
X114016990Y-55063062D01*
X114076210Y-55081734D01*
G37*
G04 #@! TD.AperFunction*
G04 #@! TA.AperFunction,Conductor*
G36*
X109072120Y-55156562D02*
G01*
X109112020Y-55198385D01*
X109112045Y-55198428D01*
X109120137Y-55215101D01*
X109127513Y-55233731D01*
X109127514Y-55233732D01*
X109150820Y-55265810D01*
X109168431Y-55300374D01*
X109174500Y-55338692D01*
X109174500Y-57535993D01*
X109165061Y-57583446D01*
X109138181Y-57623674D01*
X90576208Y-76185645D01*
X90560110Y-76198542D01*
X90512096Y-76249671D01*
X90509391Y-76252463D01*
X90489874Y-76271980D01*
X90487415Y-76275151D01*
X90479842Y-76284018D01*
X90449935Y-76315866D01*
X90440285Y-76333420D01*
X90429609Y-76349674D01*
X90417326Y-76365509D01*
X90399975Y-76405604D01*
X90394838Y-76416090D01*
X90373802Y-76454353D01*
X90368821Y-76473755D01*
X90362520Y-76492157D01*
X90354561Y-76510548D01*
X90347728Y-76553688D01*
X90345360Y-76565120D01*
X90334500Y-76607424D01*
X90334500Y-76627462D01*
X90332973Y-76646859D01*
X90329840Y-76666642D01*
X90330431Y-76672889D01*
X90333950Y-76710121D01*
X90334500Y-76721790D01*
X90334500Y-80724774D01*
X90320489Y-80782031D01*
X90281623Y-80826348D01*
X90088599Y-80961505D01*
X90079712Y-80967728D01*
X90077633Y-80964759D01*
X90040292Y-80986319D01*
X89976104Y-80986319D01*
X89920517Y-80954225D01*
X89581819Y-80615527D01*
X89554939Y-80575299D01*
X89545500Y-80527846D01*
X89545500Y-74744006D01*
X89554939Y-74696553D01*
X89581819Y-74656325D01*
X94087153Y-70150991D01*
X107633786Y-56604356D01*
X107649887Y-56591458D01*
X107651874Y-56589341D01*
X107651877Y-56589340D01*
X107697932Y-56540295D01*
X107700613Y-56537530D01*
X107706403Y-56531740D01*
X107720120Y-56518024D01*
X107722581Y-56514849D01*
X107730152Y-56505985D01*
X107760062Y-56474136D01*
X107769713Y-56456580D01*
X107780393Y-56440321D01*
X107792674Y-56424490D01*
X107810018Y-56384405D01*
X107815160Y-56373910D01*
X107836197Y-56335646D01*
X107841178Y-56316242D01*
X107847480Y-56297837D01*
X107855438Y-56279449D01*
X107862270Y-56236302D01*
X107864639Y-56224870D01*
X107875500Y-56182574D01*
X107875500Y-56162538D01*
X107877027Y-56143139D01*
X107878168Y-56135936D01*
X107880160Y-56123358D01*
X107876050Y-56079879D01*
X107875500Y-56068210D01*
X107875500Y-55886752D01*
X107884939Y-55839299D01*
X107911819Y-55799071D01*
X108122122Y-55588769D01*
X108162350Y-55561889D01*
X108209803Y-55552450D01*
X108268998Y-55552450D01*
X108404373Y-55523675D01*
X108454153Y-55513094D01*
X108627080Y-55436101D01*
X108647891Y-55420981D01*
X108780220Y-55324839D01*
X108780551Y-55324472D01*
X108860177Y-55236038D01*
X108912671Y-55177738D01*
X108960296Y-55144980D01*
X109017596Y-55137370D01*
X109072120Y-55156562D01*
G37*
G04 #@! TD.AperFunction*
G04 #@! TA.AperFunction,Conductor*
G36*
X104788000Y-52766613D02*
G01*
X104833387Y-52812000D01*
X104850000Y-52874000D01*
X104850000Y-54330635D01*
X105063492Y-54273430D01*
X105277576Y-54173600D01*
X105471081Y-54038106D01*
X105638109Y-53871078D01*
X105768119Y-53685405D01*
X105812437Y-53646539D01*
X105869694Y-53632528D01*
X105926951Y-53646539D01*
X105971267Y-53685402D01*
X106101505Y-53871401D01*
X106268599Y-54038495D01*
X106327195Y-54079524D01*
X106362967Y-54118257D01*
X106379413Y-54168353D01*
X106373558Y-54220753D01*
X106346460Y-54265984D01*
X106302096Y-54313225D01*
X106299391Y-54316017D01*
X106279874Y-54335534D01*
X106277415Y-54338705D01*
X106269842Y-54347572D01*
X106239935Y-54379420D01*
X106230285Y-54396974D01*
X106219609Y-54413228D01*
X106207326Y-54429063D01*
X106189975Y-54469158D01*
X106184838Y-54479644D01*
X106163802Y-54517907D01*
X106158821Y-54537309D01*
X106152520Y-54555711D01*
X106144561Y-54574102D01*
X106137728Y-54617242D01*
X106135360Y-54628674D01*
X106124500Y-54670978D01*
X106124500Y-54691016D01*
X106122973Y-54710415D01*
X106121017Y-54722767D01*
X106119840Y-54730196D01*
X106120595Y-54738181D01*
X106123950Y-54773675D01*
X106124500Y-54785344D01*
X106124500Y-55585994D01*
X106115061Y-55633447D01*
X106088181Y-55673675D01*
X88036208Y-73725645D01*
X88020110Y-73738542D01*
X87972096Y-73789671D01*
X87969391Y-73792463D01*
X87949874Y-73811980D01*
X87947415Y-73815151D01*
X87939842Y-73824018D01*
X87909935Y-73855866D01*
X87900285Y-73873420D01*
X87889609Y-73889674D01*
X87877326Y-73905509D01*
X87859975Y-73945604D01*
X87854838Y-73956090D01*
X87833802Y-73994353D01*
X87828821Y-74013755D01*
X87822520Y-74032157D01*
X87814561Y-74050548D01*
X87807728Y-74093688D01*
X87805360Y-74105120D01*
X87794500Y-74147424D01*
X87794500Y-74167462D01*
X87792973Y-74186861D01*
X87789840Y-74206640D01*
X87793950Y-74250121D01*
X87794500Y-74261790D01*
X87794500Y-80724774D01*
X87780489Y-80782031D01*
X87741623Y-80826348D01*
X87548599Y-80961505D01*
X87539712Y-80967728D01*
X87537633Y-80964759D01*
X87500292Y-80986319D01*
X87436104Y-80986319D01*
X87380517Y-80954225D01*
X87041819Y-80615527D01*
X87014939Y-80575299D01*
X87005500Y-80527846D01*
X87005500Y-72284006D01*
X87014939Y-72236553D01*
X87041819Y-72196325D01*
X92572300Y-66665844D01*
X98133789Y-61104354D01*
X98149885Y-61091460D01*
X98151873Y-61089341D01*
X98151877Y-61089340D01*
X98197948Y-61040277D01*
X98200566Y-61037577D01*
X98220120Y-61018025D01*
X98222581Y-61014852D01*
X98230156Y-61005981D01*
X98260062Y-60974136D01*
X98269717Y-60956572D01*
X98280394Y-60940318D01*
X98292673Y-60924490D01*
X98310018Y-60884406D01*
X98315160Y-60873910D01*
X98322095Y-60861296D01*
X98336197Y-60835646D01*
X98341179Y-60816238D01*
X98347481Y-60797834D01*
X98355437Y-60779450D01*
X98362269Y-60736306D01*
X98364633Y-60724892D01*
X98375500Y-60682573D01*
X98375500Y-60662538D01*
X98377027Y-60643139D01*
X98377068Y-60642875D01*
X98380160Y-60623358D01*
X98376050Y-60579879D01*
X98375500Y-60568210D01*
X98375500Y-54810452D01*
X98384939Y-54763000D01*
X98411816Y-54722773D01*
X98538790Y-54595798D01*
X98554882Y-54582909D01*
X98556873Y-54580788D01*
X98556877Y-54580786D01*
X98602948Y-54531723D01*
X98605566Y-54529023D01*
X98625120Y-54509471D01*
X98627581Y-54506298D01*
X98635156Y-54497427D01*
X98665062Y-54465582D01*
X98674717Y-54448018D01*
X98685394Y-54431764D01*
X98697673Y-54415936D01*
X98715018Y-54375852D01*
X98720160Y-54365356D01*
X98741197Y-54327092D01*
X98746179Y-54307684D01*
X98752479Y-54289283D01*
X98758398Y-54275605D01*
X98799197Y-54224622D01*
X98860242Y-54201434D01*
X98924602Y-54212473D01*
X99056337Y-54273903D01*
X99284592Y-54335063D01*
X99520000Y-54355659D01*
X99755408Y-54335063D01*
X99983663Y-54273903D01*
X100197830Y-54174035D01*
X100391401Y-54038495D01*
X100558495Y-53871401D01*
X100688426Y-53685839D01*
X100732743Y-53646975D01*
X100790000Y-53632964D01*
X100847257Y-53646975D01*
X100891573Y-53685839D01*
X101021505Y-53871401D01*
X101188599Y-54038495D01*
X101382170Y-54174035D01*
X101596337Y-54273903D01*
X101824592Y-54335063D01*
X102060000Y-54355659D01*
X102295408Y-54335063D01*
X102523663Y-54273903D01*
X102737830Y-54174035D01*
X102931401Y-54038495D01*
X103098495Y-53871401D01*
X103228732Y-53685402D01*
X103273048Y-53646539D01*
X103330305Y-53632528D01*
X103387562Y-53646539D01*
X103431880Y-53685404D01*
X103561893Y-53871081D01*
X103728918Y-54038106D01*
X103922423Y-54173600D01*
X104136507Y-54273430D01*
X104349999Y-54330635D01*
X104350000Y-54330636D01*
X104350000Y-52874000D01*
X104366613Y-52812000D01*
X104412000Y-52766613D01*
X104474000Y-52750000D01*
X104726000Y-52750000D01*
X104788000Y-52766613D01*
G37*
G04 #@! TD.AperFunction*
G04 #@! TA.AperFunction,Conductor*
G36*
X96562500Y-54881226D02*
G01*
X96607887Y-54926613D01*
X96624500Y-54988613D01*
X96624500Y-60085993D01*
X96615061Y-60133446D01*
X96588181Y-60173674D01*
X85496208Y-71265645D01*
X85480110Y-71278542D01*
X85432096Y-71329671D01*
X85429391Y-71332463D01*
X85409874Y-71351980D01*
X85407415Y-71355151D01*
X85399842Y-71364018D01*
X85369935Y-71395866D01*
X85360285Y-71413420D01*
X85349609Y-71429674D01*
X85337326Y-71445509D01*
X85319975Y-71485604D01*
X85314838Y-71496090D01*
X85293802Y-71534353D01*
X85288821Y-71553755D01*
X85282520Y-71572157D01*
X85274561Y-71590548D01*
X85267728Y-71633688D01*
X85265360Y-71645120D01*
X85254500Y-71687424D01*
X85254500Y-71707462D01*
X85252973Y-71726861D01*
X85249840Y-71746640D01*
X85253950Y-71790121D01*
X85254500Y-71801790D01*
X85254500Y-80724774D01*
X85240489Y-80782031D01*
X85201623Y-80826348D01*
X85008599Y-80961505D01*
X84999712Y-80967728D01*
X84997633Y-80964759D01*
X84960292Y-80986319D01*
X84896104Y-80986319D01*
X84840517Y-80954225D01*
X84501819Y-80615527D01*
X84474939Y-80575299D01*
X84465500Y-80527846D01*
X84465500Y-71324006D01*
X84474939Y-71276553D01*
X84501819Y-71236325D01*
X87277780Y-68460364D01*
X95633786Y-60104356D01*
X95649887Y-60091458D01*
X95651874Y-60089341D01*
X95651877Y-60089340D01*
X95697932Y-60040295D01*
X95700613Y-60037530D01*
X95705695Y-60032448D01*
X95720120Y-60018024D01*
X95722581Y-60014849D01*
X95730152Y-60005985D01*
X95760062Y-59974136D01*
X95769713Y-59956580D01*
X95780393Y-59940321D01*
X95792674Y-59924490D01*
X95810018Y-59884405D01*
X95815160Y-59873910D01*
X95836197Y-59835646D01*
X95841178Y-59816242D01*
X95847480Y-59797837D01*
X95855438Y-59779449D01*
X95862270Y-59736302D01*
X95864639Y-59724870D01*
X95875500Y-59682574D01*
X95875500Y-59662538D01*
X95877027Y-59643139D01*
X95880160Y-59623358D01*
X95876050Y-59579879D01*
X95875500Y-59568210D01*
X95875500Y-55490329D01*
X95884529Y-55443878D01*
X95910302Y-55404191D01*
X95949063Y-55377049D01*
X96015880Y-55347301D01*
X96015880Y-55347300D01*
X96015882Y-55347300D01*
X96169020Y-55236039D01*
X96259154Y-55135936D01*
X96295683Y-55095366D01*
X96300633Y-55086792D01*
X96393113Y-54926613D01*
X96438500Y-54881226D01*
X96500500Y-54864613D01*
X96562500Y-54881226D01*
G37*
G04 #@! TD.AperFunction*
G04 #@! TA.AperFunction,Conductor*
G36*
X83067257Y-53646975D02*
G01*
X83111573Y-53685839D01*
X83241505Y-53871401D01*
X83408599Y-54038495D01*
X83602170Y-54174035D01*
X83816337Y-54273903D01*
X84002595Y-54323810D01*
X84032593Y-54331848D01*
X84080206Y-54356633D01*
X84112882Y-54399218D01*
X84124500Y-54451623D01*
X84124500Y-55085993D01*
X84115061Y-55133446D01*
X84088181Y-55173674D01*
X75336208Y-63925645D01*
X75320110Y-63938542D01*
X75272096Y-63989671D01*
X75269391Y-63992463D01*
X75249874Y-64011980D01*
X75247415Y-64015151D01*
X75239842Y-64024018D01*
X75209935Y-64055866D01*
X75200285Y-64073420D01*
X75189609Y-64089674D01*
X75177326Y-64105509D01*
X75159975Y-64145604D01*
X75154838Y-64156090D01*
X75133802Y-64194353D01*
X75128821Y-64213755D01*
X75122520Y-64232157D01*
X75114561Y-64250548D01*
X75107728Y-64293688D01*
X75105360Y-64305120D01*
X75094500Y-64347424D01*
X75094500Y-64367462D01*
X75092973Y-64386861D01*
X75089840Y-64406640D01*
X75093950Y-64450121D01*
X75094500Y-64461790D01*
X75094500Y-80724774D01*
X75080489Y-80782031D01*
X75041623Y-80826348D01*
X74848599Y-80961505D01*
X74839712Y-80967728D01*
X74837633Y-80964759D01*
X74800292Y-80986319D01*
X74736104Y-80986319D01*
X74680517Y-80954225D01*
X74341819Y-80615527D01*
X74314939Y-80575299D01*
X74305500Y-80527846D01*
X74305500Y-63484006D01*
X74314939Y-63436553D01*
X74341819Y-63396325D01*
X75974469Y-61763675D01*
X80905169Y-56832973D01*
X80946397Y-56805685D01*
X80995012Y-56796675D01*
X81043284Y-56807377D01*
X81220197Y-56886144D01*
X81405352Y-56925500D01*
X81405354Y-56925500D01*
X81594646Y-56925500D01*
X81594648Y-56925500D01*
X81718083Y-56899262D01*
X81779803Y-56886144D01*
X81952730Y-56809151D01*
X82105871Y-56697888D01*
X82232533Y-56557216D01*
X82327179Y-56393284D01*
X82385674Y-56213256D01*
X82405460Y-56025000D01*
X82385674Y-55836744D01*
X82345970Y-55714548D01*
X82327180Y-55656718D01*
X82327179Y-55656716D01*
X82272492Y-55561996D01*
X82255881Y-55500000D01*
X82272492Y-55438003D01*
X82327179Y-55343284D01*
X82385674Y-55163256D01*
X82405460Y-54975000D01*
X82385674Y-54786744D01*
X82354570Y-54691016D01*
X82327179Y-54606715D01*
X82232535Y-54442787D01*
X82232534Y-54442786D01*
X82232533Y-54442784D01*
X82229031Y-54438895D01*
X82201547Y-54388542D01*
X82199669Y-54331203D01*
X82223800Y-54279155D01*
X82268772Y-54243541D01*
X82417830Y-54174035D01*
X82611401Y-54038495D01*
X82778495Y-53871401D01*
X82908426Y-53685839D01*
X82952743Y-53646975D01*
X83010000Y-53632964D01*
X83067257Y-53646975D01*
G37*
G04 #@! TD.AperFunction*
G04 #@! TA.AperFunction,Conductor*
G36*
X73237634Y-54035240D02*
G01*
X73239713Y-54032272D01*
X73248595Y-54038491D01*
X73248599Y-54038495D01*
X73442170Y-54174035D01*
X73656337Y-54273903D01*
X73884592Y-54335063D01*
X74120000Y-54355659D01*
X74355408Y-54335063D01*
X74455874Y-54308143D01*
X74520059Y-54308143D01*
X74575647Y-54340237D01*
X74676661Y-54441251D01*
X74705502Y-54486521D01*
X74712508Y-54539739D01*
X74696367Y-54590932D01*
X74672820Y-54631715D01*
X74614326Y-54811742D01*
X74594540Y-55000000D01*
X74614326Y-55188257D01*
X74672820Y-55368284D01*
X74767466Y-55532216D01*
X74894129Y-55672889D01*
X75047269Y-55784151D01*
X75220197Y-55861144D01*
X75405352Y-55900500D01*
X75405354Y-55900500D01*
X75594646Y-55900500D01*
X75594648Y-55900500D01*
X75719743Y-55873910D01*
X75779803Y-55861144D01*
X75952730Y-55784151D01*
X76026517Y-55730542D01*
X76105870Y-55672889D01*
X76120431Y-55656718D01*
X76232533Y-55532216D01*
X76327179Y-55368284D01*
X76385674Y-55188256D01*
X76405460Y-55000000D01*
X76385674Y-54811744D01*
X76346447Y-54691016D01*
X76327179Y-54631715D01*
X76256415Y-54509149D01*
X76239972Y-54453639D01*
X76250522Y-54396714D01*
X76285766Y-54350783D01*
X76338021Y-54325859D01*
X76395895Y-54327373D01*
X76424592Y-54335063D01*
X76660000Y-54355659D01*
X76895408Y-54335063D01*
X76995874Y-54308143D01*
X77060059Y-54308143D01*
X77115647Y-54340237D01*
X77691301Y-54915892D01*
X77720142Y-54961162D01*
X77727148Y-55014379D01*
X77711008Y-55065572D01*
X77672820Y-55131716D01*
X77614326Y-55311742D01*
X77594540Y-55500000D01*
X77614326Y-55688257D01*
X77672820Y-55868284D01*
X77767466Y-56032216D01*
X77894129Y-56172889D01*
X78047269Y-56284151D01*
X78220197Y-56361144D01*
X78405352Y-56400500D01*
X78561993Y-56400500D01*
X78618288Y-56414015D01*
X78662311Y-56451615D01*
X78684466Y-56505102D01*
X78679924Y-56562818D01*
X78649674Y-56612181D01*
X72796208Y-62465645D01*
X72780110Y-62478542D01*
X72732096Y-62529671D01*
X72729391Y-62532463D01*
X72709874Y-62551980D01*
X72707415Y-62555151D01*
X72699842Y-62564018D01*
X72669935Y-62595866D01*
X72660285Y-62613420D01*
X72649609Y-62629674D01*
X72637326Y-62645509D01*
X72619975Y-62685604D01*
X72614838Y-62696090D01*
X72593802Y-62734353D01*
X72588821Y-62753755D01*
X72582520Y-62772157D01*
X72574561Y-62790548D01*
X72567728Y-62833688D01*
X72565360Y-62845120D01*
X72554500Y-62887424D01*
X72554500Y-62907462D01*
X72552973Y-62926859D01*
X72549840Y-62946642D01*
X72553266Y-62982887D01*
X72553950Y-62990121D01*
X72554500Y-63001790D01*
X72554500Y-80724774D01*
X72540489Y-80782031D01*
X72501623Y-80826348D01*
X72308599Y-80961505D01*
X72299712Y-80967728D01*
X72297633Y-80964759D01*
X72260292Y-80986319D01*
X72196104Y-80986319D01*
X72140517Y-80954225D01*
X71801819Y-80615527D01*
X71774939Y-80575299D01*
X71765500Y-80527846D01*
X71765500Y-55412153D01*
X71774939Y-55364700D01*
X71801819Y-55324472D01*
X72440810Y-54685481D01*
X73080518Y-54045772D01*
X73136103Y-54013680D01*
X73200291Y-54013680D01*
X73237634Y-54035240D01*
G37*
G04 #@! TD.AperFunction*
G04 #@! TA.AperFunction,Conductor*
G36*
X69947757Y-54094517D02*
G01*
X69996509Y-54140178D01*
X70014500Y-54204506D01*
X70014500Y-80724774D01*
X70000489Y-80782031D01*
X69961623Y-80826348D01*
X69768599Y-80961505D01*
X69759712Y-80967728D01*
X69757633Y-80964759D01*
X69720292Y-80986319D01*
X69656104Y-80986319D01*
X69600517Y-80954225D01*
X69261819Y-80615527D01*
X69234939Y-80575299D01*
X69225500Y-80527846D01*
X69225500Y-54443585D01*
X69237118Y-54391180D01*
X69269794Y-54348595D01*
X69317406Y-54323810D01*
X69375876Y-54308143D01*
X69503663Y-54273903D01*
X69717830Y-54174035D01*
X69819376Y-54102931D01*
X69882390Y-54080771D01*
X69947757Y-54094517D01*
G37*
G04 #@! TD.AperFunction*
G04 #@! TA.AperFunction,Conductor*
G36*
X117827500Y-52766613D02*
G01*
X117872887Y-52812000D01*
X117889500Y-52874000D01*
X117889500Y-53126000D01*
X117872887Y-53188000D01*
X117827500Y-53233387D01*
X117765500Y-53250000D01*
X117550000Y-53250000D01*
X117550000Y-54330636D01*
X117733406Y-54281492D01*
X117789691Y-54279650D01*
X117840986Y-54302891D01*
X117876712Y-54346423D01*
X117889500Y-54401267D01*
X117889500Y-55277579D01*
X117889274Y-55285066D01*
X117885641Y-55345107D01*
X117896483Y-55404271D01*
X117897610Y-55411672D01*
X117904860Y-55471373D01*
X117908450Y-55480839D01*
X117914475Y-55502452D01*
X117916303Y-55512429D01*
X117940991Y-55567283D01*
X117943856Y-55574201D01*
X117962500Y-55623359D01*
X117965182Y-55630430D01*
X117970941Y-55638773D01*
X117981961Y-55658313D01*
X117986120Y-55667554D01*
X117986121Y-55667555D01*
X117986122Y-55667557D01*
X117997886Y-55682573D01*
X117998112Y-55682861D01*
X118017717Y-55718885D01*
X118024500Y-55759333D01*
X118024500Y-55979174D01*
X118034563Y-56077685D01*
X118087450Y-56237285D01*
X118175720Y-56380393D01*
X118207646Y-56412319D01*
X118239740Y-56467906D01*
X118239740Y-56532094D01*
X118207646Y-56587681D01*
X118175720Y-56619606D01*
X118087450Y-56762714D01*
X118034563Y-56922314D01*
X118024500Y-57020826D01*
X118024500Y-57554174D01*
X118034563Y-57652685D01*
X118087270Y-57811742D01*
X118087451Y-57812287D01*
X118175719Y-57955391D01*
X118263183Y-58042855D01*
X118290061Y-58083081D01*
X118299500Y-58130534D01*
X118299500Y-60975079D01*
X118299274Y-60982566D01*
X118295641Y-61042607D01*
X118306483Y-61101771D01*
X118307610Y-61109172D01*
X118314860Y-61168873D01*
X118318450Y-61178339D01*
X118324475Y-61199952D01*
X118326303Y-61209929D01*
X118350991Y-61264783D01*
X118353856Y-61271701D01*
X118375180Y-61327926D01*
X118375182Y-61327930D01*
X118380941Y-61336273D01*
X118391961Y-61355813D01*
X118396120Y-61365054D01*
X118433216Y-61412405D01*
X118437651Y-61418432D01*
X118449280Y-61435279D01*
X118469459Y-61464514D01*
X118471817Y-61467929D01*
X118516847Y-61507822D01*
X118522283Y-61512940D01*
X119073495Y-62064152D01*
X119097734Y-62098449D01*
X119109134Y-62138869D01*
X119114325Y-62188254D01*
X119172820Y-62368284D01*
X119267466Y-62532216D01*
X119394129Y-62672889D01*
X119547267Y-62784150D01*
X119561642Y-62790550D01*
X119720197Y-62861144D01*
X119720199Y-62861144D01*
X119725025Y-62863293D01*
X119771969Y-62899805D01*
X119796514Y-62953976D01*
X119793012Y-63013344D01*
X119762271Y-63064254D01*
X118522290Y-64304234D01*
X118516838Y-64309366D01*
X118471816Y-64349253D01*
X118437649Y-64398751D01*
X118433213Y-64404780D01*
X118396121Y-64452125D01*
X118391961Y-64461369D01*
X118380941Y-64480908D01*
X118375182Y-64489252D01*
X118353853Y-64545488D01*
X118350989Y-64552402D01*
X118326303Y-64607253D01*
X118324475Y-64617230D01*
X118318454Y-64638831D01*
X118314859Y-64648311D01*
X118307609Y-64708010D01*
X118306483Y-64715409D01*
X118295641Y-64774574D01*
X118299274Y-64834617D01*
X118299500Y-64842104D01*
X118299500Y-68975079D01*
X118299274Y-68982566D01*
X118295641Y-69042607D01*
X118306483Y-69101771D01*
X118307610Y-69109172D01*
X118314860Y-69168873D01*
X118318450Y-69178339D01*
X118324475Y-69199952D01*
X118326303Y-69209929D01*
X118350991Y-69264783D01*
X118353856Y-69271701D01*
X118375180Y-69327926D01*
X118375182Y-69327930D01*
X118380941Y-69336273D01*
X118391961Y-69355813D01*
X118396120Y-69365054D01*
X118396121Y-69365055D01*
X118396122Y-69365057D01*
X118405661Y-69377233D01*
X118433216Y-69412405D01*
X118437651Y-69418432D01*
X118442158Y-69424961D01*
X118466471Y-69460185D01*
X118471817Y-69467929D01*
X118516847Y-69507822D01*
X118522283Y-69512940D01*
X119987058Y-70977715D01*
X119992178Y-70983153D01*
X120031660Y-71027719D01*
X120032072Y-71028184D01*
X120081569Y-71062349D01*
X120087602Y-71066788D01*
X120134943Y-71103877D01*
X120144174Y-71108031D01*
X120163726Y-71119058D01*
X120172070Y-71124818D01*
X120228322Y-71146151D01*
X120235228Y-71149012D01*
X120290068Y-71173694D01*
X120300030Y-71175519D01*
X120321650Y-71181546D01*
X120329245Y-71184426D01*
X120331128Y-71185140D01*
X120390856Y-71192392D01*
X120398201Y-71193509D01*
X120457394Y-71204357D01*
X120517422Y-71200726D01*
X120524910Y-71200500D01*
X123527110Y-71200500D01*
X123574563Y-71209939D01*
X123614791Y-71236819D01*
X123655687Y-71277715D01*
X123660807Y-71283153D01*
X123700700Y-71328183D01*
X123750206Y-71362355D01*
X123756226Y-71366785D01*
X123803570Y-71403877D01*
X123803571Y-71403877D01*
X123803572Y-71403878D01*
X123812813Y-71408037D01*
X123832359Y-71419061D01*
X123840699Y-71424818D01*
X123896951Y-71446151D01*
X123903847Y-71449009D01*
X123958697Y-71473695D01*
X123968664Y-71475521D01*
X123990280Y-71481546D01*
X123999757Y-71485140D01*
X124059469Y-71492390D01*
X124066814Y-71493507D01*
X124126023Y-71504358D01*
X124182731Y-71500927D01*
X124186063Y-71500726D01*
X124193550Y-71500500D01*
X125109953Y-71500500D01*
X125157406Y-71509939D01*
X125197634Y-71536819D01*
X132763181Y-79102366D01*
X132790061Y-79142594D01*
X132799500Y-79190047D01*
X132799500Y-80553130D01*
X132788877Y-80603345D01*
X132758829Y-80644957D01*
X132714504Y-80670836D01*
X132580666Y-80715186D01*
X132580664Y-80715186D01*
X132580664Y-80715187D01*
X132441954Y-80800743D01*
X132390058Y-80818499D01*
X132335579Y-80812131D01*
X132289177Y-80782885D01*
X132121819Y-80615527D01*
X132094939Y-80575299D01*
X132085500Y-80527846D01*
X132085500Y-79689186D01*
X132087763Y-79668682D01*
X132087547Y-79661819D01*
X132085561Y-79598590D01*
X132085500Y-79594696D01*
X132085500Y-79567103D01*
X132085500Y-79567096D01*
X132084995Y-79563099D01*
X132084080Y-79551469D01*
X132083804Y-79542672D01*
X132082709Y-79507819D01*
X132077120Y-79488583D01*
X132073176Y-79469539D01*
X132070664Y-79449654D01*
X132054582Y-79409037D01*
X132050798Y-79397986D01*
X132038617Y-79356056D01*
X132028421Y-79338815D01*
X132019863Y-79321348D01*
X132012486Y-79302714D01*
X131986798Y-79267358D01*
X131980409Y-79257630D01*
X131958170Y-79220025D01*
X131944006Y-79205861D01*
X131931369Y-79191066D01*
X131919595Y-79174860D01*
X131900166Y-79158787D01*
X131885935Y-79147014D01*
X131877305Y-79139160D01*
X124854356Y-72116211D01*
X124841460Y-72100113D01*
X124790329Y-72052098D01*
X124787532Y-72049387D01*
X124768024Y-72029879D01*
X124764844Y-72027412D01*
X124755978Y-72019839D01*
X124724136Y-71989938D01*
X124706578Y-71980285D01*
X124690318Y-71969604D01*
X124674490Y-71957327D01*
X124634405Y-71939980D01*
X124623915Y-71934841D01*
X124585645Y-71913802D01*
X124566245Y-71908821D01*
X124547838Y-71902519D01*
X124529451Y-71894562D01*
X124486312Y-71887729D01*
X124474878Y-71885361D01*
X124432573Y-71874500D01*
X124412538Y-71874500D01*
X124393140Y-71872973D01*
X124385716Y-71871797D01*
X124373359Y-71869840D01*
X124373358Y-71869840D01*
X124340305Y-71872964D01*
X124329879Y-71873950D01*
X124318210Y-71874500D01*
X119664006Y-71874500D01*
X119616553Y-71865061D01*
X119576325Y-71838181D01*
X115911819Y-68173674D01*
X115884939Y-68133446D01*
X115875500Y-68085993D01*
X115875500Y-55810452D01*
X115884939Y-55762999D01*
X115911819Y-55722771D01*
X116110915Y-55523675D01*
X116318789Y-55315800D01*
X116334885Y-55302906D01*
X116336873Y-55300787D01*
X116336877Y-55300786D01*
X116382948Y-55251723D01*
X116385566Y-55249023D01*
X116405120Y-55229471D01*
X116407581Y-55226298D01*
X116415156Y-55217427D01*
X116445062Y-55185582D01*
X116454717Y-55168018D01*
X116465394Y-55151764D01*
X116477673Y-55135936D01*
X116495018Y-55095852D01*
X116500160Y-55085356D01*
X116521197Y-55047092D01*
X116526179Y-55027684D01*
X116532481Y-55009280D01*
X116540437Y-54990896D01*
X116547269Y-54947752D01*
X116549633Y-54936338D01*
X116560500Y-54894019D01*
X116560500Y-54873984D01*
X116562027Y-54854585D01*
X116563426Y-54845751D01*
X116565160Y-54834804D01*
X116561050Y-54791325D01*
X116560500Y-54779656D01*
X116560500Y-54339367D01*
X116575786Y-54279724D01*
X116617875Y-54234786D01*
X116676390Y-54215632D01*
X116736905Y-54226985D01*
X116836507Y-54273430D01*
X117050000Y-54330636D01*
X117050000Y-52874000D01*
X117066613Y-52812000D01*
X117112000Y-52766613D01*
X117174000Y-52750000D01*
X117765500Y-52750000D01*
X117827500Y-52766613D01*
G37*
G04 #@! TD.AperFunction*
G04 #@! TA.AperFunction,Conductor*
G36*
X126196062Y-67121536D02*
G01*
X126252011Y-67163031D01*
X126276761Y-67228141D01*
X126277235Y-67234156D01*
X126280114Y-67244065D01*
X126320445Y-67382888D01*
X126399285Y-67516199D01*
X126508800Y-67625714D01*
X126508802Y-67625715D01*
X126642113Y-67704555D01*
X126790844Y-67747765D01*
X126825595Y-67750500D01*
X126941609Y-67750499D01*
X126977134Y-67759619D01*
X126977730Y-67757300D01*
X126992905Y-67761195D01*
X126992908Y-67761197D01*
X127012314Y-67766179D01*
X127030708Y-67772477D01*
X127049104Y-67780438D01*
X127092261Y-67787273D01*
X127103664Y-67789634D01*
X127145981Y-67800500D01*
X127166016Y-67800500D01*
X127185413Y-67802026D01*
X127205196Y-67805160D01*
X127248674Y-67801050D01*
X127260344Y-67800500D01*
X128108480Y-67800500D01*
X128155933Y-67809939D01*
X128196161Y-67836819D01*
X128271661Y-67912319D01*
X128303755Y-67967906D01*
X128303755Y-68032094D01*
X128271661Y-68087681D01*
X128169528Y-68189813D01*
X128081523Y-68335392D01*
X128081522Y-68335394D01*
X128069279Y-68374684D01*
X128030913Y-68497806D01*
X128024500Y-68568383D01*
X128024500Y-69081617D01*
X128030913Y-69152193D01*
X128030914Y-69152196D01*
X128081522Y-69314606D01*
X128109635Y-69361111D01*
X128169528Y-69460186D01*
X128289813Y-69580471D01*
X128311855Y-69593796D01*
X128435394Y-69668478D01*
X128597804Y-69719086D01*
X128644857Y-69723361D01*
X128668383Y-69725500D01*
X128668384Y-69725500D01*
X129331616Y-69725500D01*
X129331617Y-69725500D01*
X129349261Y-69723896D01*
X129402196Y-69719086D01*
X129564606Y-69668478D01*
X129710185Y-69580472D01*
X129830472Y-69460185D01*
X129899428Y-69346117D01*
X129944387Y-69302400D01*
X130004989Y-69286270D01*
X130065733Y-69301856D01*
X130111082Y-69345172D01*
X130177426Y-69452732D01*
X130297267Y-69572573D01*
X130441513Y-69661546D01*
X130602393Y-69714856D01*
X130701685Y-69725000D01*
X130750000Y-69725000D01*
X130750000Y-68649000D01*
X130766613Y-68587000D01*
X130812000Y-68541613D01*
X130874000Y-68525000D01*
X131126000Y-68525000D01*
X131188000Y-68541613D01*
X131233387Y-68587000D01*
X131250000Y-68649000D01*
X131250000Y-69724999D01*
X131263181Y-69738180D01*
X131290061Y-69778408D01*
X131299500Y-69825861D01*
X131299500Y-70158481D01*
X131290061Y-70205934D01*
X131263181Y-70246162D01*
X130022290Y-71487051D01*
X130016838Y-71492183D01*
X129971816Y-71532070D01*
X129937649Y-71581568D01*
X129933213Y-71587597D01*
X129896121Y-71634942D01*
X129891961Y-71644186D01*
X129880941Y-71663725D01*
X129875182Y-71672069D01*
X129853853Y-71728305D01*
X129850989Y-71735219D01*
X129826303Y-71790070D01*
X129824475Y-71800047D01*
X129818454Y-71821648D01*
X129814860Y-71831124D01*
X129807612Y-71890819D01*
X129806485Y-71898222D01*
X129795642Y-71957393D01*
X129799274Y-72017434D01*
X129799500Y-72024921D01*
X129799500Y-73858009D01*
X129785985Y-73914304D01*
X129748385Y-73958327D01*
X129694898Y-73980482D01*
X129637182Y-73975940D01*
X129587819Y-73945690D01*
X125964412Y-70322283D01*
X125959294Y-70316847D01*
X125919401Y-70271817D01*
X125869904Y-70237651D01*
X125863877Y-70233216D01*
X125816526Y-70196120D01*
X125807285Y-70191961D01*
X125787745Y-70180941D01*
X125779402Y-70175182D01*
X125779399Y-70175181D01*
X125779398Y-70175180D01*
X125723173Y-70153856D01*
X125716255Y-70150991D01*
X125661401Y-70126303D01*
X125651424Y-70124475D01*
X125629811Y-70118450D01*
X125620345Y-70114860D01*
X125560644Y-70107610D01*
X125553243Y-70106483D01*
X125494079Y-70095641D01*
X125434038Y-70099274D01*
X125426551Y-70099500D01*
X124510148Y-70099500D01*
X124462695Y-70090061D01*
X124422467Y-70063181D01*
X124381569Y-70022283D01*
X124376451Y-70016847D01*
X124336558Y-69971817D01*
X124330715Y-69967784D01*
X124287065Y-69937654D01*
X124281034Y-69933216D01*
X124233683Y-69896120D01*
X124224442Y-69891961D01*
X124204902Y-69880941D01*
X124196559Y-69875182D01*
X124196556Y-69875181D01*
X124196555Y-69875180D01*
X124140330Y-69853856D01*
X124133412Y-69850991D01*
X124078558Y-69826303D01*
X124068581Y-69824475D01*
X124046968Y-69818450D01*
X124037502Y-69814860D01*
X123977801Y-69807610D01*
X123970400Y-69806483D01*
X123911236Y-69795641D01*
X123851195Y-69799274D01*
X123843708Y-69799500D01*
X123790520Y-69799500D01*
X123734225Y-69785985D01*
X123690202Y-69748385D01*
X123668047Y-69694898D01*
X123672589Y-69637182D01*
X123702839Y-69587819D01*
X123830470Y-69460187D01*
X123830471Y-69460186D01*
X123830472Y-69460185D01*
X123899428Y-69346117D01*
X123944387Y-69302400D01*
X124004989Y-69286270D01*
X124065733Y-69301856D01*
X124111082Y-69345172D01*
X124177426Y-69452732D01*
X124297267Y-69572573D01*
X124441513Y-69661546D01*
X124602393Y-69714856D01*
X124701685Y-69725000D01*
X124750000Y-69725000D01*
X124750000Y-69025000D01*
X125250000Y-69025000D01*
X125250000Y-69724999D01*
X125298315Y-69724999D01*
X125397605Y-69714856D01*
X125558486Y-69661546D01*
X125702732Y-69572573D01*
X125822573Y-69452732D01*
X125911546Y-69308486D01*
X125922642Y-69275000D01*
X126275001Y-69275000D01*
X126275001Y-69299351D01*
X126277733Y-69334079D01*
X126320907Y-69482685D01*
X126399684Y-69615890D01*
X126509109Y-69725315D01*
X126642314Y-69804092D01*
X126774998Y-69842641D01*
X126775000Y-69842640D01*
X126775000Y-69275000D01*
X127225000Y-69275000D01*
X127225000Y-69842640D01*
X127225001Y-69842641D01*
X127357685Y-69804092D01*
X127490890Y-69725315D01*
X127600315Y-69615890D01*
X127679092Y-69482685D01*
X127722266Y-69334081D01*
X127725000Y-69299350D01*
X127725000Y-69275000D01*
X127225000Y-69275000D01*
X126775000Y-69275000D01*
X126275001Y-69275000D01*
X125922642Y-69275000D01*
X125964856Y-69147606D01*
X125975000Y-69048315D01*
X125975000Y-69025000D01*
X125250000Y-69025000D01*
X124750000Y-69025000D01*
X124750000Y-68825000D01*
X126275000Y-68825000D01*
X126775000Y-68825000D01*
X127225000Y-68825000D01*
X127724999Y-68825000D01*
X127724999Y-68800649D01*
X127722266Y-68765920D01*
X127679092Y-68617314D01*
X127600315Y-68484109D01*
X127490890Y-68374684D01*
X127357685Y-68295907D01*
X127225001Y-68257358D01*
X127225000Y-68257360D01*
X127225000Y-68825000D01*
X126775000Y-68825000D01*
X126775000Y-68257360D01*
X126774998Y-68257358D01*
X126642314Y-68295907D01*
X126509109Y-68374684D01*
X126399684Y-68484109D01*
X126320907Y-68617314D01*
X126277733Y-68765918D01*
X126275000Y-68800650D01*
X126275000Y-68825000D01*
X124750000Y-68825000D01*
X124750000Y-68649000D01*
X124766613Y-68587000D01*
X124812000Y-68541613D01*
X124874000Y-68525000D01*
X125974999Y-68525000D01*
X125974999Y-68501685D01*
X125964856Y-68402394D01*
X125911546Y-68241513D01*
X125822574Y-68097269D01*
X125813341Y-68088036D01*
X125781245Y-68032448D01*
X125781245Y-67968258D01*
X125813339Y-67912672D01*
X125822968Y-67903044D01*
X125912003Y-67758697D01*
X125965349Y-67597708D01*
X125975500Y-67498345D01*
X125975499Y-67291516D01*
X125984938Y-67244065D01*
X126011815Y-67203839D01*
X126065465Y-67150189D01*
X126126570Y-67116753D01*
X126196062Y-67121536D01*
G37*
G04 #@! TD.AperFunction*
G04 #@! TA.AperFunction,Conductor*
G36*
X120243385Y-64712384D02*
G01*
X120280985Y-64756407D01*
X120294500Y-64812702D01*
X120294500Y-65365692D01*
X120297402Y-65402572D01*
X120343255Y-65560397D01*
X120426919Y-65701865D01*
X120433181Y-65708127D01*
X120460061Y-65748355D01*
X120469500Y-65795808D01*
X120469500Y-66262225D01*
X120460061Y-66309678D01*
X120433180Y-66349907D01*
X120399285Y-66383801D01*
X120320446Y-66517110D01*
X120320445Y-66517112D01*
X120320445Y-66517113D01*
X120277235Y-66665844D01*
X120277234Y-66665846D01*
X120277235Y-66665846D01*
X120274500Y-66700598D01*
X120274500Y-67199402D01*
X120276762Y-67228142D01*
X120277235Y-67234156D01*
X120280114Y-67244065D01*
X120320445Y-67382888D01*
X120399285Y-67516199D01*
X120508800Y-67625714D01*
X120508802Y-67625715D01*
X120642113Y-67704555D01*
X120790844Y-67747765D01*
X120825595Y-67750500D01*
X120941609Y-67750499D01*
X120977134Y-67759619D01*
X120977730Y-67757300D01*
X120992905Y-67761195D01*
X120992908Y-67761197D01*
X121012314Y-67766179D01*
X121030708Y-67772477D01*
X121049104Y-67780438D01*
X121092261Y-67787273D01*
X121103664Y-67789634D01*
X121145981Y-67800500D01*
X121166016Y-67800500D01*
X121185413Y-67802026D01*
X121205196Y-67805160D01*
X121248674Y-67801050D01*
X121260344Y-67800500D01*
X122108480Y-67800500D01*
X122155933Y-67809939D01*
X122196161Y-67836819D01*
X122271661Y-67912319D01*
X122303755Y-67967906D01*
X122303755Y-68032094D01*
X122271661Y-68087681D01*
X122169528Y-68189813D01*
X122081523Y-68335392D01*
X122081522Y-68335394D01*
X122069279Y-68374684D01*
X122030913Y-68497806D01*
X122024500Y-68568383D01*
X122024500Y-69081617D01*
X122030913Y-69152193D01*
X122030914Y-69152196D01*
X122081522Y-69314606D01*
X122109635Y-69361111D01*
X122169528Y-69460186D01*
X122297161Y-69587819D01*
X122327411Y-69637182D01*
X122331953Y-69694898D01*
X122309798Y-69748385D01*
X122265775Y-69785985D01*
X122209480Y-69799500D01*
X121709124Y-69799500D01*
X121646843Y-69782724D01*
X121601414Y-69736937D01*
X121585128Y-69674526D01*
X121602392Y-69612379D01*
X121679092Y-69482685D01*
X121722266Y-69334081D01*
X121725000Y-69299350D01*
X121725000Y-69275000D01*
X120317019Y-69275000D01*
X120269566Y-69265561D01*
X120229338Y-69238681D01*
X119815657Y-68825000D01*
X120275000Y-68825000D01*
X120775000Y-68825000D01*
X121225000Y-68825000D01*
X121724999Y-68825000D01*
X121724999Y-68800649D01*
X121722266Y-68765920D01*
X121679092Y-68617314D01*
X121600315Y-68484109D01*
X121490890Y-68374684D01*
X121357685Y-68295907D01*
X121225001Y-68257358D01*
X121225000Y-68257360D01*
X121225000Y-68825000D01*
X120775000Y-68825000D01*
X120775000Y-68257360D01*
X120774998Y-68257358D01*
X120642314Y-68295907D01*
X120509109Y-68374684D01*
X120399684Y-68484109D01*
X120320907Y-68617314D01*
X120277733Y-68765918D01*
X120275000Y-68800650D01*
X120275000Y-68825000D01*
X119815657Y-68825000D01*
X119736819Y-68746162D01*
X119709939Y-68705934D01*
X119700500Y-68658481D01*
X119700500Y-65158702D01*
X119709939Y-65111249D01*
X119736819Y-65071021D01*
X120082819Y-64725021D01*
X120132182Y-64694771D01*
X120189898Y-64690229D01*
X120243385Y-64712384D01*
G37*
G04 #@! TD.AperFunction*
G04 #@! TA.AperFunction,Conductor*
G36*
X126243885Y-59218633D02*
G01*
X126274630Y-59254630D01*
X126295000Y-59275000D01*
X127221000Y-59275000D01*
X127283000Y-59291613D01*
X127328387Y-59337000D01*
X127345000Y-59399000D01*
X127345000Y-60997295D01*
X127347488Y-60997099D01*
X127505200Y-60951280D01*
X127660040Y-60859709D01*
X127660979Y-60861296D01*
X127697540Y-60840182D01*
X127761733Y-60840178D01*
X127798786Y-60861569D01*
X127799652Y-60860107D01*
X127813134Y-60868080D01*
X127813135Y-60868081D01*
X127831669Y-60879042D01*
X127954602Y-60951744D01*
X128112427Y-60997597D01*
X128112431Y-60997598D01*
X128149306Y-61000500D01*
X128580692Y-61000500D01*
X128580694Y-61000500D01*
X128617569Y-60997598D01*
X128775398Y-60951744D01*
X128916865Y-60868081D01*
X128916865Y-60868080D01*
X128930348Y-60860107D01*
X128931278Y-60861680D01*
X128967906Y-60840533D01*
X129032094Y-60840533D01*
X129068721Y-60861680D01*
X129069652Y-60860107D01*
X129083134Y-60868080D01*
X129083135Y-60868081D01*
X129101669Y-60879042D01*
X129224602Y-60951744D01*
X129382427Y-60997597D01*
X129382431Y-60997598D01*
X129419306Y-61000500D01*
X129419308Y-61000500D01*
X129815546Y-61000500D01*
X129871841Y-61014015D01*
X129915865Y-61051615D01*
X129938020Y-61105103D01*
X129933476Y-61162820D01*
X129903227Y-61212180D01*
X129883318Y-61232090D01*
X129876207Y-61239201D01*
X129860109Y-61252097D01*
X129812096Y-61303225D01*
X129809391Y-61306017D01*
X129789874Y-61325534D01*
X129787415Y-61328705D01*
X129779842Y-61337572D01*
X129749935Y-61369420D01*
X129740285Y-61386974D01*
X129729609Y-61403228D01*
X129717326Y-61419063D01*
X129699975Y-61459158D01*
X129694838Y-61469644D01*
X129673802Y-61507907D01*
X129668821Y-61527309D01*
X129662520Y-61545711D01*
X129654561Y-61564102D01*
X129647728Y-61607242D01*
X129645360Y-61618674D01*
X129634500Y-61660978D01*
X129634500Y-61681016D01*
X129632973Y-61700413D01*
X129629840Y-61720196D01*
X129630294Y-61724999D01*
X129633950Y-61763675D01*
X129634500Y-61775344D01*
X129634500Y-62875500D01*
X129617887Y-62937500D01*
X129572500Y-62982887D01*
X129510500Y-62999500D01*
X129419306Y-62999500D01*
X129407014Y-63000467D01*
X129382427Y-63002402D01*
X129224602Y-63048255D01*
X129069652Y-63139893D01*
X129068721Y-63138319D01*
X129032094Y-63159467D01*
X128967906Y-63159467D01*
X128931278Y-63138319D01*
X128930348Y-63139893D01*
X128775397Y-63048255D01*
X128617572Y-63002402D01*
X128595443Y-63000660D01*
X128580694Y-62999500D01*
X128149306Y-62999500D01*
X128137014Y-63000467D01*
X128112427Y-63002402D01*
X127954602Y-63048255D01*
X127799652Y-63139893D01*
X127798721Y-63138319D01*
X127762094Y-63159467D01*
X127697906Y-63159467D01*
X127661278Y-63138319D01*
X127660348Y-63139893D01*
X127505397Y-63048255D01*
X127347572Y-63002402D01*
X127325443Y-63000660D01*
X127310694Y-62999500D01*
X127310692Y-62999500D01*
X127017058Y-62999500D01*
X126958844Y-62984986D01*
X126914258Y-62944840D01*
X126893737Y-62888462D01*
X126892375Y-62875500D01*
X126885674Y-62811744D01*
X126846429Y-62690960D01*
X126827179Y-62631715D01*
X126732533Y-62467783D01*
X126605870Y-62327110D01*
X126452730Y-62215848D01*
X126279802Y-62138855D01*
X126094648Y-62099500D01*
X126094646Y-62099500D01*
X125905354Y-62099500D01*
X125905352Y-62099500D01*
X125720197Y-62138855D01*
X125547269Y-62215848D01*
X125437699Y-62295455D01*
X125380999Y-62318076D01*
X125320376Y-62310901D01*
X125270523Y-62275668D01*
X125243524Y-62220918D01*
X125245920Y-62159919D01*
X125277131Y-62107458D01*
X125288789Y-62095800D01*
X125304885Y-62082906D01*
X125306873Y-62080787D01*
X125306877Y-62080786D01*
X125352948Y-62031723D01*
X125355566Y-62029023D01*
X125375120Y-62009471D01*
X125377581Y-62006298D01*
X125385156Y-61997427D01*
X125415062Y-61965582D01*
X125424717Y-61948018D01*
X125435394Y-61931764D01*
X125447673Y-61915936D01*
X125465018Y-61875852D01*
X125470160Y-61865356D01*
X125491197Y-61827092D01*
X125496179Y-61807684D01*
X125502481Y-61789280D01*
X125510437Y-61770896D01*
X125517269Y-61727752D01*
X125519633Y-61716338D01*
X125530500Y-61674019D01*
X125530500Y-61653984D01*
X125532027Y-61634585D01*
X125532481Y-61631716D01*
X125535160Y-61614804D01*
X125531050Y-61571325D01*
X125530500Y-61559656D01*
X125530500Y-60845808D01*
X125539939Y-60798355D01*
X125566819Y-60758127D01*
X125566819Y-60758126D01*
X125573081Y-60751865D01*
X125656744Y-60610398D01*
X125702598Y-60452569D01*
X125705500Y-60415694D01*
X125705500Y-59775000D01*
X126295000Y-59775000D01*
X126295000Y-60415639D01*
X126297900Y-60452493D01*
X126343717Y-60610197D01*
X126427317Y-60751557D01*
X126543442Y-60867682D01*
X126684799Y-60951280D01*
X126842511Y-60997099D01*
X126844999Y-60997295D01*
X126845000Y-60997295D01*
X126845000Y-59775000D01*
X126295000Y-59775000D01*
X125705500Y-59775000D01*
X125705500Y-59660452D01*
X125714939Y-59612999D01*
X125741819Y-59572771D01*
X125904200Y-59410390D01*
X126083319Y-59231269D01*
X126132682Y-59201020D01*
X126190398Y-59196478D01*
X126243885Y-59218633D01*
G37*
G04 #@! TD.AperFunction*
G04 #@! TA.AperFunction,Conductor*
G36*
X120028000Y-52766613D02*
G01*
X120073387Y-52812000D01*
X120090000Y-52874000D01*
X120090000Y-54330635D01*
X120303492Y-54273430D01*
X120517576Y-54173600D01*
X120711081Y-54038106D01*
X120878109Y-53871078D01*
X121008119Y-53685405D01*
X121052437Y-53646539D01*
X121109694Y-53632528D01*
X121166951Y-53646539D01*
X121211267Y-53685402D01*
X121341505Y-53871401D01*
X121508599Y-54038495D01*
X121702170Y-54174035D01*
X121916337Y-54273903D01*
X122132776Y-54331897D01*
X122144592Y-54335063D01*
X122390728Y-54356598D01*
X122455406Y-54381750D01*
X122496442Y-54437715D01*
X122500981Y-54506964D01*
X122467601Y-54567807D01*
X122297228Y-54738181D01*
X122257000Y-54765061D01*
X122209547Y-54774500D01*
X121668383Y-54774500D01*
X121597806Y-54780913D01*
X121534458Y-54800653D01*
X121435394Y-54831522D01*
X121435392Y-54831522D01*
X121435392Y-54831523D01*
X121289813Y-54919528D01*
X121169528Y-55039813D01*
X121089626Y-55171988D01*
X121081522Y-55185394D01*
X121067493Y-55230416D01*
X121030913Y-55347806D01*
X121024500Y-55418383D01*
X121024500Y-55931617D01*
X121030913Y-56002193D01*
X121030914Y-56002196D01*
X121081522Y-56164606D01*
X121107374Y-56207370D01*
X121169528Y-56310186D01*
X121271661Y-56412319D01*
X121303755Y-56467906D01*
X121303755Y-56532094D01*
X121271661Y-56587681D01*
X121169528Y-56689813D01*
X121081523Y-56835392D01*
X121030913Y-56997806D01*
X121024500Y-57068383D01*
X121024500Y-57581617D01*
X121030913Y-57652193D01*
X121030914Y-57652196D01*
X121081522Y-57814606D01*
X121169528Y-57960185D01*
X121289815Y-58080472D01*
X121289817Y-58080473D01*
X121300461Y-58091117D01*
X121299320Y-58092257D01*
X121329006Y-58122852D01*
X121345000Y-58183768D01*
X121345000Y-60997295D01*
X121347488Y-60997099D01*
X121505200Y-60951280D01*
X121660040Y-60859709D01*
X121660979Y-60861296D01*
X121697540Y-60840182D01*
X121761733Y-60840178D01*
X121798786Y-60861569D01*
X121799652Y-60860107D01*
X121813134Y-60868080D01*
X121813135Y-60868081D01*
X121831669Y-60879042D01*
X121954602Y-60951744D01*
X122112427Y-60997597D01*
X122112431Y-60997598D01*
X122149306Y-61000500D01*
X122580692Y-61000500D01*
X122580694Y-61000500D01*
X122617569Y-60997598D01*
X122775398Y-60951744D01*
X122916865Y-60868081D01*
X122916865Y-60868080D01*
X122930348Y-60860107D01*
X122931278Y-60861680D01*
X122967906Y-60840533D01*
X123032094Y-60840533D01*
X123068721Y-60861680D01*
X123069652Y-60860107D01*
X123083134Y-60868080D01*
X123083135Y-60868081D01*
X123101669Y-60879042D01*
X123224602Y-60951744D01*
X123382427Y-60997597D01*
X123382431Y-60997598D01*
X123419306Y-61000500D01*
X123850692Y-61000500D01*
X123850694Y-61000500D01*
X123887569Y-60997598D01*
X124045398Y-60951744D01*
X124074312Y-60934644D01*
X124092379Y-60923960D01*
X124154526Y-60906696D01*
X124216937Y-60922982D01*
X124262725Y-60968411D01*
X124279500Y-61030692D01*
X124279500Y-61284547D01*
X124270061Y-61332000D01*
X124243181Y-61372228D01*
X123896208Y-61719199D01*
X123880110Y-61732096D01*
X123832096Y-61783225D01*
X123829391Y-61786017D01*
X123809874Y-61805534D01*
X123807415Y-61808705D01*
X123799842Y-61817572D01*
X123769935Y-61849420D01*
X123760285Y-61866974D01*
X123749609Y-61883228D01*
X123737326Y-61899063D01*
X123719975Y-61939158D01*
X123714838Y-61949644D01*
X123693802Y-61987907D01*
X123688821Y-62007309D01*
X123682520Y-62025711D01*
X123674561Y-62044102D01*
X123667728Y-62087242D01*
X123665360Y-62098674D01*
X123654500Y-62140978D01*
X123654500Y-62161016D01*
X123652973Y-62180415D01*
X123649840Y-62200194D01*
X123653950Y-62243675D01*
X123654500Y-62255344D01*
X123654500Y-62875500D01*
X123637887Y-62937500D01*
X123592500Y-62982887D01*
X123530500Y-62999500D01*
X123419306Y-62999500D01*
X123407014Y-63000467D01*
X123382427Y-63002402D01*
X123224602Y-63048255D01*
X123069652Y-63139893D01*
X123068721Y-63138319D01*
X123032094Y-63159467D01*
X122967906Y-63159467D01*
X122931278Y-63138319D01*
X122930348Y-63139893D01*
X122775397Y-63048255D01*
X122617572Y-63002402D01*
X122595443Y-63000660D01*
X122580694Y-62999500D01*
X122580692Y-62999500D01*
X122414336Y-62999500D01*
X122366883Y-62990061D01*
X122326655Y-62963181D01*
X121885757Y-62522283D01*
X121880639Y-62516847D01*
X121840746Y-62471817D01*
X121834903Y-62467784D01*
X121791253Y-62437654D01*
X121785222Y-62433216D01*
X121737871Y-62396120D01*
X121728630Y-62391961D01*
X121709090Y-62380941D01*
X121700747Y-62375182D01*
X121700744Y-62375181D01*
X121700743Y-62375180D01*
X121644518Y-62353856D01*
X121637600Y-62350991D01*
X121582746Y-62326303D01*
X121572769Y-62324475D01*
X121551156Y-62318450D01*
X121541690Y-62314860D01*
X121481989Y-62307610D01*
X121474588Y-62306483D01*
X121415424Y-62295641D01*
X121355383Y-62299274D01*
X121347896Y-62299500D01*
X121011697Y-62299500D01*
X120945987Y-62280658D01*
X120900246Y-62229858D01*
X120888376Y-62162541D01*
X120905460Y-62000000D01*
X120885674Y-61811744D01*
X120836687Y-61660978D01*
X120827179Y-61631715D01*
X120732533Y-61467783D01*
X120605870Y-61327110D01*
X120452730Y-61215848D01*
X120279802Y-61138855D01*
X120124871Y-61105924D01*
X120091484Y-61093607D01*
X120062971Y-61072315D01*
X119736819Y-60746162D01*
X119709939Y-60705934D01*
X119700500Y-60658481D01*
X119700500Y-59775000D01*
X120295000Y-59775000D01*
X120295000Y-60415639D01*
X120297900Y-60452493D01*
X120343717Y-60610197D01*
X120427317Y-60751557D01*
X120543442Y-60867682D01*
X120684799Y-60951280D01*
X120842511Y-60997099D01*
X120844999Y-60997295D01*
X120845000Y-60997295D01*
X120845000Y-59775000D01*
X120295000Y-59775000D01*
X119700500Y-59775000D01*
X119700500Y-59275000D01*
X120295000Y-59275000D01*
X120845000Y-59275000D01*
X120845000Y-58052705D01*
X120844999Y-58052704D01*
X120842511Y-58052900D01*
X120684799Y-58098719D01*
X120543442Y-58182317D01*
X120427317Y-58298442D01*
X120343717Y-58439802D01*
X120297900Y-58597506D01*
X120295000Y-58634361D01*
X120295000Y-59275000D01*
X119700500Y-59275000D01*
X119700500Y-58130534D01*
X119709939Y-58083081D01*
X119736816Y-58042855D01*
X119824281Y-57955391D01*
X119912549Y-57812287D01*
X119965436Y-57652685D01*
X119975500Y-57554174D01*
X119975500Y-57020826D01*
X119973372Y-57000000D01*
X119965436Y-56922314D01*
X119927349Y-56807377D01*
X119912549Y-56762713D01*
X119824281Y-56619609D01*
X119824280Y-56619608D01*
X119824279Y-56619606D01*
X119792354Y-56587682D01*
X119760259Y-56532094D01*
X119760259Y-56467906D01*
X119792354Y-56412318D01*
X119824279Y-56380393D01*
X119824278Y-56380393D01*
X119824281Y-56380391D01*
X119912549Y-56237287D01*
X119965436Y-56077685D01*
X119975500Y-55979174D01*
X119975500Y-55445826D01*
X119972962Y-55420981D01*
X119965436Y-55347314D01*
X119933783Y-55251793D01*
X119912549Y-55187713D01*
X119824281Y-55044609D01*
X119824280Y-55044608D01*
X119824279Y-55044606D01*
X119705393Y-54925720D01*
X119590065Y-54854585D01*
X119562287Y-54837451D01*
X119562286Y-54837450D01*
X119562285Y-54837450D01*
X119402685Y-54784563D01*
X119401895Y-54784483D01*
X119395834Y-54782293D01*
X119389794Y-54780292D01*
X119389847Y-54780130D01*
X119345358Y-54764059D01*
X119305071Y-54719445D01*
X119290500Y-54661125D01*
X119290500Y-54411985D01*
X119303288Y-54357141D01*
X119339014Y-54313609D01*
X119390309Y-54290368D01*
X119446594Y-54292210D01*
X119590000Y-54330636D01*
X119590000Y-53250000D01*
X119414500Y-53250000D01*
X119352500Y-53233387D01*
X119307113Y-53188000D01*
X119290500Y-53126000D01*
X119290500Y-52874000D01*
X119307113Y-52812000D01*
X119352500Y-52766613D01*
X119414500Y-52750000D01*
X119966000Y-52750000D01*
X120028000Y-52766613D01*
G37*
G04 #@! TD.AperFunction*
G04 #@! TA.AperFunction,Conductor*
G36*
X79388000Y-52766613D02*
G01*
X79433387Y-52812000D01*
X79450000Y-52874000D01*
X79450000Y-54330636D01*
X79663492Y-54273430D01*
X79877576Y-54173600D01*
X80071081Y-54038106D01*
X80238109Y-53871078D01*
X80368119Y-53685405D01*
X80412437Y-53646539D01*
X80469694Y-53632528D01*
X80526951Y-53646539D01*
X80571267Y-53685402D01*
X80701505Y-53871401D01*
X80868599Y-54038495D01*
X80923966Y-54077263D01*
X80962580Y-54121101D01*
X80976836Y-54177755D01*
X80963570Y-54234650D01*
X80925726Y-54279155D01*
X80894129Y-54302110D01*
X80767466Y-54442783D01*
X80672821Y-54606715D01*
X80668820Y-54619029D01*
X80641283Y-54665590D01*
X80596544Y-54695997D01*
X80592711Y-54697514D01*
X80557377Y-54723185D01*
X80547620Y-54729595D01*
X80510026Y-54751829D01*
X80495859Y-54765996D01*
X80481070Y-54778626D01*
X80464859Y-54790404D01*
X80437018Y-54824058D01*
X80429157Y-54832697D01*
X79611205Y-55650649D01*
X79559364Y-55681676D01*
X79499014Y-55684522D01*
X79444483Y-55658511D01*
X79408716Y-55609819D01*
X79400203Y-55550010D01*
X79405460Y-55500000D01*
X79385674Y-55311744D01*
X79345808Y-55189049D01*
X79327179Y-55131715D01*
X79232535Y-54967786D01*
X79209306Y-54941988D01*
X79157348Y-54884284D01*
X79133736Y-54845751D01*
X79126804Y-54808350D01*
X79126478Y-54808392D01*
X79125762Y-54802728D01*
X79125500Y-54801313D01*
X79125500Y-54800653D01*
X79124997Y-54796672D01*
X79124080Y-54785019D01*
X79124063Y-54784483D01*
X79122709Y-54741373D01*
X79117120Y-54722140D01*
X79113174Y-54703082D01*
X79110664Y-54683206D01*
X79094588Y-54642604D01*
X79090804Y-54631553D01*
X79079002Y-54590932D01*
X79078618Y-54589610D01*
X79068414Y-54572355D01*
X79059861Y-54554895D01*
X79052486Y-54536269D01*
X79052486Y-54536268D01*
X79026808Y-54500925D01*
X79020401Y-54491171D01*
X79013420Y-54479367D01*
X78998170Y-54453580D01*
X78986319Y-54441729D01*
X78959439Y-54401501D01*
X78950000Y-54354048D01*
X78950000Y-52874000D01*
X78966613Y-52812000D01*
X79012000Y-52766613D01*
X79074000Y-52750000D01*
X79326000Y-52750000D01*
X79388000Y-52766613D01*
G37*
G04 #@! TD.AperFunction*
G04 #@! TA.AperFunction,Conductor*
G36*
X125441602Y-54321013D02*
G01*
X125474232Y-54375311D01*
X125477877Y-54387854D01*
X125481825Y-54406916D01*
X125484335Y-54426792D01*
X125500414Y-54467404D01*
X125504197Y-54478451D01*
X125516382Y-54520391D01*
X125526580Y-54537635D01*
X125535136Y-54555100D01*
X125542514Y-54573732D01*
X125558367Y-54595553D01*
X125581033Y-54652598D01*
X125573561Y-54713525D01*
X125537782Y-54763404D01*
X125482463Y-54790010D01*
X125421162Y-54786823D01*
X125402198Y-54780914D01*
X125331617Y-54774500D01*
X125331616Y-54774500D01*
X124668384Y-54774500D01*
X124668383Y-54774500D01*
X124597806Y-54780913D01*
X124534458Y-54800653D01*
X124435394Y-54831522D01*
X124435392Y-54831522D01*
X124435392Y-54831523D01*
X124313666Y-54905109D01*
X124249516Y-54922992D01*
X124185366Y-54905109D01*
X124142638Y-54879279D01*
X124102657Y-54840488D01*
X124083692Y-54788109D01*
X124089571Y-54732713D01*
X124119104Y-54685484D01*
X124464353Y-54340235D01*
X124519939Y-54308143D01*
X124584126Y-54308143D01*
X124684592Y-54335063D01*
X124920000Y-54355659D01*
X125155408Y-54335063D01*
X125323068Y-54290138D01*
X125386412Y-54289917D01*
X125441602Y-54321013D01*
G37*
G04 #@! TD.AperFunction*
G04 #@! TA.AperFunction,Conductor*
G36*
X68480073Y-49018211D02*
G01*
X68525693Y-49066285D01*
X68540038Y-49130989D01*
X68519009Y-49193840D01*
X68468613Y-49236882D01*
X68362421Y-49286400D01*
X68168921Y-49421890D01*
X68001890Y-49588921D01*
X67866400Y-49782421D01*
X67766569Y-49996507D01*
X67709364Y-50209999D01*
X67709364Y-50210000D01*
X69166000Y-50210000D01*
X69228000Y-50226613D01*
X69273387Y-50272000D01*
X69290000Y-50334000D01*
X69290000Y-50586000D01*
X69273387Y-50648000D01*
X69228000Y-50693387D01*
X69166000Y-50710000D01*
X67709364Y-50710000D01*
X67766569Y-50923492D01*
X67866399Y-51137576D01*
X68008113Y-51339964D01*
X68005134Y-51342049D01*
X68026672Y-51379353D01*
X68026672Y-51443541D01*
X67994578Y-51499128D01*
X67481208Y-52012498D01*
X67465110Y-52025395D01*
X67417096Y-52076524D01*
X67414391Y-52079316D01*
X67394874Y-52098833D01*
X67392415Y-52102004D01*
X67384842Y-52110871D01*
X67354935Y-52142719D01*
X67345285Y-52160273D01*
X67334609Y-52176527D01*
X67322326Y-52192362D01*
X67304975Y-52232457D01*
X67299838Y-52242943D01*
X67278802Y-52281206D01*
X67273821Y-52300608D01*
X67267520Y-52319010D01*
X67259561Y-52337401D01*
X67252728Y-52380541D01*
X67250361Y-52391970D01*
X67244606Y-52414390D01*
X67216654Y-52466527D01*
X67167728Y-52499781D01*
X67108962Y-52506583D01*
X67053734Y-52485384D01*
X67014611Y-52441010D01*
X67000500Y-52383560D01*
X67000500Y-49124500D01*
X67017113Y-49062500D01*
X67062500Y-49017113D01*
X67124500Y-49000500D01*
X68416208Y-49000500D01*
X68480073Y-49018211D01*
G37*
G04 #@! TD.AperFunction*
G04 #@! TA.AperFunction,Conductor*
G36*
X105927562Y-51106539D02*
G01*
X105971880Y-51145404D01*
X106101893Y-51331081D01*
X106268918Y-51498106D01*
X106454595Y-51628119D01*
X106493460Y-51672437D01*
X106507471Y-51729694D01*
X106493460Y-51786951D01*
X106454595Y-51831269D01*
X106268595Y-51961508D01*
X106101508Y-52128595D01*
X106101505Y-52128598D01*
X106101505Y-52128599D01*
X106091620Y-52142717D01*
X105971269Y-52314596D01*
X105926951Y-52353461D01*
X105869694Y-52367472D01*
X105812437Y-52353461D01*
X105768119Y-52314595D01*
X105638109Y-52128921D01*
X105471081Y-51961893D01*
X105285404Y-51831880D01*
X105246539Y-51787562D01*
X105232528Y-51730305D01*
X105246539Y-51673048D01*
X105285402Y-51628732D01*
X105471401Y-51498495D01*
X105638495Y-51331401D01*
X105768732Y-51145402D01*
X105813048Y-51106539D01*
X105870305Y-51092528D01*
X105927562Y-51106539D01*
G37*
G04 #@! TD.AperFunction*
G04 #@! TA.AperFunction,Conductor*
G36*
X93227562Y-51106539D02*
G01*
X93271880Y-51145404D01*
X93401893Y-51331081D01*
X93568918Y-51498106D01*
X93754595Y-51628119D01*
X93793460Y-51672437D01*
X93807471Y-51729694D01*
X93793460Y-51786951D01*
X93754595Y-51831269D01*
X93568595Y-51961508D01*
X93401508Y-52128595D01*
X93401505Y-52128598D01*
X93401505Y-52128599D01*
X93391620Y-52142717D01*
X93271269Y-52314596D01*
X93226951Y-52353461D01*
X93169694Y-52367472D01*
X93112437Y-52353461D01*
X93068119Y-52314595D01*
X92938109Y-52128921D01*
X92771081Y-51961893D01*
X92585404Y-51831880D01*
X92546539Y-51787562D01*
X92532528Y-51730305D01*
X92546539Y-51673048D01*
X92585402Y-51628732D01*
X92771401Y-51498495D01*
X92938495Y-51331401D01*
X93068732Y-51145402D01*
X93113048Y-51106539D01*
X93170305Y-51092528D01*
X93227562Y-51106539D01*
G37*
G04 #@! TD.AperFunction*
G04 #@! TA.AperFunction,Conductor*
G36*
X80527562Y-51106539D02*
G01*
X80571880Y-51145404D01*
X80701893Y-51331081D01*
X80868918Y-51498106D01*
X81054595Y-51628119D01*
X81093460Y-51672437D01*
X81107471Y-51729694D01*
X81093460Y-51786951D01*
X81054595Y-51831269D01*
X80868595Y-51961508D01*
X80701508Y-52128595D01*
X80701505Y-52128598D01*
X80701505Y-52128599D01*
X80691620Y-52142717D01*
X80571269Y-52314596D01*
X80526951Y-52353461D01*
X80469694Y-52367472D01*
X80412437Y-52353461D01*
X80368119Y-52314595D01*
X80238109Y-52128921D01*
X80071081Y-51961893D01*
X79885404Y-51831880D01*
X79846539Y-51787562D01*
X79832528Y-51730305D01*
X79846539Y-51673048D01*
X79885402Y-51628732D01*
X80071401Y-51498495D01*
X80238495Y-51331401D01*
X80368732Y-51145402D01*
X80413048Y-51106539D01*
X80470305Y-51092528D01*
X80527562Y-51106539D01*
G37*
G04 #@! TD.AperFunction*
G04 #@! TD*
M02*
