G04 #@! TF.GenerationSoftware,KiCad,Pcbnew,7.0.1*
G04 #@! TF.CreationDate,2023-03-18T02:09:20+02:00*
G04 #@! TF.ProjectId,connector-pcb,636f6e6e-6563-4746-9f72-2d7063622e6b,rev?*
G04 #@! TF.SameCoordinates,Original*
G04 #@! TF.FileFunction,Legend,Top*
G04 #@! TF.FilePolarity,Positive*
%FSLAX46Y46*%
G04 Gerber Fmt 4.6, Leading zero omitted, Abs format (unit mm)*
G04 Created by KiCad (PCBNEW 7.0.1) date 2023-03-18 02:09:20*
%MOMM*%
%LPD*%
G01*
G04 APERTURE LIST*
%ADD10C,0.150000*%
%ADD11C,0.300000*%
%ADD12C,0.120000*%
G04 APERTURE END LIST*
D10*
X67238095Y-77877619D02*
X67238095Y-76877619D01*
X67238095Y-76877619D02*
X67476190Y-76877619D01*
X67476190Y-76877619D02*
X67619047Y-76925238D01*
X67619047Y-76925238D02*
X67714285Y-77020476D01*
X67714285Y-77020476D02*
X67761904Y-77115714D01*
X67761904Y-77115714D02*
X67809523Y-77306190D01*
X67809523Y-77306190D02*
X67809523Y-77449047D01*
X67809523Y-77449047D02*
X67761904Y-77639523D01*
X67761904Y-77639523D02*
X67714285Y-77734761D01*
X67714285Y-77734761D02*
X67619047Y-77830000D01*
X67619047Y-77830000D02*
X67476190Y-77877619D01*
X67476190Y-77877619D02*
X67238095Y-77877619D01*
X68142857Y-76877619D02*
X68809523Y-76877619D01*
X68809523Y-76877619D02*
X68380952Y-77877619D01*
D11*
X79757142Y-72416428D02*
X79757142Y-70916428D01*
X79757142Y-70916428D02*
X80257142Y-71987857D01*
X80257142Y-71987857D02*
X80757142Y-70916428D01*
X80757142Y-70916428D02*
X80757142Y-72416428D01*
X81400000Y-72345000D02*
X81614286Y-72416428D01*
X81614286Y-72416428D02*
X81971428Y-72416428D01*
X81971428Y-72416428D02*
X82114286Y-72345000D01*
X82114286Y-72345000D02*
X82185714Y-72273571D01*
X82185714Y-72273571D02*
X82257143Y-72130714D01*
X82257143Y-72130714D02*
X82257143Y-71987857D01*
X82257143Y-71987857D02*
X82185714Y-71845000D01*
X82185714Y-71845000D02*
X82114286Y-71773571D01*
X82114286Y-71773571D02*
X81971428Y-71702142D01*
X81971428Y-71702142D02*
X81685714Y-71630714D01*
X81685714Y-71630714D02*
X81542857Y-71559285D01*
X81542857Y-71559285D02*
X81471428Y-71487857D01*
X81471428Y-71487857D02*
X81400000Y-71345000D01*
X81400000Y-71345000D02*
X81400000Y-71202142D01*
X81400000Y-71202142D02*
X81471428Y-71059285D01*
X81471428Y-71059285D02*
X81542857Y-70987857D01*
X81542857Y-70987857D02*
X81685714Y-70916428D01*
X81685714Y-70916428D02*
X82042857Y-70916428D01*
X82042857Y-70916428D02*
X82257143Y-70987857D01*
X83185714Y-70916428D02*
X83471428Y-70916428D01*
X83471428Y-70916428D02*
X83614285Y-70987857D01*
X83614285Y-70987857D02*
X83757142Y-71130714D01*
X83757142Y-71130714D02*
X83828571Y-71416428D01*
X83828571Y-71416428D02*
X83828571Y-71916428D01*
X83828571Y-71916428D02*
X83757142Y-72202142D01*
X83757142Y-72202142D02*
X83614285Y-72345000D01*
X83614285Y-72345000D02*
X83471428Y-72416428D01*
X83471428Y-72416428D02*
X83185714Y-72416428D01*
X83185714Y-72416428D02*
X83042857Y-72345000D01*
X83042857Y-72345000D02*
X82899999Y-72202142D01*
X82899999Y-72202142D02*
X82828571Y-71916428D01*
X82828571Y-71916428D02*
X82828571Y-71416428D01*
X82828571Y-71416428D02*
X82899999Y-71130714D01*
X82899999Y-71130714D02*
X83042857Y-70987857D01*
X83042857Y-70987857D02*
X83185714Y-70916428D01*
X85185714Y-70916428D02*
X84471428Y-70916428D01*
X84471428Y-70916428D02*
X84400000Y-71630714D01*
X84400000Y-71630714D02*
X84471428Y-71559285D01*
X84471428Y-71559285D02*
X84614286Y-71487857D01*
X84614286Y-71487857D02*
X84971428Y-71487857D01*
X84971428Y-71487857D02*
X85114286Y-71559285D01*
X85114286Y-71559285D02*
X85185714Y-71630714D01*
X85185714Y-71630714D02*
X85257143Y-71773571D01*
X85257143Y-71773571D02*
X85257143Y-72130714D01*
X85257143Y-72130714D02*
X85185714Y-72273571D01*
X85185714Y-72273571D02*
X85114286Y-72345000D01*
X85114286Y-72345000D02*
X84971428Y-72416428D01*
X84971428Y-72416428D02*
X84614286Y-72416428D01*
X84614286Y-72416428D02*
X84471428Y-72345000D01*
X84471428Y-72345000D02*
X84400000Y-72273571D01*
X86185714Y-70916428D02*
X86328571Y-70916428D01*
X86328571Y-70916428D02*
X86471428Y-70987857D01*
X86471428Y-70987857D02*
X86542857Y-71059285D01*
X86542857Y-71059285D02*
X86614285Y-71202142D01*
X86614285Y-71202142D02*
X86685714Y-71487857D01*
X86685714Y-71487857D02*
X86685714Y-71845000D01*
X86685714Y-71845000D02*
X86614285Y-72130714D01*
X86614285Y-72130714D02*
X86542857Y-72273571D01*
X86542857Y-72273571D02*
X86471428Y-72345000D01*
X86471428Y-72345000D02*
X86328571Y-72416428D01*
X86328571Y-72416428D02*
X86185714Y-72416428D01*
X86185714Y-72416428D02*
X86042857Y-72345000D01*
X86042857Y-72345000D02*
X85971428Y-72273571D01*
X85971428Y-72273571D02*
X85899999Y-72130714D01*
X85899999Y-72130714D02*
X85828571Y-71845000D01*
X85828571Y-71845000D02*
X85828571Y-71487857D01*
X85828571Y-71487857D02*
X85899999Y-71202142D01*
X85899999Y-71202142D02*
X85971428Y-71059285D01*
X85971428Y-71059285D02*
X86042857Y-70987857D01*
X86042857Y-70987857D02*
X86185714Y-70916428D01*
X87614285Y-70916428D02*
X87757142Y-70916428D01*
X87757142Y-70916428D02*
X87899999Y-70987857D01*
X87899999Y-70987857D02*
X87971428Y-71059285D01*
X87971428Y-71059285D02*
X88042856Y-71202142D01*
X88042856Y-71202142D02*
X88114285Y-71487857D01*
X88114285Y-71487857D02*
X88114285Y-71845000D01*
X88114285Y-71845000D02*
X88042856Y-72130714D01*
X88042856Y-72130714D02*
X87971428Y-72273571D01*
X87971428Y-72273571D02*
X87899999Y-72345000D01*
X87899999Y-72345000D02*
X87757142Y-72416428D01*
X87757142Y-72416428D02*
X87614285Y-72416428D01*
X87614285Y-72416428D02*
X87471428Y-72345000D01*
X87471428Y-72345000D02*
X87399999Y-72273571D01*
X87399999Y-72273571D02*
X87328570Y-72130714D01*
X87328570Y-72130714D02*
X87257142Y-71845000D01*
X87257142Y-71845000D02*
X87257142Y-71487857D01*
X87257142Y-71487857D02*
X87328570Y-71202142D01*
X87328570Y-71202142D02*
X87399999Y-71059285D01*
X87399999Y-71059285D02*
X87471428Y-70987857D01*
X87471428Y-70987857D02*
X87614285Y-70916428D01*
X89042856Y-70916428D02*
X89185713Y-70916428D01*
X89185713Y-70916428D02*
X89328570Y-70987857D01*
X89328570Y-70987857D02*
X89399999Y-71059285D01*
X89399999Y-71059285D02*
X89471427Y-71202142D01*
X89471427Y-71202142D02*
X89542856Y-71487857D01*
X89542856Y-71487857D02*
X89542856Y-71845000D01*
X89542856Y-71845000D02*
X89471427Y-72130714D01*
X89471427Y-72130714D02*
X89399999Y-72273571D01*
X89399999Y-72273571D02*
X89328570Y-72345000D01*
X89328570Y-72345000D02*
X89185713Y-72416428D01*
X89185713Y-72416428D02*
X89042856Y-72416428D01*
X89042856Y-72416428D02*
X88899999Y-72345000D01*
X88899999Y-72345000D02*
X88828570Y-72273571D01*
X88828570Y-72273571D02*
X88757141Y-72130714D01*
X88757141Y-72130714D02*
X88685713Y-71845000D01*
X88685713Y-71845000D02*
X88685713Y-71487857D01*
X88685713Y-71487857D02*
X88757141Y-71202142D01*
X88757141Y-71202142D02*
X88828570Y-71059285D01*
X88828570Y-71059285D02*
X88899999Y-70987857D01*
X88899999Y-70987857D02*
X89042856Y-70916428D01*
X91542855Y-72416428D02*
X91399998Y-72345000D01*
X91399998Y-72345000D02*
X91328569Y-72202142D01*
X91328569Y-72202142D02*
X91328569Y-70916428D01*
X92328569Y-72416428D02*
X92185712Y-72345000D01*
X92185712Y-72345000D02*
X92114283Y-72273571D01*
X92114283Y-72273571D02*
X92042855Y-72130714D01*
X92042855Y-72130714D02*
X92042855Y-71702142D01*
X92042855Y-71702142D02*
X92114283Y-71559285D01*
X92114283Y-71559285D02*
X92185712Y-71487857D01*
X92185712Y-71487857D02*
X92328569Y-71416428D01*
X92328569Y-71416428D02*
X92542855Y-71416428D01*
X92542855Y-71416428D02*
X92685712Y-71487857D01*
X92685712Y-71487857D02*
X92757141Y-71559285D01*
X92757141Y-71559285D02*
X92828569Y-71702142D01*
X92828569Y-71702142D02*
X92828569Y-72130714D01*
X92828569Y-72130714D02*
X92757141Y-72273571D01*
X92757141Y-72273571D02*
X92685712Y-72345000D01*
X92685712Y-72345000D02*
X92542855Y-72416428D01*
X92542855Y-72416428D02*
X92328569Y-72416428D01*
X94114284Y-71416428D02*
X94114284Y-72630714D01*
X94114284Y-72630714D02*
X94042855Y-72773571D01*
X94042855Y-72773571D02*
X93971426Y-72845000D01*
X93971426Y-72845000D02*
X93828569Y-72916428D01*
X93828569Y-72916428D02*
X93614284Y-72916428D01*
X93614284Y-72916428D02*
X93471426Y-72845000D01*
X94114284Y-72345000D02*
X93971426Y-72416428D01*
X93971426Y-72416428D02*
X93685712Y-72416428D01*
X93685712Y-72416428D02*
X93542855Y-72345000D01*
X93542855Y-72345000D02*
X93471426Y-72273571D01*
X93471426Y-72273571D02*
X93399998Y-72130714D01*
X93399998Y-72130714D02*
X93399998Y-71702142D01*
X93399998Y-71702142D02*
X93471426Y-71559285D01*
X93471426Y-71559285D02*
X93542855Y-71487857D01*
X93542855Y-71487857D02*
X93685712Y-71416428D01*
X93685712Y-71416428D02*
X93971426Y-71416428D01*
X93971426Y-71416428D02*
X94114284Y-71487857D01*
X94828569Y-72416428D02*
X94828569Y-71416428D01*
X94828569Y-70916428D02*
X94757141Y-70987857D01*
X94757141Y-70987857D02*
X94828569Y-71059285D01*
X94828569Y-71059285D02*
X94899998Y-70987857D01*
X94899998Y-70987857D02*
X94828569Y-70916428D01*
X94828569Y-70916428D02*
X94828569Y-71059285D01*
X96185713Y-72345000D02*
X96042855Y-72416428D01*
X96042855Y-72416428D02*
X95757141Y-72416428D01*
X95757141Y-72416428D02*
X95614284Y-72345000D01*
X95614284Y-72345000D02*
X95542855Y-72273571D01*
X95542855Y-72273571D02*
X95471427Y-72130714D01*
X95471427Y-72130714D02*
X95471427Y-71702142D01*
X95471427Y-71702142D02*
X95542855Y-71559285D01*
X95542855Y-71559285D02*
X95614284Y-71487857D01*
X95614284Y-71487857D02*
X95757141Y-71416428D01*
X95757141Y-71416428D02*
X96042855Y-71416428D01*
X96042855Y-71416428D02*
X96185713Y-71487857D01*
X97971426Y-71416428D02*
X97971426Y-72916428D01*
X97971426Y-71487857D02*
X98114284Y-71416428D01*
X98114284Y-71416428D02*
X98399998Y-71416428D01*
X98399998Y-71416428D02*
X98542855Y-71487857D01*
X98542855Y-71487857D02*
X98614284Y-71559285D01*
X98614284Y-71559285D02*
X98685712Y-71702142D01*
X98685712Y-71702142D02*
X98685712Y-72130714D01*
X98685712Y-72130714D02*
X98614284Y-72273571D01*
X98614284Y-72273571D02*
X98542855Y-72345000D01*
X98542855Y-72345000D02*
X98399998Y-72416428D01*
X98399998Y-72416428D02*
X98114284Y-72416428D01*
X98114284Y-72416428D02*
X97971426Y-72345000D01*
X99328569Y-72416428D02*
X99328569Y-71416428D01*
X99328569Y-71702142D02*
X99399998Y-71559285D01*
X99399998Y-71559285D02*
X99471427Y-71487857D01*
X99471427Y-71487857D02*
X99614284Y-71416428D01*
X99614284Y-71416428D02*
X99757141Y-71416428D01*
X100471426Y-72416428D02*
X100328569Y-72345000D01*
X100328569Y-72345000D02*
X100257140Y-72273571D01*
X100257140Y-72273571D02*
X100185712Y-72130714D01*
X100185712Y-72130714D02*
X100185712Y-71702142D01*
X100185712Y-71702142D02*
X100257140Y-71559285D01*
X100257140Y-71559285D02*
X100328569Y-71487857D01*
X100328569Y-71487857D02*
X100471426Y-71416428D01*
X100471426Y-71416428D02*
X100685712Y-71416428D01*
X100685712Y-71416428D02*
X100828569Y-71487857D01*
X100828569Y-71487857D02*
X100899998Y-71559285D01*
X100899998Y-71559285D02*
X100971426Y-71702142D01*
X100971426Y-71702142D02*
X100971426Y-72130714D01*
X100971426Y-72130714D02*
X100899998Y-72273571D01*
X100899998Y-72273571D02*
X100828569Y-72345000D01*
X100828569Y-72345000D02*
X100685712Y-72416428D01*
X100685712Y-72416428D02*
X100471426Y-72416428D01*
X101614283Y-72416428D02*
X101614283Y-70916428D01*
X101614283Y-71487857D02*
X101757141Y-71416428D01*
X101757141Y-71416428D02*
X102042855Y-71416428D01*
X102042855Y-71416428D02*
X102185712Y-71487857D01*
X102185712Y-71487857D02*
X102257141Y-71559285D01*
X102257141Y-71559285D02*
X102328569Y-71702142D01*
X102328569Y-71702142D02*
X102328569Y-72130714D01*
X102328569Y-72130714D02*
X102257141Y-72273571D01*
X102257141Y-72273571D02*
X102185712Y-72345000D01*
X102185712Y-72345000D02*
X102042855Y-72416428D01*
X102042855Y-72416428D02*
X101757141Y-72416428D01*
X101757141Y-72416428D02*
X101614283Y-72345000D01*
X103542855Y-72345000D02*
X103399998Y-72416428D01*
X103399998Y-72416428D02*
X103114284Y-72416428D01*
X103114284Y-72416428D02*
X102971426Y-72345000D01*
X102971426Y-72345000D02*
X102899998Y-72202142D01*
X102899998Y-72202142D02*
X102899998Y-71630714D01*
X102899998Y-71630714D02*
X102971426Y-71487857D01*
X102971426Y-71487857D02*
X103114284Y-71416428D01*
X103114284Y-71416428D02*
X103399998Y-71416428D01*
X103399998Y-71416428D02*
X103542855Y-71487857D01*
X103542855Y-71487857D02*
X103614284Y-71630714D01*
X103614284Y-71630714D02*
X103614284Y-71773571D01*
X103614284Y-71773571D02*
X102899998Y-71916428D01*
X106042855Y-72345000D02*
X105899997Y-72416428D01*
X105899997Y-72416428D02*
X105614283Y-72416428D01*
X105614283Y-72416428D02*
X105471426Y-72345000D01*
X105471426Y-72345000D02*
X105399997Y-72273571D01*
X105399997Y-72273571D02*
X105328569Y-72130714D01*
X105328569Y-72130714D02*
X105328569Y-71702142D01*
X105328569Y-71702142D02*
X105399997Y-71559285D01*
X105399997Y-71559285D02*
X105471426Y-71487857D01*
X105471426Y-71487857D02*
X105614283Y-71416428D01*
X105614283Y-71416428D02*
X105899997Y-71416428D01*
X105899997Y-71416428D02*
X106042855Y-71487857D01*
X106899997Y-72416428D02*
X106757140Y-72345000D01*
X106757140Y-72345000D02*
X106685711Y-72273571D01*
X106685711Y-72273571D02*
X106614283Y-72130714D01*
X106614283Y-72130714D02*
X106614283Y-71702142D01*
X106614283Y-71702142D02*
X106685711Y-71559285D01*
X106685711Y-71559285D02*
X106757140Y-71487857D01*
X106757140Y-71487857D02*
X106899997Y-71416428D01*
X106899997Y-71416428D02*
X107114283Y-71416428D01*
X107114283Y-71416428D02*
X107257140Y-71487857D01*
X107257140Y-71487857D02*
X107328569Y-71559285D01*
X107328569Y-71559285D02*
X107399997Y-71702142D01*
X107399997Y-71702142D02*
X107399997Y-72130714D01*
X107399997Y-72130714D02*
X107328569Y-72273571D01*
X107328569Y-72273571D02*
X107257140Y-72345000D01*
X107257140Y-72345000D02*
X107114283Y-72416428D01*
X107114283Y-72416428D02*
X106899997Y-72416428D01*
X108042854Y-71416428D02*
X108042854Y-72416428D01*
X108042854Y-71559285D02*
X108114283Y-71487857D01*
X108114283Y-71487857D02*
X108257140Y-71416428D01*
X108257140Y-71416428D02*
X108471426Y-71416428D01*
X108471426Y-71416428D02*
X108614283Y-71487857D01*
X108614283Y-71487857D02*
X108685712Y-71630714D01*
X108685712Y-71630714D02*
X108685712Y-72416428D01*
X109399997Y-71416428D02*
X109399997Y-72416428D01*
X109399997Y-71559285D02*
X109471426Y-71487857D01*
X109471426Y-71487857D02*
X109614283Y-71416428D01*
X109614283Y-71416428D02*
X109828569Y-71416428D01*
X109828569Y-71416428D02*
X109971426Y-71487857D01*
X109971426Y-71487857D02*
X110042855Y-71630714D01*
X110042855Y-71630714D02*
X110042855Y-72416428D01*
X111328569Y-72345000D02*
X111185712Y-72416428D01*
X111185712Y-72416428D02*
X110899998Y-72416428D01*
X110899998Y-72416428D02*
X110757140Y-72345000D01*
X110757140Y-72345000D02*
X110685712Y-72202142D01*
X110685712Y-72202142D02*
X110685712Y-71630714D01*
X110685712Y-71630714D02*
X110757140Y-71487857D01*
X110757140Y-71487857D02*
X110899998Y-71416428D01*
X110899998Y-71416428D02*
X111185712Y-71416428D01*
X111185712Y-71416428D02*
X111328569Y-71487857D01*
X111328569Y-71487857D02*
X111399998Y-71630714D01*
X111399998Y-71630714D02*
X111399998Y-71773571D01*
X111399998Y-71773571D02*
X110685712Y-71916428D01*
X112685712Y-72345000D02*
X112542854Y-72416428D01*
X112542854Y-72416428D02*
X112257140Y-72416428D01*
X112257140Y-72416428D02*
X112114283Y-72345000D01*
X112114283Y-72345000D02*
X112042854Y-72273571D01*
X112042854Y-72273571D02*
X111971426Y-72130714D01*
X111971426Y-72130714D02*
X111971426Y-71702142D01*
X111971426Y-71702142D02*
X112042854Y-71559285D01*
X112042854Y-71559285D02*
X112114283Y-71487857D01*
X112114283Y-71487857D02*
X112257140Y-71416428D01*
X112257140Y-71416428D02*
X112542854Y-71416428D01*
X112542854Y-71416428D02*
X112685712Y-71487857D01*
X113114283Y-71416428D02*
X113685711Y-71416428D01*
X113328568Y-70916428D02*
X113328568Y-72202142D01*
X113328568Y-72202142D02*
X113399997Y-72345000D01*
X113399997Y-72345000D02*
X113542854Y-72416428D01*
X113542854Y-72416428D02*
X113685711Y-72416428D01*
X114399997Y-72416428D02*
X114257140Y-72345000D01*
X114257140Y-72345000D02*
X114185711Y-72273571D01*
X114185711Y-72273571D02*
X114114283Y-72130714D01*
X114114283Y-72130714D02*
X114114283Y-71702142D01*
X114114283Y-71702142D02*
X114185711Y-71559285D01*
X114185711Y-71559285D02*
X114257140Y-71487857D01*
X114257140Y-71487857D02*
X114399997Y-71416428D01*
X114399997Y-71416428D02*
X114614283Y-71416428D01*
X114614283Y-71416428D02*
X114757140Y-71487857D01*
X114757140Y-71487857D02*
X114828569Y-71559285D01*
X114828569Y-71559285D02*
X114899997Y-71702142D01*
X114899997Y-71702142D02*
X114899997Y-72130714D01*
X114899997Y-72130714D02*
X114828569Y-72273571D01*
X114828569Y-72273571D02*
X114757140Y-72345000D01*
X114757140Y-72345000D02*
X114614283Y-72416428D01*
X114614283Y-72416428D02*
X114399997Y-72416428D01*
X115542854Y-72416428D02*
X115542854Y-71416428D01*
X115542854Y-71702142D02*
X115614283Y-71559285D01*
X115614283Y-71559285D02*
X115685712Y-71487857D01*
X115685712Y-71487857D02*
X115828569Y-71416428D01*
X115828569Y-71416428D02*
X115971426Y-71416428D01*
X117614282Y-72416428D02*
X117614282Y-71416428D01*
X117614282Y-71702142D02*
X117685711Y-71559285D01*
X117685711Y-71559285D02*
X117757140Y-71487857D01*
X117757140Y-71487857D02*
X117899997Y-71416428D01*
X117899997Y-71416428D02*
X118042854Y-71416428D01*
X118828568Y-70916428D02*
X118971425Y-70916428D01*
X118971425Y-70916428D02*
X119114282Y-70987857D01*
X119114282Y-70987857D02*
X119185711Y-71059285D01*
X119185711Y-71059285D02*
X119257139Y-71202142D01*
X119257139Y-71202142D02*
X119328568Y-71487857D01*
X119328568Y-71487857D02*
X119328568Y-71845000D01*
X119328568Y-71845000D02*
X119257139Y-72130714D01*
X119257139Y-72130714D02*
X119185711Y-72273571D01*
X119185711Y-72273571D02*
X119114282Y-72345000D01*
X119114282Y-72345000D02*
X118971425Y-72416428D01*
X118971425Y-72416428D02*
X118828568Y-72416428D01*
X118828568Y-72416428D02*
X118685711Y-72345000D01*
X118685711Y-72345000D02*
X118614282Y-72273571D01*
X118614282Y-72273571D02*
X118542853Y-72130714D01*
X118542853Y-72130714D02*
X118471425Y-71845000D01*
X118471425Y-71845000D02*
X118471425Y-71487857D01*
X118471425Y-71487857D02*
X118542853Y-71202142D01*
X118542853Y-71202142D02*
X118614282Y-71059285D01*
X118614282Y-71059285D02*
X118685711Y-70987857D01*
X118685711Y-70987857D02*
X118828568Y-70916428D01*
D10*
X130238095Y-77877619D02*
X130238095Y-76877619D01*
X130238095Y-76877619D02*
X130476190Y-76877619D01*
X130476190Y-76877619D02*
X130619047Y-76925238D01*
X130619047Y-76925238D02*
X130714285Y-77020476D01*
X130714285Y-77020476D02*
X130761904Y-77115714D01*
X130761904Y-77115714D02*
X130809523Y-77306190D01*
X130809523Y-77306190D02*
X130809523Y-77449047D01*
X130809523Y-77449047D02*
X130761904Y-77639523D01*
X130761904Y-77639523D02*
X130714285Y-77734761D01*
X130714285Y-77734761D02*
X130619047Y-77830000D01*
X130619047Y-77830000D02*
X130476190Y-77877619D01*
X130476190Y-77877619D02*
X130238095Y-77877619D01*
X131380952Y-77306190D02*
X131285714Y-77258571D01*
X131285714Y-77258571D02*
X131238095Y-77210952D01*
X131238095Y-77210952D02*
X131190476Y-77115714D01*
X131190476Y-77115714D02*
X131190476Y-77068095D01*
X131190476Y-77068095D02*
X131238095Y-76972857D01*
X131238095Y-76972857D02*
X131285714Y-76925238D01*
X131285714Y-76925238D02*
X131380952Y-76877619D01*
X131380952Y-76877619D02*
X131571428Y-76877619D01*
X131571428Y-76877619D02*
X131666666Y-76925238D01*
X131666666Y-76925238D02*
X131714285Y-76972857D01*
X131714285Y-76972857D02*
X131761904Y-77068095D01*
X131761904Y-77068095D02*
X131761904Y-77115714D01*
X131761904Y-77115714D02*
X131714285Y-77210952D01*
X131714285Y-77210952D02*
X131666666Y-77258571D01*
X131666666Y-77258571D02*
X131571428Y-77306190D01*
X131571428Y-77306190D02*
X131380952Y-77306190D01*
X131380952Y-77306190D02*
X131285714Y-77353809D01*
X131285714Y-77353809D02*
X131238095Y-77401428D01*
X131238095Y-77401428D02*
X131190476Y-77496666D01*
X131190476Y-77496666D02*
X131190476Y-77687142D01*
X131190476Y-77687142D02*
X131238095Y-77782380D01*
X131238095Y-77782380D02*
X131285714Y-77830000D01*
X131285714Y-77830000D02*
X131380952Y-77877619D01*
X131380952Y-77877619D02*
X131571428Y-77877619D01*
X131571428Y-77877619D02*
X131666666Y-77830000D01*
X131666666Y-77830000D02*
X131714285Y-77782380D01*
X131714285Y-77782380D02*
X131761904Y-77687142D01*
X131761904Y-77687142D02*
X131761904Y-77496666D01*
X131761904Y-77496666D02*
X131714285Y-77401428D01*
X131714285Y-77401428D02*
X131666666Y-77353809D01*
X131666666Y-77353809D02*
X131571428Y-77306190D01*
X107238095Y-77877619D02*
X107238095Y-76877619D01*
X107238095Y-76877619D02*
X107476190Y-76877619D01*
X107476190Y-76877619D02*
X107619047Y-76925238D01*
X107619047Y-76925238D02*
X107714285Y-77020476D01*
X107714285Y-77020476D02*
X107761904Y-77115714D01*
X107761904Y-77115714D02*
X107809523Y-77306190D01*
X107809523Y-77306190D02*
X107809523Y-77449047D01*
X107809523Y-77449047D02*
X107761904Y-77639523D01*
X107761904Y-77639523D02*
X107714285Y-77734761D01*
X107714285Y-77734761D02*
X107619047Y-77830000D01*
X107619047Y-77830000D02*
X107476190Y-77877619D01*
X107476190Y-77877619D02*
X107238095Y-77877619D01*
X108761904Y-77877619D02*
X108190476Y-77877619D01*
X108476190Y-77877619D02*
X108476190Y-76877619D01*
X108476190Y-76877619D02*
X108380952Y-77020476D01*
X108380952Y-77020476D02*
X108285714Y-77115714D01*
X108285714Y-77115714D02*
X108190476Y-77163333D01*
X109666666Y-76877619D02*
X109190476Y-76877619D01*
X109190476Y-76877619D02*
X109142857Y-77353809D01*
X109142857Y-77353809D02*
X109190476Y-77306190D01*
X109190476Y-77306190D02*
X109285714Y-77258571D01*
X109285714Y-77258571D02*
X109523809Y-77258571D01*
X109523809Y-77258571D02*
X109619047Y-77306190D01*
X109619047Y-77306190D02*
X109666666Y-77353809D01*
X109666666Y-77353809D02*
X109714285Y-77449047D01*
X109714285Y-77449047D02*
X109714285Y-77687142D01*
X109714285Y-77687142D02*
X109666666Y-77782380D01*
X109666666Y-77782380D02*
X109619047Y-77830000D01*
X109619047Y-77830000D02*
X109523809Y-77877619D01*
X109523809Y-77877619D02*
X109285714Y-77877619D01*
X109285714Y-77877619D02*
X109190476Y-77830000D01*
X109190476Y-77830000D02*
X109142857Y-77782380D01*
X90238095Y-77877619D02*
X90238095Y-76877619D01*
X90238095Y-76877619D02*
X90476190Y-76877619D01*
X90476190Y-76877619D02*
X90619047Y-76925238D01*
X90619047Y-76925238D02*
X90714285Y-77020476D01*
X90714285Y-77020476D02*
X90761904Y-77115714D01*
X90761904Y-77115714D02*
X90809523Y-77306190D01*
X90809523Y-77306190D02*
X90809523Y-77449047D01*
X90809523Y-77449047D02*
X90761904Y-77639523D01*
X90761904Y-77639523D02*
X90714285Y-77734761D01*
X90714285Y-77734761D02*
X90619047Y-77830000D01*
X90619047Y-77830000D02*
X90476190Y-77877619D01*
X90476190Y-77877619D02*
X90238095Y-77877619D01*
X91428571Y-76877619D02*
X91523809Y-76877619D01*
X91523809Y-76877619D02*
X91619047Y-76925238D01*
X91619047Y-76925238D02*
X91666666Y-76972857D01*
X91666666Y-76972857D02*
X91714285Y-77068095D01*
X91714285Y-77068095D02*
X91761904Y-77258571D01*
X91761904Y-77258571D02*
X91761904Y-77496666D01*
X91761904Y-77496666D02*
X91714285Y-77687142D01*
X91714285Y-77687142D02*
X91666666Y-77782380D01*
X91666666Y-77782380D02*
X91619047Y-77830000D01*
X91619047Y-77830000D02*
X91523809Y-77877619D01*
X91523809Y-77877619D02*
X91428571Y-77877619D01*
X91428571Y-77877619D02*
X91333333Y-77830000D01*
X91333333Y-77830000D02*
X91285714Y-77782380D01*
X91285714Y-77782380D02*
X91238095Y-77687142D01*
X91238095Y-77687142D02*
X91190476Y-77496666D01*
X91190476Y-77496666D02*
X91190476Y-77258571D01*
X91190476Y-77258571D02*
X91238095Y-77068095D01*
X91238095Y-77068095D02*
X91285714Y-76972857D01*
X91285714Y-76972857D02*
X91333333Y-76925238D01*
X91333333Y-76925238D02*
X91428571Y-76877619D01*
G04 #@! TO.C,D2*
X121323833Y-71016666D02*
X120623833Y-71016666D01*
X120623833Y-71016666D02*
X120623833Y-70849999D01*
X120623833Y-70849999D02*
X120657166Y-70749999D01*
X120657166Y-70749999D02*
X120723833Y-70683333D01*
X120723833Y-70683333D02*
X120790500Y-70649999D01*
X120790500Y-70649999D02*
X120923833Y-70616666D01*
X120923833Y-70616666D02*
X121023833Y-70616666D01*
X121023833Y-70616666D02*
X121157166Y-70649999D01*
X121157166Y-70649999D02*
X121223833Y-70683333D01*
X121223833Y-70683333D02*
X121290500Y-70749999D01*
X121290500Y-70749999D02*
X121323833Y-70849999D01*
X121323833Y-70849999D02*
X121323833Y-71016666D01*
X120690500Y-70349999D02*
X120657166Y-70316666D01*
X120657166Y-70316666D02*
X120623833Y-70249999D01*
X120623833Y-70249999D02*
X120623833Y-70083333D01*
X120623833Y-70083333D02*
X120657166Y-70016666D01*
X120657166Y-70016666D02*
X120690500Y-69983333D01*
X120690500Y-69983333D02*
X120757166Y-69949999D01*
X120757166Y-69949999D02*
X120823833Y-69949999D01*
X120823833Y-69949999D02*
X120923833Y-69983333D01*
X120923833Y-69983333D02*
X121323833Y-70383333D01*
X121323833Y-70383333D02*
X121323833Y-69949999D01*
G04 #@! TO.C,R13*
X80474999Y-57323833D02*
X80241666Y-56990500D01*
X80074999Y-57323833D02*
X80074999Y-56623833D01*
X80074999Y-56623833D02*
X80341666Y-56623833D01*
X80341666Y-56623833D02*
X80408333Y-56657166D01*
X80408333Y-56657166D02*
X80441666Y-56690500D01*
X80441666Y-56690500D02*
X80474999Y-56757166D01*
X80474999Y-56757166D02*
X80474999Y-56857166D01*
X80474999Y-56857166D02*
X80441666Y-56923833D01*
X80441666Y-56923833D02*
X80408333Y-56957166D01*
X80408333Y-56957166D02*
X80341666Y-56990500D01*
X80341666Y-56990500D02*
X80074999Y-56990500D01*
X81141666Y-57323833D02*
X80741666Y-57323833D01*
X80941666Y-57323833D02*
X80941666Y-56623833D01*
X80941666Y-56623833D02*
X80874999Y-56723833D01*
X80874999Y-56723833D02*
X80808333Y-56790500D01*
X80808333Y-56790500D02*
X80741666Y-56823833D01*
X81375000Y-56623833D02*
X81808333Y-56623833D01*
X81808333Y-56623833D02*
X81575000Y-56890500D01*
X81575000Y-56890500D02*
X81675000Y-56890500D01*
X81675000Y-56890500D02*
X81741666Y-56923833D01*
X81741666Y-56923833D02*
X81775000Y-56957166D01*
X81775000Y-56957166D02*
X81808333Y-57023833D01*
X81808333Y-57023833D02*
X81808333Y-57190500D01*
X81808333Y-57190500D02*
X81775000Y-57257166D01*
X81775000Y-57257166D02*
X81741666Y-57290500D01*
X81741666Y-57290500D02*
X81675000Y-57323833D01*
X81675000Y-57323833D02*
X81475000Y-57323833D01*
X81475000Y-57323833D02*
X81408333Y-57290500D01*
X81408333Y-57290500D02*
X81375000Y-57257166D01*
G04 #@! TO.C,D3*
X116743833Y-63354166D02*
X116043833Y-63354166D01*
X116043833Y-63354166D02*
X116043833Y-63187499D01*
X116043833Y-63187499D02*
X116077166Y-63087499D01*
X116077166Y-63087499D02*
X116143833Y-63020833D01*
X116143833Y-63020833D02*
X116210500Y-62987499D01*
X116210500Y-62987499D02*
X116343833Y-62954166D01*
X116343833Y-62954166D02*
X116443833Y-62954166D01*
X116443833Y-62954166D02*
X116577166Y-62987499D01*
X116577166Y-62987499D02*
X116643833Y-63020833D01*
X116643833Y-63020833D02*
X116710500Y-63087499D01*
X116710500Y-63087499D02*
X116743833Y-63187499D01*
X116743833Y-63187499D02*
X116743833Y-63354166D01*
X116043833Y-62720833D02*
X116043833Y-62287499D01*
X116043833Y-62287499D02*
X116310500Y-62520833D01*
X116310500Y-62520833D02*
X116310500Y-62420833D01*
X116310500Y-62420833D02*
X116343833Y-62354166D01*
X116343833Y-62354166D02*
X116377166Y-62320833D01*
X116377166Y-62320833D02*
X116443833Y-62287499D01*
X116443833Y-62287499D02*
X116610500Y-62287499D01*
X116610500Y-62287499D02*
X116677166Y-62320833D01*
X116677166Y-62320833D02*
X116710500Y-62354166D01*
X116710500Y-62354166D02*
X116743833Y-62420833D01*
X116743833Y-62420833D02*
X116743833Y-62620833D01*
X116743833Y-62620833D02*
X116710500Y-62687499D01*
X116710500Y-62687499D02*
X116677166Y-62720833D01*
G04 #@! TO.C,F1*
X117557166Y-57233333D02*
X117557166Y-57466666D01*
X117923833Y-57466666D02*
X117223833Y-57466666D01*
X117223833Y-57466666D02*
X117223833Y-57133333D01*
X117923833Y-56499999D02*
X117923833Y-56899999D01*
X117923833Y-56699999D02*
X117223833Y-56699999D01*
X117223833Y-56699999D02*
X117323833Y-56766666D01*
X117323833Y-56766666D02*
X117390500Y-56833333D01*
X117390500Y-56833333D02*
X117423833Y-56899999D01*
G04 #@! TO.C,R8*
X123323833Y-70616666D02*
X122990500Y-70849999D01*
X123323833Y-71016666D02*
X122623833Y-71016666D01*
X122623833Y-71016666D02*
X122623833Y-70749999D01*
X122623833Y-70749999D02*
X122657166Y-70683333D01*
X122657166Y-70683333D02*
X122690500Y-70649999D01*
X122690500Y-70649999D02*
X122757166Y-70616666D01*
X122757166Y-70616666D02*
X122857166Y-70616666D01*
X122857166Y-70616666D02*
X122923833Y-70649999D01*
X122923833Y-70649999D02*
X122957166Y-70683333D01*
X122957166Y-70683333D02*
X122990500Y-70749999D01*
X122990500Y-70749999D02*
X122990500Y-71016666D01*
X122923833Y-70216666D02*
X122890500Y-70283333D01*
X122890500Y-70283333D02*
X122857166Y-70316666D01*
X122857166Y-70316666D02*
X122790500Y-70349999D01*
X122790500Y-70349999D02*
X122757166Y-70349999D01*
X122757166Y-70349999D02*
X122690500Y-70316666D01*
X122690500Y-70316666D02*
X122657166Y-70283333D01*
X122657166Y-70283333D02*
X122623833Y-70216666D01*
X122623833Y-70216666D02*
X122623833Y-70083333D01*
X122623833Y-70083333D02*
X122657166Y-70016666D01*
X122657166Y-70016666D02*
X122690500Y-69983333D01*
X122690500Y-69983333D02*
X122757166Y-69949999D01*
X122757166Y-69949999D02*
X122790500Y-69949999D01*
X122790500Y-69949999D02*
X122857166Y-69983333D01*
X122857166Y-69983333D02*
X122890500Y-70016666D01*
X122890500Y-70016666D02*
X122923833Y-70083333D01*
X122923833Y-70083333D02*
X122923833Y-70216666D01*
X122923833Y-70216666D02*
X122957166Y-70283333D01*
X122957166Y-70283333D02*
X122990500Y-70316666D01*
X122990500Y-70316666D02*
X123057166Y-70349999D01*
X123057166Y-70349999D02*
X123190500Y-70349999D01*
X123190500Y-70349999D02*
X123257166Y-70316666D01*
X123257166Y-70316666D02*
X123290500Y-70283333D01*
X123290500Y-70283333D02*
X123323833Y-70216666D01*
X123323833Y-70216666D02*
X123323833Y-70083333D01*
X123323833Y-70083333D02*
X123290500Y-70016666D01*
X123290500Y-70016666D02*
X123257166Y-69983333D01*
X123257166Y-69983333D02*
X123190500Y-69949999D01*
X123190500Y-69949999D02*
X123057166Y-69949999D01*
X123057166Y-69949999D02*
X122990500Y-69983333D01*
X122990500Y-69983333D02*
X122957166Y-70016666D01*
X122957166Y-70016666D02*
X122923833Y-70083333D01*
G04 #@! TO.C,R10*
X116673833Y-60075000D02*
X116340500Y-60308333D01*
X116673833Y-60475000D02*
X115973833Y-60475000D01*
X115973833Y-60475000D02*
X115973833Y-60208333D01*
X115973833Y-60208333D02*
X116007166Y-60141667D01*
X116007166Y-60141667D02*
X116040500Y-60108333D01*
X116040500Y-60108333D02*
X116107166Y-60075000D01*
X116107166Y-60075000D02*
X116207166Y-60075000D01*
X116207166Y-60075000D02*
X116273833Y-60108333D01*
X116273833Y-60108333D02*
X116307166Y-60141667D01*
X116307166Y-60141667D02*
X116340500Y-60208333D01*
X116340500Y-60208333D02*
X116340500Y-60475000D01*
X116673833Y-59408333D02*
X116673833Y-59808333D01*
X116673833Y-59608333D02*
X115973833Y-59608333D01*
X115973833Y-59608333D02*
X116073833Y-59675000D01*
X116073833Y-59675000D02*
X116140500Y-59741667D01*
X116140500Y-59741667D02*
X116173833Y-59808333D01*
X115973833Y-58975000D02*
X115973833Y-58908333D01*
X115973833Y-58908333D02*
X116007166Y-58841666D01*
X116007166Y-58841666D02*
X116040500Y-58808333D01*
X116040500Y-58808333D02*
X116107166Y-58775000D01*
X116107166Y-58775000D02*
X116240500Y-58741666D01*
X116240500Y-58741666D02*
X116407166Y-58741666D01*
X116407166Y-58741666D02*
X116540500Y-58775000D01*
X116540500Y-58775000D02*
X116607166Y-58808333D01*
X116607166Y-58808333D02*
X116640500Y-58841666D01*
X116640500Y-58841666D02*
X116673833Y-58908333D01*
X116673833Y-58908333D02*
X116673833Y-58975000D01*
X116673833Y-58975000D02*
X116640500Y-59041666D01*
X116640500Y-59041666D02*
X116607166Y-59075000D01*
X116607166Y-59075000D02*
X116540500Y-59108333D01*
X116540500Y-59108333D02*
X116407166Y-59141666D01*
X116407166Y-59141666D02*
X116240500Y-59141666D01*
X116240500Y-59141666D02*
X116107166Y-59108333D01*
X116107166Y-59108333D02*
X116040500Y-59075000D01*
X116040500Y-59075000D02*
X116007166Y-59041666D01*
X116007166Y-59041666D02*
X115973833Y-58975000D01*
G04 #@! TO.C,R6*
X121123833Y-57116666D02*
X120790500Y-57349999D01*
X121123833Y-57516666D02*
X120423833Y-57516666D01*
X120423833Y-57516666D02*
X120423833Y-57249999D01*
X120423833Y-57249999D02*
X120457166Y-57183333D01*
X120457166Y-57183333D02*
X120490500Y-57149999D01*
X120490500Y-57149999D02*
X120557166Y-57116666D01*
X120557166Y-57116666D02*
X120657166Y-57116666D01*
X120657166Y-57116666D02*
X120723833Y-57149999D01*
X120723833Y-57149999D02*
X120757166Y-57183333D01*
X120757166Y-57183333D02*
X120790500Y-57249999D01*
X120790500Y-57249999D02*
X120790500Y-57516666D01*
X120423833Y-56516666D02*
X120423833Y-56649999D01*
X120423833Y-56649999D02*
X120457166Y-56716666D01*
X120457166Y-56716666D02*
X120490500Y-56749999D01*
X120490500Y-56749999D02*
X120590500Y-56816666D01*
X120590500Y-56816666D02*
X120723833Y-56849999D01*
X120723833Y-56849999D02*
X120990500Y-56849999D01*
X120990500Y-56849999D02*
X121057166Y-56816666D01*
X121057166Y-56816666D02*
X121090500Y-56783333D01*
X121090500Y-56783333D02*
X121123833Y-56716666D01*
X121123833Y-56716666D02*
X121123833Y-56583333D01*
X121123833Y-56583333D02*
X121090500Y-56516666D01*
X121090500Y-56516666D02*
X121057166Y-56483333D01*
X121057166Y-56483333D02*
X120990500Y-56449999D01*
X120990500Y-56449999D02*
X120823833Y-56449999D01*
X120823833Y-56449999D02*
X120757166Y-56483333D01*
X120757166Y-56483333D02*
X120723833Y-56516666D01*
X120723833Y-56516666D02*
X120690500Y-56583333D01*
X120690500Y-56583333D02*
X120690500Y-56716666D01*
X120690500Y-56716666D02*
X120723833Y-56783333D01*
X120723833Y-56783333D02*
X120757166Y-56816666D01*
X120757166Y-56816666D02*
X120823833Y-56849999D01*
G04 #@! TO.C,R14*
X83449999Y-57323833D02*
X83216666Y-56990500D01*
X83049999Y-57323833D02*
X83049999Y-56623833D01*
X83049999Y-56623833D02*
X83316666Y-56623833D01*
X83316666Y-56623833D02*
X83383333Y-56657166D01*
X83383333Y-56657166D02*
X83416666Y-56690500D01*
X83416666Y-56690500D02*
X83449999Y-56757166D01*
X83449999Y-56757166D02*
X83449999Y-56857166D01*
X83449999Y-56857166D02*
X83416666Y-56923833D01*
X83416666Y-56923833D02*
X83383333Y-56957166D01*
X83383333Y-56957166D02*
X83316666Y-56990500D01*
X83316666Y-56990500D02*
X83049999Y-56990500D01*
X84116666Y-57323833D02*
X83716666Y-57323833D01*
X83916666Y-57323833D02*
X83916666Y-56623833D01*
X83916666Y-56623833D02*
X83849999Y-56723833D01*
X83849999Y-56723833D02*
X83783333Y-56790500D01*
X83783333Y-56790500D02*
X83716666Y-56823833D01*
X84716666Y-56857166D02*
X84716666Y-57323833D01*
X84550000Y-56590500D02*
X84383333Y-57090500D01*
X84383333Y-57090500D02*
X84816666Y-57090500D01*
G04 #@! TO.C,C2*
X125257166Y-70616666D02*
X125290500Y-70649999D01*
X125290500Y-70649999D02*
X125323833Y-70749999D01*
X125323833Y-70749999D02*
X125323833Y-70816666D01*
X125323833Y-70816666D02*
X125290500Y-70916666D01*
X125290500Y-70916666D02*
X125223833Y-70983333D01*
X125223833Y-70983333D02*
X125157166Y-71016666D01*
X125157166Y-71016666D02*
X125023833Y-71049999D01*
X125023833Y-71049999D02*
X124923833Y-71049999D01*
X124923833Y-71049999D02*
X124790500Y-71016666D01*
X124790500Y-71016666D02*
X124723833Y-70983333D01*
X124723833Y-70983333D02*
X124657166Y-70916666D01*
X124657166Y-70916666D02*
X124623833Y-70816666D01*
X124623833Y-70816666D02*
X124623833Y-70749999D01*
X124623833Y-70749999D02*
X124657166Y-70649999D01*
X124657166Y-70649999D02*
X124690500Y-70616666D01*
X124690500Y-70349999D02*
X124657166Y-70316666D01*
X124657166Y-70316666D02*
X124623833Y-70249999D01*
X124623833Y-70249999D02*
X124623833Y-70083333D01*
X124623833Y-70083333D02*
X124657166Y-70016666D01*
X124657166Y-70016666D02*
X124690500Y-69983333D01*
X124690500Y-69983333D02*
X124757166Y-69949999D01*
X124757166Y-69949999D02*
X124823833Y-69949999D01*
X124823833Y-69949999D02*
X124923833Y-69983333D01*
X124923833Y-69983333D02*
X125323833Y-70383333D01*
X125323833Y-70383333D02*
X125323833Y-69949999D01*
G04 #@! TO.C,R23*
X99849999Y-57353833D02*
X99616666Y-57020500D01*
X99449999Y-57353833D02*
X99449999Y-56653833D01*
X99449999Y-56653833D02*
X99716666Y-56653833D01*
X99716666Y-56653833D02*
X99783333Y-56687166D01*
X99783333Y-56687166D02*
X99816666Y-56720500D01*
X99816666Y-56720500D02*
X99849999Y-56787166D01*
X99849999Y-56787166D02*
X99849999Y-56887166D01*
X99849999Y-56887166D02*
X99816666Y-56953833D01*
X99816666Y-56953833D02*
X99783333Y-56987166D01*
X99783333Y-56987166D02*
X99716666Y-57020500D01*
X99716666Y-57020500D02*
X99449999Y-57020500D01*
X100116666Y-56720500D02*
X100149999Y-56687166D01*
X100149999Y-56687166D02*
X100216666Y-56653833D01*
X100216666Y-56653833D02*
X100383333Y-56653833D01*
X100383333Y-56653833D02*
X100449999Y-56687166D01*
X100449999Y-56687166D02*
X100483333Y-56720500D01*
X100483333Y-56720500D02*
X100516666Y-56787166D01*
X100516666Y-56787166D02*
X100516666Y-56853833D01*
X100516666Y-56853833D02*
X100483333Y-56953833D01*
X100483333Y-56953833D02*
X100083333Y-57353833D01*
X100083333Y-57353833D02*
X100516666Y-57353833D01*
X100750000Y-56653833D02*
X101183333Y-56653833D01*
X101183333Y-56653833D02*
X100950000Y-56920500D01*
X100950000Y-56920500D02*
X101050000Y-56920500D01*
X101050000Y-56920500D02*
X101116666Y-56953833D01*
X101116666Y-56953833D02*
X101150000Y-56987166D01*
X101150000Y-56987166D02*
X101183333Y-57053833D01*
X101183333Y-57053833D02*
X101183333Y-57220500D01*
X101183333Y-57220500D02*
X101150000Y-57287166D01*
X101150000Y-57287166D02*
X101116666Y-57320500D01*
X101116666Y-57320500D02*
X101050000Y-57353833D01*
X101050000Y-57353833D02*
X100850000Y-57353833D01*
X100850000Y-57353833D02*
X100783333Y-57320500D01*
X100783333Y-57320500D02*
X100750000Y-57287166D01*
G04 #@! TO.C,R26*
X115349999Y-57323833D02*
X115116666Y-56990500D01*
X114949999Y-57323833D02*
X114949999Y-56623833D01*
X114949999Y-56623833D02*
X115216666Y-56623833D01*
X115216666Y-56623833D02*
X115283333Y-56657166D01*
X115283333Y-56657166D02*
X115316666Y-56690500D01*
X115316666Y-56690500D02*
X115349999Y-56757166D01*
X115349999Y-56757166D02*
X115349999Y-56857166D01*
X115349999Y-56857166D02*
X115316666Y-56923833D01*
X115316666Y-56923833D02*
X115283333Y-56957166D01*
X115283333Y-56957166D02*
X115216666Y-56990500D01*
X115216666Y-56990500D02*
X114949999Y-56990500D01*
X115616666Y-56690500D02*
X115649999Y-56657166D01*
X115649999Y-56657166D02*
X115716666Y-56623833D01*
X115716666Y-56623833D02*
X115883333Y-56623833D01*
X115883333Y-56623833D02*
X115949999Y-56657166D01*
X115949999Y-56657166D02*
X115983333Y-56690500D01*
X115983333Y-56690500D02*
X116016666Y-56757166D01*
X116016666Y-56757166D02*
X116016666Y-56823833D01*
X116016666Y-56823833D02*
X115983333Y-56923833D01*
X115983333Y-56923833D02*
X115583333Y-57323833D01*
X115583333Y-57323833D02*
X116016666Y-57323833D01*
X116616666Y-56623833D02*
X116483333Y-56623833D01*
X116483333Y-56623833D02*
X116416666Y-56657166D01*
X116416666Y-56657166D02*
X116383333Y-56690500D01*
X116383333Y-56690500D02*
X116316666Y-56790500D01*
X116316666Y-56790500D02*
X116283333Y-56923833D01*
X116283333Y-56923833D02*
X116283333Y-57190500D01*
X116283333Y-57190500D02*
X116316666Y-57257166D01*
X116316666Y-57257166D02*
X116350000Y-57290500D01*
X116350000Y-57290500D02*
X116416666Y-57323833D01*
X116416666Y-57323833D02*
X116550000Y-57323833D01*
X116550000Y-57323833D02*
X116616666Y-57290500D01*
X116616666Y-57290500D02*
X116650000Y-57257166D01*
X116650000Y-57257166D02*
X116683333Y-57190500D01*
X116683333Y-57190500D02*
X116683333Y-57023833D01*
X116683333Y-57023833D02*
X116650000Y-56957166D01*
X116650000Y-56957166D02*
X116616666Y-56923833D01*
X116616666Y-56923833D02*
X116550000Y-56890500D01*
X116550000Y-56890500D02*
X116416666Y-56890500D01*
X116416666Y-56890500D02*
X116350000Y-56923833D01*
X116350000Y-56923833D02*
X116316666Y-56957166D01*
X116316666Y-56957166D02*
X116283333Y-57023833D01*
G04 #@! TO.C,R5*
X120723833Y-55716666D02*
X120390500Y-55949999D01*
X120723833Y-56116666D02*
X120023833Y-56116666D01*
X120023833Y-56116666D02*
X120023833Y-55849999D01*
X120023833Y-55849999D02*
X120057166Y-55783333D01*
X120057166Y-55783333D02*
X120090500Y-55749999D01*
X120090500Y-55749999D02*
X120157166Y-55716666D01*
X120157166Y-55716666D02*
X120257166Y-55716666D01*
X120257166Y-55716666D02*
X120323833Y-55749999D01*
X120323833Y-55749999D02*
X120357166Y-55783333D01*
X120357166Y-55783333D02*
X120390500Y-55849999D01*
X120390500Y-55849999D02*
X120390500Y-56116666D01*
X120023833Y-55083333D02*
X120023833Y-55416666D01*
X120023833Y-55416666D02*
X120357166Y-55449999D01*
X120357166Y-55449999D02*
X120323833Y-55416666D01*
X120323833Y-55416666D02*
X120290500Y-55349999D01*
X120290500Y-55349999D02*
X120290500Y-55183333D01*
X120290500Y-55183333D02*
X120323833Y-55116666D01*
X120323833Y-55116666D02*
X120357166Y-55083333D01*
X120357166Y-55083333D02*
X120423833Y-55049999D01*
X120423833Y-55049999D02*
X120590500Y-55049999D01*
X120590500Y-55049999D02*
X120657166Y-55083333D01*
X120657166Y-55083333D02*
X120690500Y-55116666D01*
X120690500Y-55116666D02*
X120723833Y-55183333D01*
X120723833Y-55183333D02*
X120723833Y-55349999D01*
X120723833Y-55349999D02*
X120690500Y-55416666D01*
X120690500Y-55416666D02*
X120657166Y-55449999D01*
G04 #@! TO.C,R16*
X96524999Y-57323833D02*
X96291666Y-56990500D01*
X96124999Y-57323833D02*
X96124999Y-56623833D01*
X96124999Y-56623833D02*
X96391666Y-56623833D01*
X96391666Y-56623833D02*
X96458333Y-56657166D01*
X96458333Y-56657166D02*
X96491666Y-56690500D01*
X96491666Y-56690500D02*
X96524999Y-56757166D01*
X96524999Y-56757166D02*
X96524999Y-56857166D01*
X96524999Y-56857166D02*
X96491666Y-56923833D01*
X96491666Y-56923833D02*
X96458333Y-56957166D01*
X96458333Y-56957166D02*
X96391666Y-56990500D01*
X96391666Y-56990500D02*
X96124999Y-56990500D01*
X97191666Y-57323833D02*
X96791666Y-57323833D01*
X96991666Y-57323833D02*
X96991666Y-56623833D01*
X96991666Y-56623833D02*
X96924999Y-56723833D01*
X96924999Y-56723833D02*
X96858333Y-56790500D01*
X96858333Y-56790500D02*
X96791666Y-56823833D01*
X97791666Y-56623833D02*
X97658333Y-56623833D01*
X97658333Y-56623833D02*
X97591666Y-56657166D01*
X97591666Y-56657166D02*
X97558333Y-56690500D01*
X97558333Y-56690500D02*
X97491666Y-56790500D01*
X97491666Y-56790500D02*
X97458333Y-56923833D01*
X97458333Y-56923833D02*
X97458333Y-57190500D01*
X97458333Y-57190500D02*
X97491666Y-57257166D01*
X97491666Y-57257166D02*
X97525000Y-57290500D01*
X97525000Y-57290500D02*
X97591666Y-57323833D01*
X97591666Y-57323833D02*
X97725000Y-57323833D01*
X97725000Y-57323833D02*
X97791666Y-57290500D01*
X97791666Y-57290500D02*
X97825000Y-57257166D01*
X97825000Y-57257166D02*
X97858333Y-57190500D01*
X97858333Y-57190500D02*
X97858333Y-57023833D01*
X97858333Y-57023833D02*
X97825000Y-56957166D01*
X97825000Y-56957166D02*
X97791666Y-56923833D01*
X97791666Y-56923833D02*
X97725000Y-56890500D01*
X97725000Y-56890500D02*
X97591666Y-56890500D01*
X97591666Y-56890500D02*
X97525000Y-56923833D01*
X97525000Y-56923833D02*
X97491666Y-56957166D01*
X97491666Y-56957166D02*
X97458333Y-57023833D01*
G04 #@! TO.C,J1*
X99566666Y-58423833D02*
X99566666Y-58923833D01*
X99566666Y-58923833D02*
X99533333Y-59023833D01*
X99533333Y-59023833D02*
X99466666Y-59090500D01*
X99466666Y-59090500D02*
X99366666Y-59123833D01*
X99366666Y-59123833D02*
X99300000Y-59123833D01*
X100266666Y-59123833D02*
X99866666Y-59123833D01*
X100066666Y-59123833D02*
X100066666Y-58423833D01*
X100066666Y-58423833D02*
X99999999Y-58523833D01*
X99999999Y-58523833D02*
X99933333Y-58590500D01*
X99933333Y-58590500D02*
X99866666Y-58623833D01*
G04 #@! TO.C,R20*
X77449999Y-57323833D02*
X77216666Y-56990500D01*
X77049999Y-57323833D02*
X77049999Y-56623833D01*
X77049999Y-56623833D02*
X77316666Y-56623833D01*
X77316666Y-56623833D02*
X77383333Y-56657166D01*
X77383333Y-56657166D02*
X77416666Y-56690500D01*
X77416666Y-56690500D02*
X77449999Y-56757166D01*
X77449999Y-56757166D02*
X77449999Y-56857166D01*
X77449999Y-56857166D02*
X77416666Y-56923833D01*
X77416666Y-56923833D02*
X77383333Y-56957166D01*
X77383333Y-56957166D02*
X77316666Y-56990500D01*
X77316666Y-56990500D02*
X77049999Y-56990500D01*
X77716666Y-56690500D02*
X77749999Y-56657166D01*
X77749999Y-56657166D02*
X77816666Y-56623833D01*
X77816666Y-56623833D02*
X77983333Y-56623833D01*
X77983333Y-56623833D02*
X78049999Y-56657166D01*
X78049999Y-56657166D02*
X78083333Y-56690500D01*
X78083333Y-56690500D02*
X78116666Y-56757166D01*
X78116666Y-56757166D02*
X78116666Y-56823833D01*
X78116666Y-56823833D02*
X78083333Y-56923833D01*
X78083333Y-56923833D02*
X77683333Y-57323833D01*
X77683333Y-57323833D02*
X78116666Y-57323833D01*
X78550000Y-56623833D02*
X78616666Y-56623833D01*
X78616666Y-56623833D02*
X78683333Y-56657166D01*
X78683333Y-56657166D02*
X78716666Y-56690500D01*
X78716666Y-56690500D02*
X78750000Y-56757166D01*
X78750000Y-56757166D02*
X78783333Y-56890500D01*
X78783333Y-56890500D02*
X78783333Y-57057166D01*
X78783333Y-57057166D02*
X78750000Y-57190500D01*
X78750000Y-57190500D02*
X78716666Y-57257166D01*
X78716666Y-57257166D02*
X78683333Y-57290500D01*
X78683333Y-57290500D02*
X78616666Y-57323833D01*
X78616666Y-57323833D02*
X78550000Y-57323833D01*
X78550000Y-57323833D02*
X78483333Y-57290500D01*
X78483333Y-57290500D02*
X78450000Y-57257166D01*
X78450000Y-57257166D02*
X78416666Y-57190500D01*
X78416666Y-57190500D02*
X78383333Y-57057166D01*
X78383333Y-57057166D02*
X78383333Y-56890500D01*
X78383333Y-56890500D02*
X78416666Y-56757166D01*
X78416666Y-56757166D02*
X78450000Y-56690500D01*
X78450000Y-56690500D02*
X78483333Y-56657166D01*
X78483333Y-56657166D02*
X78550000Y-56623833D01*
G04 #@! TO.C,R11*
X68449999Y-57323833D02*
X68216666Y-56990500D01*
X68049999Y-57323833D02*
X68049999Y-56623833D01*
X68049999Y-56623833D02*
X68316666Y-56623833D01*
X68316666Y-56623833D02*
X68383333Y-56657166D01*
X68383333Y-56657166D02*
X68416666Y-56690500D01*
X68416666Y-56690500D02*
X68449999Y-56757166D01*
X68449999Y-56757166D02*
X68449999Y-56857166D01*
X68449999Y-56857166D02*
X68416666Y-56923833D01*
X68416666Y-56923833D02*
X68383333Y-56957166D01*
X68383333Y-56957166D02*
X68316666Y-56990500D01*
X68316666Y-56990500D02*
X68049999Y-56990500D01*
X69116666Y-57323833D02*
X68716666Y-57323833D01*
X68916666Y-57323833D02*
X68916666Y-56623833D01*
X68916666Y-56623833D02*
X68849999Y-56723833D01*
X68849999Y-56723833D02*
X68783333Y-56790500D01*
X68783333Y-56790500D02*
X68716666Y-56823833D01*
X69783333Y-57323833D02*
X69383333Y-57323833D01*
X69583333Y-57323833D02*
X69583333Y-56623833D01*
X69583333Y-56623833D02*
X69516666Y-56723833D01*
X69516666Y-56723833D02*
X69450000Y-56790500D01*
X69450000Y-56790500D02*
X69383333Y-56823833D01*
G04 #@! TO.C,R18*
X109149999Y-57323833D02*
X108916666Y-56990500D01*
X108749999Y-57323833D02*
X108749999Y-56623833D01*
X108749999Y-56623833D02*
X109016666Y-56623833D01*
X109016666Y-56623833D02*
X109083333Y-56657166D01*
X109083333Y-56657166D02*
X109116666Y-56690500D01*
X109116666Y-56690500D02*
X109149999Y-56757166D01*
X109149999Y-56757166D02*
X109149999Y-56857166D01*
X109149999Y-56857166D02*
X109116666Y-56923833D01*
X109116666Y-56923833D02*
X109083333Y-56957166D01*
X109083333Y-56957166D02*
X109016666Y-56990500D01*
X109016666Y-56990500D02*
X108749999Y-56990500D01*
X109816666Y-57323833D02*
X109416666Y-57323833D01*
X109616666Y-57323833D02*
X109616666Y-56623833D01*
X109616666Y-56623833D02*
X109549999Y-56723833D01*
X109549999Y-56723833D02*
X109483333Y-56790500D01*
X109483333Y-56790500D02*
X109416666Y-56823833D01*
X110216666Y-56923833D02*
X110150000Y-56890500D01*
X110150000Y-56890500D02*
X110116666Y-56857166D01*
X110116666Y-56857166D02*
X110083333Y-56790500D01*
X110083333Y-56790500D02*
X110083333Y-56757166D01*
X110083333Y-56757166D02*
X110116666Y-56690500D01*
X110116666Y-56690500D02*
X110150000Y-56657166D01*
X110150000Y-56657166D02*
X110216666Y-56623833D01*
X110216666Y-56623833D02*
X110350000Y-56623833D01*
X110350000Y-56623833D02*
X110416666Y-56657166D01*
X110416666Y-56657166D02*
X110450000Y-56690500D01*
X110450000Y-56690500D02*
X110483333Y-56757166D01*
X110483333Y-56757166D02*
X110483333Y-56790500D01*
X110483333Y-56790500D02*
X110450000Y-56857166D01*
X110450000Y-56857166D02*
X110416666Y-56890500D01*
X110416666Y-56890500D02*
X110350000Y-56923833D01*
X110350000Y-56923833D02*
X110216666Y-56923833D01*
X110216666Y-56923833D02*
X110150000Y-56957166D01*
X110150000Y-56957166D02*
X110116666Y-56990500D01*
X110116666Y-56990500D02*
X110083333Y-57057166D01*
X110083333Y-57057166D02*
X110083333Y-57190500D01*
X110083333Y-57190500D02*
X110116666Y-57257166D01*
X110116666Y-57257166D02*
X110150000Y-57290500D01*
X110150000Y-57290500D02*
X110216666Y-57323833D01*
X110216666Y-57323833D02*
X110350000Y-57323833D01*
X110350000Y-57323833D02*
X110416666Y-57290500D01*
X110416666Y-57290500D02*
X110450000Y-57257166D01*
X110450000Y-57257166D02*
X110483333Y-57190500D01*
X110483333Y-57190500D02*
X110483333Y-57057166D01*
X110483333Y-57057166D02*
X110450000Y-56990500D01*
X110450000Y-56990500D02*
X110416666Y-56957166D01*
X110416666Y-56957166D02*
X110350000Y-56923833D01*
G04 #@! TO.C,R4*
X129323833Y-70616666D02*
X128990500Y-70849999D01*
X129323833Y-71016666D02*
X128623833Y-71016666D01*
X128623833Y-71016666D02*
X128623833Y-70749999D01*
X128623833Y-70749999D02*
X128657166Y-70683333D01*
X128657166Y-70683333D02*
X128690500Y-70649999D01*
X128690500Y-70649999D02*
X128757166Y-70616666D01*
X128757166Y-70616666D02*
X128857166Y-70616666D01*
X128857166Y-70616666D02*
X128923833Y-70649999D01*
X128923833Y-70649999D02*
X128957166Y-70683333D01*
X128957166Y-70683333D02*
X128990500Y-70749999D01*
X128990500Y-70749999D02*
X128990500Y-71016666D01*
X128857166Y-70016666D02*
X129323833Y-70016666D01*
X128590500Y-70183333D02*
X129090500Y-70349999D01*
X129090500Y-70349999D02*
X129090500Y-69916666D01*
G04 #@! TO.C,R25*
X112249999Y-57323833D02*
X112016666Y-56990500D01*
X111849999Y-57323833D02*
X111849999Y-56623833D01*
X111849999Y-56623833D02*
X112116666Y-56623833D01*
X112116666Y-56623833D02*
X112183333Y-56657166D01*
X112183333Y-56657166D02*
X112216666Y-56690500D01*
X112216666Y-56690500D02*
X112249999Y-56757166D01*
X112249999Y-56757166D02*
X112249999Y-56857166D01*
X112249999Y-56857166D02*
X112216666Y-56923833D01*
X112216666Y-56923833D02*
X112183333Y-56957166D01*
X112183333Y-56957166D02*
X112116666Y-56990500D01*
X112116666Y-56990500D02*
X111849999Y-56990500D01*
X112516666Y-56690500D02*
X112549999Y-56657166D01*
X112549999Y-56657166D02*
X112616666Y-56623833D01*
X112616666Y-56623833D02*
X112783333Y-56623833D01*
X112783333Y-56623833D02*
X112849999Y-56657166D01*
X112849999Y-56657166D02*
X112883333Y-56690500D01*
X112883333Y-56690500D02*
X112916666Y-56757166D01*
X112916666Y-56757166D02*
X112916666Y-56823833D01*
X112916666Y-56823833D02*
X112883333Y-56923833D01*
X112883333Y-56923833D02*
X112483333Y-57323833D01*
X112483333Y-57323833D02*
X112916666Y-57323833D01*
X113550000Y-56623833D02*
X113216666Y-56623833D01*
X113216666Y-56623833D02*
X113183333Y-56957166D01*
X113183333Y-56957166D02*
X113216666Y-56923833D01*
X113216666Y-56923833D02*
X113283333Y-56890500D01*
X113283333Y-56890500D02*
X113450000Y-56890500D01*
X113450000Y-56890500D02*
X113516666Y-56923833D01*
X113516666Y-56923833D02*
X113550000Y-56957166D01*
X113550000Y-56957166D02*
X113583333Y-57023833D01*
X113583333Y-57023833D02*
X113583333Y-57190500D01*
X113583333Y-57190500D02*
X113550000Y-57257166D01*
X113550000Y-57257166D02*
X113516666Y-57290500D01*
X113516666Y-57290500D02*
X113450000Y-57323833D01*
X113450000Y-57323833D02*
X113283333Y-57323833D01*
X113283333Y-57323833D02*
X113216666Y-57290500D01*
X113216666Y-57290500D02*
X113183333Y-57257166D01*
G04 #@! TO.C,R1*
X132523833Y-56516666D02*
X132190500Y-56749999D01*
X132523833Y-56916666D02*
X131823833Y-56916666D01*
X131823833Y-56916666D02*
X131823833Y-56649999D01*
X131823833Y-56649999D02*
X131857166Y-56583333D01*
X131857166Y-56583333D02*
X131890500Y-56549999D01*
X131890500Y-56549999D02*
X131957166Y-56516666D01*
X131957166Y-56516666D02*
X132057166Y-56516666D01*
X132057166Y-56516666D02*
X132123833Y-56549999D01*
X132123833Y-56549999D02*
X132157166Y-56583333D01*
X132157166Y-56583333D02*
X132190500Y-56649999D01*
X132190500Y-56649999D02*
X132190500Y-56916666D01*
X132523833Y-55849999D02*
X132523833Y-56249999D01*
X132523833Y-56049999D02*
X131823833Y-56049999D01*
X131823833Y-56049999D02*
X131923833Y-56116666D01*
X131923833Y-56116666D02*
X131990500Y-56183333D01*
X131990500Y-56183333D02*
X132023833Y-56249999D01*
G04 #@! TO.C,R12*
X71449999Y-57323833D02*
X71216666Y-56990500D01*
X71049999Y-57323833D02*
X71049999Y-56623833D01*
X71049999Y-56623833D02*
X71316666Y-56623833D01*
X71316666Y-56623833D02*
X71383333Y-56657166D01*
X71383333Y-56657166D02*
X71416666Y-56690500D01*
X71416666Y-56690500D02*
X71449999Y-56757166D01*
X71449999Y-56757166D02*
X71449999Y-56857166D01*
X71449999Y-56857166D02*
X71416666Y-56923833D01*
X71416666Y-56923833D02*
X71383333Y-56957166D01*
X71383333Y-56957166D02*
X71316666Y-56990500D01*
X71316666Y-56990500D02*
X71049999Y-56990500D01*
X72116666Y-57323833D02*
X71716666Y-57323833D01*
X71916666Y-57323833D02*
X71916666Y-56623833D01*
X71916666Y-56623833D02*
X71849999Y-56723833D01*
X71849999Y-56723833D02*
X71783333Y-56790500D01*
X71783333Y-56790500D02*
X71716666Y-56823833D01*
X72383333Y-56690500D02*
X72416666Y-56657166D01*
X72416666Y-56657166D02*
X72483333Y-56623833D01*
X72483333Y-56623833D02*
X72650000Y-56623833D01*
X72650000Y-56623833D02*
X72716666Y-56657166D01*
X72716666Y-56657166D02*
X72750000Y-56690500D01*
X72750000Y-56690500D02*
X72783333Y-56757166D01*
X72783333Y-56757166D02*
X72783333Y-56823833D01*
X72783333Y-56823833D02*
X72750000Y-56923833D01*
X72750000Y-56923833D02*
X72350000Y-57323833D01*
X72350000Y-57323833D02*
X72783333Y-57323833D01*
G04 #@! TO.C,R17*
X106074999Y-57323833D02*
X105841666Y-56990500D01*
X105674999Y-57323833D02*
X105674999Y-56623833D01*
X105674999Y-56623833D02*
X105941666Y-56623833D01*
X105941666Y-56623833D02*
X106008333Y-56657166D01*
X106008333Y-56657166D02*
X106041666Y-56690500D01*
X106041666Y-56690500D02*
X106074999Y-56757166D01*
X106074999Y-56757166D02*
X106074999Y-56857166D01*
X106074999Y-56857166D02*
X106041666Y-56923833D01*
X106041666Y-56923833D02*
X106008333Y-56957166D01*
X106008333Y-56957166D02*
X105941666Y-56990500D01*
X105941666Y-56990500D02*
X105674999Y-56990500D01*
X106741666Y-57323833D02*
X106341666Y-57323833D01*
X106541666Y-57323833D02*
X106541666Y-56623833D01*
X106541666Y-56623833D02*
X106474999Y-56723833D01*
X106474999Y-56723833D02*
X106408333Y-56790500D01*
X106408333Y-56790500D02*
X106341666Y-56823833D01*
X106975000Y-56623833D02*
X107441666Y-56623833D01*
X107441666Y-56623833D02*
X107141666Y-57323833D01*
G04 #@! TO.C,R19*
X74449999Y-57323833D02*
X74216666Y-56990500D01*
X74049999Y-57323833D02*
X74049999Y-56623833D01*
X74049999Y-56623833D02*
X74316666Y-56623833D01*
X74316666Y-56623833D02*
X74383333Y-56657166D01*
X74383333Y-56657166D02*
X74416666Y-56690500D01*
X74416666Y-56690500D02*
X74449999Y-56757166D01*
X74449999Y-56757166D02*
X74449999Y-56857166D01*
X74449999Y-56857166D02*
X74416666Y-56923833D01*
X74416666Y-56923833D02*
X74383333Y-56957166D01*
X74383333Y-56957166D02*
X74316666Y-56990500D01*
X74316666Y-56990500D02*
X74049999Y-56990500D01*
X75116666Y-57323833D02*
X74716666Y-57323833D01*
X74916666Y-57323833D02*
X74916666Y-56623833D01*
X74916666Y-56623833D02*
X74849999Y-56723833D01*
X74849999Y-56723833D02*
X74783333Y-56790500D01*
X74783333Y-56790500D02*
X74716666Y-56823833D01*
X75450000Y-57323833D02*
X75583333Y-57323833D01*
X75583333Y-57323833D02*
X75650000Y-57290500D01*
X75650000Y-57290500D02*
X75683333Y-57257166D01*
X75683333Y-57257166D02*
X75750000Y-57157166D01*
X75750000Y-57157166D02*
X75783333Y-57023833D01*
X75783333Y-57023833D02*
X75783333Y-56757166D01*
X75783333Y-56757166D02*
X75750000Y-56690500D01*
X75750000Y-56690500D02*
X75716666Y-56657166D01*
X75716666Y-56657166D02*
X75650000Y-56623833D01*
X75650000Y-56623833D02*
X75516666Y-56623833D01*
X75516666Y-56623833D02*
X75450000Y-56657166D01*
X75450000Y-56657166D02*
X75416666Y-56690500D01*
X75416666Y-56690500D02*
X75383333Y-56757166D01*
X75383333Y-56757166D02*
X75383333Y-56923833D01*
X75383333Y-56923833D02*
X75416666Y-56990500D01*
X75416666Y-56990500D02*
X75450000Y-57023833D01*
X75450000Y-57023833D02*
X75516666Y-57057166D01*
X75516666Y-57057166D02*
X75650000Y-57057166D01*
X75650000Y-57057166D02*
X75716666Y-57023833D01*
X75716666Y-57023833D02*
X75750000Y-56990500D01*
X75750000Y-56990500D02*
X75783333Y-56923833D01*
G04 #@! TO.C,R7*
X126523833Y-55916666D02*
X126190500Y-56149999D01*
X126523833Y-56316666D02*
X125823833Y-56316666D01*
X125823833Y-56316666D02*
X125823833Y-56049999D01*
X125823833Y-56049999D02*
X125857166Y-55983333D01*
X125857166Y-55983333D02*
X125890500Y-55949999D01*
X125890500Y-55949999D02*
X125957166Y-55916666D01*
X125957166Y-55916666D02*
X126057166Y-55916666D01*
X126057166Y-55916666D02*
X126123833Y-55949999D01*
X126123833Y-55949999D02*
X126157166Y-55983333D01*
X126157166Y-55983333D02*
X126190500Y-56049999D01*
X126190500Y-56049999D02*
X126190500Y-56316666D01*
X125823833Y-55683333D02*
X125823833Y-55216666D01*
X125823833Y-55216666D02*
X126523833Y-55516666D01*
G04 #@! TO.C,R15*
X93374999Y-57323833D02*
X93141666Y-56990500D01*
X92974999Y-57323833D02*
X92974999Y-56623833D01*
X92974999Y-56623833D02*
X93241666Y-56623833D01*
X93241666Y-56623833D02*
X93308333Y-56657166D01*
X93308333Y-56657166D02*
X93341666Y-56690500D01*
X93341666Y-56690500D02*
X93374999Y-56757166D01*
X93374999Y-56757166D02*
X93374999Y-56857166D01*
X93374999Y-56857166D02*
X93341666Y-56923833D01*
X93341666Y-56923833D02*
X93308333Y-56957166D01*
X93308333Y-56957166D02*
X93241666Y-56990500D01*
X93241666Y-56990500D02*
X92974999Y-56990500D01*
X94041666Y-57323833D02*
X93641666Y-57323833D01*
X93841666Y-57323833D02*
X93841666Y-56623833D01*
X93841666Y-56623833D02*
X93774999Y-56723833D01*
X93774999Y-56723833D02*
X93708333Y-56790500D01*
X93708333Y-56790500D02*
X93641666Y-56823833D01*
X94675000Y-56623833D02*
X94341666Y-56623833D01*
X94341666Y-56623833D02*
X94308333Y-56957166D01*
X94308333Y-56957166D02*
X94341666Y-56923833D01*
X94341666Y-56923833D02*
X94408333Y-56890500D01*
X94408333Y-56890500D02*
X94575000Y-56890500D01*
X94575000Y-56890500D02*
X94641666Y-56923833D01*
X94641666Y-56923833D02*
X94675000Y-56957166D01*
X94675000Y-56957166D02*
X94708333Y-57023833D01*
X94708333Y-57023833D02*
X94708333Y-57190500D01*
X94708333Y-57190500D02*
X94675000Y-57257166D01*
X94675000Y-57257166D02*
X94641666Y-57290500D01*
X94641666Y-57290500D02*
X94575000Y-57323833D01*
X94575000Y-57323833D02*
X94408333Y-57323833D01*
X94408333Y-57323833D02*
X94341666Y-57290500D01*
X94341666Y-57290500D02*
X94308333Y-57257166D01*
G04 #@! TO.C,R21*
X86424999Y-57323833D02*
X86191666Y-56990500D01*
X86024999Y-57323833D02*
X86024999Y-56623833D01*
X86024999Y-56623833D02*
X86291666Y-56623833D01*
X86291666Y-56623833D02*
X86358333Y-56657166D01*
X86358333Y-56657166D02*
X86391666Y-56690500D01*
X86391666Y-56690500D02*
X86424999Y-56757166D01*
X86424999Y-56757166D02*
X86424999Y-56857166D01*
X86424999Y-56857166D02*
X86391666Y-56923833D01*
X86391666Y-56923833D02*
X86358333Y-56957166D01*
X86358333Y-56957166D02*
X86291666Y-56990500D01*
X86291666Y-56990500D02*
X86024999Y-56990500D01*
X86691666Y-56690500D02*
X86724999Y-56657166D01*
X86724999Y-56657166D02*
X86791666Y-56623833D01*
X86791666Y-56623833D02*
X86958333Y-56623833D01*
X86958333Y-56623833D02*
X87024999Y-56657166D01*
X87024999Y-56657166D02*
X87058333Y-56690500D01*
X87058333Y-56690500D02*
X87091666Y-56757166D01*
X87091666Y-56757166D02*
X87091666Y-56823833D01*
X87091666Y-56823833D02*
X87058333Y-56923833D01*
X87058333Y-56923833D02*
X86658333Y-57323833D01*
X86658333Y-57323833D02*
X87091666Y-57323833D01*
X87758333Y-57323833D02*
X87358333Y-57323833D01*
X87558333Y-57323833D02*
X87558333Y-56623833D01*
X87558333Y-56623833D02*
X87491666Y-56723833D01*
X87491666Y-56723833D02*
X87425000Y-56790500D01*
X87425000Y-56790500D02*
X87358333Y-56823833D01*
G04 #@! TO.C,J3*
X117566666Y-77423833D02*
X117566666Y-77923833D01*
X117566666Y-77923833D02*
X117533333Y-78023833D01*
X117533333Y-78023833D02*
X117466666Y-78090500D01*
X117466666Y-78090500D02*
X117366666Y-78123833D01*
X117366666Y-78123833D02*
X117300000Y-78123833D01*
X117833333Y-77423833D02*
X118266666Y-77423833D01*
X118266666Y-77423833D02*
X118033333Y-77690500D01*
X118033333Y-77690500D02*
X118133333Y-77690500D01*
X118133333Y-77690500D02*
X118199999Y-77723833D01*
X118199999Y-77723833D02*
X118233333Y-77757166D01*
X118233333Y-77757166D02*
X118266666Y-77823833D01*
X118266666Y-77823833D02*
X118266666Y-77990500D01*
X118266666Y-77990500D02*
X118233333Y-78057166D01*
X118233333Y-78057166D02*
X118199999Y-78090500D01*
X118199999Y-78090500D02*
X118133333Y-78123833D01*
X118133333Y-78123833D02*
X117933333Y-78123833D01*
X117933333Y-78123833D02*
X117866666Y-78090500D01*
X117866666Y-78090500D02*
X117833333Y-78057166D01*
G04 #@! TO.C,U1*
X131966666Y-65123833D02*
X131966666Y-65690500D01*
X131966666Y-65690500D02*
X132000000Y-65757166D01*
X132000000Y-65757166D02*
X132033333Y-65790500D01*
X132033333Y-65790500D02*
X132100000Y-65823833D01*
X132100000Y-65823833D02*
X132233333Y-65823833D01*
X132233333Y-65823833D02*
X132300000Y-65790500D01*
X132300000Y-65790500D02*
X132333333Y-65757166D01*
X132333333Y-65757166D02*
X132366666Y-65690500D01*
X132366666Y-65690500D02*
X132366666Y-65123833D01*
X133066666Y-65823833D02*
X132666666Y-65823833D01*
X132866666Y-65823833D02*
X132866666Y-65123833D01*
X132866666Y-65123833D02*
X132799999Y-65223833D01*
X132799999Y-65223833D02*
X132733333Y-65290500D01*
X132733333Y-65290500D02*
X132666666Y-65323833D01*
G04 #@! TO.C,R9*
X133323833Y-62616666D02*
X132990500Y-62849999D01*
X133323833Y-63016666D02*
X132623833Y-63016666D01*
X132623833Y-63016666D02*
X132623833Y-62749999D01*
X132623833Y-62749999D02*
X132657166Y-62683333D01*
X132657166Y-62683333D02*
X132690500Y-62649999D01*
X132690500Y-62649999D02*
X132757166Y-62616666D01*
X132757166Y-62616666D02*
X132857166Y-62616666D01*
X132857166Y-62616666D02*
X132923833Y-62649999D01*
X132923833Y-62649999D02*
X132957166Y-62683333D01*
X132957166Y-62683333D02*
X132990500Y-62749999D01*
X132990500Y-62749999D02*
X132990500Y-63016666D01*
X133323833Y-62283333D02*
X133323833Y-62149999D01*
X133323833Y-62149999D02*
X133290500Y-62083333D01*
X133290500Y-62083333D02*
X133257166Y-62049999D01*
X133257166Y-62049999D02*
X133157166Y-61983333D01*
X133157166Y-61983333D02*
X133023833Y-61949999D01*
X133023833Y-61949999D02*
X132757166Y-61949999D01*
X132757166Y-61949999D02*
X132690500Y-61983333D01*
X132690500Y-61983333D02*
X132657166Y-62016666D01*
X132657166Y-62016666D02*
X132623833Y-62083333D01*
X132623833Y-62083333D02*
X132623833Y-62216666D01*
X132623833Y-62216666D02*
X132657166Y-62283333D01*
X132657166Y-62283333D02*
X132690500Y-62316666D01*
X132690500Y-62316666D02*
X132757166Y-62349999D01*
X132757166Y-62349999D02*
X132923833Y-62349999D01*
X132923833Y-62349999D02*
X132990500Y-62316666D01*
X132990500Y-62316666D02*
X133023833Y-62283333D01*
X133023833Y-62283333D02*
X133057166Y-62216666D01*
X133057166Y-62216666D02*
X133057166Y-62083333D01*
X133057166Y-62083333D02*
X133023833Y-62016666D01*
X133023833Y-62016666D02*
X132990500Y-61983333D01*
X132990500Y-61983333D02*
X132923833Y-61949999D01*
G04 #@! TO.C,D1*
X127323833Y-71016666D02*
X126623833Y-71016666D01*
X126623833Y-71016666D02*
X126623833Y-70849999D01*
X126623833Y-70849999D02*
X126657166Y-70749999D01*
X126657166Y-70749999D02*
X126723833Y-70683333D01*
X126723833Y-70683333D02*
X126790500Y-70649999D01*
X126790500Y-70649999D02*
X126923833Y-70616666D01*
X126923833Y-70616666D02*
X127023833Y-70616666D01*
X127023833Y-70616666D02*
X127157166Y-70649999D01*
X127157166Y-70649999D02*
X127223833Y-70683333D01*
X127223833Y-70683333D02*
X127290500Y-70749999D01*
X127290500Y-70749999D02*
X127323833Y-70849999D01*
X127323833Y-70849999D02*
X127323833Y-71016666D01*
X127323833Y-69949999D02*
X127323833Y-70349999D01*
X127323833Y-70149999D02*
X126623833Y-70149999D01*
X126623833Y-70149999D02*
X126723833Y-70216666D01*
X126723833Y-70216666D02*
X126790500Y-70283333D01*
X126790500Y-70283333D02*
X126823833Y-70349999D01*
G04 #@! TO.C,U2*
X118966666Y-65123833D02*
X118966666Y-65690500D01*
X118966666Y-65690500D02*
X119000000Y-65757166D01*
X119000000Y-65757166D02*
X119033333Y-65790500D01*
X119033333Y-65790500D02*
X119100000Y-65823833D01*
X119100000Y-65823833D02*
X119233333Y-65823833D01*
X119233333Y-65823833D02*
X119300000Y-65790500D01*
X119300000Y-65790500D02*
X119333333Y-65757166D01*
X119333333Y-65757166D02*
X119366666Y-65690500D01*
X119366666Y-65690500D02*
X119366666Y-65123833D01*
X119666666Y-65190500D02*
X119699999Y-65157166D01*
X119699999Y-65157166D02*
X119766666Y-65123833D01*
X119766666Y-65123833D02*
X119933333Y-65123833D01*
X119933333Y-65123833D02*
X119999999Y-65157166D01*
X119999999Y-65157166D02*
X120033333Y-65190500D01*
X120033333Y-65190500D02*
X120066666Y-65257166D01*
X120066666Y-65257166D02*
X120066666Y-65323833D01*
X120066666Y-65323833D02*
X120033333Y-65423833D01*
X120033333Y-65423833D02*
X119633333Y-65823833D01*
X119633333Y-65823833D02*
X120066666Y-65823833D01*
G04 #@! TO.C,R22*
X89449999Y-57323833D02*
X89216666Y-56990500D01*
X89049999Y-57323833D02*
X89049999Y-56623833D01*
X89049999Y-56623833D02*
X89316666Y-56623833D01*
X89316666Y-56623833D02*
X89383333Y-56657166D01*
X89383333Y-56657166D02*
X89416666Y-56690500D01*
X89416666Y-56690500D02*
X89449999Y-56757166D01*
X89449999Y-56757166D02*
X89449999Y-56857166D01*
X89449999Y-56857166D02*
X89416666Y-56923833D01*
X89416666Y-56923833D02*
X89383333Y-56957166D01*
X89383333Y-56957166D02*
X89316666Y-56990500D01*
X89316666Y-56990500D02*
X89049999Y-56990500D01*
X89716666Y-56690500D02*
X89749999Y-56657166D01*
X89749999Y-56657166D02*
X89816666Y-56623833D01*
X89816666Y-56623833D02*
X89983333Y-56623833D01*
X89983333Y-56623833D02*
X90049999Y-56657166D01*
X90049999Y-56657166D02*
X90083333Y-56690500D01*
X90083333Y-56690500D02*
X90116666Y-56757166D01*
X90116666Y-56757166D02*
X90116666Y-56823833D01*
X90116666Y-56823833D02*
X90083333Y-56923833D01*
X90083333Y-56923833D02*
X89683333Y-57323833D01*
X89683333Y-57323833D02*
X90116666Y-57323833D01*
X90383333Y-56690500D02*
X90416666Y-56657166D01*
X90416666Y-56657166D02*
X90483333Y-56623833D01*
X90483333Y-56623833D02*
X90650000Y-56623833D01*
X90650000Y-56623833D02*
X90716666Y-56657166D01*
X90716666Y-56657166D02*
X90750000Y-56690500D01*
X90750000Y-56690500D02*
X90783333Y-56757166D01*
X90783333Y-56757166D02*
X90783333Y-56823833D01*
X90783333Y-56823833D02*
X90750000Y-56923833D01*
X90750000Y-56923833D02*
X90350000Y-57323833D01*
X90350000Y-57323833D02*
X90783333Y-57323833D01*
G04 #@! TO.C,R3*
X126723833Y-57516666D02*
X126390500Y-57749999D01*
X126723833Y-57916666D02*
X126023833Y-57916666D01*
X126023833Y-57916666D02*
X126023833Y-57649999D01*
X126023833Y-57649999D02*
X126057166Y-57583333D01*
X126057166Y-57583333D02*
X126090500Y-57549999D01*
X126090500Y-57549999D02*
X126157166Y-57516666D01*
X126157166Y-57516666D02*
X126257166Y-57516666D01*
X126257166Y-57516666D02*
X126323833Y-57549999D01*
X126323833Y-57549999D02*
X126357166Y-57583333D01*
X126357166Y-57583333D02*
X126390500Y-57649999D01*
X126390500Y-57649999D02*
X126390500Y-57916666D01*
X126023833Y-57283333D02*
X126023833Y-56849999D01*
X126023833Y-56849999D02*
X126290500Y-57083333D01*
X126290500Y-57083333D02*
X126290500Y-56983333D01*
X126290500Y-56983333D02*
X126323833Y-56916666D01*
X126323833Y-56916666D02*
X126357166Y-56883333D01*
X126357166Y-56883333D02*
X126423833Y-56849999D01*
X126423833Y-56849999D02*
X126590500Y-56849999D01*
X126590500Y-56849999D02*
X126657166Y-56883333D01*
X126657166Y-56883333D02*
X126690500Y-56916666D01*
X126690500Y-56916666D02*
X126723833Y-56983333D01*
X126723833Y-56983333D02*
X126723833Y-57183333D01*
X126723833Y-57183333D02*
X126690500Y-57249999D01*
X126690500Y-57249999D02*
X126657166Y-57283333D01*
G04 #@! TO.C,J2*
X78166666Y-77223833D02*
X78166666Y-77723833D01*
X78166666Y-77723833D02*
X78133333Y-77823833D01*
X78133333Y-77823833D02*
X78066666Y-77890500D01*
X78066666Y-77890500D02*
X77966666Y-77923833D01*
X77966666Y-77923833D02*
X77900000Y-77923833D01*
X78466666Y-77290500D02*
X78499999Y-77257166D01*
X78499999Y-77257166D02*
X78566666Y-77223833D01*
X78566666Y-77223833D02*
X78733333Y-77223833D01*
X78733333Y-77223833D02*
X78799999Y-77257166D01*
X78799999Y-77257166D02*
X78833333Y-77290500D01*
X78833333Y-77290500D02*
X78866666Y-77357166D01*
X78866666Y-77357166D02*
X78866666Y-77423833D01*
X78866666Y-77423833D02*
X78833333Y-77523833D01*
X78833333Y-77523833D02*
X78433333Y-77923833D01*
X78433333Y-77923833D02*
X78866666Y-77923833D01*
G04 #@! TO.C,R24*
X102949999Y-57353833D02*
X102716666Y-57020500D01*
X102549999Y-57353833D02*
X102549999Y-56653833D01*
X102549999Y-56653833D02*
X102816666Y-56653833D01*
X102816666Y-56653833D02*
X102883333Y-56687166D01*
X102883333Y-56687166D02*
X102916666Y-56720500D01*
X102916666Y-56720500D02*
X102949999Y-56787166D01*
X102949999Y-56787166D02*
X102949999Y-56887166D01*
X102949999Y-56887166D02*
X102916666Y-56953833D01*
X102916666Y-56953833D02*
X102883333Y-56987166D01*
X102883333Y-56987166D02*
X102816666Y-57020500D01*
X102816666Y-57020500D02*
X102549999Y-57020500D01*
X103216666Y-56720500D02*
X103249999Y-56687166D01*
X103249999Y-56687166D02*
X103316666Y-56653833D01*
X103316666Y-56653833D02*
X103483333Y-56653833D01*
X103483333Y-56653833D02*
X103549999Y-56687166D01*
X103549999Y-56687166D02*
X103583333Y-56720500D01*
X103583333Y-56720500D02*
X103616666Y-56787166D01*
X103616666Y-56787166D02*
X103616666Y-56853833D01*
X103616666Y-56853833D02*
X103583333Y-56953833D01*
X103583333Y-56953833D02*
X103183333Y-57353833D01*
X103183333Y-57353833D02*
X103616666Y-57353833D01*
X104216666Y-56887166D02*
X104216666Y-57353833D01*
X104050000Y-56620500D02*
X103883333Y-57120500D01*
X103883333Y-57120500D02*
X104316666Y-57120500D01*
G04 #@! TO.C,C1*
X131257166Y-70616666D02*
X131290500Y-70649999D01*
X131290500Y-70649999D02*
X131323833Y-70749999D01*
X131323833Y-70749999D02*
X131323833Y-70816666D01*
X131323833Y-70816666D02*
X131290500Y-70916666D01*
X131290500Y-70916666D02*
X131223833Y-70983333D01*
X131223833Y-70983333D02*
X131157166Y-71016666D01*
X131157166Y-71016666D02*
X131023833Y-71049999D01*
X131023833Y-71049999D02*
X130923833Y-71049999D01*
X130923833Y-71049999D02*
X130790500Y-71016666D01*
X130790500Y-71016666D02*
X130723833Y-70983333D01*
X130723833Y-70983333D02*
X130657166Y-70916666D01*
X130657166Y-70916666D02*
X130623833Y-70816666D01*
X130623833Y-70816666D02*
X130623833Y-70749999D01*
X130623833Y-70749999D02*
X130657166Y-70649999D01*
X130657166Y-70649999D02*
X130690500Y-70616666D01*
X131323833Y-69949999D02*
X131323833Y-70349999D01*
X131323833Y-70149999D02*
X130623833Y-70149999D01*
X130623833Y-70149999D02*
X130723833Y-70216666D01*
X130723833Y-70216666D02*
X130790500Y-70283333D01*
X130790500Y-70283333D02*
X130823833Y-70349999D01*
G04 #@! TO.C,R2*
X133523833Y-56516666D02*
X133190500Y-56749999D01*
X133523833Y-56916666D02*
X132823833Y-56916666D01*
X132823833Y-56916666D02*
X132823833Y-56649999D01*
X132823833Y-56649999D02*
X132857166Y-56583333D01*
X132857166Y-56583333D02*
X132890500Y-56549999D01*
X132890500Y-56549999D02*
X132957166Y-56516666D01*
X132957166Y-56516666D02*
X133057166Y-56516666D01*
X133057166Y-56516666D02*
X133123833Y-56549999D01*
X133123833Y-56549999D02*
X133157166Y-56583333D01*
X133157166Y-56583333D02*
X133190500Y-56649999D01*
X133190500Y-56649999D02*
X133190500Y-56916666D01*
X132890500Y-56249999D02*
X132857166Y-56216666D01*
X132857166Y-56216666D02*
X132823833Y-56149999D01*
X132823833Y-56149999D02*
X132823833Y-55983333D01*
X132823833Y-55983333D02*
X132857166Y-55916666D01*
X132857166Y-55916666D02*
X132890500Y-55883333D01*
X132890500Y-55883333D02*
X132957166Y-55849999D01*
X132957166Y-55849999D02*
X133023833Y-55849999D01*
X133023833Y-55849999D02*
X133123833Y-55883333D01*
X133123833Y-55883333D02*
X133523833Y-56283333D01*
X133523833Y-56283333D02*
X133523833Y-55849999D01*
D12*
G04 #@! TO.C,D2*
X121850000Y-66390000D02*
X120150000Y-66390000D01*
X121850000Y-66390000D02*
X121850000Y-69050000D01*
X120150000Y-66390000D02*
X120150000Y-69050000D01*
G04 #@! TO.C,R13*
X80687742Y-55077500D02*
X81162258Y-55077500D01*
X80687742Y-56122500D02*
X81162258Y-56122500D01*
G04 #@! TO.C,D3*
X117115000Y-64322500D02*
X118585000Y-64322500D01*
X118585000Y-64322500D02*
X118585000Y-62037500D01*
X117115000Y-62037500D02*
X117115000Y-64322500D01*
G04 #@! TO.C,F1*
X119510000Y-56337221D02*
X119510000Y-56662779D01*
X118490000Y-56337221D02*
X118490000Y-56662779D01*
G04 #@! TO.C,R8*
X122477500Y-68237258D02*
X122477500Y-67762742D01*
X123522500Y-68237258D02*
X123522500Y-67762742D01*
G04 #@! TO.C,R10*
X118372500Y-59387742D02*
X118372500Y-59862258D01*
X117327500Y-59387742D02*
X117327500Y-59862258D01*
G04 #@! TO.C,R6*
X122977500Y-56737258D02*
X122977500Y-56262742D01*
X124022500Y-56737258D02*
X124022500Y-56262742D01*
G04 #@! TO.C,R14*
X83662742Y-55077500D02*
X84137258Y-55077500D01*
X83662742Y-56122500D02*
X84137258Y-56122500D01*
G04 #@! TO.C,C2*
X125510000Y-67859420D02*
X125510000Y-68140580D01*
X124490000Y-67859420D02*
X124490000Y-68140580D01*
G04 #@! TO.C,R23*
X100537258Y-56122500D02*
X100062742Y-56122500D01*
X100537258Y-55077500D02*
X100062742Y-55077500D01*
G04 #@! TO.C,R26*
X115562742Y-55077500D02*
X116037258Y-55077500D01*
X115562742Y-56122500D02*
X116037258Y-56122500D01*
G04 #@! TO.C,R5*
X122522500Y-56262742D02*
X122522500Y-56737258D01*
X121477500Y-56262742D02*
X121477500Y-56737258D01*
G04 #@! TO.C,R16*
X96737742Y-55077500D02*
X97212258Y-55077500D01*
X96737742Y-56122500D02*
X97212258Y-56122500D01*
G04 #@! TO.C,J1*
X131330000Y-40370000D02*
X67710000Y-40370000D01*
X131330000Y-40370000D02*
X131330000Y-49000000D01*
X131210000Y-40370000D02*
X131210000Y-49000000D01*
X131091905Y-40370000D02*
X131091905Y-49000000D01*
X130973810Y-40370000D02*
X130973810Y-49000000D01*
X130855715Y-40370000D02*
X130855715Y-49000000D01*
X130737620Y-40370000D02*
X130737620Y-49000000D01*
X130619525Y-40370000D02*
X130619525Y-49000000D01*
X130501430Y-40370000D02*
X130501430Y-49000000D01*
X130383335Y-40370000D02*
X130383335Y-49000000D01*
X130265240Y-40370000D02*
X130265240Y-49000000D01*
X130147145Y-40370000D02*
X130147145Y-49000000D01*
X130029050Y-40370000D02*
X130029050Y-49000000D01*
X129910955Y-40370000D02*
X129910955Y-49000000D01*
X129792860Y-40370000D02*
X129792860Y-49000000D01*
X129674765Y-40370000D02*
X129674765Y-49000000D01*
X129556670Y-40370000D02*
X129556670Y-49000000D01*
X129438575Y-40370000D02*
X129438575Y-49000000D01*
X129320480Y-40370000D02*
X129320480Y-49000000D01*
X129202385Y-40370000D02*
X129202385Y-49000000D01*
X129084290Y-40370000D02*
X129084290Y-49000000D01*
X128966195Y-40370000D02*
X128966195Y-49000000D01*
X128848100Y-40370000D02*
X128848100Y-49000000D01*
X128730000Y-40370000D02*
X128730000Y-49000000D01*
X126190000Y-40370000D02*
X126190000Y-49000000D01*
X123650000Y-40370000D02*
X123650000Y-49000000D01*
X121110000Y-40370000D02*
X121110000Y-49000000D01*
X118570000Y-40370000D02*
X118570000Y-49000000D01*
X116030000Y-40370000D02*
X116030000Y-49000000D01*
X113490000Y-40370000D02*
X113490000Y-49000000D01*
X110950000Y-40370000D02*
X110950000Y-49000000D01*
X108410000Y-40370000D02*
X108410000Y-49000000D01*
X105870000Y-40370000D02*
X105870000Y-49000000D01*
X103330000Y-40370000D02*
X103330000Y-49000000D01*
X100790000Y-40370000D02*
X100790000Y-49000000D01*
X98250000Y-40370000D02*
X98250000Y-49000000D01*
X95710000Y-40370000D02*
X95710000Y-49000000D01*
X93170000Y-40370000D02*
X93170000Y-49000000D01*
X90630000Y-40370000D02*
X90630000Y-49000000D01*
X88090000Y-40370000D02*
X88090000Y-49000000D01*
X85550000Y-40370000D02*
X85550000Y-49000000D01*
X83010000Y-40370000D02*
X83010000Y-49000000D01*
X80470000Y-40370000D02*
X80470000Y-49000000D01*
X77930000Y-40370000D02*
X77930000Y-49000000D01*
X75390000Y-40370000D02*
X75390000Y-49000000D01*
X72850000Y-40370000D02*
X72850000Y-49000000D01*
X70310000Y-40370000D02*
X70310000Y-49000000D01*
X67710000Y-40370000D02*
X67710000Y-49000000D01*
X131330000Y-49000000D02*
X67710000Y-49000000D01*
X130360000Y-49000000D02*
X130360000Y-49410000D01*
X129640000Y-49000000D02*
X129640000Y-49410000D01*
X127820000Y-49000000D02*
X127820000Y-49410000D01*
X127100000Y-49000000D02*
X127100000Y-49410000D01*
X125280000Y-49000000D02*
X125280000Y-49410000D01*
X124560000Y-49000000D02*
X124560000Y-49410000D01*
X122740000Y-49000000D02*
X122740000Y-49410000D01*
X122020000Y-49000000D02*
X122020000Y-49410000D01*
X120200000Y-49000000D02*
X120200000Y-49410000D01*
X119480000Y-49000000D02*
X119480000Y-49410000D01*
X117660000Y-49000000D02*
X117660000Y-49410000D01*
X116940000Y-49000000D02*
X116940000Y-49410000D01*
X115120000Y-49000000D02*
X115120000Y-49410000D01*
X114400000Y-49000000D02*
X114400000Y-49410000D01*
X112580000Y-49000000D02*
X112580000Y-49410000D01*
X111860000Y-49000000D02*
X111860000Y-49410000D01*
X110040000Y-49000000D02*
X110040000Y-49410000D01*
X109320000Y-49000000D02*
X109320000Y-49410000D01*
X107500000Y-49000000D02*
X107500000Y-49410000D01*
X106780000Y-49000000D02*
X106780000Y-49410000D01*
X104960000Y-49000000D02*
X104960000Y-49410000D01*
X104240000Y-49000000D02*
X104240000Y-49410000D01*
X102420000Y-49000000D02*
X102420000Y-49410000D01*
X101700000Y-49000000D02*
X101700000Y-49410000D01*
X99880000Y-49000000D02*
X99880000Y-49410000D01*
X99160000Y-49000000D02*
X99160000Y-49410000D01*
X97340000Y-49000000D02*
X97340000Y-49410000D01*
X96620000Y-49000000D02*
X96620000Y-49410000D01*
X94800000Y-49000000D02*
X94800000Y-49410000D01*
X94080000Y-49000000D02*
X94080000Y-49410000D01*
X92260000Y-49000000D02*
X92260000Y-49410000D01*
X91540000Y-49000000D02*
X91540000Y-49410000D01*
X89720000Y-49000000D02*
X89720000Y-49410000D01*
X89000000Y-49000000D02*
X89000000Y-49410000D01*
X87180000Y-49000000D02*
X87180000Y-49410000D01*
X86460000Y-49000000D02*
X86460000Y-49410000D01*
X84640000Y-49000000D02*
X84640000Y-49410000D01*
X83920000Y-49000000D02*
X83920000Y-49410000D01*
X82100000Y-49000000D02*
X82100000Y-49410000D01*
X81380000Y-49000000D02*
X81380000Y-49410000D01*
X79560000Y-49000000D02*
X79560000Y-49410000D01*
X78840000Y-49000000D02*
X78840000Y-49410000D01*
X77020000Y-49000000D02*
X77020000Y-49410000D01*
X76300000Y-49000000D02*
X76300000Y-49410000D01*
X74480000Y-49000000D02*
X74480000Y-49410000D01*
X73760000Y-49000000D02*
X73760000Y-49410000D01*
X71940000Y-49000000D02*
X71940000Y-49410000D01*
X71220000Y-49000000D02*
X71220000Y-49410000D01*
X69400000Y-49000000D02*
X69400000Y-49410000D01*
X68680000Y-49000000D02*
X68680000Y-49410000D01*
X130360000Y-51510000D02*
X130360000Y-51890000D01*
X129640000Y-51510000D02*
X129640000Y-51890000D01*
X127820000Y-51510000D02*
X127820000Y-51950000D01*
X127100000Y-51510000D02*
X127100000Y-51950000D01*
X125280000Y-51510000D02*
X125280000Y-51950000D01*
X124560000Y-51510000D02*
X124560000Y-51950000D01*
X122740000Y-51510000D02*
X122740000Y-51950000D01*
X122020000Y-51510000D02*
X122020000Y-51950000D01*
X120200000Y-51510000D02*
X120200000Y-51950000D01*
X119480000Y-51510000D02*
X119480000Y-51950000D01*
X117660000Y-51510000D02*
X117660000Y-51950000D01*
X116940000Y-51510000D02*
X116940000Y-51950000D01*
X115120000Y-51510000D02*
X115120000Y-51950000D01*
X114400000Y-51510000D02*
X114400000Y-51950000D01*
X112580000Y-51510000D02*
X112580000Y-51950000D01*
X111860000Y-51510000D02*
X111860000Y-51950000D01*
X110040000Y-51510000D02*
X110040000Y-51950000D01*
X109320000Y-51510000D02*
X109320000Y-51950000D01*
X107500000Y-51510000D02*
X107500000Y-51950000D01*
X106780000Y-51510000D02*
X106780000Y-51950000D01*
X104960000Y-51510000D02*
X104960000Y-51950000D01*
X104240000Y-51510000D02*
X104240000Y-51950000D01*
X102420000Y-51510000D02*
X102420000Y-51950000D01*
X101700000Y-51510000D02*
X101700000Y-51950000D01*
X99880000Y-51510000D02*
X99880000Y-51950000D01*
X99160000Y-51510000D02*
X99160000Y-51950000D01*
X97340000Y-51510000D02*
X97340000Y-51950000D01*
X96620000Y-51510000D02*
X96620000Y-51950000D01*
X94800000Y-51510000D02*
X94800000Y-51950000D01*
X94080000Y-51510000D02*
X94080000Y-51950000D01*
X92260000Y-51510000D02*
X92260000Y-51950000D01*
X91540000Y-51510000D02*
X91540000Y-51950000D01*
X89720000Y-51510000D02*
X89720000Y-51950000D01*
X89000000Y-51510000D02*
X89000000Y-51950000D01*
X87180000Y-51510000D02*
X87180000Y-51950000D01*
X86460000Y-51510000D02*
X86460000Y-51950000D01*
X84640000Y-51510000D02*
X84640000Y-51950000D01*
X83920000Y-51510000D02*
X83920000Y-51950000D01*
X82100000Y-51510000D02*
X82100000Y-51950000D01*
X81380000Y-51510000D02*
X81380000Y-51950000D01*
X79560000Y-51510000D02*
X79560000Y-51950000D01*
X78840000Y-51510000D02*
X78840000Y-51950000D01*
X77020000Y-51510000D02*
X77020000Y-51950000D01*
X76300000Y-51510000D02*
X76300000Y-51950000D01*
X74480000Y-51510000D02*
X74480000Y-51950000D01*
X73760000Y-51510000D02*
X73760000Y-51950000D01*
X71940000Y-51510000D02*
X71940000Y-51950000D01*
X71220000Y-51510000D02*
X71220000Y-51950000D01*
X69400000Y-51510000D02*
X69400000Y-51950000D01*
X68680000Y-51510000D02*
X68680000Y-51950000D01*
X131330000Y-53000000D02*
X131330000Y-54110000D01*
X131330000Y-54110000D02*
X130000000Y-54110000D01*
G04 #@! TO.C,R20*
X77662742Y-55077500D02*
X78137258Y-55077500D01*
X77662742Y-56122500D02*
X78137258Y-56122500D01*
G04 #@! TO.C,R11*
X68662742Y-55077500D02*
X69137258Y-55077500D01*
X68662742Y-56122500D02*
X69137258Y-56122500D01*
G04 #@! TO.C,R18*
X109362742Y-55077500D02*
X109837258Y-55077500D01*
X109362742Y-56122500D02*
X109837258Y-56122500D01*
G04 #@! TO.C,R4*
X128477500Y-68237258D02*
X128477500Y-67762742D01*
X129522500Y-68237258D02*
X129522500Y-67762742D01*
G04 #@! TO.C,R25*
X112462742Y-55077500D02*
X112937258Y-55077500D01*
X112462742Y-56122500D02*
X112937258Y-56122500D01*
G04 #@! TO.C,R1*
X128977500Y-56737258D02*
X128977500Y-56262742D01*
X130022500Y-56737258D02*
X130022500Y-56262742D01*
G04 #@! TO.C,R12*
X71662742Y-55077500D02*
X72137258Y-55077500D01*
X71662742Y-56122500D02*
X72137258Y-56122500D01*
G04 #@! TO.C,R17*
X106287742Y-55077500D02*
X106762258Y-55077500D01*
X106287742Y-56122500D02*
X106762258Y-56122500D01*
G04 #@! TO.C,R19*
X74662742Y-55077500D02*
X75137258Y-55077500D01*
X74662742Y-56122500D02*
X75137258Y-56122500D01*
G04 #@! TO.C,R7*
X125522500Y-56262742D02*
X125522500Y-56737258D01*
X124477500Y-56262742D02*
X124477500Y-56737258D01*
G04 #@! TO.C,R15*
X93587742Y-55077500D02*
X94062258Y-55077500D01*
X93587742Y-56122500D02*
X94062258Y-56122500D01*
G04 #@! TO.C,R21*
X86637742Y-55077500D02*
X87112258Y-55077500D01*
X86637742Y-56122500D02*
X87112258Y-56122500D01*
G04 #@! TO.C,J3*
X104800000Y-89120000D02*
X105800000Y-89120000D01*
X105800000Y-89120000D02*
X105300000Y-88120000D01*
X105300000Y-88120000D02*
X104800000Y-89120000D01*
X100090000Y-87730000D02*
X100090000Y-78610000D01*
X117220000Y-87730000D02*
X117220000Y-86420000D01*
X138450000Y-87730000D02*
X100090000Y-87730000D01*
X101390000Y-86420000D02*
X101390000Y-79920000D01*
X117220000Y-86420000D02*
X101390000Y-86420000D01*
X121320000Y-86420000D02*
X121320000Y-87730000D01*
X121320000Y-86420000D02*
X121320000Y-86420000D01*
X137150000Y-86420000D02*
X121320000Y-86420000D01*
X101390000Y-79920000D02*
X137150000Y-79920000D01*
X137150000Y-79920000D02*
X137150000Y-86420000D01*
X100090000Y-78610000D02*
X138450000Y-78610000D01*
X138450000Y-78610000D02*
X138450000Y-87730000D01*
G04 #@! TO.C,U1*
X131560000Y-62000000D02*
X131560000Y-58550000D01*
X131560000Y-62000000D02*
X131560000Y-63950000D01*
X126440000Y-62000000D02*
X126440000Y-60050000D01*
X126440000Y-62000000D02*
X126440000Y-63950000D01*
G04 #@! TO.C,R9*
X132477500Y-60237258D02*
X132477500Y-59762742D01*
X133522500Y-60237258D02*
X133522500Y-59762742D01*
G04 #@! TO.C,D1*
X127850000Y-66390000D02*
X126150000Y-66390000D01*
X127850000Y-66390000D02*
X127850000Y-69050000D01*
X126150000Y-66390000D02*
X126150000Y-69050000D01*
G04 #@! TO.C,U2*
X125560000Y-62000000D02*
X125560000Y-58550000D01*
X125560000Y-62000000D02*
X125560000Y-63950000D01*
X120440000Y-62000000D02*
X120440000Y-60050000D01*
X120440000Y-62000000D02*
X120440000Y-63950000D01*
G04 #@! TO.C,R22*
X89662742Y-55077500D02*
X90137258Y-55077500D01*
X89662742Y-56122500D02*
X90137258Y-56122500D01*
G04 #@! TO.C,R3*
X128022500Y-56262742D02*
X128022500Y-56737258D01*
X126977500Y-56262742D02*
X126977500Y-56737258D01*
G04 #@! TO.C,J2*
X65400000Y-89120000D02*
X66400000Y-89120000D01*
X66400000Y-89120000D02*
X65900000Y-88120000D01*
X65900000Y-88120000D02*
X65400000Y-89120000D01*
X60690000Y-87730000D02*
X60690000Y-78610000D01*
X77820000Y-87730000D02*
X77820000Y-86420000D01*
X99050000Y-87730000D02*
X60690000Y-87730000D01*
X61990000Y-86420000D02*
X61990000Y-79920000D01*
X77820000Y-86420000D02*
X61990000Y-86420000D01*
X81920000Y-86420000D02*
X81920000Y-87730000D01*
X81920000Y-86420000D02*
X81920000Y-86420000D01*
X97750000Y-86420000D02*
X81920000Y-86420000D01*
X61990000Y-79920000D02*
X97750000Y-79920000D01*
X97750000Y-79920000D02*
X97750000Y-86420000D01*
X60690000Y-78610000D02*
X99050000Y-78610000D01*
X99050000Y-78610000D02*
X99050000Y-87730000D01*
G04 #@! TO.C,R24*
X103637258Y-56122500D02*
X103162742Y-56122500D01*
X103637258Y-55077500D02*
X103162742Y-55077500D01*
G04 #@! TO.C,C1*
X131510000Y-67859420D02*
X131510000Y-68140580D01*
X130490000Y-67859420D02*
X130490000Y-68140580D01*
G04 #@! TO.C,R2*
X131522500Y-56262742D02*
X131522500Y-56737258D01*
X130477500Y-56262742D02*
X130477500Y-56737258D01*
G04 #@! TD*
M02*
